<svg width="86" height="60" viewBox="0 0 86 60" fill="none" xmlns="http://www.w3.org/2000/svg">
<path d="M65.4348 0C54.5277 0 45.58 8.56125 44.9135 19.335L40.921 14.4084C40.9126 14.3972 40.8995 14.3925 40.8902 14.3822C40.8827 14.3737 40.8724 14.3681 40.865 14.3606C40.5593 14.0409 40.0713 13.9688 39.6927 14.2097C39.6367 14.2453 39.5983 14.2959 39.5525 14.3419C39.5301 14.3616 39.5077 14.3812 39.4871 14.4037C39.4581 14.4384 39.4338 14.4741 39.4095 14.5125C39.3927 14.5387 39.3702 14.5594 39.3562 14.5875L36.4565 20.5294V11.25C36.4565 11.2378 36.45 11.2275 36.45 11.2153C36.4462 11.1056 36.4294 10.9959 36.3855 10.8909L36.3836 10.8881C36.3808 10.8806 36.3743 10.8741 36.3705 10.8666C36.3285 10.7728 36.2705 10.6903 36.2023 10.6163C36.1798 10.5919 36.1555 10.5731 36.1312 10.5516C36.0714 10.4991 36.0069 10.4559 35.9368 10.4203C35.9069 10.4053 35.8798 10.3903 35.848 10.3781C35.7452 10.3397 35.6367 10.3125 35.5217 10.3125H8.41304C8.16533 10.3125 7.92696 10.4109 7.75215 10.5872L0.273892 18.0872L0.272956 18.0891C0.194435 18.1678 0.138348 18.2597 0.0925435 18.3572C0.0794565 18.3853 0.0719782 18.4153 0.0616956 18.4453C0.0336522 18.5259 0.0168261 18.6075 0.0121522 18.6928C0.0102826 18.7125 0 18.7294 0 18.75V45.9375C0 46.455 0.418783 46.875 0.934783 46.875H23.6014L17.8553 58.6509C17.7141 58.9416 17.731 59.2847 17.902 59.5594C18.0731 59.8331 18.3732 60 18.6957 60H61.6957C61.7172 60 61.7377 59.9991 61.7592 59.9981C61.7817 59.9963 61.8013 59.9869 61.8228 59.9841C61.8798 59.9766 61.934 59.9653 61.9882 59.9475C62.02 59.9372 62.049 59.925 62.0789 59.9109C62.1275 59.8884 62.1733 59.8622 62.2173 59.8322C62.2444 59.8134 62.2715 59.7956 62.2967 59.7741C62.3378 59.7384 62.3743 59.6981 62.4098 59.6559C62.4304 59.6316 62.4519 59.61 62.4687 59.5828C62.4743 59.5744 62.4827 59.5678 62.4883 59.5584C62.5211 59.5059 62.5435 59.4487 62.565 59.3916C62.5697 59.3784 62.579 59.3691 62.5828 59.3559L62.5865 59.3438L62.5874 59.3409L66.1536 48.4809C66.2536 48.1772 66.192 47.8434 65.991 47.5959L60.3262 40.6078C61.9808 41.0325 63.6886 41.25 65.4348 41.25C76.7746 41.25 86 31.9978 86 20.625C86 9.25219 76.7746 0 65.4348 0ZM28.9783 35.8556V19.1381L34.587 13.5131V24.3609L28.9783 35.8556ZM8.80004 12.1875H33.2652L27.6565 17.8125H3.19135L8.80004 12.1875ZM24.3043 45H1.86957V19.6875H27.1087V39.375C27.1087 39.4538 27.1349 39.5231 27.1536 39.5962L24.4978 45.0394C24.4333 45.0253 24.3726 45 24.3043 45ZM40.1957 17.1328L60.1972 58.125H20.1941L40.1957 17.1328ZM61.5255 56.5819L45.1715 23.0634L52.2113 33.5625L56.8105 39.2438C56.8133 39.2475 56.8189 39.2494 56.8226 39.2531L64.2186 48.3806L61.5255 56.5819ZM65.4348 39.375C62.8847 39.375 60.4253 38.8744 58.1192 37.8853L53.7117 32.4487L46.798 22.1306C46.7588 21.6384 46.7391 21.1331 46.7391 20.625C46.7391 10.2863 55.126 1.875 65.4348 1.875C75.7436 1.875 84.1304 10.2863 84.1304 20.625C84.1304 30.9637 75.7436 39.375 65.4348 39.375Z" fill="#53C6F1"/>
<path d="M66.4275 4.73625C65.9199 4.70625 65.4684 5.09719 65.4367 5.61375C65.4049 6.13031 65.7965 6.57563 66.3116 6.6075C72.3802 6.98531 77.4776 11.205 78.9957 17.1084C79.105 17.5322 79.4846 17.8125 79.9005 17.8125C79.9781 17.8125 80.0567 17.8031 80.1342 17.7825C80.6343 17.6531 80.9353 17.1422 80.8064 16.6406C79.0854 9.94875 73.3066 5.16469 66.4275 4.73625Z" fill="#53C6F1"/>
</svg>
