<svg width="60" height="60" viewBox="0 0 60 60" fill="none" xmlns="http://www.w3.org/2000/svg">
<path d="M59.9994 24.4406C60.013 23.3248 59.81 22.2172 59.4021 21.181C58.9941 20.1449 58.3891 19.2004 57.6216 18.4017C56.8542 17.603 55.9393 16.9656 54.9292 16.5259C53.9191 16.0862 52.8335 15.8529 51.7346 15.8392C50.3622 15.8647 49.0159 16.2245 47.8089 16.8881V11.3287C47.7819 8.33259 46.5977 5.46697 44.5111 3.34834C42.4245 1.2297 39.6022 0.0273632 36.6515 0H23.4279C20.4771 0.0273632 17.6548 1.2297 15.5682 3.34834C13.4816 5.46697 12.2974 8.33259 12.2705 11.3287V16.8881C11.0634 16.2245 9.71712 15.8647 8.34471 15.8392C6.47293 15.8676 4.66315 16.5247 3.19807 17.7079C1.733 18.891 0.695161 20.5336 0.246694 22.379C-0.201773 24.2243 -0.0356094 26.1686 0.719226 27.9079C1.47406 29.6473 2.77505 31.0838 4.41896 31.993V56.7483C4.41896 57.0265 4.5278 57.2933 4.72154 57.49C4.91528 57.6867 5.17806 57.7972 5.45205 57.7972H8.34471V58.951C8.36798 59.2213 8.4843 59.4746 8.67323 59.6664C8.86216 59.8583 9.11163 59.9764 9.3778 60H13.0969C13.3709 60 13.6337 59.8895 13.8274 59.6928C14.0212 59.4961 14.13 59.2293 14.13 58.951V57.7972H45.9493V58.951C45.9493 59.2293 46.0581 59.4961 46.2519 59.6928C46.4456 59.8895 46.7084 60 46.9824 60H50.7015C50.9677 59.9764 51.2172 59.8583 51.4061 59.6664C51.595 59.4746 51.7113 59.2213 51.7346 58.951V57.7972H54.6273C54.9013 57.7972 55.164 57.6867 55.3578 57.49C55.5515 57.2933 55.6604 57.0265 55.6604 56.7483V31.993C56.9825 31.2429 58.0824 30.1466 58.8455 28.8183C59.6086 27.49 60.0071 25.9783 59.9994 24.4406ZM23.4279 2.0979H36.6515C39.0543 2.12516 41.3511 3.10644 43.0502 4.83167C44.7494 6.5569 45.7158 8.88898 45.7427 11.3287V18.986L43.6765 36.7133H16.4028L14.3366 18.986V11.3287C14.3635 8.88898 15.3299 6.5569 17.0291 4.83167C18.7282 3.10644 21.0251 2.12516 23.4279 2.0979ZM15.4731 38.8112H44.6063C44.9077 38.8112 45.1967 38.9328 45.4098 39.1491C45.6229 39.3655 45.7427 39.659 45.7427 39.965V46.5734C45.7571 46.7335 45.7383 46.8949 45.6877 47.0473C45.6371 47.1996 45.5557 47.3395 45.4487 47.458C45.3417 47.5765 45.2115 47.671 45.0664 47.7355C44.9213 47.7999 44.7646 47.8328 44.6063 47.8322H15.4731C15.3147 47.8328 15.158 47.7999 15.0129 47.7355C14.8678 47.671 14.7376 47.5765 14.6306 47.458C14.5236 47.3395 14.4422 47.1996 14.3916 47.0473C14.341 46.8949 14.3222 46.7335 14.3366 46.5734V39.965C14.3366 39.659 14.4564 39.3655 14.6695 39.1491C14.8826 38.9328 15.1717 38.8112 15.4731 38.8112ZM54.214 30.4196C54.1107 30.5245 54.0074 30.5245 54.0074 30.6294C54.0074 30.7343 53.9041 30.6294 53.9041 30.7343L53.6975 30.9441C53.6601 30.9866 53.6317 31.0365 53.6139 31.0906C53.5961 31.1447 53.5894 31.2019 53.5942 31.2587V55.6993H6.48514V31.4685C6.48989 31.4117 6.48318 31.3545 6.46541 31.3004C6.44765 31.2463 6.41921 31.1964 6.38183 31.1538L6.17521 30.9441C6.17521 30.8392 6.17521 30.8392 6.0719 30.8392C5.96859 30.8392 5.96859 30.7343 5.86529 30.6294C4.71035 30.0892 3.73992 29.2121 3.07759 28.11C2.41527 27.0078 2.09102 25.7305 2.14615 24.4406C2.13247 23.6003 2.28197 22.7654 2.58609 21.9838C2.89021 21.2022 3.34301 20.489 3.91862 19.8851C4.49423 19.2812 5.18138 18.7983 5.94082 18.464C6.70025 18.1298 7.5171 17.9507 8.34471 17.9371C9.83361 17.9351 11.2699 18.496 12.3738 19.5105L14.44 36.9231C13.8209 37.1528 13.2835 37.5651 12.897 38.1071C12.5104 38.6492 12.2922 39.2962 12.2705 39.965V46.5734C12.2566 47.0092 12.3292 47.4433 12.4839 47.8501C12.6387 48.2568 12.8724 48.6277 13.1712 48.9409C13.4699 49.254 13.8277 49.503 14.2231 49.6729C14.6186 49.8428 15.0436 49.9303 15.4731 49.9301H44.6063C45.0357 49.9303 45.4607 49.8428 45.8562 49.6729C46.2516 49.503 46.6094 49.254 46.9082 48.9409C47.2069 48.6277 47.4406 48.2568 47.5954 47.8501C47.7501 47.4433 47.8227 47.0092 47.8089 46.5734V39.965C47.7871 39.2962 47.5689 38.6492 47.1823 38.1071C46.7958 37.5651 46.2584 37.1528 45.6394 36.9231L47.7055 19.5105C48.8094 18.496 50.2457 17.9351 51.7346 17.9371C52.5622 17.9507 53.3791 18.1298 54.1385 18.464C54.8979 18.7983 55.5851 19.2812 56.1607 19.8851C56.7363 20.489 57.1891 21.2022 57.4932 21.9838C57.7974 22.7654 57.9468 23.6003 57.9332 24.4406C57.9474 25.6952 57.6038 26.9273 56.9439 27.9882C56.284 29.0491 55.3359 29.8935 54.214 30.4196Z" fill="#53C6F1"/>
</svg>
