<svg width="62" height="62" viewBox="0 0 62 62" fill="none" xmlns="http://www.w3.org/2000/svg">
<path d="M46.2747 6.41882C46.3294 6.18527 46.2844 5.93235 46.1106 5.74284L41.9907 1.2494C41.8743 1.11903 41.7197 1.03773 41.5557 1.01063C41.5549 1.01063 41.5549 1.01063 41.5549 1.01063C41.5549 1.01063 41.5542 1.01063 41.5542 1.0099C41.5476 1.00917 41.5403 1.00843 41.5337 1.00697H41.533C41.4963 1.00184 41.4597 0.998912 41.4231 1.00038H20.3894C20.355 1.00111 20.3235 1.00184 20.2913 1.0055C20.2905 1.0055 20.2905 1.0055 20.2905 1.0055C20.2729 1.0077 20.2561 1.01063 20.2385 1.01356C20.2385 1.01356 20.2385 1.01356 20.2378 1.01356V1.01429C20.0811 1.04432 19.9338 1.12416 19.8218 1.2494L15.7019 5.74284C15.502 5.96082 15.4595 6.26501 15.5615 6.52383C12.8868 7.48807 6.53482 10.0083 3.17291 13.2661C3.16028 13.2782 3.14856 13.2897 3.13675 13.3027C1.84366 14.5663 1 15.9391 1 17.3752V51.3752C1 51.6704 1.17358 51.9384 1.44238 52.0593L9.78613 55.8093C9.80573 55.818 9.82632 55.8152 9.84619 55.8222V60.25C9.84619 60.6645 10.1816 61 10.5962 61H51.4038C51.8184 61 52.1538 60.6645 52.1538 60.25V55.8222C52.1736 55.8152 52.1944 55.818 52.2139 55.8093L60.5576 52.0593C60.8264 51.9384 61 51.6704 61 51.3752V17.3752C61 12.0732 49.644 7.62238 46.2747 6.41882ZM44.5095 6.21598L36.3613 14.0346L32.3704 9.37421L41.3352 2.75454L44.5095 6.21598ZM39.1541 2.50039L30.9062 8.59051L22.6584 2.50039H39.1541ZM20.4773 2.75454L29.4421 9.37421L25.4512 14.0346L17.303 6.21598L20.4773 2.75454ZM2.5 50.8903V17.3752C2.5 16.482 3.01013 15.5731 3.84857 14.6841C9.56805 17.2669 9.84399 25.8043 9.84619 25.875V54.1916L2.5 50.8903ZM5.03986 13.5983C8.26324 11.0087 13.7561 8.72917 16.6968 7.71329L24.9854 15.6665C25.1348 15.8093 25.334 15.8862 25.5413 15.8745C25.7471 15.8642 25.9404 15.7698 26.0745 15.613L30.1562 10.8469V59.5H11.3462V25.8582C11.3372 25.4708 11.066 16.8167 5.03986 13.5983ZM50.6538 59.5H31.6562V10.8469L35.738 15.613C35.8721 15.7698 36.0654 15.8642 36.2712 15.8745C36.2837 15.8752 36.2954 15.8752 36.3079 15.8752C36.5012 15.8752 36.6873 15.8005 36.8271 15.6665L45.2001 7.63227C47.7569 8.50413 52.5791 10.474 55.9141 12.796C51.0243 15.1135 50.6679 25.3787 50.6538 25.875V59.5ZM59.5 50.8903L52.1538 54.1916V25.897C52.2448 22.7718 53.3601 14.6731 57.3415 13.8968C58.6491 15.0306 59.5 16.2159 59.5 17.3752V50.8903Z" fill="#53C6F1" stroke="#53C6F1" stroke-width="0.7"/>
</svg>
