<svg width="55" height="62" viewBox="0 0 55 62" fill="none" xmlns="http://www.w3.org/2000/svg">
<path d="M53.7327 1.09994C53.5322 0.966685 53.3317 0.966685 53.1311 1.09994L47.517 3.89839V1.63298C47.517 1.43309 47.3834 1.2332 47.1828 1.09994C46.9823 0.966685 46.7818 1.03331 46.5813 1.16657L41.034 4.96446V1.63298C41.034 1.36646 40.9004 1.16657 40.633 1.09994C40.4325 1.03331 40.1652 1.03332 39.9647 1.2332L34.4842 6.89672V1.63298C34.4842 1.36646 34.2837 1.09994 34.0164 1.03331C33.7491 0.966685 33.4817 1.09994 33.348 1.29983L27.6671 12.3604H27.6003L21.5851 1.36646C21.4515 1.09994 21.1841 1.03331 20.9168 1.09994C20.6494 1.16657 20.4489 1.43309 20.4489 1.69961V6.63021L14.9685 1.2332C14.768 1.09994 14.5675 1.03331 14.3001 1.09994C14.0996 1.16657 13.966 1.43309 13.966 1.63298V4.96446L8.41866 1.16657C8.21816 1.03331 8.01765 1.03331 7.81715 1.09994C7.61665 1.2332 7.48298 1.43309 7.48298 1.63298V3.89839L1.86885 1.09994C1.66835 1.03331 1.46784 1.03331 1.26734 1.09994C1.06683 1.2332 1 1.36646 1 1.63298V47.8073C1 48.0072 1.13367 48.2071 1.33417 48.3404L24.9937 60.2004C25.261 60.6669 25.7289 61 26.3304 61H28.6696C29.2043 61 29.739 60.6669 30.0063 60.2004L53.6658 48.3404C53.8663 48.2737 54 48.0072 54 47.8073V1.63298C54 1.43309 53.9332 1.2332 53.7327 1.09994ZM46.3808 2.76569V4.49806L36.9571 9.22876L46.3808 2.76569ZM34.4174 8.76235L39.8979 3.09883V5.76402L32.145 11.0944L34.4174 8.76235ZM15.169 3.0322L20.6494 8.36258L24.5259 12.1605L15.169 5.69739V3.0322ZM8.686 2.76569L18.1097 9.22876L8.686 4.49806V2.76569ZM24.86 58.8012L2.20303 47.4742V2.5658L7.81715 5.36424C7.81715 5.36424 7.81715 5.36424 7.88399 5.36424L24.86 13.8928V58.8012ZM21.652 7.69628V3.89839L26.1299 12.0938L21.652 7.69628ZM29.0038 59.5341C29.0038 59.734 28.8701 59.8673 28.6696 59.8673H26.3304C26.1299 59.8673 25.9962 59.734 25.9962 59.5341V13.8262C25.9962 13.6263 26.1299 13.4931 26.3304 13.4931H27.1992H27.9344H28.6028C28.8033 13.4931 28.9369 13.6263 28.9369 13.8262V59.5341H29.0038ZM29.2043 12.427C29.1375 12.427 29.0038 12.3604 28.9369 12.3604L33.4149 3.96502V8.09606L29.2043 12.427ZM52.797 47.4742L30.2068 58.8012V13.8928L47.1828 5.36424C47.1828 5.36424 47.1828 5.36424 47.2497 5.36424L52.8638 2.5658V47.4742H52.797Z" fill="#53C6F1" stroke="#53C6F1" stroke-width="0.5"/>
</svg>
