<svg width="60" height="60" viewBox="0 0 60 60" fill="none" xmlns="http://www.w3.org/2000/svg">
<path d="M42.2582 0.356323C40.0607 0.851431 38.126 2.13963 36.3438 3.61231L36.2402 3.19355L35.1862 4.24751C31.4792 7.9547 30.2364 13.3551 31.6197 18.3772C31.6125 18.3844 31.6028 18.3892 31.5956 18.3965L2.03297 47.9591C-0.601253 50.5933 -0.697582 54.8177 1.873 57.3883L2.61171 58.127C5.18224 60.6976 9.41137 60.6012 12.0456 57.967L41.6035 28.4044C41.6156 28.3923 41.6252 28.3791 41.6365 28.3668C46.6491 29.741 52.04 28.4947 55.7427 24.8003C59.6239 20.9091 60.9804 15.1556 59.2433 9.94132L58.8104 8.6474L48.1626 19.2952C46.7044 20.7534 44.3934 20.7534 42.9352 19.2952L40.8602 17.2202C39.402 15.762 39.402 13.4557 40.8602 11.9975L51.5739 1.28379L50.3176 0.836802C47.6793 -0.0997406 44.8854 -0.235629 42.2582 0.356323ZM42.6299 1.99843C44.427 1.59349 46.3022 1.93121 48.1444 2.32779L39.6703 10.8018C37.5722 12.9 37.5722 16.3166 39.6703 18.4148L41.7453 20.4851C43.8435 22.5832 47.2554 22.5833 49.3536 20.4851L57.7147 12.1287C58.508 16.2689 57.5767 20.5729 54.5481 23.6093C51.1351 27.0148 46.1118 28.2216 41.5242 26.7383L40.9972 26.5689L40.6349 26.9783C40.5612 27.0611 40.4863 27.1411 40.4137 27.2136L10.8511 56.7762C8.83252 58.7948 5.70798 58.8416 3.80271 56.9362L3.0687 56.1975C1.16343 54.2922 1.20539 51.1677 3.22408 49.1491L32.7866 19.5864C32.8546 19.5185 32.9309 19.4529 33.0078 19.384L33.4171 19.017L33.243 18.4947C31.7488 13.8979 32.9635 8.85582 36.3813 5.43788C38.1339 3.69019 40.3096 2.52122 42.6299 1.99843ZM29.7518 26.056C29.1856 26.056 28.6211 26.2692 28.1944 26.6959L14.9164 39.9692C14.063 40.8226 14.063 42.2354 14.9164 43.0888L16.5585 44.7309C17.4119 45.5843 18.8245 45.5844 19.678 44.7309L32.9513 31.4529C33.8049 30.5993 33.8047 29.1867 32.9513 28.3333L31.3139 26.6959C30.8872 26.2692 30.318 26.056 29.7518 26.056ZM29.3848 27.8863C29.5982 27.6729 29.9053 27.6729 30.1188 27.8863L31.7609 29.5284C31.9744 29.7419 31.9744 30.049 31.7609 30.2624L18.4876 43.5357C18.2742 43.7492 17.9671 43.7492 17.7536 43.5357L16.1115 41.8936C15.8981 41.6802 15.8981 41.3779 16.1115 41.1643L29.3848 27.8863ZM7.07755 48.7773C6.06086 48.7773 5.04411 49.1639 4.27326 49.9348C2.73159 51.4765 2.73159 54.0017 4.27326 55.5434C5.81494 57.085 8.34016 57.085 9.88184 55.5434C11.4235 54.0017 11.4235 51.4765 9.88184 49.9348C9.11099 49.1639 8.09427 48.7773 7.07755 48.7773ZM7.07755 50.4524C7.65917 50.4524 8.24279 50.6766 8.69143 51.1252C9.58865 52.0224 9.58865 53.4557 8.69143 54.353C7.79417 55.2502 6.36561 55.2502 5.46838 54.353C4.57113 53.4557 4.57113 52.0224 5.46838 51.1252C5.91699 50.6766 6.49596 50.4524 7.07755 50.4524Z" fill="#53C6F1"/>
</svg>
