<svg width="61" height="62" viewBox="0 0 61 62" fill="none" xmlns="http://www.w3.org/2000/svg">
<path d="M34.2652 22.9277C33.2964 22.9277 32.4129 22.3214 32.0664 21.4191C31.6023 20.2083 32.2092 18.8457 33.4194 18.3814C33.689 18.2781 33.9714 18.2256 34.2587 18.2256C35.2275 18.2256 36.1108 18.8319 36.4571 19.7345C36.6816 20.3196 36.6643 20.9583 36.4082 21.533C36.1522 22.1077 35.689 22.5477 35.1039 22.7722C34.8348 22.8753 34.5525 22.9277 34.2652 22.9277ZM34.2588 19.3179C34.1057 19.3179 33.9549 19.3459 33.8108 19.4012C33.1629 19.6497 32.8379 20.3794 33.0864 21.0276C33.2717 21.5106 33.7455 21.8352 34.2652 21.8352C34.4182 21.8352 34.5688 21.8072 34.7127 21.752C35.0254 21.6321 35.2731 21.3963 35.4103 21.0882C35.5477 20.7802 35.5571 20.4383 35.4372 20.1256C35.2521 19.6425 34.7784 19.3179 34.2588 19.3179Z" fill="#53C6F1"/>
<path d="M21.0096 31.4283C20.0408 31.4283 19.1572 30.8219 18.8109 29.9195C18.3465 28.709 18.9533 27.3464 20.1638 26.8819C20.4334 26.7784 20.7158 26.7259 21.0031 26.7259C21.9717 26.7259 22.8552 27.3322 23.2015 28.2348C23.6659 29.4454 23.0588 30.8081 21.8484 31.2725C21.5792 31.3758 21.2969 31.4283 21.0096 31.4283ZM21.0032 27.8183C20.8501 27.8183 20.6994 27.8463 20.5553 27.9016C19.9071 28.1503 19.5823 28.88 19.8308 29.5281C20.0162 30.0112 20.4899 30.3359 21.0095 30.3359C21.1624 30.3359 21.313 30.3079 21.4571 30.2526C22.1053 30.0039 22.4301 29.2744 22.1816 28.6262C21.9963 28.1429 21.5228 27.8183 21.0032 27.8183Z" fill="#53C6F1"/>
<path d="M9.33058 20.4329C8.11161 20.4329 7.21339 20.1732 6.95203 19.492C6.36064 17.9502 9.62129 15.8355 12.8184 14.1879C9.71237 12.3736 6.56737 10.0894 7.23906 8.58132C7.9106 7.07314 11.7125 7.88328 15.1387 8.97868C14.225 5.49982 13.6162 1.66143 15.1578 1.07004C16.6997 0.478369 18.8144 3.73929 20.462 6.93631C22.2765 3.83024 24.5614 0.685104 26.0686 1.35693C27.5771 2.02984 26.7662 5.83177 25.6703 9.25778C26.5969 9.01582 27.4701 8.81782 28.2759 8.66721C28.5732 8.61109 28.8578 8.80717 28.9132 9.10362C28.9686 9.4002 28.7732 9.68545 28.4768 9.74089C27.4229 9.93793 26.2468 10.2194 24.9814 10.5773C24.7859 10.6324 24.5761 10.5748 24.4364 10.4276C24.2968 10.2803 24.2502 10.0677 24.3157 9.87553C26.0581 4.76191 25.9423 2.5688 25.6218 2.35346C25.2537 2.25951 23.546 3.6403 20.9083 8.35724C20.8093 8.53448 20.6161 8.64249 20.4171 8.63662C20.2142 8.6313 20.031 8.51386 19.9414 8.33171C17.5577 3.4849 15.9248 2.01659 15.5467 2.09047C15.2197 2.286 14.9885 4.46819 16.4591 9.6677C16.5143 9.8631 16.4567 10.0728 16.3095 10.2127C16.1623 10.3524 15.9495 10.3989 15.7575 10.3335C10.643 8.5917 8.45079 8.70735 8.23586 9.0277C8.14315 9.39734 9.52325 11.1043 14.2395 13.7415C14.4168 13.8406 14.5244 14.0298 14.5189 14.2327C14.5136 14.4356 14.3961 14.6188 14.214 14.7084C9.36499 17.0931 7.89763 18.7247 7.9726 19.1028C8.16541 19.4225 10.3013 19.6556 15.3804 18.2378C15.6711 18.1564 15.9722 18.3264 16.0533 18.617C16.1344 18.9076 15.9647 19.2088 15.6741 19.2899C13.5299 19.8887 11.0947 20.4328 9.33058 20.4329Z" fill="#53C6F1"/>
<path d="M25.7341 42.4613C24.2374 42.4613 22.3261 39.4657 20.81 36.5241C19.1635 39.3436 17.1297 42.1954 15.64 42.1957C15.4887 42.1957 15.3431 42.1663 15.204 42.1045C13.6945 41.4317 14.505 37.6305 15.6009 34.2046C12.122 35.1181 8.28366 35.7268 7.6924 34.1853C7.10101 32.6436 10.3617 30.5288 13.5588 28.8811C10.4527 27.0668 7.30761 24.7826 7.97943 23.2744C8.65084 21.7661 12.4526 22.5762 15.8791 23.6718C14.9654 20.1928 14.3565 16.3542 15.8982 15.7628C16.2043 15.6453 16.5536 15.6745 16.9365 15.8497C18.251 16.4508 20.3028 19.0553 21.681 22.8698C21.7834 23.1535 21.6366 23.4665 21.3529 23.5691C21.0693 23.6715 20.7562 23.5246 20.6536 23.2409C19.0568 18.8207 16.7766 16.7117 16.2802 16.7856C15.9604 16.9791 15.7291 19.1614 17.1996 24.3609C17.2548 24.5562 17.1972 24.7661 17.05 24.9057C16.9028 25.0454 16.69 25.092 16.498 25.0266C11.3835 23.2849 9.1913 23.4006 8.97651 23.7208C8.88393 24.0905 10.264 25.7975 14.9802 28.4347C15.1573 28.5338 15.2649 28.723 15.2595 28.9259C15.2542 29.1288 15.1368 29.312 14.9546 29.4016C10.1048 31.7867 8.63787 33.4182 8.71324 33.7962C8.90973 34.1227 11.0936 34.3536 16.2906 32.884C16.486 32.8286 16.6958 32.8865 16.8356 33.0337C16.9753 33.181 17.0217 33.3936 16.9563 33.5858C15.2134 38.7007 15.3299 40.8928 15.6506 41.1074C16.0226 41.1994 17.7281 39.8184 20.364 35.1027C20.4631 34.9254 20.6503 34.8156 20.8552 34.8232C21.0581 34.8286 21.2413 34.9459 21.3309 35.1281C23.7156 39.9772 25.3504 41.4425 25.7257 41.3705C26.0524 41.1739 26.2833 38.9895 24.8132 33.7921C24.758 33.5967 24.8156 33.3868 24.9628 33.2471C25.1103 33.1077 25.3229 33.0613 25.5149 33.1264C30.6283 34.8688 32.8215 34.7528 33.037 34.4325C33.0364 34.4304 33.0777 33.6322 30.0389 31.561C29.7897 31.391 29.7254 31.0513 29.8953 30.8019C30.0653 30.5526 30.4051 30.4883 30.6542 30.6583C34.6877 33.4076 34.1956 34.5152 34.0338 34.8793C33.3605 36.3876 29.5592 35.5769 26.1336 34.4814C27.0473 37.9605 27.6564 41.7994 26.1148 42.3911C25.9912 42.4386 25.8642 42.4613 25.7341 42.4613Z" fill="#53C6F1"/>
<path d="M38.5841 33.2074C37.0396 33.2075 34.9955 29.8173 33.676 27.2661C32.2457 29.7075 30.0605 32.9422 28.5243 32.9425C28.3637 32.9425 28.2108 32.9108 28.0699 32.8483C26.5603 32.1757 27.371 28.3734 28.4671 24.9473C26.1691 25.5464 24.2054 25.8724 22.8664 25.8725C22.8642 25.8725 22.862 25.8725 22.86 25.8725C22.3721 25.8725 20.9185 25.8684 20.5582 24.9294C19.9668 23.3875 23.2274 21.2727 26.4246 19.6251C23.3185 17.8108 20.1734 15.5265 20.8452 14.0184C21.2155 13.1871 22.4166 13.1871 22.8112 13.1871C24.159 13.1871 26.2422 13.6207 28.7452 14.4167C27.8315 10.9376 27.2222 7.0984 28.7638 6.50687C28.8888 6.45894 29.022 6.43463 29.1599 6.43463C30.7047 6.43463 32.7489 9.82419 34.0681 12.3749C35.4988 9.9337 37.6843 6.69913 39.2198 6.69913C39.3806 6.69913 39.5338 6.73094 39.6748 6.79376C41.1832 7.46667 40.3722 11.2687 39.2763 14.6948C41.5757 14.095 43.54 13.7689 44.8782 13.7689C45.3594 13.7689 46.8242 13.7689 47.186 14.7126C47.7777 16.2543 44.5165 18.3693 41.3189 20.0172C44.425 21.8309 47.57 24.1144 46.8992 25.6232C46.5283 26.4542 45.3276 26.4543 44.9331 26.4543C43.585 26.4543 41.5016 26.0208 38.9988 25.2245C39.9126 28.7037 40.5219 32.5433 38.9801 33.135C38.8553 33.1831 38.7222 33.2074 38.5841 33.2074ZM33.7063 25.567C33.7111 25.567 33.7159 25.567 33.7207 25.5672C33.9236 25.5725 34.1068 25.6899 34.1964 25.8721C36.4329 30.42 38.0744 32.1148 38.5839 32.1148C38.5889 32.1148 38.5911 32.1144 38.5911 32.1144C38.9179 31.9179 39.1488 29.7338 37.6787 24.536C37.6234 24.3407 37.6811 24.1308 37.8283 23.9911C37.9755 23.8516 38.188 23.8045 38.3804 23.8704C41.1629 24.8184 43.5511 25.362 44.933 25.362C45.7411 25.362 45.9011 25.1784 45.9025 25.1765C45.9942 24.807 44.6133 23.0993 39.8977 20.4634C39.7206 20.3643 39.6129 20.1751 39.6182 19.9722C39.6237 19.7693 39.741 19.5861 39.9231 19.4965C44.7699 17.1129 46.2392 15.4803 46.1655 15.1015C46.1641 15.1015 45.9686 14.8612 44.8781 14.8612C43.4498 14.8612 41.2156 15.2707 38.5871 16.0141C38.3917 16.0693 38.1819 16.0116 38.0422 15.8644C37.9026 15.7171 37.8561 15.5045 37.9215 15.3124C39.6638 10.1989 39.548 8.00577 39.2277 7.79029C38.6774 7.79138 36.977 9.38996 34.5142 13.7941C34.415 13.9713 34.2187 14.0795 34.023 14.0735C33.8201 14.0681 33.6368 13.9507 33.5473 13.7685C31.3111 9.22132 29.6694 7.52689 29.1598 7.52689C28.8258 7.72297 28.5946 9.90543 30.0653 15.1048C30.1204 15.3002 30.0628 15.5099 29.9156 15.6498C29.7683 15.7895 29.5558 15.8359 29.3637 15.7706C26.5809 14.823 24.1927 14.2794 22.8112 14.2794C22.0026 14.2794 21.8432 14.463 21.8419 14.4648C21.7492 14.8344 23.1293 16.5414 27.8455 19.1787C28.0226 19.2779 28.1304 19.467 28.1249 19.6699C28.1196 19.8728 28.0021 20.0561 27.82 20.1457C22.9707 22.5305 21.5035 24.1621 21.5786 24.5402C21.58 24.5402 21.7766 24.7801 22.8663 24.7801C24.2954 24.7801 26.5291 24.3709 29.156 23.6279C29.3512 23.5725 29.5611 23.6304 29.7009 23.7776C29.8408 23.9248 29.8872 24.1375 29.8217 24.3296C28.0786 29.4449 28.1952 31.6368 28.516 31.8513C29.0665 31.8501 30.7674 30.2514 33.2295 25.8468C33.3263 25.6737 33.5089 25.567 33.7063 25.567Z" fill="#53C6F1"/>
<path d="M46.824 61C46.6583 61 46.4947 60.9249 46.3874 60.7822C42.5118 55.6344 36.1238 52.8555 29.715 53.53L25.0448 54.0217C19.9075 54.5635 14.7845 52.3346 11.677 48.2066C11.4956 47.9656 11.5439 47.6233 11.7849 47.4418C12.0259 47.2602 12.3684 47.3085 12.5499 47.5497C15.4278 51.3725 20.1712 53.4359 24.9305 52.9351L29.6009 52.4434C32.9507 52.0906 36.3539 52.6145 39.4425 53.9582C42.3641 55.2292 44.9409 57.2058 46.9256 59.6935L53.5842 54.6809C51.7424 52.0855 50.5552 49.0626 50.1419 45.9036C49.705 42.5637 50.1427 39.1483 51.4079 36.0267L53.1718 31.6748C54.9692 27.2399 54.2979 22.1102 51.42 18.2874C51.2385 18.0463 51.2867 17.704 51.5277 17.5224C51.7686 17.3409 52.1111 17.3891 52.2927 17.6303C55.4001 21.7579 56.1249 27.2966 54.1843 32.0851L52.4204 36.437C49.9999 42.409 50.9039 49.3169 54.7793 54.4646C54.8665 54.5804 54.9041 54.726 54.8839 54.8695C54.8636 55.013 54.7872 55.1425 54.6714 55.2296L47.1526 60.8899C47.0537 60.9642 46.9385 61 46.824 61Z" fill="#53C6F1"/>
<path d="M27.4778 47.5142C27.2354 47.5142 26.991 47.4842 26.7497 47.4225L20.0397 45.7039C19.7475 45.6291 19.5713 45.3314 19.6462 45.0393C19.721 44.747 20.0188 44.5711 20.3109 44.6457L27.0208 46.3643C27.7745 46.5569 28.5785 46.2565 29.0204 45.616L29.8923 44.3518C31.8209 41.5554 35.3083 40.3115 38.571 41.2571L38.8482 41.3372C39.7079 41.5863 40.4011 42.202 40.7499 43.0262C41.0196 43.6632 41.5912 44.0854 42.2793 44.1556C42.9665 44.2255 43.6127 43.9277 44.0054 43.3583L44.5587 42.5562C45.5754 41.0817 45.8425 39.1875 45.273 37.4891L44.8541 36.2394C44.0088 33.7186 44.8681 30.9506 46.992 29.3515L50.2001 26.9365C50.4407 26.755 50.7833 26.8032 50.9649 27.0444C51.1464 27.2854 51.0982 27.6278 50.857 27.8093L47.6491 30.2243C45.9013 31.5402 45.1942 33.8179 45.8898 35.8923L46.3087 37.142C46.9869 39.1647 46.6689 41.4205 45.458 43.1764L44.9047 43.9786C44.2819 44.8812 43.2598 45.3542 42.1684 45.2424C41.0777 45.1311 40.1712 44.4617 39.744 43.4521C39.5239 42.9321 39.0868 42.5438 38.5444 42.3866L38.2672 42.3064C35.4574 41.4918 32.4528 42.5632 30.7916 44.972L29.9197 46.2363C29.3605 47.0469 28.4361 47.5142 27.4778 47.5142Z" fill="#53C6F1"/>
<path d="M40.8981 55.3639C40.7323 55.3639 40.5687 55.2888 40.4614 55.1463C40.2799 54.9051 40.3281 54.5628 40.5691 54.3813L50.2364 47.1035C50.4773 46.9219 50.8197 46.9701 51.0014 47.2113C51.183 47.4524 51.1346 47.7948 50.8936 47.9762L41.2264 55.254C41.1279 55.3282 41.0125 55.3639 40.8981 55.3639Z" fill="#53C6F1"/>
<path d="M56.1237 6.9217C55.3812 6.9217 54.7791 6.3198 54.7791 5.57724C54.7791 4.83469 55.381 4.23278 56.1237 4.23278C56.8661 4.23278 57.4682 4.83469 57.4682 5.57724C57.4682 6.3198 56.8661 6.9217 56.1237 6.9217Z" fill="#53C6F1"/>
<path d="M2.34446 13.6441C1.60191 13.6441 1 13.0422 1 12.2997C1 11.5571 1.60191 10.9552 2.34446 10.9552C3.08701 10.9552 3.68892 11.5571 3.68892 12.2997C3.68892 13.0422 3.08701 13.6441 2.34446 13.6441Z" fill="#53C6F1"/>
<path d="M10.4114 41.8785C9.66881 41.8785 9.0669 41.2763 9.0669 40.5339C9.0669 39.7914 9.66881 39.1893 10.4114 39.1893C11.1539 39.1893 11.7558 39.7912 11.7558 40.5339C11.7558 41.2763 11.1539 41.8785 10.4114 41.8785Z" fill="#53C6F1"/>
<path d="M34.6121 4.23278C33.8695 4.23278 33.2675 3.63087 33.2675 2.88832C33.2675 2.14577 33.8694 1.54386 34.6121 1.54386C35.3545 1.54386 35.9565 2.14577 35.9565 2.88832C35.9565 3.63087 35.3545 4.23278 34.6121 4.23278Z" fill="#53C6F1"/>
<path d="M44.2533 7.47923L46.1547 9.38056L48.056 7.47922L46.1547 5.57789L44.2533 7.47923Z" fill="#53C6F1"/>
<path d="M56.3534 17.1214L58.2547 19.0227L60.1561 17.1214L58.2547 15.2201L56.3534 17.1214Z" fill="#53C6F1"/>
<path d="M2.34243 43.7783L4.24367 45.6795L6.14501 43.7782L4.24377 41.8769L2.34243 43.7783Z" fill="#53C6F1"/>
<path d="M3.91924 28.99L5.82058 30.8914L7.72192 28.99L5.82058 27.0887L3.91924 28.99Z" fill="#53C6F1"/>
<path d="M6.60858 3.44526L8.50992 5.34659L10.4113 3.44526L8.50992 1.54392L6.60858 3.44526Z" fill="#53C6F1"/>
<path d="M34.2652 22.9277C33.2964 22.9277 32.4129 22.3214 32.0664 21.4191C31.6023 20.2083 32.2092 18.8457 33.4194 18.3814C33.689 18.2781 33.9714 18.2256 34.2587 18.2256C35.2275 18.2256 36.1108 18.8319 36.4571 19.7345C36.6816 20.3196 36.6643 20.9583 36.4082 21.533C36.1522 22.1077 35.689 22.5477 35.1039 22.7722C34.8348 22.8753 34.5525 22.9277 34.2652 22.9277ZM34.2588 19.3179C34.1057 19.3179 33.9549 19.3459 33.8108 19.4012C33.1629 19.6497 32.8379 20.3794 33.0864 21.0276C33.2717 21.5106 33.7455 21.8352 34.2652 21.8352C34.4182 21.8352 34.5688 21.8072 34.7127 21.752C35.0254 21.6321 35.2731 21.3963 35.4103 21.0882C35.5477 20.7802 35.5571 20.4383 35.4372 20.1256C35.2521 19.6425 34.7784 19.3179 34.2588 19.3179Z" stroke="#53C6F1" stroke-width="0.5"/>
<path d="M21.0096 31.4283C20.0408 31.4283 19.1572 30.8219 18.8109 29.9195C18.3465 28.709 18.9533 27.3464 20.1638 26.8819C20.4334 26.7784 20.7158 26.7259 21.0031 26.7259C21.9717 26.7259 22.8552 27.3322 23.2015 28.2348C23.6659 29.4454 23.0588 30.8081 21.8484 31.2725C21.5792 31.3758 21.2969 31.4283 21.0096 31.4283ZM21.0032 27.8183C20.8501 27.8183 20.6994 27.8463 20.5553 27.9016C19.9071 28.1503 19.5823 28.88 19.8308 29.5281C20.0162 30.0112 20.4899 30.3359 21.0095 30.3359C21.1624 30.3359 21.313 30.3079 21.4571 30.2526C22.1053 30.0039 22.4301 29.2744 22.1816 28.6262C21.9963 28.1429 21.5228 27.8183 21.0032 27.8183Z" stroke="#53C6F1" stroke-width="0.5"/>
<path d="M9.33058 20.4329C8.11161 20.4329 7.21339 20.1732 6.95203 19.492C6.36064 17.9502 9.62129 15.8355 12.8184 14.1879C9.71237 12.3736 6.56737 10.0894 7.23906 8.58132C7.9106 7.07314 11.7125 7.88328 15.1387 8.97868C14.225 5.49982 13.6162 1.66143 15.1578 1.07004C16.6997 0.478369 18.8144 3.73929 20.462 6.93631C22.2765 3.83024 24.5614 0.685104 26.0686 1.35693C27.5771 2.02984 26.7662 5.83177 25.6703 9.25778C26.5969 9.01582 27.4701 8.81782 28.2759 8.66721C28.5732 8.61109 28.8578 8.80717 28.9132 9.10362C28.9686 9.4002 28.7732 9.68545 28.4768 9.74089C27.4229 9.93793 26.2468 10.2194 24.9814 10.5773C24.7859 10.6324 24.5761 10.5748 24.4364 10.4276C24.2968 10.2803 24.2502 10.0677 24.3157 9.87553C26.0581 4.76191 25.9423 2.5688 25.6218 2.35346C25.2537 2.25951 23.546 3.6403 20.9083 8.35724C20.8093 8.53448 20.6161 8.64249 20.4171 8.63662C20.2142 8.6313 20.031 8.51386 19.9414 8.33171C17.5577 3.4849 15.9248 2.01659 15.5467 2.09047C15.2197 2.286 14.9885 4.46819 16.4591 9.6677C16.5143 9.8631 16.4567 10.0728 16.3095 10.2127C16.1623 10.3524 15.9495 10.3989 15.7575 10.3335C10.643 8.5917 8.45079 8.70735 8.23586 9.0277C8.14315 9.39734 9.52325 11.1043 14.2395 13.7415C14.4168 13.8406 14.5244 14.0298 14.5189 14.2327C14.5136 14.4356 14.3961 14.6188 14.214 14.7084C9.36499 17.0931 7.89763 18.7247 7.9726 19.1028C8.16541 19.4225 10.3013 19.6556 15.3804 18.2378C15.6711 18.1564 15.9722 18.3264 16.0533 18.617C16.1344 18.9076 15.9647 19.2088 15.6741 19.2899C13.5299 19.8887 11.0947 20.4328 9.33058 20.4329Z" stroke="#53C6F1" stroke-width="0.5"/>
<path d="M25.7341 42.4613C24.2374 42.4613 22.3261 39.4657 20.81 36.5241C19.1635 39.3436 17.1297 42.1954 15.64 42.1957C15.4887 42.1957 15.3431 42.1663 15.204 42.1045C13.6945 41.4317 14.505 37.6305 15.6009 34.2046C12.122 35.1181 8.28366 35.7268 7.6924 34.1853C7.10101 32.6436 10.3617 30.5288 13.5588 28.8811C10.4527 27.0668 7.30761 24.7826 7.97943 23.2744C8.65084 21.7661 12.4526 22.5762 15.8791 23.6718C14.9654 20.1928 14.3565 16.3542 15.8982 15.7628C16.2043 15.6453 16.5536 15.6745 16.9365 15.8497C18.251 16.4508 20.3028 19.0553 21.681 22.8698C21.7834 23.1535 21.6366 23.4665 21.3529 23.5691C21.0693 23.6715 20.7562 23.5246 20.6536 23.2409C19.0568 18.8207 16.7766 16.7117 16.2802 16.7856C15.9604 16.9791 15.7291 19.1614 17.1996 24.3609C17.2548 24.5562 17.1972 24.7661 17.05 24.9057C16.9028 25.0454 16.69 25.092 16.498 25.0266C11.3835 23.2849 9.1913 23.4006 8.97651 23.7208C8.88393 24.0905 10.264 25.7975 14.9802 28.4347C15.1573 28.5338 15.2649 28.723 15.2595 28.9259C15.2542 29.1288 15.1368 29.312 14.9546 29.4016C10.1048 31.7867 8.63787 33.4182 8.71324 33.7962C8.90973 34.1227 11.0936 34.3536 16.2906 32.884C16.486 32.8286 16.6958 32.8865 16.8356 33.0337C16.9753 33.181 17.0217 33.3936 16.9563 33.5858C15.2134 38.7007 15.3299 40.8928 15.6506 41.1074C16.0226 41.1994 17.7281 39.8184 20.364 35.1027C20.4631 34.9254 20.6503 34.8156 20.8552 34.8232C21.0581 34.8286 21.2413 34.9459 21.3309 35.1281C23.7156 39.9772 25.3504 41.4425 25.7257 41.3705C26.0524 41.1739 26.2833 38.9895 24.8132 33.7921C24.758 33.5967 24.8156 33.3868 24.9628 33.2471C25.1103 33.1077 25.3229 33.0613 25.5149 33.1264C30.6283 34.8688 32.8215 34.7528 33.037 34.4325C33.0364 34.4304 33.0777 33.6322 30.0389 31.561C29.7897 31.391 29.7254 31.0513 29.8953 30.8019C30.0653 30.5526 30.4051 30.4883 30.6542 30.6583C34.6877 33.4076 34.1956 34.5152 34.0338 34.8793C33.3605 36.3876 29.5592 35.5769 26.1336 34.4814C27.0473 37.9605 27.6564 41.7994 26.1148 42.3911C25.9912 42.4386 25.8642 42.4613 25.7341 42.4613Z" stroke="#53C6F1" stroke-width="0.5"/>
<path d="M38.5841 33.2074C37.0396 33.2075 34.9955 29.8173 33.676 27.2661C32.2457 29.7075 30.0605 32.9422 28.5243 32.9425C28.3637 32.9425 28.2108 32.9108 28.0699 32.8483C26.5603 32.1757 27.371 28.3734 28.4671 24.9473C26.1691 25.5464 24.2054 25.8724 22.8664 25.8725C22.8642 25.8725 22.862 25.8725 22.86 25.8725C22.3721 25.8725 20.9185 25.8684 20.5582 24.9294C19.9668 23.3875 23.2274 21.2727 26.4246 19.6251C23.3185 17.8108 20.1734 15.5265 20.8452 14.0184C21.2155 13.1871 22.4166 13.1871 22.8112 13.1871C24.159 13.1871 26.2422 13.6207 28.7452 14.4167C27.8315 10.9376 27.2222 7.0984 28.7638 6.50687C28.8888 6.45894 29.022 6.43463 29.1599 6.43463C30.7047 6.43463 32.7489 9.82419 34.0681 12.3749C35.4988 9.9337 37.6843 6.69913 39.2198 6.69913C39.3806 6.69913 39.5338 6.73094 39.6748 6.79376C41.1832 7.46667 40.3722 11.2687 39.2763 14.6948C41.5757 14.095 43.54 13.7689 44.8782 13.7689C45.3594 13.7689 46.8242 13.7689 47.186 14.7126C47.7777 16.2543 44.5165 18.3693 41.3189 20.0172C44.425 21.8309 47.57 24.1144 46.8992 25.6232C46.5283 26.4542 45.3276 26.4543 44.9331 26.4543C43.585 26.4543 41.5016 26.0208 38.9988 25.2245C39.9126 28.7037 40.5219 32.5433 38.9801 33.135C38.8553 33.1831 38.7222 33.2074 38.5841 33.2074ZM33.7063 25.567C33.7111 25.567 33.7159 25.567 33.7207 25.5672C33.9236 25.5725 34.1068 25.6899 34.1964 25.8721C36.4329 30.42 38.0744 32.1148 38.5839 32.1148C38.5889 32.1148 38.5911 32.1144 38.5911 32.1144C38.9179 31.9179 39.1488 29.7338 37.6787 24.536C37.6234 24.3407 37.6811 24.1308 37.8283 23.9911C37.9755 23.8516 38.188 23.8045 38.3804 23.8704C41.1629 24.8184 43.5511 25.362 44.933 25.362C45.7411 25.362 45.9011 25.1784 45.9025 25.1765C45.9942 24.807 44.6133 23.0993 39.8977 20.4634C39.7206 20.3643 39.6129 20.1751 39.6182 19.9722C39.6237 19.7693 39.741 19.5861 39.9231 19.4965C44.7699 17.1129 46.2392 15.4803 46.1655 15.1015C46.1641 15.1015 45.9686 14.8612 44.8781 14.8612C43.4498 14.8612 41.2156 15.2707 38.5871 16.0141C38.3917 16.0693 38.1819 16.0116 38.0422 15.8644C37.9026 15.7171 37.8561 15.5045 37.9215 15.3124C39.6638 10.1989 39.548 8.00577 39.2277 7.79029C38.6774 7.79138 36.977 9.38996 34.5142 13.7941C34.415 13.9713 34.2187 14.0795 34.023 14.0735C33.8201 14.0681 33.6368 13.9507 33.5473 13.7685C31.3111 9.22132 29.6694 7.52689 29.1598 7.52689C28.8258 7.72297 28.5946 9.90543 30.0653 15.1048C30.1204 15.3002 30.0628 15.5099 29.9156 15.6498C29.7683 15.7895 29.5558 15.8359 29.3637 15.7706C26.5809 14.823 24.1927 14.2794 22.8112 14.2794C22.0026 14.2794 21.8432 14.463 21.8419 14.4648C21.7492 14.8344 23.1293 16.5414 27.8455 19.1787C28.0226 19.2779 28.1304 19.467 28.1249 19.6699C28.1196 19.8728 28.0021 20.0561 27.82 20.1457C22.9707 22.5305 21.5035 24.1621 21.5786 24.5402C21.58 24.5402 21.7766 24.7801 22.8663 24.7801C24.2954 24.7801 26.5291 24.3709 29.156 23.6279C29.3512 23.5725 29.5611 23.6304 29.7009 23.7776C29.8408 23.9248 29.8872 24.1375 29.8217 24.3296C28.0786 29.4449 28.1952 31.6368 28.516 31.8513C29.0665 31.8501 30.7674 30.2514 33.2295 25.8468C33.3263 25.6737 33.5089 25.567 33.7063 25.567Z" stroke="#53C6F1" stroke-width="0.5"/>
<path d="M46.824 61C46.6583 61 46.4947 60.9249 46.3874 60.7822C42.5118 55.6344 36.1238 52.8555 29.715 53.53L25.0448 54.0217C19.9075 54.5635 14.7845 52.3346 11.677 48.2066C11.4956 47.9656 11.5439 47.6233 11.7849 47.4418C12.0259 47.2602 12.3684 47.3085 12.5499 47.5497C15.4278 51.3725 20.1712 53.4359 24.9305 52.9351L29.6009 52.4434C32.9507 52.0906 36.3539 52.6145 39.4425 53.9582C42.3641 55.2292 44.9409 57.2058 46.9256 59.6935L53.5842 54.6809C51.7424 52.0855 50.5552 49.0626 50.1419 45.9036C49.705 42.5637 50.1427 39.1483 51.4079 36.0267L53.1718 31.6748C54.9692 27.2399 54.2979 22.1102 51.42 18.2874C51.2385 18.0463 51.2867 17.704 51.5277 17.5224C51.7686 17.3409 52.1111 17.3891 52.2927 17.6303C55.4001 21.7579 56.1249 27.2966 54.1843 32.0851L52.4204 36.437C49.9999 42.409 50.9039 49.3169 54.7793 54.4646C54.8665 54.5804 54.9041 54.726 54.8839 54.8695C54.8636 55.013 54.7872 55.1425 54.6714 55.2296L47.1526 60.8899C47.0537 60.9642 46.9385 61 46.824 61Z" stroke="#53C6F1" stroke-width="0.5"/>
<path d="M27.4778 47.5142C27.2354 47.5142 26.991 47.4842 26.7497 47.4225L20.0397 45.7039C19.7475 45.6291 19.5713 45.3314 19.6462 45.0393C19.721 44.747 20.0188 44.5711 20.3109 44.6457L27.0208 46.3643C27.7745 46.5569 28.5785 46.2565 29.0204 45.616L29.8923 44.3518C31.8209 41.5554 35.3083 40.3115 38.571 41.2571L38.8482 41.3372C39.7079 41.5863 40.4011 42.202 40.7499 43.0262C41.0196 43.6632 41.5912 44.0854 42.2793 44.1556C42.9665 44.2255 43.6127 43.9277 44.0054 43.3583L44.5587 42.5562C45.5754 41.0817 45.8425 39.1875 45.273 37.4891L44.8541 36.2394C44.0088 33.7186 44.8681 30.9506 46.992 29.3515L50.2001 26.9365C50.4407 26.755 50.7833 26.8032 50.9649 27.0444C51.1464 27.2854 51.0982 27.6278 50.857 27.8093L47.6491 30.2243C45.9013 31.5402 45.1942 33.8179 45.8898 35.8923L46.3087 37.142C46.9869 39.1647 46.6689 41.4205 45.458 43.1764L44.9047 43.9786C44.2819 44.8812 43.2598 45.3542 42.1684 45.2424C41.0777 45.1311 40.1712 44.4617 39.744 43.4521C39.5239 42.9321 39.0868 42.5438 38.5444 42.3866L38.2672 42.3064C35.4574 41.4918 32.4528 42.5632 30.7916 44.972L29.9197 46.2363C29.3605 47.0469 28.4361 47.5142 27.4778 47.5142Z" stroke="#53C6F1" stroke-width="0.5"/>
<path d="M40.8981 55.3639C40.7323 55.3639 40.5687 55.2888 40.4614 55.1463C40.2799 54.9051 40.3281 54.5628 40.5691 54.3813L50.2364 47.1035C50.4773 46.9219 50.8197 46.9701 51.0014 47.2113C51.183 47.4524 51.1346 47.7948 50.8936 47.9762L41.2264 55.254C41.1279 55.3282 41.0125 55.3639 40.8981 55.3639Z" stroke="#53C6F1" stroke-width="0.5"/>
<path d="M56.1237 6.9217C55.3812 6.9217 54.7791 6.3198 54.7791 5.57724C54.7791 4.83469 55.381 4.23278 56.1237 4.23278C56.8661 4.23278 57.4682 4.83469 57.4682 5.57724C57.4682 6.3198 56.8661 6.9217 56.1237 6.9217Z" stroke="#53C6F1" stroke-width="0.5"/>
<path d="M2.34446 13.6441C1.60191 13.6441 1 13.0422 1 12.2997C1 11.5571 1.60191 10.9552 2.34446 10.9552C3.08701 10.9552 3.68892 11.5571 3.68892 12.2997C3.68892 13.0422 3.08701 13.6441 2.34446 13.6441Z" stroke="#53C6F1" stroke-width="0.5"/>
<path d="M10.4114 41.8785C9.66881 41.8785 9.0669 41.2763 9.0669 40.5339C9.0669 39.7914 9.66881 39.1893 10.4114 39.1893C11.1539 39.1893 11.7558 39.7912 11.7558 40.5339C11.7558 41.2763 11.1539 41.8785 10.4114 41.8785Z" stroke="#53C6F1" stroke-width="0.5"/>
<path d="M34.6121 4.23278C33.8695 4.23278 33.2675 3.63087 33.2675 2.88832C33.2675 2.14577 33.8694 1.54386 34.6121 1.54386C35.3545 1.54386 35.9565 2.14577 35.9565 2.88832C35.9565 3.63087 35.3545 4.23278 34.6121 4.23278Z" stroke="#53C6F1" stroke-width="0.5"/>
<path d="M44.2533 7.47923L46.1547 9.38056L48.056 7.47922L46.1547 5.57789L44.2533 7.47923Z" stroke="#53C6F1" stroke-width="0.5"/>
<path d="M56.3534 17.1214L58.2547 19.0227L60.1561 17.1214L58.2547 15.2201L56.3534 17.1214Z" stroke="#53C6F1" stroke-width="0.5"/>
<path d="M2.34243 43.7783L4.24367 45.6795L6.14501 43.7782L4.24377 41.8769L2.34243 43.7783Z" stroke="#53C6F1" stroke-width="0.5"/>
<path d="M3.91924 28.99L5.82058 30.8914L7.72192 28.99L5.82058 27.0887L3.91924 28.99Z" stroke="#53C6F1" stroke-width="0.5"/>
<path d="M6.60858 3.44526L8.50992 5.34659L10.4113 3.44526L8.50992 1.54392L6.60858 3.44526Z" stroke="#53C6F1" stroke-width="0.5"/>
</svg>
