<svg width="54" height="62" viewBox="0 0 54 62" fill="none" xmlns="http://www.w3.org/2000/svg">
<path d="M53 34.4218C53 33.2586 52.0604 32.3124 50.9053 32.3124H50.5694C50.5694 15.4725 50.5694 22.3335 50.5694 5.45312C50.5694 2.99768 48.5856 1 46.1472 1H11.2375C8.79918 1 6.8154 2.99768 6.8154 5.45312V32.3124H6.47902C5.32394 32.3124 4.38432 33.2586 4.38432 34.4218V35.5442C4.38432 36.0864 4.59417 36.5764 4.92914 36.9505C4.62332 37.292 4.43007 37.7319 4.39814 38.2189H1.69823C1.31275 38.2189 1 38.5339 1 38.9221C1 39.3102 1.31275 39.6252 1.69823 39.6252H4.39904C4.4753 40.719 5.37377 41.5881 6.47902 41.5881H6.8154V57.4844C6.8154 59.423 8.38142 61 10.3066 61H47.0782C49.0034 61 50.5694 59.423 50.5694 57.4844V41.5881H50.9053C52.0604 41.5881 53 40.6419 53 39.4787V38.3567C53 37.8146 52.7902 37.3245 52.4552 36.9505C52.7901 36.5764 53 36.0864 53 35.5442L53 34.4218ZM8.21187 14.922H49.1729V20.1158H8.21187V14.922ZM49.1729 13.5157H8.21187V8.32193H49.1729L49.1729 13.5157ZM8.21187 21.522H49.1729V26.7254H8.21187V21.522ZM11.2375 2.40625H46.1472C47.8155 2.40625 49.1729 3.77313 49.1729 5.45312V6.91568H8.21187V5.45312C8.21187 3.77313 9.56924 2.40625 11.2375 2.40625ZM8.21187 28.1317H49.1729V32.3124H8.21187V28.1317ZM5.78078 34.4218C5.78078 34.0341 6.09399 33.7187 6.47902 33.7187H50.9053C51.2903 33.7187 51.6035 34.0341 51.6035 34.4218V35.5442C51.6035 35.9319 51.2903 36.2473 50.9053 36.2473H6.47902C6.09399 36.2473 5.78078 35.9319 5.78078 35.5442V34.4218ZM49.1729 57.4844C49.1729 58.6475 48.2333 59.5938 47.0782 59.5938H10.3066C9.15148 59.5938 8.21187 58.6475 8.21187 57.4844V41.5881H10.5398V56.5469C10.5398 56.9351 10.8525 57.25 11.238 57.25C20.2308 57.25 37.1695 57.25 46.1495 57.25C46.535 57.25 46.8478 56.9351 46.8478 56.5469V41.5881H49.1729L49.1729 57.4844ZM31.2539 41.5881H45.4513V55.8438H31.2539V41.5881ZM27.53 41.5881H29.8561V55.8438H27.53V41.5881ZM26.1322 55.8438H11.9362V41.5881H26.1322L26.1322 55.8438ZM51.6035 39.4787C51.6035 39.8664 51.2903 40.1818 50.9053 40.1818H6.47902C6.09399 40.1818 5.78078 39.8664 5.78078 39.4787C5.78078 39.2927 5.78078 38.2605 5.78078 38.3567C5.78078 37.969 6.09399 37.6536 6.47902 37.6536H50.9053C51.2903 37.6536 51.6035 37.969 51.6035 38.3567V39.4787Z" fill="#53C6F1" stroke="#53C6F1" stroke-width="0.5"/>
</svg>
