<svg width="82" height="82" viewBox="0 0 82 82" fill="none" xmlns="http://www.w3.org/2000/svg">
<path d="M68.1642 28.245C68.1582 28.2344 68.1521 28.2239 68.146 28.2134C68.0836 28.0809 68.0211 27.9484 67.9587 27.8159C67.9206 27.7255 67.8719 27.6413 67.8233 27.557C67.7608 27.4245 67.6878 27.2981 67.6254 27.1656C67.5569 27.0226 67.4778 26.8857 67.4049 26.7593C67.3684 26.6961 67.338 26.6434 67.3015 26.5802C67.192 26.3906 67.0931 26.1949 66.9836 26.0053C66.8741 25.8157 66.7647 25.6261 66.6447 25.4426C66.6082 25.3794 66.5778 25.3267 66.5413 25.2635C66.4622 25.1266 66.3726 24.9957 66.2936 24.8588C66.21 24.7385 66.1431 24.6226 66.0596 24.5023C66.011 24.418 65.9518 24.3399 65.9031 24.2556C65.8196 24.1353 65.7361 24.015 65.6526 23.8946C65.6465 23.8841 65.6404 23.8736 65.6343 23.863C61.9474 18.5481 56.6965 14.6135 50.5328 12.5543C50.5101 12.5393 50.4829 12.541 50.4602 12.526C49.904 12.3415 49.3434 12.1736 48.7782 12.0224C48.745 12.0135 48.7118 12.0046 48.6785 11.9957C48.6287 11.9824 48.5954 11.9735 48.5455 11.9601C48.2962 11.8934 48.0364 11.8328 47.787 11.766C47.7372 11.7527 47.6768 11.7454 47.6208 11.7216C40.2272 10.0635 32.5978 11.21 25.9998 15.0193C19.054 19.0294 14.0867 25.4927 12.0197 33.2309C10.1605 40.1609 10.8201 47.3642 13.8415 53.7657C13.8475 53.7762 13.8475 53.7762 13.8536 53.7867C13.9161 53.9192 13.9846 54.0622 14.047 54.1947C14.0896 54.2685 14.1216 54.3483 14.1703 54.4326C14.2388 54.5756 14.3118 54.702 14.3803 54.845C14.4427 54.9775 14.5218 55.1144 14.6008 55.2514C14.6373 55.3146 14.6738 55.3778 14.7103 55.441C14.8137 55.62 14.9126 55.8157 15.016 55.9948L15.0221 56.0053L15.0282 56.0158C15.1316 56.1949 15.241 56.3845 15.3549 56.5575C15.3914 56.6207 15.4279 56.6839 15.4644 56.7471C15.5374 56.8735 15.627 57.0044 15.7 57.1308C15.7896 57.2616 15.8686 57.3985 15.9582 57.5294C16.0008 57.6031 16.0539 57.6708 16.1026 57.755C16.1861 57.8754 16.2757 58.0062 16.3592 58.1265C16.3653 58.1371 16.3653 58.1371 16.3714 58.1476C20.4045 63.9649 26.3069 68.1272 33.2274 69.9882C40.973 72.0611 49.054 70.991 55.9893 66.9869C62.5661 63.1897 67.3754 57.1829 69.6212 49.9734C69.6407 49.9341 69.6435 49.8903 69.663 49.851C69.7404 49.5956 69.8073 49.3464 69.8847 49.091C69.8981 49.0411 69.9115 48.9913 69.9248 48.9414C69.9382 48.8916 69.956 48.8251 69.9694 48.7752C70.1165 48.2268 70.247 47.674 70.367 47.1272C70.3715 47.1106 70.3715 47.1106 70.3759 47.094C71.7044 40.681 70.9314 34.1331 68.1642 28.245ZM68.9601 43.1081C68.9532 43.2666 68.9297 43.4206 68.9228 43.5791C68.9183 43.5957 68.9244 43.6062 68.92 43.6229C68.5626 47.3122 67.4804 50.9145 65.7358 54.197C59.6721 49.7065 54.2107 43.4357 49.9171 35.9991C45.5689 28.4677 42.8596 20.5377 42.0476 12.973C45.2554 13.1013 48.4188 13.7608 51.3956 14.9493C51.435 14.9688 51.4682 14.9777 51.5075 14.9971C51.6587 15.0643 51.8039 15.1209 51.9551 15.1881C56.9055 17.2878 61.2202 20.7937 64.2837 25.3451C64.3428 25.4233 64.3854 25.497 64.4341 25.5813C64.4766 25.655 64.5358 25.7332 64.5784 25.8069C64.6802 25.9588 64.7775 26.1274 64.8853 26.2898C64.9157 26.3425 64.94 26.3846 64.9705 26.4373C65.0738 26.6164 65.1878 26.7893 65.2972 26.9789C65.4006 27.158 65.5101 27.3476 65.6029 27.5328C65.6333 27.5854 65.6577 27.6276 65.6881 27.6802C65.7854 27.8488 65.8661 28.0129 65.9528 28.1875C65.9954 28.2612 66.0274 28.341 66.07 28.4148C66.1186 28.499 66.1628 28.5999 66.2009 28.6903C68.4114 33.2004 69.3364 38.1859 68.9601 43.1081ZM29.9659 66.7731C29.9266 66.7537 29.8933 66.7448 29.854 66.7254C29.7255 66.6731 29.6075 66.6149 29.479 66.5627C24.767 64.4377 20.6715 61.044 17.722 56.6655C17.6628 56.5874 17.6142 56.5031 17.555 56.4249C17.5124 56.3512 17.4532 56.273 17.4107 56.1993C17.3089 56.0473 17.2116 55.8788 17.1098 55.7269C17.0794 55.6742 17.049 55.6216 17.0186 55.5689C16.9152 55.3898 16.8013 55.2168 16.704 55.0483L16.6979 55.0378L16.6918 55.0272C16.5885 54.8482 16.4851 54.6691 16.3983 54.4945C16.3679 54.4418 16.3375 54.3891 16.3071 54.3365C16.2159 54.1785 16.1291 54.0039 16.0484 53.8398C15.9998 53.7555 15.9616 53.6651 15.913 53.5809C15.8704 53.5071 15.8384 53.4273 15.7958 53.3536C13.2626 48.1871 12.4264 42.406 13.2648 36.8237C13.281 36.7301 13.2972 36.6365 13.3074 36.5323C13.3147 36.4719 13.3264 36.3949 13.3337 36.3345C13.8285 33.3944 14.7977 30.5456 16.1933 27.9C22.349 32.3795 27.8619 38.6908 32.2102 46.2222C36.5098 53.6694 39.2097 61.5345 40.0502 69.0266C36.5751 68.8981 33.1548 68.1342 29.9659 66.7731ZM42.0123 69.0173C41.1629 61.1933 38.3665 52.9907 33.8966 45.2486C29.3719 37.4117 23.6044 30.8542 17.1763 26.1949C19.533 22.3905 22.8307 19.0961 26.9728 16.7046C31.115 14.3132 35.6168 13.1044 40.0899 12.9657C40.8943 20.8578 43.7061 29.1358 48.2308 36.9727C52.7007 44.7148 58.4061 51.2379 64.7678 55.8794C62.4139 59.6401 59.1312 62.9117 55.0312 65.2788C50.9101 67.6581 46.446 68.8591 42.0123 69.0173Z" fill="#53C6F1"/>
</svg>
