<svg width="26" height="26" viewBox="0 0 26 26" fill="none" xmlns="http://www.w3.org/2000/svg">
<path d="M18.6862 26C17.8469 26 17.0147 25.8516 16.201 25.556C12.616 24.2537 9.28848 22.1327 6.57788 19.4221C3.86728 16.7116 1.74623 13.384 0.443992 9.79906C0.0255198 8.64698 -0.0979755 7.45773 0.0770608 6.26422C0.241027 5.14627 0.674073 4.06096 1.32943 3.12561C1.98768 2.18615 2.86525 1.40475 3.86723 0.865937C4.93573 0.291371 6.10198 7.73165e-08 7.33368 7.73165e-08C7.71676 7.73165e-08 8.04784 0.267657 8.12812 0.642204L9.40339 6.59347C9.46113 6.86296 9.37831 7.14336 9.18347 7.33825L7.00437 9.51729C9.06002 13.6043 12.3956 16.9399 16.4826 18.9955L18.6617 16.8164C18.8565 16.6216 19.137 16.5389 19.4065 16.5965L25.3577 17.8718C25.7323 17.9521 26 18.2831 26 18.6662C26 19.8979 25.7086 21.0642 25.134 22.1327C24.5951 23.1347 23.8137 24.0122 22.8743 24.6705C21.939 25.3259 20.8537 25.7589 19.7357 25.9229C19.3853 25.9743 19.0351 25.9999 18.6862 26ZM6.68452 1.66048C5.05983 1.83983 3.6178 2.6914 2.6602 4.05812C1.58338 5.59495 1.33227 7.4852 1.97128 9.2443C4.4749 16.1363 9.86366 21.5251 16.7557 24.0287C18.5148 24.6677 20.4051 24.4167 21.9419 23.3398C23.3086 22.3822 24.1602 20.9402 24.3396 19.3155L19.4982 18.2781L17.2225 20.5538C16.9803 20.7959 16.6124 20.8603 16.3025 20.7147C11.4688 18.4438 7.55619 14.5312 5.28534 9.6975C5.13976 9.3876 5.20405 9.01965 5.44621 8.77753L7.72194 6.50182L6.68452 1.66048Z" fill="#213CC4"/>
<path d="M25.1875 13.8119C24.7388 13.8119 24.3751 13.4482 24.3751 12.9995C24.3751 6.72753 19.2725 1.62493 13.0005 1.62493C12.5518 1.62493 12.188 1.26115 12.188 0.812467C12.188 0.363782 12.5518 0 13.0005 0C16.4728 0 19.7373 1.35215 22.1926 3.80742C24.6479 6.2627 26 9.52714 26 12.9995C26 13.4482 25.6363 13.8119 25.1875 13.8119Z" fill="#213CC4"/>
<path d="M21.9377 13.8119C21.489 13.8119 21.1252 13.4482 21.1252 12.9995C21.1252 8.51953 17.4804 4.8748 13.0005 4.8748C12.5518 4.8748 12.188 4.51102 12.188 4.06233C12.188 3.61365 12.5518 3.24987 13.0005 3.24987C18.3765 3.24987 22.7501 7.62353 22.7501 12.9995C22.7501 13.4482 22.3864 13.8119 21.9377 13.8119Z" fill="#213CC4"/>
<path d="M18.6878 13.8119C18.2391 13.8119 17.8753 13.4482 17.8753 12.9995C17.8753 10.3115 15.6885 8.12467 13.0005 8.12467C12.5518 8.12467 12.188 7.76088 12.188 7.3122C12.188 6.86352 12.5518 6.49973 13.0005 6.49973C16.5845 6.49973 19.5002 9.41547 19.5002 12.9995C19.5002 13.4482 19.1365 13.8119 18.6878 13.8119Z" fill="#213CC4"/>
</svg>
