<svg width="28" height="28" viewBox="0 0 28 28" fill="none" xmlns="http://www.w3.org/2000/svg">
<path d="M26.4922 1H1.50781C1.22735 1 1 1.22735 1 1.50781V22.4297C1 22.7102 1.22735 22.9375 1.50781 22.9375H15.8666L18.0654 26.7461C18.1328 26.8627 18.2437 26.9478 18.3738 26.9827C18.4171 26.9943 18.4612 27 18.5052 27C18.5936 27 18.6813 26.9769 18.7591 26.932L21.9406 25.0951C22.1835 24.9549 22.2667 24.6443 22.1264 24.4015L21.2812 22.9375H26.4922C26.7726 22.9375 27 22.7102 27 22.4297V1.50781C27 1.22735 26.7726 1 26.4922 1ZM25.9844 2.01562V5.0625H2.01562V2.01562H25.9844ZM18.6911 25.7985L16.0524 21.2282C15.985 21.1115 15.8741 21.0264 15.744 20.9916C15.7008 20.98 15.6566 20.9742 15.6126 20.9742C15.5243 20.9742 15.4366 20.9974 15.3587 21.0423L14.508 21.5334V15.8952L19.3908 18.7143L18.5401 19.2054C18.2973 19.3456 18.214 19.6563 18.3543 19.8991L20.993 24.4695L18.6911 25.7985ZM20.6948 21.9219L19.4877 19.8311L20.6604 19.1541C20.8175 19.0634 20.9143 18.8958 20.9143 18.7143C20.9143 18.5329 20.8175 18.3653 20.6604 18.2746L20.1172 17.9609H23.1406C23.421 17.9609 23.6484 17.7336 23.6484 17.4531V10.5469C23.6484 10.2664 23.421 10.0391 23.1406 10.0391H16.2852C16.0047 10.0391 15.7773 10.2664 15.7773 10.5469C15.7773 10.8273 16.0047 11.0547 16.2852 11.0547H22.6328V16.9453H18.3581L14.2541 14.5759C14.0969 14.4852 13.9034 14.4852 13.7462 14.5759C13.5891 14.6666 13.4923 14.8342 13.4923 15.0156V16.9453H5.36719V11.0547H11.7148C11.9953 11.0547 12.2227 10.8273 12.2227 10.5469C12.2227 10.2664 11.9953 10.0391 11.7148 10.0391H4.85938C4.57891 10.0391 4.35156 10.2664 4.35156 10.5469V17.4531C4.35156 17.7336 4.57891 17.9609 4.85938 17.9609H13.4924V21.9219H2.01562V6.07812H25.9844V21.9219H20.6948Z" fill="#FF6D2A"/>
<path d="M4.25 4.04688C4.38355 4.04688 4.51457 3.99254 4.60902 3.89809C4.70348 3.80363 4.75781 3.67262 4.75781 3.53906C4.75781 3.40551 4.70348 3.27449 4.60902 3.18004C4.51457 3.08559 4.38355 3.03125 4.25 3.03125C4.11645 3.03125 3.98543 3.08559 3.89098 3.18004C3.79652 3.27449 3.74219 3.40551 3.74219 3.53906C3.74219 3.67262 3.79652 3.80363 3.89098 3.89809C3.98543 3.99254 4.11645 4.04688 4.25 4.04688Z" fill="#FF6D2A"/>
<path d="M6.6875 4.04688C6.82105 4.04688 6.95207 3.99254 7.04652 3.89809C7.14098 3.80363 7.19531 3.67262 7.19531 3.53906C7.19531 3.40551 7.14098 3.27449 7.04652 3.18004C6.95207 3.08559 6.82105 3.03125 6.6875 3.03125C6.55395 3.03125 6.42293 3.08559 6.32848 3.18004C6.23402 3.27449 6.17969 3.40551 6.17969 3.53906C6.17969 3.67262 6.23402 3.80363 6.32848 3.89809C6.42293 3.99254 6.55395 4.04688 6.6875 4.04688Z" fill="#FF6D2A"/>
<path d="M9.125 4.04688C9.25855 4.04688 9.38957 3.99254 9.48402 3.89809C9.57848 3.80363 9.63281 3.67262 9.63281 3.53906C9.63281 3.40551 9.57848 3.27449 9.48402 3.18004C9.38957 3.08559 9.25855 3.03125 9.125 3.03125C8.99145 3.03125 8.86043 3.08559 8.76598 3.18004C8.67152 3.27449 8.61719 3.40551 8.61719 3.53906C8.61719 3.67262 8.67152 3.80363 8.76598 3.89809C8.86043 3.99254 8.99145 4.04688 9.125 4.04688Z" fill="#FF6D2A"/>
<path d="M14 4.04688H23.7246C24.005 4.04688 24.2324 3.81953 24.2324 3.53906C24.2324 3.2586 24.005 3.03125 23.7246 3.03125H14C13.7195 3.03125 13.4922 3.2586 13.4922 3.53906C13.4922 3.81953 13.7195 4.04688 14 4.04688Z" fill="#FF6D2A"/>
<path d="M14 10.0391C13.8664 10.0391 13.7354 10.0934 13.641 10.1879C13.5465 10.2823 13.4922 10.4133 13.4922 10.5469C13.4922 10.6804 13.5465 10.8114 13.641 10.9059C13.7354 11.0004 13.8664 11.0547 14 11.0547C14.1336 11.0547 14.2646 11.0004 14.359 10.9059C14.4534 10.8114 14.5078 10.6804 14.5078 10.5469C14.5078 10.4133 14.4535 10.2823 14.359 10.1879C14.2646 10.0934 14.1336 10.0391 14 10.0391Z" fill="#FF6D2A"/>
<path d="M26.4922 1H1.50781C1.22735 1 1 1.22735 1 1.50781V22.4297C1 22.7102 1.22735 22.9375 1.50781 22.9375H15.8666L18.0654 26.7461C18.1328 26.8627 18.2437 26.9478 18.3738 26.9827C18.4171 26.9943 18.4612 27 18.5052 27C18.5936 27 18.6813 26.9769 18.7591 26.932L21.9406 25.0951C22.1835 24.9549 22.2667 24.6443 22.1264 24.4015L21.2812 22.9375H26.4922C26.7726 22.9375 27 22.7102 27 22.4297V1.50781C27 1.22735 26.7726 1 26.4922 1ZM25.9844 2.01562V5.0625H2.01562V2.01562H25.9844ZM18.6911 25.7985L16.0524 21.2282C15.985 21.1115 15.8741 21.0264 15.744 20.9916C15.7008 20.98 15.6566 20.9742 15.6126 20.9742C15.5243 20.9742 15.4366 20.9974 15.3587 21.0423L14.508 21.5334V15.8952L19.3908 18.7143L18.5401 19.2054C18.2973 19.3456 18.214 19.6563 18.3543 19.8991L20.993 24.4695L18.6911 25.7985ZM20.6948 21.9219L19.4877 19.8311L20.6604 19.1541C20.8175 19.0634 20.9143 18.8958 20.9143 18.7143C20.9143 18.5329 20.8175 18.3653 20.6604 18.2746L20.1172 17.9609H23.1406C23.421 17.9609 23.6484 17.7336 23.6484 17.4531V10.5469C23.6484 10.2664 23.421 10.0391 23.1406 10.0391H16.2852C16.0047 10.0391 15.7773 10.2664 15.7773 10.5469C15.7773 10.8273 16.0047 11.0547 16.2852 11.0547H22.6328V16.9453H18.3581L14.2541 14.5759C14.0969 14.4852 13.9034 14.4852 13.7462 14.5759C13.5891 14.6666 13.4923 14.8342 13.4923 15.0156V16.9453H5.36719V11.0547H11.7148C11.9953 11.0547 12.2227 10.8273 12.2227 10.5469C12.2227 10.2664 11.9953 10.0391 11.7148 10.0391H4.85938C4.57891 10.0391 4.35156 10.2664 4.35156 10.5469V17.4531C4.35156 17.7336 4.57891 17.9609 4.85938 17.9609H13.4924V21.9219H2.01562V6.07812H25.9844V21.9219H20.6948Z" stroke="#FF6D2A" stroke-width="0.3"/>
<path d="M4.25 4.04688C4.38355 4.04688 4.51457 3.99254 4.60902 3.89809C4.70348 3.80363 4.75781 3.67262 4.75781 3.53906C4.75781 3.40551 4.70348 3.27449 4.60902 3.18004C4.51457 3.08559 4.38355 3.03125 4.25 3.03125C4.11645 3.03125 3.98543 3.08559 3.89098 3.18004C3.79652 3.27449 3.74219 3.40551 3.74219 3.53906C3.74219 3.67262 3.79652 3.80363 3.89098 3.89809C3.98543 3.99254 4.11645 4.04688 4.25 4.04688Z" stroke="#FF6D2A" stroke-width="0.3"/>
<path d="M6.6875 4.04688C6.82105 4.04688 6.95207 3.99254 7.04652 3.89809C7.14098 3.80363 7.19531 3.67262 7.19531 3.53906C7.19531 3.40551 7.14098 3.27449 7.04652 3.18004C6.95207 3.08559 6.82105 3.03125 6.6875 3.03125C6.55395 3.03125 6.42293 3.08559 6.32848 3.18004C6.23402 3.27449 6.17969 3.40551 6.17969 3.53906C6.17969 3.67262 6.23402 3.80363 6.32848 3.89809C6.42293 3.99254 6.55395 4.04688 6.6875 4.04688Z" stroke="#FF6D2A" stroke-width="0.3"/>
<path d="M9.125 4.04688C9.25855 4.04688 9.38957 3.99254 9.48402 3.89809C9.57848 3.80363 9.63281 3.67262 9.63281 3.53906C9.63281 3.40551 9.57848 3.27449 9.48402 3.18004C9.38957 3.08559 9.25855 3.03125 9.125 3.03125C8.99145 3.03125 8.86043 3.08559 8.76598 3.18004C8.67152 3.27449 8.61719 3.40551 8.61719 3.53906C8.61719 3.67262 8.67152 3.80363 8.76598 3.89809C8.86043 3.99254 8.99145 4.04688 9.125 4.04688Z" stroke="#FF6D2A" stroke-width="0.3"/>
<path d="M14 4.04688H23.7246C24.005 4.04688 24.2324 3.81953 24.2324 3.53906C24.2324 3.2586 24.005 3.03125 23.7246 3.03125H14C13.7195 3.03125 13.4922 3.2586 13.4922 3.53906C13.4922 3.81953 13.7195 4.04688 14 4.04688Z" stroke="#FF6D2A" stroke-width="0.3"/>
<path d="M14 10.0391C13.8664 10.0391 13.7354 10.0934 13.641 10.1879C13.5465 10.2823 13.4922 10.4133 13.4922 10.5469C13.4922 10.6804 13.5465 10.8114 13.641 10.9059C13.7354 11.0004 13.8664 11.0547 14 11.0547C14.1336 11.0547 14.2646 11.0004 14.359 10.9059C14.4534 10.8114 14.5078 10.6804 14.5078 10.5469C14.5078 10.4133 14.4535 10.2823 14.359 10.1879C14.2646 10.0934 14.1336 10.0391 14 10.0391Z" stroke="#FF6D2A" stroke-width="0.3"/>
</svg>
