<svg width="222" height="57" viewBox="0 0 222 57" fill="none" xmlns="http://www.w3.org/2000/svg">
<path d="M92.4692 5.99061C94.5708 7.65086 95.6216 9.9626 95.6216 12.9258C95.6216 15.847 94.5708 18.1588 92.4692 19.819C90.3677 21.4793 87.4675 22.3199 83.7687 22.3199H75.3624V31.4618H73.2188V3.51074H83.7687C87.4675 3.51074 90.3677 4.33036 92.4692 5.99061ZM90.9561 18.516C92.6163 17.2131 93.436 15.3426 93.436 12.9258C93.436 10.509 92.6163 8.6386 90.9561 7.3146C89.2958 5.99061 86.9 5.33912 83.7687 5.33912H75.3624V20.4705H83.7687C86.9 20.4705 89.2958 19.819 90.9561 18.516Z" fill="#B4BFCF"/>
<path d="M113.527 12.4218C114.977 13.7458 115.713 15.6792 115.713 18.2222V31.4411H113.695V27.7213C113.002 28.9402 111.972 29.907 110.627 30.5795C109.282 31.252 107.664 31.5882 105.793 31.5882C103.355 31.5882 101.422 31.0418 100.014 29.949C98.6059 28.8562 97.8914 27.4271 97.8914 25.6407C97.8914 23.9174 98.5428 22.5094 99.8458 21.4376C101.149 20.3658 103.229 19.8194 106.088 19.8194H113.611V18.1381C113.611 16.2046 113.065 14.7125 111.951 13.7038C110.837 12.695 109.219 12.1906 107.096 12.1906C105.646 12.1906 104.238 12.4218 102.914 12.9052C101.59 13.3885 100.455 14.019 99.5306 14.8176L98.4798 13.3885C99.5726 12.4638 100.897 11.7283 102.431 11.2029C103.965 10.6775 105.583 10.4253 107.264 10.4253C109.975 10.4463 112.056 11.1188 113.527 12.4218ZM110.732 28.7721C112.014 27.9735 112.96 26.8176 113.611 25.3045V21.3955H106.13C103.965 21.3955 102.41 21.7738 101.443 22.5094C100.476 23.2449 99.9929 24.2747 99.9929 25.5777C99.9929 26.9437 100.518 28.0155 101.59 28.7931C102.662 29.5707 104.154 29.97 106.088 29.97C107.895 29.97 109.45 29.5707 110.732 28.7721Z" fill="#B4BFCF"/>
<path d="M139.502 12.7367C141.099 14.2498 141.898 16.4355 141.898 19.2936V31.4828H139.796V19.4617C139.796 17.129 139.166 15.3426 137.926 14.1027C136.686 12.8838 134.942 12.2743 132.693 12.2743C130.108 12.2743 128.091 13.0099 126.599 14.481C125.106 15.9521 124.371 17.9066 124.371 20.3864V31.4828H122.269V10.6351H124.287V15.1535C125.043 13.6824 126.178 12.5475 127.67 11.7279C129.162 10.9083 130.949 10.488 132.987 10.488C135.719 10.446 137.905 11.2025 139.502 12.7367Z" fill="#B4BFCF"/>
<path d="M148.96 30.8526C147.363 30.3483 146.123 29.7178 145.219 28.9402L146.186 27.343C147.089 28.0575 148.245 28.667 149.653 29.1504C151.061 29.6337 152.554 29.8649 154.088 29.8649C156.294 29.8649 157.934 29.5286 158.984 28.8351C160.035 28.1416 160.561 27.1749 160.561 25.956C160.561 25.0733 160.266 24.3798 159.699 23.8754C159.131 23.371 158.417 22.9927 157.576 22.7616C156.736 22.5304 155.58 22.2782 154.088 22.005C152.343 21.7108 150.956 21.3955 149.885 21.0383C148.813 20.702 147.909 20.1346 147.152 19.357C146.396 18.5794 146.018 17.5286 146.018 16.1626C146.018 14.5023 146.732 13.1573 148.182 12.0645C149.632 10.9927 151.671 10.4463 154.34 10.4463C155.748 10.4463 157.135 10.6354 158.501 11.0137C159.867 11.392 161.002 11.8754 161.864 12.4848L160.897 14.082C159.993 13.4726 158.984 13.0102 157.828 12.695C156.673 12.3797 155.496 12.2116 154.298 12.2116C152.259 12.2116 150.704 12.5689 149.674 13.2834C148.645 13.998 148.119 14.9437 148.119 16.1206C148.119 17.0453 148.413 17.7808 149.002 18.3062C149.59 18.8316 150.305 19.2099 151.166 19.4621C152.028 19.7143 153.226 19.9875 154.76 20.2817C156.462 20.5759 157.85 20.8911 158.9 21.2274C159.951 21.5637 160.834 22.1101 161.569 22.8456C162.305 23.5812 162.662 24.6109 162.662 25.9139C162.662 27.6372 161.906 29.0243 160.392 30.0751C158.879 31.1048 156.757 31.6302 154.004 31.6302C152.238 31.6092 150.557 31.357 148.96 30.8526Z" fill="#B4BFCF"/>
<path d="M183.678 12.7368C185.275 14.2499 186.074 16.4356 186.074 19.2937V31.4829H183.972V19.4618C183.972 17.1291 183.342 15.3427 182.102 14.1028C180.862 12.8839 179.117 12.2744 176.869 12.2744C174.284 12.2744 172.266 13.01 170.774 14.4811C169.282 15.9522 168.546 17.9067 168.546 20.3865V31.4829H166.445V1.85059H168.546V14.9645C169.303 13.5354 170.417 12.4215 171.909 11.6229C173.401 10.8454 175.145 10.4461 177.163 10.4461C179.895 10.4461 182.081 11.2026 183.678 12.7368Z" fill="#B4BFCF"/>
<path d="M192.462 5.08707C192.126 4.77184 191.958 4.39355 191.958 3.95222C191.958 3.48987 192.126 3.11159 192.462 2.79635C192.799 2.48111 193.198 2.31299 193.681 2.31299C194.165 2.31299 194.564 2.4601 194.9 2.77534C195.236 3.09057 195.405 3.46886 195.405 3.91019C195.405 4.37254 195.236 4.75082 194.9 5.06606C194.564 5.3813 194.165 5.54942 193.681 5.54942C193.198 5.54942 192.799 5.3813 192.462 5.08707ZM192.631 10.6142H194.732V31.4619H192.631V10.6142Z" fill="#B4BFCF"/>
<path d="M218.732 12.7367C220.33 14.2498 221.128 16.4355 221.128 19.2936V31.4828H219.027V19.4617C219.027 17.129 218.396 15.3426 217.156 14.1027C215.916 12.8838 214.172 12.2743 211.923 12.2743C209.338 12.2743 207.321 13.0099 205.829 14.481C204.337 15.9521 203.601 17.9066 203.601 20.3864V31.4828H201.5V10.6351H203.517V15.1535C204.274 13.6824 205.408 12.5475 206.901 11.7279C208.393 10.9083 210.179 10.488 212.218 10.488C214.95 10.446 217.135 11.2025 218.732 12.7367Z" fill="#B4BFCF"/>
<path d="M84.0418 46.7512H85.9959V52.0069C85.2884 52.5459 84.4798 52.9839 83.5365 53.2871C82.5931 53.5903 81.6498 53.7251 80.6391 53.7251C79.2241 53.7251 77.9102 53.4219 76.7648 52.8154C75.6193 52.209 74.7097 51.4004 74.0695 50.3561C73.4294 49.3117 73.0925 48.1325 73.0925 46.8186C73.0925 45.5047 73.4294 44.3255 74.0695 43.2811C74.7097 42.2367 75.6193 41.4282 76.7648 40.8217C77.9102 40.249 79.2241 39.9458 80.6391 39.9458C81.7846 39.9458 82.7953 40.1143 83.7049 40.4848C84.6146 40.8217 85.4231 41.3608 86.0632 42.0346L84.8167 43.2137C83.6712 42.1693 82.3236 41.664 80.7065 41.664C79.6284 41.664 78.6514 41.8998 77.8091 42.3378C76.9669 42.7758 76.2931 43.3822 75.7877 44.1908C75.2824 44.9993 75.0466 45.8753 75.0466 46.8523C75.0466 47.8293 75.2824 48.7052 75.7877 49.4801C76.2931 50.255 76.9332 50.8951 77.8091 51.3331C78.6514 51.771 79.6284 52.0069 80.7065 52.0069C81.9867 52.0069 83.0648 51.7037 84.0081 51.1309V46.7512H84.0418Z" fill="#B4BFCF"/>
<path d="M98.2926 53.5561L95.2268 49.4123C94.8562 49.4459 94.553 49.4459 94.3509 49.4459H90.8471V53.5561H88.8257V40.1138H94.3509C96.1701 40.1138 97.6188 40.518 98.6632 41.3603C99.7076 42.2026 100.247 43.348 100.247 44.7967C100.247 45.8411 99.9771 46.717 99.4381 47.4582C98.899 48.1994 98.1242 48.7048 97.1471 49.0417L100.516 53.5561H98.2926ZM97.2145 47.0539C97.8883 46.5149 98.2252 45.7737 98.2252 44.7967C98.2252 43.8197 97.8883 43.0785 97.2145 42.5731C96.5407 42.0678 95.5637 41.7983 94.2835 41.7983H90.8471V47.8625H94.2835C95.5637 47.8288 96.5407 47.5593 97.2145 47.0539Z" fill="#B4BFCF"/>
<path d="M105.031 52.8154C103.885 52.209 102.976 51.4005 102.336 50.3561C101.696 49.3117 101.359 48.1325 101.359 46.8523C101.359 45.5721 101.696 44.3929 102.336 43.3485C102.976 42.3041 103.885 41.4619 105.031 40.8891C106.176 40.2827 107.457 39.9795 108.905 39.9795C110.32 39.9795 111.6 40.2827 112.746 40.8891C113.891 41.4955 114.801 42.3041 115.441 43.3485C116.081 44.3929 116.418 45.5721 116.418 46.886C116.418 48.1999 116.081 49.379 115.441 50.4234C114.801 51.4678 113.891 52.2764 112.746 52.8828C111.6 53.4892 110.32 53.7925 108.905 53.7925C107.49 53.7251 106.176 53.4219 105.031 52.8154ZM111.702 51.3331C112.544 50.8951 113.184 50.255 113.656 49.4801C114.127 48.7052 114.363 47.8293 114.363 46.8523C114.363 45.8753 114.127 44.9993 113.656 44.2244C113.184 43.4496 112.51 42.8095 111.702 42.3715C110.859 41.9335 109.95 41.6977 108.905 41.6977C107.861 41.6977 106.918 41.9335 106.075 42.3715C105.233 42.8095 104.559 43.4496 104.088 44.2244C103.616 44.9993 103.38 45.8753 103.38 46.8523C103.38 47.8293 103.616 48.7052 104.088 49.4801C104.559 50.255 105.233 50.8951 106.075 51.3331C106.918 51.771 107.861 52.0069 108.905 52.0069C109.95 52.0069 110.859 51.771 111.702 51.3331Z" fill="#B4BFCF"/>
<path d="M119.956 52.1748C118.911 51.1641 118.372 49.6818 118.372 47.7614V40.1138H120.393V47.6941C120.393 50.5914 121.707 52.0064 124.369 52.0064C125.649 52.0064 126.66 51.6358 127.334 50.9283C128.007 50.2208 128.378 49.1427 128.378 47.6604V40.0801H130.332V47.7277C130.332 49.6481 129.793 51.1304 128.749 52.1411C127.704 53.1518 126.222 53.6572 124.335 53.6572C122.449 53.7246 121 53.1855 119.956 52.1748Z" fill="#B4BFCF"/>
<path d="M143.302 41.3603C144.347 42.2026 144.886 43.348 144.886 44.7967C144.886 46.2454 144.347 47.3908 143.302 48.2331C142.258 49.0754 140.809 49.4796 138.99 49.4796H135.486V53.5561H133.465V40.1138H138.99C140.809 40.1138 142.258 40.518 143.302 41.3603ZM141.854 47.0202C142.528 46.5149 142.864 45.74 142.864 44.7967C142.864 43.8197 142.528 43.0785 141.854 42.5731C141.18 42.0678 140.203 41.7983 138.923 41.7983H135.486V47.8288H138.923C140.203 47.8288 141.18 47.5593 141.854 47.0202Z" fill="#B4BFCF"/>
<path fill-rule="evenodd" clip-rule="evenodd" d="M55.7845 36.7628L43.3496 37.5349C44.9266 34.8902 45.83 31.802 45.83 28.5003C45.83 18.743 37.9289 10.8418 28.1715 10.8418C18.4142 10.8418 10.513 18.743 10.513 28.5003C10.513 32.5905 11.9093 36.3522 14.2254 39.3418C4.30383 27.6461 12.8128 4.69828 12.8128 4.69828C18.8741 0.460247 26.2825 0.000301361 26.2825 0.000301361H57.0001V28.5003C57.0001 32.0649 55.7845 36.7628 55.7845 36.7628Z" fill="#B4BFCF"/>
<path fill-rule="evenodd" clip-rule="evenodd" d="M28.5 57C12.7634 57 0 44.2366 0 28.5C0 18.5455 5.09222 9.7902 12.8291 4.69799C7.73689 19.8597 9.26455 29.5349 11.8764 35.317C12.5991 37.0418 13.5847 38.6187 14.7839 40.015C16.3444 41.8876 17.6421 42.6761 17.6421 42.6761C20.5824 44.8608 24.2291 46.1585 28.1715 46.1585C37.9288 46.1585 45.83 38.2573 45.83 28.5C45.83 20.8124 40.9184 14.2911 34.0686 11.8599C48.8689 16.2951 55.768 36.7461 55.768 36.7625C52.2363 48.4746 41.362 57 28.5 57Z" fill="#B4BFCF"/>
<path fill-rule="evenodd" clip-rule="evenodd" d="M39.6206 14.4057C37.2223 12.8945 34.9391 12.0239 33.0664 11.5311C32.048 11.2354 30.9967 11.0383 29.9125 10.9233C28.9598 10.8247 28.4177 10.8412 28.4177 10.8412H28.4342C28.352 10.8412 28.2535 10.8412 28.1713 10.8412C18.414 10.8412 10.5128 18.7423 10.5128 28.4997C10.5128 30.7337 10.9235 32.8855 11.6955 34.8567C11.6791 34.8239 11.6791 34.8075 11.6791 34.8075C10.4636 32.2449 9.85578 28.4175 9.72437 27.4812C10.25 17.7403 18.3154 10.0198 28.1713 10.0198C28.2535 10.0198 28.3356 10.0198 28.4177 10.0198C28.4342 10.0198 28.4506 10.0198 28.467 10.0198C30.6189 10.0527 32.6886 10.4634 34.5941 11.1697C49.6901 16.0484 55.6036 34.249 55.6036 34.249L55.7843 36.7622C51.0699 24.2452 44.91 17.7567 39.6206 14.4057Z" fill="#B4BFCF"/>
<path fill-rule="evenodd" clip-rule="evenodd" d="M9.74089 27.1532C9.74089 27.1368 9.74089 27.1368 9.74089 27.1203C9.98729 29.9128 10.7101 32.2947 11.2193 33.6909C11.3671 34.2659 11.5642 34.7587 11.7778 35.0872C11.7778 35.0872 11.5314 34.578 11.2193 33.6909C11.1043 33.2474 11.0057 32.771 10.9236 32.2618C12.6484 40.2123 19.7118 46.1587 28.1714 46.1587C37.9288 46.1587 45.8299 38.2575 45.8299 28.5002C45.8299 18.7921 37.9781 10.9074 28.2864 10.8417C28.3357 10.8417 28.385 10.8417 28.4178 10.8417C35.5469 10.8417 40.6227 14.9647 41.904 16.131C44.8608 19.3999 46.6513 23.7529 46.6513 28.5002C46.6513 38.701 38.3723 46.98 28.1714 46.98C19.6789 46.98 12.5334 41.2636 10.3651 33.461C6.12706 22.3895 11.5478 6.5379 11.5478 6.5379L12.8291 4.69814C9.41236 14.6198 9.21524 22.2417 9.74089 27.1532Z" fill="#B4BFCF"/>
<path fill-rule="evenodd" clip-rule="evenodd" d="M56.9836 27.7444C56.9836 28.0565 56.9836 28.3522 56.9836 28.6643C56.9343 31.4732 56.5072 34.1507 55.768 36.664L55.5873 34.2493L55.5709 34.315C55.9651 32.4752 56.1622 30.5533 56.1622 28.5986C56.1622 28.3522 56.1622 28.1058 56.1458 27.8758L56.1622 27.8922L56.113 0.821331H28.4179H28.3357C22.3893 0.837757 16.8865 2.72681 12.3856 5.91355L12.4349 5.8807L12.8127 4.71442C16.6401 2.15188 21.1245 0.492802 25.9703 0.0492821H56.9343L56.9836 27.7444ZM0.65706 28.5821C0.65706 43.9081 13.0919 56.3429 28.4179 56.3429C41.3784 56.3429 52.2527 47.4726 55.3081 35.4648V35.4977L55.768 36.6968C52.2035 48.8196 41.2962 57 28.6643 57C12.7798 57 0 44.4994 0 28.6643C0 18.6934 5.09222 9.87234 12.8127 4.71442L11.5478 6.53775C4.92795 11.6135 0.65706 19.5968 0.65706 28.5821Z" fill="#B4BFCF"/>
<path fill-rule="evenodd" clip-rule="evenodd" d="M38.1248 18.4624V39.6526C38.1248 39.6526 36.2521 20.5978 16.9346 18.4624H38.1248Z" fill="#B4BFCF"/>
<path fill-rule="evenodd" clip-rule="evenodd" d="M38.1248 18.4624V37.0244C38.1248 37.0244 35.825 20.5321 19.5628 18.4624H38.1248Z" fill="#B4BFCF"/>
<g opacity="0.302">
<g opacity="0.302">
<path opacity="0.302" fill-rule="evenodd" clip-rule="evenodd" d="M38.1248 18.4624V36.5316L37.3034 33.7555V19.2837L38.1248 18.4624Z" fill="#B4BFCF"/>
</g>
</g>
<g opacity="0.3">
<g opacity="0.3">
<path opacity="0.3" fill-rule="evenodd" clip-rule="evenodd" d="M38.1248 18.4624L37.3034 19.2837H23.423C23.4066 19.2837 21.764 18.7417 19.7106 18.4953L19.5628 18.4624H38.1248Z" fill="#B4BFCF"/>
</g>
</g>
</svg>
