<svg width="53" height="53" viewBox="0 0 53 53" fill="none" xmlns="http://www.w3.org/2000/svg">
<path fill-rule="evenodd" clip-rule="evenodd" d="M50.8937 33.5408L39.5486 34.2452C40.9873 31.8323 41.8116 29.0148 41.8116 26.0024C41.8116 17.1001 34.6029 9.8914 25.7006 9.8914C16.7984 9.8914 9.58963 17.1001 9.58963 26.0024C9.58963 29.7342 10.8635 33.1662 12.9767 35.8938C3.92455 25.2231 11.6878 4.28628 11.6878 4.28628C17.218 0.41964 23.9771 3.8147e-06 23.9771 3.8147e-06H52.0028V26.0024C52.0028 29.2546 50.8937 33.5408 50.8937 33.5408Z" fill="url(#paint0_linear)"/>
<path fill-rule="evenodd" clip-rule="evenodd" d="M26.0024 52.0049C11.6449 52.0049 0 40.36 0 26.0025C0 16.9204 4.64596 8.93232 11.7048 4.28636C7.05886 18.1193 8.45265 26.9467 10.8356 32.2221C11.495 33.7957 12.3942 35.2345 13.4883 36.5084C14.912 38.2169 16.096 38.9362 16.096 38.9362C18.7787 40.9295 22.1058 42.1135 25.7027 42.1135C34.6049 42.1135 41.8137 34.9047 41.8137 26.0025C41.8137 18.9886 37.3325 13.0388 31.083 10.8207C44.5862 14.8672 50.8808 33.5259 50.8808 33.5409C47.6586 44.2266 37.7372 52.0049 26.0024 52.0049Z" fill="url(#paint1_linear)"/>
<path fill-rule="evenodd" clip-rule="evenodd" d="M36.1435 13.1436C33.9554 11.7648 31.8722 10.9705 30.1637 10.5209C29.2345 10.2511 28.2753 10.0713 27.2862 9.96639C26.4169 9.87647 25.9224 9.89145 25.9224 9.89145H25.9373C25.8624 9.89145 25.7725 9.89145 25.6976 9.89145C16.7953 9.89145 9.58656 17.1002 9.58656 26.0024C9.58656 28.0407 9.96124 30.004 10.6656 31.8024C10.6506 31.7724 10.6506 31.7574 10.6506 31.7574C9.5416 29.4195 8.98708 25.9275 8.86719 25.0733C9.34677 16.186 16.7054 9.14211 25.6976 9.14211C25.7725 9.14211 25.8474 9.14211 25.9224 9.14211C25.9373 9.14211 25.9523 9.14211 25.9673 9.14211C27.9306 9.17208 29.819 9.54675 31.5575 10.1912C45.3305 14.6423 50.7258 31.2479 50.7258 31.2479L50.8907 33.5409C46.5894 22.1208 40.9693 16.201 36.1435 13.1436Z" fill="url(#paint2_linear)"/>
<path fill-rule="evenodd" clip-rule="evenodd" d="M8.88831 24.7736C8.88831 24.7587 8.88831 24.7587 8.88831 24.7437C9.11312 27.2915 9.77254 29.4646 10.2371 30.7385C10.372 31.263 10.5519 31.7126 10.7467 32.0123C10.7467 32.0123 10.5219 31.5478 10.2371 30.7385C10.1322 30.3338 10.0423 29.8992 9.96737 29.4346C11.541 36.6883 17.9854 42.1136 25.7037 42.1136C34.606 42.1136 41.8147 34.9048 41.8147 26.0026C41.8147 17.1453 34.6509 9.95153 25.8086 9.89158C25.8536 9.89158 25.8985 9.89158 25.9285 9.89158C32.4328 9.89158 37.0638 13.6533 38.2328 14.7174C40.9305 17.6998 42.564 21.6713 42.564 26.0026C42.564 35.3095 35.0106 42.8629 25.7037 42.8629C17.9554 42.8629 11.4361 37.6474 9.45782 30.5286C5.59118 20.4274 10.5369 5.96499 10.5369 5.96499L11.7059 4.28645C8.58857 13.3386 8.40873 20.2925 8.88831 24.7736Z" fill="url(#paint3_linear)"/>
<path fill-rule="evenodd" clip-rule="evenodd" d="M51.9898 25.3131C51.9898 25.5978 51.9898 25.8676 51.9898 26.1524C51.9448 28.7151 51.5552 31.158 50.8808 33.451L50.7159 31.2479L50.7009 31.3079C51.0606 29.6293 51.2405 27.8759 51.2405 26.0924C51.2405 25.8676 51.2405 25.6428 51.2255 25.433L51.2405 25.448L51.1955 0.749435H25.9275H25.8525C20.4272 0.764423 15.4066 2.48793 11.3002 5.3954L11.3451 5.36542L11.6898 4.30135C15.1818 1.96338 19.2732 0.449696 23.6944 0.0450478H51.9448L51.9898 25.3131ZM0.599479 26.0774C0.599479 40.0603 11.9446 51.4054 25.9275 51.4054C37.7522 51.4054 47.6736 43.3124 50.4611 32.357V32.3869L50.8808 33.481C47.6286 44.5414 37.6772 52.0049 26.1523 52.0049C11.6599 52.0049 0 40.5998 0 26.1524C0 17.0553 4.64596 9.00726 11.6898 4.30135L10.5358 5.9649C4.49609 10.5959 0.599479 17.8795 0.599479 26.0774Z" fill="url(#paint4_linear)"/>
<path fill-rule="evenodd" clip-rule="evenodd" d="M34.7852 16.845V36.1782C34.7852 36.1782 33.0766 18.7933 15.452 16.845H34.7852Z" fill="#052B60"/>
<path fill-rule="evenodd" clip-rule="evenodd" d="M34.7852 16.845V33.7803C34.7852 33.7803 32.687 18.7334 17.8499 16.845H34.7852Z" fill="url(#paint5_linear)"/>
<g opacity="0.302">
<g opacity="0.302">
<path opacity="0.302" fill-rule="evenodd" clip-rule="evenodd" d="M34.7852 16.845V33.3307L34.0358 30.7979V17.5944L34.7852 16.845Z" fill="#05B3CD"/>
</g>
</g>
<g opacity="0.3">
<g opacity="0.3">
<path opacity="0.3" fill-rule="evenodd" clip-rule="evenodd" d="M34.7852 16.845L34.0358 17.5944H21.3718C21.3568 17.5944 19.8581 17.0998 17.9848 16.875L17.8499 16.845H34.7852Z" fill="#007FF6"/>
</g>
</g>
<defs>
<linearGradient id="paint0_linear" x1="30.2981" y1="1.88756e-05" x2="30.2981" y2="42.1134" gradientUnits="userSpaceOnUse">
<stop stop-color="#213CC4"/>
<stop offset="1" stop-color="#09AEEB"/>
</linearGradient>
<linearGradient id="paint1_linear" x1="26.0305" y1="9.06881e-05" x2="26.0305" y2="52.0049" gradientUnits="userSpaceOnUse">
<stop stop-color="#D2D2D2"/>
<stop offset="1" stop-color="#CCCED1"/>
</linearGradient>
<linearGradient id="paint2_linear" x1="29.8391" y1="43.6121" x2="29.8391" y2="9.14211" gradientUnits="userSpaceOnUse">
<stop stop-color="#000133" stop-opacity="0.2"/>
<stop offset="1" stop-color="#8BE0F2" stop-opacity="0.4"/>
</linearGradient>
<linearGradient id="paint3_linear" x1="25.2729" y1="42.8629" x2="25.2729" y2="4.28913" gradientUnits="userSpaceOnUse">
<stop stop-opacity="0.1"/>
<stop offset="1" stop-color="white" stop-opacity="0.7"/>
</linearGradient>
<linearGradient id="paint4_linear" x1="90.5213" y1="-0.07485" x2="90.5213" y2="52.1922" gradientUnits="userSpaceOnUse">
<stop stop-opacity="0.1"/>
<stop offset="1" stop-color="white" stop-opacity="0.5"/>
</linearGradient>
<linearGradient id="paint5_linear" x1="26.3175" y1="33.7803" x2="26.3175" y2="16.845" gradientUnits="userSpaceOnUse">
<stop stop-color="#012960"/>
<stop offset="1" stop-color="#054193"/>
</linearGradient>
</defs>
</svg>
