<svg width="26" height="24" viewBox="0 0 26 24" fill="none" xmlns="http://www.w3.org/2000/svg">
<path d="M10.0691 4.33013C7.89455 4.72937 6.36606 6.26488 5.48364 8.93666C5.04242 10.2572 4.82182 11.5624 4.82182 12.8522C4.82182 13.0058 4.82182 13.144 4.82182 13.2668C4.85333 13.3589 4.88485 13.5893 4.91636 13.9578H10.0691V24H0V14.7409C0 10.1958 0.929697 6.69482 2.78909 4.238C4.64849 1.78119 7.07515 0.368522 10.0691 0V4.33013ZM26 4.33013C24.2667 4.60653 22.943 5.55854 22.0291 7.18618C21.1467 8.81382 20.7055 10.6871 20.7055 12.8061C20.7055 12.9904 20.7055 13.1747 20.7055 13.3589C20.737 13.5432 20.7842 13.7428 20.8473 13.9578H26V24H15.8836V14.7409C15.8836 11.0864 16.6715 7.83109 18.2473 4.97505C19.823 2.08829 22.4073 0.429942 26 0V4.33013Z" fill="#DEE3E9"/>
</svg>
