<svg width="64" height="78" viewBox="0 0 64 78" fill="none" xmlns="http://www.w3.org/2000/svg">
<path d="M64 69.0794V27.4286H46.7302C46.2222 27.4286 45.8836 27.7672 45.8836 28.2751C45.8836 28.7831 46.2222 29.1217 46.7302 29.1217H62.3069V63.746H1.69312V29.1217H17.3545C17.8624 29.1217 18.2011 28.7831 18.2011 28.2751C18.2011 27.7672 17.8624 27.4286 17.3545 27.4286H0V69.0794H28.3598V75.3439H21.9259C21.418 75.3439 21.0794 75.6825 21.0794 76.1905C21.0794 76.6984 21.418 77.037 21.9259 77.037H41.9894C42.4973 77.037 42.836 76.6984 42.836 76.1905C42.836 75.6825 42.4973 75.3439 41.9894 75.3439H35.5556V69.0794H64ZM33.9471 75.3439H30.0529V69.0794H33.9471V75.3439ZM1.69312 67.3862V65.4392H62.3069V67.3862H1.69312Z" fill="white" fill-opacity="0.5"/>
<path d="M28.1061 55.0264H28.7833L35.8944 45.037V37.6719L47.069 21.9259H17.0161L28.1907 37.6719V55.0264H28.1061ZM20.233 23.619H43.6828L34.2013 37.0794V44.4444L29.8838 50.5397V36.9947L20.233 23.619Z" fill="#FF6D2A"/>
<path d="M37.5028 7.36506C39.5345 7.36506 41.143 5.7566 41.143 3.72485C41.2276 1.69311 39.5345 -1.52588e-05 37.5028 -1.52588e-05C35.471 -1.52588e-05 33.8625 1.69311 33.8625 3.72485C33.8625 5.67194 35.5557 7.36506 37.5028 7.36506ZM37.5028 1.69311C38.6033 1.69311 39.4498 2.53967 39.4498 3.6402C39.4498 4.74073 38.6033 5.58729 37.5028 5.58729C36.4022 5.58729 35.5557 4.74073 35.5557 3.6402C35.5557 2.62432 36.4869 1.69311 37.5028 1.69311Z" fill="white"/>
<path d="M26.4974 18.455C28.5291 18.455 30.1376 16.8466 30.1376 14.8148C30.1376 12.7831 28.5291 11.1746 26.4974 11.1746C24.4656 11.1746 22.8572 12.7831 22.8572 14.8148C22.8572 16.8466 24.4656 18.455 26.4974 18.455ZM26.4974 12.7831C27.5979 12.7831 28.4445 13.6296 28.4445 14.7302C28.4445 15.8307 27.5979 16.6773 26.4974 16.6773C25.3969 16.6773 24.5503 15.8307 24.5503 14.7302C24.5503 13.6296 25.3969 12.7831 26.4974 12.7831Z" fill="white"/>
<path d="M37.5028 18.455C39.5345 18.455 41.143 16.8466 41.143 14.8148C41.143 12.7831 39.5345 11.1746 37.5028 11.1746C35.471 11.1746 33.8625 12.7831 33.8625 14.8148C33.8625 16.8466 35.5557 18.455 37.5028 18.455ZM37.5028 12.7831C38.6033 12.7831 39.4498 13.6296 39.4498 14.7302C39.4498 15.8307 38.6033 16.6773 37.5028 16.6773C36.4022 16.6773 35.5557 15.8307 35.5557 14.7302C35.5557 13.6296 36.4869 12.7831 37.5028 12.7831Z" fill="white"/>
</svg>
