<svg style="display: none;">
  <symbol xmlns="http://www.w3.org/2000/svg" viewBox="0 0 56 62" id="b2b_1">
    <path d="M20.184 1C14.803 1 9.97 3.954 6.53 8.63 3.089 13.309 1 19.722 1 26.815v8.372C1 42.28 3.089 48.693 6.529 53.37S14.803 61 20.184 61h15.632c5.381 0 10.215-2.954 13.655-7.63C52.911 48.691 55 42.278 55 35.185v-8.372c0-7.093-2.089-13.506-5.529-18.183S41.197 1 35.816 1H20.184zm0 1.395h15.632c4.853 0 9.262 2.64 12.5 7.042 3.239 4.403 5.263 10.555 5.263 17.377v8.372c0 6.822-2.024 12.952-5.262 17.355-3.239 4.402-7.648 7.064-12.501 7.064H20.184c-4.853 0-9.262-2.662-12.5-7.064-3.24-4.403-5.264-10.533-5.264-17.355v-8.372c0-6.822 2.024-12.974 5.262-17.377 3.239-4.402 7.648-7.042 12.501-7.042zm14.921 7.675c-3.94 0-7.352 2.44-9.725 6.235C23.007 20.1 21.605 25.283 21.605 31c0 5.717 1.401 10.878 3.775 14.673 2.373 3.795 5.785 6.257 9.725 6.257 3.94 0 7.526-2.444 10.08-6.235 2.556-3.792 4.13-8.964 4.13-14.695s-1.574-10.925-4.13-14.717c-2.554-3.79-6.14-6.213-10.08-6.213zM19.43 11.443a.726.726 0 00-.577.35c-3.05 5.084-4.874 12.349-5.063 19.185-.005.365.328.703.7.709.372.005.716-.322.721-.687.183-6.616 2.012-13.696 4.885-18.488.283-.438-.14-1.117-.666-1.069zm15.676.022c2.383 0 4.681 1.045 6.661 2.922a.704.704 0 00-.222.283l-4.929 11.773a3.778 3.778 0 00-1.51-.327 3.78 3.78 0 00-1.51.327l-4.93-11.773a.699.699 0 00-.11-.174c1.885-1.942 4.123-3.03 6.55-3.03zm7.66 4.012c.422.49.839 1 1.222 1.57 2.27 3.369 3.76 8.061 3.886 13.255h-8.549c-.153-1.207-.692-2.291-1.487-3.052 1.614-3.896 3.288-7.86 4.929-11.773zm-15.231.218c1.601 3.861 3.259 7.704 4.848 11.569-.793.76-1.342 1.833-1.495 3.038H23.05c.11-5.209 1.424-9.888 3.53-13.255.302-.483.624-.926.955-1.352zM9.438 19.118a.724.724 0 00-.6.523c-.991 3.355-1.379 7.314-1.443 11.337-.006.365.327.703.7.709.371.005.715-.322.72-.687.064-3.948.464-7.801 1.4-10.967.156-.45-.298-.985-.777-.915zm25.667 8.394c1.51 0 2.842 1.481 2.842 3.488 0 2.007-1.331 3.488-2.842 3.488-1.51 0-2.842-1.481-2.842-3.488 0-2.007 1.332-3.488 2.842-3.488zM23.05 31.698h7.838c.148 1.21.694 2.289 1.489 3.054-1.611 3.815-3.249 7.712-4.864 11.553a16.577 16.577 0 01-.933-1.352c-2.107-3.369-3.421-8.043-3.53-13.255zm24.824 0c-.124 5.198-1.613 9.86-3.886 13.234a17.299 17.299 0 01-1.155 1.526c-1.641-3.907-3.37-7.813-4.99-11.712.786-.76 1.33-1.827 1.482-3.027a.115.115 0 01.01-.022h8.538zm-14.278 3.859c.469.203.97.327 1.51.327a3.76 3.76 0 001.51-.327l5.04 11.751c.035.09.088.172.156.24-1.993 1.916-4.301 2.987-6.706 2.987-2.418 0-4.638-1.07-6.52-3 1.622-3.957 3.342-8.002 5.01-11.978zm-18.473 2.398c-.392.05-.69.472-.6.85.438 2.042 1.47 4.645 2.154 6.388.133.344.573.538.923.406.35-.131.545-.564.41-.907-.686-1.75-1.717-4.338-2.11-6.17-.065-.343-.424-.605-.777-.567zm-6.373.698c-.39.04-.697.45-.622.828a29.04 29.04 0 00.711 2.878c.105.354.528.582.888.48.36-.103.593-.518.489-.872-.262-.887-.536-1.79-.71-2.726-.055-.342-.404-.614-.756-.588z"   stroke-width=".3"></path>
  </symbol>
  <symbol xmlns="http://www.w3.org/2000/svg" viewBox="0 0 59 62" id="b2b_2">
    <path d="M51.896 13.776c-.302-.175-.622-.33-.928-.478-2.141-1.045-4.336-1.503-6.265-1.377-2.204.143-4.07 1.06-5.024 2.747l-2.087 3.674c-.495.875-.674 1.873-.6 2.895l-11.14 19.699c-.907.457-1.652 1.12-2.148 1.996l-2.934 5.184c-.953 1.687-.778 3.779.225 5.757 1.003 1.978 2.822 3.863 5.245 5.25s4.988 2.001 7.193 1.856c2.205-.145 4.07-1.06 5.024-2.748l2.964-5.166c.492-.87.652-1.851.582-2.866l11.159-19.728c.91-.458 1.63-1.116 2.123-1.99l2.097-3.688c.953-1.688.755-3.77-.248-5.751-1.005-1.98-2.814-3.879-5.237-5.266zM32.74 2.868c-.301-.176-.63-.315-.936-.464-2.142-1.045-4.312-1.51-6.241-1.384-2.205.144-4.086 1.052-5.04 2.74l-2.072 3.68c-.495.875-.688 1.865-.614 2.887L6.71 30.036c-.907.457-1.667 1.11-2.162 1.987l-2.92 5.193c-.952 1.687-.777 3.779.225 5.757 1.003 1.978 2.814 3.878 5.237 5.265 2.423 1.387 4.982 1.977 7.187 1.832 2.205-.145 4.085-1.051 5.039-2.739l2.949-5.175c.492-.87.667-1.842.597-2.857l11.135-19.722c.91-.458 1.653-1.122 2.147-1.996l2.073-3.682c.953-1.688.764-3.786-.24-5.766s-2.813-3.878-5.237-5.265zm18.829 11.48c2.32 1.327 4.055 3.16 4.988 5 .932 1.84 1.065 3.675.244 5.128L54.7 28.14c-.42.744-1.047 1.33-1.838 1.736a.44.44 0 00-.008.015c-.009.003-.017.002-.024.006a.336.336 0 00-.047.013c-.008.003-.016.003-.023.006a6.243 6.243 0 01-1.094.405 7.673 7.673 0 01-1.271.224c-.063.005-.125.007-.187.011-.174.011-.35.012-.53.013l-.038-.002c-.072 0-.152.01-.225.009-.104-.002-.204-.014-.31-.02-.014 0-.032.013-.047.013-.39-.022-.774-.078-1.18-.145-.037-.006-.079 0-.116-.007-.155-.027-.303-.073-.46-.107-.129-.028-.26-.054-.39-.087-.03-.008-.055-.021-.084-.03-.261-.067-.516-.126-.78-.212a13.576 13.576 0 01-.715-.255c-.06-.023-.124-.042-.183-.066-.048-.02-.086-.06-.135-.08a12.85 12.85 0 01-.546-.236 12.96 12.96 0 01-1.063-.557 14.312 14.312 0 01-1.683-1.119c-.211-.164-.435-.335-.631-.507-.169-.147-.33-.29-.488-.443-.026-.025-.046-.056-.073-.082a12.757 12.757 0 01-.513-.538c-.102-.113-.187-.23-.283-.345-.267-.32-.526-.644-.744-.973-.005-.003-.014-.002-.015-.009-.004-.008-.002-.017-.007-.024-.073-.11-.162-.221-.23-.333-.072-.12-.13-.234-.197-.355-.043-.08-.092-.178-.132-.257-.008-.015-.005-.033-.013-.048-.094-.188-.186-.366-.263-.554-.063-.151-.11-.302-.161-.453a7.093 7.093 0 01-.254-.99 5.748 5.748 0 01-.062-.556c-.064-.906.098-1.765.524-2.519l2.087-3.673c.822-1.453 2.444-2.282 4.493-2.416 1.792-.117 3.878.305 5.928 1.301.292.143.592.287.882.453h-.001zM32.404 3.452c2.32 1.328 4.064 3.145 4.997 4.986.933 1.84 1.057 3.69.236 5.143l-2.079 3.658c-.42.743-1.047 1.33-1.838 1.736a.366.366 0 00-.023.006c-.008.003-.017.002-.024.006a.33.33 0 00-.047.012c-.008.003-.016.003-.023.007-.145.07-.3.138-.454.197-.206.078-.411.173-.634.232-.4.106-.832.16-1.277.2-.062.005-.109.015-.172.02a9.904 9.904 0 01-.552.019c-.013 0-.026-.003-.038-.003-.073 0-.13.005-.203.003-.104-.002-.218-.023-.324-.028-.015-.001-.033.013-.048.013-.39-.022-.767-.054-1.173-.121-.037-.006-.07-.016-.107-.023-.155-.027-.319-.082-.475-.116-.13-.028-.261-.054-.391-.087-.03-.007-.064-.005-.092-.014a13.758 13.758 0 01-1.487-.483c-.06-.023-.123-.041-.182-.066-.048-.019-.087-.06-.136-.078-.181-.076-.349-.144-.53-.228-.063-.03-.135-.045-.198-.075a14.931 14.931 0 01-.874-.468 14.555 14.555 0 01-1.698-1.127c-.212-.164-.412-.341-.608-.513-.168-.147-.345-.3-.502-.452-.027-.025-.047-.057-.073-.082-.106-.104-.2-.209-.3-.315a11.529 11.529 0 01-.198-.215c-.102-.113-.202-.238-.299-.353-.267-.32-.525-.644-.744-.973-.003-.009-.017-.026-.021-.033-.074-.111-.147-.212-.215-.324a9.811 9.811 0 01-.212-.364c-.044-.08-.086-.154-.127-.234-.007-.014-.004-.033-.012-.047a8.494 8.494 0 01-.255-.569c-.063-.152-.11-.303-.16-.454a7.038 7.038 0 01-.15-.507c-.042-.161-.093-.331-.12-.49a5.743 5.743 0 01-.061-.557c-.065-.906.112-1.756.538-2.51L21.111 4.1c.822-1.453 2.444-2.282 4.493-2.416 1.792-.117 3.878.304 5.928 1.301.292.143.584.302.874.468h-.002zm18.344 12.36a12.35 12.35 0 00-.709-.373c-1.627-.808-3.277-1.198-4.707-1.192-1.634.006-3.013.552-3.677 1.728-.664 1.175-.44 2.655.39 4.071.83 1.416 2.265 2.814 4.112 3.871 1.848 1.058 3.765 1.601 5.399 1.595 1.634-.006 3.03-.583 3.695-1.758.664-1.176.424-2.664-.406-4.08-.83-1.417-2.25-2.805-4.097-3.863zM31.584 4.918c-.23-.134-.468-.272-.7-.387-1.628-.809-3.263-1.19-4.693-1.184-1.633.006-3.013.552-3.677 1.728-.664 1.175-.44 2.655.39 4.071.83 1.416 2.265 2.813 4.113 3.871 1.848 1.058 3.75 1.592 5.383 1.586 1.634-.006 3.037-.56 3.701-1.734.664-1.176.419-2.688-.411-4.104-.83-1.417-2.259-2.79-4.106-3.847zm18.828 11.48c1.758 1.006 3.123 2.326 3.878 3.614.755 1.29.886 2.495.374 3.401-.512.907-1.638 1.423-3.125 1.429-1.486.006-3.297-.489-5.054-1.495-1.758-1.006-3.1-2.333-3.855-3.622-.756-1.288-.916-2.511-.404-3.418s1.62-1.393 3.107-1.399c1.301-.005 2.87.374 4.415 1.144.22.11.444.22.664.345zM31.247 5.503c1.758 1.007 3.133 2.312 3.888 3.6.755 1.29.877 2.51.365 3.416-.513.907-1.614 1.417-3.101 1.423-1.487.005-3.312-.498-5.07-1.504-1.758-1.006-3.1-2.333-3.855-3.621-.755-1.29-.901-2.504-.389-3.41.513-.907 1.621-1.393 3.108-1.399 1.3-.005 2.854.365 4.4 1.135.22.11.435.235.654.36zm20.906 25.362l-12.075 21.36c-.742 1.314-2.2 2.066-4.06 2.186-1.628.106-3.535-.267-5.4-1.174-.265-.13-.535-.274-.798-.424a12.524 12.524 0 01-2.731-2.088 11.23 11.23 0 01-.54-.594 9.537 9.537 0 01-1.238-1.86c-.84-1.671-.96-3.337-.218-4.652l1.295-2.292a.332.332 0 00.026-.045l10.745-19.007a8.4 8.4 0 00.664 1.847c.573 1.13 1.42 2.212 2.489 3.208.072.07.145.14.22.209l.134.117c.167.148.357.288.534.43.062.049.116.096.179.144.182.14.36.266.552.4.133.093.257.2.395.29.242.157.495.288.751.437.398.225.806.435 1.207.62.521.24 1.03.454 1.549.62.085.029.166.06.251.086.013.002.036-.016.047-.012 1.433.437 2.84.641 4.13.557a8.167 8.167 0 001.892-.362zM33.003 19.98L20.937 41.325c-.742 1.314-2.224 2.072-4.084 2.193-1.627.105-3.526-.283-5.39-1.19a13.83 13.83 0 01-.799-.424 12.391 12.391 0 01-2.716-2.079 11.015 11.015 0 01-.54-.594 9.528 9.528 0 01-1.238-1.86c-.84-1.671-.97-3.323-.226-4.637l1.303-2.307a.324.324 0 00.026-.045l10.745-19.008c.145.61.343 1.236.649 1.84.573 1.13 1.412 2.226 2.48 3.222.073.07.17.134.245.203l.133.117c.167.148.341.28.52.422.06.048.106.11.169.158.182.14.36.267.552.401a15.614 15.614 0 002.369 1.356c.52.238 1.029.453 1.548.62.085.027.175.044.26.07.014.002.027 0 .04.003 1.432.438 2.832.618 4.123.533a8.207 8.207 0 001.897-.338zm8.256 31.548c-.087.423-.21.816-.425 1.195l-2.95 5.175c-.82 1.453-2.443 2.281-4.492 2.416-2.049.135-4.497-.45-6.817-1.778-2.32-1.328-4.05-3.139-4.981-4.977-.932-1.837-1.066-3.675-.245-5.128l2.934-5.183a4 4 0 01.868-1.058l-.638 1.111c-.875 1.548-.706 3.455.206 5.266.911 1.811 2.578 3.56 4.788 4.824 2.21 1.265 4.535 1.814 6.55 1.683 2.017-.13 3.732-.96 4.607-2.51l.595-1.036zM22.103 40.621c-.087.422-.21.815-.425 1.194L18.745 47c-.822 1.453-2.444 2.281-4.493 2.416-2.049.135-4.506-.435-6.826-1.763-2.32-1.328-4.05-3.139-4.981-4.977-.932-1.837-1.058-3.69-.236-5.143l2.919-5.192c.225-.405.524-.757.867-1.058l-.623 1.12c-.874 1.548-.72 3.446.191 5.257.912 1.811 2.578 3.56 4.788 4.824 2.21 1.265 4.526 1.829 6.542 1.699 2.016-.131 3.755-.968 4.63-2.517l.58-1.044z"   stroke-width="1.2"></path>
  </symbol>
  <symbol xmlns="http://www.w3.org/2000/svg" viewBox="0 0 76 53" id="b2b_3">
    <path d="M54.882 9.515c0-3.955-11.082-5-16.941-5-5.859 0-16.941 1.045-16.941 5s11.082 5 16.941 5c5.859 0 16.941-1.045 16.941-5zM23 9.515c0-.871 5.236-3 14.941-3 9.705 0 14.941 2.129 14.941 3s-5.236 3-14.941 3c-9.705 0-14.941-2.129-14.941-3z" ></path>
    <path d="M63.261 34.898c.395-.46.621-.959.621-1.506 0-.75-.412-1.413-1.133-2.001.723-.589 1.133-1.256 1.133-2.008 0-.746-.408-1.407-1.123-1.992.717-.587 1.123-1.25 1.123-1.998s-.41-1.41-1.127-1.996c.719-.588 1.127-1.252 1.127-2.002 0-.748-.41-1.411-1.129-1.997.721-.589 1.129-1.253 1.129-2.004a1.97 1.97 0 00-.045-.401c7.17-1.646 12.045-4.081 12.045-7.243C75.882 3.417 56.333 0 37.941 0 19.547 0 0 3.417 0 9.75c0 3.162 4.875 5.598 12.045 7.243a1.987 1.987 0 00-.045.401c0 .751.408 1.416 1.129 2.004-.719.587-1.129 1.249-1.129 1.997 0 .75.408 1.414 1.127 2.002-.718.586-1.127 1.248-1.127 1.996s.406 1.411 1.122 1.998c-.715.585-1.122 1.246-1.122 1.992 0 .753.41 1.419 1.133 2.008-.721.588-1.133 1.251-1.133 2.001 0 .547.226 1.046.621 1.506C5.142 36.544 0 39.02 0 42.265c0 6.333 19.548 9.75 37.941 9.75 18.392 0 37.941-3.417 37.941-9.75 0-3.245-5.142-5.722-12.621-7.367zm-1.379 6.484c0 1.236-8.146 4.133-23.941 4.133C22.145 45.515 14 42.619 14 41.382c0-.248.339-.563.993-.908 5.274 2.336 16.302 3.041 22.948 3.041 6.646 0 17.673-.705 22.947-3.041.655.345.994.66.994.908zm-.984-4.903c.648.344.984.656.984.903 0 1.236-8.146 4.133-23.941 4.133C22.145 41.515 14 38.619 14 37.382c0-.247.336-.561.983-.903 5.271 2.34 16.308 3.046 22.958 3.046 6.65 0 17.688-.706 22.957-3.046zM2 9.749c0-3.236 13.674-7.75 35.941-7.75 22.267 0 35.941 4.514 35.941 7.75 0 3.236-13.673 7.75-35.941 7.75C15.674 17.499 2 12.986 2 9.749zm35.941 9.75c8.396 0 17.027-.714 23.935-2.091-.06 1.245-8.199 4.119-23.935 4.119-15.737 0-23.876-2.874-23.936-4.118 6.909 1.376 15.54 2.09 23.936 2.09zm0 4.028c6.646 0 17.671-.705 22.947-3.041.654.346.994.661.994.909 0 1.236-8.146 4.133-23.941 4.133C22.145 25.528 14 22.632 14 21.395c0-.248.339-.563.994-.909 5.275 2.335 16.301 3.041 22.947 3.041zm0 4.001c6.648 0 17.675-.705 22.949-3.042.654.345.992.659.992.907 0 1.236-8.146 4.133-23.941 4.133C22.145 29.526 14 26.63 14 25.393c0-.248.338-.563.99-.907 5.275 2.336 16.304 3.042 22.951 3.042zm0 3.998c6.65 0 17.687-.705 22.957-3.045.648.342.984.656.984.902 0 1.236-8.146 4.133-23.941 4.133C22.145 33.516 14 30.62 14 29.383c0-.246.336-.561.983-.902 5.271 2.339 16.308 3.045 22.958 3.045zm0 3.99c6.642 0 17.66-.704 22.939-3.037.66.347 1.002.664 1.002.913 0 1.236-8.146 4.133-23.941 4.133C22.145 37.525 14 34.629 14 33.392c0-.249.342-.566 1.002-.913 5.278 2.333 16.297 3.037 22.939 3.037zm0 14.499C15.673 50.015 2 45.501 2 42.265c0-1.653 3.57-3.639 10.028-5.187-.016.1-.028.2-.028.304 0 .751.408 1.415 1.128 2.003-.719.587-1.128 1.249-1.128 1.997 0 4.852 16.969 6.133 25.941 6.133 8.972 0 25.941-1.281 25.941-6.133 0-.748-.41-1.41-1.129-1.997.721-.588 1.129-1.252 1.129-2.003 0-.104-.014-.204-.029-.304 6.457 1.548 10.029 3.533 10.029 5.187 0 3.236-13.673 7.75-35.941 7.75z" ></path>
  </symbol>
  <symbol xmlns="http://www.w3.org/2000/svg" viewBox="0 0 66 62" id="b2b_4">
    <path d="M57.21 45.625h-5.855l.001-22.785c0-.007.005-.014.005-.021 0-.007-.004-.014-.005-.021V15.33a.49.49 0 00-.492-.486l-22.208-.002H15.977a.495.495 0 00-.348.141.482.482 0 00-.144.344l-.001 7.486v.004l-.002 22.807H8.79c-4.295 0-7.79 3.449-7.79 7.688C1 57.55 4.495 61 8.79 61h48.42c4.295 0 7.79-3.449 7.79-7.688 0-4.238-3.495-7.687-7.79-7.687zm-18.53-29.81l11.692.002v6.516H38.679v-6.517zm-9.532 0h8.547v6.982c-.001.008-.005.014-.005.021 0 .008.004.014.004.021v6.238L33.74 25.73a.494.494 0 00-.641 0l-3.953 3.348.001-13.262zm-12.678-.001h11.694l-.001 6.517H16.47v-6.517zm0 7.488l11.693.001v6.83a.493.493 0 00.812.369l4.446-3.764 4.444 3.765a.495.495 0 00.813-.368v-6.831h11.694l-.002 22.321-33.902-.002.002-22.321zm40.74 36.726H8.79c-3.752 0-6.805-3.012-6.805-6.715 0-3.704 3.052-6.716 6.805-6.716h48.42c3.752 0 6.805 3.012 6.805 6.715 0 3.704-3.053 6.716-6.805 6.716z" ></path>
    <path d="M57.02 48.614c-2.623 0-4.759 2.109-4.759 4.701 0 2.59 2.136 4.697 4.76 4.697 2.624 0 4.759-2.107 4.759-4.697 0-2.592-2.135-4.701-4.76-4.701zm0 8.426c-2.08 0-3.774-1.67-3.774-3.725 0-2.056 1.693-3.73 3.775-3.73 2.08 0 3.774 1.674 3.774 3.73 0 2.054-1.693 3.725-3.774 3.725zm-12.01-8.426c-2.624 0-4.759 2.109-4.759 4.701 0 2.59 2.135 4.697 4.76 4.697 2.624 0 4.759-2.107 4.759-4.697 0-2.592-2.135-4.701-4.76-4.701zm0 8.426c-2.081 0-3.774-1.67-3.774-3.725 0-2.056 1.693-3.73 3.774-3.73 2.082 0 3.775 1.674 3.775 3.73 0 2.054-1.693 3.725-3.775 3.725zM33 48.614c-2.624 0-4.76 2.109-4.76 4.701 0 2.59 2.136 4.697 4.76 4.697 2.624 0 4.76-2.107 4.76-4.697 0-2.592-2.136-4.701-4.76-4.701zm0 8.426c-2.081 0-3.774-1.67-3.774-3.725 0-2.056 1.693-3.73 3.774-3.73s3.775 1.674 3.775 3.73c0 2.054-1.694 3.725-3.775 3.725zm-12.01-8.426c-2.625 0-4.76 2.109-4.76 4.701 0 2.59 2.135 4.697 4.76 4.697 2.624 0 4.759-2.107 4.759-4.697 0-2.592-2.135-4.701-4.76-4.701zm0 8.426c-2.082 0-3.775-1.67-3.775-3.725 0-2.056 1.693-3.73 3.775-3.73 2.081 0 3.774 1.674 3.774 3.73 0 2.054-1.693 3.725-3.774 3.725zM8.98 48.614c-2.625 0-4.76 2.109-4.76 4.701 0 2.59 2.135 4.697 4.76 4.697 2.623 0 4.758-2.107 4.758-4.697 0-2.592-2.135-4.701-4.759-4.701zm0 8.426c-2.082 0-3.775-1.67-3.775-3.725 0-2.056 1.693-3.73 3.774-3.73 2.082 0 3.775 1.674 3.775 3.73 0 2.054-1.693 3.725-3.775 3.725zm22.163-23.987a.492.492 0 00-.536-.105.495.495 0 00-.161.105l-2.391 2.36a.481.481 0 000 .687c.192.19.504.19.696 0l1.551-1.531v6.42c0 .268.22.486.492.486a.489.489 0 00.492-.486l.001-6.42 1.551 1.53a.494.494 0 00.696 0 .481.481 0 000-.686l-2.391-2.36zm-9.614 3.046l1.551-1.53v6.42c0 .268.22.486.492.486a.489.489 0 00.492-.486v-6.42l1.552 1.53a.494.494 0 00.696 0 .481.481 0 000-.686l-2.391-2.36a.495.495 0 00-.697 0l-2.391 2.359a.481.481 0 000 .687c.192.19.504.19.696 0zm11.657 5.984l-12.006-.001a.49.49 0 00-.492.486c0 .268.22.485.492.485l12.006.001a.49.49 0 00.492-.486.49.49 0 00-.492-.485zM22.429 6.667c0 .268.22.486.492.486h18.97l-4.41 4.351a.481.481 0 000 .687.494.494 0 00.696 0l5.25-5.18a.484.484 0 000-.688l-5.25-5.18a.497.497 0 00-.696 0 .481.481 0 000 .686l4.41 4.352H22.92a.489.489 0 00-.492.486z" ></path>
    <path d="M57.21 45.625h-5.855l.001-22.785c0-.007.005-.014.005-.021 0-.007-.004-.014-.005-.021V15.33a.49.49 0 00-.492-.486l-22.208-.002h0-12.678a.495.495 0 00-.348.141.482.482 0 00-.144.344l-.001 7.486v.004l-.002 22.807H8.79c-4.295 0-7.79 3.449-7.79 7.688C1 57.55 4.495 61 8.79 61h48.42c4.295 0 7.79-3.449 7.79-7.688 0-4.238-3.495-7.687-7.79-7.687zm-18.53-29.81l11.692.002v6.516H38.679v-6.517zm-9.532 0h8.547v6.982c-.001.008-.005.014-.005.021 0 .008.004.014.004.021v6.238L33.74 25.73a.494.494 0 00-.641 0l-3.953 3.348.001-13.262zm-12.678-.001h11.694l-.001 6.517H16.47v-6.517zm0 7.488l11.693.001v6.83a.493.493 0 00.812.369l4.446-3.764 4.444 3.765a.495.495 0 00.813-.368v-6.831h11.694l-.002 22.321-33.902-.002.002-22.321zm40.74 36.726H8.79c-3.752 0-6.805-3.012-6.805-6.715 0-3.704 3.052-6.716 6.805-6.716h48.42c3.752 0 6.805 3.012 6.805 6.715 0 3.704-3.053 6.716-6.805 6.716z" ></path>
    <path d="M57.02 48.614c-2.623 0-4.759 2.109-4.759 4.701 0 2.59 2.136 4.697 4.76 4.697 2.624 0 4.759-2.107 4.759-4.697 0-2.592-2.135-4.701-4.76-4.701zm0 8.426c-2.08 0-3.774-1.67-3.774-3.725 0-2.056 1.693-3.73 3.775-3.73 2.08 0 3.774 1.674 3.774 3.73 0 2.054-1.693 3.725-3.774 3.725zm-12.01-8.426c-2.624 0-4.759 2.109-4.759 4.701 0 2.59 2.135 4.697 4.76 4.697 2.624 0 4.759-2.107 4.759-4.697 0-2.592-2.135-4.701-4.76-4.701zm0 8.426c-2.081 0-3.774-1.67-3.774-3.725 0-2.056 1.693-3.73 3.774-3.73 2.082 0 3.775 1.674 3.775 3.73 0 2.054-1.693 3.725-3.775 3.725zM33 48.614c-2.624 0-4.76 2.109-4.76 4.701 0 2.59 2.136 4.697 4.76 4.697 2.624 0 4.76-2.107 4.76-4.697 0-2.592-2.136-4.701-4.76-4.701zm0 8.426c-2.081 0-3.774-1.67-3.774-3.725 0-2.056 1.693-3.73 3.774-3.73s3.775 1.674 3.775 3.73c0 2.054-1.694 3.725-3.775 3.725zm-12.01-8.426c-2.625 0-4.76 2.109-4.76 4.701 0 2.59 2.135 4.697 4.76 4.697 2.624 0 4.759-2.107 4.759-4.697 0-2.592-2.135-4.701-4.76-4.701zm0 8.426c-2.082 0-3.775-1.67-3.775-3.725 0-2.056 1.693-3.73 3.775-3.73 2.081 0 3.774 1.674 3.774 3.73 0 2.054-1.693 3.725-3.774 3.725zM8.98 48.614c-2.625 0-4.76 2.109-4.76 4.701 0 2.59 2.135 4.697 4.76 4.697 2.623 0 4.758-2.107 4.758-4.697 0-2.592-2.135-4.701-4.759-4.701zm0 8.426c-2.082 0-3.775-1.67-3.775-3.725 0-2.056 1.693-3.73 3.774-3.73 2.082 0 3.775 1.674 3.775 3.73 0 2.054-1.693 3.725-3.775 3.725zm22.163-23.987a.492.492 0 00-.536-.105.495.495 0 00-.161.105l-2.391 2.36a.481.481 0 000 .687c.192.19.504.19.696 0l1.551-1.531v6.42c0 .268.22.486.492.486a.489.489 0 00.492-.486l.001-6.42 1.551 1.53a.494.494 0 00.696 0 .481.481 0 000-.686l-2.391-2.36zm-9.614 3.046l1.551-1.53v6.42c0 .268.22.486.492.486a.489.489 0 00.492-.486v-6.42l1.552 1.53a.494.494 0 00.696 0 .481.481 0 000-.686l-2.391-2.36a.495.495 0 00-.697 0l-2.391 2.359a.481.481 0 000 .687c.192.19.504.19.696 0zm11.657 5.984l-12.006-.001a.49.49 0 00-.492.486c0 .268.22.485.492.485l12.006.001a.49.49 0 00.492-.486.49.49 0 00-.492-.485zM22.429 6.667c0 .268.22.486.492.486h18.97l-4.41 4.351a.481.481 0 000 .687.494.494 0 00.696 0l5.25-5.18a.484.484 0 000-.688l-5.25-5.18a.497.497 0 00-.696 0 .481.481 0 000 .686l4.41 4.352H22.92a.489.489 0 00-.492.486z" ></path>
  </symbol>
  <symbol xmlns="http://www.w3.org/2000/svg" viewBox="0 0 77 51" id="b2b_5">
    <path d="M4.15 1h68.7c.867 0 1.655.354 2.225.925.571.57.925 1.358.925 2.225v43.234a3.14 3.14 0 01-.925 2.225c-.57.57-1.358.925-2.225.925H4.15a3.14 3.14 0 01-2.225-.925A3.14 3.14 0 011 47.384V4.15c0-.867.354-1.655.925-2.225A3.141 3.141 0 014.15 1zm68.7 1.563H4.15a1.58 1.58 0 00-1.12.466 1.583 1.583 0 00-.467 1.121v43.234c0 .435.178.832.467 1.12a1.58 1.58 0 001.12.467h68.7a1.58 1.58 0 001.12-.467 1.58 1.58 0 00.468-1.12V4.15c0-.436-.18-.832-.467-1.12a1.583 1.583 0 00-1.121-.467z" ></path>
    <path d="M7.334 6.552h62.333a3.14 3.14 0 012.225.925c.57.57.925 1.358.925 2.225v32.13a3.14 3.14 0 01-.925 2.225c-.57.57-1.358.925-2.225.925H7.334a3.141 3.141 0 01-2.226-.925 3.141 3.141 0 01-.925-2.225V9.702c0-.867.355-1.655.925-2.225a3.141 3.141 0 012.226-.925zm62.333 1.563H7.334c-.436 0-.833.179-1.121.467a1.583 1.583 0 00-.467 1.12v32.13c0 .435.179.832.467 1.12.288.288.685.467 1.12.467h62.334c.435 0 .832-.179 1.12-.467.288-.288.467-.685.467-1.12V9.702c0-.435-.179-.832-.467-1.12a1.583 1.583 0 00-1.12-.467z" ></path>
    <path d="M4.965 24.986a.781.781 0 000 1.562h7.93l2.578 3.053-.001.001a.781.781 0 001.312-.19l3.18-5.81.518 3.107.769-.128-.77.129a.781.781 0 00.77.652h4.234l3.346 7.529.711-.315-.714.318a.781.781 0 001.457-.076l4.149-9.593 1.127 1.648.644-.44-.645.441a.78.78 0 00.645.34h5.922a.782.782 0 00.744-.541l3.222-7.444 1.632 9.556.769-.131-.77.131a.781.781 0 001.413.313l5.013-6.17 5.36 9.513.68-.382-.68.384a.781.781 0 001.376-.027l3.31-5.794h7.84a.781.781 0 000-1.562h-8.287a.781.781 0 00-.683.393l-2.87 5.025-5.227-9.276a.781.781 0 00-1.308-.148l.003.002-4.69 5.773-1.777-10.405a.78.78 0 00-1.493-.221l.717.31-.714-.308-4.09 9.447h-5.002l-1.662-2.43a.781.781 0 00-1.39.087l.717.311-.714-.308-4.034 9.328-2.8-6.302a.782.782 0 00-.743-.538H21.91l-.771-4.628a.78.78 0 00-1.463-.296l.685.375-.683-.372-3.748 6.848-2.047-2.424a.78.78 0 00-.629-.317h-8.29zm56.307 20.778h6.811a1.2 1.2 0 01.851.353v.001a1.2 1.2 0 010 1.7v.002c-.218.218-.52.354-.85.354h-6.812c-.331 0-.633-.136-.851-.354v-.002a1.2 1.2 0 010-1.7c.218-.219.52-.354.851-.354zm6.811.781h-6.81a.422.422 0 00-.3.723.422.422 0 00.3.124h6.81a.424.424 0 00.3-.723h-.001a.422.422 0 00-.299-.124zm-14.176-.781H57c.33 0 .632.136.851.354a1.201 1.201 0 010 1.7v.002a1.199 1.199 0 01-.85.354h-3.094a1.2 1.2 0 01-.85-.354l-.001-.002a1.2 1.2 0 010-1.7h.001a1.2 1.2 0 01.85-.354zm3.093.781h-3.093a.424.424 0 00-.3.124h.001a.423.423 0 00.299.723H57a.424.424 0 00.299-.723.422.422 0 00-.299-.124zm-10.458-.781h3.093c.332 0 .633.135.852.353v.002a1.2 1.2 0 010 1.7l-.002.001c-.219.218-.52.354-.85.354h-3.093c-.332 0-.633-.136-.852-.354v-.002a1.2 1.2 0 010-1.7h.001c.22-.218.52-.354.85-.354zm3.093.781h-3.093a.422.422 0 00-.3.123v.002a.422.422 0 000 .598.422.422 0 00.3.124h3.093a.421.421 0 00.3-.123v-.001a.421.421 0 000-.599.422.422 0 00-.3-.124z" ></path>
    <path d="M4.15 1h68.7c.867 0 1.655.354 2.225.925.571.57.925 1.358.925 2.225v43.234a3.14 3.14 0 01-.925 2.225c-.57.57-1.358.925-2.225.925H4.15a3.14 3.14 0 01-2.225-.925A3.14 3.14 0 011 47.384V4.15c0-.867.354-1.655.925-2.225A3.141 3.141 0 014.15 1zm68.7 1.563H4.15a1.58 1.58 0 00-1.12.466 1.583 1.583 0 00-.467 1.121v43.234c0 .435.178.832.467 1.12a1.58 1.58 0 001.12.467h68.7a1.58 1.58 0 001.12-.467 1.58 1.58 0 00.468-1.12V4.15c0-.436-.18-.832-.467-1.12a1.583 1.583 0 00-1.121-.467z"  stroke-width=".4"></path>
    <path d="M7.334 6.552h62.333a3.14 3.14 0 012.225.925c.57.57.925 1.358.925 2.225v32.13a3.14 3.14 0 01-.925 2.225c-.57.57-1.358.925-2.225.925H7.334a3.141 3.141 0 01-2.226-.925 3.141 3.141 0 01-.925-2.225V9.702c0-.867.355-1.655.925-2.225a3.141 3.141 0 012.226-.925zm62.333 1.563H7.334c-.436 0-.833.179-1.121.467a1.583 1.583 0 00-.467 1.12v32.13c0 .435.179.832.467 1.12.288.288.685.467 1.12.467h62.334c.435 0 .832-.179 1.12-.467.288-.288.467-.685.467-1.12V9.702c0-.435-.179-.832-.467-1.12a1.583 1.583 0 00-1.12-.467z"  stroke-width=".4"></path>
    <path d="M4.965 24.986a.781.781 0 000 1.562h7.93l2.578 3.053-.001.001a.781.781 0 001.312-.19l3.18-5.81.518 3.107.769-.128-.77.129a.781.781 0 00.77.652h4.234l3.346 7.529.711-.315-.714.318a.781.781 0 001.457-.076l4.149-9.593 1.127 1.648.644-.44-.645.441a.78.78 0 00.645.34h5.922a.782.782 0 00.744-.541l3.222-7.444 1.632 9.556.769-.131-.77.131a.781.781 0 001.413.313l5.013-6.17 5.36 9.513.68-.382-.68.384a.781.781 0 001.376-.027l3.31-5.794h7.84a.781.781 0 000-1.562h-8.287a.781.781 0 00-.683.393l-2.87 5.025-5.227-9.276a.781.781 0 00-1.308-.148l.003.002-4.69 5.773-1.777-10.405a.78.78 0 00-1.493-.221l.717.31-.714-.308-4.09 9.447h-5.002l-1.662-2.43a.781.781 0 00-1.39.087l.717.311-.714-.308-4.034 9.328-2.8-6.302a.782.782 0 00-.743-.538H21.91l-.771-4.628a.78.78 0 00-1.463-.296l.685.375-.683-.372-3.748 6.848-2.047-2.424a.78.78 0 00-.629-.317h-8.29zm56.307 20.778h6.811a1.2 1.2 0 01.851.353v.001a1.2 1.2 0 010 1.7v.002c-.218.218-.52.354-.85.354h-6.812c-.331 0-.633-.136-.851-.354v-.002a1.2 1.2 0 010-1.7c.218-.219.52-.354.851-.354zm6.811.781h-6.81a.422.422 0 00-.3.723h0a.422.422 0 00.3.124h6.81a.422.422 0 00.299-.124h0a.424.424 0 00.001-.598h-.001a.422.422 0 00-.299-.125zm-14.176-.781H57c.33 0 .632.136.851.354h0a1.201 1.201 0 010 1.7v.002a1.199 1.199 0 01-.85.354h-3.094a1.2 1.2 0 01-.85-.354l-.001-.002a1.2 1.2 0 010-1.7h.001a1.2 1.2 0 01.85-.354zm3.093.781h-3.093a.424.424 0 00-.3.124h.001a.423.423 0 00.299.723H57a.423.423 0 00.3-.124h0a.424.424 0 000-.598v-.002a.422.422 0 00-.3-.123zm-10.458-.781h3.093c.332 0 .633.135.852.353v.002a1.2 1.2 0 010 1.7l-.002.001c-.219.218-.52.354-.85.354h-3.093c-.332 0-.633-.136-.852-.354v-.002a1.2 1.2 0 010-1.7h.001c.22-.218.52-.354.85-.354zm3.093.781h-3.093a.422.422 0 00-.3.123v.002a.422.422 0 000 .598h0a.422.422 0 00.3.124h3.093a.421.421 0 00.3-.123v-.001a.421.421 0 000-.599h0a.422.422 0 00-.3-.124z"  stroke-width=".4"></path>
  </symbol>
  <symbol xmlns="http://www.w3.org/2000/svg" viewBox="0 0 51 60" id="b2b_6">
    <path d="M47.338 3.533L45.125.353A.845.845 0 0044.461 0H31.229a.842.842 0 00-.665.353l-2.2 3.167h-5.702L20.456.353A.845.845 0 0019.79 0H6.56a.842.842 0 00-.665.353l-2.2 3.167H.831a.83.83 0 00-.83.833v54.8A.835.835 0 00.83 60h49.338a.83.83 0 00.831-.833v-54.8a.835.835 0 00-.83-.834h-2.832zM31.661 1.667h12.348l1.043 1.493H30.617l1.044-1.493zm-24.67 0H19.34l1.044 1.493H5.948l1.043-1.493zM49.34 5.2v42.527H1.662V5.2h47.677zm0 53.133H1.662v-8.94h47.677v8.94z" ></path>
    <path d="M4.353 44.093h42.294a.83.83 0 00.83-.833V18.513a.835.835 0 00-.83-.833H4.353a.83.83 0 00-.83.833V43.26a.835.835 0 00.83.833zm.83-24.76h40.633v23.094H5.184V19.333z" ></path>
    <path d="M43.125 23.867a.82.82 0 00-.77.513.83.83 0 00-.061.32V34a.835.835 0 00.83.833.83.83 0 00.831-.833v-9.3a.835.835 0 00-.83-.833zM8.939 14.393a3.64 3.64 0 002.025-.62 3.658 3.658 0 001.546-3.758 3.663 3.663 0 00-1-1.872 3.645 3.645 0 00-3.976-.79A3.651 3.651 0 005.898 8.7a3.668 3.668 0 00.458 4.62 3.65 3.65 0 002.583 1.072zm0-5.653a1.99 1.99 0 011.842 1.235 2.005 2.005 0 01-.433 2.18 1.992 1.992 0 01-3.403-1.415c0-.53.21-1.04.584-1.414a1.99 1.99 0 011.41-.586zm9.51 5.12H41.29a.83.83 0 00.825-.833V8.44a.835.835 0 00-.831-.833H18.449a.83.83 0 00-.83.833v4.587a.835.835 0 00.83.833zm22.01-1.667h-2.91v-2.92h2.91v2.92zm-4.572 0h-2.904v-2.92h2.904v2.92zm-4.565 0h-2.904v-2.92h2.904v2.92zm-4.566 0h-2.904v-2.92h2.904v2.92zm-7.476-2.92h2.897v2.92H19.28v-2.92zm-1.25 19.314a.83.83 0 00.585-.247l3.808-3.813a.84.84 0 00-.583-1.436.835.835 0 00-.593.242l-3.802 3.814a.84.84 0 00.585 1.426v.014zM30.265 22.9a.83.83 0 00-1.176 0L14.6 37.433a.835.835 0 000 1.18.803.803 0 00.585.247.83.83 0 00.591-.247L30.265 24.08a.833.833 0 000-1.18zm3.609 3.8a.825.825 0 00-1.17 0L21.692 37.747a.826.826 0 000 1.173.803.803 0 00.585.247.827.827 0 00.591-.247l11.006-11.04a.835.835 0 000-1.18zm1.349 4.893l-5.317 5.334a.834.834 0 000 1.18.85.85 0 00.908.178.824.824 0 00.268-.178l5.317-5.334a.833.833 0 10-1.176-1.173v-.007z" ></path>
  </symbol>
</svg>