<svg width="40" height="40" viewBox="0 0 40 40" fill="none" xmlns="http://www.w3.org/2000/svg">
<path fill-rule="evenodd" clip-rule="evenodd" d="M0 20C0 8.95431 8.95431 0 20 0C31.0457 0 40 8.95431 40 20C40 31.0457 31.0457 40 20 40C8.95431 40 0 31.0457 0 20Z" fill="#0077B5"/>
<path fill-rule="evenodd" clip-rule="evenodd" d="M14.4325 12.3522C14.403 11.017 13.4482 10 11.8977 10C10.3472 10 9.3335 11.017 9.3335 12.3522C9.3335 13.6598 10.3172 14.7061 11.8389 14.7061H11.8678C13.4482 14.7061 14.4325 13.6598 14.4325 12.3522ZM14.1345 16.5649H9.60205V30.183H14.1345V16.5649ZM25.2614 16.2451C28.244 16.2451 30.48 18.1919 30.48 22.3748L30.4798 30.183H25.9475V22.8973C25.9475 21.0673 25.2917 19.8185 23.6509 19.8185C22.3987 19.8185 21.6529 20.6604 21.3253 21.4735C21.2055 21.7649 21.176 22.1709 21.176 22.5779V30.1833H16.6431C16.6431 30.1833 16.7028 17.8431 16.6431 16.5653H21.176V18.4941C21.7776 17.5669 22.855 16.2451 25.2614 16.2451Z" fill="white"/>
</svg>
