<svg width="40" height="40" viewBox="0 0 40 40" fill="none" xmlns="http://www.w3.org/2000/svg">
<path fill-rule="evenodd" clip-rule="evenodd" d="M0 20C0 8.95431 8.95431 0 20 0C31.0457 0 40 8.95431 40 20C40 31.0457 31.0457 40 20 40C8.95431 40 0 31.0457 0 20Z" fill="#4C6C91"/>
<path fill-rule="evenodd" clip-rule="evenodd" d="M21.0464 26.5634C21.0464 26.5634 21.4314 26.5214 21.6286 26.3135C21.8091 26.123 21.8029 25.7635 21.8029 25.7635C21.8029 25.7635 21.7789 24.0848 22.5729 23.837C23.3555 23.5932 24.3603 25.4603 25.4266 26.1783C26.2322 26.7211 26.8436 26.6023 26.8436 26.6023L29.6932 26.5634C29.6932 26.5634 31.1832 26.4733 30.4768 25.3231C30.4183 25.2289 30.0646 24.472 28.3586 22.9172C26.5713 21.2898 26.8112 21.553 28.9628 18.7374C30.2733 17.0229 30.7971 15.9761 30.6333 15.5286C30.4778 15.1004 29.5137 15.2141 29.5137 15.2141L26.3062 15.2336C26.3062 15.2336 26.0683 15.2018 25.892 15.3053C25.7198 15.4067 25.6082 15.6433 25.6082 15.6433C25.6082 15.6433 25.1011 16.9696 24.4239 18.0983C22.9955 20.4786 22.4247 20.6046 22.191 20.4571C21.6474 20.1119 21.783 19.0723 21.783 18.3339C21.783 16.0263 22.1399 15.0646 21.0892 14.8157C20.7407 14.7328 20.484 14.6785 19.5919 14.6692C18.4472 14.658 17.4789 14.6733 16.9301 14.9366C16.5649 15.1117 16.2832 15.503 16.4554 15.5255C16.6672 15.5531 17.1471 15.6525 17.4017 15.9925C17.7304 16.4319 17.7189 17.4172 17.7189 17.4172C17.7189 17.4172 17.9078 20.1334 17.2776 20.4704C16.8456 20.7019 16.2529 20.2297 14.9789 18.0696C14.3268 16.9635 13.8343 15.7406 13.8343 15.7406C13.8343 15.7406 13.7394 15.5122 13.5693 15.3893C13.3637 15.2408 13.0768 15.1947 13.0768 15.1947L10.029 15.2141C10.029 15.2141 9.57091 15.2264 9.40292 15.422C9.25371 15.5951 9.39145 15.9546 9.39145 15.9546C9.39145 15.9546 11.7777 21.4352 14.4802 24.1975C16.9583 26.7293 19.7713 26.5634 19.7713 26.5634H21.0464Z" fill="white"/>
</svg>
