<svg width="20" height="17" viewBox="0 0 20 17" fill="none" xmlns="http://www.w3.org/2000/svg">
<path d="M20 16.3461H0V16.9999H20V16.3461Z" fill="white"/>
<path d="M5.35593 8.30378H2.61016V16.673H5.35593V8.30378Z" fill="white"/>
<path d="M2.27118 16.9999V7.97686H5.69491V16.9999H2.27118ZM2.94915 16.3461H5.01694V8.6307H2.94915V16.3461Z" fill="white"/>
<path d="M17.6271 0.326922H14.8814V16.673H17.6271V0.326922Z" fill="white"/>
<path d="M14.5424 16.9999V0H17.9661V16.9999H14.5424ZM15.2203 16.3461H17.2881V0.653844H15.2203V16.3461Z" fill="white"/>
<path d="M11.4915 5.13274H8.74576V16.6731H11.4915V5.13274Z" fill="white"/>
<path d="M8.40678 17V4.80582H11.8305V17H8.40678ZM9.08474 16.3462H11.1525V5.45966H9.08474V16.3462Z" fill="white"/>
</svg>
