<svg width="61" height="62" viewBox="0 0 61 62" fill="none" xmlns="http://www.w3.org/2000/svg">
<path d="M59.9889 55.9897L55.7463 36.1507C55.3825 34.4789 54.5464 32.981 53.3322 31.8139C53.306 31.7889 53.2809 31.763 53.2546 31.7384C53.1812 31.6678 53.1116 31.6 53.0453 31.5342C52.8465 31.3367 52.6766 31.157 52.5193 30.978C51.2309 29.5519 50.2558 27.7808 49.6993 25.8553C49.3586 24.6824 49.1859 23.4811 49.1859 22.2848C49.1859 18.6098 48.6229 16.1287 48.0268 13.5021C47.3221 10.3972 46.5935 7.1865 46.5935 1.49264C46.5935 1.22058 46.376 1 46.1077 1H46.1075H38.397H38.3969C38.1286 1 37.9111 1.22058 37.9111 1.49264C37.9111 6.07079 37.1453 9.54898 35.6351 11.8305C34.419 13.6677 32.7432 14.639 30.7893 14.6392C30.7889 14.6392 30.7887 14.6392 30.7883 14.6392C30.7009 14.6392 30.6184 14.6392 30.543 14.6329C30.5227 14.6312 30.5022 14.631 30.4819 14.6318C30.3931 14.6359 30.3044 14.6379 30.2157 14.6379C28.2619 14.6379 26.5856 13.6669 25.368 11.8298C24.7809 10.944 24.3068 9.8772 23.9456 8.63672C23.3765 6.68142 23.0889 4.29333 23.0889 1.49289C23.0889 1.32281 23.0039 1.1728 22.8745 1.08437C22.797 1.03116 22.7035 1.00012 22.6028 1.00012H14.892C14.6237 1.00012 14.4062 1.2207 14.4062 1.49277C14.4062 7.18675 13.6797 10.3976 12.9769 13.5026C12.3826 16.1292 11.8211 18.6102 11.8211 22.2851C11.8211 23.4003 11.6717 24.5081 11.3801 25.5837C11.2341 25.6687 11.1348 25.8264 11.1348 26.0093C11.1348 26.0902 11.1558 26.1654 11.1899 26.2327C11.0117 26.7875 10.7971 27.3283 10.5505 27.8511C10.0376 28.938 9.3827 29.9451 8.60942 30.8303C8.36336 30.8545 8.17025 31.0624 8.17025 31.3182C8.17025 31.3188 8.17037 31.3193 8.17037 31.3198C8.0409 31.4555 7.90221 31.5927 7.74954 31.7345C6.48487 32.9193 5.62414 34.4472 5.26063 36.1525L1.01104 55.9898C0.972663 56.1691 1.03679 56.348 1.16528 56.463C1.21374 56.5065 1.27058 56.5416 1.33556 56.563C5.36581 57.8938 9.71548 58.9469 14.2692 59.697C14.3291 59.8301 14.4447 59.9358 14.5958 59.9726C14.6339 59.982 14.6722 59.9864 14.7098 59.9864C14.8484 59.9864 14.9786 59.9257 15.0693 59.8242C15.1857 59.8422 15.3019 59.86 15.4185 59.8776C20.2865 60.6086 25.3297 60.9866 30.4219 61C30.4223 61 30.4226 61 30.423 61H30.4231H30.5031C30.5034 61 30.5035 61 30.5037 61C35.0089 60.994 39.462 60.7017 43.7771 60.1322C44.5937 60.0244 45.4057 59.9078 46.2118 59.7802C50.6742 59.0714 54.9312 58.0757 58.8791 56.8178C59.1423 56.7338 59.404 56.649 59.6645 56.5628C59.9017 56.4839 60.0416 56.2366 59.9889 55.9897ZM44.9023 58.9818C44.7317 59.0065 44.5607 59.0309 44.3894 59.0549C44.253 59.074 44.1165 59.093 43.9798 59.1115C43.8065 59.1349 43.6329 59.1579 43.459 59.1805C43.3239 59.1982 43.1886 59.2155 43.0532 59.2325C42.8769 59.2548 42.7 59.2761 42.5232 59.2973C42.3897 59.3133 42.2564 59.3294 42.1227 59.345C41.9415 59.3659 41.7599 59.386 41.5782 59.4061C41.4484 59.4203 41.3184 59.4347 41.1883 59.4487C41.0003 59.4686 40.8118 59.4875 40.6235 59.5064C40.4991 59.519 40.3747 59.5318 40.2501 59.5439C40.0511 59.563 39.8515 59.5811 39.6518 59.599C39.5373 59.6094 39.423 59.6202 39.3084 59.6302C39.0845 59.6497 38.8603 59.6678 38.6359 59.6856C38.5452 59.693 38.4546 59.7008 38.3637 59.7079C38.0498 59.7322 37.7352 59.7552 37.4202 59.7766C37.4187 59.7768 37.4173 59.7768 37.4158 59.7769C37.0947 59.7988 36.7732 59.819 36.4512 59.8377C36.385 59.8417 36.3187 59.8449 36.2525 59.8486C36.001 59.8627 35.7494 59.8766 35.4972 59.889C35.3897 59.8943 35.282 59.8986 35.1744 59.9035C34.9631 59.9132 34.7519 59.923 34.5401 59.9315C34.4173 59.9364 34.2945 59.9403 34.1716 59.9448C33.9748 59.9519 33.7781 59.959 33.581 59.9651C33.449 59.9691 33.3167 59.9725 33.1845 59.9759C32.9967 59.981 32.8089 59.9859 32.6208 59.99C32.4821 59.9929 32.3434 59.9953 32.2046 59.9977C32.0225 60.0008 31.8404 60.0039 31.6583 60.0061C31.515 60.0079 31.3718 60.009 31.2283 60.0102C31.1215 60.0111 31.0146 60.0116 30.9076 60.0122L30.8159 31.8108H37.7334L45.5372 58.8871C45.4626 58.8985 45.388 58.9102 45.3133 58.9213C45.1766 58.9415 45.0394 58.9618 44.9023 58.9818ZM29.2422 60.0039C29.0567 60.0013 28.8711 59.9981 28.6856 59.9945C28.5511 59.9919 28.4165 59.9893 28.2819 59.9864C28.0924 59.9821 27.9032 59.9769 27.714 59.9715C27.5834 59.9678 27.4529 59.9642 27.3224 59.96C27.1276 59.9537 26.9331 59.9466 26.7385 59.9392C26.6139 59.9345 26.4892 59.9302 26.3647 59.9251C26.16 59.9167 25.9556 59.9071 25.7512 59.8975C25.6374 59.892 25.5236 59.8871 25.4101 59.8815C25.1859 59.8701 24.9619 59.8576 24.7381 59.8448C24.6443 59.8395 24.5503 59.8347 24.4566 59.8291C24.1756 59.8122 23.8951 59.7941 23.6149 59.7752C23.5785 59.7727 23.5419 59.7706 23.5056 59.768C23.184 59.7459 22.8629 59.7223 22.5422 59.6972C22.5039 59.6943 22.4656 59.6907 22.4271 59.6877C22.1503 59.6657 21.8738 59.6429 21.5978 59.6186C21.4984 59.6099 21.399 59.6003 21.2997 59.5912C21.0859 59.5718 20.872 59.5524 20.6588 59.5317C20.5372 59.5199 20.4159 59.5072 20.2944 59.495C20.1032 59.4758 19.9122 59.4564 19.7214 59.436C19.5907 59.4221 19.4603 59.4074 19.3297 59.3929C19.1488 59.3729 18.9678 59.3528 18.7872 59.3318C18.6514 59.316 18.5159 59.2996 18.3803 59.2833C18.2057 59.2622 18.031 59.241 17.8566 59.2191C17.7177 59.2015 17.579 59.1836 17.4404 59.1654C17.27 59.1432 17.0997 59.1208 16.9297 59.0978C16.7888 59.0787 16.6483 59.0592 16.5077 59.0395C16.3402 59.0161 16.1728 58.9921 16.0056 58.9678C15.8642 58.9473 15.7228 58.9265 15.5817 58.9053C15.5082 58.8943 15.435 58.8829 15.3615 58.8718L18.6584 45.4985L22.0331 31.8101H29.844L29.9332 59.2054L29.9358 60.0104C29.8429 60.0097 29.7501 60.0093 29.6574 60.0083C29.519 60.0075 29.3806 60.0058 29.2422 60.0039ZM12.8947 58.4591C12.815 58.4447 12.7356 58.43 12.6562 58.4155C12.1956 58.3305 11.7374 58.2425 11.2817 58.1512C11.2069 58.1363 11.1323 58.121 11.0575 58.1058C10.5988 58.0127 10.1425 57.9168 9.689 57.8173C9.61953 57.802 9.55031 57.7865 9.48108 57.7711C9.02369 57.6697 8.56873 57.5653 8.11705 57.4574C8.05451 57.4425 7.99232 57.4272 7.9299 57.4122C7.47263 57.3018 7.01792 57.1888 6.56672 57.0719C6.51329 57.0581 6.46021 57.0438 6.40689 57.0299C5.94793 56.9101 5.49176 56.7874 5.03947 56.6609C4.99781 56.6492 4.95652 56.6373 4.91498 56.6256C4.45225 56.4953 3.99256 56.3621 3.53711 56.2249C3.51003 56.2168 3.48331 56.2083 3.45635 56.2002C2.99034 56.0593 2.52797 55.9152 2.06998 55.767C2.06488 55.7653 2.05965 55.7638 2.05455 55.7621L6.21075 36.361C6.53199 34.8544 7.29228 33.5048 8.40805 32.4593C8.4802 32.3923 8.54918 32.3261 8.61658 32.2602C8.62509 32.2519 8.63335 32.2435 8.64185 32.2352C8.69856 32.1796 8.7537 32.1242 8.80739 32.0689C8.82002 32.0559 8.83265 32.0429 8.84516 32.0299C8.89799 31.9751 8.94948 31.9202 8.99964 31.8655C9.00742 31.857 9.01555 31.8483 9.02333 31.8398C9.03219 31.8302 9.04142 31.8204 9.05029 31.8107H21.032L14.398 58.7194C14.3576 58.7127 14.317 58.7062 14.2766 58.6995C13.8136 58.6226 13.353 58.5424 12.8947 58.4591ZM38.0976 30.8252H30.3285H30.3284H30.3269H21.6539H9.87737C9.88527 30.815 9.89256 30.804 9.90045 30.7936C10.0067 30.6542 10.1104 30.5126 10.2116 30.3687C10.2331 30.3381 10.2541 30.307 10.2755 30.2761C10.3645 30.1472 10.4516 30.0167 10.5365 29.8845C10.5529 29.8589 10.5698 29.8337 10.586 29.8081C10.681 29.6581 10.7728 29.5058 10.8623 29.3518C10.8825 29.3172 10.9021 29.2823 10.9219 29.2475C11.0044 29.1025 11.085 28.9563 11.1625 28.8082C11.1706 28.7926 11.1791 28.7775 11.1872 28.762C11.2708 28.6009 11.3507 28.4377 11.4283 28.2732C11.4453 28.2372 11.462 28.2012 11.4786 28.1653C11.633 27.8308 11.7748 27.4896 11.9036 27.1428C11.9169 27.1067 11.9303 27.0706 11.9435 27.0343C12.0063 26.8607 12.0667 26.6861 12.1229 26.51C12.1237 26.5071 12.125 26.5044 12.1258 26.5015H30.7886H48.8791C48.88 26.5039 48.8808 26.5064 48.8817 26.5089C48.9371 26.6829 48.9967 26.8552 49.0585 27.0264C49.0732 27.0673 49.0882 27.1079 49.1032 27.1486C49.1667 27.32 49.2324 27.4905 49.3023 27.659C49.3049 27.6655 49.308 27.6718 49.3105 27.6783C49.3789 27.8427 49.451 28.005 49.5254 28.1663C49.542 28.2022 49.5584 28.2383 49.5753 28.2741C49.6531 28.4395 49.7333 28.6036 49.817 28.7653C49.8245 28.78 49.8325 28.7942 49.8401 28.8088C49.9194 28.9608 50.0018 29.1109 50.0864 29.2594C50.1029 29.2885 50.1193 29.3178 50.136 29.3467C50.2277 29.5054 50.3221 29.662 50.4196 29.8164C50.4315 29.835 50.4437 29.8533 50.4556 29.8719C50.5465 30.0143 50.6401 30.1547 50.7359 30.2931C50.7516 30.3158 50.767 30.3388 50.7829 30.3614C50.8867 30.5098 50.9935 30.6556 51.1029 30.7991C51.1095 30.8077 51.1155 30.8168 51.1221 30.8253H38.0976V30.8252ZM12.4854 25.1595C12.5135 25.0296 12.5396 24.8993 12.5639 24.7687C12.5687 24.7431 12.5736 24.7175 12.5782 24.6919C12.603 24.5538 12.6256 24.4155 12.6461 24.2768C12.6539 24.224 12.6604 24.1709 12.6677 24.1179C12.6808 24.0208 12.6936 23.9236 12.7046 23.8261C12.7114 23.7664 12.7175 23.7067 12.7235 23.647C12.7328 23.5545 12.7412 23.462 12.7486 23.3694C12.7535 23.3093 12.7581 23.249 12.7621 23.1888C12.7685 23.0918 12.7735 22.9946 12.7779 22.8974C12.7803 22.8431 12.7833 22.7887 12.7853 22.7342C12.7898 22.5979 12.7922 22.4614 12.7927 22.3247C12.7927 22.3114 12.7934 22.2981 12.7934 22.2847C12.7934 18.7214 13.3429 16.2933 13.9246 13.7225C14.5865 10.7975 15.3343 7.49305 15.3766 1.98504H22.1206C22.1515 4.53669 22.4248 6.75901 22.9366 8.63562C23.3346 10.0953 23.8771 11.3458 24.5621 12.3795C26.3387 15.0602 28.6169 15.6229 30.2154 15.6228C30.2157 15.6228 30.2159 15.6228 30.2162 15.6228C30.2189 15.6228 30.2219 15.6227 30.2247 15.6227C30.2508 15.6227 30.2768 15.6225 30.3029 15.6222V25.5159H12.4038C12.4196 25.4512 12.4336 25.386 12.4484 25.321C12.4608 25.2673 12.4736 25.2136 12.4854 25.1595ZM45.6237 1.98529C45.6663 7.49342 46.416 10.7978 47.0798 13.7229C47.6633 16.2935 48.2143 18.7216 48.2143 22.2848C48.2143 22.4359 48.2175 22.5871 48.2226 22.7382C48.224 22.7804 48.2265 22.8225 48.2283 22.8647C48.2329 22.9733 48.2385 23.0819 48.2459 23.1905C48.2493 23.2419 48.2535 23.2931 48.2575 23.3444C48.2654 23.4459 48.2746 23.5472 48.2849 23.6486C48.2901 23.7003 48.2953 23.7519 48.3011 23.8036C48.3132 23.9096 48.3267 24.0155 48.3411 24.1213C48.3472 24.1661 48.3528 24.2109 48.3592 24.2556C48.3797 24.396 48.4023 24.5362 48.4273 24.6761C48.4289 24.6853 48.4301 24.6946 48.4318 24.7038C48.459 24.8543 48.4889 25.0045 48.521 25.1543C48.5296 25.1947 48.5393 25.235 48.5484 25.2754C48.5664 25.3557 48.5836 25.4363 48.6031 25.5164H31.2742V15.6071C31.3081 15.6047 31.3426 15.6016 31.3771 15.5985C31.3917 15.5973 31.4061 15.5963 31.4208 15.5948C31.4718 15.59 31.5236 15.5845 31.5754 15.5783C31.5963 15.5759 31.6175 15.5729 31.6385 15.5702C31.6708 15.566 31.703 15.5619 31.7356 15.5573C31.7598 15.5537 31.7843 15.5498 31.8089 15.5459C31.8385 15.5413 31.8681 15.5367 31.898 15.5317C31.9239 15.5272 31.95 15.5224 31.9761 15.5176C32.005 15.5123 32.034 15.5069 32.0632 15.5012C32.0898 15.4959 32.1165 15.4904 32.1433 15.4847C32.1722 15.4786 32.2014 15.4723 32.2304 15.4658C32.2578 15.4596 32.285 15.4532 32.3124 15.4467C32.3414 15.4396 32.3706 15.4324 32.4 15.425C32.4275 15.418 32.455 15.411 32.4827 15.4034C32.5123 15.3954 32.542 15.3869 32.5717 15.3784C32.5994 15.3706 32.6268 15.3628 32.6545 15.3544C32.685 15.3453 32.7155 15.3355 32.7461 15.3258C32.7734 15.3172 32.8004 15.3089 32.8277 15.2997C32.8608 15.2888 32.894 15.2768 32.9271 15.2653C32.9521 15.2565 32.977 15.2481 33.002 15.239C33.0582 15.2185 33.1147 15.1968 33.1712 15.1742C33.1965 15.1641 33.2218 15.1532 33.2471 15.1426C33.2805 15.1287 33.3139 15.115 33.3473 15.1005C33.3747 15.0884 33.4022 15.0757 33.4298 15.0631C33.4612 15.0489 33.4927 15.0347 33.524 15.0198C33.5523 15.0064 33.5808 14.9922 33.6091 14.9782C33.6399 14.963 33.6705 14.9479 33.7012 14.9321C33.73 14.9172 33.7589 14.9019 33.7877 14.8865C33.8182 14.8703 33.8486 14.8538 33.8791 14.8369C33.9079 14.8209 33.9369 14.8045 33.9657 14.7879C33.9962 14.7703 34.0268 14.7523 34.0573 14.7339C34.0862 14.7166 34.1151 14.6992 34.1439 14.6813C34.1745 14.6624 34.2052 14.6427 34.2358 14.623C34.2644 14.6045 34.293 14.5861 34.3216 14.5671C34.3532 14.546 34.3846 14.5241 34.4161 14.5023C34.4436 14.4832 34.4711 14.4645 34.4987 14.4448C34.5327 14.4204 34.5668 14.3949 34.6007 14.3695C34.6256 14.351 34.6505 14.333 34.6754 14.314C34.7322 14.2704 34.789 14.2254 34.8456 14.179C34.8669 14.1616 34.8882 14.143 34.9092 14.1252C34.9467 14.0937 34.984 14.0625 35.0213 14.0299C35.0469 14.0075 35.0724 13.9839 35.0979 13.9609C35.1306 13.9315 35.163 13.9024 35.1954 13.8721C35.2221 13.8471 35.2486 13.8212 35.2752 13.7954C35.3063 13.7655 35.3373 13.7357 35.3681 13.7048C35.3952 13.6778 35.4221 13.6501 35.449 13.6224C35.4794 13.5911 35.5096 13.5596 35.5399 13.5273C35.5668 13.4988 35.5934 13.4697 35.6201 13.4403C35.6501 13.4072 35.68 13.3739 35.7099 13.34C35.7365 13.3097 35.7631 13.2793 35.7894 13.2484C35.8193 13.2133 35.8491 13.1775 35.8788 13.1415C35.9048 13.1101 35.9307 13.0787 35.9566 13.0465C35.9867 13.0088 36.0167 12.97 36.0467 12.9312C36.0716 12.899 36.0967 12.8671 36.1215 12.8339C36.1531 12.7919 36.1843 12.7486 36.2155 12.7055C36.2383 12.6739 36.2613 12.6432 36.2839 12.611C36.3247 12.5531 36.365 12.4935 36.4053 12.4337C36.4176 12.4156 36.43 12.3983 36.4421 12.38C38.0056 10.0179 38.8251 6.52242 38.88 1.98566H45.6237V1.98529ZM58.2058 55.9982C58.1102 56.028 58.0138 56.0571 57.9178 56.0866C57.7643 56.134 57.6111 56.1816 57.4567 56.228C57.3458 56.2614 57.2338 56.294 57.1223 56.327C56.9821 56.3687 56.8421 56.4105 56.7012 56.4514C56.5818 56.486 56.4612 56.52 56.3414 56.5541C56.2072 56.5924 56.0733 56.6309 55.9385 56.6686C55.8148 56.7032 55.6901 56.7369 55.5659 56.771C55.4336 56.8072 55.3016 56.8438 55.1688 56.8794C55.0421 56.9134 54.9146 56.9468 54.7874 56.9801C54.6556 57.0149 54.5241 57.0497 54.3917 57.084C54.2632 57.1172 54.1341 57.1495 54.005 57.1823C53.873 57.2156 53.7411 57.2493 53.6083 57.2821C53.4777 57.3147 53.3461 57.3463 53.2148 57.3781C53.0832 57.4101 52.9515 57.4422 52.8193 57.4735C52.6865 57.5051 52.5531 57.5361 52.4197 57.567C52.2878 57.5978 52.1559 57.6285 52.0235 57.6586C51.8893 57.6892 51.7545 57.7191 51.6198 57.749C51.4871 57.7786 51.3543 57.8082 51.2211 57.8372C51.0863 57.8665 50.9509 57.8955 50.8156 57.9243C50.6812 57.9529 50.5469 57.9814 50.4121 58.0094C50.2768 58.0376 50.1411 58.0652 50.0054 58.0928C49.8694 58.1205 49.7335 58.148 49.5972 58.1751C49.462 58.2019 49.3264 58.2284 49.1907 58.2546C49.0526 58.2813 48.9145 58.3081 48.7759 58.3342C48.6406 58.3598 48.5051 58.3849 48.3692 58.41C48.2295 58.4358 48.0896 58.4613 47.9495 58.4864C47.814 58.5108 47.6782 58.5348 47.5422 58.5586C47.4009 58.5833 47.2596 58.6077 47.1178 58.632C46.9823 58.6551 46.8465 58.6779 46.7105 58.7005C46.6421 58.7119 46.5737 58.7229 46.5054 58.734L38.7457 31.8106H51.953C51.9564 31.8144 51.9604 31.8183 51.9638 31.8222C51.9763 31.8356 51.9895 31.8496 52.002 31.8631C52.0451 31.9095 52.0897 31.9565 52.1356 32.0042C52.1538 32.0232 52.1728 32.0426 52.1915 32.062C52.2357 32.1073 52.2815 32.1537 52.3286 32.2008C52.3471 32.2192 52.3654 32.2377 52.3843 32.2564C52.4498 32.3212 52.5175 32.3873 52.5894 32.4566C52.5898 32.4571 52.5902 32.4574 52.5907 32.4579C52.6056 32.4718 52.6197 32.4865 52.6345 32.5007C53.7251 33.5395 54.4728 34.8734 54.7969 36.3614L58.9459 55.7626C58.7006 55.842 58.4538 55.9206 58.2058 55.9982Z" fill="#53C6F1" stroke="#53C6F1" stroke-width="0.7"/>
</svg>
