<svg width="62" height="62" viewBox="0 0 62 62" fill="none" xmlns="http://www.w3.org/2000/svg">
<path d="M54.7408 35.6842C53.8337 35.1714 53.2384 34.2126 53.1245 33.1263H53.4401C53.8539 33.1263 54.1898 32.7905 54.1898 32.3766V17.9597C54.1898 16.4604 52.9701 15.2414 51.4715 15.2414H45.5326C44.0332 15.2414 42.8143 16.4611 42.8143 17.9597V32.3766C42.8143 32.7905 43.1501 33.1263 43.5639 33.1263H43.8795C43.7633 34.2096 43.1546 35.1759 42.2265 35.7052C37.9511 38.1409 35.505 42.7056 35.8423 47.619C36.1527 52.138 38.9947 56.2394 43.1321 58.2021V60.1925C43.1321 60.6063 43.468 60.9421 43.8818 60.9421H53.1237C53.5376 60.9421 53.8734 60.6063 53.8734 60.1925V58.2133C58.337 56.1278 61.194 51.6717 61.194 46.7261C61.1925 42.1651 58.7201 37.934 54.7408 35.6842ZM54.0024 36.9894C57.1982 38.7961 59.2853 42.0512 59.6354 45.6548H49.2509V33.1263H51.6252C51.7466 34.7539 52.6275 36.212 54.0024 36.9894ZM44.3121 17.9597C44.3121 17.2872 44.8586 16.7407 45.5311 16.7407H51.47C52.1424 16.7407 52.6889 17.2872 52.6889 17.9597V31.627H44.3121V17.9597ZM42.9679 37.0081C44.3616 36.2135 45.2552 34.7486 45.3774 33.1263H47.7516V45.6548H37.3656C37.706 42.0549 39.7443 38.8441 42.9679 37.0081ZM52.8314 57.0349C52.5532 57.1518 52.3726 57.4247 52.3726 57.7261V59.4428H44.63V57.7178C44.63 57.4179 44.4508 57.1458 44.1749 57.0281C40.3036 55.3766 37.6198 51.6432 37.3364 47.5163C37.3282 47.3948 37.3289 47.2749 37.3244 47.1542H47.7516V52.4259C47.7516 52.8397 48.0875 53.1755 48.5013 53.1755C48.9151 53.1755 49.2509 52.8397 49.2509 52.4259V47.1542H59.6774C59.5125 51.4888 56.8669 55.3376 52.8314 57.0349Z" fill="#53C6F1"/>
<path d="M17.9866 7.03483C18.4004 7.03483 18.7363 6.69898 18.7363 6.28516V5.39755C18.7363 4.98373 18.4004 4.64788 17.9866 4.64788C17.5728 4.64788 17.2369 4.98373 17.2369 5.39755V6.28516C17.2369 6.69898 17.5728 7.03483 17.9866 7.03483Z" fill="#53C6F1"/>
<path d="M3.98147 58.5703C4.24086 59.9782 5.46807 61 6.89995 61H29.0745C30.5064 61 31.7336 59.9782 32.002 58.5021L34.8185 27.4672C35.3065 24.8163 34.5973 22.1085 32.8731 20.0372C31.1488 17.9658 28.6134 16.7783 25.9184 16.7783H24.1926V15.0668C24.1926 13.8636 23.464 12.8306 22.4249 12.3695V8.94427H25.0757C25.6013 12.5457 29.8654 15.3622 35.0329 15.3622C40.5542 15.3622 45.0455 12.1469 45.0455 8.1946C45.0455 4.24233 40.5542 1.02624 35.0336 1.02624C29.8661 1.02624 25.602 3.84276 25.0765 7.44418H22.4257V3.92372C22.4257 2.31118 21.0598 1 19.3805 1H16.5955C14.9162 1 13.5503 2.31193 13.5503 3.92372V7.44418H11.3852C10.9714 7.44418 10.6356 7.78003 10.6356 8.19385C10.6356 8.60767 10.9714 8.94352 11.3852 8.94352H13.5503V12.395C12.539 12.8673 11.832 13.8824 11.832 15.0661V16.7776H10.0561C7.361 16.7776 4.8256 17.9651 3.10136 20.0364C1.37711 22.1078 0.667174 24.8156 1.14621 27.3982L3.98147 58.5703ZM35.0336 2.52558C39.7281 2.52558 43.5469 5.06847 43.5469 8.19385C43.5469 11.3192 39.7281 13.8621 35.0336 13.8621C30.3392 13.8621 26.5204 11.3192 26.5204 8.19385C26.5204 5.06847 30.3384 2.52558 35.0336 2.52558ZM16.5947 2.49934H19.3797C20.2321 2.49934 20.9256 3.13881 20.9256 3.92372V12.1094H15.0481V3.92372C15.0481 3.13806 15.7423 2.49934 16.5947 2.49934ZM13.3306 15.0661C13.3306 14.2624 13.9911 13.6087 14.803 13.6087H21.2209C22.0328 13.6087 22.6933 14.2624 22.6933 15.0661V16.7776H13.3306V15.0661ZM4.25286 20.996C5.69148 19.268 7.8063 18.2769 10.0553 18.2769H25.9184C28.1674 18.2769 30.2822 19.268 31.7208 20.996C33.1595 22.724 33.7509 24.9835 33.3349 27.2633L30.5184 58.2982C30.3902 58.9954 29.7829 59.5007 29.0745 59.5007H6.89995C6.19151 59.5007 5.58427 58.9954 5.46583 58.3664L2.62982 27.195C2.22274 24.9835 2.81423 22.724 4.25286 20.996Z" fill="#53C6F1"/>
<path d="M27.8667 37.374C27.4529 37.3336 27.0885 37.6387 27.0511 38.051L25.7706 51.758C25.7324 52.1703 26.0353 52.5354 26.4476 52.5737C26.4708 52.5759 26.4948 52.5766 26.518 52.5766C26.9011 52.5766 27.2272 52.285 27.264 51.8967L28.5444 38.1897C28.5819 37.7781 28.279 37.413 27.8667 37.374Z" fill="#53C6F1"/>
<path d="M24.2457 23.7105C25.3747 23.7105 26.4362 24.2083 27.1589 25.0757C27.8808 25.943 28.1785 27.0781 27.9648 28.2543L27.44 33.8723C27.4018 34.2846 27.7047 34.6497 28.117 34.688C28.1402 34.6902 28.1642 34.691 28.1875 34.691C28.5705 34.691 28.8967 34.3993 28.9334 34.011L29.4492 28.4597C29.734 26.9101 29.3202 25.3268 28.3112 24.1161C27.3028 22.9054 25.8215 22.2112 24.2457 22.2112C23.8319 22.2112 23.496 22.547 23.496 22.9608C23.496 23.3747 23.8319 23.7105 24.2457 23.7105Z" fill="#53C6F1"/>
<path d="M54.7408 35.6842C53.8337 35.1714 53.2384 34.2126 53.1245 33.1263H53.4401C53.8539 33.1263 54.1898 32.7905 54.1898 32.3766V17.9597C54.1898 16.4604 52.9701 15.2414 51.4715 15.2414H45.5326C44.0332 15.2414 42.8143 16.4611 42.8143 17.9597V32.3766C42.8143 32.7905 43.1501 33.1263 43.5639 33.1263H43.8795C43.7633 34.2096 43.1546 35.1759 42.2265 35.7052C37.9511 38.1409 35.505 42.7056 35.8423 47.619C36.1527 52.138 38.9947 56.2394 43.1321 58.2021V60.1925C43.1321 60.6063 43.468 60.9421 43.8818 60.9421H53.1237C53.5376 60.9421 53.8734 60.6063 53.8734 60.1925V58.2133C58.337 56.1278 61.194 51.6717 61.194 46.7261C61.1925 42.1651 58.7201 37.934 54.7408 35.6842ZM54.0024 36.9894C57.1982 38.7961 59.2853 42.0512 59.6354 45.6548H49.2509V33.1263H51.6252C51.7466 34.7539 52.6275 36.212 54.0024 36.9894ZM44.3121 17.9597C44.3121 17.2872 44.8586 16.7407 45.5311 16.7407H51.47C52.1424 16.7407 52.6889 17.2872 52.6889 17.9597V31.627H44.3121V17.9597ZM42.9679 37.0081C44.3616 36.2135 45.2552 34.7486 45.3774 33.1263H47.7516V45.6548H37.3656C37.706 42.0549 39.7443 38.8441 42.9679 37.0081ZM52.8314 57.0349C52.5532 57.1518 52.3726 57.4247 52.3726 57.7261V59.4428H44.63V57.7178C44.63 57.4179 44.4508 57.1458 44.1749 57.0281C40.3036 55.3766 37.6198 51.6432 37.3364 47.5163C37.3282 47.3948 37.3289 47.2749 37.3244 47.1542H47.7516V52.4259C47.7516 52.8397 48.0875 53.1755 48.5013 53.1755C48.9151 53.1755 49.2509 52.8397 49.2509 52.4259V47.1542H59.6774C59.5125 51.4888 56.8669 55.3376 52.8314 57.0349Z" stroke="#53C6F1" stroke-width="0.4"/>
<path d="M17.9866 7.03483C18.4004 7.03483 18.7363 6.69898 18.7363 6.28516V5.39755C18.7363 4.98373 18.4004 4.64788 17.9866 4.64788C17.5728 4.64788 17.2369 4.98373 17.2369 5.39755V6.28516C17.2369 6.69898 17.5728 7.03483 17.9866 7.03483Z" stroke="#53C6F1" stroke-width="0.4"/>
<path d="M3.98147 58.5703C4.24086 59.9782 5.46807 61 6.89995 61H29.0745C30.5064 61 31.7336 59.9782 32.002 58.5021L34.8185 27.4672C35.3065 24.8163 34.5973 22.1085 32.8731 20.0372C31.1488 17.9658 28.6134 16.7783 25.9184 16.7783H24.1926V15.0668C24.1926 13.8636 23.464 12.8306 22.4249 12.3695V8.94427H25.0757C25.6013 12.5457 29.8654 15.3622 35.0329 15.3622C40.5542 15.3622 45.0455 12.1469 45.0455 8.1946C45.0455 4.24233 40.5542 1.02624 35.0336 1.02624C29.8661 1.02624 25.602 3.84276 25.0765 7.44418H22.4257V3.92372C22.4257 2.31118 21.0598 1 19.3805 1H16.5955C14.9162 1 13.5503 2.31193 13.5503 3.92372V7.44418H11.3852C10.9714 7.44418 10.6356 7.78003 10.6356 8.19385C10.6356 8.60767 10.9714 8.94352 11.3852 8.94352H13.5503V12.395C12.539 12.8673 11.832 13.8824 11.832 15.0661V16.7776H10.0561C7.361 16.7776 4.8256 17.9651 3.10136 20.0364C1.37711 22.1078 0.667174 24.8156 1.14621 27.3982L3.98147 58.5703ZM35.0336 2.52558C39.7281 2.52558 43.5469 5.06847 43.5469 8.19385C43.5469 11.3192 39.7281 13.8621 35.0336 13.8621C30.3392 13.8621 26.5204 11.3192 26.5204 8.19385C26.5204 5.06847 30.3384 2.52558 35.0336 2.52558ZM16.5947 2.49934H19.3797C20.2321 2.49934 20.9256 3.13881 20.9256 3.92372V12.1094H15.0481V3.92372C15.0481 3.13806 15.7423 2.49934 16.5947 2.49934ZM13.3306 15.0661C13.3306 14.2624 13.9911 13.6087 14.803 13.6087H21.2209C22.0328 13.6087 22.6933 14.2624 22.6933 15.0661V16.7776H13.3306V15.0661ZM4.25286 20.996C5.69148 19.268 7.8063 18.2769 10.0553 18.2769H25.9184C28.1674 18.2769 30.2822 19.268 31.7208 20.996C33.1595 22.724 33.7509 24.9835 33.3349 27.2633L30.5184 58.2982C30.3902 58.9954 29.7829 59.5007 29.0745 59.5007H6.89995C6.19151 59.5007 5.58427 58.9954 5.46583 58.3664L2.62982 27.195C2.22274 24.9835 2.81423 22.724 4.25286 20.996Z" stroke="#53C6F1" stroke-width="0.4"/>
<path d="M27.8667 37.374C27.4529 37.3336 27.0885 37.6387 27.0511 38.051L25.7706 51.758C25.7324 52.1703 26.0353 52.5354 26.4476 52.5737C26.4708 52.5759 26.4948 52.5766 26.518 52.5766C26.9011 52.5766 27.2272 52.285 27.264 51.8967L28.5444 38.1897C28.5819 37.7781 28.279 37.413 27.8667 37.374Z" stroke="#53C6F1" stroke-width="0.4"/>
<path d="M24.2457 23.7105C25.3747 23.7105 26.4362 24.2083 27.1589 25.0757C27.8808 25.943 28.1785 27.0781 27.9648 28.2543L27.44 33.8723C27.4018 34.2846 27.7047 34.6497 28.117 34.688C28.1402 34.6902 28.1642 34.691 28.1875 34.691C28.5705 34.691 28.8967 34.3993 28.9334 34.011L29.4492 28.4597C29.734 26.9101 29.3202 25.3268 28.3112 24.1161C27.3028 22.9054 25.8215 22.2112 24.2457 22.2112C23.8319 22.2112 23.496 22.547 23.496 22.9608C23.496 23.3747 23.8319 23.7105 24.2457 23.7105Z" stroke="#53C6F1" stroke-width="0.4"/>
</svg>
