<svg width="53" height="62" viewBox="0 0 53 62" fill="none" xmlns="http://www.w3.org/2000/svg">
<path d="M52.0665 16.1829L39.6189 3.73536C39.0201 2.56987 36.3591 1.74875 31.6857 1.2905L31.2949 1.252C29.6494 1.0895 28.7429 1 26.6248 1C24.5064 1 23.5999 1.0895 21.9542 1.25212L21.5638 1.29062C16.8911 1.749 14.2303 2.56999 13.6309 3.73511L1.18305 16.1829C1.04705 16.319 0.981179 16.5103 1.00468 16.7012C1.02818 16.8922 1.13843 17.0616 1.30343 17.1608L7.55339 20.9108C7.65239 20.9701 7.76364 20.9997 7.87489 20.9997C7.98614 20.9997 8.09751 20.9701 8.19638 20.9108L13.4999 17.7288V35.3748C13.4999 35.72 13.7797 35.9998 14.1248 35.9998H39.1247C39.4699 35.9998 39.7497 35.72 39.7497 35.3748V17.7288L45.0532 20.9109C45.152 20.9702 45.2634 20.9999 45.3747 20.9999C45.4859 20.9999 45.5973 20.9702 45.6961 20.9109L51.9461 17.1609C52.1109 17.0619 52.2214 16.8924 52.245 16.7013C52.2684 16.5103 52.2026 16.319 52.0665 16.1829ZM13.4999 16.271L7.87489 19.646L2.63292 16.5008L13.4999 5.63385V16.271ZM26.6248 2.24999C28.6014 2.24999 29.4953 2.33074 30.9872 2.47774C30.9824 2.64161 30.9762 2.80274 30.969 2.96174C30.9672 3.00124 30.9654 3.04011 30.9634 3.07936C30.956 3.22561 30.9489 3.37074 30.9399 3.51298C30.9357 3.57961 30.9306 3.64398 30.9261 3.70986C30.9189 3.81011 30.9125 3.91111 30.9045 4.00936C30.8984 4.08311 30.8915 4.15448 30.885 4.2271C30.8771 4.31473 30.8697 4.4031 30.8614 4.4891C30.8536 4.56385 30.8452 4.63623 30.8374 4.7096C30.8285 4.7906 30.8196 4.87235 30.8101 4.95185C30.8015 5.0256 30.7915 5.0971 30.7816 5.16947C30.7715 5.24585 30.7617 5.3231 30.751 5.39797C30.7407 5.46935 30.7295 5.5386 30.7186 5.60872C30.7072 5.68185 30.696 5.7556 30.6841 5.82722C30.6725 5.89634 30.6602 5.96359 30.6477 6.03147C30.6351 6.10109 30.6229 6.17097 30.6095 6.23909C30.5965 6.30597 30.5826 6.37109 30.5691 6.43659C30.5552 6.50297 30.5414 6.56947 30.527 6.63434C30.5127 6.69871 30.4976 6.76134 30.4825 6.82434C30.4677 6.88734 30.4529 6.95059 30.4371 7.01221C30.4214 7.07396 30.405 7.13409 30.3885 7.19434C30.3721 7.25459 30.3557 7.31484 30.339 7.37371C30.322 7.43246 30.3046 7.48983 30.2867 7.54721C30.2689 7.60458 30.2516 7.66183 30.2331 7.71783C30.2149 7.77371 30.1956 7.82846 30.177 7.88296C30.1584 7.93758 30.139 7.99183 30.1194 8.04496C30.0999 8.09808 30.08 8.14996 30.0595 8.2017C30.0392 8.25345 30.0187 8.3047 29.998 8.35508C29.977 8.4052 29.9558 8.45433 29.9343 8.50308C29.9125 8.55208 29.8907 8.60058 29.8687 8.6482C29.8464 8.69533 29.8245 8.74183 29.8015 8.78758C29.7783 8.8337 29.7554 8.8792 29.7316 8.92383C29.7081 8.9682 29.6845 9.01195 29.6608 9.05495C29.6365 9.09832 29.6118 9.14082 29.5869 9.1827C29.5624 9.22407 29.5374 9.26495 29.5121 9.30495C29.4865 9.34557 29.4604 9.38532 29.434 9.42457C29.4084 9.46295 29.3823 9.50095 29.3559 9.53782C29.3289 9.57582 29.3013 9.6127 29.2736 9.6492C29.2468 9.68457 29.2195 9.7197 29.1924 9.7537C29.1638 9.78882 29.1349 9.82282 29.106 9.85644C29.0776 9.88894 29.0496 9.92132 29.0208 9.95232C28.991 9.98482 28.9605 10.0158 28.9296 10.0468C28.9006 10.0762 28.8713 10.1057 28.8415 10.1337C28.81 10.1634 28.7778 10.1917 28.7454 10.2199C28.7155 10.2463 28.6855 10.2729 28.6543 10.2979C28.621 10.3249 28.5874 10.3503 28.5534 10.3758C28.5221 10.3992 28.4911 10.4229 28.4596 10.4451C28.4248 10.4693 28.3893 10.4917 28.3535 10.5143C28.3214 10.5348 28.2894 10.5558 28.257 10.5749C28.2206 10.5963 28.183 10.6158 28.1458 10.6357C28.1129 10.6532 28.0805 10.6713 28.0469 10.6876C28.0084 10.7062 27.969 10.7228 27.9298 10.7397C27.8959 10.7542 27.863 10.7696 27.8286 10.7829C27.7884 10.7987 27.7466 10.8123 27.7054 10.8264C27.6715 10.8381 27.6378 10.8506 27.6035 10.8609C27.5601 10.8739 27.516 10.8846 27.472 10.8958C27.4381 10.9044 27.4046 10.9142 27.3703 10.9218C27.3233 10.9322 27.2751 10.9398 27.2271 10.9479C27.1946 10.9536 27.1623 10.9606 27.1294 10.9653C27.0748 10.9731 27.0191 10.9778 26.9636 10.9829C26.936 10.9856 26.9089 10.9896 26.881 10.9914C26.7969 10.9969 26.7114 10.9999 26.6248 10.9999C26.5381 10.9999 26.4526 10.9969 26.3685 10.9911C26.3405 10.9892 26.3138 10.9852 26.2859 10.9826C26.2305 10.9774 26.1745 10.9726 26.12 10.9649C26.087 10.9602 26.0549 10.9533 26.0223 10.9477C25.9744 10.9394 25.9262 10.9318 25.8792 10.9214C25.8448 10.9139 25.8114 10.9041 25.7775 10.8954C25.7335 10.8842 25.6892 10.8737 25.646 10.8606C25.6115 10.8502 25.5782 10.8376 25.5442 10.8261C25.5028 10.8119 25.4612 10.7984 25.4205 10.7826C25.3865 10.7696 25.3533 10.7539 25.3198 10.7394C25.2807 10.7224 25.2412 10.7058 25.2027 10.6872C25.1693 10.6709 25.1368 10.6528 25.1039 10.6353C25.0667 10.6154 25.0292 10.5961 24.9925 10.5746C24.96 10.5554 24.9283 10.5346 24.8963 10.5142C24.8607 10.4914 24.8249 10.4689 24.79 10.4447C24.7584 10.4227 24.7275 10.3991 24.6965 10.3757C24.6627 10.3501 24.6285 10.3247 24.5953 10.2976C24.5647 10.2726 24.5347 10.2461 24.5045 10.2197C24.4723 10.1913 24.4399 10.1631 24.4083 10.1333C24.3787 10.1053 24.3495 10.0761 24.3205 10.0467C24.2898 10.0156 24.259 9.98444 24.229 9.95194C24.2004 9.92094 24.1724 9.88882 24.1445 9.85657C24.1153 9.82269 24.086 9.78857 24.0574 9.7532C24.03 9.71932 24.0032 9.68445 23.9765 9.64932C23.9485 9.61257 23.9208 9.57545 23.8934 9.5372C23.8673 9.50057 23.8415 9.46295 23.816 9.42495C23.7895 9.38545 23.7632 9.34532 23.7373 9.3042C23.7123 9.26457 23.6877 9.22407 23.6633 9.18307C23.6382 9.14082 23.6134 9.09782 23.5889 9.0542C23.5652 9.01157 23.5417 8.96833 23.5185 8.92445C23.4948 8.87933 23.4713 8.83333 23.4482 8.7867C23.4257 8.74133 23.4034 8.69533 23.3815 8.64858C23.359 8.60058 23.337 8.5517 23.3153 8.5022C23.294 8.45395 23.2729 8.40533 23.2523 8.3557C23.2312 8.30483 23.2105 8.25283 23.1899 8.20045C23.1699 8.14945 23.1502 8.09821 23.1308 8.04583C23.1108 7.99183 23.0915 7.93658 23.0722 7.88121C23.0537 7.82758 23.035 7.77396 23.0172 7.71908C22.9985 7.66208 22.9805 7.60371 22.9624 7.54508C22.9452 7.48871 22.9279 7.43246 22.9112 7.37484C22.8938 7.31484 22.8772 7.25321 22.8604 7.19171C22.8445 7.13284 22.8284 7.07421 22.8132 7.01396C22.797 6.95071 22.7817 6.88584 22.7663 6.82109C22.7517 6.75959 22.7369 6.69846 22.7228 6.63571C22.7079 6.56921 22.6939 6.50097 22.6798 6.43284C22.6665 6.36909 22.653 6.30572 22.6404 6.24072C22.6268 6.17059 22.614 6.09872 22.6012 6.02722C22.5893 5.96122 22.5772 5.89584 22.5658 5.8286C22.5534 5.75485 22.542 5.6791 22.5303 5.60385C22.5198 5.53585 22.5089 5.4686 22.4989 5.39935C22.4878 5.32185 22.4777 5.24197 22.4673 5.16285C22.4582 5.0931 22.4485 5.02422 22.4399 4.95323C22.4299 4.87035 22.4209 4.78498 22.4117 4.70048C22.404 4.63048 22.3959 4.56173 22.3888 4.4906C22.3798 4.4006 22.3719 4.30798 22.3638 4.2161C22.3577 4.14748 22.3509 4.08011 22.3454 4.01048C22.337 3.90636 22.3299 3.79948 22.3225 3.69311C22.3184 3.63323 22.3137 3.57473 22.3098 3.51411C22.3003 3.36261 22.2922 3.20811 22.2848 3.05199C22.2839 3.03199 22.2827 3.01274 22.2818 2.99261C22.2742 2.82374 22.2678 2.65211 22.2627 2.47799C23.7544 2.33074 24.6484 2.24999 26.6248 2.24999ZM38.4997 34.7498H14.7498V4.28198C14.9111 3.92861 16.6362 3.09636 21.0158 2.60499C21.0193 2.71236 21.0243 2.81724 21.0288 2.92286C21.0314 2.98599 21.0336 3.05024 21.0367 3.11274C21.0447 3.27786 21.0541 3.44036 21.0644 3.60111C21.0656 3.61798 21.0663 3.63548 21.0673 3.65223C21.0791 3.82961 21.0924 4.00398 21.1069 4.17598C21.1116 4.22973 21.1171 4.28173 21.1219 4.33485C21.1326 4.45185 21.1433 4.56885 21.1554 4.68335C21.1622 4.74773 21.1699 4.81048 21.1771 4.8741C21.1884 4.97498 21.1999 5.07597 21.2124 5.17485C21.2209 5.24197 21.2303 5.30747 21.2392 5.3736C21.2518 5.46647 21.2644 5.5591 21.2781 5.6501C21.2881 5.71722 21.2988 5.78309 21.3093 5.84922C21.3233 5.93659 21.3374 6.02372 21.3523 6.10947C21.3638 6.17534 21.3758 6.24022 21.3878 6.30497C21.4033 6.38834 21.4191 6.47122 21.4354 6.55284C21.4483 6.61659 21.4614 6.67959 21.4747 6.74221C21.4917 6.82234 21.5092 6.90171 21.5272 6.98009C21.5412 7.04134 21.5554 7.10221 21.5701 7.16246C21.5888 7.23971 21.6082 7.31583 21.6278 7.39133C21.6431 7.44971 21.6582 7.50796 21.6739 7.56533C21.6946 7.64046 21.7159 7.71396 21.7374 7.78721C21.7536 7.84196 21.7696 7.89708 21.7862 7.95096C21.809 8.02483 21.8328 8.09683 21.8567 8.1687C21.8734 8.21908 21.8898 8.27008 21.9069 8.31945C21.9328 8.39383 21.9598 8.46608 21.9868 8.53833C22.0033 8.58245 22.0193 8.62745 22.0362 8.6707C22.0673 8.75045 22.0997 8.82745 22.132 8.90445C22.1462 8.93783 22.1595 8.97233 22.1739 9.00507C22.2214 9.11395 22.2702 9.2202 22.3204 9.3232C23.2095 11.1438 24.5379 12.1232 26.2725 12.2384C26.388 12.2462 26.5054 12.2499 26.6246 12.2499C28.5324 12.2499 29.9805 11.2652 30.929 9.32307C30.979 9.22032 31.0276 9.11445 31.075 9.00595C31.0909 8.96957 31.1057 8.93133 31.1214 8.89433C31.1524 8.82095 31.183 8.7477 31.2126 8.67183C31.2305 8.6262 31.2472 8.57858 31.2646 8.53208C31.2907 8.46208 31.3169 8.39233 31.3419 8.32045C31.3596 8.26945 31.3762 8.21683 31.3937 8.16483C31.4171 8.09446 31.4402 8.02421 31.4626 7.95208C31.4797 7.89696 31.4962 7.84046 31.5124 7.78433C31.5337 7.71258 31.5547 7.64046 31.5746 7.56683C31.591 7.50821 31.6066 7.44846 31.6222 7.38859C31.6411 7.31471 31.6604 7.24009 31.6785 7.16446C31.6934 7.10284 31.708 7.04046 31.7227 6.97771C31.7404 6.90084 31.7571 6.82296 31.7742 6.74434C31.7875 6.68034 31.8012 6.61609 31.814 6.55097C31.8301 6.47059 31.8456 6.38909 31.8609 6.30709C31.8734 6.24109 31.8852 6.17497 31.897 6.10784C31.9116 6.02359 31.9256 5.93784 31.9394 5.85184C31.9501 5.78434 31.9614 5.71722 31.9716 5.64872C31.9846 5.55972 31.997 5.46885 32.0096 5.37797C32.0189 5.30985 32.0282 5.24222 32.0374 5.1731C32.0495 5.07722 32.0607 4.97935 32.0715 4.8816C32.0791 4.81498 32.0871 4.74923 32.0944 4.68173C32.1059 4.57198 32.1161 4.45973 32.1264 4.3476C32.1317 4.28973 32.1377 4.23298 32.1426 4.17448C32.1571 4.00348 32.1707 3.83011 32.182 3.65386C32.1841 3.62398 32.1854 3.59298 32.1872 3.56286C32.1966 3.41523 32.2055 3.26636 32.2127 3.11511C32.216 3.04486 32.2185 2.97286 32.2214 2.90186C32.2252 2.80299 32.23 2.70524 32.2336 2.60487C36.6132 3.09624 38.3384 3.92848 38.4997 4.28185V34.7498ZM45.3747 19.646L39.7497 16.271V5.63385L50.6169 16.5008L45.3747 19.646Z" fill="#53C6F1"/>
<path d="M40.6273 48.9734C40.4768 47.9202 40.3476 47.1218 40.2336 46.4171C39.9114 44.4269 39.7497 43.4279 39.7497 40.3748V39.1248C39.7497 38.7795 39.4699 38.4998 39.1247 38.4998H27.8875C27.887 38.4998 27.8868 38.4998 27.8864 38.4998H25.3633C25.3629 38.4998 25.3627 38.4998 25.3623 38.4998H14.1248C13.7797 38.4998 13.4999 38.7795 13.4999 39.1248V40.3748C13.4999 43.428 13.3382 44.427 13.016 46.4175C12.902 47.1221 12.7727 47.9205 12.6224 48.9734L11.0062 60.2863C10.9806 60.4656 11.0341 60.6473 11.1527 60.7841C11.2715 60.921 11.4437 60.9996 11.6249 60.9996H20.3748C20.6018 60.9996 20.8109 60.8766 20.9212 60.6781L26.5625 50.5237L31.0537 60.6287C31.1541 60.8545 31.3781 61 31.6247 61H41.6247C41.8058 61 41.9781 60.9214 42.0968 60.7845C42.2152 60.6473 42.2689 60.4656 42.2434 60.2866L40.6273 48.9734ZM32.0309 59.7496L27.1958 48.8711C27.0994 48.6547 26.8893 48.5108 26.6523 48.5003C26.4165 48.492 26.1931 48.614 26.0781 48.8212L20.0071 59.7496H12.3455L13.8597 49.1502C14.0085 48.1087 14.1367 47.3162 14.25 46.6171C14.5828 44.5605 14.75 43.5282 14.75 40.3748V39.7498H24.4517L22.2945 45.1426C22.1664 45.4631 22.3223 45.8272 22.6428 45.9551C22.7189 45.9856 22.7974 45.9998 22.8747 45.9998C23.1227 45.9998 23.3574 45.8513 23.4552 45.6068L25.798 39.7498H27.4516L29.7944 45.6068C29.8923 45.851 30.1269 45.9998 30.3751 45.9998C30.4522 45.9998 30.5309 45.9856 30.6069 45.9551C30.9272 45.8272 31.0834 45.4631 30.955 45.1426L28.798 39.7498H38.4997V40.3748C38.4997 43.5284 38.6668 44.5605 38.9996 46.617C39.1128 47.3165 39.2411 48.109 39.3898 49.1506L40.9041 59.7496H32.0309Z" fill="#53C6F1"/>
<path d="M52.0665 16.1829L39.6189 3.73536C39.0201 2.56987 36.3591 1.74875 31.6857 1.2905L31.2949 1.252C29.6494 1.0895 28.7429 1 26.6248 1C24.5064 1 23.5999 1.0895 21.9542 1.25212L21.5638 1.29062C16.8911 1.749 14.2303 2.56999 13.6309 3.73511L1.18305 16.1829C1.04705 16.319 0.981179 16.5103 1.00468 16.7012C1.02818 16.8922 1.13843 17.0616 1.30343 17.1608L7.55339 20.9108C7.65239 20.9701 7.76364 20.9997 7.87489 20.9997C7.98614 20.9997 8.09751 20.9701 8.19638 20.9108L13.4999 17.7288V35.3748C13.4999 35.72 13.7797 35.9998 14.1248 35.9998H39.1247C39.4699 35.9998 39.7497 35.72 39.7497 35.3748V17.7288L45.0532 20.9109C45.152 20.9702 45.2634 20.9999 45.3747 20.9999C45.4859 20.9999 45.5973 20.9702 45.6961 20.9109L51.9461 17.1609C52.1109 17.0619 52.2214 16.8924 52.245 16.7013C52.2684 16.5103 52.2026 16.319 52.0665 16.1829ZM13.4999 16.271L7.87489 19.646L2.63292 16.5008L13.4999 5.63385V16.271ZM26.6248 2.24999C28.6014 2.24999 29.4953 2.33074 30.9872 2.47774C30.9824 2.64161 30.9762 2.80274 30.969 2.96174C30.9672 3.00124 30.9654 3.04011 30.9634 3.07936C30.956 3.22561 30.9489 3.37074 30.9399 3.51298C30.9357 3.57961 30.9306 3.64398 30.9261 3.70986C30.9189 3.81011 30.9125 3.91111 30.9045 4.00936C30.8984 4.08311 30.8915 4.15448 30.885 4.2271C30.8771 4.31473 30.8697 4.4031 30.8614 4.4891C30.8536 4.56385 30.8452 4.63623 30.8374 4.7096C30.8285 4.7906 30.8196 4.87235 30.8101 4.95185C30.8015 5.0256 30.7915 5.0971 30.7816 5.16947C30.7715 5.24585 30.7617 5.3231 30.751 5.39797C30.7407 5.46935 30.7295 5.5386 30.7186 5.60872C30.7072 5.68185 30.696 5.7556 30.6841 5.82722C30.6725 5.89634 30.6602 5.96359 30.6477 6.03147C30.6351 6.10109 30.6229 6.17097 30.6095 6.23909C30.5965 6.30597 30.5826 6.37109 30.5691 6.43659C30.5552 6.50297 30.5414 6.56947 30.527 6.63434C30.5127 6.69871 30.4976 6.76134 30.4825 6.82434C30.4677 6.88734 30.4529 6.95059 30.4371 7.01221C30.4214 7.07396 30.405 7.13409 30.3885 7.19434C30.3721 7.25459 30.3557 7.31484 30.339 7.37371C30.322 7.43246 30.3046 7.48983 30.2867 7.54721C30.2689 7.60458 30.2516 7.66183 30.2331 7.71783C30.2149 7.77371 30.1956 7.82846 30.177 7.88296C30.1584 7.93758 30.139 7.99183 30.1194 8.04496C30.0999 8.09808 30.08 8.14996 30.0595 8.2017C30.0392 8.25345 30.0187 8.3047 29.998 8.35508C29.977 8.4052 29.9558 8.45433 29.9343 8.50308C29.9125 8.55208 29.8907 8.60058 29.8687 8.6482C29.8464 8.69533 29.8245 8.74183 29.8015 8.78758C29.7783 8.8337 29.7554 8.8792 29.7316 8.92383C29.7081 8.9682 29.6845 9.01195 29.6608 9.05495C29.6365 9.09832 29.6118 9.14082 29.5869 9.1827C29.5624 9.22407 29.5374 9.26495 29.5121 9.30495C29.4865 9.34557 29.4604 9.38532 29.434 9.42457C29.4084 9.46295 29.3823 9.50095 29.3559 9.53782C29.3289 9.57582 29.3013 9.6127 29.2736 9.6492C29.2468 9.68457 29.2195 9.7197 29.1924 9.7537C29.1638 9.78882 29.1349 9.82282 29.106 9.85644C29.0776 9.88894 29.0496 9.92132 29.0208 9.95232C28.991 9.98482 28.9605 10.0158 28.9296 10.0468C28.9006 10.0762 28.8713 10.1057 28.8415 10.1337C28.81 10.1634 28.7778 10.1917 28.7454 10.2199C28.7155 10.2463 28.6855 10.2729 28.6543 10.2979C28.621 10.3249 28.5874 10.3503 28.5534 10.3758C28.5221 10.3992 28.4911 10.4229 28.4596 10.4451C28.4248 10.4693 28.3893 10.4917 28.3535 10.5143C28.3214 10.5348 28.2894 10.5558 28.257 10.5749C28.2206 10.5963 28.183 10.6158 28.1458 10.6357C28.1129 10.6532 28.0805 10.6713 28.0469 10.6876C28.0084 10.7062 27.969 10.7228 27.9298 10.7397C27.8959 10.7542 27.863 10.7696 27.8286 10.7829C27.7884 10.7987 27.7466 10.8123 27.7054 10.8264C27.6715 10.8381 27.6378 10.8506 27.6035 10.8609C27.5601 10.8739 27.516 10.8846 27.472 10.8958C27.4381 10.9044 27.4046 10.9142 27.3703 10.9218C27.3233 10.9322 27.2751 10.9398 27.2271 10.9479C27.1946 10.9536 27.1623 10.9606 27.1294 10.9653C27.0748 10.9731 27.0191 10.9778 26.9636 10.9829C26.936 10.9856 26.9089 10.9896 26.881 10.9914C26.7969 10.9969 26.7114 10.9999 26.6248 10.9999C26.5381 10.9999 26.4526 10.9969 26.3685 10.9911C26.3405 10.9892 26.3138 10.9852 26.2859 10.9826C26.2305 10.9774 26.1745 10.9726 26.12 10.9649C26.087 10.9602 26.0549 10.9533 26.0223 10.9477C25.9744 10.9394 25.9262 10.9318 25.8792 10.9214C25.8448 10.9139 25.8114 10.9041 25.7775 10.8954C25.7335 10.8842 25.6892 10.8737 25.646 10.8606C25.6115 10.8502 25.5782 10.8376 25.5442 10.8261C25.5028 10.8119 25.4612 10.7984 25.4205 10.7826C25.3865 10.7696 25.3533 10.7539 25.3198 10.7394C25.2807 10.7224 25.2412 10.7058 25.2027 10.6872C25.1693 10.6709 25.1368 10.6528 25.1039 10.6353C25.0667 10.6154 25.0292 10.5961 24.9925 10.5746C24.96 10.5554 24.9283 10.5346 24.8963 10.5142C24.8607 10.4914 24.8249 10.4689 24.79 10.4447C24.7584 10.4227 24.7275 10.3991 24.6965 10.3757C24.6627 10.3501 24.6285 10.3247 24.5953 10.2976C24.5647 10.2726 24.5347 10.2461 24.5045 10.2197C24.4723 10.1913 24.4399 10.1631 24.4083 10.1333C24.3787 10.1053 24.3495 10.0761 24.3205 10.0467C24.2898 10.0156 24.259 9.98444 24.229 9.95194C24.2004 9.92094 24.1724 9.88882 24.1445 9.85657C24.1153 9.82269 24.086 9.78857 24.0574 9.7532C24.03 9.71932 24.0032 9.68445 23.9765 9.64932C23.9485 9.61257 23.9208 9.57545 23.8934 9.5372C23.8673 9.50057 23.8415 9.46295 23.816 9.42495C23.7895 9.38545 23.7632 9.34532 23.7373 9.3042C23.7123 9.26457 23.6877 9.22407 23.6633 9.18307C23.6382 9.14082 23.6134 9.09782 23.5889 9.0542C23.5652 9.01157 23.5417 8.96833 23.5185 8.92445C23.4948 8.87933 23.4713 8.83333 23.4482 8.7867C23.4257 8.74133 23.4034 8.69533 23.3815 8.64858C23.359 8.60058 23.337 8.5517 23.3153 8.5022C23.294 8.45395 23.2729 8.40533 23.2523 8.3557C23.2312 8.30483 23.2105 8.25283 23.1899 8.20045C23.1699 8.14945 23.1502 8.09821 23.1308 8.04583C23.1108 7.99183 23.0915 7.93658 23.0722 7.88121C23.0537 7.82758 23.035 7.77396 23.0172 7.71908C22.9985 7.66208 22.9805 7.60371 22.9624 7.54508C22.9452 7.48871 22.9279 7.43246 22.9112 7.37484C22.8938 7.31484 22.8772 7.25321 22.8604 7.19171C22.8445 7.13284 22.8284 7.07421 22.8132 7.01396C22.797 6.95071 22.7817 6.88584 22.7663 6.82109C22.7517 6.75959 22.7369 6.69846 22.7228 6.63571C22.7079 6.56921 22.6939 6.50097 22.6798 6.43284C22.6665 6.36909 22.653 6.30572 22.6404 6.24072C22.6268 6.17059 22.614 6.09872 22.6012 6.02722C22.5893 5.96122 22.5772 5.89584 22.5658 5.8286C22.5534 5.75485 22.542 5.6791 22.5303 5.60385C22.5198 5.53585 22.5089 5.4686 22.4989 5.39935C22.4878 5.32185 22.4777 5.24197 22.4673 5.16285C22.4582 5.0931 22.4485 5.02422 22.4399 4.95323C22.4299 4.87035 22.4209 4.78498 22.4117 4.70048C22.404 4.63048 22.3959 4.56173 22.3888 4.4906C22.3798 4.4006 22.3719 4.30798 22.3638 4.2161C22.3577 4.14748 22.3509 4.08011 22.3454 4.01048C22.337 3.90636 22.3299 3.79948 22.3225 3.69311C22.3184 3.63323 22.3137 3.57473 22.3098 3.51411C22.3003 3.36261 22.2922 3.20811 22.2848 3.05199C22.2839 3.03199 22.2827 3.01274 22.2818 2.99261C22.2742 2.82374 22.2678 2.65211 22.2627 2.47799C23.7544 2.33074 24.6484 2.24999 26.6248 2.24999ZM38.4997 34.7498H14.7498V4.28198C14.9111 3.92861 16.6362 3.09636 21.0158 2.60499C21.0193 2.71236 21.0243 2.81724 21.0288 2.92286C21.0314 2.98599 21.0336 3.05024 21.0367 3.11274C21.0447 3.27786 21.0541 3.44036 21.0644 3.60111C21.0656 3.61798 21.0663 3.63548 21.0673 3.65223C21.0791 3.82961 21.0924 4.00398 21.1069 4.17598C21.1116 4.22973 21.1171 4.28173 21.1219 4.33485C21.1326 4.45185 21.1433 4.56885 21.1554 4.68335C21.1622 4.74773 21.1699 4.81048 21.1771 4.8741C21.1884 4.97498 21.1999 5.07597 21.2124 5.17485C21.2209 5.24197 21.2303 5.30747 21.2392 5.3736C21.2518 5.46647 21.2644 5.5591 21.2781 5.6501C21.2881 5.71722 21.2988 5.78309 21.3093 5.84922C21.3233 5.93659 21.3374 6.02372 21.3523 6.10947C21.3638 6.17534 21.3758 6.24022 21.3878 6.30497C21.4033 6.38834 21.4191 6.47122 21.4354 6.55284C21.4483 6.61659 21.4614 6.67959 21.4747 6.74221C21.4917 6.82234 21.5092 6.90171 21.5272 6.98009C21.5412 7.04134 21.5554 7.10221 21.5701 7.16246C21.5888 7.23971 21.6082 7.31583 21.6278 7.39133C21.6431 7.44971 21.6582 7.50796 21.6739 7.56533C21.6946 7.64046 21.7159 7.71396 21.7374 7.78721C21.7536 7.84196 21.7696 7.89708 21.7862 7.95096C21.809 8.02483 21.8328 8.09683 21.8567 8.1687C21.8734 8.21908 21.8898 8.27008 21.9069 8.31945C21.9328 8.39383 21.9598 8.46608 21.9868 8.53833C22.0033 8.58245 22.0193 8.62745 22.0362 8.6707C22.0673 8.75045 22.0997 8.82745 22.132 8.90445C22.1462 8.93783 22.1595 8.97233 22.1739 9.00507C22.2214 9.11395 22.2702 9.2202 22.3204 9.3232C23.2095 11.1438 24.5379 12.1232 26.2725 12.2384C26.388 12.2462 26.5054 12.2499 26.6246 12.2499C28.5324 12.2499 29.9805 11.2652 30.929 9.32307C30.979 9.22032 31.0276 9.11445 31.075 9.00595C31.0909 8.96957 31.1057 8.93133 31.1214 8.89433C31.1524 8.82095 31.183 8.7477 31.2126 8.67183C31.2305 8.6262 31.2472 8.57858 31.2646 8.53208C31.2907 8.46208 31.3169 8.39233 31.3419 8.32045C31.3596 8.26945 31.3762 8.21683 31.3937 8.16483C31.4171 8.09446 31.4402 8.02421 31.4626 7.95208C31.4797 7.89696 31.4962 7.84046 31.5124 7.78433C31.5337 7.71258 31.5547 7.64046 31.5746 7.56683C31.591 7.50821 31.6066 7.44846 31.6222 7.38859C31.6411 7.31471 31.6604 7.24009 31.6785 7.16446C31.6934 7.10284 31.708 7.04046 31.7227 6.97771C31.7404 6.90084 31.7571 6.82296 31.7742 6.74434C31.7875 6.68034 31.8012 6.61609 31.814 6.55097C31.8301 6.47059 31.8456 6.38909 31.8609 6.30709C31.8734 6.24109 31.8852 6.17497 31.897 6.10784C31.9116 6.02359 31.9256 5.93784 31.9394 5.85184C31.9501 5.78434 31.9614 5.71722 31.9716 5.64872C31.9846 5.55972 31.997 5.46885 32.0096 5.37797C32.0189 5.30985 32.0282 5.24222 32.0374 5.1731C32.0495 5.07722 32.0607 4.97935 32.0715 4.8816C32.0791 4.81498 32.0871 4.74923 32.0944 4.68173C32.1059 4.57198 32.1161 4.45973 32.1264 4.3476C32.1317 4.28973 32.1377 4.23298 32.1426 4.17448C32.1571 4.00348 32.1707 3.83011 32.182 3.65386C32.1841 3.62398 32.1854 3.59298 32.1872 3.56286C32.1966 3.41523 32.2055 3.26636 32.2127 3.11511C32.216 3.04486 32.2185 2.97286 32.2214 2.90186C32.2252 2.80299 32.23 2.70524 32.2336 2.60487C36.6132 3.09624 38.3384 3.92848 38.4997 4.28185V34.7498ZM45.3747 19.646L39.7497 16.271V5.63385L50.6169 16.5008L45.3747 19.646Z" stroke="#53C6F1" stroke-width="0.6"/>
<path d="M40.6273 48.9734C40.4768 47.9202 40.3476 47.1218 40.2336 46.4171C39.9114 44.4269 39.7497 43.4279 39.7497 40.3748V39.1248C39.7497 38.7795 39.4699 38.4998 39.1247 38.4998H27.8875C27.887 38.4998 27.8868 38.4998 27.8864 38.4998H25.3633C25.3629 38.4998 25.3627 38.4998 25.3623 38.4998H14.1248C13.7797 38.4998 13.4999 38.7795 13.4999 39.1248V40.3748C13.4999 43.428 13.3382 44.427 13.016 46.4175C12.902 47.1221 12.7727 47.9205 12.6224 48.9734L11.0062 60.2863C10.9806 60.4656 11.0341 60.6473 11.1527 60.7841C11.2715 60.921 11.4437 60.9996 11.6249 60.9996H20.3748C20.6018 60.9996 20.8109 60.8766 20.9212 60.6781L26.5625 50.5237L31.0537 60.6287C31.1541 60.8545 31.3781 61 31.6247 61H41.6247C41.8058 61 41.9781 60.9214 42.0968 60.7845C42.2152 60.6473 42.2689 60.4656 42.2434 60.2866L40.6273 48.9734ZM32.0309 59.7496L27.1958 48.8711C27.0994 48.6547 26.8893 48.5108 26.6523 48.5003C26.4165 48.492 26.1931 48.614 26.0781 48.8212L20.0071 59.7496H12.3455L13.8597 49.1502C14.0085 48.1087 14.1367 47.3162 14.25 46.6171C14.5828 44.5605 14.75 43.5282 14.75 40.3748V39.7498H24.4517L22.2945 45.1426C22.1664 45.4631 22.3223 45.8272 22.6428 45.9551C22.7189 45.9856 22.7974 45.9998 22.8747 45.9998C23.1227 45.9998 23.3574 45.8513 23.4552 45.6068L25.798 39.7498H27.4516L29.7944 45.6068C29.8923 45.851 30.1269 45.9998 30.3751 45.9998C30.4522 45.9998 30.5309 45.9856 30.6069 45.9551C30.9272 45.8272 31.0834 45.4631 30.955 45.1426L28.798 39.7498H38.4997V40.3748C38.4997 43.5284 38.6668 44.5605 38.9996 46.617C39.1128 47.3165 39.2411 48.109 39.3898 49.1506L40.9041 59.7496H32.0309Z" stroke="#53C6F1" stroke-width="0.6"/>
</svg>
