<svg width="37" height="26" viewBox="0 0 37 26" fill="none" xmlns="http://www.w3.org/2000/svg">
<path opacity="0.5" fill-rule="evenodd" clip-rule="evenodd" d="M17.9935 1.0001C14.7648 1.0001 12.1345 3.57335 12.1345 6.75694C12.1345 8.13954 12.6413 9.40035 13.4756 10.3935C12.6644 10.7792 11.9173 11.2821 11.2622 11.897C10.8991 11.5977 10.5024 11.328 10.0774 11.1131C10.6299 10.4099 10.9628 9.53683 10.9628 8.58165C10.9628 6.25567 9.03208 4.39252 6.67922 4.39252C4.32635 4.39252 2.39566 6.25567 2.39566 8.58165C2.39566 9.5405 2.73771 10.4214 3.29405 11.126C1.41915 12.0741 0 13.901 0 16.523V19.0031C0 19.2542 0.1102 19.3327 0.260397 19.44C3.04053 21.3455 5.89419 22.0301 8.73636 21.406V21.5088C8.74511 21.7237 8.85755 21.7868 8.99675 21.8943C14.9856 26.0404 21.1053 26.0258 27.0293 21.9071C27.2555 21.7414 27.2322 21.6594 27.2637 21.4059C30.0762 22.0146 32.932 21.3497 35.7135 19.4399C35.9422 19.2695 36.0015 19.1917 36 18.9387V16.5229C36 13.8941 34.5898 12.0545 32.719 11.113C33.2715 10.4098 33.6043 9.53673 33.6043 8.58155C33.6043 6.25557 31.6737 4.39242 29.3208 4.39242C26.9679 4.39242 25.0502 6.25557 25.0502 8.58155C25.0502 9.53673 25.3831 10.4098 25.9356 11.113C25.5122 11.3255 25.1096 11.5929 24.7378 11.8969C24.085 11.2849 23.3436 10.7895 22.5374 10.4063C23.3773 9.41194 23.8785 8.14312 23.8785 6.75684C23.8785 3.57325 21.2374 1 17.9935 1V1.0001ZM17.9935 1.82251C20.7946 1.82251 23.0452 4.0202 23.0452 6.75694C23.0452 9.47627 20.7931 11.6785 17.9935 11.6785C15.2115 11.6785 12.9678 9.47627 12.9678 6.75694C12.9678 4.0202 15.21 1.82251 17.9935 1.82251ZM6.67922 5.21493C8.58766 5.21493 10.1295 6.70194 10.1295 8.58165C10.1295 10.4435 8.58766 11.9355 6.67922 11.9355C5.74478 11.9355 4.9038 11.582 4.28356 10.9975C4.27148 10.9838 4.25856 10.9709 4.2444 10.9589C3.62082 10.3523 3.2288 9.51258 3.2288 8.58168C3.2288 6.70197 4.77065 5.21495 6.67909 5.21495L6.67922 5.21493ZM29.3208 5.21493C31.2292 5.21493 32.771 6.70194 32.771 8.58165C32.771 10.4435 31.2292 11.9355 29.3208 11.9355C27.4123 11.9355 25.8835 10.4435 25.8835 8.58165C25.8835 6.70194 27.4123 5.21493 29.3208 5.21493ZM14.0875 11.0232C15.1276 11.9393 16.4909 12.5009 17.9935 12.5009C19.5016 12.5009 20.8704 11.9377 21.9125 11.0232C24.4899 12.1383 26.4304 14.4117 26.4304 17.9622V21.3032C20.7933 25.1728 15.2706 25.1956 9.56963 21.2905V17.9623C9.56963 14.408 11.5055 12.1466 14.0875 11.0233V11.0232ZM9.46547 11.7428C9.91348 11.9453 10.3198 12.2018 10.6893 12.5009C9.49805 13.8774 8.73636 15.7014 8.73636 17.9622V20.558C6.09847 21.198 3.50233 20.625 0.833272 18.8232V16.523C0.833272 14.0767 2.13168 12.5458 3.89296 11.7556C4.64312 12.3832 5.61967 12.7579 6.67922 12.7579C7.74193 12.7579 8.71444 12.3737 9.46547 11.7428ZM26.5345 11.7428C27.2863 12.3766 28.2554 12.7579 29.3208 12.7579C30.3827 12.7579 31.3562 12.3729 32.107 11.7428C33.8607 12.5255 35.1667 14.0701 35.1667 16.523V18.8232C32.4911 20.6395 29.881 21.1834 27.2637 20.558V17.9622C27.2637 15.6987 26.5078 13.8662 25.3106 12.4881C25.6812 12.1927 26.0952 11.943 26.5345 11.7428Z" fill="white" stroke="white" stroke-width="0.5"/>
</svg>
