<svg width="27" height="26" viewBox="0 0 27 26" fill="none" xmlns="http://www.w3.org/2000/svg">
<g opacity="0.5">
<path d="M19.6948 7.09091C19.6948 7.36558 19.4722 7.58847 19.1975 7.58847H6.79565C6.52069 7.58847 6.29809 7.36558 6.29809 7.09091C6.29809 6.81595 6.52069 6.59306 6.79565 6.59306H19.1975C19.4722 6.59306 19.6948 6.81595 19.6948 7.09091Z" fill="white"/>
<path d="M19.6948 10.383C19.6948 10.6577 19.4722 10.8803 19.1975 10.8803H6.79565C6.52069 10.8803 6.29809 10.6577 6.29809 10.383C6.29809 10.108 6.52069 9.88515 6.79565 9.88515H19.1975C19.4722 9.88515 19.6948 10.108 19.6948 10.383Z" fill="white"/>
<path d="M19.6948 13.6742C19.6948 13.9495 19.4722 14.1721 19.1975 14.1721H6.79565C6.52069 14.1721 6.29809 13.9495 6.29809 13.6742C6.29809 13.3996 6.52069 13.177 6.79565 13.177H19.1975C19.4722 13.177 19.6948 13.3996 19.6948 13.6742Z" fill="white"/>
<path d="M1.37795 25C1.21658 25 1.06379 24.9142 0.980532 24.7708C0.882679 24.6017 0.902421 24.3897 1.02946 24.2412C2.35534 22.6959 3.07607 21.2521 3.45175 20.2916H2.81513C1.26265 20.2916 0 19.029 0 17.4771V3.81484C0 2.26293 1.26265 1 2.81513 1H23.1783C24.7305 1 25.9931 2.26293 25.9931 3.81484V17.4771C25.9931 19.029 24.7305 20.2916 23.1783 20.2916H9.24624C7.04999 23.8947 1.69526 24.9476 1.46379 24.9917C1.43489 24.9974 1.40628 25 1.37795 25ZM2.81513 1.91902C1.76965 1.91902 0.91873 2.76965 0.91873 3.81513V17.4773C0.91873 18.5228 1.76965 19.3732 2.81513 19.3732H4.10267C4.24916 19.3732 4.38707 19.4433 4.47348 19.5617C4.55989 19.6799 4.58478 19.8324 4.54015 19.9723C4.24344 20.9033 3.6732 22.2438 2.58995 23.7451C4.3081 23.2066 7.27173 21.974 8.58073 19.6104C8.66141 19.4642 8.81535 19.3735 8.98244 19.3735H23.1783C24.2237 19.3735 25.0744 18.5231 25.0744 17.4776V3.81542C25.0744 2.76994 24.2237 1.9193 23.1783 1.9193H2.81513V1.91902Z" fill="white"/>
<path d="M19.6948 7.09091C19.6948 7.36558 19.4722 7.58847 19.1975 7.58847H6.79565C6.52069 7.58847 6.29809 7.36558 6.29809 7.09091C6.29809 6.81595 6.52069 6.59306 6.79565 6.59306H19.1975C19.4722 6.59306 19.6948 6.81595 19.6948 7.09091Z" stroke="white" stroke-width="0.4"/>
<path d="M19.6948 10.383C19.6948 10.6577 19.4722 10.8803 19.1975 10.8803H6.79565C6.52069 10.8803 6.29809 10.6577 6.29809 10.383C6.29809 10.108 6.52069 9.88515 6.79565 9.88515H19.1975C19.4722 9.88515 19.6948 10.108 19.6948 10.383Z" stroke="white" stroke-width="0.4"/>
<path d="M19.6948 13.6742C19.6948 13.9495 19.4722 14.1721 19.1975 14.1721H6.79565C6.52069 14.1721 6.29809 13.9495 6.29809 13.6742C6.29809 13.3996 6.52069 13.177 6.79565 13.177H19.1975C19.4722 13.177 19.6948 13.3996 19.6948 13.6742Z" stroke="white" stroke-width="0.4"/>
<path d="M1.37795 25C1.21658 25 1.06379 24.9142 0.980532 24.7708C0.882679 24.6017 0.902421 24.3897 1.02946 24.2412C2.35534 22.6959 3.07607 21.2521 3.45175 20.2916H2.81513C1.26265 20.2916 0 19.029 0 17.4771V3.81484C0 2.26293 1.26265 1 2.81513 1H23.1783C24.7305 1 25.9931 2.26293 25.9931 3.81484V17.4771C25.9931 19.029 24.7305 20.2916 23.1783 20.2916H9.24624C7.04999 23.8947 1.69526 24.9476 1.46379 24.9917C1.43489 24.9974 1.40628 25 1.37795 25ZM2.81513 1.91902C1.76965 1.91902 0.91873 2.76965 0.91873 3.81513V17.4773C0.91873 18.5228 1.76965 19.3732 2.81513 19.3732H4.10267C4.24916 19.3732 4.38707 19.4433 4.47348 19.5617C4.55989 19.6799 4.58478 19.8324 4.54015 19.9723C4.24344 20.9033 3.6732 22.2438 2.58995 23.7451C4.3081 23.2066 7.27173 21.974 8.58073 19.6104C8.66141 19.4642 8.81535 19.3735 8.98244 19.3735H23.1783C24.2237 19.3735 25.0744 18.5231 25.0744 17.4776V3.81542C25.0744 2.76994 24.2237 1.9193 23.1783 1.9193H2.81513V1.91902Z" stroke="white" stroke-width="0.4"/>
</g>
</svg>
