<svg width="63" height="62" viewBox="0 0 63 62" fill="none" xmlns="http://www.w3.org/2000/svg">
<path d="M33.787 1C33.4802 1.058 33.2376 1.35561 33.2431 1.66654L33.2017 7.67395C33.2017 8.02301 33.5206 8.34047 33.8712 8.34053H48.6003C48.9509 8.34047 49.2698 8.02301 49.2698 7.67395L49.3112 1.66654C49.3112 1.31761 48.9923 1.00007 48.6417 1C43.6942 1 38.7241 1 33.787 1ZM34.5821 2.33313H47.9722L47.9308 7.00744H34.5407L34.5821 2.33313ZM21.6945 5.00781C21.3876 5.06648 21.145 5.36338 21.1505 5.67431V11.0067C21.1506 11.3556 21.4695 11.6731 21.82 11.6732H23.1591V15.6724C16.2026 15.6724 9.22499 15.6724 2.27879 15.6724C1.9719 15.7304 1.72932 16.0281 1.73483 16.339V20.3383C1.73486 20.6873 2.05378 21.0048 2.40433 21.0049H3.74335V59.6643C3.03932 59.6642 2.30157 59.6643 1.60929 59.6643C1.25874 59.697 0.969686 60.0444 1.00255 60.3934C1.0354 60.7424 1.38427 61.0302 1.73483 60.9975H61.321C61.6747 61.0041 62 60.6832 62 60.331C62 59.9788 61.6747 59.6593 61.321 59.6643H59.3124V11.6732H60.6515C61.002 11.6731 61.3209 11.3556 61.321 11.0067V5.67431C61.3209 5.32538 61.002 5.00788 60.6515 5.00781H49.9393V6.34094H59.9819V10.3402H22.4895V6.34094H32.5322V5.00781C28.9242 5.00781 25.2918 5.00781 21.6945 5.00781ZM24.4981 11.6732H57.9734V59.6643H53.9564V44.3338C53.9564 43.9848 53.6374 43.6674 53.2869 43.6673C50.1255 43.6673 46.9389 43.6673 43.7882 43.6673C43.4813 43.7253 43.2388 44.0229 43.2443 44.3338V59.6643H24.4981C24.4994 42.9494 24.4981 25.9806 24.4981 11.6732ZM29.0591 15.6724C28.7522 15.7304 28.5096 16.0281 28.5151 16.339V20.3383C28.5151 20.6873 28.8341 21.0048 29.1846 21.0049H38.5577C38.9083 21.0048 39.2272 20.6873 39.2272 20.3383V16.339C39.2272 15.9901 38.9083 15.6725 38.5577 15.6724C35.3963 15.6724 32.2097 15.6724 29.0591 15.6724ZM43.7882 15.6724C43.4813 15.7304 43.2388 16.0281 43.2443 16.339V20.3383C43.2443 20.6873 43.5632 21.0048 43.9138 21.0049H53.2869C53.6374 21.0048 53.9564 20.6873 53.9564 20.3383V16.339C53.9564 15.9901 53.6374 15.6725 53.2869 15.6724C50.1255 15.6724 46.9389 15.6724 43.7882 15.6724ZM3.07384 17.0056H23.1591V19.6717H3.07384V17.0056ZM29.8541 17.0056H37.8882V19.6717H29.8541V17.0056ZM44.5833 17.0056H52.6174V19.6717H44.5833V17.0056ZM5.08236 21.0049H23.1591V59.6643H5.08236V21.0049ZM8.97387 25.0041C8.66696 25.0621 8.42439 25.3596 8.42989 25.6706V29.67C8.42993 30.0189 8.74886 30.3364 9.0994 30.3365H18.4725C18.823 30.3364 19.142 30.0189 19.142 29.67V25.6706C19.142 25.3216 18.823 25.0042 18.4725 25.0041C15.3111 25.0041 12.1245 25.0041 8.97387 25.0041ZM29.0591 25.0041C28.7522 25.0621 28.5096 25.3596 28.5151 25.6706V29.67C28.5151 30.0189 28.8341 30.3364 29.1846 30.3365H38.5577C38.9083 30.3364 39.2272 30.0189 39.2272 29.67V25.6706C39.2272 25.3216 38.9083 25.0042 38.5577 25.0041C35.3963 25.0041 32.2097 25.0041 29.0591 25.0041ZM43.7882 25.0041C43.4813 25.0621 43.2388 25.3596 43.2443 25.6706V29.67C43.2443 30.0189 43.5632 30.3364 43.9138 30.3365H53.2869C53.6374 30.3364 53.9564 30.0189 53.9564 29.67V25.6706C53.9564 25.3216 53.6374 25.0042 53.2869 25.0041C50.1255 25.0041 46.9389 25.0041 43.7882 25.0041ZM9.7689 26.3372H17.803V29.0034H9.7689V26.3372ZM29.8541 26.3372H37.8882V29.0034H29.8541V26.3372ZM44.5833 26.3372H52.6174V29.0034H44.5833V26.3372ZM8.97387 34.3357C8.66696 34.3937 8.42439 34.6913 8.42989 35.0023V39.0015C8.42993 39.3505 8.74886 39.668 9.0994 39.6681H18.4725C18.823 39.668 19.142 39.3505 19.142 39.0015V35.0023C19.142 34.6533 18.823 34.3358 18.4725 34.3357C15.3111 34.3357 12.1245 34.3357 8.97387 34.3357ZM29.0591 34.3357C28.7522 34.3937 28.5096 34.6913 28.5151 35.0023V39.0015C28.5151 39.3505 28.8341 39.668 29.1846 39.6681H38.5577C38.9083 39.668 39.2272 39.3505 39.2272 39.0015V35.0023C39.2272 34.6533 38.9083 34.3358 38.5577 34.3357C35.3963 34.3357 32.2097 34.3357 29.0591 34.3357ZM43.7882 34.3357C43.4813 34.3937 43.2388 34.6913 43.2443 35.0023V39.0015C43.2443 39.3505 43.5632 39.668 43.9138 39.6681H53.2869C53.6374 39.668 53.9564 39.3505 53.9564 39.0015V35.0023C53.9564 34.6533 53.6374 34.3358 53.2869 34.3357C50.1255 34.3357 46.9389 34.3357 43.7882 34.3357ZM9.7689 35.6688H17.803V38.335H9.7689V35.6688ZM29.8541 35.6688H37.8882V38.335H29.8541V35.6688ZM44.5833 35.6688H52.6174V38.335H44.5833V35.6688ZM8.97387 43.6673C8.66696 43.7253 8.42439 44.0229 8.42989 44.3338V48.3332C8.42993 48.6822 8.74886 48.9996 9.0994 48.9997H18.4725C18.823 48.9996 19.142 48.6822 19.142 48.3332V44.3338C19.142 43.9848 18.823 43.6674 18.4725 43.6673C15.3111 43.6673 12.1245 43.6673 8.97387 43.6673ZM29.0591 43.6673C28.7522 43.7253 28.5096 44.0229 28.5151 44.3338V48.3332C28.5151 48.6822 28.8341 48.9996 29.1846 48.9997H38.5577C38.9083 48.9996 39.2272 48.6822 39.2272 48.3332V44.3338C39.2272 43.9848 38.9083 43.6674 38.5577 43.6673C35.3963 43.6673 32.2097 43.6673 29.0591 43.6673ZM9.7689 45.0004H17.803V47.6666H9.7689V45.0004ZM29.8541 45.0004H37.8882V47.6666H29.8541V45.0004ZM44.5833 45.0004H52.6174V59.6643H44.5833V45.0004Z" fill="#53C6F1" stroke="#53C6F1" stroke-width="0.3"/>
</svg>
