<svg width="75" height="60" viewBox="0 0 75 60" fill="none" xmlns="http://www.w3.org/2000/svg">
<path d="M24.7378 11.838C23.8295 13.5052 22.93 15.1724 22.0217 16.8395C20.5806 19.5018 19.1309 22.164 17.6898 24.8175C17.3579 25.4373 17.0173 26.0483 16.6855 26.668C17.0872 26.5633 17.4802 26.4585 17.882 26.3538C16.0217 25.3936 14.1615 24.4335 12.3012 23.482C9.32306 21.9458 6.34491 20.4095 3.35803 18.8733C2.67681 18.5242 1.99559 18.1663 1.31437 17.8171C1.37551 18.271 1.42791 18.7336 1.48904 19.1875C2.69427 17.8433 3.89951 16.4904 5.10474 15.1462C7.02613 12.9989 8.95625 10.8429 10.8776 8.69569C11.323 8.19815 11.7685 7.70062 12.2051 7.21182C11.9257 7.29037 11.6375 7.3602 11.358 7.43876C12.9213 8.07595 14.4846 8.71314 16.0392 9.35906C18.537 10.3803 21.026 11.4016 23.5239 12.4228C24.1003 12.6585 24.6767 12.8942 25.2618 13.1298C25.6985 13.3044 26.2225 12.9378 26.3361 12.5188C26.4758 12.0213 26.1614 11.6285 25.7247 11.4452C24.1614 10.808 22.5981 10.1708 21.0435 9.52491C18.5457 8.50366 16.0566 7.4824 13.5588 6.46115C12.9824 6.22548 12.406 5.9898 11.8209 5.75413C11.5501 5.64066 11.1571 5.77159 10.9737 5.98107C9.76847 7.32529 8.56324 8.67823 7.358 10.0224C5.42788 12.161 3.5065 14.3169 1.58511 16.4642C1.1397 16.9617 0.694286 17.4593 0.257608 17.9481C-0.100469 18.3409 -0.0917353 19.0479 0.432279 19.3185C2.29253 20.2786 4.15278 21.2388 6.01303 22.1902C8.99118 23.7264 11.9693 25.2627 14.9562 26.7989C15.6374 27.1481 16.3187 27.5059 16.9999 27.8551C17.4103 28.0646 17.9606 27.9773 18.1964 27.5409C19.1047 25.8737 20.0042 24.2065 20.9125 22.5393C22.3535 19.8771 23.8033 17.2149 25.2444 14.5613C25.5762 13.9416 25.9168 13.3306 26.2487 12.7109C26.7815 11.7333 25.2706 10.8517 24.7378 11.838Z" fill="#53C6F1"/>
<path d="M63.1655 5.7454C59.5324 7.238 55.8905 8.7306 52.2573 10.2145C51.4538 10.5462 50.6591 10.8691 49.8556 11.2008C49.6896 11.2706 49.48 11.3143 49.3316 11.4103C49.1918 11.5063 49.6722 11.4103 49.4189 11.4016C48.17 11.3317 46.8949 11.4016 45.646 11.4016C40.7377 11.4016 35.8207 11.4016 30.9125 11.4016C29.2793 11.4016 27.6548 11.4016 26.0217 11.4016C25.8732 11.4016 25.7247 11.3928 25.5762 11.4016C25.3404 11.419 25.8382 11.515 25.6636 11.4103C25.2094 11.1223 24.5981 10.9739 24.1003 10.7731C20.1003 9.14085 16.109 7.49986 12.1091 5.8676C12.013 5.83268 11.9169 5.78904 11.8209 5.75413C11.8209 6.31276 11.8209 6.88012 11.8209 7.43876C15.4628 5.94616 19.1047 4.45356 22.7466 2.96968C23.55 2.638 24.3535 2.31503 25.1483 1.98335C25.3142 1.91352 25.5238 1.86987 25.6723 1.77386C25.812 1.67784 25.3317 1.77386 25.585 1.78259C26.8339 1.85242 28.109 1.78259 29.3579 1.78259C34.2661 1.78259 39.1831 1.78259 44.0914 1.78259C45.7246 1.78259 47.349 1.78259 48.9822 1.78259C49.1307 1.78259 49.2792 1.79132 49.4276 1.78259C49.6634 1.76513 49.1656 1.66911 49.3403 1.77386C49.7944 2.0619 50.4058 2.21029 50.9036 2.41105C54.8948 4.04331 58.8861 5.6843 62.8773 7.31656C62.9734 7.35147 63.0695 7.39512 63.1655 7.43003C63.6022 7.61333 64.1262 7.238 64.2398 6.81902C64.3795 6.32149 64.0651 5.9287 63.6284 5.7454C59.9691 4.24407 56.3097 2.74274 52.6503 1.24141C51.8643 0.918449 51.0695 0.595489 50.2835 0.272529C49.9953 0.150328 49.7508 0.0368543 49.4364 0.019397C48.1787 -0.0242463 46.9124 0.019397 45.646 0.019397C40.7377 0.019397 35.8207 0.019397 30.9125 0.019397C29.2793 0.019397 27.6461 0.019397 26.0129 0.019397C25.7509 0.019397 25.4627 -0.00678842 25.2182 0.0717695C24.7029 0.237614 24.1963 0.490746 23.6985 0.691505C19.6811 2.33249 15.6724 3.98221 11.6549 5.6232C11.5589 5.65811 11.4628 5.70176 11.3667 5.73667C10.5458 6.07709 10.5458 7.08088 11.3667 7.4213C15.0348 8.92263 18.6942 10.424 22.3623 11.9253C23.1483 12.2483 23.9431 12.5712 24.7291 12.8942C25.0173 13.0164 25.2618 13.1298 25.5762 13.1473C26.8339 13.1909 28.1002 13.1473 29.3666 13.1473C34.2749 13.1473 39.1919 13.1473 44.1001 13.1473C45.7333 13.1473 47.3665 13.1473 48.9997 13.1473C49.2617 13.1473 49.5499 13.1735 49.7944 13.0949C50.3097 12.9291 50.8163 12.676 51.3141 12.4752C55.3228 10.8342 59.3315 9.18449 63.3402 7.5435C63.4363 7.50859 63.5324 7.46495 63.6284 7.43003C64.0651 7.25546 64.3708 6.85394 64.2398 6.35641C64.1262 5.93743 63.6022 5.5621 63.1655 5.7454Z" fill="#53C6F1"/>
<path d="M56.9298 26.4847C56.9298 26.4934 56.9298 26.4934 56.9298 26.4847C57.1306 26.4061 57.3403 26.3189 57.5411 26.2316C56.2136 26.2316 54.8861 26.2316 53.5499 26.2316C50.3534 26.2316 47.1656 26.2316 43.9691 26.2316C40.1089 26.2316 36.2399 26.2316 32.3797 26.2316C29.0435 26.2316 25.6985 26.2316 22.3623 26.2316C21.2619 26.2316 20.1702 26.2316 19.0697 26.2316C18.5544 26.2316 18.013 26.1879 17.4977 26.2316C17.4715 26.2316 17.454 26.2316 17.4278 26.2316C17.6374 26.3189 17.8383 26.4061 18.0479 26.4847C18.0916 26.8338 18.1352 27.1917 18.1876 27.5409C19.0959 25.8737 19.9955 24.2065 20.9038 22.5393C22.3448 19.8771 23.7946 17.2149 25.2356 14.5613C25.5675 13.9416 25.9081 13.3306 26.24 12.7109C25.9867 12.8593 25.7334 12.9989 25.4889 13.1473C28.1963 13.1473 30.9037 13.1473 33.6111 13.1473C37.9081 13.1473 42.205 13.1473 46.5019 13.1473C47.4888 13.1473 48.4757 13.1473 49.4626 13.1473C49.2093 12.9989 48.956 12.8593 48.7115 12.7109C49.6198 14.378 50.5281 16.0452 51.4451 17.7211C52.8949 20.3834 54.3446 23.0456 55.8031 25.7078C56.135 26.3189 56.4669 26.9299 56.8075 27.5409C57.349 28.5272 58.8512 27.6456 58.3184 26.6593C57.4101 24.9921 56.5018 23.3249 55.5848 21.649C54.135 18.9868 52.6853 16.3245 51.2268 13.6623C50.8949 13.0513 50.563 12.4403 50.2224 11.8293C50.0739 11.5587 49.7682 11.3928 49.4713 11.3928C46.7639 11.3928 44.0565 11.3928 41.3491 11.3928C37.0522 11.3928 32.7552 11.3928 28.4583 11.3928C27.4714 11.3928 26.4845 11.3928 25.4976 11.3928C25.2007 11.3928 24.8863 11.5587 24.7466 11.8293C23.8383 13.4965 22.9387 15.1636 22.0304 16.8308C20.5894 19.493 19.1396 22.1553 17.6986 24.8088C17.3667 25.4285 17.0261 26.0395 16.6942 26.6593C16.5108 26.9997 16.5545 27.4361 16.8339 27.7154C17.2007 28.0908 17.9518 27.9773 18.4234 27.9773C19.3841 27.9773 20.3448 27.9773 21.3055 27.9773C24.5195 27.9773 27.7247 27.9773 30.9387 27.9773C34.8426 27.9773 38.7465 27.9773 42.6504 27.9773C46.0128 27.9773 49.384 27.9773 52.7464 27.9773C54.3359 27.9773 55.9341 28.0471 57.5237 27.9773C57.7682 27.9686 58.0127 27.9075 58.1874 27.7154C58.9385 26.9037 57.7071 25.6729 56.9298 26.4847Z" fill="#53C6F1"/>
<path d="M48.7115 12.7196C49.6198 14.3868 50.5281 16.0539 51.4451 17.7298C52.8949 20.3921 54.3446 23.0543 55.8031 25.7166C56.135 26.3276 56.4669 26.9386 56.8075 27.5496C57.0433 27.9773 57.5935 28.0733 58.004 27.8638C59.8643 26.9037 61.7245 25.9435 63.5848 24.9921C66.5629 23.4559 69.541 21.9196 72.5279 20.3834C73.2092 20.0342 73.8904 19.6763 74.5716 19.3272C75.0956 19.0566 75.1043 18.3496 74.7463 17.9568C73.541 16.6126 72.3358 15.2596 71.1306 13.9154C69.2092 11.7682 67.2791 9.6122 65.3577 7.46495C64.9123 6.96741 64.4668 6.46988 64.0302 5.98107C63.8468 5.77159 63.445 5.64938 63.183 5.75413C61.611 6.40005 60.0389 7.04597 58.4669 7.69189C55.9691 8.71314 53.48 9.7344 50.9822 10.7644C50.5717 10.9302 50.17 11.0961 49.7595 11.2619C49.646 11.3056 49.5237 11.3492 49.4189 11.4016C49.2355 11.4976 49.384 11.419 49.4888 11.419C48.3621 11.419 48.3621 13.1648 49.4888 13.1648C50.004 13.1648 50.5717 12.8069 51.0346 12.6149C52.135 12.161 53.2355 11.7158 54.3359 11.2619C56.8512 10.2319 59.3752 9.19322 61.8904 8.16324C62.4756 7.91884 63.0607 7.68316 63.6546 7.43876C63.3751 7.3602 63.0869 7.29037 62.8075 7.21181C64.0127 8.55603 65.2179 9.90897 66.4232 11.2532C68.3446 13.4004 70.2747 15.5564 72.1961 17.7037C72.6415 18.2012 73.0869 18.6987 73.5236 19.1875C73.5847 18.7336 73.6371 18.271 73.6982 17.8171C71.838 18.7773 69.9777 19.7374 68.1175 20.6889C65.1393 22.2251 62.1612 23.7614 59.1743 25.2976C58.4931 25.6467 57.8119 26.0046 57.1306 26.3538C57.5324 26.4585 57.9254 26.5633 58.3271 26.668C57.4188 25.0008 56.5106 23.3337 55.5935 21.6577C54.1438 18.9955 52.694 16.3333 51.2355 13.671C50.9036 13.06 50.5717 12.449 50.2311 11.838C49.6809 10.8517 48.17 11.7333 48.7115 12.7196Z" fill="#53C6F1"/>
<path d="M73.4974 17.9568C72.2747 19.3097 71.052 20.6627 69.8293 22.0156C66.921 25.2452 64.004 28.4661 61.0957 31.6957C57.5761 35.5974 54.0564 39.4904 50.5455 43.3921C47.5062 46.7614 44.4582 50.1306 41.4189 53.4999C40.4146 54.6172 39.4015 55.7344 38.3971 56.8517C37.9255 57.3754 37.4015 57.873 36.9736 58.4316C36.9561 58.4578 36.9299 58.4752 36.9124 58.5014C37.3666 58.5625 37.8294 58.6149 38.2836 58.676C38.2661 58.6498 38.2487 58.6324 38.2312 58.6062C38.2312 58.9029 38.2312 59.191 38.2312 59.4878C38.8949 58.4316 39.5587 57.3667 40.2224 56.3105C41.8207 53.7705 43.4189 51.2304 45.0172 48.6817C46.9473 45.6092 48.8774 42.528 50.8163 39.4555C52.4844 36.7932 54.1612 34.1397 55.8293 31.4775C56.3796 30.6046 56.9298 29.7318 57.4713 28.8589C57.7333 28.4486 58.0389 28.0384 58.2573 27.602C58.266 27.5845 58.2835 27.5671 58.2922 27.5496C58.0389 27.698 57.7857 27.8376 57.5411 27.986C57.8119 27.986 57.9429 27.8551 58.1699 27.7329C58.1612 27.7329 57.9778 27.8638 58.004 27.8638C58.0215 27.8638 58.0477 27.8376 58.0651 27.8289C58.1612 27.794 58.2573 27.7242 58.3533 27.6805C58.7376 27.4885 59.1132 27.2877 59.4974 27.0957C60.8075 26.4236 62.1175 25.7428 63.4363 25.0707C66.4494 23.517 69.4624 21.972 72.4668 20.4183C73.1655 20.0604 73.8642 19.6938 74.5629 19.3359C75.5585 18.8209 74.6764 17.3109 73.6808 17.8259C71.7943 18.7947 69.9079 19.7636 68.0301 20.7412C65.052 22.2775 62.0651 23.8137 59.087 25.35C58.6066 25.6031 58.1175 25.8475 57.6372 26.1006C57.4189 26.2141 57.1132 26.3189 56.9385 26.5022C57.1481 26.4149 57.349 26.3276 57.5586 26.249C56.9298 26.249 56.6154 26.9648 56.3272 27.4274C55.8555 28.1781 55.3839 28.9287 54.9123 29.6707C53.3228 32.202 51.7333 34.7333 50.1351 37.2733C48.1875 40.372 46.2399 43.4707 44.2923 46.5693C42.6067 49.2578 40.9124 51.9462 39.2268 54.6346C38.4059 55.9352 37.5238 57.2183 36.7639 58.5538C36.7552 58.5713 36.7377 58.5887 36.729 58.6149C36.5805 58.8506 36.5543 59.2608 36.729 59.4965C36.7465 59.5227 36.764 59.5401 36.7814 59.5663C37.1046 59.9853 37.7334 60.2035 38.1526 59.7409C39.3753 58.3879 40.598 57.035 41.8207 55.6821C44.729 52.4525 47.646 49.2316 50.5543 46.002C54.0739 42.1003 57.5935 38.2073 61.1044 34.3056C64.1437 30.9363 67.1917 27.5671 70.231 24.1978C71.7157 22.5568 73.2266 20.9333 74.6764 19.2661C74.6939 19.2399 74.7201 19.2225 74.7375 19.1963C75.4799 18.3583 74.2485 17.1188 73.4974 17.9568Z" fill="#53C6F1"/>
<path d="M0.257607 19.1875C1.48031 20.5405 2.70301 21.8934 3.92571 23.2464C6.83399 26.476 9.751 29.6968 12.6593 32.9265C16.1789 36.8282 19.6985 40.7211 23.2094 44.6229C26.2487 47.9921 29.2967 51.3614 32.336 54.7306C33.812 56.3716 35.2443 58.0824 36.7814 59.6623C36.7989 59.6885 36.8251 59.706 36.8426 59.7322C37.2618 60.1948 37.8993 59.9766 38.2137 59.5576C38.2312 59.5314 38.2487 59.5139 38.2661 59.4878C38.4408 59.2521 38.4146 58.8418 38.2661 58.6062C37.5936 57.5325 36.9124 56.4589 36.2399 55.3853C34.6242 52.8103 33.0085 50.2354 31.3928 47.6604C29.4452 44.5618 27.4976 41.4631 25.55 38.3644C23.8819 35.7109 22.2138 33.0574 20.5457 30.4039C19.7684 29.1731 19.0348 27.9075 18.2226 26.7029C18.0392 26.4323 17.7859 26.2403 17.4453 26.2403C17.6549 26.3276 17.8558 26.4149 18.0654 26.4934C17.9082 26.3363 17.6811 26.249 17.4889 26.153C17.0959 25.9522 16.7029 25.7515 16.3187 25.5507C15.0086 24.8786 13.6898 24.1978 12.3798 23.5257C9.38419 21.9807 6.38858 20.4357 3.39296 18.8995C2.70301 18.5416 2.01306 18.1837 1.3231 17.8346C0.327476 17.3196 -0.563349 18.8297 0.441012 19.3447C2.35366 20.331 4.25758 21.3086 6.17024 22.2949C9.15712 23.8312 12.1353 25.3674 15.1222 26.9037C15.6025 27.1481 16.0741 27.3925 16.5545 27.6369C16.6767 27.698 16.799 27.7765 16.9213 27.8289C16.9387 27.8376 16.9737 27.8726 16.9999 27.8726C16.9999 27.8726 17.0086 27.8813 17.0173 27.8813C16.9562 27.8376 16.9038 27.794 16.8427 27.7504C16.9038 27.794 16.9562 27.8376 17.0173 27.89C17.1483 27.9686 17.3143 28.0122 17.4627 28.0122C17.2095 27.8638 16.9562 27.7242 16.7117 27.5758C17.3754 28.6319 18.0392 29.6968 18.7029 30.753C20.3012 33.2931 21.8994 35.8331 23.4976 38.3819C25.4278 41.4544 27.3579 44.5356 29.2967 47.6081C30.9649 50.2703 32.6417 52.9238 34.3098 55.586C34.86 56.4589 35.4102 57.3318 35.9517 58.2046C36.2137 58.6149 36.4408 59.0775 36.7377 59.4616C36.7465 59.479 36.7639 59.4965 36.7727 59.5139C36.7727 59.2172 36.7727 58.9291 36.7727 58.6324C36.7552 58.6585 36.7377 58.676 36.7203 58.7022C37.1744 58.6411 37.6373 58.5887 38.0915 58.5276C36.8688 57.1747 35.646 55.8217 34.4234 54.4688C31.5151 51.2392 28.5981 48.0183 25.6898 44.7887C22.1701 40.887 18.6505 36.994 15.1396 33.0923C12.1003 29.723 9.05232 26.3538 6.01303 22.9845C4.53706 21.3435 3.10475 19.6327 1.56764 18.0528C1.55018 18.0266 1.52398 18.0092 1.50651 17.983C0.737953 17.1188 -0.502214 18.3583 0.257607 19.1875Z" fill="#53C6F1"/>
</svg>
