<svg width="62" height="62" viewBox="0 0 62 62" fill="none" xmlns="http://www.w3.org/2000/svg">
<path d="M31 1C14.4392 1 1 14.4392 1 31C1 47.5608 14.4392 61 31 61C47.5608 61 61 47.5608 61 31C61 14.4392 47.5608 1 31 1ZM31 2.30435C46.8559 2.30435 59.6957 15.1441 59.6957 31C59.6957 46.8559 46.8559 59.6957 31 59.6957C15.1441 59.6957 2.30435 46.8559 2.30435 31C2.30435 15.1441 15.1441 2.30435 31 2.30435ZM31 8.82609C18.7614 8.82609 8.82609 18.7614 8.82609 31C8.82609 43.2386 18.7614 53.1739 31 53.1739C43.2386 53.1739 53.1739 43.2386 53.1739 31C53.1739 18.7614 43.2386 8.82609 31 8.82609ZM31 10.1304C32.2038 10.1304 33.378 10.241 34.5258 10.4362C33.7136 12.7399 33.4737 15.791 33.6902 18.6087C34.0066 20.9962 34.2646 24.1432 36.1359 25.64C38.264 26.8712 40.7665 26.4097 42.8614 25.9049C45.4735 25.2671 48.2443 24.1724 50.3818 23.2351C51.0439 24.8867 51.486 26.6432 51.7065 28.4728C49.282 28.7178 46.4085 29.0983 43.8804 29.7161C41.7391 30.3535 38.8337 31.0141 37.8274 32.9973C37.1023 35.5082 38.3217 38.0422 39.4579 40.0285C40.8975 42.5207 42.9432 44.9743 45.0422 46.4484C43.6876 47.6794 42.1616 48.7434 40.5177 49.587C39.7545 47.3824 38.3815 44.945 36.8085 42.9225C35.0445 40.6546 33.0653 38.8261 31 38.8261C28.5763 39.2479 26.8129 41.2241 25.4362 42.9022C23.795 44.9163 22.2999 47.3628 21.5028 49.587C19.8532 48.742 18.316 47.6835 16.9579 46.4484C19.0635 44.9758 21.1041 42.5028 22.5422 40.0082C23.5989 37.9575 25.1425 35.1108 24.1726 32.9973C22.7744 30.9213 20.2454 30.241 18.1196 29.7161C15.5915 29.0983 12.718 28.7178 10.2935 28.4728C10.5184 26.6052 10.9955 24.8147 11.6794 23.1332C13.8084 24.0671 16.5716 25.1795 19.159 25.8438C21.3127 26.295 24.1115 26.9387 25.8642 25.64C27.7225 23.7345 28.12 20.9755 28.3098 18.6087C28.5264 15.791 28.2865 12.7399 27.4742 10.4362C28.7015 10.2649 29.9472 10.1342 31 10.1304ZM26.1698 10.7011C26.9281 12.7288 27.2373 15.7556 27.0258 18.5068C26.7457 20.6757 26.5526 22.9704 25.0693 24.6005C23.2777 25.4745 21.2092 25.017 19.4851 24.5803C17.0127 23.9456 14.2883 22.8519 12.1889 21.9309C14.6704 16.3935 20.1137 12.0746 26.1698 10.7011ZM35.8302 10.7011C42.0366 12.1698 47.1693 16.4021 49.8519 22.0326C47.7587 22.9495 45.0148 24.0359 42.5353 24.6413C40.6479 25.0276 38.6327 25.5011 36.9307 24.6009C35.489 22.893 35.1382 20.5383 34.9742 18.5072C34.7627 15.756 35.0719 12.7288 35.8302 10.7011ZM31 24.4783C30.2796 24.4783 29.6957 25.0622 29.6957 25.7826C29.6957 26.503 30.2796 27.087 31 27.087C31.7204 27.087 32.3043 26.503 32.3043 25.7826C32.3043 25.0622 31.7204 24.4783 31 24.4783ZM25.7826 28.3913C25.0622 28.3913 24.4783 28.9752 24.4783 29.6957C24.4783 30.416 25.0622 31 25.7826 31C26.503 31 27.087 30.416 27.087 29.6957C27.087 28.9752 26.503 28.3913 25.7826 28.3913ZM36.2174 28.3913C35.497 28.3913 34.913 28.9752 34.913 29.6957C34.913 30.416 35.497 31 36.2174 31C36.9378 31 37.5217 30.416 37.5217 29.6957C37.5217 28.9752 36.9378 28.3913 36.2174 28.3913ZM10.1712 29.7772C12.5633 30.0182 15.3912 30.3877 17.8139 30.9797C19.6934 31.5431 21.8346 31.9751 23.0109 33.5679C23.4086 35.6494 22.3663 37.7023 21.4212 39.356C20.0145 41.7963 17.9324 44.2666 16.0204 45.5312C12.378 41.7738 10.1304 36.6519 10.1304 31C10.1304 30.5912 10.148 30.1801 10.1712 29.7772ZM51.8288 29.7772C51.852 30.1805 51.8696 30.5908 51.8696 31C51.8696 36.6519 49.6245 41.7738 45.9796 45.5312C44.0774 44.2599 42.0043 41.8088 40.5992 39.3763C39.587 37.508 38.6316 35.6447 38.9892 33.5679C40.2738 31.9837 42.4058 31.4202 44.1862 30.9797C46.7787 30.4126 49.4674 30.0185 51.8288 29.7772ZM27.7391 34.913C27.0188 34.913 26.4348 35.497 26.4348 36.2174C26.4348 36.9378 27.0188 37.5217 27.7391 37.5217C28.4595 37.5217 29.0435 36.9378 29.0435 36.2174C29.0435 35.497 28.4595 34.913 27.7391 34.913ZM34.2609 34.913C33.5405 34.913 32.9565 35.497 32.9565 36.2174C32.9565 36.9378 33.5405 37.5217 34.2609 37.5217C34.9812 37.5217 35.5652 36.9378 35.5652 36.2174C35.5652 35.497 34.9812 34.913 34.2609 34.913ZM31 40.1304C32.1957 40.1304 34.1295 41.5832 35.7894 43.7174C37.3029 45.6633 38.6241 48.0987 39.3152 50.1576C36.7684 51.2636 33.9549 51.8696 31 51.8696C28.0451 51.8696 25.2306 51.2636 22.6848 50.1576C23.3949 48.1168 24.8629 45.6716 26.4552 43.7174C27.7847 42.2006 29.0688 40.6907 31 40.1304Z" fill="#53C6F1" stroke="#53C6F1" stroke-width="0.5"/>
</svg>
