<svg width="54" height="60" viewBox="0 0 54 60" fill="none" xmlns="http://www.w3.org/2000/svg">
<path d="M53.903 0.62C53.8016 0.375651 53.6074 0.181475 53.363 0.0799999C53.2428 0.028759 53.1137 0.00157999 52.983 0H44.983C44.7178 0 44.4635 0.105357 44.2759 0.292893C44.0884 0.48043 43.983 0.734784 43.983 1C43.983 1.26522 44.0884 1.51957 44.2759 1.70711C44.4635 1.89464 44.7178 2 44.983 2H50.573L41.133 11.43C39.6449 10.1418 37.9019 9.18192 36.0177 8.61289C34.1336 8.04386 32.1506 7.87852 30.1982 8.12764C28.2458 8.37676 26.3679 9.03474 24.687 10.0587C23.0061 11.0826 21.56 12.4494 20.443 14.07C20.2919 14.2888 20.2338 14.5587 20.2816 14.8203C20.3294 15.0819 20.4792 15.3138 20.698 15.465C20.9168 15.6162 21.1867 15.6742 21.4483 15.6264C21.71 15.5786 21.9419 15.4288 22.093 15.21C23.7114 12.8595 26.1145 11.1627 28.871 10.424C31.6275 9.68543 34.557 9.95335 37.1338 11.1797C39.7106 12.4061 41.766 14.5107 42.9311 17.1158C44.0963 19.7209 44.2949 22.6559 43.4913 25.3942C42.6877 28.1325 40.9345 30.4948 38.5464 32.0571C36.1583 33.6194 33.2916 34.2795 30.4607 33.919C27.6298 33.5584 25.0201 32.2008 23.0998 30.0897C21.1796 27.9786 20.0746 25.2523 19.983 22.4C19.9738 22.1348 19.8595 21.8841 19.6654 21.7031C19.4713 21.5222 19.2133 21.4257 18.948 21.435C18.6828 21.4443 18.4322 21.5585 18.2512 21.7526C18.0702 21.9467 17.9738 22.2048 17.983 22.47C18.0529 24.7114 18.6602 26.9032 19.7537 28.861C20.8473 30.8188 22.3951 32.4852 24.267 33.72C26.1389 34.9549 28.28 35.722 30.5101 35.9569C32.7403 36.1917 34.9942 35.8874 37.0822 35.0695C39.1702 34.2516 41.0313 32.9442 42.5086 31.2571C43.986 29.5701 45.0365 27.5528 45.5717 25.3751C46.1069 23.1975 46.1111 20.9231 45.5841 18.7434C45.057 16.5637 44.0141 14.5426 42.543 12.85L51.983 3.41V9C51.983 9.26522 52.0884 9.51957 52.2759 9.70711C52.4635 9.89464 52.7178 10 52.983 10C53.2483 10 53.5026 9.89464 53.6901 9.70711C53.8777 9.51957 53.983 9.26522 53.983 9V1C53.9815 0.869323 53.9543 0.740222 53.903 0.62Z" fill="#53C6F1"/>
<path d="M23.8631 36.8099C22.2438 39.15 19.8455 40.8385 17.0963 41.5739C14.3472 42.3093 11.4261 42.0437 8.85468 40.8246C6.28323 39.6055 4.22873 37.5122 3.05795 34.9184C1.88716 32.3246 1.6763 29.3991 2.463 26.6642C3.2497 23.9293 4.98276 21.563 7.3528 19.9877C9.72284 18.4124 12.5756 17.7307 15.4018 18.0642C18.228 18.3977 20.8437 19.7248 22.7819 21.8085C24.7201 23.8923 25.8547 26.597 25.9831 29.4399C25.9951 29.7051 26.1119 29.9547 26.3078 30.1338C26.5038 30.3129 26.7629 30.4068 27.0281 30.3949C27.2934 30.383 27.543 30.2662 27.7221 30.0702C27.9012 29.8742 27.9951 29.6151 27.9831 29.3499C27.8508 26.6568 26.9436 24.0591 25.3705 21.8692C23.7975 19.6793 21.6254 17.9902 19.1155 17.0049C16.6056 16.0197 13.8645 15.7802 11.2218 16.3153C8.57905 16.8504 6.14704 18.1372 4.21805 20.0212C2.28905 21.9052 0.945144 24.3062 0.347833 26.9355C-0.249478 29.5649 -0.0747774 32.3109 0.850939 34.8433C1.77666 37.3758 3.414 39.5871 5.5662 41.2114C7.7184 42.8358 10.2939 43.804 12.9831 43.9999V48.9999H8.98314C8.71792 48.9999 8.46357 49.1052 8.27603 49.2928C8.08849 49.4803 7.98314 49.7347 7.98314 49.9999C7.98314 50.2651 8.08849 50.5195 8.27603 50.707C8.46357 50.8945 8.71792 50.9999 8.98314 50.9999H12.9831V58.9999C12.9831 59.2651 13.0885 59.5195 13.276 59.707C13.4636 59.8945 13.7179 59.9999 13.9831 59.9999C14.2484 59.9999 14.5027 59.8945 14.6902 59.707C14.8778 59.5195 14.9831 59.2651 14.9831 58.9999V50.9999H18.9831C19.2484 50.9999 19.5027 50.8945 19.6902 50.707C19.8778 50.5195 19.9831 50.2651 19.9831 49.9999C19.9831 49.7347 19.8778 49.4803 19.6902 49.2928C19.5027 49.1052 19.2484 48.9999 18.9831 48.9999H14.9831V43.9399C17.0757 43.7926 19.1084 43.1769 20.931 42.1384C22.7537 41.0998 24.3196 39.665 25.5131 37.9399C25.6643 37.7211 25.7224 37.4512 25.6746 37.1896C25.6267 36.928 25.4769 36.6961 25.2581 36.5449C25.0393 36.3937 24.7694 36.3357 24.5078 36.3835C24.2462 36.4313 24.0143 36.5811 23.8631 36.7999V36.8099Z" fill="#53C6F1"/>
</svg>
