<svg style="display: none;">
  <symbol viewBox="0 0 60 60" xmlns="http://www.w3.org/2000/svg" id="online_1">
    <path d="M42.258.356c-2.197.495-4.132 1.784-5.914 3.256l-.104-.418-1.054 1.054c-3.707 3.707-4.95 9.107-3.566 14.13-.008.006-.017.011-.024.018L2.033 47.96c-2.634 2.634-2.73 6.859-.16 9.43l.739.738c2.57 2.57 6.8 2.474 9.434-.16l29.557-29.563c.013-.012.022-.025.033-.037 5.013 1.374 10.404.128 14.107-3.567a14.54 14.54 0 0 0 3.5-14.859l-.433-1.294-10.647 10.648a3.67 3.67 0 0 1-5.228 0L40.86 17.22a3.664 3.664 0 0 1 0-5.222L51.574 1.284 50.318.837a14.532 14.532 0 0 0-8.06-.48zm.372 1.642c1.797-.405 3.672-.067 5.514.33l-8.474 8.474a5.39 5.39 0 0 0 0 7.613l2.075 2.07a5.385 5.385 0 0 0 7.609 0l8.36-8.356c.794 4.14-.137 8.444-3.166 11.48a12.837 12.837 0 0 1-13.024 3.13l-.527-.17-.362.41a5.559 5.559 0 0 1-.221.235L10.85 56.776c-2.018 2.019-5.143 2.066-7.048.16l-.734-.739c-1.906-1.905-1.864-5.03.155-7.048l29.563-29.563c.068-.067.144-.133.22-.202l.41-.367-.174-.522A12.843 12.843 0 0 1 42.63 1.999zM29.752 26.056c-.566 0-1.13.213-1.558.64L14.916 39.969a2.22 2.22 0 0 0 0 3.12l1.642 1.642a2.22 2.22 0 0 0 3.12 0l13.273-13.278a2.22 2.22 0 0 0 0-3.12l-1.637-1.637a2.205 2.205 0 0 0-1.562-.64zm-.367 1.83a.5.5 0 0 1 .734 0l1.642 1.642a.5.5 0 0 1 0 .734L18.488 43.536a.5.5 0 0 1-.734 0l-1.643-1.642a.495.495 0 0 1 0-.73l13.274-13.278zM7.078 48.777a3.955 3.955 0 0 0-2.805 1.158 3.979 3.979 0 0 0 0 5.608 3.979 3.979 0 0 0 5.609 0 3.979 3.979 0 0 0 0-5.608 3.955 3.955 0 0 0-2.804-1.158zm0 1.675c.581 0 1.165.225 1.613.673a2.27 2.27 0 0 1 0 3.228 2.266 2.266 0 0 1-3.223 0 2.272 2.272 0 0 1 0-3.228 2.266 2.266 0 0 1 1.61-.673z"></path>
  </symbol>
  <symbol viewBox="0 0 54 60" xmlns="http://www.w3.org/2000/svg" id="online_2">
    <path d="M53.903.62a1 1 0 0 0-.54-.54 1 1 0 0 0-.38-.08h-8a1 1 0 0 0 0 2h5.59l-9.44 9.43a14 14 0 0 0-20.69 2.64 1.003 1.003 0 0 0 1.65 1.14 12 12 0 1 1-2.11 7.19 1 1 0 1 0-2 .07 14.001 14.001 0 0 0 27.589 2.905 14 14 0 0 0-3.029-12.525l9.44-9.44V9a1 1 0 0 0 2 0V1a.997.997 0 0 0-.08-.38z"></path>
    <path d="M23.863 36.81a12 12 0 1 1 2.12-7.37 1.002 1.002 0 0 0 2-.09 14 14 0 1 0-15 14.65v5h-4a1 1 0 1 0 0 2h4v8a1 1 0 0 0 2 0v-8h4a1 1 0 1 0 0-2h-4v-5.06a14 14 0 0 0 10.53-6 1.003 1.003 0 1 0-1.65-1.14v.01z"></path>
  </symbol>
  <symbol viewBox="0 0 60 60" xmlns="http://www.w3.org/2000/svg" id="online_3">
    <path d="M60 24.44a8.614 8.614 0 0 0-.598-3.259 8.511 8.511 0 0 0-1.78-2.78 8.365 8.365 0 0 0-2.693-1.875 8.26 8.26 0 0 0-3.194-.687 8.473 8.473 0 0 0-3.926 1.05v-5.56a11.522 11.522 0 0 0-3.298-7.98A11.176 11.176 0 0 0 36.651 0H23.428a11.176 11.176 0 0 0-7.86 3.348 11.522 11.522 0 0 0-3.297 7.98v5.56a8.474 8.474 0 0 0-3.926-1.049 8.392 8.392 0 0 0-5.147 1.869 8.616 8.616 0 0 0-2.951 4.671 8.723 8.723 0 0 0 .472 5.529 8.553 8.553 0 0 0 3.7 4.085v24.755c0 .279.109.545.303.742.193.197.456.307.73.307h2.893v1.154c.023.27.14.524.328.715.19.192.439.31.705.334h3.719c.274 0 .537-.11.73-.307.194-.197.303-.464.303-.742v-1.154h31.82v1.154c0 .278.108.545.302.742.194.197.456.307.73.307h3.72a1.13 1.13 0 0 0 .704-.334c.189-.191.305-.445.329-.715v-1.154h2.892c.274 0 .537-.11.73-.307.194-.197.303-.464.303-.742V31.993a8.534 8.534 0 0 0 3.186-3.175 8.703 8.703 0 0 0 1.153-4.377zM23.427 2.099H36.65a9.126 9.126 0 0 1 6.4 2.734 9.408 9.408 0 0 1 2.692 6.497v7.657l-2.067 17.727H16.403l-2.066-17.727V11.33a9.408 9.408 0 0 1 2.692-6.497 9.126 9.126 0 0 1 6.399-2.734zM15.473 38.81h29.133c.302 0 .59.122.804.338.213.216.333.51.333.816v6.608a1.171 1.171 0 0 1-.294.885 1.138 1.138 0 0 1-.843.374H15.473a1.123 1.123 0 0 1-.842-.374 1.157 1.157 0 0 1-.294-.885v-6.608c0-.306.12-.6.332-.816.214-.216.503-.338.804-.338zm38.741-8.391c-.103.104-.207.104-.207.21 0 .104-.103 0-.103.104l-.207.21a.42.42 0 0 0-.103.315v24.44H6.485V31.47a.425.425 0 0 0-.103-.315l-.207-.21c0-.105 0-.105-.103-.105s-.103-.105-.207-.21a6.439 6.439 0 0 1-2.787-2.519 6.581 6.581 0 0 1-.932-3.67 6.486 6.486 0 0 1 .44-2.456 6.41 6.41 0 0 1 1.333-2.099 6.302 6.302 0 0 1 2.022-1.421 6.22 6.22 0 0 1 2.404-.527 5.941 5.941 0 0 1 4.029 1.573l2.066 17.413c-.62.23-1.156.642-1.543 1.184a3.39 3.39 0 0 0-.627 1.858v6.608c-.013.436.06.87.214 1.277.155.407.388.778.687 1.09a3.2 3.2 0 0 0 1.052.733c.396.17.82.257 1.25.257h29.133c.43 0 .855-.087 1.25-.257.396-.17.753-.419 1.052-.732a3.26 3.26 0 0 0 .687-1.09 3.3 3.3 0 0 0 .214-1.278v-6.608a3.39 3.39 0 0 0-.627-1.858 3.312 3.312 0 0 0-1.543-1.184l2.066-17.413a5.942 5.942 0 0 1 4.03-1.573 6.22 6.22 0 0 1 2.404.527 6.304 6.304 0 0 1 2.022 1.421 6.41 6.41 0 0 1 1.332 2.099c.304.781.454 1.616.44 2.457a6.578 6.578 0 0 1-.99 3.547 6.437 6.437 0 0 1-2.729 2.432z"></path>
  </symbol>
  <symbol viewBox="0 0 82 82" xmlns="http://www.w3.org/2000/svg" id="online_4">
    <path d="M68.164 28.245a3.246 3.246 0 0 0-.018-.032l-.187-.397a2.28 2.28 0 0 0-.136-.259c-.062-.133-.135-.259-.198-.391-.068-.143-.147-.28-.22-.407l-.103-.179c-.11-.19-.209-.385-.318-.575-.11-.19-.22-.379-.34-.562l-.103-.18c-.079-.136-.168-.267-.247-.404-.084-.12-.15-.236-.234-.357-.049-.084-.108-.162-.157-.246l-.25-.361-.019-.032a29.772 29.772 0 0 0-15.101-11.309c-.023-.015-.05-.013-.073-.028a29.807 29.807 0 0 0-1.682-.504l-.1-.026a89.32 89.32 0 0 1-.133-.036c-.249-.067-.509-.127-.758-.194-.05-.013-.11-.02-.166-.044-7.394-1.659-15.023-.512-21.621 3.297-6.946 4.01-11.913 10.474-13.98 18.212-1.86 6.93-1.2 14.133 1.822 20.535l.012.02.193.409c.043.074.075.153.123.238.069.143.142.269.21.412.063.133.142.27.22.406l.11.19c.104.179.203.375.306.554l.006.01.006.01c.104.18.213.37.327.542l.11.19c.072.127.162.257.235.384.09.13.169.267.258.398.043.074.096.142.145.226l.256.371.012.022c4.034 5.817 9.936 9.98 16.856 11.84 7.746 2.073 15.827 1.003 22.762-3.001 6.577-3.797 11.386-9.804 13.632-17.014.02-.039.023-.083.042-.122.077-.255.144-.505.222-.76l.04-.15.044-.166c.148-.548.278-1.101.398-1.648l.009-.033c1.328-6.413.555-12.96-2.212-18.849zm.796 14.863c-.007.159-.03.313-.037.471-.005.017.001.027-.003.044a28.391 28.391 0 0 1-3.184 10.574c-6.064-4.49-11.525-10.761-15.819-18.198-4.348-7.531-7.057-15.461-7.87-23.026 3.208.128 6.372.788 9.349 1.976.039.02.072.029.111.048.152.067.297.124.448.191a28.086 28.086 0 0 1 12.329 10.157c.059.078.101.152.15.236.043.074.102.152.144.226.102.152.2.32.307.483l.085.147c.104.18.218.352.327.542.104.179.213.369.306.554l.085.147c.097.169.178.333.265.508.042.073.074.153.117.227.049.084.093.185.13.275a27.925 27.925 0 0 1 2.76 14.418zM29.966 66.773c-.04-.02-.073-.028-.112-.048-.128-.052-.246-.11-.375-.162a28.072 28.072 0 0 1-11.757-9.898c-.06-.078-.108-.162-.167-.24-.043-.074-.102-.152-.144-.226-.102-.152-.2-.32-.301-.472l-.091-.158c-.104-.18-.218-.352-.315-.52l-.006-.011-.006-.01c-.104-.18-.207-.359-.294-.533l-.09-.158a8.62 8.62 0 0 1-.26-.497c-.048-.085-.086-.175-.135-.26-.043-.073-.075-.153-.117-.226-2.533-5.167-3.37-10.948-2.531-16.53a3.87 3.87 0 0 0 .042-.292c.008-.06.02-.137.027-.197a28.077 28.077 0 0 1 2.86-8.435c6.155 4.48 11.668 10.79 16.016 18.322 4.3 7.447 7 15.313 7.84 22.805a28.364 28.364 0 0 1-10.084-2.254zm12.046 2.244c-.85-7.824-3.645-16.026-8.115-23.768-4.525-7.837-10.293-14.395-16.72-19.054a27.89 27.89 0 0 1 9.796-9.49 27.89 27.89 0 0 1 13.117-3.74c.804 7.893 3.616 16.17 8.14 24.008 4.47 7.742 10.176 14.265 16.538 18.906a27.966 27.966 0 0 1-9.737 9.4 27.943 27.943 0 0 1-13.019 3.738z"></path>
  </symbol>
  <symbol viewBox="0 0 62 62" xmlns="http://www.w3.org/2000/svg" id="online_5">
    <path d="M54.74 35.684c-.906-.513-1.502-1.471-1.616-2.558h.316a.75.75 0 0 0 .75-.75V17.96c0-1.5-1.22-2.719-2.718-2.719h-5.94a2.722 2.722 0 0 0-2.718 2.719v14.417c0 .413.336.75.75.75h.316c-.117 1.083-.725 2.049-1.654 2.578-4.275 2.436-6.721 7-6.384 11.914.31 4.519 3.153 8.62 7.29 10.583v1.99c0 .414.336.75.75.75h9.242a.75.75 0 0 0 .75-.75v-1.979a12.66 12.66 0 0 0 7.32-11.487 12.714 12.714 0 0 0-6.453-11.042zm-.738 1.305a11.212 11.212 0 0 1 5.633 8.666H49.251V33.126h2.374c.122 1.628 1.002 3.086 2.377 3.863zm-9.69-19.03a1.22 1.22 0 0 1 1.22-1.218h5.938a1.22 1.22 0 0 1 1.219 1.219v13.667h-8.377V17.96zm-1.344 19.05c1.394-.795 2.287-2.26 2.41-3.883h2.374v12.529H37.366c.34-3.6 2.378-6.81 5.602-8.647zm9.863 20.026a.75.75 0 0 0-.458.691v1.717H44.63v-1.725a.75.75 0 0 0-.455-.69c-3.871-1.651-6.555-5.385-6.839-9.512-.008-.121-.007-.241-.012-.362h10.428v5.272a.75.75 0 0 0 1.499 0v-5.272h10.426a11.162 11.162 0 0 1-6.846 9.88zm-34.844-50a.75.75 0 0 0 .75-.75v-.887a.75.75 0 0 0-1.5 0v.887c0 .414.336.75.75.75z"></path>
    <path d="M3.981 58.57A2.967 2.967 0 0 0 6.9 61h22.174c1.432 0 2.66-1.022 2.928-2.498l2.816-31.035a9.027 9.027 0 0 0-1.945-7.43 9.024 9.024 0 0 0-6.955-3.259h-1.725v-1.711a2.956 2.956 0 0 0-1.768-2.697V8.944h2.65c.526 3.602 4.79 6.418 9.958 6.418 5.521 0 10.012-3.215 10.012-7.167 0-3.953-4.49-7.169-10.011-7.169-5.168 0-9.432 2.817-9.957 6.418h-2.651v-3.52C22.426 2.31 21.06 1 19.38 1h-2.785c-1.68 0-3.046 1.312-3.046 2.924v3.52h-2.165a.75.75 0 0 0 0 1.5h2.165v3.451a2.953 2.953 0 0 0-1.718 2.671v1.712h-1.776A9.024 9.024 0 0 0 3.1 20.036c-1.724 2.072-2.434 4.78-1.955 7.362L3.981 58.57zM35.034 2.526c4.694 0 8.513 2.542 8.513 5.668 0 3.125-3.819 5.668-8.513 5.668-4.695 0-8.514-2.543-8.514-5.668 0-3.126 3.818-5.668 8.514-5.668zm-18.44-.027h2.786c.852 0 1.546.64 1.546 1.425v8.185h-5.878V3.924c0-.786.694-1.425 1.547-1.425zm-3.263 12.567c0-.804.66-1.457 1.472-1.457h6.418c.812 0 1.472.653 1.472 1.457v1.712h-9.362v-1.712zm-9.078 5.93a7.53 7.53 0 0 1 5.802-2.72h15.863a7.53 7.53 0 0 1 5.803 2.72c1.439 1.728 2.03 3.988 1.614 6.267l-2.817 31.035a1.468 1.468 0 0 1-1.444 1.203H6.9c-.708 0-1.316-.506-1.434-1.135L2.63 27.195a7.531 7.531 0 0 1 1.623-6.199z"></path>
    <path d="M27.867 37.374a.747.747 0 0 0-.816.677l-1.28 13.707a.75.75 0 1 0 1.493.139l1.28-13.707a.751.751 0 0 0-.677-.816zM24.246 23.71a3.78 3.78 0 0 1 2.913 1.366c.722.867 1.02 2.002.806 3.178l-.525 5.618a.75.75 0 1 0 1.493.139l.516-5.551a5.276 5.276 0 0 0-1.138-4.344 5.276 5.276 0 0 0-4.065-1.905.75.75 0 0 0 0 1.5z"></path>
    <path d="M54.74 35.684c-.906-.513-1.502-1.471-1.616-2.558h.316a.75.75 0 0 0 .75-.75V17.96c0-1.5-1.22-2.719-2.718-2.719h-5.94a2.722 2.722 0 0 0-2.718 2.719v14.417c0 .413.336.75.75.75h.316c-.117 1.083-.725 2.049-1.654 2.578-4.275 2.436-6.721 7-6.384 11.914.31 4.519 3.153 8.62 7.29 10.583v1.99c0 .414.336.75.75.75h9.242a.75.75 0 0 0 .75-.75v-1.979a12.66 12.66 0 0 0 7.32-11.487 12.714 12.714 0 0 0-6.453-11.042zm-.738 1.305a11.212 11.212 0 0 1 5.633 8.666H49.251V33.126h2.374c.122 1.628 1.002 3.086 2.377 3.863zm-9.69-19.03a1.22 1.22 0 0 1 1.22-1.218h5.938a1.22 1.22 0 0 1 1.219 1.219v13.667h-8.377V17.96zm-1.344 19.05c1.394-.795 2.287-2.26 2.41-3.883h2.374v12.529H37.366c.34-3.6 2.378-6.81 5.602-8.647zm9.863 20.026a.75.75 0 0 0-.458.691v1.717H44.63v-1.725a.75.75 0 0 0-.455-.69c-3.871-1.651-6.555-5.385-6.839-9.512-.008-.121-.007-.241-.012-.362h10.428v5.272a.75.75 0 0 0 1.499 0v-5.272h10.426a11.162 11.162 0 0 1-6.846 9.88zm-34.844-50a.75.75 0 0 0 .75-.75v-.887a.75.75 0 0 0-1.5 0v.887c0 .414.336.75.75.75z" stroke-width=".4"></path>
    <path d="M3.981 58.57A2.967 2.967 0 0 0 6.9 61h22.174c1.432 0 2.66-1.022 2.928-2.498l2.816-31.035a9.027 9.027 0 0 0-1.945-7.43 9.024 9.024 0 0 0-6.955-3.259h-1.725v-1.711a2.956 2.956 0 0 0-1.768-2.697V8.944h2.65c.526 3.602 4.79 6.418 9.958 6.418 5.521 0 10.012-3.215 10.012-7.167 0-3.953-4.49-7.169-10.011-7.169-5.168 0-9.432 2.817-9.957 6.418h-2.651v-3.52C22.426 2.31 21.06 1 19.38 1h-2.785c-1.68 0-3.046 1.312-3.046 2.924v3.52h-2.165a.75.75 0 0 0 0 1.5h2.165v3.451a2.953 2.953 0 0 0-1.718 2.671v1.712h-1.776A9.024 9.024 0 0 0 3.1 20.036c-1.724 2.072-2.434 4.78-1.955 7.362L3.981 58.57zM35.034 2.526c4.694 0 8.513 2.542 8.513 5.668 0 3.125-3.819 5.668-8.513 5.668-4.695 0-8.514-2.543-8.514-5.668 0-3.126 3.818-5.668 8.514-5.668zm-18.44-.027h2.786c.852 0 1.546.64 1.546 1.425v8.185h-5.878V3.924c0-.786.694-1.425 1.547-1.425zm-3.263 12.567c0-.804.66-1.457 1.472-1.457h6.418c.812 0 1.472.653 1.472 1.457v1.712h-9.362v-1.712zm-9.078 5.93a7.53 7.53 0 0 1 5.802-2.72h15.863a7.53 7.53 0 0 1 5.803 2.72c1.439 1.728 2.03 3.988 1.614 6.267l-2.817 31.035a1.468 1.468 0 0 1-1.444 1.203H6.9c-.708 0-1.316-.506-1.434-1.135L2.63 27.195a7.531 7.531 0 0 1 1.623-6.199z" stroke-width=".4"></path>
    <path d="M27.867 37.374a.747.747 0 0 0-.816.677l-1.28 13.707a.75.75 0 1 0 1.493.139l1.28-13.707a.751.751 0 0 0-.677-.816zM24.246 23.71a3.78 3.78 0 0 1 2.913 1.366c.722.867 1.02 2.002.806 3.178l-.525 5.618a.75.75 0 1 0 1.493.139l.516-5.551a5.276 5.276 0 0 0-1.138-4.344 5.276 5.276 0 0 0-4.065-1.905.75.75 0 0 0 0 1.5z" stroke-width=".4"></path>
  </symbol>
  <symbol viewBox="0 0 86 60" xmlns="http://www.w3.org/2000/svg" id="online_6">
    <path d="M65.435 0C54.528 0 45.58 8.561 44.913 19.335l-3.992-4.927c-.008-.01-.021-.015-.03-.026-.008-.008-.019-.014-.026-.021a.93.93 0 0 0-1.172-.151c-.056.035-.095.086-.14.132a.967.967 0 0 0-.066.062.997.997 0 0 0-.078.108c-.016.027-.039.047-.053.075l-2.9 5.942V11.25c0-.012-.006-.023-.006-.035a.914.914 0 0 0-.065-.324l-.001-.003c-.003-.007-.01-.014-.014-.021a.93.93 0 0 0-.168-.25c-.022-.025-.046-.044-.07-.065a.932.932 0 0 0-.195-.132c-.03-.015-.057-.03-.089-.042a.93.93 0 0 0-.326-.066H8.413a.93.93 0 0 0-.66.275l-7.48 7.5v.002a.932.932 0 0 0-.18.268c-.014.028-.021.058-.031.088a.895.895 0 0 0-.05.248c-.002.02-.012.036-.012.057v27.188c0 .517.419.937.935.937H23.6l-5.746 11.776a.937.937 0 0 0 .84 1.35h43l.064-.003c.023-.002.042-.011.064-.014a.9.9 0 0 0 .256-.073.963.963 0 0 0 .138-.079c.027-.019.055-.036.08-.058.04-.036.077-.076.113-.118.02-.024.042-.046.059-.073.005-.009.014-.015.02-.025a.924.924 0 0 0 .076-.166c.005-.014.014-.023.018-.036l.004-.012v-.003l3.567-10.86a.939.939 0 0 0-.163-.885l-5.665-6.988a20.49 20.49 0 0 0 5.109.642C76.775 41.25 86 31.998 86 20.625S76.775 0 65.435 0zM28.978 35.856V19.138l5.609-5.625v10.848l-5.609 11.495zM8.8 12.187h24.465l-5.608 5.626H3.19l5.61-5.625zM24.304 45H1.87V19.687h25.239v19.688c0 .079.026.148.045.221l-2.656 5.443c-.065-.014-.125-.039-.194-.039zm15.892-27.867l20.001 40.992H20.194l20.002-40.992zm21.33 39.449L45.17 23.063l7.04 10.5 4.6 5.68c.002.005.008.006.012.01l7.396 9.128-2.693 8.2zm3.909-17.207c-2.55 0-5.01-.5-7.316-1.49l-4.407-5.436-6.914-10.318c-.04-.493-.059-.998-.059-1.506 0-10.339 8.387-18.75 18.696-18.75 10.309 0 18.695 8.411 18.695 18.75s-8.386 18.75-18.695 18.75z"></path>
    <path d="M66.427 4.736a.937.937 0 1 0-.116 1.871 13.97 13.97 0 0 1 12.685 10.501.936.936 0 0 0 1.138.674c.5-.129.801-.64.672-1.141A15.837 15.837 0 0 0 66.427 4.736z"></path>
  </symbol>
  <symbol viewBox="0 0 54 62" xmlns="http://www.w3.org/2000/svg" id="online_7">
    <path d="M53 34.422c0-1.163-.94-2.11-2.095-2.11h-.336V5.453C50.57 2.998 48.586 1 46.147 1h-34.91C8.8 1 6.815 2.998 6.815 5.453v26.86H6.48a2.104 2.104 0 0 0-2.095 2.109v1.122c0 .542.21 1.032.545 1.407-.306.341-.499.78-.53 1.268H1.7a.7.7 0 0 0-.699.703.7.7 0 0 0 .698.703H4.4c.076 1.094.975 1.963 2.08 1.963h.336v15.896c0 1.939 1.566 3.516 3.492 3.516h36.771c1.925 0 3.491-1.577 3.491-3.516V41.588h.336A2.104 2.104 0 0 0 53 39.478v-1.121c0-.542-.21-1.032-.545-1.407.335-.374.545-.864.545-1.406v-1.122zm-44.788-19.5h40.96v5.194H8.213v-5.194zm40.96-1.406H8.213V8.322h40.96v5.194zm-40.96 8.006h40.96v5.203H8.213v-5.203zm3.026-19.116h34.91c1.667 0 3.025 1.367 3.025 3.047v1.463H8.212V5.453c0-1.68 1.357-3.047 3.026-3.047zM8.212 28.132h40.96v4.18H8.213v-4.18zm-2.431 6.29c0-.388.313-.703.698-.703h44.426c.385 0 .698.315.698.703v1.122a.701.701 0 0 1-.698.703H6.48a.701.701 0 0 1-.698-.703v-1.122zm43.392 23.062c0 1.163-.94 2.11-2.095 2.11H10.307a2.104 2.104 0 0 1-2.095-2.11V41.588h2.328v14.959a.7.7 0 0 0 .698.703H46.15a.7.7 0 0 0 .698-.703V41.588h2.325v15.896zm-17.92-15.896h14.198v14.256H31.254V41.588zm-3.723 0h2.326v14.256H27.53V41.588zm-1.398 14.256H11.936V41.588h14.196v14.256zm25.471-16.365a.701.701 0 0 1-.698.703H6.48a.701.701 0 0 1-.698-.703v-1.122c0-.388.313-.703.698-.703h44.426c.385 0 .698.315.698.703v1.122z" stroke-width=".5"></path>
  </symbol>
  <symbol viewBox="0 0 62 62" xmlns="http://www.w3.org/2000/svg" id="online_8">
    <path d="M31 1C14.44 1 1 14.44 1 31c0 16.56 13.44 30 30 30 16.56 0 30-13.44 30-30C61 14.44 47.56 1 31 1zm0 1.304c15.856 0 28.696 12.84 28.696 28.696 0 15.856-12.84 28.696-28.696 28.696-15.856 0-28.696-12.84-28.696-28.696C2.304 15.144 15.144 2.304 31 2.304zm0 6.522C18.761 8.826 8.826 18.761 8.826 31c0 12.239 9.935 22.174 22.174 22.174 12.239 0 22.174-9.935 22.174-22.174 0-12.239-9.935-22.174-22.174-22.174zm0 1.304c1.204 0 2.378.111 3.526.306-.812 2.304-1.052 5.355-.836 8.173.317 2.387.575 5.534 2.446 7.031 2.128 1.231 4.63.77 6.725.265 2.613-.638 5.383-1.733 7.52-2.67a20.71 20.71 0 0 1 1.325 5.238c-2.424.245-5.298.625-7.826 1.243-2.14.637-5.046 1.298-6.053 3.281-.725 2.511.495 5.045 1.63 7.032 1.44 2.492 3.486 4.945 5.585 6.42a21.008 21.008 0 0 1-4.524 3.138c-.764-2.205-2.136-4.642-3.71-6.665-1.764-2.267-3.743-4.096-5.808-4.096-2.424.422-4.187 2.398-5.564 4.076-1.641 2.014-3.136 4.46-3.933 6.685a20.987 20.987 0 0 1-4.545-3.139c2.106-1.472 4.146-3.945 5.584-6.44 1.057-2.05 2.6-4.897 1.63-7.01-1.398-2.077-3.927-2.757-6.052-3.282-2.529-.618-5.402-.998-7.827-1.243a20.749 20.749 0 0 1 1.386-5.34c2.13.934 4.893 2.047 7.48 2.71 2.154.452 4.953 1.096 6.705-.203 1.858-1.905 2.256-4.665 2.446-7.031.216-2.818-.023-5.87-.836-8.173 1.227-.171 2.473-.302 3.526-.306zm-4.83.571c.758 2.028 1.067 5.055.856 7.806-.28 2.169-.473 4.463-1.957 6.093-1.791.874-3.86.417-5.584-.02-2.472-.634-5.197-1.728-7.296-2.65 2.481-5.537 7.925-9.855 13.98-11.229zm9.66 0a20.893 20.893 0 0 1 14.022 11.332c-2.093.916-4.837 2.003-7.317 2.608-1.887.387-3.902.86-5.604-.04-1.442-1.708-1.793-4.063-1.957-6.094-.211-2.751.098-5.778.856-7.806zM31 24.478a1.304 1.304 0 1 0 0 2.609 1.304 1.304 0 0 0 0-2.609zm-5.217 3.913a1.304 1.304 0 1 0 0 2.609 1.304 1.304 0 0 0 0-2.609zm10.434 0a1.304 1.304 0 1 0 0 2.609 1.304 1.304 0 0 0 0-2.609zm-26.046 1.386c2.392.241 5.22.61 7.643 1.203 1.88.563 4.02.995 5.197 2.588.398 2.081-.645 4.134-1.59 5.788-1.406 2.44-3.489 4.91-5.4 6.175A20.81 20.81 0 0 1 10.13 31c0-.409.017-.82.04-1.223zm41.658 0a20.799 20.799 0 0 1-5.85 15.754c-1.902-1.271-3.975-3.722-5.38-6.155-1.012-1.868-1.967-3.731-1.61-5.808 1.285-1.584 3.417-2.148 5.197-2.588a69.783 69.783 0 0 1 7.643-1.203zm-24.09 5.136a1.304 1.304 0 1 0 0 2.609 1.304 1.304 0 0 0 0-2.609zm6.522 0a1.304 1.304 0 1 0 0 2.609 1.304 1.304 0 0 0 0-2.609zM31 40.13c1.196 0 3.13 1.453 4.79 3.587 1.513 1.946 2.834 4.382 3.525 6.44A20.825 20.825 0 0 1 31 51.87c-2.955 0-5.77-.606-8.315-1.712.71-2.041 2.178-4.486 3.77-6.44C27.785 42.2 29.07 40.69 31 40.13z" stroke-width=".5"></path>
  </symbol>
  <symbol viewBox="0 0 61 62" xmlns="http://www.w3.org/2000/svg" id="online_9">
    <path d="M59.989 55.99l-4.243-19.84a8.493 8.493 0 0 0-2.414-4.336l-.077-.076c-.074-.07-.143-.138-.21-.204a11.185 11.185 0 0 1-.526-.556c-1.288-1.426-2.263-3.197-2.82-5.123a12.8 12.8 0 0 1-.513-3.57c0-3.675-.563-6.156-1.16-8.783-.704-3.105-1.433-6.316-1.433-12.01A.49.49 0 0 0 46.108 1h-7.711a.49.49 0 0 0-.486.493c0 4.578-.766 8.056-2.276 10.338-1.216 1.837-2.892 2.808-4.846 2.808-.088 0-.17 0-.246-.006a.498.498 0 0 0-.061-.001 5.77 5.77 0 0 1-.266.006c-1.954 0-3.63-.971-4.848-2.808-.587-.886-1.061-1.953-1.422-3.193-.57-1.956-.857-4.344-.857-7.144A.494.494 0 0 0 22.603 1h-7.711a.49.49 0 0 0-.486.493c0 5.694-.726 8.905-1.43 12.01-.593 2.626-1.155 5.107-1.155 8.782a12.6 12.6 0 0 1-.44 3.299.491.491 0 0 0-.191.649 13.405 13.405 0 0 1-.64 1.618 12.9 12.9 0 0 1-1.94 2.98.489.489 0 0 0-.44.487v.002c-.13.136-.268.273-.42.415a8.432 8.432 0 0 0-2.49 4.418L1.012 55.99a.496.496 0 0 0 .325.573c4.03 1.33 8.38 2.384 12.933 3.134a.484.484 0 0 0 .44.29.48.48 0 0 0 .36-.163l.35.054c4.867.73 9.91 1.109 15.003 1.122h.081c4.506-.006 8.959-.298 13.274-.868a95.612 95.612 0 0 0 2.435-.352c4.462-.709 8.72-1.704 12.667-2.962.263-.084.525-.169.785-.255a.494.494 0 0 0 .325-.573zm-15.087 2.992a113 113 0 0 1-1.849.25c-.176.023-.353.044-.53.065l-.4.048-.545.061-.39.043c-.188.02-.376.038-.565.057l-.373.038-.598.055-.344.031c-.224.02-.448.038-.672.056l-.272.022c-.314.024-.629.047-.944.069h-.004c-.321.022-.643.042-.965.06-.066.005-.132.008-.199.012-.251.014-.503.028-.755.04l-.323.014-.634.029-.368.013-.591.02-.397.01a105.23 105.23 0 0 1-.98.023l-.546.008-.43.004-.32.002-.092-28.201h6.917l7.804 27.076-.224.034-.41.06zm-15.66 1.022l-.556-.01-.404-.008-.568-.014-.392-.012-.584-.02-.373-.015c-.205-.008-.41-.018-.614-.027-.114-.006-.227-.01-.34-.017-.225-.01-.45-.023-.673-.036l-.281-.016c-.281-.017-.562-.035-.842-.054l-.11-.007c-.321-.022-.642-.046-.963-.07l-.115-.01a97.876 97.876 0 0 1-.83-.07l-.297-.027c-.214-.02-.428-.039-.641-.06-.122-.011-.243-.024-.365-.036l-.573-.059-.391-.043-.543-.061-.407-.049a113.387 113.387 0 0 1-1.45-.185 95.205 95.205 0 0 1-1.348-.193c-.074-.01-.147-.022-.22-.033l3.296-13.373 3.375-13.689h7.811l.09 27.395.002.805c-.093 0-.186 0-.279-.002-.138 0-.276-.002-.415-.004zm-16.347-1.545l-.239-.044c-.46-.084-.919-.172-1.374-.264l-.225-.045a88.89 88.89 0 0 1-1.368-.289l-.208-.046a85.759 85.759 0 0 1-1.364-.314l-.187-.045a79.79 79.79 0 0 1-1.363-.34l-.16-.042a77.98 77.98 0 0 1-1.368-.37c-.041-.01-.082-.023-.124-.034-.463-.13-.922-.264-1.378-.401l-.08-.025c-.467-.14-.929-.285-1.387-.433l-.015-.005L6.21 36.361a7.449 7.449 0 0 1 2.197-3.902c.072-.067.141-.133.209-.199l.025-.025c.057-.055.112-.11.165-.166l.038-.04c.053-.054.104-.109.155-.164l.023-.025.027-.03h11.982l-6.634 26.91-.121-.02a92.228 92.228 0 0 1-1.382-.24zm25.203-27.634H9.877l.023-.031c.107-.14.21-.281.312-.425l.063-.093c.09-.129.177-.26.261-.392l.05-.076c.095-.15.187-.302.276-.456l.06-.105c.082-.145.163-.29.24-.439l.025-.046a14.383 14.383 0 0 0 .717-1.62l.04-.108c.062-.173.123-.348.179-.524l.003-.009h36.753l.003.008c.055.174.115.346.177.517l.044.123c.064.171.13.341.2.51l.008.02c.068.164.14.326.214.487l.05.108c.078.165.158.33.242.491l.023.044c.08.152.162.302.246.45l.05.088c.092.158.186.315.284.47l.036.055c.09.142.184.283.28.421l.047.068c.104.149.21.295.32.438.006.009.012.018.02.026H38.097zM12.485 25.16c.029-.13.055-.26.079-.391l.014-.077c.025-.138.048-.276.068-.415l.022-.16a13.516 13.516 0 0 0 .11-1.22l.007-.163c.005-.136.007-.273.008-.41v-.04c0-3.563.55-5.99 1.132-8.561.661-2.926 1.41-6.23 1.452-11.738h6.744c.03 2.552.304 4.774.816 6.65.398 1.46.94 2.71 1.625 3.745 1.777 2.68 4.055 3.243 5.653 3.243h.088v9.893h-17.9c.017-.065.03-.13.045-.195.013-.054.026-.107.037-.162zM45.624 1.985c.042 5.508.792 8.813 1.456 11.738.583 2.57 1.134 4.999 1.134 8.562 0 .15.004.302.009.453l.005.127c.005.108.01.217.018.326l.011.153a12.961 12.961 0 0 0 .084.777l.018.135c.02.14.043.28.068.42l.005.028c.027.15.057.3.089.45l.027.121.055.241H31.274v-9.909l.103-.008.044-.004c.05-.005.103-.01.154-.017l.064-.008.097-.013.073-.011.089-.014.078-.014a7.757 7.757 0 0 0 .336-.071 13.921 13.921 0 0 0 .26-.069c.027-.007.055-.015.082-.024l.092-.028.082-.026.1-.035.074-.026c.056-.02.113-.042.17-.065l.075-.031.1-.043.083-.037.094-.043.085-.042.092-.046a7.206 7.206 0 0 0 .535-.309l.086-.056.094-.065.083-.057.102-.075.074-.056a7.18 7.18 0 0 0 .17-.135c.022-.017.043-.036.064-.054l.112-.095c.026-.022.051-.046.077-.07l.097-.088c.027-.025.054-.05.08-.077l.093-.09.081-.083a7.558 7.558 0 0 0 .598-.69l.075-.098.093-.128.069-.095.121-.177.037-.054c1.564-2.362 2.383-5.858 2.438-10.394h6.744zm12.582 54.013l-.288.089c-.154.047-.307.095-.461.141l-.335.099c-.14.042-.28.084-.42.124l-.36.103-.404.115-.372.102c-.132.036-.264.073-.397.108l-.382.101-.395.104-.387.098-.397.1c-.13.033-.262.064-.393.096l-.396.096a68.608 68.608 0 0 1-.796.185l-.403.09a80.106 80.106 0 0 1-1.208.26c-.135.029-.27.056-.407.084a89.273 89.273 0 0 1-.814.162l-.415.08a94.851 94.851 0 0 1-2.066.365l-.205.034-7.76-26.923h13.208l.01.011.039.041c.043.047.088.093.134.141l.055.058.138.139.055.055.205.2.002.002.044.043a7.515 7.515 0 0 1 2.162 3.86l4.149 19.402c-.245.079-.492.158-.74.235z" stroke-width=".7"></path>
  </symbol>
  <symbol viewBox="0 0 62 62" xmlns="http://www.w3.org/2000/svg" id="online_10">
    <path d="M46.275 6.419a.737.737 0 0 0-.164-.676l-4.12-4.494a.745.745 0 0 0-.435-.238h-.001V1.01l-.021-.003h-.001a.615.615 0 0 0-.11-.007H20.39a1.031 1.031 0 0 0-.098.006l-.053.008a.745.745 0 0 0-.416.235l-4.12 4.494a.747.747 0 0 0-.14.78c-2.675.965-9.027 3.485-12.39 6.743a.726.726 0 0 0-.035.037C1.844 14.566 1 15.939 1 17.375v34a.75.75 0 0 0 .442.684l8.344 3.75c.02.009.04.006.06.013v4.428c0 .414.336.75.75.75h40.808a.75.75 0 0 0 .75-.75v-4.428c.02-.007.04-.004.06-.013l8.344-3.75a.75.75 0 0 0 .442-.684v-34c0-5.302-11.356-9.753-14.725-10.956zm-1.765-.203l-8.149 7.819-3.99-4.66 8.964-6.62 3.175 3.461zM39.154 2.5l-8.248 6.09-8.248-6.09h16.496zm-18.677.255l8.965 6.62-3.99 4.66-8.149-7.819 3.174-3.461zM2.5 50.89V17.375c0-.893.51-1.802 1.349-2.69 5.719 2.582 5.995 11.12 5.997 11.19v28.317L2.5 50.89zm2.54-37.292c3.223-2.59 8.716-4.869 11.657-5.885l8.288 7.953a.751.751 0 0 0 1.09-.053l4.081-4.766V59.5h-18.81V25.858c-.009-.387-.28-9.041-6.306-12.26zM50.654 59.5H31.656V10.847l4.082 4.766a.751.751 0 0 0 1.09.053L45.2 7.632c2.557.872 7.38 2.842 10.714 5.164-4.89 2.318-5.246 12.583-5.26 13.079V59.5zm8.846-8.61l-7.346 3.302V25.897c.09-3.125 1.206-11.224 5.188-12 1.307 1.134 2.158 2.319 2.158 3.478V50.89z" stroke-width=".7"></path>
  </symbol>
  <symbol viewBox="0 0 61 62" xmlns="http://www.w3.org/2000/svg" id="online_11">
    <path d="M34.265 22.928a2.368 2.368 0 0 1-2.199-1.509 2.354 2.354 0 0 1 2.193-3.193c.968 0 1.852.606 2.198 1.509a2.335 2.335 0 0 1-.049 1.798 2.335 2.335 0 0 1-2.143 1.395zm-.006-3.61a1.26 1.26 0 0 0-1.172 1.71c.185.483.658.807 1.178.807a1.25 1.25 0 0 0 1.145-.747 1.25 1.25 0 0 0 .027-.962 1.268 1.268 0 0 0-1.178-.808zM21.01 31.428a2.368 2.368 0 0 1-2.2-1.509 2.354 2.354 0 0 1 2.193-3.193c.969 0 1.852.606 2.198 1.509a2.354 2.354 0 0 1-2.191 3.193zm-.007-3.61a1.26 1.26 0 0 0-1.172 1.71c.185.483.659.808 1.178.808a1.26 1.26 0 0 0 1.172-1.71 1.268 1.268 0 0 0-1.178-.808zM9.33 20.433c-1.218 0-2.117-.26-2.378-.941-.591-1.542 2.67-3.657 5.866-5.304-3.106-1.814-6.25-4.099-5.579-5.607.672-1.508 4.474-.698 7.9.398-.914-3.48-1.523-7.318.019-7.909 1.542-.592 3.656 2.67 5.304 5.866 1.814-3.106 4.1-6.25 5.607-5.58 1.508.674.697 4.476-.399 7.902.927-.242 1.8-.44 2.606-.59a.545.545 0 1 1 .2 1.073c-1.053.197-2.23.478-3.495.836a.547.547 0 0 1-.665-.701c1.742-5.114 1.626-7.307 1.306-7.523-.368-.093-2.076 1.287-4.714 6.004a.546.546 0 1 1-.967-.026c-2.383-4.846-4.016-6.314-4.394-6.24-.327.195-.559 2.377.912 7.577a.547.547 0 0 1-.701.666C10.643 8.591 8.45 8.707 8.236 9.027c-.093.37 1.287 2.076 6.003 4.713a.546.546 0 0 1-.025.967c-4.849 2.385-6.316 4.017-6.241 4.395.192.32 2.328.553 7.407-.865a.546.546 0 1 1 .294 1.052c-2.144.599-4.58 1.143-6.343 1.143z"></path>
    <path d="M25.734 42.461c-1.497 0-3.408-2.995-4.924-5.937-1.646 2.82-3.68 5.671-5.17 5.672-.151 0-.297-.03-.436-.091-1.51-.673-.699-4.474.397-7.9-3.479.913-7.317 1.522-7.909-.02-.591-1.541 2.67-3.656 5.867-5.304-3.106-1.814-6.251-4.098-5.58-5.607.672-1.508 4.474-.698 7.9.398-.914-3.48-1.522-7.318.02-7.91.305-.117.655-.088 1.037.088 1.315.6 3.367 3.205 4.745 7.02a.546.546 0 0 1-1.027.37c-1.597-4.42-3.877-6.528-4.374-6.454-.32.193-.55 2.375.92 7.575a.546.546 0 0 1-.702.666c-5.115-1.742-7.307-1.626-7.521-1.306-.093.37 1.287 2.076 6.003 4.714a.546.546 0 0 1-.025.967c-4.85 2.385-6.317 4.016-6.242 4.394.197.327 2.38.558 7.578-.912a.546.546 0 0 1 .665.702c-1.743 5.115-1.626 7.307-1.305 7.521.372.092 2.077-1.289 4.713-6.004a.546.546 0 1 1 .967.025c2.385 4.85 4.02 6.315 4.395 6.242.326-.196.557-2.38-.913-7.578a.547.547 0 0 1 .702-.666c5.113 1.743 7.306 1.627 7.522 1.306 0-.002.04-.8-2.998-2.871a.546.546 0 0 1 .615-.903c4.034 2.75 3.542 3.857 3.38 4.221-.673 1.509-4.475.698-7.9-.398.913 3.48 1.522 7.318-.02 7.91-.123.048-.25.07-.38.07z"></path>
    <path d="M38.584 33.207c-1.544 0-3.589-3.39-4.908-5.94-1.43 2.44-3.616 5.675-5.152 5.676-.16 0-.313-.032-.454-.095-1.51-.672-.699-4.475.397-7.9-2.298.598-4.262.924-5.6.924h-.007c-.488 0-1.941-.004-2.302-.943-.591-1.541 2.67-3.656 5.867-5.304-3.107-1.814-6.252-4.098-5.58-5.607.37-.83 1.572-.83 1.966-.83 1.348 0 3.431.433 5.934 1.229-.914-3.48-1.523-7.319.019-7.91.125-.048.258-.072.396-.072 1.545 0 3.589 3.39 4.908 5.94 1.43-2.441 3.616-5.676 5.152-5.676.16 0 .314.032.455.095 1.508.673.697 4.475-.399 7.9 2.3-.599 4.264-.925 5.602-.925.481 0 1.946 0 2.308.944.592 1.541-2.67 3.656-5.867 5.304 3.106 1.814 6.251 4.097 5.58 5.606-.37.831-1.571.831-1.966.831-1.348 0-3.431-.433-5.934-1.23.914 3.48 1.523 7.32-.019 7.911a1.096 1.096 0 0 1-.396.072zm-4.878-7.64h.015a.546.546 0 0 1 .475.305c2.237 4.548 3.878 6.243 4.388 6.243h.007c.327-.197.558-2.381-.912-7.579a.546.546 0 0 1 .701-.666c2.783.948 5.171 1.492 6.553 1.492.808 0 .968-.184.97-.185.091-.37-1.29-2.078-6.005-4.714a.547.547 0 0 1 .025-.966c4.847-2.384 6.316-4.017 6.242-4.396 0 0-.196-.24-1.287-.24-1.428 0-3.662.41-6.29 1.153a.546.546 0 0 1-.666-.702c1.742-5.113 1.626-7.306 1.306-7.522-.55.001-2.251 1.6-4.714 6.004a.546.546 0 1 1-.967-.026c-2.236-4.547-3.878-6.241-4.387-6.241-.334.196-.565 2.378.905 7.578a.547.547 0 0 1-.701.666c-2.783-.948-5.171-1.492-6.553-1.492-.808 0-.968.184-.97.186-.092.37 1.288 2.076 6.005 4.714a.546.546 0 0 1-.026.967c-4.85 2.384-6.317 4.016-6.241 4.394.001 0 .198.24 1.287.24 1.43 0 3.663-.41 6.29-1.152a.546.546 0 0 1 .666.702c-1.743 5.115-1.627 7.307-1.306 7.521.55 0 2.251-1.6 4.714-6.004a.546.546 0 0 1 .476-.28z"></path>
    <path d="M46.824 61a.545.545 0 0 1-.437-.218c-3.875-5.148-10.263-7.926-16.672-7.252l-4.67.492a14.869 14.869 0 0 1-13.368-5.815.546.546 0 1 1 .873-.657 13.77 13.77 0 0 0 12.38 5.385l4.67-.492c3.35-.352 6.754.172 9.843 1.515a19.583 19.583 0 0 1 7.483 5.736l6.658-5.013a19.583 19.583 0 0 1-3.442-8.777c-.437-3.34 0-6.756 1.266-9.877l1.764-4.352a13.77 13.77 0 0 0-1.752-13.388.546.546 0 1 1 .873-.657 14.87 14.87 0 0 1 1.891 14.455l-1.764 4.352c-2.42 5.972-1.516 12.88 2.36 18.028a.546.546 0 0 1-.109.765l-7.518 5.66a.545.545 0 0 1-.329.11z"></path>
    <path d="M27.478 47.514c-.243 0-.487-.03-.728-.092l-6.71-1.718a.546.546 0 1 1 .27-1.058l6.71 1.718a1.875 1.875 0 0 0 2-.748l.872-1.264a7.868 7.868 0 0 1 8.679-3.095l.277.08a2.95 2.95 0 0 1 1.902 1.69c.27.636.841 1.058 1.53 1.129a1.844 1.844 0 0 0 1.725-.798l.554-.802a5.75 5.75 0 0 0 .714-5.067l-.419-1.25a6.16 6.16 0 0 1 2.138-6.887l3.208-2.416a.546.546 0 1 1 .657.873l-3.208 2.415a5.069 5.069 0 0 0-1.76 5.668l.42 1.25a6.846 6.846 0 0 1-.851 6.034l-.553.803a2.92 2.92 0 0 1-2.737 1.263 2.92 2.92 0 0 1-2.424-1.79 1.86 1.86 0 0 0-1.2-1.065l-.277-.08a6.778 6.778 0 0 0-7.475 2.665l-.872 1.264a2.972 2.972 0 0 1-2.442 1.278zm13.42 7.85a.545.545 0 0 1-.329-.983l9.667-7.278a.546.546 0 1 1 .658.873l-9.668 7.278a.544.544 0 0 1-.328.11zM56.124 6.922a1.345 1.345 0 1 1 0-2.69 1.345 1.345 0 0 1 0 2.69zm-53.78 6.722a1.344 1.344 0 1 1 0-2.689 1.344 1.344 0 0 1 0 2.69zm8.067 28.235a1.345 1.345 0 1 1 0-2.69 1.345 1.345 0 0 1 0 2.69zM34.612 4.233a1.345 1.345 0 1 1 0-2.69 1.345 1.345 0 0 1 0 2.69zm9.641 3.247l1.902 1.9 1.901-1.9-1.901-1.902-1.902 1.901zm12.1 9.641l1.902 1.902 1.901-1.902-1.901-1.9-1.902 1.9zM2.342 43.778l1.902 1.901 1.901-1.9-1.901-1.902-1.902 1.901zM3.92 28.99l1.9 1.901 1.902-1.901-1.901-1.901-1.902 1.901zM6.609 3.445l1.9 1.902 1.902-1.902L8.51 1.544 6.609 3.445z"></path>
    <path d="M34.265 22.928a2.368 2.368 0 0 1-2.199-1.509 2.354 2.354 0 0 1 2.193-3.193c.968 0 1.852.606 2.198 1.509a2.335 2.335 0 0 1-.049 1.798 2.335 2.335 0 0 1-2.143 1.395zm-.006-3.61a1.26 1.26 0 0 0-1.172 1.71c.185.483.658.807 1.178.807a1.25 1.25 0 0 0 1.145-.747 1.25 1.25 0 0 0 .027-.962 1.268 1.268 0 0 0-1.178-.808zM21.01 31.428a2.368 2.368 0 0 1-2.2-1.509 2.354 2.354 0 0 1 2.193-3.193c.969 0 1.852.606 2.198 1.509a2.354 2.354 0 0 1-2.191 3.193zm-.007-3.61a1.26 1.26 0 0 0-1.172 1.71c.185.483.659.808 1.178.808a1.26 1.26 0 0 0 1.172-1.71 1.268 1.268 0 0 0-1.178-.808zM9.33 20.433c-1.218 0-2.117-.26-2.378-.941-.591-1.542 2.67-3.657 5.866-5.304-3.106-1.814-6.25-4.099-5.579-5.607.672-1.508 4.474-.698 7.9.398-.914-3.48-1.523-7.318.019-7.909 1.542-.592 3.656 2.67 5.304 5.866 1.814-3.106 4.1-6.25 5.607-5.58 1.508.674.697 4.476-.399 7.902.927-.242 1.8-.44 2.606-.59a.545.545 0 1 1 .2 1.073c-1.053.197-2.23.478-3.495.836a.547.547 0 0 1-.665-.701c1.742-5.114 1.626-7.307 1.306-7.523-.368-.093-2.076 1.287-4.714 6.004a.546.546 0 1 1-.967-.026c-2.383-4.846-4.016-6.314-4.394-6.24-.327.195-.559 2.377.912 7.577a.547.547 0 0 1-.701.666C10.643 8.591 8.45 8.707 8.236 9.027c-.093.37 1.287 2.076 6.003 4.713a.546.546 0 0 1-.025.967c-4.849 2.385-6.316 4.017-6.241 4.395.192.32 2.328.553 7.407-.865a.546.546 0 1 1 .294 1.052c-2.144.599-4.58 1.143-6.343 1.143z" stroke-width=".5"></path>
    <path d="M25.734 42.461c-1.497 0-3.408-2.995-4.924-5.937-1.646 2.82-3.68 5.671-5.17 5.672-.151 0-.297-.03-.436-.091-1.51-.673-.699-4.474.397-7.9-3.479.913-7.317 1.522-7.909-.02-.591-1.541 2.67-3.656 5.867-5.304-3.106-1.814-6.251-4.098-5.58-5.607.672-1.508 4.474-.698 7.9.398-.914-3.48-1.522-7.318.02-7.91.305-.117.655-.088 1.037.088 1.315.6 3.367 3.205 4.745 7.02a.546.546 0 0 1-1.027.37c-1.597-4.42-3.877-6.528-4.374-6.454-.32.193-.55 2.375.92 7.575a.546.546 0 0 1-.702.666c-5.115-1.742-7.307-1.626-7.521-1.306-.093.37 1.287 2.076 6.003 4.714a.546.546 0 0 1-.025.967c-4.85 2.385-6.317 4.016-6.242 4.394.197.327 2.38.558 7.578-.912a.546.546 0 0 1 .665.702c-1.743 5.115-1.626 7.307-1.305 7.521.372.092 2.077-1.289 4.713-6.004a.546.546 0 1 1 .967.025c2.385 4.85 4.02 6.315 4.395 6.242.326-.196.557-2.38-.913-7.578a.547.547 0 0 1 .702-.666c5.113 1.743 7.306 1.627 7.522 1.306 0-.002.04-.8-2.998-2.871a.546.546 0 0 1 .615-.903c4.034 2.75 3.542 3.857 3.38 4.221-.673 1.509-4.475.698-7.9-.398.913 3.48 1.522 7.318-.02 7.91-.123.048-.25.07-.38.07z" stroke-width=".5"></path>
    <path d="M38.584 33.207c-1.544 0-3.589-3.39-4.908-5.94-1.43 2.44-3.616 5.675-5.152 5.676-.16 0-.313-.032-.454-.095-1.51-.672-.699-4.475.397-7.9-2.298.598-4.262.924-5.6.924h-.007c-.488 0-1.941-.004-2.302-.943-.591-1.541 2.67-3.656 5.867-5.304-3.107-1.814-6.252-4.098-5.58-5.607.37-.83 1.572-.83 1.966-.83 1.348 0 3.431.433 5.934 1.229-.914-3.48-1.523-7.319.019-7.91.125-.048.258-.072.396-.072 1.545 0 3.589 3.39 4.908 5.94 1.43-2.441 3.616-5.676 5.152-5.676.16 0 .314.032.455.095 1.508.673.697 4.475-.399 7.9 2.3-.599 4.264-.925 5.602-.925.481 0 1.946 0 2.308.944.592 1.541-2.67 3.656-5.867 5.304 3.106 1.814 6.251 4.097 5.58 5.606-.37.831-1.571.831-1.966.831-1.348 0-3.431-.433-5.934-1.23.914 3.48 1.523 7.32-.019 7.911a1.096 1.096 0 0 1-.396.072zm-4.878-7.64h.015a.546.546 0 0 1 .475.305c2.237 4.548 3.878 6.243 4.388 6.243h.007c.327-.197.558-2.381-.912-7.579a.546.546 0 0 1 .701-.666c2.783.948 5.171 1.492 6.553 1.492.808 0 .968-.184.97-.185.091-.37-1.29-2.078-6.005-4.714a.547.547 0 0 1 .025-.966c4.847-2.384 6.316-4.017 6.242-4.396 0 0-.196-.24-1.287-.24-1.428 0-3.662.41-6.29 1.153a.546.546 0 0 1-.666-.702c1.742-5.113 1.626-7.306 1.306-7.522-.55.001-2.251 1.6-4.714 6.004a.546.546 0 1 1-.967-.026c-2.236-4.547-3.878-6.241-4.387-6.241-.334.196-.565 2.378.905 7.578a.547.547 0 0 1-.701.666c-2.783-.948-5.171-1.492-6.553-1.492-.808 0-.968.184-.97.186-.092.37 1.288 2.076 6.005 4.714a.546.546 0 0 1-.026.967c-4.85 2.384-6.317 4.016-6.241 4.394.001 0 .198.24 1.287.24 1.43 0 3.663-.41 6.29-1.152a.546.546 0 0 1 .666.702c-1.743 5.115-1.627 7.307-1.306 7.521.55 0 2.251-1.6 4.714-6.004a.546.546 0 0 1 .476-.28z" stroke-width=".5"></path>
    <path d="M46.824 61a.545.545 0 0 1-.437-.218c-3.875-5.148-10.263-7.926-16.672-7.252l-4.67.492a14.869 14.869 0 0 1-13.368-5.815.546.546 0 1 1 .873-.657 13.77 13.77 0 0 0 12.38 5.385l4.67-.492c3.35-.352 6.754.172 9.843 1.515a19.583 19.583 0 0 1 7.483 5.736l6.658-5.013a19.583 19.583 0 0 1-3.442-8.777c-.437-3.34 0-6.756 1.266-9.877l1.764-4.352a13.77 13.77 0 0 0-1.752-13.388.546.546 0 1 1 .873-.657 14.87 14.87 0 0 1 1.891 14.455l-1.764 4.352c-2.42 5.972-1.516 12.88 2.36 18.028a.546.546 0 0 1-.109.765l-7.518 5.66a.545.545 0 0 1-.329.11z" stroke-width=".5"></path>
    <path d="M27.478 47.514c-.243 0-.487-.03-.728-.092l-6.71-1.718a.546.546 0 1 1 .27-1.058l6.71 1.718a1.875 1.875 0 0 0 2-.748l.872-1.264a7.868 7.868 0 0 1 8.679-3.095l.277.08a2.95 2.95 0 0 1 1.902 1.69c.27.636.841 1.058 1.53 1.129a1.844 1.844 0 0 0 1.725-.798l.554-.802a5.75 5.75 0 0 0 .714-5.067l-.419-1.25a6.16 6.16 0 0 1 2.138-6.887l3.208-2.416a.546.546 0 1 1 .657.873l-3.208 2.415a5.069 5.069 0 0 0-1.76 5.668l.42 1.25a6.846 6.846 0 0 1-.851 6.034l-.553.803a2.92 2.92 0 0 1-2.737 1.263 2.92 2.92 0 0 1-2.424-1.79 1.86 1.86 0 0 0-1.2-1.065l-.277-.08a6.778 6.778 0 0 0-7.475 2.665l-.872 1.264a2.972 2.972 0 0 1-2.442 1.278zm13.42 7.85a.545.545 0 0 1-.329-.983l9.667-7.278a.546.546 0 1 1 .658.873l-9.668 7.278a.544.544 0 0 1-.328.11zM56.124 6.922a1.345 1.345 0 1 1 0-2.69 1.345 1.345 0 0 1 0 2.69zm-53.78 6.722a1.344 1.344 0 1 1 0-2.689 1.344 1.344 0 0 1 0 2.69zm8.067 28.235a1.345 1.345 0 1 1 0-2.69 1.345 1.345 0 0 1 0 2.69zM34.612 4.233a1.345 1.345 0 1 1 0-2.69 1.345 1.345 0 0 1 0 2.69zm9.641 3.247l1.902 1.9 1.901-1.9-1.901-1.902-1.902 1.901zm12.1 9.641l1.902 1.902 1.901-1.902-1.901-1.9-1.902 1.9zM2.342 43.778l1.902 1.901 1.901-1.9-1.901-1.902-1.902 1.901zM3.92 28.99l1.9 1.901 1.902-1.901-1.901-1.901-1.902 1.901zM6.609 3.445l1.9 1.902 1.902-1.902L8.51 1.544 6.609 3.445z" stroke-width=".5"></path>
  </symbol>
  <symbol viewBox="0 0 55 62" xmlns="http://www.w3.org/2000/svg" id="online_13">
    <path d="M53.733 1.1a.503.503 0 0 0-.602 0l-5.614 2.798V1.633c0-.2-.134-.4-.334-.533s-.401-.067-.602.067l-5.547 3.797V1.633c0-.267-.134-.466-.401-.533-.2-.067-.468-.067-.668.133l-5.48 5.664V1.633a.64.64 0 0 0-.469-.6.636.636 0 0 0-.668.267l-5.68 11.06H27.6L21.585 1.366c-.134-.266-.4-.333-.668-.266a.64.64 0 0 0-.468.6v4.93l-5.48-5.397c-.201-.133-.401-.2-.669-.133-.2.067-.334.333-.334.533v3.331L8.419 1.167a.651.651 0 0 0-.602-.067c-.2.133-.334.333-.334.533v2.265L1.869 1.1a.93.93 0 0 0-.602 0c-.2.133-.267.266-.267.533v46.174c0 .2.134.4.334.533l23.66 11.86c.267.467.735.8 1.336.8h2.34c.534 0 1.069-.333 1.336-.8l23.66-11.86c.2-.066.334-.333.334-.533V1.633c0-.2-.067-.4-.267-.533zM46.38 2.766v1.732l-9.424 4.73 9.424-6.462zM34.417 8.762l5.48-5.663v2.665l-7.752 5.33 2.272-2.332zM15.17 3.032l5.48 5.33 3.877 3.799-9.357-6.464V3.032zm-6.483-.266l9.424 6.463-9.424-4.73V2.765zM24.86 58.8L2.203 47.474V2.566l5.614 2.798h.067l16.976 8.529V58.8zM21.652 7.696V3.898l4.478 8.196-4.478-4.398zm7.352 51.838c0 .2-.134.333-.334.333h-2.34c-.2 0-.334-.133-.334-.333V13.826c0-.2.134-.333.334-.333h2.273c.2 0 .334.133.334.333v45.708h.067zm.2-47.107c-.067 0-.2-.067-.267-.067l4.478-8.395v4.131l-4.21 4.331zm23.593 35.047l-22.59 11.327V13.893l16.976-8.529h.067l5.614-2.798v44.908h-.067z" stroke-width=".5"></path>
  </symbol>
  <symbol viewBox="0 0 53 62" xmlns="http://www.w3.org/2000/svg" id="online_12">
    <path d="M52.066 16.183L39.62 3.735c-.599-1.165-3.26-1.986-7.933-2.445l-.391-.038C29.649 1.089 28.743 1 26.625 1c-2.119 0-3.025.09-4.67.252l-.391.039c-4.673.458-7.334 1.279-7.933 2.444L1.183 16.183a.625.625 0 0 0 .12.978l6.25 3.75a.625.625 0 0 0 .643 0l5.304-3.182v17.646c0 .345.28.625.625.625h25c.345 0 .625-.28.625-.625V17.729l5.303 3.182a.625.625 0 0 0 .643 0l6.25-3.75a.626.626 0 0 0 .12-.978zM13.5 16.27l-5.625 3.375L2.633 16.5 13.5 5.634V16.27zM26.625 2.25c1.976 0 2.87.08 4.362.228a30.292 30.292 0 0 1-.024.601c-.007.147-.014.292-.023.434l-.014.197c-.007.1-.013.201-.021.3l-.02.217c-.008.088-.015.176-.024.262-.007.075-.016.147-.024.22-.009.082-.017.163-.027.243-.008.074-.018.145-.028.217l-.031.229-.032.21-.035.22a13 13 0 0 1-.036.203l-.038.208-.04.198-.043.197c-.014.065-.03.127-.044.19-.015.063-.03.127-.046.188l-.049.182-.049.18a8.707 8.707 0 0 1-.052.173c-.018.058-.035.115-.054.17-.018.057-.037.111-.056.166a6.837 6.837 0 0 1-.179.472 8.646 8.646 0 0 1-.13.293c-.022.047-.043.094-.066.14a6.439 6.439 0 0 1-.29.517 4.795 4.795 0 0 1-.406.551 3.136 3.136 0 0 1-.265.277c-.031.03-.063.059-.096.087l-.09.078a3.354 3.354 0 0 1-.102.078l-.093.07c-.035.023-.07.046-.107.068-.032.02-.064.042-.096.06-.036.022-.074.042-.111.062l-.1.052-.116.052c-.034.014-.067.03-.101.043-.04.016-.082.03-.124.043-.033.012-.067.025-.101.035-.044.013-.088.024-.132.035l-.102.026c-.047.01-.095.018-.143.026-.032.006-.065.013-.098.017-.054.008-.11.013-.165.018-.028.003-.055.007-.083.008a3.926 3.926 0 0 1-.512 0l-.083-.008c-.056-.006-.112-.01-.166-.018l-.098-.017c-.048-.009-.096-.016-.143-.027-.034-.007-.068-.017-.102-.026a1.936 1.936 0 0 1-.131-.034c-.035-.01-.068-.023-.102-.035l-.123-.043c-.034-.013-.068-.03-.101-.044-.04-.017-.079-.033-.117-.052-.034-.016-.066-.034-.1-.052-.036-.02-.074-.039-.11-.06l-.097-.06-.106-.07a1.613 1.613 0 0 1-.093-.07c-.034-.025-.069-.05-.102-.077l-.09-.078-.097-.087a3.575 3.575 0 0 1-.088-.086l-.091-.095a4 4 0 0 1-.252-.303 4.721 4.721 0 0 1-.459-.725 6.53 6.53 0 0 1-.266-.568 9.086 9.086 0 0 1-.18-.475l-.055-.162-.055-.174-.05-.17-.052-.183-.047-.178-.047-.193c-.014-.061-.03-.123-.043-.185a6.633 6.633 0 0 1-.043-.203l-.04-.192-.039-.214-.035-.198c-.013-.074-.024-.15-.036-.225l-.031-.205-.032-.236-.027-.21a9.782 9.782 0 0 1-.028-.253l-.023-.21c-.01-.09-.017-.182-.025-.274l-.019-.206-.022-.317c-.005-.06-.01-.118-.013-.179-.01-.151-.018-.306-.025-.462l-.003-.06c-.008-.168-.014-.34-.02-.514 1.492-.147 2.386-.228 4.363-.228zM38.5 34.75H14.75V4.282c.161-.353 1.886-1.186 6.266-1.677.003.107.008.212.013.318l.008.19c.008.165.017.327.027.488l.003.051c.012.178.025.352.04.524l.015.159c.01.117.021.234.033.348l.022.191.035.3.027.2c.013.092.025.185.04.276l.03.2a20.132 20.132 0 0 0 .126.703 20.07 20.07 0 0 0 .135.61l.058.228.046.174c.02.075.042.149.063.222l.05.164c.022.074.046.146.07.218l.05.15c.026.075.053.147.08.22.016.043.032.088.05.132.03.08.063.156.095.233.014.034.027.068.042.101.047.109.096.215.146.318.89 1.82 2.218 2.8 3.953 2.915.115.008.232.012.352.012 1.907 0 3.355-.985 4.304-2.927a8.43 8.43 0 0 0 .146-.317c.016-.036.03-.075.046-.112.031-.073.062-.146.092-.222l.052-.14c.026-.07.052-.14.077-.212.018-.05.034-.103.052-.155a11.16 11.16 0 0 0 .228-.776c.02-.074.038-.149.056-.225l.045-.186.051-.234.04-.193a18.835 18.835 0 0 0 .125-.7l.033-.202.038-.271.027-.205c.013-.096.024-.194.035-.291l.022-.2c.012-.11.022-.222.032-.334l.017-.174c.014-.17.028-.344.039-.52l.005-.091c.01-.148.019-.297.026-.448l.008-.213.013-.297c4.38.491 6.104 1.323 6.266 1.677V34.75zm6.875-15.104l-5.625-3.375V5.634L50.617 16.5l-5.242 3.145zm-4.748 29.327c-.15-1.053-.28-1.851-.393-2.556-.323-1.99-.484-2.99-.484-6.042v-1.25a.625.625 0 0 0-.625-.625h-25a.625.625 0 0 0-.625.625v1.25c0 3.053-.162 4.052-.484 6.042-.114.705-.243 1.503-.394 2.556l-1.616 11.313a.625.625 0 0 0 .619.714h8.75a.625.625 0 0 0 .546-.322l5.642-10.154 4.49 10.105a.626.626 0 0 0 .572.371h10a.625.625 0 0 0 .618-.713l-1.616-11.314zM32.031 59.75l-4.835-10.88a.625.625 0 0 0-1.118-.05l-6.07 10.929h-7.662l1.514-10.6c.149-1.041.277-1.834.39-2.533.333-2.056.5-3.089.5-6.242v-.625h9.702l-2.158 5.393a.625.625 0 0 0 1.161.464l2.343-5.857h1.654l2.342 5.857a.626.626 0 0 0 1.161-.464l-2.157-5.393H38.5v.625c0 3.153.167 4.185.5 6.242.113.7.241 1.492.39 2.534l1.514 10.599h-8.873z"></path>
    <path d="M52.066 16.183L39.62 3.735c-.599-1.165-3.26-1.986-7.933-2.445l-.391-.038C29.649 1.089 28.743 1 26.625 1c-2.119 0-3.025.09-4.67.252l-.391.039c-4.673.458-7.334 1.279-7.933 2.444L1.183 16.183a.625.625 0 0 0 .12.978l6.25 3.75a.625.625 0 0 0 .643 0l5.304-3.182v17.646c0 .345.28.625.625.625h25c.345 0 .625-.28.625-.625V17.729l5.303 3.182a.625.625 0 0 0 .643 0l6.25-3.75a.626.626 0 0 0 .12-.978zM13.5 16.27l-5.625 3.375L2.633 16.5 13.5 5.634V16.27zM26.625 2.25c1.976 0 2.87.08 4.362.228a30.292 30.292 0 0 1-.024.601c-.007.147-.014.292-.023.434l-.014.197c-.007.1-.013.201-.021.3l-.02.217c-.008.088-.015.176-.024.262-.007.075-.016.147-.024.22-.009.082-.017.163-.027.243-.008.074-.018.145-.028.217l-.031.229-.032.21-.035.22a13 13 0 0 1-.036.203l-.038.208-.04.198-.043.197c-.014.065-.03.127-.044.19-.015.063-.03.127-.046.188l-.049.182-.049.18a8.707 8.707 0 0 1-.052.173c-.018.058-.035.115-.054.17-.018.057-.037.111-.056.166a6.837 6.837 0 0 1-.179.472 8.646 8.646 0 0 1-.13.293c-.022.047-.043.094-.066.14a6.439 6.439 0 0 1-.29.517 4.795 4.795 0 0 1-.406.551 3.136 3.136 0 0 1-.265.277c-.031.03-.063.059-.096.087l-.09.078a3.354 3.354 0 0 1-.102.078l-.093.07c-.035.023-.07.046-.107.068-.032.02-.064.042-.096.06-.036.022-.074.042-.111.062l-.1.052-.116.052c-.034.014-.067.03-.101.043-.04.016-.082.03-.124.043-.033.012-.067.025-.101.035-.044.013-.088.024-.132.035l-.102.026c-.047.01-.095.018-.143.026-.032.006-.065.013-.098.017-.054.008-.11.013-.165.018-.028.003-.055.007-.083.008a3.926 3.926 0 0 1-.512 0l-.083-.008c-.056-.006-.112-.01-.166-.018l-.098-.017c-.048-.009-.096-.016-.143-.027-.034-.007-.068-.017-.102-.026a1.936 1.936 0 0 1-.131-.034c-.035-.01-.068-.023-.102-.035l-.123-.043c-.034-.013-.068-.03-.101-.044-.04-.017-.079-.033-.117-.052-.034-.016-.066-.034-.1-.052-.036-.02-.074-.039-.11-.06l-.097-.06-.106-.07a1.613 1.613 0 0 1-.093-.07c-.034-.025-.069-.05-.102-.077l-.09-.078-.097-.087a3.575 3.575 0 0 1-.088-.086l-.091-.095a4 4 0 0 1-.252-.303 4.721 4.721 0 0 1-.459-.725 6.53 6.53 0 0 1-.266-.568 9.086 9.086 0 0 1-.18-.475l-.055-.162-.055-.174-.05-.17-.052-.183-.047-.178-.047-.193c-.014-.061-.03-.123-.043-.185a6.633 6.633 0 0 1-.043-.203l-.04-.192-.039-.214-.035-.198c-.013-.074-.024-.15-.036-.225l-.031-.205-.032-.236-.027-.21a9.782 9.782 0 0 1-.028-.253l-.023-.21c-.01-.09-.017-.182-.025-.274l-.019-.206-.022-.317c-.005-.06-.01-.118-.013-.179-.01-.151-.018-.306-.025-.462l-.003-.06c-.008-.168-.014-.34-.02-.514 1.492-.147 2.386-.228 4.363-.228zM38.5 34.75H14.75V4.282c.161-.353 1.886-1.186 6.266-1.677.003.107.008.212.013.318l.008.19c.008.165.017.327.027.488l.003.051c.012.178.025.352.04.524l.015.159c.01.117.021.234.033.348l.022.191.035.3.027.2c.013.092.025.185.04.276l.03.2a20.132 20.132 0 0 0 .126.703 20.07 20.07 0 0 0 .135.61l.058.228.046.174c.02.075.042.149.063.222l.05.164c.022.074.046.146.07.218l.05.15c.026.075.053.147.08.22.016.043.032.088.05.132.03.08.063.156.095.233.014.034.027.068.042.101.047.109.096.215.146.318.89 1.82 2.218 2.8 3.953 2.915.115.008.232.012.352.012 1.907 0 3.355-.985 4.304-2.927a8.43 8.43 0 0 0 .146-.317c.016-.036.03-.075.046-.112.031-.073.062-.146.092-.222l.052-.14c.026-.07.052-.14.077-.212.018-.05.034-.103.052-.155a11.16 11.16 0 0 0 .228-.776c.02-.074.038-.149.056-.225l.045-.186.051-.234.04-.193a18.835 18.835 0 0 0 .125-.7l.033-.202.038-.271.027-.205c.013-.096.024-.194.035-.291l.022-.2c.012-.11.022-.222.032-.334l.017-.174c.014-.17.028-.344.039-.52l.005-.091c.01-.148.019-.297.026-.448l.008-.213.013-.297c4.38.491 6.104 1.323 6.266 1.677V34.75zm6.875-15.104l-5.625-3.375V5.634L50.617 16.5l-5.242 3.145zm-4.748 29.327c-.15-1.053-.28-1.851-.393-2.556-.323-1.99-.484-2.99-.484-6.042v-1.25a.625.625 0 0 0-.625-.625h-25a.625.625 0 0 0-.625.625v1.25c0 3.053-.162 4.052-.484 6.042-.114.705-.243 1.503-.394 2.556l-1.616 11.313a.625.625 0 0 0 .619.714h8.75a.625.625 0 0 0 .546-.322l5.642-10.154 4.49 10.105a.626.626 0 0 0 .572.371h10a.625.625 0 0 0 .618-.713l-1.616-11.314zM32.031 59.75l-4.835-10.88a.625.625 0 0 0-1.118-.05l-6.07 10.929h-7.662l1.514-10.6c.149-1.041.277-1.834.39-2.533.333-2.056.5-3.089.5-6.242v-.625h9.702l-2.158 5.393a.625.625 0 0 0 1.161.464l2.343-5.857h1.654l2.342 5.857a.626.626 0 0 0 1.161-.464l-2.157-5.393H38.5v.625c0 3.153.167 4.185.5 6.242.113.7.241 1.492.39 2.534l1.514 10.599h-8.873z" stroke-width=".6"></path>
  </symbol>
  <symbol viewBox="0 0 75 60" xmlns="http://www.w3.org/2000/svg" id="online_14">
    <path d="M24.738 11.838c-.909 1.667-1.808 3.334-2.716 5.002-1.441 2.662-2.891 5.324-4.332 7.977-.332.62-.673 1.231-1.005 1.851.402-.105.795-.21 1.197-.314-1.86-.96-3.72-1.92-5.58-2.872-2.979-1.536-5.957-3.072-8.944-4.609-.681-.349-1.362-.707-2.044-1.056.062.454.114.917.175 1.37 1.205-1.344 2.41-2.697 3.616-4.04l5.773-6.451 1.327-1.484c-.28.078-.568.148-.847.227 1.563.637 3.127 1.274 4.681 1.92 2.498 1.021 4.987 2.043 7.485 3.064.576.236 1.153.471 1.738.707.436.174.96-.192 1.074-.611.14-.498-.175-.89-.611-1.074a703.926 703.926 0 0 1-4.681-1.92c-2.498-1.021-4.987-2.043-7.485-3.064-.577-.236-1.153-.471-1.738-.707-.27-.113-.664.018-.847.227-1.206 1.344-2.41 2.697-3.616 4.041-1.93 2.139-3.851 4.295-5.773 6.442L.258 17.948c-.358.393-.35 1.1.174 1.37 1.86.96 3.72 1.92 5.581 2.872 2.978 1.536 5.956 3.073 8.943 4.609.681.35 1.363.707 2.044 1.056.41.21.96.122 1.196-.314.909-1.667 1.808-3.335 2.716-5.002 1.442-2.662 2.891-5.324 4.332-7.978.332-.62.673-1.23 1.005-1.85.533-.978-.978-1.86-1.511-.873z"></path>
    <path d="M63.166 5.745a5726.756 5726.756 0 0 1-10.909 4.47c-.803.331-1.598.654-2.401.986-.166.07-.376.113-.524.21-.14.095.34 0 .087-.01-1.249-.07-2.524 0-3.773 0H26.022c-.149 0-.297-.008-.446 0-.236.018.262.114.088.01-.455-.289-1.066-.437-1.564-.638-4-1.632-7.991-3.273-11.99-4.905-.097-.035-.193-.079-.29-.114V7.44c3.643-1.493 7.285-2.985 10.927-4.47.803-.331 1.607-.654 2.401-.986.166-.07.376-.113.524-.21.14-.095-.34 0-.087.01 1.249.07 2.524 0 3.773 0h19.624c.149 0 .297.008.446 0 .235-.018-.262-.114-.088-.01.454.289 1.066.437 1.564.638 3.99 1.632 7.982 3.273 11.973 4.906.096.034.192.078.288.113.437.183.961-.192 1.075-.611.14-.498-.175-.89-.612-1.074-3.659-1.5-7.318-3.002-10.978-4.504-.786-.323-1.58-.646-2.367-.968-.288-.123-.532-.236-.847-.254-1.257-.043-2.524 0-3.79 0H26.013c-.262 0-.55-.026-.795.053-.515.166-1.022.419-1.52.62-4.017 1.64-8.026 3.29-12.043 4.931-.096.035-.192.079-.288.114-.821.34-.821 1.344 0 1.684 3.668 1.502 7.327 3.003 10.995 4.504.786.323 1.581.646 2.367.97.288.121.533.235.847.252 1.258.044 2.524 0 3.79 0H49c.262 0 .55.027.794-.052.516-.166 1.022-.419 1.52-.62 4.009-1.64 8.017-3.29 12.026-4.931.096-.035.192-.079.288-.114.437-.175.743-.576.612-1.074-.114-.419-.638-.794-1.074-.61z"></path>
    <path d="M56.93 26.485c0 .008 0 .008 0 0 .2-.079.41-.166.611-.253H19.07c-.516 0-1.057-.044-1.572 0h-.07c.21.087.41.174.62.253.044.349.087.707.14 1.056.908-1.667 1.808-3.335 2.716-5.002 1.44-2.662 2.89-5.324 4.332-7.978.331-.62.672-1.23 1.004-1.85-.253.148-.507.288-.751.436h23.974c-.254-.148-.507-.288-.752-.436.909 1.667 1.817 3.334 2.734 5.01 1.45 2.662 2.9 5.325 4.358 7.987.332.61.664 1.222 1.005 1.833.541.986 2.043.105 1.51-.882-.908-1.667-1.816-3.334-2.733-5.01-1.45-2.662-2.9-5.325-4.358-7.987-.332-.61-.664-1.222-1.005-1.833a.873.873 0 0 0-.75-.436H25.497c-.297 0-.612.166-.751.436-.909 1.667-1.808 3.335-2.717 5.002-1.44 2.662-2.89 5.324-4.331 7.978-.332.62-.673 1.23-1.005 1.85a.898.898 0 0 0 .14 1.056c.367.376 1.118.262 1.59.262h34.322c1.59 0 3.188.07 4.778 0 .244-.008.489-.07.663-.262.752-.811-.48-2.042-1.257-1.23z"></path>
    <path d="M48.712 12.72c.908 1.667 1.816 3.334 2.733 5.01 1.45 2.662 2.9 5.324 4.358 7.987.332.61.664 1.222 1.005 1.833.235.427.785.523 1.196.314 1.86-.96 3.72-1.92 5.58-2.872 2.979-1.536 5.957-3.072 8.944-4.609.681-.349 1.362-.707 2.044-1.056.524-.27.532-.977.174-1.37-1.205-1.344-2.41-2.697-3.615-4.042l-5.773-6.45L64.03 5.98c-.183-.21-.585-.332-.847-.227l-4.716 1.938a2695.696 2695.696 0 0 0-7.485 3.072c-.41.166-.812.332-1.222.498-.114.044-.236.087-.341.14-.183.096-.035.017.07.017-1.127 0-1.127 1.746 0 1.746.515 0 1.083-.358 1.546-.55 1.1-.454 2.2-.9 3.3-1.353 2.516-1.03 5.04-2.069 7.555-3.099.586-.244 1.17-.48 1.765-.724-.28-.079-.568-.149-.848-.227 1.206 1.344 2.41 2.697 3.616 4.041l5.773 6.45 1.328 1.485c.06-.454.113-.917.174-1.37-1.86.96-3.72 1.92-5.58 2.87a9207.94 9207.94 0 0 1-8.944 4.61c-.68.349-1.362.707-2.043 1.056.401.105.794.21 1.196.314-.908-1.667-1.816-3.334-2.733-5.01a3678.519 3678.519 0 0 0-5.363-9.82c-.55-.986-2.061-.105-1.52.882z"></path>
    <path d="M73.497 17.957l-3.668 4.059c-2.908 3.23-5.825 6.45-8.733 9.68-3.52 3.901-7.04 7.794-10.55 11.696-3.04 3.37-6.088 6.739-9.127 10.108-1.004 1.117-2.017 2.234-3.022 3.352-.471.523-.995 1.021-1.423 1.58-.018.026-.044.043-.062.07.455.06.917.113 1.372.174-.018-.026-.035-.044-.053-.07v.882c.664-1.056 1.328-2.121 1.991-3.178 1.599-2.54 3.197-5.08 4.795-7.628 1.93-3.073 3.86-6.154 5.8-9.227 1.667-2.662 3.344-5.315 5.012-7.977.55-.873 1.1-1.746 1.642-2.62.262-.41.568-.82.786-1.256.009-.018.026-.035.035-.052-.253.148-.506.288-.75.436.27 0 .4-.13.628-.253-.009 0-.192.13-.166.13.018 0 .044-.025.061-.034.096-.035.192-.105.288-.149.385-.192.76-.392 1.144-.584 1.31-.672 2.62-1.353 3.94-2.025 3.012-1.554 6.025-3.099 9.03-4.653.698-.358 1.397-.724 2.096-1.082.995-.515.113-2.025-.882-1.51-1.887.969-3.773 1.938-5.65 2.915-2.979 1.537-5.966 3.073-8.944 4.609-.48.253-.97.497-1.45.75-.218.114-.524.219-.699.402.21-.087.411-.174.62-.253-.628 0-.943.716-1.23 1.178-.473.751-.944 1.502-1.416 2.244-1.59 2.531-3.179 5.062-4.777 7.602l-5.843 9.296c-1.685 2.689-3.38 5.377-5.065 8.066-.821 1.3-1.703 2.583-2.463 3.919-.009.017-.026.035-.035.06-.148.237-.175.647 0 .883.017.026.035.043.052.07.324.418.952.636 1.372.174l3.668-4.059c2.908-3.23 5.825-6.45 8.733-9.68 3.52-3.902 7.04-7.795 10.55-11.696 3.04-3.37 6.088-6.739 9.127-10.108 1.485-1.641 2.996-3.265 4.445-4.932.018-.026.044-.043.061-.07.743-.838-.488-2.077-1.24-1.24z"></path>
    <path d="M.258 19.188l3.668 4.058c2.908 3.23 5.825 6.45 8.733 9.68 3.52 3.902 7.04 7.795 10.55 11.697 3.04 3.37 6.088 6.738 9.127 10.108 1.476 1.64 2.908 3.351 4.445 4.931.018.026.044.044.062.07.419.463 1.056.245 1.37-.174.018-.027.036-.044.053-.07.175-.236.149-.646 0-.882-.672-1.074-1.354-2.147-2.026-3.22l-4.847-7.726-5.843-9.296-5.004-7.96c-.778-1.23-1.511-2.497-2.323-3.701-.184-.27-.437-.463-.778-.463.21.088.41.175.62.253-.157-.157-.384-.244-.576-.34-.393-.2-.786-.401-1.17-.602-1.31-.672-2.63-1.353-3.94-2.025-2.995-1.545-5.99-3.09-8.986-4.627-.69-.357-1.38-.715-2.07-1.064-.996-.515-1.886.995-.882 1.51l5.73 2.95c2.986 1.536 5.964 3.072 8.951 4.609.48.244.952.488 1.433.733.122.061.244.14.366.192.018.009.053.044.079.044 0 0 .009.008.017.008-.06-.043-.113-.087-.174-.13.06.043.113.087.174.139a.9.9 0 0 0 .446.122c-.254-.148-.507-.288-.751-.436.663 1.056 1.327 2.12 1.99 3.177 1.6 2.54 3.197 5.08 4.796 7.629 1.93 3.072 3.86 6.154 5.799 9.226 1.668 2.662 3.345 5.316 5.013 7.978.55.873 1.1 1.746 1.642 2.619.262.41.489.873.786 1.257.008.017.026.034.035.052v-.882c-.018.026-.035.044-.053.07.454-.06.917-.113 1.372-.174l-3.669-4.06c-2.908-3.229-5.825-6.45-8.733-9.68-3.52-3.901-7.04-7.794-10.55-11.696-3.04-3.369-6.088-6.738-9.127-10.107-1.476-1.642-2.908-3.352-4.445-4.932-.018-.026-.044-.044-.061-.07-.769-.864-2.01.375-1.25 1.204z"></path>
  </symbol>
</svg>