<svg width="60" height="60" viewBox="0 0 60 60" fill="none" xmlns="http://www.w3.org/2000/svg">
<path d="M59.9306 20.4145C59.9226 20.3036 59.9146 20.1826 59.9046 20.0666C59.8596 19.5516 59.8046 19.0417 59.7187 18.5367C59.7067 18.4607 59.6907 18.3847 59.6787 18.3087C59.5967 17.8288 59.4997 17.3544 59.3877 16.8859C59.3707 16.8169 59.3567 16.7479 59.3397 16.6799C59.2087 16.1569 59.0577 15.642 58.8907 15.134C58.8727 15.08 58.8537 15.027 58.8357 14.973C54.9566 3.46394 42.4818 -2.72138 30.9727 1.15789C24.4626 3.3522 19.3519 8.46286 17.1576 14.973C17.1396 15.027 17.1206 15.08 17.1026 15.134C16.9356 15.642 16.7846 16.1569 16.6536 16.6799C16.6366 16.7479 16.6226 16.8169 16.6056 16.8859C16.4937 17.3524 16.3967 17.8268 16.3147 18.3087C16.3027 18.3847 16.2867 18.4607 16.2747 18.5367C16.1937 19.0367 16.1337 19.5516 16.0887 20.0666C16.0787 20.1826 16.0707 20.2986 16.0627 20.4145C16.0247 20.9405 15.9987 21.4685 15.9987 22.0034C15.9987 22.0514 15.9987 22.1034 16.0047 22.1714C16.0287 25.5907 16.8507 28.957 18.4055 32.0025H0.99991C0.44771 32.0025 0 32.4502 0 33.0024V55.0004C0 55.5526 0.44771 56.0004 0.99991 56.0004H3.99964V59.0001C3.99964 59.5523 4.44735 60 4.99955 60H50.9954C51.5476 60 51.9953 59.5523 51.9953 59.0001V38.9629C57.0723 34.797 60.009 28.5707 59.9946 22.0034C59.9946 21.4685 59.9686 20.9405 59.9306 20.4145ZM55.0971 11.6983C55.1581 11.7893 55.2161 11.8803 55.2711 11.9743C55.427 12.2403 55.58 12.5083 55.723 12.7802C55.923 13.1596 56.109 13.5452 56.281 13.9371C56.365 14.1241 56.4439 14.3131 56.5219 14.5021C56.7139 14.974 56.8939 15.452 57.0499 15.9419C57.0879 16.0589 57.1189 16.1789 57.1499 16.2979C57.3039 16.8159 57.4429 17.3398 57.5558 17.8738C57.5658 17.9198 57.5788 17.9648 57.5878 18.0108C57.7058 18.5907 57.7878 19.1817 57.8588 19.7786C57.8698 19.8786 57.8828 19.9786 57.8918 20.0786C57.8988 20.1506 57.8918 20.2256 57.9038 20.2986L53.4252 16.9899L55.0971 11.6983ZM53.6632 9.61251L51.4564 16.5959L45.149 18.8847L38.9965 14.4901V7.5187L44.94 3.27308C48.3718 4.55047 51.3885 6.74289 53.6632 9.61251ZM41.3033 27.003H34.6899L32.2031 20.3706L37.9966 16.2329L43.7901 20.3706L41.3033 27.003ZM41.5103 29.0028L43.8651 32.0025H32.1281L34.4829 29.0028H41.5103ZM33.577 2.51415C33.837 2.45415 34.0969 2.40216 34.3579 2.35316C34.8319 2.26517 35.3078 2.18718 35.7918 2.13318C35.9428 2.11618 36.0918 2.10718 36.2448 2.09419C36.7937 2.04619 37.3447 2.01219 37.9056 2.01019C37.9666 2.01019 38.0266 2.01019 38.0876 2.01019C38.6475 2.01019 39.1995 2.04619 39.7484 2.09419C39.8994 2.10718 40.0484 2.11618 40.2014 2.13318C40.6854 2.18718 41.1613 2.26517 41.6353 2.35316C41.8962 2.40216 42.1562 2.45315 42.4162 2.51415C42.4532 2.52215 42.4882 2.53315 42.5242 2.54215L37.9966 5.77586L33.469 2.54215C33.505 2.53315 33.54 2.52215 33.577 2.51415ZM31.0532 3.27308L36.9967 7.5187V14.4901L30.8442 18.8847L24.5368 16.5959L22.33 9.61251C24.6047 6.74289 27.6214 4.55047 31.0532 3.27308ZM18.0984 20.0776C18.1074 19.9776 18.1204 19.8776 18.1314 19.7776C18.1984 19.1777 18.2844 18.5897 18.4024 18.0108C18.4124 17.9638 18.4244 17.9178 18.4344 17.8708C18.5473 17.3378 18.6863 16.8139 18.8403 16.2969C18.8763 16.1779 18.9073 16.0579 18.9453 15.9409C19.1013 15.451 19.2813 14.973 19.4733 14.5011C19.5513 14.3121 19.6302 14.1231 19.7142 13.9361C19.8882 13.5428 20.0742 13.1572 20.2722 12.7792C20.4152 12.5073 20.5722 12.2393 20.7241 11.9733C20.7791 11.8793 20.8371 11.7883 20.8931 11.6963L22.565 16.9879L18.0864 20.2966C18.0914 20.2246 18.0894 20.1496 18.0984 20.0776ZM18.0264 22.8273H18.0284L23.8979 18.4917L30.2243 20.7915L32.8651 27.8329L29.5864 32.0025H20.6871C19.0697 29.205 18.1565 26.0562 18.0264 22.8273ZM1.99982 54.0005V34.0023H45.9959V54.0005H1.99982ZM49.9955 58.0002H5.99946V56.0004H46.9958C47.548 56.0004 47.9957 55.5526 47.9957 55.0004V38.002H49.9955V58.0002ZM51.8024 36.4491C51.6244 36.1754 51.3219 36.0078 50.9954 36.0021H47.9957V35.1272L53.1022 35.0872C52.691 35.5612 52.2577 36.0151 51.8024 36.4491ZM54.6521 33.0744L47.9957 33.1274V33.0024C47.9957 32.4502 47.548 32.0025 46.9958 32.0025H46.4068L43.1301 27.8279L45.7709 20.7865L52.0973 18.4867L57.9718 22.8263C57.8299 26.4829 56.6812 30.0292 54.6521 33.0744Z" fill="#FF6D2A"/>
</svg>
