<svg width="38" height="62" viewBox="0 0 38 62" fill="none" xmlns="http://www.w3.org/2000/svg">
<path d="M33.962 31.5845C31.8168 30.9491 29.7966 30.4705 27.8669 30.0991V24.6999C31.6391 22.3171 34.1066 18.4591 34.1066 14.1001C34.1066 6.87695 27.358 1 19.0627 1C10.7682 1 4.01955 6.87695 4.01955 14.1001C4.01955 18.41 6.43291 22.2289 10.1331 24.6179V29.9492C7.90424 30.3822 5.86159 30.947 3.96792 31.5515C2.22065 32.1089 1 33.8777 1 35.9124C1 37.1538 1.87534 38.1913 3.04376 38.4619V40.9053C3.04376 42.0603 3.99004 43 5.15317 43H6.26134L5.53006 59.2488C5.53006 60.2141 6.32145 61 7.29355 61H9.99963C10.9717 61 11.7631 60.2141 11.7624 59.2825L12.175 50.125H25.8254L26.2369 59.2488C26.2369 60.2141 27.0283 61 28.0004 61H30.7065C31.6785 61 32.4699 60.2141 32.4692 59.2151L31.7387 43H32.973C34.1361 43 35.0824 42.0603 35.0824 40.9053V38.423C36.1856 38.108 37 37.1078 37 35.9124C37 33.8931 35.7506 32.1133 33.962 31.5845ZM5.53006 14.1001C5.53006 7.70386 11.6009 2.5 19.0627 2.5C26.5253 2.5 32.5961 7.70386 32.5961 14.1001C32.5961 20.4963 26.5253 25.7002 19.0627 25.7002C11.6009 25.7002 5.53006 20.4963 5.53006 14.1001ZM11.6436 25.4818C13.8357 26.5699 16.3643 27.2002 19.0627 27.2002C21.7088 27.2002 24.1939 26.5974 26.3564 25.5485V29.823C20.6076 28.8775 15.7983 29.0233 11.6436 29.6824V25.4818ZM9.99963 59.5H7.29355C7.15415 59.5 7.04057 59.3872 7.03983 59.2825L7.77337 43H10.9839L10.2526 59.2488C10.2526 59.3872 10.139 59.5 9.99963 59.5ZM12.2425 48.625L12.4959 43H25.5041L25.7578 48.625H12.2425ZM30.9594 59.2488C30.9594 59.3872 30.8458 59.5 30.7065 59.5H28.0004C27.861 59.5 27.7474 59.3872 27.7466 59.2151L27.0161 43H30.2266L30.9594 59.2488ZM32.973 41.5H5.15317C4.82274 41.5 4.55427 41.2334 4.55427 40.9053V38.5359H33.5718V40.9053C33.5718 41.2334 33.3034 41.5 32.973 41.5ZM34.3581 37.0359H3.64192C3.01795 37.0359 2.51051 36.532 2.51051 35.8523C2.51051 34.5215 3.29969 33.3401 4.43036 32.9797C8.31875 31.7375 12.8304 30.6499 18.4269 30.6499C22.7446 30.6499 27.709 31.2981 33.5305 33.0215C34.6841 33.3628 35.4895 34.5515 35.4895 35.9124C35.4895 36.532 34.9821 37.0359 34.3581 37.0359Z" fill="#FF6D2A" stroke="#FF6D2A" stroke-width="0.5"/>
</svg>
