<svg width="54" height="62" viewBox="0 0 54 62" fill="none" xmlns="http://www.w3.org/2000/svg">
<path d="M5.20218 60.1396C5.20218 60.3305 5.0453 60.4854 4.852 60.4854H1.35018C1.15688 60.4854 1 60.3305 1 60.1396V1.34585C1 1.15494 1.15688 1 1.35018 1H4.852C5.0453 1 5.20218 1.15494 5.20218 1.34585V60.1396ZM1.70036 59.7937H4.50182V1.69169H1.70036V59.7937Z" fill="#FF6D2A"/>
<path d="M4.67891 23.5832C4.60677 23.5832 4.62218 23.5617 4.56195 23.5188C4.4702 23.4545 4.50172 23.35 4.50172 23.2373V1.53067C4.50172 1.42069 4.4674 1.31694 4.55775 1.25261C4.64809 1.1869 4.71953 1.16892 4.82669 1.20073L38.1633 11.4862C38.3083 11.5304 38.3965 11.6619 38.3986 11.8113C38.4007 11.9607 38.3006 12.0942 38.1577 12.1433L4.79657 23.5645C4.75875 23.5776 4.71743 23.5832 4.67891 23.5832ZM5.20208 2.00033V22.7517L37.0903 11.8334L5.20208 2.00033Z" fill="#FF6D2A"/>
<path d="M32.7355 38.5893C27.8365 38.5893 23.9985 36.8919 23.9985 34.7255V30.7552C23.9985 30.5643 24.1553 30.4094 24.3486 30.4094C24.5419 30.4094 24.6988 30.5643 24.6988 30.7552C24.6988 32.2866 27.9275 33.9259 32.7355 33.9259C37.5435 33.9259 40.7736 32.2866 40.7736 30.7552C40.7736 30.5643 40.9305 30.4094 41.1238 30.4094C41.3171 30.4094 41.4739 30.5643 41.4739 30.7552V34.7255C41.4739 36.8919 37.6359 38.5893 32.7355 38.5893ZM24.6995 32.2977V34.7255C24.6995 36.2576 27.9282 37.8976 32.7362 37.8976C37.5442 37.8976 40.7743 36.2576 40.7743 34.7255V32.2977C39.4513 33.6741 36.3886 34.6176 32.7362 34.6176C29.0845 34.6176 26.0218 33.6741 24.6995 32.2977Z" fill="#FF6D2A"/>
<path d="M32.7355 34.6176C27.8365 34.6176 23.9985 32.9209 23.9985 30.7552C23.9985 28.5888 27.8358 26.8915 32.7355 26.8915C37.6352 26.8915 41.4739 28.5888 41.4739 30.7552C41.4739 32.9202 37.6359 34.6176 32.7355 34.6176ZM32.7355 27.5831C27.9282 27.5831 24.6988 29.2231 24.6988 30.7552C24.6988 32.2866 27.9275 33.9259 32.7355 33.9259C37.5435 33.9259 40.7736 32.2866 40.7736 30.7552C40.7736 29.2231 37.5442 27.5831 32.7355 27.5831Z" fill="#FF6D2A"/>
<path d="M19.4286 48.4754C14.5289 48.4754 10.6909 46.778 10.6909 44.6117C10.6909 42.446 14.5282 40.7492 19.4286 40.7492C24.3291 40.7492 28.1663 42.446 28.1663 44.6117C28.1656 46.778 24.3284 48.4754 19.4286 48.4754ZM19.4286 41.4409C14.6213 41.4409 11.3912 43.0802 11.3912 44.6117C11.3912 46.1437 14.6206 47.7837 19.4286 47.7837C24.2366 47.7837 27.466 46.1437 27.466 44.6117C27.4653 43.0802 24.2359 41.4409 19.4286 41.4409Z" fill="#FF6D2A"/>
<path d="M19.4286 60.3887C14.5289 60.3887 10.6909 58.692 10.6909 56.5256V52.5539C10.6909 52.363 10.8478 52.2081 11.0411 52.2081C11.2344 52.2081 11.3912 52.363 11.3912 52.5539C11.3912 54.086 14.6206 55.726 19.4286 55.726C24.2366 55.726 27.466 54.086 27.466 52.5539C27.466 52.363 27.6229 52.2081 27.8162 52.2081C28.0095 52.2081 28.1663 52.363 28.1663 52.5539V56.5256C28.1656 58.692 24.3284 60.3887 19.4286 60.3887ZM11.3912 54.0971V56.5263C11.3912 58.0577 14.6206 59.6977 19.4286 59.6977C24.2366 59.6977 27.466 58.0577 27.466 56.5263V54.0971C26.143 55.4749 23.081 56.4177 19.4286 56.4177C15.7762 56.4177 12.7142 55.4749 11.3912 54.0971Z" fill="#FF6D2A"/>
<path d="M19.4286 52.4464C14.5289 52.4464 10.6909 50.7497 10.6909 48.5833V44.6117C10.6909 44.4207 10.8478 44.2658 11.0411 44.2658C11.2344 44.2658 11.3912 44.4207 11.3912 44.6117C11.3912 46.1437 14.6206 47.7837 19.4286 47.7837C24.2366 47.7837 27.466 46.1437 27.466 44.6117C27.466 44.4207 27.6229 44.2658 27.8162 44.2658C28.0095 44.2658 28.1663 44.4207 28.1663 44.6117V48.5833C28.1656 50.7497 24.3284 52.4464 19.4286 52.4464ZM11.3912 46.1541V48.5833C11.3912 50.1147 14.6206 51.7547 19.4286 51.7547C24.2366 51.7547 27.466 50.1147 27.466 48.5833V46.1541C26.143 47.532 23.081 48.4747 19.4286 48.4747C15.7762 48.4747 12.7142 47.532 11.3912 46.1541Z" fill="#FF6D2A"/>
<path d="M19.4286 56.4177C14.5289 56.4177 10.6909 54.7203 10.6909 52.5539V48.5833C10.6909 48.3924 10.8478 48.2376 11.0411 48.2376C11.2344 48.2376 11.3912 48.3924 11.3912 48.5833C11.3912 50.1147 14.6206 51.7547 19.4286 51.7547C24.2366 51.7547 27.466 50.1147 27.466 48.5833C27.466 48.3924 27.6229 48.2376 27.8162 48.2376C28.0095 48.2376 28.1663 48.3924 28.1663 48.5833V52.5539C28.1656 54.7203 24.3284 56.4177 19.4286 56.4177ZM11.3912 50.1259V52.5539C11.3912 54.086 14.6206 55.726 19.4286 55.726C24.2366 55.726 27.466 54.086 27.466 52.5539V50.1259C26.143 51.5031 23.081 52.4464 19.4286 52.4464C15.7762 52.4464 12.7142 51.5038 11.3912 50.1259Z" fill="#FF6D2A"/>
<path d="M44.1488 61C39.186 61 35.299 59.2825 35.299 57.0899V53.0649C35.299 52.874 35.4559 52.7191 35.6492 52.7191C35.8425 52.7191 35.9994 52.874 35.9994 53.0649C35.9994 54.6192 39.2743 56.2834 44.1488 56.2834C49.024 56.2834 52.2996 54.6192 52.2996 53.0649C52.2996 52.874 52.4565 52.7191 52.6498 52.7191C52.8431 52.7191 53 52.874 53 53.0649V57.0899C53 59.2825 49.1123 61 44.1488 61ZM36.0001 54.6171V57.0899C36.0001 58.6441 39.275 60.3083 44.1495 60.3083C49.0247 60.3083 52.3003 58.6441 52.3003 57.0899V54.6171C50.9661 56.0164 47.8579 56.975 44.1495 56.975C40.4411 56.975 37.3343 56.0164 36.0001 54.6171Z" fill="#FF6D2A"/>
<path d="M44.1488 56.9549C39.186 56.9549 35.299 55.2374 35.299 53.0448V49.0198C35.299 48.8289 35.4559 48.674 35.6492 48.674C35.8425 48.674 35.9994 48.8289 35.9994 49.0198C35.9994 50.5747 39.2743 52.2389 44.1488 52.2389C49.024 52.2389 52.2996 50.5747 52.2996 49.0198C52.2996 48.8289 52.4565 48.674 52.6498 48.674C52.8431 48.674 53 48.8289 53 49.0198V53.0448C53 55.2367 49.1123 56.9549 44.1488 56.9549ZM36.0001 50.572V53.0441C36.0001 54.5983 39.275 56.2625 44.1495 56.2625C49.0247 56.2625 52.3003 54.5983 52.3003 53.0441V50.5713C50.9661 51.9706 47.8579 52.9299 44.1495 52.9299C40.4411 52.9299 37.3343 51.9713 36.0001 50.572Z" fill="#FF6D2A"/>
<path d="M44.1488 44.9875C39.186 44.9875 35.299 43.27 35.299 41.0766C35.299 38.884 39.186 37.1665 44.1488 37.1665C49.1123 37.1665 53 38.884 53 41.0766C53 43.2693 49.1123 44.9875 44.1488 44.9875ZM44.1488 37.8575C39.2743 37.8575 35.9994 39.5217 35.9994 41.0759C35.9994 42.6309 39.2743 44.2951 44.1488 44.2951C49.024 44.2951 52.2996 42.6309 52.2996 41.0759C52.2996 39.5217 49.024 37.8575 44.1488 37.8575Z" fill="#FF6D2A"/>
<path d="M32.7355 42.5601C27.8365 42.5601 23.9985 40.8634 23.9985 38.697V34.7255C23.9985 34.5346 24.1553 34.3795 24.3486 34.3795C24.5419 34.3795 24.6988 34.5344 24.6988 34.7253C24.6988 36.2574 27.9275 37.8974 32.7355 37.8974C37.5435 37.8974 40.7736 36.2574 40.7736 34.7253C40.7736 34.5344 40.9305 34.3795 41.1238 34.3795C41.3171 34.3795 41.4739 34.5346 41.4739 34.7255V37.748C41.4739 37.9175 41.3493 38.062 41.1798 38.089C38.1304 38.5774 35.9994 39.8053 35.9994 41.0759C35.9994 41.3021 36.072 41.5302 36.2184 41.773C36.2779 41.8712 36.2849 41.9908 36.2359 42.0946C36.1883 42.1984 36.0916 42.2717 35.9782 42.291C34.9409 42.4695 33.8505 42.5601 32.7355 42.5601ZM24.6995 36.2685V38.697C24.6995 40.2284 27.9282 41.8684 32.7362 41.8684C33.6495 41.8684 34.5445 41.8055 35.4053 41.681C35.3353 41.479 35.3002 41.277 35.3002 41.0757C35.3002 39.4544 37.4384 38.0489 40.7743 37.4561V36.2678C39.4513 37.6456 36.3886 38.5884 32.7362 38.5884C29.0845 38.5891 26.0218 37.6456 24.6995 36.2685Z" fill="#FF6D2A"/>
<path d="M44.1488 49.0123C39.186 49.0123 35.299 47.2948 35.299 45.1015V41.0766C35.299 40.8857 35.4559 40.7307 35.6492 40.7307C35.8425 40.7307 35.9994 40.885 35.9994 41.0759C35.9994 42.6309 39.2743 44.2951 44.1488 44.2951C49.024 44.2951 52.2996 42.6309 52.2996 41.0759C52.2996 40.885 52.4565 40.7307 52.6498 40.7307C52.8431 40.7307 53 40.8857 53 41.0766V45.1015C53 47.2948 49.1123 49.0123 44.1488 49.0123ZM36.0001 42.6294V45.1015C36.0001 46.6564 39.275 48.3206 44.1495 48.3206C49.0247 48.3206 52.3003 46.6564 52.3003 45.1015V42.6287C50.9661 44.028 47.8579 44.9873 44.1495 44.9873C40.4411 44.9873 37.3343 44.0287 36.0001 42.6294Z" fill="#FF6D2A"/>
<path d="M36.1876 42.6605C36.0903 42.6605 35.9936 42.6204 35.9243 42.5422C35.8024 42.4053 35.7023 42.269 35.6168 42.1272C35.5839 42.0719 35.5685 42.011 35.5685 41.9515C35.5685 41.8333 35.6301 41.7178 35.7401 41.6527C35.9054 41.5573 36.1211 41.6092 36.2205 41.7745C36.2843 41.881 36.3613 41.9847 36.4516 42.0864C36.5098 42.1521 36.5385 42.2331 36.5385 42.314C36.5385 42.4108 36.4979 42.5056 36.4187 42.5741C36.3522 42.6322 36.2696 42.6605 36.1876 42.6605Z" fill="#FF6D2A"/>
<path d="M32.7355 46.5305C30.9244 46.5305 29.1868 46.2919 27.7104 45.8416C27.391 45.7455 27.4135 45.4238 27.4478 44.9376C27.4562 44.8172 27.4646 44.6983 27.4646 44.6111C27.4646 43.6517 26.2607 42.7124 24.245 42.0975C24.0979 42.0532 23.9978 41.919 23.9978 41.7669L23.9985 38.697C23.9985 38.5061 24.1547 38.3513 24.348 38.3513C24.5413 38.3513 24.6981 38.5062 24.6981 38.6971C24.6981 40.2285 27.9268 41.8685 32.7348 41.8685C33.6957 41.8685 34.6573 41.7952 35.5937 41.6493C35.6988 41.6348 35.7982 41.6631 35.8759 41.7281C35.953 41.7938 35.9985 41.8893 35.9985 41.991V45.1015C35.9985 45.19 36.0076 45.3076 36.0153 45.4259C36.0475 45.8838 36.0734 46.2463 35.7065 46.305C34.7498 46.4551 33.751 46.5305 32.7355 46.5305ZM28.1306 45.244C30.224 45.8416 32.9225 45.9993 35.3297 45.6618C35.3262 45.5954 35.3213 45.5269 35.3171 45.4736C35.3073 45.3381 35.299 45.2025 35.299 45.1015L35.2988 42.3908C34.4549 42.5035 33.5941 42.5601 32.7355 42.5601C29.0838 42.5601 26.0211 41.6175 24.6988 40.2403V41.5158C26.9057 42.24 28.1649 43.3605 28.1649 44.6125C28.1649 44.7128 28.1558 44.849 28.146 44.9867C28.1418 45.0586 28.1348 45.1589 28.1306 45.244Z" fill="#FF6D2A"/>
<path d="M44.1488 53.0581C39.186 53.0581 35.299 51.3406 35.299 49.1479V45.123C35.299 44.9321 35.4559 44.7771 35.6492 44.7771C35.8425 44.7771 35.9994 44.9321 35.9994 45.123C35.9994 46.6772 39.2743 48.3414 44.1488 48.3414C49.024 48.3414 52.2996 46.6772 52.2996 45.123C52.2996 44.9321 52.4565 44.7771 52.6498 44.7771C52.8431 44.7771 53 44.9321 53 45.123V49.1479C53 51.3399 49.1123 53.0581 44.1488 53.0581ZM36.0001 46.6744V49.1472C36.0001 50.7015 39.275 52.3657 44.1495 52.3657C49.0247 52.3657 52.3003 50.7015 52.3003 49.1472V46.6744C50.9661 48.0737 47.8579 49.0324 44.1495 49.0324C40.4411 49.0324 37.3343 48.0744 36.0001 46.6744Z" fill="#FF6D2A"/>
<path d="M32.7355 50.5015C30.9215 50.5015 29.1846 50.2635 27.7118 49.8146C27.3924 49.7164 27.4141 49.3948 27.4477 48.9064C27.4568 48.7868 27.4645 48.6692 27.4645 48.5827V45.5089C27.4645 45.3989 27.5171 45.2958 27.6067 45.2308C27.6963 45.1658 27.8112 45.145 27.9177 45.1789C30.1224 45.8506 32.9687 46.029 35.5936 45.6195C35.6987 45.6043 35.7982 45.6334 35.8759 45.6984C35.9529 45.7641 35.9985 45.8595 35.9985 45.9612V49.1471C35.9985 49.2288 36.0062 49.3374 36.0132 49.4466C36.0419 49.8796 36.0643 50.222 35.705 50.2774C34.7546 50.4261 33.7552 50.5015 32.7355 50.5015ZM28.1313 49.217C29.4914 49.6057 31.0777 49.8098 32.7355 49.8098C33.6214 49.8098 34.4913 49.751 35.3247 49.6341C35.3219 49.5891 35.3184 49.54 35.3149 49.4916C35.3065 49.3664 35.2988 49.2412 35.2988 49.1471V46.361C32.8622 46.6875 30.2758 46.5326 28.1649 45.9695V48.5834C28.1649 48.683 28.1558 48.8172 28.1467 48.9542C28.1425 49.0289 28.1348 49.1305 28.1313 49.217Z" fill="#FF6D2A"/>
<path d="M32.7355 54.4739C30.9208 54.4739 29.1839 54.2359 27.7118 53.7863C27.3924 53.6853 27.4141 53.3651 27.4477 52.8781C27.4568 52.7585 27.4645 52.6409 27.4645 52.5537V49.4819C27.4645 49.3719 27.5171 49.2682 27.6067 49.2039C27.6963 49.1382 27.8133 49.1202 27.9177 49.152C30.1056 49.8202 32.9435 50.0035 35.5936 49.5884C35.6952 49.5739 35.7975 49.6016 35.8752 49.6673C35.9529 49.733 35.9985 49.8285 35.9985 49.9301V53.0448C35.9985 53.134 36.0076 53.2523 36.0153 53.3713C36.0482 53.8313 36.0748 54.1951 35.7015 54.2497C34.7539 54.3978 33.7552 54.4739 32.7355 54.4739ZM28.1313 53.188C29.4886 53.5767 31.0763 53.7815 32.7355 53.7815C33.6235 53.7815 34.4948 53.722 35.3303 53.6044C35.3268 53.5394 35.3212 53.4716 35.3177 53.4183C35.3079 53.2821 35.2988 53.1451 35.2988 53.0434V50.3292C32.8433 50.6606 30.2625 50.5008 28.1649 49.9405V52.5523C28.1649 52.6526 28.1558 52.7868 28.1467 52.9238C28.1425 52.9999 28.1348 53.1015 28.1313 53.188Z" fill="#FF6D2A"/>
<path d="M23.9985 34.7255C23.9985 36.8919 27.8365 38.5893 32.7355 38.5893C37.6359 38.5893 41.4739 36.8919 41.4739 34.7255M23.9985 34.7255V30.7552M23.9985 34.7255V38.697M23.9985 34.7255C23.9985 34.5346 24.1553 34.3795 24.3486 34.3795C24.5419 34.3795 24.6988 34.5344 24.6988 34.7253C24.6988 36.2574 27.9275 37.8974 32.7355 37.8974C37.5435 37.8974 40.7736 36.2574 40.7736 34.7253C40.7736 34.5344 40.9305 34.3795 41.1238 34.3795C41.3171 34.3795 41.4739 34.5346 41.4739 34.7255M23.9985 30.7552C23.9985 30.5643 24.1553 30.4094 24.3486 30.4094C24.5419 30.4094 24.6988 30.5643 24.6988 30.7552M23.9985 30.7552C23.9985 32.9209 27.8365 34.6176 32.7355 34.6176C37.6359 34.6176 41.4739 32.9202 41.4739 30.7552M23.9985 30.7552C23.9985 28.5888 27.8358 26.8915 32.7355 26.8915C37.6352 26.8915 41.4739 28.5888 41.4739 30.7552M24.6988 30.7552C24.6988 32.2866 27.9275 33.9259 32.7355 33.9259C37.5435 33.9259 40.7736 32.2866 40.7736 30.7552M24.6988 30.7552C24.6988 29.2231 27.9282 27.5831 32.7355 27.5831C37.5442 27.5831 40.7736 29.2231 40.7736 30.7552M40.7736 30.7552C40.7736 30.5643 40.9305 30.4094 41.1238 30.4094C41.3171 30.4094 41.4739 30.5643 41.4739 30.7552M41.4739 30.7552V34.7255M41.4739 34.7255V37.748C41.4739 37.9175 41.3493 38.062 41.1798 38.089C38.1304 38.5773 35.9994 39.8053 35.9994 41.0759M10.6909 44.6117C10.6909 46.778 14.5289 48.4754 19.4286 48.4754C24.3284 48.4754 28.1656 46.778 28.1663 44.6117M10.6909 44.6117C10.6909 42.446 14.5282 40.7492 19.4286 40.7492C24.3291 40.7492 28.1663 42.446 28.1663 44.6117M10.6909 44.6117V48.5833M10.6909 44.6117C10.6909 44.4207 10.8478 44.2658 11.0411 44.2658C11.2344 44.2658 11.3912 44.4207 11.3912 44.6117M28.1663 44.6117C28.1663 44.4207 28.0095 44.2658 27.8162 44.2658C27.6229 44.2658 27.466 44.4207 27.466 44.6117M28.1663 44.6117V48.5833M11.3912 44.6117C11.3912 43.0802 14.6213 41.4409 19.4286 41.4409C24.2359 41.4409 27.4653 43.0802 27.466 44.6117M11.3912 44.6117C11.3912 46.1437 14.6206 47.7837 19.4286 47.7837C24.2366 47.7837 27.466 46.1437 27.466 44.6117M10.6909 52.5539V56.5256C10.6909 58.692 14.5289 60.3887 19.4286 60.3887C24.3284 60.3887 28.1656 58.692 28.1663 56.5256V52.5539M10.6909 52.5539C10.6909 52.363 10.8478 52.2081 11.0411 52.2081C11.2344 52.2081 11.3912 52.363 11.3912 52.5539M10.6909 52.5539C10.6909 54.7203 14.5289 56.4177 19.4286 56.4177M10.6909 52.5539V48.5833M11.3912 52.5539C11.3912 54.086 14.6206 55.726 19.4286 55.726C24.2366 55.726 27.466 54.086 27.466 52.5539M11.3912 52.5539V50.1259C12.7142 51.5038 15.7762 52.4464 19.4286 52.4464M27.466 52.5539C27.466 52.363 27.6229 52.2081 27.8162 52.2081C28.0095 52.2081 28.1663 52.363 28.1663 52.5539M27.466 52.5539V50.1259C26.143 51.5031 23.081 52.4464 19.4286 52.4464M28.1663 52.5539V48.5833M28.1663 52.5539C28.1656 54.7203 24.3284 56.4177 19.4286 56.4177M19.4286 56.4177C23.081 56.4177 26.143 55.4749 27.466 54.0971V56.5263C27.466 58.0577 24.2366 59.6977 19.4286 59.6977C14.6206 59.6977 11.3912 58.0577 11.3912 56.5263V54.0971C12.7142 55.4749 15.7762 56.4177 19.4286 56.4177ZM19.4286 52.4464C14.5289 52.4464 10.6909 50.7497 10.6909 48.5833M19.4286 52.4464C24.3284 52.4464 28.1656 50.7497 28.1663 48.5833M10.6909 48.5833C10.6909 48.3924 10.8478 48.2376 11.0411 48.2376C11.2344 48.2376 11.3912 48.3924 11.3912 48.5833M28.1663 48.5833C28.1663 48.3924 28.0095 48.2376 27.8162 48.2376C27.6229 48.2376 27.466 48.3924 27.466 48.5833M11.3912 48.5833V46.1541C12.7142 47.532 15.7762 48.4747 19.4286 48.4747C23.081 48.4747 26.143 47.532 27.466 46.1541V48.5833M11.3912 48.5833C11.3912 50.1147 14.6206 51.7547 19.4286 51.7547C24.2366 51.7547 27.466 50.1147 27.466 48.5833M35.299 41.0766C35.299 43.27 39.186 44.9875 44.1488 44.9875C49.1123 44.9875 53 43.2693 53 41.0766M35.299 41.0766C35.299 38.884 39.186 37.1665 44.1488 37.1665C49.1123 37.1665 53 38.884 53 41.0766M35.299 41.0766V45.1015M35.299 41.0766C35.299 40.8857 35.4559 40.7307 35.6492 40.7307C35.8425 40.7307 35.9994 40.885 35.9994 41.0759M53 41.0766C53 40.8857 52.8431 40.7307 52.6498 40.7307C52.4565 40.7307 52.2996 40.885 52.2996 41.0759M53 41.0766V45.1015C53 47.2948 49.1123 49.0123 44.1488 49.0123C39.186 49.0123 35.299 47.2948 35.299 45.1015M35.9994 41.0759C35.9994 39.5217 39.2743 37.8575 44.1488 37.8575C49.024 37.8575 52.2996 39.5217 52.2996 41.0759M35.9994 41.0759C35.9994 42.6309 39.2743 44.2951 44.1488 44.2951C49.024 44.2951 52.2996 42.6309 52.2996 41.0759M35.9994 41.0759C35.9994 41.3021 36.072 41.5302 36.2184 41.773C36.2779 41.8712 36.2849 41.9908 36.2359 42.0946C36.1883 42.1984 36.0916 42.2717 35.9782 42.291C34.9409 42.4695 33.8505 42.5601 32.7355 42.5601M32.7355 42.5601C27.8365 42.5601 23.9985 40.8634 23.9985 38.697M32.7355 42.5601C33.5941 42.5601 34.4549 42.5035 35.2988 42.3908L35.299 45.1015M32.7355 42.5601C29.0838 42.5601 26.0211 41.6175 24.6988 40.2403V41.5158C26.9057 42.24 28.1649 43.3605 28.1649 44.6125C28.1649 44.7128 28.1558 44.849 28.146 44.9867C28.1418 45.0586 28.1348 45.1589 28.1306 45.244C30.224 45.8416 32.9225 45.9993 35.3297 45.6618C35.3262 45.5954 35.3213 45.5269 35.3171 45.4736C35.3073 45.3381 35.299 45.2025 35.299 45.1015M23.9985 38.697L23.9978 41.7669C23.9978 41.919 24.0979 42.0532 24.245 42.0975C26.2607 42.7124 27.4646 43.6517 27.4646 44.6111C27.4646 44.6983 27.4562 44.8172 27.4478 44.9376C27.4135 45.4238 27.391 45.7455 27.7104 45.8416C29.1868 46.2919 30.9244 46.5305 32.7355 46.5305C33.751 46.5305 34.7498 46.4551 35.7065 46.305C36.0734 46.2463 36.0475 45.8838 36.0153 45.4259C36.0076 45.3076 35.9985 45.19 35.9985 45.1015V41.991C35.9985 41.8893 35.953 41.7938 35.8759 41.7281C35.7982 41.6631 35.6988 41.6348 35.5937 41.6493C34.6573 41.7952 33.6957 41.8685 32.7348 41.8685C27.9268 41.8685 24.6981 40.2285 24.6981 38.6971C24.6981 38.5062 24.5413 38.3513 24.348 38.3513C24.1547 38.3513 23.9985 38.5061 23.9985 38.697ZM5.20218 60.1396C5.20218 60.3305 5.0453 60.4854 4.852 60.4854H1.35018C1.15688 60.4854 1 60.3305 1 60.1396V1.34585C1 1.15494 1.15688 1 1.35018 1H4.852C5.0453 1 5.20218 1.15494 5.20218 1.34585V60.1396ZM1.70036 59.7937H4.50182V1.69169H1.70036V59.7937ZM4.67891 23.5832C4.60677 23.5832 4.62218 23.5617 4.56195 23.5188C4.4702 23.4545 4.50172 23.3501 4.50172 23.2373V1.53067C4.50172 1.42069 4.4674 1.31694 4.55775 1.25261C4.64809 1.1869 4.71953 1.16892 4.82669 1.20073L38.1633 11.4862C38.3083 11.5304 38.3965 11.6619 38.3986 11.8113C38.4007 11.9607 38.3006 12.0942 38.1577 12.1433L4.79657 23.5645C4.75875 23.5776 4.71743 23.5832 4.67891 23.5832ZM5.20208 2.00033V22.7517L37.0903 11.8334L5.20208 2.00033ZM24.6995 32.2977V34.7255C24.6995 36.2576 27.9282 37.8976 32.7362 37.8976C37.5442 37.8976 40.7743 36.2576 40.7743 34.7255V32.2977C39.4513 33.6741 36.3886 34.6176 32.7362 34.6176C29.0845 34.6176 26.0218 33.6741 24.6995 32.2977ZM44.1488 61C39.186 61 35.299 59.2825 35.299 57.0899V53.0649C35.299 52.874 35.4559 52.7191 35.6492 52.7191C35.8425 52.7191 35.9994 52.874 35.9994 53.0649C35.9994 54.6192 39.2743 56.2834 44.1488 56.2834C49.024 56.2834 52.2996 54.6192 52.2996 53.0649C52.2996 52.874 52.4565 52.7191 52.6498 52.7191C52.8431 52.7191 53 52.874 53 53.0649V57.0899C53 59.2825 49.1123 61 44.1488 61ZM36.0001 54.6171V57.0899C36.0001 58.6441 39.275 60.3083 44.1495 60.3083C49.0247 60.3083 52.3003 58.6441 52.3003 57.0899V54.6171C50.9661 56.0164 47.8579 56.975 44.1495 56.975C40.4411 56.975 37.3343 56.0164 36.0001 54.6171ZM44.1488 56.9549C39.186 56.9549 35.299 55.2374 35.299 53.0448V49.0198C35.299 48.8289 35.4559 48.674 35.6492 48.674C35.8425 48.674 35.9994 48.8289 35.9994 49.0198C35.9994 50.5747 39.2743 52.2389 44.1488 52.2389C49.024 52.2389 52.2996 50.5747 52.2996 49.0198C52.2996 48.8289 52.4565 48.674 52.6498 48.674C52.8431 48.674 53 48.8289 53 49.0198V53.0448C53 55.2367 49.1123 56.9549 44.1488 56.9549ZM36.0001 50.572V53.0441C36.0001 54.5983 39.275 56.2625 44.1495 56.2625C49.0247 56.2625 52.3003 54.5983 52.3003 53.0441V50.5713C50.9661 51.9706 47.8579 52.9299 44.1495 52.9299C40.4411 52.9299 37.3343 51.9713 36.0001 50.572ZM24.6995 36.2685V38.697C24.6995 40.2284 27.9282 41.8684 32.7362 41.8684C33.6495 41.8684 34.5445 41.8055 35.4053 41.681C35.3352 41.479 35.3002 41.277 35.3002 41.0757C35.3002 39.4544 37.4384 38.0489 40.7743 37.4561V36.2678C39.4513 37.6456 36.3886 38.5884 32.7362 38.5884C29.0845 38.5891 26.0218 37.6456 24.6995 36.2685ZM36.0001 42.6294V45.1015C36.0001 46.6564 39.275 48.3206 44.1495 48.3206C49.0247 48.3206 52.3003 46.6564 52.3003 45.1015V42.6287C50.9661 44.028 47.8579 44.9873 44.1495 44.9873C40.4411 44.9873 37.3343 44.0287 36.0001 42.6294ZM36.1876 42.6605C36.0903 42.6605 35.9936 42.6204 35.9243 42.5422C35.8024 42.4053 35.7023 42.269 35.6168 42.1272C35.5839 42.0719 35.5685 42.011 35.5685 41.9515C35.5685 41.8333 35.6301 41.7178 35.7401 41.6527C35.9054 41.5573 36.1211 41.6092 36.2205 41.7745C36.2843 41.881 36.3613 41.9847 36.4516 42.0864C36.5098 42.1521 36.5385 42.2331 36.5385 42.314C36.5385 42.4108 36.4979 42.5056 36.4187 42.5741C36.3522 42.6322 36.2696 42.6605 36.1876 42.6605ZM44.1488 53.0581C39.186 53.0581 35.299 51.3406 35.299 49.1479V45.123C35.299 44.9321 35.4559 44.7771 35.6492 44.7771C35.8425 44.7771 35.9994 44.9321 35.9994 45.123C35.9994 46.6772 39.2743 48.3414 44.1488 48.3414C49.024 48.3414 52.2996 46.6772 52.2996 45.123C52.2996 44.9321 52.4565 44.7771 52.6498 44.7771C52.8431 44.7771 53 44.9321 53 45.123V49.1479C53 51.3399 49.1123 53.0581 44.1488 53.0581ZM36.0001 46.6744V49.1472C36.0001 50.7015 39.275 52.3657 44.1495 52.3657C49.0247 52.3657 52.3003 50.7015 52.3003 49.1472V46.6744C50.9661 48.0737 47.8579 49.0324 44.1495 49.0324C40.4411 49.0324 37.3343 48.0744 36.0001 46.6744ZM32.7355 50.5015C30.9215 50.5015 29.1846 50.2635 27.7118 49.8146C27.3924 49.7164 27.4141 49.3948 27.4477 48.9064C27.4568 48.7868 27.4645 48.6692 27.4645 48.5827V45.5089C27.4645 45.3989 27.5171 45.2958 27.6067 45.2308C27.6963 45.1658 27.8112 45.145 27.9177 45.1789C30.1224 45.8506 32.9687 46.029 35.5936 45.6195C35.6987 45.6043 35.7982 45.6334 35.8759 45.6984C35.9529 45.7641 35.9985 45.8595 35.9985 45.9612V49.1471C35.9985 49.2288 36.0062 49.3374 36.0132 49.4466C36.0419 49.8796 36.0643 50.222 35.705 50.2774C34.7546 50.4261 33.7552 50.5015 32.7355 50.5015ZM28.1313 49.217C29.4914 49.6057 31.0777 49.8098 32.7355 49.8098C33.6214 49.8098 34.4913 49.751 35.3247 49.6341C35.3219 49.5891 35.3184 49.54 35.3149 49.4916C35.3065 49.3664 35.2988 49.2412 35.2988 49.1471V46.361C32.8622 46.6875 30.2758 46.5326 28.1649 45.9695V48.5834C28.1649 48.683 28.1558 48.8172 28.1467 48.9542C28.1425 49.0289 28.1348 49.1305 28.1313 49.217ZM32.7355 54.4739C30.9208 54.4739 29.1839 54.2359 27.7118 53.7863C27.3924 53.6853 27.4141 53.3651 27.4477 52.8781C27.4568 52.7585 27.4645 52.6409 27.4645 52.5537V49.4819C27.4645 49.3719 27.5171 49.2682 27.6067 49.2039C27.6963 49.1382 27.8133 49.1202 27.9177 49.152C30.1056 49.8202 32.9435 50.0035 35.5936 49.5884C35.6952 49.5739 35.7975 49.6016 35.8752 49.6673C35.9529 49.733 35.9985 49.8285 35.9985 49.9301V53.0448C35.9985 53.134 36.0076 53.2523 36.0153 53.3713C36.0482 53.8313 36.0748 54.1951 35.7015 54.2497C34.7539 54.3978 33.7552 54.4739 32.7355 54.4739ZM28.1313 53.188C29.4886 53.5767 31.0763 53.7815 32.7355 53.7815C33.6235 53.7815 34.4948 53.722 35.3303 53.6044C35.3268 53.5394 35.3212 53.4716 35.3177 53.4183C35.3079 53.2821 35.2988 53.1451 35.2988 53.0434V50.3292C32.8433 50.6606 30.2625 50.5008 28.1649 49.9405V52.5523C28.1649 52.6526 28.1558 52.7868 28.1467 52.9238C28.1425 52.9999 28.1348 53.1015 28.1313 53.188Z" stroke="#FF6D2A" stroke-width="0.7"/>
</svg>
