<svg width="146" height="75" viewBox="0 0 146 75" fill="none" xmlns="http://www.w3.org/2000/svg">
<path fill-rule="evenodd" clip-rule="evenodd" d="M7.7239 40.0662L4.10335 41.2736V46.2216H0V48.9975H3.98244V59.6173C3.98244 64.3244 5.43083 66.3765 9.65509 66.3765C10.6199 66.3765 11.5854 66.2556 12.6719 66.0137L12.551 63.117C11.8264 63.358 11.1026 63.5989 10.6199 63.5989C8.44768 63.5989 7.7239 62.2723 7.7239 59.2546V48.9966H12.431V46.2208H7.7239V40.0662ZM27.8771 54.5467H17.3782C17.7409 50.686 19.913 48.3921 22.809 48.3921C25.7049 48.3929 27.6353 50.5651 27.8771 54.5467ZM31.2567 55.5123C31.2567 49.3577 28.1189 45.738 22.9299 45.738C17.4991 45.738 13.6375 49.7204 13.6375 55.8742C13.6375 62.5124 17.4991 66.4941 23.4127 66.4941C25.7058 66.4941 27.8779 66.2531 29.6882 65.4084V62.2706C27.8779 63.2362 26.0677 63.7182 24.2574 63.7182C20.0331 63.7182 17.4991 61.1833 17.2581 56.9607H31.2567V55.5123ZM55.5132 54.5467H44.8934C45.3762 50.686 47.4274 48.3921 50.3242 48.3921C53.3411 48.3929 55.1513 50.5651 55.5132 54.5467ZM58.892 55.5123C58.892 49.3577 55.7542 45.738 50.5652 45.738C45.1344 45.738 41.2728 49.7204 41.2728 55.8742C41.2728 62.5124 45.0143 66.4941 51.048 66.4941C53.3411 66.4941 55.5132 66.2531 57.3235 65.4084V62.2706C55.5124 63.2362 53.703 63.7182 51.8927 63.7182C47.6684 63.7182 45.1344 61.1833 44.8934 56.9607H58.892V55.5123Z" fill="#ECC244"/>
<path fill-rule="evenodd" clip-rule="evenodd" d="M129.732 55.9959C129.732 60.703 127.56 63.478 124.301 63.478C121.043 63.478 118.75 60.7022 118.75 55.9959C118.75 51.4106 121.163 48.7548 124.422 48.7548C127.68 48.7548 129.732 51.2897 129.732 55.9959ZM118.75 62.8752C120.197 65.1674 122.491 66.3756 125.266 66.3756C130.214 66.3756 133.593 62.3915 133.593 55.7558C133.593 49.5995 130.214 45.7388 125.388 45.7388C122.371 45.7388 119.956 47.1864 118.388 50.0831V46.2208H115.13V74.3397H118.75V62.8752ZM140.593 40.0662L137.093 41.2736V46.2216H132.989V48.9975H136.973V59.6173C136.973 64.3244 138.421 66.3765 142.524 66.3765C143.49 66.3765 144.575 66.2556 145.541 66.0137V63.117C144.696 63.358 144.093 63.5989 143.49 63.5989C141.318 63.5989 140.593 62.2723 140.593 59.2546V48.9966H145.3V46.2208H140.593V40.0662Z" fill="#888A8D"/>
<path fill-rule="evenodd" clip-rule="evenodd" d="M33.6699 38.8596V59.7374C33.6699 62.2723 33.9117 63.9608 34.9974 65.0473C37.0495 66.9785 40.5483 66.7359 40.5483 66.7359V63.478C40.5483 63.478 38.8589 63.5981 38.0143 62.7534C37.0487 61.7878 37.2905 59.7366 37.2905 59.7366V37.2903L33.6699 38.8596Z" fill="#ECC244"/>
<path fill-rule="evenodd" clip-rule="evenodd" d="M70.2363 56.2371H72.6503V57.6847C72.6503 61.4262 70.3573 63.7192 66.9777 63.7192C64.8055 63.7192 63.3571 62.2717 63.3571 60.3405C63.3571 57.6847 65.7711 56.2371 70.2363 56.2371ZM76.15 53.9441C76.15 48.5141 73.7368 45.739 68.788 45.739C66.374 45.739 64.2018 46.221 62.1506 47.1866V50.2034C64.0817 48.9968 66.0121 48.5149 67.7015 48.5149C70.7183 48.5149 72.6495 50.3252 72.6495 53.4629V53.8256H69.9945C63.2362 53.8256 59.7366 56.2388 59.7366 60.4622C59.7366 63.9627 62.2706 66.3775 66.0121 66.3775C69.0289 66.3775 71.322 65.1693 72.8913 62.7561V63.7217C72.8913 63.7217 72.8913 64.6873 73.0122 65.4119C73.3749 66.3775 73.9786 66.7386 73.9786 66.7386H77.2365C77.2365 66.7386 76.6328 66.0156 76.2709 65.291C76.0299 64.4463 76.1508 63.7217 76.1508 63.7217V53.9441H76.15ZM107.164 56.2371H109.577V57.6847C109.577 61.4262 107.285 63.7192 103.906 63.7192C101.734 63.7192 100.406 62.2717 100.406 60.3405C100.407 57.6847 102.7 56.2371 107.164 56.2371ZM113.078 53.9441C113.078 48.5141 110.664 45.739 105.716 45.739C103.303 45.739 101.131 46.221 99.0782 47.1866V50.2034C101.009 48.9968 102.941 48.5149 104.629 48.5149C107.767 48.5149 109.577 50.3252 109.577 53.4629V53.8256H106.923C100.166 53.8256 96.6651 56.2388 96.6651 60.4622C96.6651 63.9627 99.1999 66.3775 102.941 66.3775C105.957 66.3775 108.251 65.1693 109.82 62.7561V63.7217C109.82 63.7217 109.82 64.6873 109.94 65.4119C110.303 66.3775 110.905 66.7386 110.905 66.7386H114.165C114.165 66.7386 113.561 66.0156 113.199 65.291C112.958 64.4463 113.078 63.7217 113.078 63.7217V53.9441H113.078Z" fill="#888A8D"/>
<path fill-rule="evenodd" clip-rule="evenodd" d="M67.2195 3.37964H91.7178L72.7704 13.3958L73.6151 8.44775L67.2195 3.37964Z" fill="#ECC244"/>
<path fill-rule="evenodd" clip-rule="evenodd" d="M76.6319 13.2748V33.6698C68.7879 36.9277 64.6846 37.1695 59.6165 37.1695C53.9447 37.1695 46.7036 35.9629 46.7036 30.1702C46.7036 23.4119 59.6165 13.7576 70.84 9.17146L69.8744 7.48209C61.9095 10.9817 58.289 12.9129 52.2553 17.0154C46.2208 21.3598 41.0317 27.2734 41.0317 32.5833C41.0317 38.8588 49.4794 40.3072 55.5131 40.3072C67.0986 40.3072 76.029 37.8933 88.9428 31.0149C100.407 24.9803 112.837 17.3782 112.837 7.96489C112.837 2.05209 104.27 0 97.5106 0C91.7187 0 88.4592 0.361888 82.5464 2.53405H96.545L76.6319 13.2748ZM86.6489 48.634C90.0276 48.634 92.3215 51.2898 92.3215 55.9969C92.3215 60.5822 89.9084 63.358 86.7706 63.358C83.5111 63.358 81.4607 60.7039 81.4607 55.9969C81.4607 51.2898 83.632 48.634 86.6489 48.634ZM92.3207 38.1351V49.3586C90.8715 46.9455 88.5793 45.7389 85.6825 45.7389C80.8562 45.7389 77.5967 49.5996 77.5967 55.8751C77.5967 62.1506 81.0972 66.3757 85.6825 66.3757C88.701 66.3757 91.1141 64.9265 92.5617 62.0297V66.0138H95.9404V37.2904L92.3207 38.1351Z" fill="#888A8D"/>
</svg>
