<svg width="61" height="60" viewBox="0 0 61 60" fill="none" xmlns="http://www.w3.org/2000/svg">
<path d="M59.7085 24.7638L54.0637 24.2192C53.467 21.8223 52.4983 19.5338 51.1929 17.4368L54.7725 13.1153C54.9275 12.9279 55.0072 12.6895 54.9962 12.4466C54.9852 12.2037 54.8842 11.9735 54.7129 11.8009L48.7612 5.78872C48.5889 5.61458 48.3576 5.51132 48.1129 5.49931C47.8682 5.48729 47.6279 5.5674 47.4394 5.72383L43.1101 9.31327C41.0053 8.02197 38.7167 7.05765 36.3225 6.45325L35.7783 0.861173C35.7538 0.621351 35.6398 0.39956 35.4591 0.240002C35.2784 0.0804446 35.0442 -0.00516285 34.8032 0.000241099H26.2686C26.0276 -0.00511381 25.7935 0.0804627 25.6128 0.239933C25.4322 0.399404 25.3182 0.621072 25.2935 0.860806L24.7492 6.4655C22.3495 7.05353 20.057 8.01478 17.9556 9.31413L13.6332 5.7264C13.4456 5.57057 13.2067 5.49029 12.9631 5.50125C12.7195 5.51221 12.4888 5.61363 12.316 5.78566L6.29119 11.7972C6.11841 11.9697 6.01627 12.2005 6.00478 12.4444C5.9933 12.6883 6.0733 12.9277 6.22911 13.1156L9.81684 17.4417C8.52607 19.5437 7.56009 21.8286 6.95155 24.219L1.29017 24.7639C1.04487 24.7861 0.816292 24.8977 0.647912 25.0774C0.479532 25.2572 0.383098 25.4926 0.376953 25.7388V34.2612C0.383059 34.5074 0.479428 34.7427 0.647736 34.9225C0.816043 35.1023 1.04455 35.2139 1.2898 35.2362L6.93466 35.7808C7.53135 38.1777 8.50004 40.4662 9.80545 42.5632L6.22556 46.8848C6.0699 47.073 5.99015 47.3126 6.00196 47.5565C6.01376 47.8005 6.11626 48.0312 6.28935 48.2035L12.3147 54.2157C12.4872 54.3881 12.7179 54.49 12.9616 54.5013C13.2053 54.5126 13.4445 54.4326 13.6323 54.2769L17.9618 50.6873C20.0665 51.9788 22.3551 52.9432 24.7492 53.5477L25.2935 59.1398C25.3183 59.3794 25.4323 59.601 25.613 59.7603C25.7937 59.9197 26.0277 60.0052 26.2686 59.9998H34.8032C35.0442 60.0051 35.2783 59.9196 35.459 59.7601C35.6397 59.6006 35.7537 59.3789 35.7783 59.1392L36.3225 53.5346C38.7223 52.9466 41.0148 51.9853 43.1162 50.6859L47.4386 54.2736C47.6261 54.4296 47.865 54.51 48.1087 54.499C48.3523 54.488 48.5831 54.3865 48.7558 54.2143L54.7802 48.2031C54.953 48.0306 55.0552 47.7998 55.0666 47.5559C55.0781 47.3121 54.9981 47.0727 54.8423 46.8847L51.2546 42.5586C52.5454 40.4564 53.5114 38.1713 54.1199 35.7805L59.7086 35.2364C59.9539 35.214 60.1824 35.1024 60.3507 34.9226C60.519 34.7428 60.6153 34.5074 60.6214 34.2612V25.7388C60.6153 25.4926 60.5189 25.2573 60.3506 25.0775C60.1823 24.8977 59.9538 24.7861 59.7085 24.7638ZM58.6622 33.3727L53.2622 33.8985C53.0551 33.9182 52.8593 34.0024 52.7024 34.1391C52.5455 34.2759 52.4354 34.4583 52.3876 34.6609C51.7921 37.3107 50.7237 39.8314 49.2337 42.102C49.1191 42.2768 49.0635 42.4837 49.0749 42.6924C49.0863 42.9011 49.1641 43.1007 49.297 43.262L52.7658 47.4476L48.0042 52.1998L43.8165 48.7279C43.6546 48.5937 43.4539 48.5151 43.2439 48.5038C43.0339 48.4925 42.8259 48.5491 42.6505 48.6651C40.3878 50.1643 37.8638 51.2255 35.2096 51.7938C35.0082 51.8321 34.8245 51.9344 34.6858 52.0855C34.5472 52.2366 34.4611 52.4284 34.4403 52.6324L33.914 58.0406H27.1578L26.6313 52.6318C26.6108 52.426 26.5248 52.2322 26.386 52.0789C26.2471 51.9257 26.0627 51.821 25.8598 51.7804C23.2076 51.1968 20.6833 50.1366 18.4097 48.6512C18.2344 48.5392 18.028 48.486 17.8204 48.4992C17.6128 48.5124 17.4148 48.5914 17.2551 48.7246L13.0673 52.1979L8.3062 47.4469L11.7767 43.2616C11.9111 43.0994 11.9896 42.8983 12.0006 42.688C12.0117 42.4777 11.9546 42.2694 11.838 42.0941C10.3367 39.8357 9.27215 37.3159 8.69938 34.6653C8.64921 34.4607 8.53646 34.2769 8.37683 34.1395C8.21721 34.0021 8.01868 33.9179 7.80893 33.8987L2.33612 33.3717V26.6283L7.80893 26.1017C8.01632 26.0822 8.21236 25.9981 8.36946 25.8614C8.52656 25.7246 8.6368 25.542 8.68468 25.3393C9.27991 22.6895 10.348 20.1688 11.8378 17.8981C11.9524 17.7233 12.008 17.5164 11.9966 17.3077C11.9852 17.099 11.9073 16.8994 11.7744 16.7381L8.30558 12.5524L13.0676 7.8014L17.2553 11.2732C17.4172 11.4074 17.6179 11.4859 17.8278 11.4972C18.0378 11.5086 18.2458 11.452 18.4211 11.336C20.6839 9.83667 23.2078 8.77525 25.8621 8.20683C26.0635 8.16856 26.2472 8.06625 26.3859 7.91514C26.5245 7.76403 26.6106 7.57219 26.6314 7.36818L27.1578 1.95941H33.914L34.4405 7.36818C34.461 7.574 34.547 7.76781 34.6858 7.92108C34.8247 8.07435 35.0091 8.17898 35.2119 8.21956C37.8642 8.80314 40.3885 9.86343 42.662 11.3488C42.8374 11.4608 43.0438 11.514 43.2514 11.5008C43.459 11.4876 43.657 11.4086 43.8167 11.2754L47.9997 7.80557L52.6952 12.5485L49.2205 16.7389C49.0861 16.9011 49.0076 17.1022 48.9966 17.3125C48.9856 17.5228 49.0426 17.7311 49.1593 17.9064C50.6608 20.1646 51.7258 22.6842 52.2989 25.3347C52.3491 25.5393 52.4619 25.7231 52.6215 25.8605C52.7811 25.9979 52.9796 26.0821 53.1894 26.1013L58.6622 26.6278V33.3727Z" fill="#09AEEB"/>
<path d="M30.507 11.4819C20.2818 11.4819 11.9629 19.7748 11.9629 29.9858C11.9629 40.1967 20.2818 48.4896 30.507 48.4896H30.5079C40.7323 48.4896 49.0512 40.1964 49.0512 29.9858C49.0512 19.7752 40.7323 11.4819 30.507 11.4819ZM23.7827 37.8612C22.7552 36.8942 21.9473 35.7178 21.4138 34.4116C20.8803 33.1054 20.6335 31.6999 20.6901 30.2901C20.8709 25.3359 24.9146 21.1989 29.8873 20.8723C31.9067 20.7488 33.9151 21.2506 35.6392 22.3092C37.3633 23.3679 38.7192 24.9321 39.5226 26.7889C40.326 28.6458 40.5377 30.705 40.1289 32.6865C39.7202 34.6679 38.7108 36.4753 37.2382 37.8626C35.5617 39.4486 34.6781 41.7349 34.8128 44.1372L34.8657 45.9763C33.7605 46.2822 32.6255 46.4676 31.4805 46.5292V36.1224H32.6855C32.9453 36.1224 33.1945 36.0192 33.3782 35.8355C33.5619 35.6518 33.6651 35.4026 33.6651 35.1428C33.6651 34.883 33.5619 34.6338 33.3782 34.4501C33.1945 34.2664 32.9453 34.1632 32.6855 34.1632H28.3299C28.0701 34.1632 27.8209 34.2664 27.6372 34.4501C27.4535 34.6338 27.3503 34.883 27.3503 35.1428C27.3503 35.4026 27.4535 35.6518 27.6372 35.8355C27.8209 36.0192 28.0701 36.1224 28.3299 36.1224H29.5213V46.5292C28.3768 46.4575 27.2423 46.2717 26.1347 45.9747L26.2051 44.831C26.3804 43.5605 26.2523 42.2665 25.8313 41.055C25.4102 39.8436 24.7082 38.7491 23.7827 37.8612ZM36.8089 45.3157L36.7706 44.0644C36.7706 44.0556 36.7702 44.0468 36.7695 44.0379C36.664 42.2089 37.3255 40.4768 38.5826 39.2877C39.753 38.183 40.6856 36.8511 41.3233 35.3734C41.961 33.8957 42.2903 32.3034 42.2911 30.694C42.2908 29.0835 41.9609 27.4902 41.3217 26.012C40.6825 24.5338 39.7475 23.2021 38.5743 22.0988C37.4011 20.9955 36.0145 20.1441 34.4998 19.5969C32.9852 19.0496 31.3745 18.8182 29.7671 18.9169C23.7963 19.3087 18.9493 24.2732 18.7324 30.2155C18.6648 31.9041 18.9604 33.5876 19.5994 35.1521C20.2383 36.7166 21.2057 38.1258 22.4361 39.2842C23.1402 39.9617 23.6729 40.7969 23.9903 41.721C24.3076 42.6451 24.4005 43.6314 24.2612 44.5985C24.2575 44.6242 24.255 44.65 24.2535 44.6759L24.2147 45.3198C18.1812 42.8403 13.9221 36.9076 13.9221 30C13.9221 20.8694 21.362 13.4411 30.507 13.4411C39.6521 13.4411 47.0926 20.8694 47.0926 30C47.0926 36.9042 42.8374 42.834 36.8089 45.3159V45.3157Z" fill="#09AEEB"/>
</svg>
