<svg width="243" height="243" viewBox="0 0 243 243" fill="none" xmlns="http://www.w3.org/2000/svg">
<path d="M208.118 199.182L187.554 164.439L208.153 129.671L172.889 109.899L173.398 69.4742L132.989 69.9289L113.182 34.7488L78.4389 55.3122L43.671 34.714L23.8991 69.9774L-16.5258 69.4686L-16.0711 109.878L-51.2512 129.684L-30.6878 164.428L-51.2861 199.196L-16.0226 218.967L-16.5314 259.392L23.8776 258.938L43.6845 294.118L78.4277 273.554L113.196 294.153L132.967 258.889L173.392 259.398L172.938 218.989L208.118 199.182ZM101.108 216.186C97.7363 215.283 94.7083 213.4 92.4069 210.775C90.1055 208.151 88.6339 204.903 88.1783 201.443C87.7227 197.982 88.3035 194.464 89.8473 191.333C91.3911 188.203 93.8286 185.601 96.8515 183.855C99.8743 182.11 103.347 181.3 106.83 181.529C110.313 181.757 113.65 183.013 116.419 185.138C119.188 187.263 121.265 190.161 122.387 193.466C123.509 196.772 123.626 200.335 122.722 203.707C121.511 208.228 118.553 212.083 114.5 214.423C110.446 216.763 105.629 217.397 101.108 216.186ZM55.7587 112.681C59.1303 113.584 62.1582 115.467 64.4597 118.091C66.7611 120.715 68.2327 123.963 68.6883 127.424C69.1439 130.885 68.5631 134.403 67.0193 137.533C65.4755 140.664 63.038 143.266 60.0151 145.011C56.9923 146.757 53.5198 147.566 50.0368 147.338C46.5537 147.11 43.2166 145.854 40.4474 143.729C37.6782 141.604 35.6013 138.706 34.4793 135.4C33.3574 132.095 33.2407 128.531 34.1441 125.16C35.3555 120.639 38.3134 116.784 42.3669 114.444C46.4204 112.103 51.2376 111.469 55.7587 112.681ZM33.0768 200.058L117.863 122.287L123.79 128.808L39.0032 206.579L33.0768 200.058Z" fill="url(#paint0_linear)"/>
<path d="M48.9071 138.251C53.6145 139.512 58.4531 136.719 59.7145 132.011C60.9758 127.304 58.1822 122.465 53.4748 121.204C48.7675 119.943 43.9289 122.736 42.6675 127.444C41.4062 132.151 44.1998 136.99 48.9071 138.251Z" fill="url(#paint1_linear)"/>
<path d="M103.392 207.663C108.099 208.924 112.938 206.13 114.199 201.423C115.46 196.716 112.667 191.877 107.959 190.616C103.252 189.354 98.4134 192.148 97.1521 196.855C95.8908 201.563 98.6843 206.401 103.392 207.663Z" fill="url(#paint2_linear)"/>
<defs>
<linearGradient id="paint0_linear" x1="200.5" y1="15" x2="50" y2="241" gradientUnits="userSpaceOnUse">
<stop stop-color="#2980F4"/>
<stop offset="1" stop-color="#1D50CB" stop-opacity="0"/>
</linearGradient>
<linearGradient id="paint1_linear" x1="200.5" y1="15" x2="50" y2="241" gradientUnits="userSpaceOnUse">
<stop stop-color="#2980F4"/>
<stop offset="1" stop-color="#1D50CB" stop-opacity="0"/>
</linearGradient>
<linearGradient id="paint2_linear" x1="200.5" y1="15" x2="50" y2="241" gradientUnits="userSpaceOnUse">
<stop stop-color="#2980F4"/>
<stop offset="1" stop-color="#1D50CB" stop-opacity="0"/>
</linearGradient>
</defs>
</svg>
