<svg width="66" height="60" viewBox="0 0 66 60" fill="none" xmlns="http://www.w3.org/2000/svg">
<path d="M57.9546 23.1818H7.42507C7.24261 23.1818 7.0678 23.1087 6.93961 22.9788C6.81143 22.8488 6.7408 22.673 6.74325 22.4906L6.81825 17.036C6.82343 16.6632 7.12712 16.3636 7.50007 16.3636H57.9546C58.3313 16.3636 58.6365 16.6689 58.6365 17.0454V22.5C58.6365 22.8765 58.3313 23.1818 57.9546 23.1818ZM8.1163 21.8182H57.2728V17.7273H8.17262L8.1163 21.8182Z" fill="#53C6F1"/>
<path d="M55.1515 54.5455H10.3032C9.92666 54.5455 9.62134 54.2403 9.62134 53.8636V48.4091C9.62134 48.0325 9.92666 47.7273 10.3032 47.7273H55.1517C55.5283 47.7273 55.8335 48.0325 55.8335 48.4091V53.8636C55.8334 54.2403 55.5282 54.5455 55.1515 54.5455ZM10.985 53.1818H54.4699V49.0909H10.985V53.1818Z" fill="#53C6F1"/>
<path d="M19.7728 49.0909H12.9546C12.5781 49.0909 12.2728 48.7857 12.2728 48.4091V29.3182C12.2728 28.9417 12.5781 28.6364 12.9546 28.6364H19.7728C20.1493 28.6364 20.4546 28.9417 20.4546 29.3182V48.4091C20.4546 48.7857 20.1493 49.0909 19.7728 49.0909ZM13.6364 47.7273H19.091V30H13.6364V47.7273Z" fill="#53C6F1"/>
<path d="M64.7728 17.7273H0.681885C0.369748 17.7273 0.0975664 17.5154 0.02093 17.2129C-0.0557064 16.9103 0.0829755 16.5943 0.357339 16.4458C6.15948 13.3055 11.2838 10.7443 16.709 8.03289C21.5772 5.59975 26.611 3.08385 32.2461 0.0801624C32.4426 -0.0245649 32.6774 -0.026747 32.8757 0.0740258L65.0817 16.4377C65.363 16.5804 65.5095 16.8976 65.436 17.2043C65.3625 17.511 65.0882 17.7273 64.7728 17.7273ZM3.39607 16.3636H61.9257L32.5742 1.45034C27.0497 4.38912 22.1045 6.86071 17.3185 9.25266C12.6609 11.5805 8.22566 13.7973 3.39607 16.3636Z" fill="#53C6F1"/>
<path d="M22.5001 30H10.2273C9.85084 30 9.54552 29.6947 9.54552 29.3182V22.5C9.54552 22.1235 9.85084 21.8182 10.2273 21.8182H22.5001C22.8766 21.8182 23.1819 22.1235 23.1819 22.5V29.3182C23.1819 29.6947 22.8766 30 22.5001 30ZM10.9092 28.6364H21.8183V23.1818H10.9092V28.6364Z" fill="#53C6F1"/>
<path d="M36.1364 49.0909H29.3183C28.9418 49.0909 28.6364 48.7857 28.6364 48.4091V29.3182C28.6364 28.9417 28.9418 28.6364 29.3183 28.6364H36.1364C36.5131 28.6364 36.8183 28.9417 36.8183 29.3182V48.4091C36.8183 48.7857 36.5131 49.0909 36.1364 49.0909ZM30.0001 47.7273H35.4546V30H30.0001V47.7273Z" fill="#53C6F1"/>
<path d="M38.8637 30H26.591C26.2145 30 25.9092 29.6947 25.9092 29.3182V22.5C25.9092 22.1235 26.2145 21.8182 26.591 21.8182H38.8637C39.2404 21.8182 39.5455 22.1235 39.5455 22.5V29.3182C39.5455 29.6947 39.2404 30 38.8637 30ZM27.2728 28.6364H38.1819V23.1818H27.2728V28.6364Z" fill="#53C6F1"/>
<path d="M52.5001 49.0909H45.6819C45.3053 49.0909 45.0001 48.7857 45.0001 48.4091V29.3182C45.0001 28.9417 45.3053 28.6364 45.6819 28.6364H52.5001C52.8767 28.6364 53.1819 28.9417 53.1819 29.3182V48.4091C53.1819 48.7857 52.8767 49.0909 52.5001 49.0909ZM46.3637 47.7273H51.8183V30H46.3637V47.7273Z" fill="#53C6F1"/>
<path d="M55.2274 30H42.9546C42.578 30 42.2728 29.6947 42.2728 29.3182V22.5C42.2728 22.1235 42.578 21.8182 42.9546 21.8182H55.2274C55.604 21.8182 55.9092 22.1235 55.9092 22.5V29.3182C55.9092 29.6947 55.604 30 55.2274 30ZM43.6364 28.6364H54.5455V23.1818H43.6364V28.6364Z" fill="#53C6F1"/>
<path d="M59.3183 60H6.13643C5.75993 60 5.45461 59.6948 5.45461 59.3182V53.8636C5.45461 53.487 5.75993 53.1818 6.13643 53.1818H59.3183C59.6949 53.1818 60.0001 53.487 60.0001 53.8636V59.3182C60.0001 59.6948 59.6949 60 59.3183 60ZM6.81825 58.6364H58.6365V54.5455H6.81825V58.6364Z" fill="#53C6F1"/>
<path d="M32.7274 13.6363C30.4716 13.6363 28.6364 11.8012 28.6364 9.54544C28.6364 7.28971 30.4716 5.45453 32.7274 5.45453C34.9831 5.45453 36.8183 7.28971 36.8183 9.54544C36.8183 11.8012 34.9831 13.6363 32.7274 13.6363ZM32.7274 6.81816C31.2235 6.81816 30.0001 8.04162 30.0001 9.54544C30.0001 11.0493 31.2235 12.2727 32.7274 12.2727C34.2312 12.2727 35.4546 11.0493 35.4546 9.54544C35.4546 8.04162 34.2312 6.81816 32.7274 6.81816Z" fill="#53C6F1"/>
<path d="M64.7728 60H0.681885C0.305385 60 6.63239e-05 59.6948 6.63239e-05 59.3182C6.63239e-05 58.9415 0.305385 58.6364 0.681885 58.6364H64.7728C65.1495 58.6364 65.4546 58.9415 65.4546 59.3182C65.4546 59.6948 65.1495 60 64.7728 60Z" fill="#53C6F1"/>
</svg>
