<svg width="59" height="60" viewBox="0 0 59 60" fill="none" xmlns="http://www.w3.org/2000/svg">
<path d="M56.8805 17.2693C52.4763 4.05654 38.0453 -3.15895 24.7388 1.33902C17.4296 3.86912 11.8072 9.58529 9.46447 15.6763C9.37076 16.0511 9.37076 16.4259 9.65189 16.6134C9.93301 16.8008 10.3078 16.9882 10.589 16.8945C16.1177 15.114 22.0213 18.019 23.8954 23.5477C24.0829 24.0163 24.5514 24.2974 25.1136 24.11C27.7375 23.1729 30.5487 23.454 32.8914 24.5785L21.5528 47.6306C20.0534 47.7243 18.6478 48.3802 17.4296 49.3173C13.775 46.1313 7.96515 47.4432 6.091 52.0349C2.71752 52.5034 0.0937076 55.502 0 59.0629C0 59.6252 0.374831 60 0.937077 60H40.8565C41.4188 60 41.7936 59.6252 41.7936 59.0629C41.7936 55.4083 39.0761 52.4097 35.5152 52.0349C33.5473 49.5984 30.2676 48.7551 27.4563 49.8796C26.4256 48.7551 25.1136 48.0054 23.6143 47.7243L34.5781 25.5156C36.3586 26.7338 37.7642 28.6079 38.5138 30.7632C38.7013 31.2318 39.1698 31.5129 39.732 31.3255C45.1671 29.4513 51.2581 32.45 53.1322 37.885C53.4134 38.6347 54.4441 38.7284 54.819 38.0724C58.1924 32.6374 59.5043 24.7659 56.8805 17.2693ZM26.4256 51.5663C26.7067 51.9411 27.1752 52.0348 27.6438 51.8474C29.8927 50.6292 32.7977 51.3789 34.297 53.4405C34.4844 53.6279 34.7655 53.8153 35.0467 53.8153C37.4831 53.909 39.5446 55.7832 39.9195 58.1258H1.96786C2.4364 55.7832 4.40426 53.909 6.93437 53.8153C7.3092 53.8153 7.68403 53.5342 7.77773 53.1593C8.99593 49.2236 14.0561 48.1928 16.7737 51.1915C16.9611 51.3789 17.2422 51.4726 17.5233 51.4726C17.8045 51.4726 18.0856 51.3789 18.1793 51.1915C20.4283 48.7551 24.364 48.8488 26.4256 51.5663ZM11.9946 14.6455C14.8058 9.21046 19.5849 5.08732 25.3948 3.11946C30.1739 1.52643 35.3278 1.43272 40.0132 3.02575C35.3278 5.27474 29.5179 13.0525 24.9262 21.205C22.4898 16.5197 17.2422 13.8958 11.9946 14.6455ZM34.0159 23.0792C31.6732 21.9547 29.1431 21.5799 26.613 21.9547C33.5473 9.7727 40.6691 3.02575 43.2929 4.33766C45.9167 5.64957 44.9797 15.3952 39.4509 28.2331C38.2327 25.9841 36.3586 24.2037 34.0159 23.0792ZM54.0693 35.5423C51.6329 31.0443 46.5727 28.2331 41.0439 29.1702C44.7923 20.5491 47.3224 11.272 46.3853 6.21181C50.4147 9.02304 53.5071 13.0525 55.1938 17.9253C57.1617 23.7351 56.6931 30.0136 54.0693 35.5423Z" fill="#53C6F1"/>
</svg>
