<svg width="64" height="62" viewBox="0 0 64 62" fill="none" xmlns="http://www.w3.org/2000/svg">
<path d="M25.2425 16.2431C25.2425 15.056 24.2759 14.0962 23.0803 14.0962H11.1244C9.92877 14.0962 8.96213 15.056 8.96213 16.2431V24.9444C8.96213 26.1315 9.92877 27.0913 11.1244 27.0913H23.0803C24.2759 27.0913 25.2425 26.1315 25.2425 24.9444V16.2431ZM23.7162 24.9444C23.7162 25.298 23.4364 25.5759 23.0803 25.5759H11.1244C10.7682 25.5759 10.4884 25.298 10.4884 24.9444V16.2431C10.4884 15.8895 10.7682 15.6117 11.1244 15.6117H23.0803C23.4364 15.6117 23.7162 15.8895 23.7162 16.2431V24.9444Z" fill="#FF6D2A"/>
<path d="M23.0803 41.1726H19.6461C19.2264 41.1726 18.883 41.5136 18.883 41.9303C18.883 42.3471 19.2264 42.6881 19.6461 42.6881H23.0803C24.2759 42.6881 25.2425 41.7283 25.2425 40.5411V31.8398C25.2425 30.6527 24.2759 29.6929 23.0803 29.6929H11.1244C9.92877 29.6929 8.96213 30.6527 8.96213 31.8398V40.5411C8.96213 41.7283 9.92877 42.6881 11.1244 42.6881H14.5585C14.9782 42.6881 15.3217 42.3471 15.3217 41.9303C15.3217 41.5136 14.9782 41.1726 14.5585 41.1726H11.1244C10.7682 41.1726 10.4884 40.8948 10.4884 40.5411V31.8398C10.4884 31.4862 10.7682 31.2084 11.1244 31.2084H23.0803C23.4364 31.2084 23.7162 31.4862 23.7162 31.8398V40.5411C23.7162 40.8821 23.4237 41.1726 23.0803 41.1726Z" fill="#FF6D2A"/>
<path d="M56.0989 18.5795C56.0989 18.1627 55.7555 17.8217 55.3358 17.8217H40.3273C39.9076 17.8217 39.5642 18.1627 39.5642 18.5795C39.5642 18.9962 39.9076 19.3372 40.3273 19.3372H55.3231C55.7555 19.3372 56.0989 18.9962 56.0989 18.5795Z" fill="#FF6D2A"/>
<path d="M34.1204 21.863C33.7007 21.863 33.3573 22.204 33.3573 22.6207C33.3573 23.0375 33.7007 23.3784 34.1204 23.3784H46.9794C47.3991 23.3784 47.7425 23.0375 47.7425 22.6207C47.7425 22.204 47.3991 21.863 46.9794 21.863H34.1204Z" fill="#FF6D2A"/>
<path d="M51.2275 5.24332H50.3499C49.9302 5.24332 49.5868 5.5843 49.5868 6.00105C49.5868 6.41781 49.9302 6.75879 50.3499 6.75879H51.2275C51.6473 6.75879 51.9907 6.41781 51.9907 6.00105C51.9907 5.5843 51.6473 5.24332 51.2275 5.24332Z" fill="#FF6D2A"/>
<path d="M55.0432 5.24332H54.1656C53.7459 5.24332 53.4025 5.5843 53.4025 6.00105C53.4025 6.41781 53.7459 6.75879 54.1656 6.75879H55.0432C55.463 6.75879 55.8064 6.41781 55.8064 6.00105C55.8064 5.5843 55.463 5.24332 55.0432 5.24332Z" fill="#FF6D2A"/>
<path d="M58.859 5.24332H57.9813C57.5616 5.24332 57.2182 5.5843 57.2182 6.00105C57.2182 6.41781 57.5616 6.75879 57.9813 6.75879H58.859C59.2787 6.75879 59.6221 6.41781 59.6221 6.00105C59.6221 5.5843 59.2787 5.24332 58.859 5.24332Z" fill="#FF6D2A"/>
<path d="M1 3.65207V44.8981C1 46.3631 2.19559 47.5502 3.671 47.5502H33.37L27.5701 58.7015C27.2648 59.2825 27.3539 59.9771 27.799 60.4696C28.2442 60.9621 28.931 61.1137 29.5415 60.8863L42.0825 56.0242C42.0952 56.0242 42.108 56.0242 42.1207 56.0242L54.6617 60.8863C54.8525 60.9621 55.0432 61 55.2467 61C55.6792 61 56.1116 60.8232 56.4169 60.4822C56.8621 59.9897 56.9511 59.2951 56.6458 58.7142L43.5071 33.4437C43.24 32.9259 42.693 32.5976 42.108 32.5976C41.5102 32.5976 40.976 32.9259 40.7089 33.4437L34.1586 46.0347H3.671C3.03505 46.0347 2.52629 45.5296 2.52629 44.8981V11.4946H61.5427V44.8981C61.5427 45.5296 61.0339 46.0347 60.398 46.0347H53.4025C52.9828 46.0347 52.6393 46.3757 52.6393 46.7925C52.6393 47.2092 52.9828 47.5502 53.4025 47.5502H60.398C61.8734 47.5502 63.069 46.3631 63.069 44.8981V3.65207C63.069 2.18712 61.8734 1 60.398 1H3.671C2.19559 1 1 2.18712 1 3.65207ZM42.0571 34.1509C42.0571 34.1383 42.0698 34.1257 42.108 34.1257C42.1334 34.1257 42.1461 34.1383 42.1588 34.1509L55.2849 59.3961C55.2976 59.4088 55.2976 59.4214 55.2722 59.4593C55.2467 59.4845 55.234 59.4845 55.2213 59.4719L42.6803 54.6098C42.3115 54.4708 41.9045 54.4708 41.5356 54.6098L28.9946 59.4719C28.9819 59.4845 28.9565 59.4845 28.9438 59.4593C28.9183 59.434 28.931 59.4214 28.931 59.3961L42.0571 34.1509ZM2.52629 3.65207C2.52629 3.02063 3.03505 2.51547 3.671 2.51547H60.398C61.0339 2.51547 61.5427 3.02063 61.5427 3.65207V9.97916H2.52629V3.65207Z" fill="#FF6D2A"/>
<path d="M25.2425 16.2431C25.2425 15.056 24.2759 14.0962 23.0803 14.0962H11.1244C9.92877 14.0962 8.96213 15.056 8.96213 16.2431V24.9444C8.96213 26.1315 9.92877 27.0913 11.1244 27.0913H23.0803C24.2759 27.0913 25.2425 26.1315 25.2425 24.9444V16.2431ZM23.7162 24.9444C23.7162 25.298 23.4364 25.5759 23.0803 25.5759H11.1244C10.7682 25.5759 10.4884 25.298 10.4884 24.9444V16.2431C10.4884 15.8895 10.7682 15.6117 11.1244 15.6117H23.0803C23.4364 15.6117 23.7162 15.8895 23.7162 16.2431V24.9444Z" stroke="#FF6D2A" stroke-width="0.5"/>
<path d="M23.0803 41.1726H19.6461C19.2264 41.1726 18.883 41.5136 18.883 41.9303C18.883 42.3471 19.2264 42.6881 19.6461 42.6881H23.0803C24.2759 42.6881 25.2425 41.7283 25.2425 40.5411V31.8398C25.2425 30.6527 24.2759 29.6929 23.0803 29.6929H11.1244C9.92877 29.6929 8.96213 30.6527 8.96213 31.8398V40.5411C8.96213 41.7283 9.92877 42.6881 11.1244 42.6881H14.5585C14.9782 42.6881 15.3217 42.3471 15.3217 41.9303C15.3217 41.5136 14.9782 41.1726 14.5585 41.1726H11.1244C10.7682 41.1726 10.4884 40.8948 10.4884 40.5411V31.8398C10.4884 31.4862 10.7682 31.2084 11.1244 31.2084H23.0803C23.4364 31.2084 23.7162 31.4862 23.7162 31.8398V40.5411C23.7162 40.8821 23.4237 41.1726 23.0803 41.1726Z" stroke="#FF6D2A" stroke-width="0.5"/>
<path d="M56.0989 18.5795C56.0989 18.1627 55.7555 17.8217 55.3358 17.8217H40.3273C39.9076 17.8217 39.5642 18.1627 39.5642 18.5795C39.5642 18.9962 39.9076 19.3372 40.3273 19.3372H55.3231C55.7555 19.3372 56.0989 18.9962 56.0989 18.5795Z" stroke="#FF6D2A" stroke-width="0.5"/>
<path d="M34.1204 21.863C33.7007 21.863 33.3573 22.204 33.3573 22.6207C33.3573 23.0375 33.7007 23.3784 34.1204 23.3784H46.9794C47.3991 23.3784 47.7425 23.0375 47.7425 22.6207C47.7425 22.204 47.3991 21.863 46.9794 21.863H34.1204Z" stroke="#FF6D2A" stroke-width="0.5"/>
<path d="M51.2275 5.24332H50.3499C49.9302 5.24332 49.5868 5.5843 49.5868 6.00105C49.5868 6.41781 49.9302 6.75879 50.3499 6.75879H51.2275C51.6473 6.75879 51.9907 6.41781 51.9907 6.00105C51.9907 5.5843 51.6473 5.24332 51.2275 5.24332Z" stroke="#FF6D2A" stroke-width="0.5"/>
<path d="M55.0432 5.24332H54.1656C53.7459 5.24332 53.4025 5.5843 53.4025 6.00105C53.4025 6.41781 53.7459 6.75879 54.1656 6.75879H55.0432C55.463 6.75879 55.8064 6.41781 55.8064 6.00105C55.8064 5.5843 55.463 5.24332 55.0432 5.24332Z" stroke="#FF6D2A" stroke-width="0.5"/>
<path d="M58.859 5.24332H57.9813C57.5616 5.24332 57.2182 5.5843 57.2182 6.00105C57.2182 6.41781 57.5616 6.75879 57.9813 6.75879H58.859C59.2787 6.75879 59.6221 6.41781 59.6221 6.00105C59.6221 5.5843 59.2787 5.24332 58.859 5.24332Z" stroke="#FF6D2A" stroke-width="0.5"/>
<path d="M1 3.65207V44.8981C1 46.3631 2.19559 47.5502 3.671 47.5502H33.37L27.5701 58.7015C27.2648 59.2825 27.3539 59.9771 27.799 60.4696C28.2442 60.9621 28.931 61.1137 29.5415 60.8863L42.0825 56.0242C42.0952 56.0242 42.108 56.0242 42.1207 56.0242L54.6617 60.8863C54.8525 60.9621 55.0432 61 55.2467 61C55.6792 61 56.1116 60.8232 56.4169 60.4822C56.8621 59.9897 56.9511 59.2951 56.6458 58.7142L43.5071 33.4437C43.24 32.9259 42.693 32.5976 42.108 32.5976C41.5102 32.5976 40.976 32.9259 40.7089 33.4437L34.1586 46.0347H3.671C3.03505 46.0347 2.52629 45.5296 2.52629 44.8981V11.4946H61.5427V44.8981C61.5427 45.5296 61.0339 46.0347 60.398 46.0347H53.4025C52.9828 46.0347 52.6393 46.3757 52.6393 46.7925C52.6393 47.2092 52.9828 47.5502 53.4025 47.5502H60.398C61.8734 47.5502 63.069 46.3631 63.069 44.8981V3.65207C63.069 2.18712 61.8734 1 60.398 1H3.671C2.19559 1 1 2.18712 1 3.65207ZM42.0571 34.1509C42.0571 34.1383 42.0698 34.1257 42.108 34.1257C42.1334 34.1257 42.1461 34.1383 42.1588 34.1509L55.2849 59.3961C55.2976 59.4088 55.2976 59.4214 55.2722 59.4593C55.2467 59.4845 55.234 59.4845 55.2213 59.4719L42.6803 54.6098C42.3115 54.4708 41.9045 54.4708 41.5356 54.6098L28.9946 59.4719C28.9819 59.4845 28.9565 59.4845 28.9438 59.4593C28.9183 59.434 28.931 59.4214 28.931 59.3961L42.0571 34.1509ZM2.52629 3.65207C2.52629 3.02063 3.03505 2.51547 3.671 2.51547H60.398C61.0339 2.51547 61.5427 3.02063 61.5427 3.65207V9.97916H2.52629V3.65207Z" stroke="#FF6D2A" stroke-width="0.5"/>
</svg>
