<svg width="60" height="61" viewBox="0 0 60 61" fill="none" xmlns="http://www.w3.org/2000/svg">
<path d="M47.1 38.9C46 37.7 44.1 37.7 42.9 38.9L39.9 35.9C42.4 32.4 43.8 28.3 43.8 24C43.8 22.2 43.5 20.5 43.1 18.9L55.7 5.7C56.1 5.9 56.5 6 57 6C58.7 6 60 4.7 60 3C60 1.3 58.7 0 57 0C55.3 0 54 1.3 54 3C54 3.5 54.1 3.9 54.3 4.3L42.4 16.7C39.5 9.3 32.2 4 23.8 4C12.8 4 3.8 13 3.8 24C3.8 28.5 5.3 32.6 7.8 35.9L3.8 41.1C3.6 41.1 3.3 41 3 41C1.3 41 0 42.3 0 44C0 45.7 1.3 47 3 47C4.7 47 6 45.7 6 44C6 43.4 5.8 42.8 5.5 42.3L9.1 37.5C12.8 41.5 18 44 23.8 44C28 44 32.2 42.6 35.6 40.1L38.7 43.2C37.6 44.3 37.6 46.2 38.7 47.3L50.7 59.3C51.3 59.9 52 60.2 52.8 60.2C53.5 60.2 54.3 59.9 54.9 59.3L59.1 55.1C60.3 54 60.3 52.1 59.1 50.9L47.1 38.9ZM57 2C57.6 2 58 2.4 58 3C58 3.6 57.6 4 57 4C56.4 4 56 3.6 56 3C56 2.4 56.4 2 57 2ZM3 45C2.4 45 2 44.6 2 44C2 43.4 2.4 43 3 43C3.6 43 4 43.4 4 44C4 44.6 3.6 45 3 45ZM35.1 38C31.9 40.6 28 42 23.8 42C13.9 42 5.8 33.9 5.8 24C5.8 14.1 13.9 6 23.8 6C31.7 6 38.5 11.2 40.9 18.3L39.3 20C37.5 13.1 31.2 8 23.8 8C15 8 7.8 15.2 7.8 24C7.8 32.8 15 40 23.8 40C32.6 40 39.8 32.8 39.8 24C39.8 23.5 39.8 22.9 39.7 22.4L41.4 20.6C41.6 21.7 41.7 22.9 41.7 24C41.7 28.2 40.3 32.1 37.7 35.3L37.2 36L41.5 40.3L40.1 41.7L35.8 37.4L35.1 38ZM21 21C20.4 21 20 20.6 20 20C20 19.4 20.4 19 21 19C21.6 19 22 19.4 22 20C22 20.6 21.6 21 21 21ZM20.1 22.9C20.4 23 20.7 23 21 23C21.5 23 21.9 22.9 22.3 22.7L28.3 28.7C28.1 29.1 28 29.5 28 30C28 31.7 29.3 33 31 33C32.7 33 34 31.7 34 30C34 29.5 33.9 29.1 33.7 28.7L37.8 24.4C37.6 31.9 31.4 38 23.8 38C19.3 38 15.4 35.9 12.8 32.6L20.1 22.9ZM32 30C32 30.6 31.6 31 31 31C30.4 31 30 30.6 30 30C30 29.4 30.4 29 31 29C31.6 29 32 29.4 32 30ZM32.3 27.3C31.9 27.1 31.5 27 31 27C30.5 27 30.1 27.1 29.7 27.3L23.7 21.3C23.9 20.9 24 20.5 24 20C24 18.3 22.7 17 21 17C19.3 17 18 18.3 18 20C18 20.6 18.2 21.2 18.5 21.7L11.6 30.8C10.5 28.8 9.8 26.4 9.8 23.9C9.8 16.2 16.1 9.9 23.8 9.9C30.7 9.9 36.5 15 37.6 21.6L32.3 27.3ZM57.6 53.7L53.4 57.9C53 58.3 52.4 58.3 52 57.9L40 45.9C39.6 45.5 39.6 44.9 40 44.5L44.3 40.3C44.5 40.1 44.7 40 45 40C45.2 40 45.5 40.1 45.6 40.3L57.6 52.3C58 52.7 58 53.3 57.6 53.7Z" fill="#FF6D2A"/>
</svg>
