<svg style="display: none;">
  <symbol viewBox="0 0 64 62" xmlns="http://www.w3.org/2000/svg" id="landing_1">
    <path d="M25.242 16.243a2.153 2.153 0 0 0-2.162-2.147H11.124c-1.195 0-2.162.96-2.162 2.147v8.701c0 1.188.967 2.147 2.162 2.147H23.08c1.196 0 2.163-.96 2.163-2.147v-8.7zm-1.526 8.701c0 .354-.28.632-.636.632H11.124a.628.628 0 0 1-.636-.632v-8.7c0-.354.28-.632.636-.632H23.08c.356 0 .636.277.636.631v8.701zm-.636 16.229h-3.434a.763.763 0 0 0-.763.757c0 .417.343.758.763.758h3.434c1.196 0 2.163-.96 2.163-2.147V31.84a2.153 2.153 0 0 0-2.163-2.147H11.124c-1.195 0-2.162.96-2.162 2.147v8.701c0 1.187.967 2.147 2.162 2.147h3.434c.42 0 .764-.34.764-.758a.763.763 0 0 0-.763-.757h-3.435a.628.628 0 0 1-.636-.632V31.84c0-.354.28-.632.636-.632H23.08c.356 0 .636.278.636.632v8.701a.644.644 0 0 1-.636.632zM56.099 18.58a.763.763 0 0 0-.763-.758H40.327a.763.763 0 0 0-.763.758c0 .416.344.757.763.757h14.996a.766.766 0 0 0 .776-.758zM34.12 21.863a.763.763 0 0 0-.763.758c0 .417.344.757.763.757h12.86c.42 0 .763-.34.763-.757a.763.763 0 0 0-.764-.758H34.12zm17.107-16.62h-.877a.763.763 0 0 0-.763.758c0 .417.343.758.763.758h.877c.42 0 .764-.341.764-.758a.763.763 0 0 0-.764-.758zm3.816 0h-.877a.763.763 0 0 0-.763.758c0 .417.343.758.763.758h.877c.42 0 .763-.341.763-.758a.763.763 0 0 0-.763-.758zm3.816 0h-.878a.763.763 0 0 0-.763.758c0 .417.344.758.763.758h.878c.42 0 .763-.341.763-.758a.763.763 0 0 0-.763-.758z"></path>
    <path d="M1 3.652v41.246a2.661 2.661 0 0 0 2.671 2.652H33.37l-5.8 11.152a1.544 1.544 0 0 0 .229 1.768 1.587 1.587 0 0 0 1.742.416l12.542-4.862h.038l12.54 4.862a1.57 1.57 0 0 0 1.755-.404 1.544 1.544 0 0 0 .23-1.768l-13.139-25.27a1.58 1.58 0 0 0-2.798 0l-6.55 12.59H3.67a1.136 1.136 0 0 1-1.145-1.136V11.495h59.017v33.403c0 .632-.51 1.137-1.145 1.137h-6.995a.763.763 0 0 0-.764.758c0 .416.344.757.764.757h6.995a2.661 2.661 0 0 0 2.671-2.652V3.652A2.661 2.661 0 0 0 60.398 1H3.671A2.661 2.661 0 0 0 1 3.652zm41.057 30.499c0-.013.013-.025.051-.025.025 0 .038.012.05.025l13.127 25.245c.013.013.013.025-.013.063-.025.025-.038.025-.05.013L42.68 54.61a1.623 1.623 0 0 0-1.144 0l-12.541 4.862c-.013.012-.039.012-.051-.013-.026-.025-.013-.038-.013-.063l13.126-25.245zM2.527 3.652c0-.631.508-1.137 1.144-1.137h56.727c.636 0 1.145.506 1.145 1.137V9.98H2.526V3.652z"></path>
    <path d="M25.242 16.243a2.153 2.153 0 0 0-2.162-2.147H11.124c-1.195 0-2.162.96-2.162 2.147v8.701c0 1.188.967 2.147 2.162 2.147H23.08c1.196 0 2.163-.96 2.163-2.147v-8.7zm-1.526 8.701c0 .354-.28.632-.636.632H11.124a.628.628 0 0 1-.636-.632v-8.7c0-.354.28-.632.636-.632H23.08c.356 0 .636.277.636.631v8.701zm-.636 16.229h-3.434a.763.763 0 0 0-.763.757c0 .417.343.758.763.758h3.434c1.196 0 2.163-.96 2.163-2.147V31.84a2.153 2.153 0 0 0-2.163-2.147H11.124c-1.195 0-2.162.96-2.162 2.147v8.701c0 1.187.967 2.147 2.162 2.147h3.434c.42 0 .764-.34.764-.758a.763.763 0 0 0-.763-.757h-3.435a.628.628 0 0 1-.636-.632V31.84c0-.354.28-.632.636-.632H23.08c.356 0 .636.278.636.632v8.701a.644.644 0 0 1-.636.632zM56.099 18.58a.763.763 0 0 0-.763-.758H40.327a.763.763 0 0 0-.763.758c0 .416.344.757.763.757h14.996a.766.766 0 0 0 .776-.758zM34.12 21.863a.763.763 0 0 0-.763.758c0 .417.344.757.763.757h12.86c.42 0 .763-.34.763-.757a.763.763 0 0 0-.764-.758H34.12zm17.107-16.62h-.877a.763.763 0 0 0-.763.758c0 .417.343.758.763.758h.877c.42 0 .764-.341.764-.758a.763.763 0 0 0-.764-.758zm3.816 0h-.877a.763.763 0 0 0-.763.758c0 .417.343.758.763.758h.877c.42 0 .763-.341.763-.758a.763.763 0 0 0-.763-.758zm3.816 0h-.878a.763.763 0 0 0-.763.758c0 .417.344.758.763.758h.878c.42 0 .763-.341.763-.758a.763.763 0 0 0-.763-.758z" stroke-width=".5"></path>
    <path d="M1 3.652v41.246a2.661 2.661 0 0 0 2.671 2.652H33.37l-5.8 11.152a1.544 1.544 0 0 0 .229 1.768 1.587 1.587 0 0 0 1.742.416l12.542-4.862h.038l12.54 4.862a1.57 1.57 0 0 0 1.755-.404 1.544 1.544 0 0 0 .23-1.768l-13.139-25.27a1.58 1.58 0 0 0-2.798 0l-6.55 12.59H3.67a1.136 1.136 0 0 1-1.145-1.136V11.495h59.017v33.403c0 .632-.51 1.137-1.145 1.137h-6.995a.763.763 0 0 0-.764.758c0 .416.344.757.764.757h6.995a2.661 2.661 0 0 0 2.671-2.652V3.652A2.661 2.661 0 0 0 60.398 1H3.671A2.661 2.661 0 0 0 1 3.652zm41.057 30.499c0-.013.013-.025.051-.025.025 0 .038.012.05.025l13.127 25.245c.013.013.013.025-.013.063-.025.025-.038.025-.05.013L42.68 54.61a1.623 1.623 0 0 0-1.144 0l-12.541 4.862c-.013.012-.039.012-.051-.013-.026-.025-.013-.038-.013-.063l13.126-25.245zM2.527 3.652c0-.631.508-1.137 1.144-1.137h56.727c.636 0 1.145.506 1.145 1.137V9.98H2.526V3.652z" stroke-width=".5"></path>
  </symbol>
  <symbol viewBox="0 0 66 60" xmlns="http://www.w3.org/2000/svg" id="landing_2">
    <path d="M22.967 26.703c.33.11.66.33.88.66l1.538 1.538c1.318 1.319 1.318 3.407 0 4.616l-7.803 7.802c-1.318 1.318-3.406 1.318-4.615 0l-1.538-1.539c-1.32-1.318-1.32-3.406 0-4.615l4.395-4.396c-.33-.879-.44-1.758-.44-2.637L9.89 33.626a5.311 5.311 0 0 0 0 7.693l1.539 1.538c2.088 2.088 5.604 2.088 7.802 0l7.802-7.802c2.088-2.088 2.088-5.604 0-7.802l-1.539-1.539c-.22-.22-.549-.55-.879-.659l-1.648 1.648z"></path>
    <path d="M26.923 16.483l-7.802 7.803c-2.088 2.088-2.088 5.604 0 7.802l1.538 1.538c.22.22.55.55.88.66l1.648-1.649c-.33-.11-.66-.33-.88-.659l-1.538-1.539c-1.318-1.318-1.318-3.406 0-4.615l7.802-7.802c1.32-1.319 3.407-1.319 4.616 0l1.538 1.538c1.319 1.32 1.319 3.407 0 4.616L30.33 28.57c.33.88.44 1.759.44 2.638l5.494-5.495c2.088-2.088 2.088-5.604 0-7.802l-1.539-1.428c-2.088-2.198-5.604-2.198-7.802 0z"></path>
    <path d="M60.44 0H20.88c-3.078 0-5.495 2.418-5.495 5.495v5.494h-9.89C2.418 10.989 0 13.407 0 16.483v26.374c0 3.077 2.418 5.495 5.495 5.495H19.78V60l10.66-11.648h14.615c3.077 0 5.495-2.418 5.495-5.495v-5.494h9.89c3.077 0 5.494-2.418 5.494-5.495V5.495C65.934 2.418 63.517 0 60.44 0zM48.352 42.857c0 1.868-1.429 3.297-3.297 3.297H29.56l-7.582 8.132v-8.132H5.495c-1.869 0-3.297-1.429-3.297-3.297V16.484c0-1.869 1.428-3.297 3.297-3.297h39.56c1.868 0 3.297 1.428 3.297 3.296v26.374zm15.384-10.989c0 1.868-1.428 3.297-3.296 3.297h-9.89V16.484c0-3.077-2.418-5.495-5.495-5.495H17.582V5.495c0-1.869 1.429-3.297 3.297-3.297h39.56c1.869 0 3.297 1.428 3.297 3.297v26.373z"></path>
  </symbol>
  <symbol viewBox="0 0 60 61" xmlns="http://www.w3.org/2000/svg" id="landing_3">
    <path d="M47.1 38.9c-1.1-1.2-3-1.2-4.2 0l-3-3c2.5-3.5 3.9-7.6 3.9-11.9 0-1.8-.3-3.5-.7-5.1L55.7 5.7c.4.2.8.3 1.3.3 1.7 0 3-1.3 3-3s-1.3-3-3-3-3 1.3-3 3c0 .5.1.9.3 1.3L42.4 16.7C39.5 9.3 32.2 4 23.8 4c-11 0-20 9-20 20 0 4.5 1.5 8.6 4 11.9l-4 5.2c-.2 0-.5-.1-.8-.1-1.7 0-3 1.3-3 3s1.3 3 3 3 3-1.3 3-3c0-.6-.2-1.2-.5-1.7l3.6-4.8c3.7 4 8.9 6.5 14.7 6.5 4.2 0 8.4-1.4 11.8-3.9l3.1 3.1c-1.1 1.1-1.1 3 0 4.1l12 12c.6.6 1.3.9 2.1.9.7 0 1.5-.3 2.1-.9l4.2-4.2c1.2-1.1 1.2-3 0-4.2l-12-12zM57 2c.6 0 1 .4 1 1s-.4 1-1 1-1-.4-1-1 .4-1 1-1zM3 45c-.6 0-1-.4-1-1s.4-1 1-1 1 .4 1 1-.4 1-1 1zm32.1-7c-3.2 2.6-7.1 4-11.3 4-9.9 0-18-8.1-18-18s8.1-18 18-18c7.9 0 14.7 5.2 17.1 12.3L39.3 20c-1.8-6.9-8.1-12-15.5-12-8.8 0-16 7.2-16 16s7.2 16 16 16 16-7.2 16-16c0-.5 0-1.1-.1-1.6l1.7-1.8c.2 1.1.3 2.3.3 3.4 0 4.2-1.4 8.1-4 11.3l-.5.7 4.3 4.3-1.4 1.4-4.3-4.3-.7.6zM21 21c-.6 0-1-.4-1-1s.4-1 1-1 1 .4 1 1-.4 1-1 1zm-.9 1.9c.3.1.6.1.9.1.5 0 .9-.1 1.3-.3l6 6c-.2.4-.3.8-.3 1.3 0 1.7 1.3 3 3 3s3-1.3 3-3c0-.5-.1-.9-.3-1.3l4.1-4.3c-.2 7.5-6.4 13.6-14 13.6-4.5 0-8.4-2.1-11-5.4l7.3-9.7zM32 30c0 .6-.4 1-1 1s-1-.4-1-1 .4-1 1-1 1 .4 1 1zm.3-2.7c-.4-.2-.8-.3-1.3-.3s-.9.1-1.3.3l-6-6c.2-.4.3-.8.3-1.3 0-1.7-1.3-3-3-3s-3 1.3-3 3c0 .6.2 1.2.5 1.7l-6.9 9.1c-1.1-2-1.8-4.4-1.8-6.9 0-7.7 6.3-14 14-14 6.9 0 12.7 5.1 13.8 11.7l-5.3 5.7zm25.3 26.4l-4.2 4.2c-.4.4-1 .4-1.4 0l-12-12c-.4-.4-.4-1 0-1.4l4.3-4.2c.2-.2.4-.3.7-.3.2 0 .5.1.6.3l12 12c.4.4.4 1 0 1.4z"></path>
  </symbol>
</svg>