<svg width="19" height="18" viewBox="0 0 19 18" fill="none" xmlns="http://www.w3.org/2000/svg">
<path d="M0.445628 0.000532348C-0.0828719 -0.0172605 -0.17237 0.801023 0.345692 0.914147L1.96029 1.29321L2.37521 3.40391C2.37543 3.40653 2.37586 3.40653 2.37611 3.40828L4.43389 13.3687C4.47763 13.5801 4.65298 13.7307 4.85556 13.7307H16.5098C17.0942 13.7399 17.0942 12.7983 16.5098 12.8076H5.20257L4.80535 10.8844H17.098C17.3006 10.8844 17.476 10.7339 17.5197 10.5225L18.9897 3.40785C19.0492 3.11974 18.844 2.8467 18.568 2.8467C13.4279 2.84684 8.28777 2.84671 3.14774 2.84409L2.748 0.810872C2.71308 0.633092 2.58384 0.49372 2.41782 0.454838L0.531249 0.0122174C0.50317 0.00523979 0.474496 0.000872198 0.445648 0L0.445628 0.000532348ZM7.61833 14.7053C6.77339 14.7053 6.08048 15.449 6.08047 16.3526C6.08047 17.2562 6.77338 18 7.61833 18C8.46327 18 9.15618 17.2562 9.15617 16.3526C9.15617 15.449 8.46325 14.7053 7.61833 14.7053ZM13.8119 14.7053C12.967 14.7053 12.274 15.449 12.274 16.3526C12.274 17.2562 12.9669 18 13.8119 18C14.6568 18 15.3497 17.2562 15.3497 16.3526C15.3497 15.449 14.6568 14.7053 13.8119 14.7053Z" fill="white"/>
</svg>
