<svg width="60" height="81" viewBox="0 0 60 81" fill="none" xmlns="http://www.w3.org/2000/svg">
<path d="M45.1601 34.4396V79.2235H1.74374V15.9245H24.7931C24.8422 15.3238 24.9213 14.7314 25.0303 14.1489H0V81H46.9039V34.0334C46.3341 34.1979 45.7526 34.3333 45.1601 34.4396Z" fill="#213CC4"/>
<path d="M28.408 66.6511H6.51172V68.4267H28.408V66.6511Z" fill="#213CC4"/>
<path d="M28.408 71.9778H6.51172V73.7533H28.408V71.9778Z" fill="#213CC4"/>
<path d="M28.408 61.3245H6.51172V63.1H28.408V61.3245Z" fill="#213CC4"/>
<path d="M28.408 55.9968H6.51172V57.7724H28.408V55.9968Z" fill="#213CC4"/>
<path d="M28.408 50.6704H6.51172V52.446H28.408V50.6704Z" fill="#213CC4"/>
<path d="M28.408 45.3438H6.51172V47.1193H28.408V45.3438Z" fill="#213CC4"/>
<path d="M28.408 40.0171H6.51172V41.7926H28.408V40.0171Z" fill="#213CC4"/>
<path d="M28.408 34.6895H6.51172V36.465H28.408V34.6895Z" fill="#213CC4"/>
<path d="M28.408 29.3628H6.51172V31.1383H28.408V29.3628Z" fill="#213CC4"/>
<path d="M43.0304 65.311L41.7746 64.0552L35.2131 70.6185L33.2939 68.6994L32.0391 69.9543L33.9573 71.8743L35.2121 73.1301L35.2131 73.1292L35.214 73.1301L36.4688 71.8743H36.4679L43.0304 65.311Z" fill="#213CC4"/>
<path d="M43.0304 52.0915L41.7746 50.8367L35.2131 57.4L33.2939 55.48L32.0391 56.7358L33.9573 58.6549V58.6558L35.2121 59.9116L35.2131 59.9107L35.214 59.9116L36.4688 58.6558L36.4679 58.6549L43.0304 52.0915Z" fill="#213CC4"/>
<path d="M43.0304 38.873L41.7746 37.6172L35.2131 44.1805L33.2939 42.2614L32.0391 43.5172L33.9573 45.4363V45.4372L35.2121 46.693L35.2131 46.6921L35.214 46.693L36.4688 45.4372L36.4679 45.4363L43.0304 38.873Z" fill="#213CC4"/>
<path d="M28.409 24.0361H6.5127V25.8117H28.409V24.0361Z" fill="#213CC4"/>
<path d="M42.0832 0C32.4986 0 24.7285 7.77188 24.7285 17.3584C24.7285 26.9449 32.4986 34.7167 42.0832 34.7167C51.6679 34.7167 59.438 26.9449 59.438 17.3584C59.438 7.77188 51.6688 0 42.0832 0ZM42.0832 32.3678C33.7952 32.3678 27.0765 25.6482 27.0765 17.3584C27.0765 9.06855 33.7952 2.34892 42.0832 2.34892C50.3712 2.34892 57.09 9.06855 57.09 17.3584C57.09 25.6473 50.3712 32.3678 42.0832 32.3678Z" fill="#FF6D2A"/>
<path d="M43.1724 5.52832H40.9971V18.0098H41.0025L47.505 22.3533L48.7126 20.5441L43.1724 16.844V5.52832Z" fill="#FF6D2A"/>
</svg>
