<svg width="69" height="70" viewBox="0 0 69 70" fill="none" xmlns="http://www.w3.org/2000/svg">
<path d="M38.2587 53.8472C38.2587 53.24 37.5926 52.5739 36.9854 52.5739C36.6334 52.5739 36.309 52.7078 36.0885 52.9341C35.8299 53.1823 35.6879 53.5112 35.6914 53.8564L35.7514 65.3826C35.756 65.9644 35.576 66.5485 35.2735 66.9387C35.1292 67.1211 34.8303 67.4293 34.4459 67.4304L33.6909 67.4351C33.4981 67.4351 33.3192 67.3727 33.1357 67.2354C32.6728 66.9041 32.368 66.1826 32.3611 65.3988L32.308 53.8922C32.3103 53.5239 32.1418 53.1684 31.8047 52.8821C31.1883 52.4239 30.5488 52.5531 30.1043 52.986C29.8688 53.2238 29.7384 53.5447 29.7384 53.8945L29.7938 65.4103C29.8065 66.8925 30.4137 68.2858 31.4226 69.1435C31.4861 69.1966 31.5519 69.2486 31.6223 69.3017C32.2387 69.7588 32.9464 70 33.6667 70V69.5164L33.6955 70L34.4597 69.9954C35.5402 69.9897 36.5733 69.4483 37.2971 68.5121C37.9597 67.6509 38.3222 66.5347 38.3176 65.3676L38.2587 53.8472Z" fill="#FF6D2A"/>
<path d="M42.3313 24.6593C39.9164 22.8666 37.0502 21.92 34.0431 21.92C29.6404 21.92 25.4501 24.0233 22.8354 27.5464C18.4743 33.4255 19.4255 41.738 25.0033 46.472C25.2446 46.6752 25.487 46.8668 25.7225 47.0422C28.1385 48.835 31.0048 49.7827 34.0107 49.7827C38.4146 49.7827 42.6038 47.6794 45.2172 44.1552C49.7942 37.9886 48.5013 29.2433 42.3313 24.6593ZM43.1729 42.6372C41.0361 45.5173 37.6112 47.235 34.0107 47.235C31.5554 47.235 29.2133 46.4604 27.2382 44.9956C27.0488 44.8559 26.8561 44.7035 26.6483 44.5281C22.092 40.6621 21.3152 33.8699 24.8798 29.0643C27.0154 26.1854 30.4403 24.4665 34.0419 24.4665C36.4995 24.4665 38.8406 25.24 40.8133 26.7037C45.8556 30.4507 46.9141 37.5985 43.1729 42.6372Z" fill="#FF6D2A"/>
<path d="M29.0492 42.9073C28.9326 42.9073 28.816 42.8716 28.7156 42.7977C28.5678 42.6892 28.4166 42.568 28.2665 42.441C24.7746 39.4789 24.179 34.2774 26.9078 30.5973C28.5447 28.3925 31.1663 27.0765 33.9205 27.0765C35.801 27.0765 37.596 27.6687 39.107 28.7919C39.3564 28.9766 39.4083 29.3287 39.2236 29.578C39.0389 29.8274 38.688 29.8793 38.4375 29.6946C37.1193 28.718 35.5586 28.2009 33.9194 28.2009C31.5183 28.2009 29.235 29.3472 27.8082 31.268C25.4303 34.4736 25.9497 39.0056 28.9903 41.5845C29.1196 41.693 29.2523 41.798 29.3805 41.8938C29.631 42.0785 29.6829 42.4306 29.4994 42.6799C29.3909 42.8288 29.2212 42.9073 29.0492 42.9073Z" fill="#FF6D2A"/>
<path d="M28.9592 5.72217C30.2879 5.72217 31.5149 6.94001 31.545 8.2883C31.5854 9.69661 30.3479 10.9549 28.9292 10.9549C27.5613 10.9549 26.3631 9.76702 26.3331 8.4095C26.303 6.98965 27.5405 5.73256 28.9592 5.72217Z" fill="#FF6D2A"/>
<path d="M19.9634 5.73252C21.3821 5.77293 22.4695 6.92035 22.4591 8.35868C22.4487 9.81778 21.3729 10.9352 19.923 10.9444C18.4639 10.9548 17.3165 9.76699 17.3569 8.26749C17.3765 6.85917 18.5943 5.69212 19.9634 5.73252Z" fill="#FF6D2A"/>
<path d="M10.9064 5.73251C12.2546 5.7429 13.4829 6.95959 13.5025 8.30903C13.5325 9.69772 12.2754 10.956 10.8556 10.9456C9.49689 10.9456 8.28944 9.74851 8.26981 8.38983C8.2398 6.98037 9.49804 5.7025 10.9064 5.73251Z" fill="#FF6D2A"/>
<path d="M59.7551 0H8.31481C3.73087 0 0 3.73087 0 8.30327V51.8559C0 56.441 3.73087 60.1591 8.31481 60.1591H28.0231V57.5526H8.31481C5.16804 57.5526 2.60653 54.9911 2.60653 51.8559V15.6299H46.7432C47.3158 15.6299 47.7545 15.1913 47.7545 14.6187L47.7094 10.3372L58.9575 10.3488V14.5853C58.9575 15.1578 59.4296 15.6299 60.0137 15.6299H65.4519V51.8559C65.4519 54.9911 62.8903 57.5526 59.7551 57.5526H40.3331V60.1591H59.7551C64.3402 60.1591 68.0584 56.4398 68.0584 51.8559V8.30327C68.0595 3.72972 64.3402 0 59.7551 0ZM65.4519 14.4837L60.1141 14.5171V10.2922C60.1141 9.67464 59.6201 9.16903 59.0013 9.16903H47.6529C47.0688 9.16903 46.5851 9.65271 46.5851 10.2368V14.4733H2.60653V8.30327C2.60653 5.16804 5.16804 2.60653 8.31481 2.60653H59.7551C62.8903 2.60653 65.4519 5.16804 65.4519 8.30327V14.4837Z" fill="#213CC4"/>
</svg>
