<svg width="72" height="71" viewBox="0 0 72 71" fill="none" xmlns="http://www.w3.org/2000/svg">
<path d="M36.244 70.3C36.0147 70.3 35.9 70.3 35.6706 70.3C35.556 70.3 35.4413 70.3 35.3266 70.3C31.4274 70.3 27.5282 68.6945 24.5465 65.8274L24.0878 65.3687C21.2207 62.5017 19.2711 59.6346 17.7803 56.4235C14.5692 49.3132 12.9636 42.0883 12.9636 34.978C12.9636 34.634 12.9636 34.4046 12.9636 34.1752V33.9459C12.9636 33.2578 12.9636 32.5697 12.9636 31.7669C13.3077 27.6384 14.5692 24.0832 16.5188 21.1015C18.6977 17.8904 21.6794 15.4821 25.3493 13.9912C28.4457 12.7297 32.0008 12.0416 35.6706 12.0416C39.4551 12.0416 42.8956 12.7297 45.992 13.9912C53.217 16.8583 57.5749 23.1658 58.3776 31.7669C58.4923 32.5697 58.3776 33.2578 58.3776 33.9459V34.1752C58.3776 34.5193 58.3776 34.7486 58.3776 35.0927C58.3776 35.8955 57.6896 36.4689 56.8868 36.4689C56.084 36.4689 55.3959 35.7808 55.3959 35.0927C55.3959 34.7486 55.3959 34.4046 55.3959 34.1752V33.9459C55.3959 33.3725 55.3959 32.6844 55.3959 32.111C54.7078 24.6566 50.9233 19.2666 44.7305 16.7436C41.9781 15.5968 38.767 15.0234 35.4413 15.0234C32.1155 15.0234 29.0191 15.7114 26.152 16.7436C23.0556 18.0051 20.5326 20.0694 18.6977 22.707C16.9775 25.3447 15.9454 28.4411 15.6013 32.111C15.6013 32.6844 15.6013 33.3725 15.6013 33.9459V34.1752C15.6013 34.4046 15.6013 34.7486 15.6013 35.0927C15.6013 41.8589 17.2069 48.6252 20.1886 55.3914C21.4501 58.1437 23.285 60.7814 25.9227 63.4191L26.6108 63.7632C29.0191 66.1715 32.1155 67.433 35.3266 67.433C35.4413 67.433 35.4413 67.433 35.556 67.433H35.6706H35.9C36.0147 67.433 36.1294 67.433 36.3587 67.433C39.5698 67.433 42.6662 66.1715 45.0746 63.7632C45.648 63.1897 46.5654 63.1897 47.1388 63.7632C47.7122 64.3366 47.7122 65.254 47.1388 65.8274C44.0424 68.6945 40.1432 70.3 36.244 70.3Z" fill="#FF6D2A"/>
<path d="M20.418 36.3542C22.2529 36.6983 22.5969 36.6983 24.4318 36.6983H24.7759C31.6568 36.6983 38.5377 34.634 44.1571 30.9642L44.9599 30.5054L45.4186 31.3082C46.1067 32.5697 47.2535 33.7165 48.515 34.2899C49.2031 34.634 50.1206 34.978 50.9233 34.978C51.6114 34.978 51.6114 34.7487 51.6114 34.5193C51.6114 34.1753 51.3821 33.9459 51.038 33.9459C50.2352 33.8312 49.5472 33.7165 48.7444 33.2578C47.2535 32.455 46.2214 31.1935 45.8773 29.4733L45.648 28.6705L44.9599 29.0146C39.2258 33.2578 32.1155 35.5514 24.7759 35.5514H24.0878C22.7116 35.5514 22.2529 35.5514 20.6473 35.2074H20.418C20.1886 35.2074 19.9592 35.4368 19.9592 35.6661C19.9592 36.0102 20.0739 36.3542 20.418 36.3542Z" fill="#FF6D2A"/>
<path d="M71.2221 29.5879L71.1074 28.7852C70.9927 27.8677 70.7634 26.7209 70.19 25.9181L69.9606 25.5741L69.6166 25.4594C69.3872 25.3447 68.8138 25.23 68.5844 25.1153H68.3551C68.1257 25.1153 68.011 25.0007 67.7816 25.0007C67.5523 24.4272 66.4055 21.3308 66.4055 21.2162C62.965 12.615 57.1162 6.3075 48.9738 2.63768C45.0746 0.917455 40.9461 0 36.7029 0H34.6386C30.3953 0 26.3815 0.917455 22.3676 2.63768C14.4546 6.19282 8.60579 12.5003 5.05065 21.1015L4.7066 22.0189C4.36256 22.9364 3.90383 24.4272 3.67447 24.7713C3.55979 24.7713 3.33042 24.886 3.10106 25.0007H2.87169C2.41297 25.1153 2.06892 25.23 1.83956 25.3447L1.49551 25.4594L1.38083 25.9181C0.80742 26.7209 0.578056 27.8677 0.463374 28.7852C0.463374 29.1292 0.348692 29.4732 0.348692 29.7026C0.00464675 31.4228 -0.110035 33.1431 0.119329 34.7486C0.23401 37.0423 0.578056 38.9918 1.26615 40.8268L1.38083 41.0561C1.83956 42.547 2.75701 45.1847 4.82129 45.1847C5.16533 45.1847 5.62406 45.07 6.19747 45.07L9.86729 44.4966C10.6701 44.3819 11.2435 43.6938 11.1288 42.891C11.0141 42.0883 10.326 41.5148 9.52324 41.6295L5.85342 42.2029C5.50938 42.2029 5.28001 42.3176 4.93597 42.3176C4.7066 42.0883 4.47724 41.5148 4.01851 40.1387L3.90383 39.9093C3.33042 38.3038 2.98638 36.4688 2.87169 34.6339C2.75701 33.2578 2.87169 31.7669 3.10106 30.276C3.10106 29.932 3.21574 29.5879 3.21574 29.2439C3.21574 28.8998 3.33042 28.3264 3.4451 27.8677C3.55979 27.8677 3.67447 27.8677 3.67447 27.753H3.90383C4.93597 27.5237 5.96811 27.1796 6.42683 25.9181C7.11492 23.9685 7.57365 22.9364 7.80302 22.1336C10.8994 14.2206 16.2895 8.48646 23.7438 5.16069C27.2989 3.55514 31.0834 2.75237 34.8679 2.75237H36.9322C40.7167 2.75237 44.3865 3.55514 48.0564 5.16069C55.5107 8.48646 60.786 14.2206 63.9971 22.1336L65.3733 25.9181C65.832 27.2943 66.8642 27.5237 67.7816 27.753H68.011C68.1257 27.753 68.1257 27.753 68.2404 27.8677C68.355 28.2117 68.4697 28.8998 68.5844 29.2439L68.6991 30.0467C69.0431 31.5375 69.0431 32.9137 68.9285 34.4046C68.8138 36.3542 68.4697 38.1891 67.8963 39.9093L67.7816 40.2533C67.4376 41.2855 67.0936 41.9736 66.8642 42.3176C66.6348 42.3176 66.2908 42.2029 65.9467 42.2029L60.6714 41.6295C59.5245 41.5148 58.4924 41.7442 57.4603 42.2029C56.1988 42.891 55.2813 43.9232 54.8226 45.1847C54.2492 46.5608 53.6758 47.8223 52.9877 49.0839C52.4143 50.2307 51.8409 51.3775 50.8087 52.2949C50.0059 52.983 48.9738 53.2124 47.7123 53.2124C47.7123 53.2124 47.5976 53.2124 47.4829 53.2124V52.639C47.4829 50.0013 45.4187 47.937 42.781 47.937H35.212C32.5743 47.937 30.51 50.0013 30.51 52.639V53.2124V54.5886V56.1941C30.51 58.8318 32.5743 60.8961 35.212 60.8961H42.781C45.4187 60.8961 47.4829 58.8318 47.4829 56.1941V56.0794C49.0885 55.9648 51.1528 55.7354 52.6436 54.4739C53.7905 53.5564 54.5932 52.4096 55.1666 51.1481C55.8547 49.6573 56.6575 48.3958 57.2309 46.7902C57.4603 46.2168 57.575 45.7581 58.0337 45.2994C58.6071 44.6113 59.5245 44.2672 60.442 44.3819L65.7174 44.9553C66.1761 44.9553 66.6348 45.07 66.9789 45.07H67.0936C69.0431 45.07 69.9606 42.547 70.4193 41.0561L70.534 40.7121C71.2221 38.7625 71.5661 36.6982 71.7955 34.5193C71.6808 33.0284 71.5661 31.3082 71.2221 29.5879ZM44.2719 56.1941C44.2719 57.2263 43.4691 58.029 42.4369 58.029H34.8679C33.8358 58.029 33.033 57.2263 33.033 56.1941V56.0794V53.2124V52.639C33.033 51.6069 33.8358 50.8041 34.8679 50.8041H42.4369C43.4691 50.8041 44.2719 51.6069 44.2719 52.639V53.2124V56.1941Z" fill="#213CC4"/>
</svg>
