<svg width="71" height="71" viewBox="0 0 71 71" fill="none" xmlns="http://www.w3.org/2000/svg">
<path d="M65.589 28.5326C62.7473 27.9396 60.4643 23.912 60.386 20.8343C60.3635 19.85 60.5544 18.9996 60.9565 18.3615C62.3322 16.101 63.3178 13.4053 60.2401 10.4616C58.7743 9.0515 57.2526 7.59747 55.1605 7.59747C53.9639 7.59747 52.7992 8.07898 51.58 9.08589C51.2219 9.37646 50.5956 9.54487 50.0359 9.68956C49.8236 9.73463 49.6326 9.79037 49.4535 9.84611C46.3545 9.68956 41.8561 6.82539 41.4089 5.07961C40.7827 2.57361 39.6406 0 35.8146 0C35.6806 0 35.5466 0.010674 35.479 0.010674H34.8302C30.6235 -0.168411 29.415 2.64002 28.8101 5.07961C28.3962 6.791 23.8313 9.68956 20.7656 9.84611C20.5865 9.79037 20.3848 9.73463 20.1832 9.68956C19.6234 9.54369 18.9866 9.37646 18.6165 9.06336C17.4199 8.07898 16.2552 7.59747 15.0586 7.59747C13.0222 7.59747 11.5231 9.00762 10.0798 10.3727L9.9232 10.5067C6.91315 13.4385 7.89753 16.1236 9.27447 18.3841C10.0798 19.6709 10.0015 21.9088 9.07285 24.0899C8.07661 26.4393 6.33202 28.1745 4.61944 28.5314C0.794615 29.3379 0.145877 31.6648 0 33.7012L0.0106737 36.5986C0.134017 38.4001 0.760221 40.8729 4.62063 41.6118C6.33202 41.9699 8.03273 43.6481 9.0515 45.9976C10.0133 48.213 10.126 50.5067 9.33139 51.8042C7.97699 53.9081 6.82539 56.694 10.0133 59.7147C11.4674 61.1249 12.989 62.5789 15.0479 62.5789C16.2445 62.5789 17.4199 62.0867 18.6059 61.0905C18.9866 60.7881 19.691 60.609 20.2615 60.4524C20.4406 60.4074 20.6078 60.3635 20.7537 60.3184C24.0092 60.4418 28.4294 63.485 28.8101 65.0624C29.3925 67.4344 30.5666 70.142 34.4377 70.142C34.561 70.142 34.695 70.142 34.7733 70.1313H35.3663C35.5347 70.142 35.702 70.142 35.8478 70.142H35.8585C39.6738 70.0969 40.8266 67.4012 41.4078 65.0624C41.441 64.9058 41.6544 64.3128 42.6614 63.4067C43.7797 62.3892 45.3132 61.4937 46.7898 60.9446C46.0853 60.2401 45.3797 59.5345 44.6633 58.8075C43.1524 59.5119 41.7766 60.4192 40.7804 61.336C39.6394 62.3654 38.9338 63.3949 38.6883 64.3911C38.1285 66.6623 37.4916 67.3229 35.8348 67.3454C35.734 67.3454 35.6225 67.3454 35.4434 67.3348H34.7045C32.8247 67.4356 32.1203 66.7975 31.5273 64.403C30.6994 60.9909 24.4445 57.5219 20.5509 57.5219H20.3267L20.1026 57.6001C19.946 57.6452 19.7563 57.7009 19.5547 57.746C18.7719 57.9583 17.7081 58.2382 16.8352 58.9213C16.1532 59.5036 15.5484 59.7823 15.0455 59.7823C14.1062 59.7823 13.11 58.8205 11.9465 57.7009L11.8682 57.6227C10.4474 56.2683 10.4023 55.3064 11.701 53.2819C13.0103 51.1341 12.976 47.99 11.6121 44.8792C10.2138 41.6675 7.81925 39.4188 5.16737 38.8709C3.09781 38.4795 2.88434 37.6399 2.79539 36.4989V33.802C2.88434 32.527 3.08595 31.7099 5.18991 31.2735C7.85246 30.7137 10.2588 28.4425 11.6465 25.1869C12.9665 22.0986 12.9558 18.9996 11.6465 16.9075C10.3822 14.8261 10.4273 13.92 11.8587 12.5324L11.9928 12.409C13.1455 11.3239 14.1299 10.3952 15.0586 10.3952C15.5733 10.3952 16.1663 10.6751 16.8269 11.2124C17.6666 11.9287 18.7173 12.1968 19.4788 12.3984C19.7029 12.4541 19.9045 12.4992 20.0717 12.5656L20.3066 12.6439H20.5639C24.4576 12.6213 30.7006 9.14163 31.5178 5.75207C32.0882 3.45836 32.7488 2.79776 34.4377 2.79776C34.5266 2.79776 34.6168 2.79776 34.7733 2.80843H35.5347C37.4027 2.71948 38.0858 3.31129 38.7013 5.76274C39.5742 9.15349 45.8066 12.6213 49.6552 12.6439H49.9018L50.1485 12.5656C50.3051 12.498 50.5067 12.4541 50.7309 12.3984C51.4923 12.1968 52.543 11.9287 53.3709 11.2349C54.0421 10.6751 54.647 10.3952 55.1605 10.3952C56.1342 10.3952 57.1862 11.414 58.3497 12.5217C59.793 13.9093 59.8381 14.8048 58.5738 16.8968C57.8919 17.982 57.5562 19.3696 57.5895 20.9019C57.7009 25.1869 60.711 30.3792 65.0185 31.2746C67.1225 31.7111 67.3348 32.5282 67.413 33.7024V36.41C67.4024 36.5997 67.3798 36.7682 67.3454 36.9805C67.2114 37.7632 66.9315 38.5127 65.0185 38.8709C62.3785 39.4307 59.9721 41.6794 58.5845 44.9124C58.5394 45.0132 58.4955 45.114 58.4612 45.2148C59.1882 45.9537 59.927 46.6807 60.6766 47.4302C60.7881 46.9606 60.9565 46.4909 61.1581 46.0201C62.165 43.6588 63.8657 41.9699 65.5664 41.6118C68.2183 41.1077 69.7067 39.7426 70.0981 37.4833C70.1539 37.1927 70.1871 36.901 70.2096 36.4989V33.6016C70.0768 31.6648 69.4268 29.3379 65.589 28.5326Z" fill="#213CC4"/>
<path d="M52.6888 27.413C49.5779 20.5093 42.6968 16.0121 35.1337 15.9445C25.0528 16.0227 16.784 23.6653 15.8779 33.7569V36.4977C16.4816 43.1108 20.3764 48.9068 26.2945 52.0058C29.0579 53.4384 32.0229 54.1761 35.1337 54.1987H35.1444C36.6328 54.188 38.1094 54.0089 39.5195 53.6614C39.2064 53.359 38.8933 53.0352 38.5802 52.7221C37.4618 52.9569 36.309 53.0684 35.1337 53.0803C32.2138 53.0577 29.4054 52.3639 26.8092 51.0107C21.2256 48.0908 17.5561 42.6305 16.9963 36.4432V33.802C17.8467 24.3365 25.6458 17.1423 35.1337 17.0629C42.2497 17.1186 48.7394 21.3704 51.6712 27.8708C52.5109 29.7281 53.0363 31.7312 53.2154 33.7557L53.226 36.3957C53.1371 37.4358 52.9461 38.4546 52.6781 39.4508C52.9687 39.7414 53.2711 40.0438 53.5735 40.3463C53.9542 39.0927 54.2116 37.7845 54.3349 36.4408V33.7C54.1321 31.4976 53.5842 29.3829 52.6888 27.413Z" fill="#213CC4"/>
<path d="M62.7724 53.3756C58.147 48.7549 53.8193 44.4332 49.6518 40.287C49.7099 39.9478 49.8285 39.4069 49.9791 38.8519L50.036 37.9719C50.0669 36.895 50.0977 35.7826 49.8807 34.612C49.3315 31.7786 47.9902 29.2869 46.0001 27.4035C44.029 25.5498 41.4625 24.3555 38.5853 23.9523C38.0634 23.8716 37.5143 23.8325 36.9201 23.8325C36.9189 23.8325 36.9178 23.8325 36.9178 23.8325L36.3509 23.823C34.9324 23.823 33.7215 23.8799 32.1346 24.6058L29.9157 25.634L31.4136 27.5921C31.6769 27.9182 31.9603 28.1104 32.1477 28.2112L33.5484 29.6059C35.2633 31.3137 36.7458 32.7891 38.1251 34.1684C38.4797 34.529 38.4773 34.8136 38.1132 35.1836L37.1787 36.1277C36.3793 36.9294 35.274 38.0371 34.6715 38.6242C34.5043 38.7867 34.1153 38.9112 33.8033 38.6183C33.6278 38.4534 33.463 38.2874 33.2874 38.1118L25.4373 30.2523L24.243 32.7725C23.2278 34.969 23.6287 37.9861 23.9584 39.5908C25.2559 45.854 30.5988 50.2291 36.9533 50.2291C37.2154 50.2291 37.4764 50.2232 37.7729 50.2054L37.9899 50.3584L38.5212 50.2529C39.2814 50.1236 39.6503 50.1165 39.8768 50.1082L40.7011 50.9348C44.9066 55.1486 48.818 59.0695 52.6179 62.8683C54.8085 65.0588 56.929 67.1793 59.0093 69.2501L59.5287 69.766L61.3575 68.0344L60.8037 67.4865C59.5074 66.2033 58.1945 64.8916 56.8602 63.5573L41.4257 48.1086C40.9715 47.6543 40.35 47.5962 39.859 47.5962C39.7464 47.5962 39.6289 47.5998 39.5092 47.6069L39.4463 47.5429V47.6093C39.081 47.633 38.7062 47.6816 38.3979 47.7302C38.2449 47.6947 38.1061 47.6864 37.9591 47.6864L37.793 47.6887C32.2758 48.0991 27.5271 44.4391 26.4193 39.0879C26.1976 37.9885 25.9248 36.1028 26.2592 34.6321L31.5073 39.879C31.7029 40.0758 31.8891 40.2609 32.0848 40.4459C33.2898 41.5892 35.2253 41.5797 36.4149 40.4293C37.0174 39.841 38.0943 38.7618 38.8996 37.9553L39.8982 36.946C40.5599 36.2854 40.9098 35.4991 40.9122 34.6736C40.9134 33.847 40.5671 33.0631 39.91 32.406C38.2057 30.6923 36.3532 28.8492 34.0453 26.5686C34.783 26.3563 35.4578 26.3361 36.3378 26.3361L36.9237 26.3456C37.3649 26.3456 37.8132 26.3776 38.2259 26.4393C40.586 26.769 42.6817 27.7368 44.2851 29.2359C45.8851 30.7421 46.9643 32.7654 47.4079 35.0911C47.5822 35.983 47.5526 36.9567 47.5241 37.9055L47.5158 38.3562C46.9097 40.6238 47.0189 41.2025 47.5146 41.6995C53.0911 47.2547 58.9583 53.1123 65.4184 59.5736L67.7488 61.9041L69.5587 60.1678L62.7724 53.3756Z" fill="#FF6D2A"/>
</svg>
