<svg width="77" height="70" viewBox="0 0 77 70" fill="none" xmlns="http://www.w3.org/2000/svg">
<path d="M48.187 56.7788C46.9265 56.5523 45.7014 56.2321 44.5232 55.8157C44.6536 56.208 44.8206 56.5649 45.0345 56.8978C45.9621 58.3848 45.8191 58.9201 44.9155 59.7756L44.8447 59.8465C44.0474 60.6071 43.2982 61.3335 42.7274 61.3335C42.43 61.3335 42.0263 61.131 41.5378 60.7273C40.8367 60.1679 39.9799 59.9427 39.3142 59.7756C39.1712 59.7402 39.0522 59.7048 38.9573 59.6681L38.7903 59.6086L38.4929 59.5972C36.0428 59.5972 33.0928 61.1196 31.44 62.618C30.5123 63.4508 29.9289 64.3076 29.7277 65.139C29.3113 66.8399 28.895 67.1259 27.8965 67.1373H26.9928C25.8513 67.1968 25.3628 66.9703 24.9237 65.1504C24.234 62.3434 19.3211 59.5959 16.1458 59.5959H15.9193L15.6928 59.6668C15.6093 59.7022 15.5029 59.7263 15.4068 59.7503L15.2878 59.7858C14.6576 59.9401 13.8008 60.1667 13.0642 60.7488C12.4935 61.2361 12.1252 61.3322 11.9101 61.3322C11.3393 61.3322 10.5901 60.6071 9.78141 59.8338L9.72193 59.7744C8.82972 58.9176 8.68671 58.3823 9.66245 56.8839C10.7204 55.1349 10.6977 52.5899 9.61436 50.0929C8.48423 47.5239 6.54541 45.7281 4.39271 45.2763C2.96518 45.0029 2.91835 44.4916 2.87026 43.8133V41.7555C2.91835 40.9468 2.95379 40.4469 4.42815 40.1495C6.58084 39.6977 8.53105 37.8665 9.63714 35.2607C10.6951 32.7752 10.6837 30.277 9.61309 28.5761C8.67279 27.0423 8.80441 26.5424 9.70801 25.6615L9.81558 25.5666C10.6002 24.8174 11.3494 24.1151 11.9328 24.1151C12.1353 24.1151 12.5036 24.21 13.0503 24.6618C13.7641 25.2566 14.6082 25.4818 15.3106 25.6603C15.4409 25.6957 15.5485 25.7198 15.6434 25.7552L15.8927 25.8501H16.1547C19.33 25.8261 24.2428 23.0672 24.9085 20.2842C25.3362 18.572 25.7526 18.2859 26.7992 18.2859H27.6674C28.833 18.2379 29.2734 18.4403 29.7252 20.2956C29.7492 20.3905 29.7846 20.4981 29.8201 20.593C30.3554 19.4983 30.9616 18.4403 31.6513 17.4051C30.973 16.2876 29.8555 15.4182 27.8572 15.4182C27.7496 15.4182 27.6433 15.4182 27.5952 15.4296H27.1194C23.61 15.2626 22.5875 17.7494 22.1357 19.592C21.8737 20.65 18.6858 22.8267 16.3433 22.9697C16.2243 22.9343 16.0813 22.8989 15.9383 22.8622C15.546 22.7672 15.1056 22.6483 14.8803 22.4572C13.8932 21.6485 12.9174 21.2562 11.9303 21.2562C10.218 21.2562 9.01576 22.3863 7.85019 23.4684L7.73123 23.5873C5.22165 26.026 6.11386 28.3331 7.17185 30.0821C7.73123 30.9617 7.65909 32.5917 6.99341 34.1382C6.27964 35.8277 5.03055 37.0882 3.82954 37.3375C0.654288 38.0032 0.118961 39.9774 0 41.6555L0.0113898 43.9031C0.0708705 44.7713 0.260703 47.3998 3.82954 48.0782C5.03055 48.3275 6.24421 49.5412 6.98202 51.242C7.67174 52.8126 7.76666 54.4768 7.23133 55.3576C6.19612 56.9509 5.13812 59.3656 7.79071 61.8878C8.96766 63.018 10.1813 64.1949 11.9063 64.1949C12.9174 64.1949 13.8805 63.7899 14.8676 62.9699C15.1056 62.78 15.6295 62.6484 16.0092 62.5421C16.1281 62.5181 16.2357 62.4826 16.342 62.4586C18.8035 62.5775 21.8965 64.8606 22.1344 65.8249C22.5748 67.6208 23.5379 70 26.8093 70C26.9043 70 27.0232 69.9886 27.0587 69.9886H27.4991C27.6294 70 27.761 70 27.8914 70H27.9028C29.5088 69.9759 30.5554 69.3697 31.2451 68.5611C31.9348 67.741 32.2917 66.7058 32.5056 65.8249C32.517 65.7769 32.6245 65.3845 33.3497 64.7302C34.6697 63.5292 36.835 62.5421 38.298 62.4586C38.3929 62.4826 38.5119 62.5181 38.6194 62.5421C39.0117 62.6497 39.5357 62.78 39.7369 62.9471C40.7354 63.7798 41.7112 64.1962 42.7223 64.1962C44.4473 64.1962 45.6483 63.0306 46.8252 61.9005L46.8847 61.841C48.8172 60.0262 48.7463 58.2418 48.187 56.7788Z" fill="#FF6D2A"/>
<path d="M37.3516 51.9508C35.6026 53.8302 33.331 55.2337 30.7505 55.912C29.6558 56.198 28.5143 56.3638 27.3488 56.3638C25.1252 56.3524 23.0079 55.8171 21.0324 54.7932C16.7979 52.5811 14.015 48.4541 13.5872 43.7678V41.7581C14.2288 34.5736 20.1415 29.1267 27.3374 29.0672H27.4082C27.4563 28.6622 27.5031 28.2585 27.5626 27.8536C27.4918 27.8422 27.4082 27.8422 27.3361 27.8422C19.51 27.913 13.0746 33.8611 12.3735 41.6986V43.8273C12.838 48.9654 15.8702 53.4733 20.473 55.8766C22.6143 56.994 24.9214 57.5661 27.3475 57.5888C28.6206 57.5774 29.8811 57.399 31.0707 57.0776C33.9131 56.3284 36.4227 54.7705 38.3261 52.6773C37.9945 52.4495 37.6731 52.2115 37.3516 51.9508Z" fill="#FF6D2A"/>
<path d="M72.7588 14.1439C72.7537 15.0678 72.4664 15.9271 71.9779 16.6383C70.1226 14.2996 67.8421 12.3101 65.2566 10.7889C66.0577 10.0878 67.1119 9.66261 68.2635 9.66641C70.7529 9.67653 72.7651 11.6799 72.7588 14.1439Z" fill="#213CC4"/>
<path d="M32.8233 14.1439C32.8283 15.0678 33.1156 15.9271 33.6041 16.6383C35.4594 14.2996 37.7399 12.3101 40.3254 10.7889C39.5243 10.0878 38.4701 9.66261 37.3185 9.66641C34.8292 9.67653 32.8157 11.6799 32.8233 14.1439Z" fill="#213CC4"/>
<path d="M75.8506 27.5903C73.9434 17.7114 66.8981 10.6598 57.0028 8.73108C56.6409 8.66021 56.4169 8.5982 56.2789 8.55644C56.2789 8.51974 56.2789 8.47671 56.2802 8.42356L57.3762 8.42862C57.8368 8.42862 58.2139 8.42356 58.567 8.41343C60.9336 8.33623 61.3854 6.59864 61.4702 5.85576C61.5942 4.77245 61.6018 3.62081 61.4917 2.43372C61.3588 0.999858 60.3299 0.0317151 58.929 0.0241218C54.3717 -0.010048 50.6017 -0.00751726 46.9999 0.0291836C45.399 0.0418391 44.2372 1.2188 44.1727 2.89185C44.1512 3.47527 44.1562 4.0764 44.1613 4.65602L44.1638 4.94963C44.1778 7.19724 45.3864 8.39824 47.6568 8.42102C48.0377 8.42482 48.4211 8.42609 48.8033 8.42609L50.0499 8.42356C50.0512 8.44887 50.0512 8.47291 50.0512 8.49316C49.9322 8.52353 49.7487 8.56277 49.4652 8.60579C49.2741 8.63364 49.0894 8.67413 48.8818 8.71969C48.7679 8.74627 48.6553 8.77032 48.5452 8.79183C42.6186 9.87387 37.2185 13.4452 33.7256 18.5897C30.1947 23.7949 28.9102 29.9492 30.1074 35.9188C32.3436 47.0607 41.7378 54.8425 52.9518 54.8425C54.6033 54.8425 56.2726 54.6692 57.914 54.3287C69.9532 51.8419 78.1678 39.5965 75.8506 27.5903ZM52.8379 7.35164L52.6544 5.55962H50.8523L48.8008 5.56469C48.4275 5.56469 48.0541 5.56342 47.6821 5.55962C47.0265 5.55203 47.0265 5.55203 47.0227 4.92938L47.0202 4.63324C47.0151 4.09412 47.0113 3.53475 47.0303 2.99689C47.0328 2.94627 47.0379 2.90957 47.0392 2.88932C50.5511 2.85515 54.1781 2.85262 58.6556 2.88299C58.7316 3.8119 58.7189 4.70032 58.624 5.52925C58.6252 5.53305 58.6252 5.53684 58.6252 5.54064C58.5847 5.5457 58.5341 5.5495 58.4721 5.55203C58.1469 5.56342 57.8014 5.56722 57.3774 5.56722L53.6529 5.55709L53.4871 7.36303C53.2555 9.80553 53.6301 10.9888 56.4536 11.5393C65.1631 13.2377 71.363 19.4414 73.0386 28.1319C75.066 38.636 67.8726 49.3501 57.3306 51.5281C55.8853 51.8293 54.4122 51.9824 52.9505 51.9824C43.1172 51.9824 34.876 45.1459 32.9119 35.3569C31.8678 30.1454 32.9979 24.763 36.0935 20.1982C39.1573 15.684 43.8829 12.553 49.0602 11.6077C49.2159 11.5798 49.3741 11.5444 49.5361 11.5077C49.6538 11.4811 49.7664 11.4558 49.8892 11.4368C52.7012 11.0015 53.0809 9.77389 52.8379 7.35164Z" fill="#213CC4"/>
<path d="M63.481 26.2703C63.0938 25.5122 62.1674 25.211 61.4094 25.5983L54.893 28.9216C54.34 28.5242 53.6667 28.2825 52.934 28.2825C51.0749 28.2825 49.5676 29.7897 49.5676 31.6488C49.5676 33.5079 51.0749 35.0152 52.934 35.0152C54.7893 35.0152 56.2927 33.5142 56.2991 31.6602L62.809 28.3394C63.5671 27.9547 63.8683 27.0271 63.481 26.2703Z" fill="#FF6D2A"/>
</svg>
