<svg width="62" height="71" viewBox="0 0 62 71" fill="none" xmlns="http://www.w3.org/2000/svg">
<path d="M34.7855 70.364C34.2161 70.364 33.6163 70.2654 33.0035 70.0705C32.3954 69.8709 31.8753 69.5775 31.3753 69.2875C30.874 69.5763 30.354 69.8709 29.7588 70.0658C28.937 70.3299 28.1247 70.418 27.4027 70.3311C26.5763 70.2407 25.8391 69.9202 25.2204 69.3814C24.5161 68.7534 23.6932 67.5806 23.6638 65.4934C23.638 65.3185 23.618 65.1412 23.5981 64.9569C23.2917 61.8155 22.8832 56.4883 22.6038 52.5486C22.5944 52.4852 22.5897 52.3479 22.5897 52.1929C22.4101 49.6714 22.2175 46.7225 22.1506 45.1858C21.9698 45.1377 21.7914 45.0825 21.6153 45.0191C20.6328 44.6529 19.8744 44.1011 19.3473 43.3768C18.9094 42.777 18.6171 42.0292 18.481 41.1569L18.3284 40.1204C18.1335 38.8185 17.9316 37.472 17.8388 36.1103C17.779 35.2252 17.7649 34.4245 17.7954 33.6615C17.8506 32.2058 17.9691 30.7443 18.0854 29.3321C18.1687 28.312 18.2521 27.2907 18.3119 26.2658C18.5526 22.1665 22.45 21.7556 24.779 21.5103C25.0948 21.4763 25.4047 21.4446 25.7017 21.4058L26.4143 21.3025C26.6362 21.2708 26.8968 21.2755 27.1222 21.3049C27.6633 21.3459 28.3513 21.6711 28.5907 22.3133C29.1918 23.2183 30.5289 25.4042 31.2825 26.6497L31.2954 26.6708L34.1833 22.0656C34.4709 21.5737 35.025 21.3307 35.5039 21.3025C35.7258 21.2743 35.9606 21.2685 36.2118 21.3037L36.9056 21.4046C37.0981 21.4223 37.3716 21.4469 37.6663 21.5197L37.6721 21.5209C37.9269 21.5526 38.1816 21.5925 38.4364 21.6336L38.6535 21.6817C39.0527 21.731 39.487 21.7779 39.9214 21.7967C42.7998 21.9623 44.2672 23.425 44.4304 26.2658C44.4926 27.3224 44.5795 28.3765 44.6663 29.4307C44.7814 30.8101 44.8976 32.2364 44.9586 33.6592C44.9821 34.4692 44.9657 35.2287 44.9129 35.9354C44.8272 37.3629 44.6135 38.7962 44.4057 40.1814L44.2649 41.1417C44.1181 42.1149 43.7718 42.9366 43.2353 43.594C42.9055 43.9896 42.5427 44.2948 42.1189 44.5378C41.8947 44.6951 41.5402 44.8724 41.1258 45.0215C40.9497 45.0825 40.7725 45.1365 40.594 45.1847C40.5271 46.7237 40.3346 49.689 40.1515 52.2904C40.1515 52.3808 40.1468 52.4676 40.1385 52.5475L40.1421 52.5486C39.8638 56.4589 39.4577 61.7709 39.1489 64.9464L39.0914 65.4629C39.0574 67.5888 38.2204 68.7698 37.5195 69.3873C36.9009 69.9249 36.1672 70.2407 35.3349 70.3323C35.1635 70.3534 34.9768 70.364 34.7855 70.364ZM31.3835 66.1308L32.0338 66.4795C32.258 66.5992 32.4764 66.726 32.69 66.8493C33.1091 67.0923 33.5047 67.3224 33.8534 67.4362C34.2748 67.5689 34.674 67.6205 35.0226 67.5818C35.3032 67.5501 35.5145 67.4621 35.6988 67.3024C36.2071 66.8551 36.321 66.0041 36.3245 65.369L36.3867 64.7433C36.7001 61.5303 37.1051 56.2465 37.381 52.3526L37.3881 52.1941C37.6674 48.1793 37.8518 45.0684 37.8518 44.3582C37.8518 44.1751 37.8588 44.0131 37.8776 43.8851L38.0126 42.9836L39.2135 42.6748C39.5528 42.5973 39.8861 42.5234 40.2043 42.4119C40.3827 42.3485 40.5341 42.2745 40.6539 42.1935C40.8805 42.0597 40.9931 41.9623 41.1011 41.832C41.3136 41.5725 41.4545 41.211 41.5261 40.7379L41.6705 39.7717C41.8771 38.3853 42.0743 37.0752 42.153 35.7487C42.2011 35.116 42.214 34.4539 42.1941 33.7578C42.1365 32.4089 42.0215 31.0108 41.91 29.6584C41.8208 28.5831 41.7327 27.5067 41.6693 26.4267C41.5872 24.9945 41.2361 24.6458 39.7864 24.5625C39.2851 24.5413 38.7615 24.4862 38.238 24.4193C38.13 24.4017 38.0302 24.384 37.9292 24.3559C37.7402 24.3265 37.5641 24.2983 37.3892 24.276L37.023 24.2127C36.8915 24.1751 36.753 24.1704 36.6144 24.1575L36.1824 24.0976L32.7617 29.5551C32.1043 30.5882 30.449 30.5788 29.8022 29.5645C29.6038 29.2229 29.369 28.8355 29.099 28.3883L28.9006 28.0514C28.0155 26.5922 26.9919 24.9299 26.4542 24.0953L26.0656 24.1516C25.7475 24.1927 25.4141 24.2279 25.076 24.2643C22.1577 24.5719 21.1716 24.9287 21.0835 26.429C21.0213 27.475 20.9368 28.5174 20.8523 29.5587C20.7396 30.9415 20.6222 32.3725 20.5694 33.7707C20.5424 34.4375 20.5553 35.1406 20.6081 35.9248C20.6938 37.175 20.8781 38.4076 21.0741 39.7142L21.2268 40.7496C21.2913 41.1652 21.4158 41.5068 21.593 41.7486C21.7996 42.0315 22.1213 42.2522 22.5791 42.4236C22.8245 42.5128 23.0921 42.5703 23.3645 42.6337C23.5253 42.6713 23.6873 42.7089 23.8505 42.75L24.7473 42.98L24.8776 43.8957C24.8941 44.0154 24.914 44.1939 24.9011 44.4063C24.9082 45.1999 25.0925 48.2615 25.3613 52.0967L25.366 52.2939C25.6501 56.2758 26.0551 61.5749 26.3579 64.6799C26.3744 64.836 26.3908 64.9921 26.4178 65.1494L26.4378 65.3807C26.4378 66.2658 26.6573 66.9502 27.0576 67.3071C27.2372 67.4644 27.4462 67.5524 27.7209 67.583C28.1118 67.6276 28.4792 67.5736 28.9077 67.4351C29.2434 67.3247 29.6156 67.1111 30.0476 66.8622C30.2718 66.7331 30.4995 66.6027 30.7343 66.4783L31.3835 66.1308Z" fill="#FF6D2A"/>
<path d="M30.9914 19.0956L30.8399 19.0932C29.2704 19.0486 27.7807 18.3372 26.8545 17.1903C26.0374 16.1784 25.5902 14.9916 25.292 14.0689C25.1464 13.6193 25.0173 13.1673 24.8917 12.7259L24.8189 12.4712C24.3717 10.9099 23.9713 8.87783 24.8623 7.02422C25.825 5.02386 28.1059 3.78186 30.8129 3.78186C32.0361 3.78186 33.2394 4.05421 34.1973 4.5496C36.5639 5.77165 37.2378 7.27543 37.3845 8.32257C37.7167 10.6704 36.8011 13.4397 35.9758 15.3485C34.9299 17.7644 33.1596 19.0956 30.9914 19.0956ZM30.8129 6.55113C29.5897 6.55113 27.9521 6.99017 27.3569 8.22513C26.8697 9.23587 27.1667 10.6176 27.4802 11.7093L27.5541 11.9687C27.6704 12.3784 27.7901 12.7987 27.9251 13.2166C28.2597 14.2485 28.5931 14.9388 29.0086 15.4518C29.4324 15.9765 30.1473 16.304 30.9186 16.3251L30.9914 16.3263C32.0162 16.3263 32.8379 15.6278 33.4343 14.2485C34.4028 12.011 34.8324 10.0435 34.6446 8.70996C34.5366 7.94691 33.5223 7.31769 32.9271 7.01013C32.3543 6.7143 31.603 6.55113 30.8129 6.55113Z" fill="#FF6D2A"/>
<path d="M61.9851 29.9602C61.924 28.5186 61.802 27.0242 61.6951 25.7047L61.6846 25.5721C61.5965 24.5108 61.5179 23.5518 61.458 22.5739C61.249 19.2764 58.434 18.7798 55.3196 18.5309L53.9954 18.3783C53.7841 18.3501 53.6409 18.3501 53.4472 18.3783C53.2852 18.3936 52.8919 18.4617 52.7194 18.761L49.1471 24.4627L48.5027 23.371C47.1714 21.1816 46.2722 19.733 45.8355 19.0744L45.6935 18.7927L45.4916 18.6096C45.3225 18.4628 44.9527 18.3724 44.5254 18.3724C44.4268 18.3724 44.3623 18.3783 44.3423 18.3795L43.7542 18.4699C43.2693 18.5133 42.7141 18.5673 42.248 18.6706L42.1306 18.6953C41.9135 18.7246 41.7045 18.7493 41.5038 18.7704L41.424 18.7786L41.4768 20.0054L41.5672 19.996C41.8043 19.9725 42.0532 19.9408 42.3232 19.9056L42.4582 19.8786C42.909 19.78 43.4196 19.7318 43.8692 19.6919L44.7015 19.5687L44.9692 19.9866C45.4481 20.732 46.3262 22.1536 47.4426 23.9885L48.316 25.4359C48.4921 25.7282 48.8008 25.9043 49.1401 25.9078C49.4899 25.9078 49.7951 25.7399 49.9794 25.4476L53.6503 19.5886L55.2398 19.7553C58.0724 19.9807 60.0869 20.3211 60.2336 22.6514C60.2876 23.5189 60.358 24.3946 60.4261 25.2434L60.4707 25.7869C60.5834 27.1662 60.6996 28.5914 60.7572 30.0142C60.7853 30.6058 60.776 31.2562 60.729 32.0603C60.6386 33.4091 60.4437 34.711 60.2371 36.0903L60.0822 37.1363C60.0012 37.7303 59.8051 38.2057 59.4882 38.592C59.3191 38.7962 59.1301 38.9547 58.8683 39.1097C58.7087 39.2165 58.4915 39.3233 58.2567 39.4067C57.9292 39.5217 57.5899 39.5992 57.2554 39.6767L56.544 39.8962L56.4618 40.1885C56.4172 40.3446 56.4172 40.4878 56.4172 40.6252C56.4172 41.3213 56.2505 44.2103 55.9735 48.3496C55.9594 48.4752 55.9559 48.5444 55.9559 48.5726C55.5696 53.9491 55.2045 58.4816 54.9569 61.0102L54.8864 61.7216C54.8841 62.7887 54.5742 63.648 54.013 64.1422C53.7008 64.4134 53.338 64.5684 52.9013 64.6177C52.4529 64.6682 51.9399 64.6059 51.3987 64.4345C51.0008 64.3101 50.6169 64.0859 50.1567 63.8182L49.6519 63.5295C49.3702 63.3722 48.9851 63.371 48.6964 63.5283L48.2139 63.8065C47.7748 64.0624 47.3616 64.3031 46.9249 64.4392C46.4014 64.6083 45.8707 64.6717 45.4129 64.6153C44.9985 64.5695 44.6417 64.4158 44.3505 64.1552C43.7659 63.6398 43.4572 62.7711 43.456 61.6395L43.4396 61.4657C43.422 61.3894 43.4032 61.2239 43.3867 61.0748C43.247 59.6379 43.1015 57.9663 42.9653 56.2383L42.9583 56.1537L41.735 56.2465L41.7421 56.3322C41.8771 58.0332 42.025 59.7436 42.1623 61.1593C42.1799 61.3213 42.1976 61.4845 42.221 61.6395L42.2316 61.7498C42.2574 63.567 42.9559 64.5602 43.537 65.072C44.0195 65.5016 44.6053 65.7575 45.2803 65.8327C45.4423 65.8515 45.6078 65.862 45.771 65.862C46.2581 65.862 46.757 65.7787 47.297 65.6061C47.85 65.4359 48.3465 65.1459 48.7844 64.8912L49.173 64.6646L49.5662 64.8947C50.0229 65.16 50.4948 65.4347 51.0289 65.6026C51.7298 65.8268 52.413 65.9078 53.0375 65.835C53.7184 65.7599 54.3171 65.5005 54.8207 65.0638C55.3959 64.5555 56.0862 63.5635 56.1155 61.7263L56.1754 61.13C56.4888 57.9181 56.8926 52.632 57.1779 48.7604L57.1885 48.5233C57.2671 47.3611 57.5312 43.4144 57.6193 41.4199L57.6428 40.8588L58.1839 40.7097C58.3272 40.671 58.4962 40.6228 58.6676 40.563C59.0832 40.4139 59.3602 40.2577 59.5163 40.1544C59.8779 39.9384 60.1796 39.6825 60.4343 39.3738C60.8957 38.8127 61.1845 38.1177 61.296 37.3077L61.4474 36.2829C61.6493 34.934 61.8595 33.5371 61.9534 32.1401C62.0027 31.2996 62.0121 30.6082 61.9851 29.9602Z" fill="#213CC4"/>
<path d="M20.0423 18.7223L19.8486 18.6883C19.291 18.5674 18.7616 18.5145 18.3683 18.4828L17.6287 18.3772L17.6135 18.4441V18.3784L17.59 18.3772C17.563 18.376 17.5219 18.3748 17.4726 18.3748C17.0453 18.3748 16.6767 18.4652 16.4994 18.6202L16.3093 18.8538L16.1672 19.0686C15.707 19.7671 14.8125 21.211 13.506 23.3605L12.8556 24.4299L12.1806 23.391L9.30216 18.7998C9.10494 18.4547 8.71285 18.3948 8.60133 18.3854C8.34072 18.3502 8.21042 18.349 8.04607 18.3737L6.71485 18.5286C3.58049 18.7787 0.749009 19.2764 0.5424 22.5739C0.47666 23.6117 0.390965 24.6553 0.315834 25.5768C0.198443 27.0078 0.0775292 28.4881 0.0153117 29.9567C-0.0128623 30.607 -0.0022972 31.3055 0.0481812 32.1543C0.139747 33.5442 0.348704 34.9364 0.550617 36.2817L0.699705 37.2866C0.812401 38.1072 1.10705 38.8127 1.57427 39.3844C1.8161 39.6744 2.1084 39.9279 2.39484 40.0958C2.69654 40.2918 2.99119 40.4386 3.35158 40.5677C3.51475 40.6252 3.6838 40.6734 3.81176 40.7086L4.3541 40.8565L4.37876 41.4188C4.45154 43.1292 4.67928 46.5911 4.80841 48.4987L4.82132 48.7898C5.0068 51.3278 5.47637 57.613 5.8215 61.15L5.8755 61.636C5.91072 63.5506 6.60802 64.5602 7.18559 65.0709C7.68216 65.5017 8.27146 65.7588 8.93942 65.8315C9.58273 65.9067 10.2413 65.8315 10.9633 65.6026C11.5056 65.4324 11.9787 65.1554 12.4353 64.8889L12.8239 64.6635L13.2125 64.8901C13.7173 65.1847 14.1751 65.443 14.6799 65.6003C15.2222 65.7729 15.7434 65.8609 16.2294 65.8609C16.3879 65.8609 16.5452 65.8515 16.6955 65.8327C17.3834 65.7564 17.9739 65.5028 18.454 65.0767C19.0386 64.5602 19.7406 63.5647 19.7653 61.7545C19.7981 61.4787 19.8169 61.312 19.8357 61.1312C19.9707 59.7389 20.1198 58.0332 20.2536 56.3311L20.2607 56.2453L19.1231 56.1585L19.0374 56.1526L19.0304 56.2371C18.8977 57.9182 18.7498 59.6133 18.6148 61.0079C18.5949 61.2004 18.5761 61.3742 18.5467 61.5538L18.5362 61.7182C18.5385 62.7805 18.2204 63.6469 17.6405 64.1599C17.3517 64.417 16.9866 64.5696 16.557 64.6165C16.1003 64.6635 15.5803 64.6013 15.0461 64.4299C14.6294 64.3008 14.2162 64.0578 13.7783 63.8018L13.2923 63.5236C13.0223 63.3734 12.6302 63.3745 12.3449 63.5271C12.1994 63.6082 12.0562 63.6927 11.9141 63.7748L11.866 63.803C11.4493 64.0472 11.0196 64.2996 10.597 64.4346C10.0347 64.6119 9.52872 64.6729 9.07677 64.6142C8.65651 64.5684 8.30198 64.417 7.99442 64.1493C7.42155 63.6445 7.11398 62.7782 7.10576 61.6336L7.0412 61.022C6.72894 57.8278 6.32276 52.5029 6.04572 48.7804L6.04454 48.6853C6.04337 48.582 6.04219 48.5128 6.03633 48.467C5.75106 44.2702 5.57967 41.3378 5.57967 40.6241C5.57967 40.4855 5.57967 40.3423 5.53624 40.1897L5.44819 39.8833L5.14885 39.7788C5.11598 39.7671 5.05845 39.7507 4.95045 39.7225L4.81663 39.692C4.35176 39.5851 4.04889 39.5124 3.75541 39.4102C3.4948 39.3163 3.27645 39.2083 3.04401 39.0581C2.85854 38.9489 2.67658 38.7927 2.51927 38.6037C2.1941 38.2081 1.99571 37.7221 1.91236 37.1176L1.7621 36.0986C1.56371 34.7803 1.35827 33.4186 1.26905 32.0768C1.2221 31.2703 1.21271 30.6117 1.23853 30.006C1.2984 28.5773 1.41814 27.1228 1.53201 25.7142C1.6224 24.6001 1.70105 23.6375 1.76327 22.6502C1.90884 20.3212 3.93384 19.9796 6.78176 19.7518L8.34894 19.5863L12.0209 25.4465C12.197 25.7282 12.5175 25.8996 12.8803 25.9055C13.2066 25.902 13.506 25.7259 13.682 25.4348L14.5519 23.9932C15.6437 22.1983 16.5452 20.7367 17.0277 19.9843L17.2954 19.5675L18.2427 19.7002C18.6336 19.7319 19.1044 19.7788 19.6291 19.8915L19.8169 19.9244C20.0141 19.9491 20.2219 19.9737 20.4332 19.9937L20.5236 20.0031L20.5753 18.7763L20.4943 18.7681C20.3311 18.7552 20.1761 18.7387 20.0423 18.7223Z" fill="#213CC4"/>
<path d="M7.35932 9.19476C7.49197 9.6608 7.61289 10.0822 7.75141 10.5084C8.02963 11.3665 8.44284 12.47 9.18006 13.3833C9.96659 14.3565 11.2403 14.961 12.5891 14.9998L12.7241 15.0009C15.0813 14.9974 16.3468 13.2142 16.9936 11.7187C18.1394 9.07384 18.5949 6.84927 18.3483 5.10718C18.2251 4.24083 17.644 2.98239 15.5697 1.91178C14.7186 1.47156 13.6421 1.22974 12.5398 1.22974C10.1309 1.22974 8.1165 2.30504 7.28419 4.03539C6.50471 5.6554 6.87684 7.50432 7.28654 8.93532L7.35932 9.19476ZM12.5398 2.45765C13.4496 2.45765 14.3265 2.65135 15.0074 3.00235C15.896 3.46252 16.9866 4.23026 17.1345 5.28092C17.4022 7.1674 16.5933 9.55984 15.869 11.2338C14.9604 13.3352 13.6539 13.7754 12.7206 13.7754C11.65 13.746 10.7085 13.3234 10.1345 12.6132C9.65902 12.0239 9.28337 11.2585 8.91828 10.1304C8.77506 9.69132 8.64945 9.24758 8.5391 8.85549L8.46515 8.59723C8.11532 7.37636 7.78897 5.81388 8.38884 4.56718C9.13898 3.01174 11.0243 2.45765 12.5398 2.45765Z" fill="#213CC4"/>
<path d="M43.7554 8.75103C43.881 9.19359 43.9914 9.57511 44.1146 9.95781C44.394 10.8159 44.8072 11.9194 45.5433 12.8304C46.3286 13.8036 47.6023 14.4081 48.9523 14.4469L49.0873 14.448C51.4469 14.4445 52.7124 12.6613 53.3569 11.1658C54.5026 8.52211 54.9581 6.29754 54.7127 4.55193C54.5883 3.68558 54.0072 2.42832 51.9341 1.3577C51.083 0.917486 50.0053 0.675659 48.903 0.675659C46.4941 0.675659 44.4809 1.74979 43.6486 3.48014C42.8679 5.1025 43.2389 6.95141 43.6509 8.38124L43.7554 8.75103ZM48.903 1.90475C49.8128 1.90475 50.6897 2.09845 51.3718 2.44945C52.2592 2.90727 53.3475 3.67267 53.4989 4.72449C53.7654 6.61098 52.9577 9.00459 52.2323 10.6798C51.3225 12.7799 50.0171 13.2213 49.0838 13.2213C48.012 13.1931 47.0705 12.7693 46.4977 12.0591C46.0222 11.4722 45.6466 10.7056 45.2803 9.57864C45.1559 9.19477 45.0444 8.80503 44.9375 8.4282L44.8284 8.0455C44.4785 6.82228 44.1522 5.2598 44.7509 4.01428C45.501 2.45766 47.3875 1.90475 48.903 1.90475Z" fill="#213CC4"/>
</svg>
