<svg width="81" height="81" viewBox="0 0 81 81" fill="none" xmlns="http://www.w3.org/2000/svg">
<path d="M40.0044 34.8047C44.721 34.8047 48.5576 30.968 48.5576 26.2521C48.5576 21.5354 44.721 17.6987 40.0044 17.6987C35.2879 17.6987 31.4512 21.5354 31.4512 26.2521C31.4512 30.968 35.2879 34.8047 40.0044 34.8047ZM40.0044 19.6118C43.6661 19.6118 46.6446 22.5904 46.6446 26.2521C46.6446 29.9132 43.6661 32.8917 40.0044 32.8917C36.3427 32.8917 33.3642 29.9132 33.3642 26.2521C33.3642 22.5904 36.3427 19.6118 40.0044 19.6118Z" fill="#FF6D2A"/>
<path d="M48.7433 38.4196C52.854 38.4196 56.2505 41.6348 56.4752 45.7393L56.9048 53.5721L58.8155 53.4674L58.3858 45.6346C58.105 40.5165 53.8697 36.5066 48.7433 36.5066H31.8248C26.4997 36.5066 22.168 40.839 22.168 46.164V53.5198H24.081V46.164C24.081 41.8939 27.5547 38.4196 31.8248 38.4196H36.3472L37.6903 40.8456L35.9772 49.5C35.9174 49.802 36.0065 50.114 36.2169 50.3388L39.7933 54.1649C39.9739 54.3587 40.2274 54.4682 40.492 54.4682C40.7567 54.4682 41.0101 54.3587 41.1907 54.1649L44.7677 50.3388C44.9783 50.114 45.0673 49.802 45.0075 49.5L43.2944 40.8456L44.6375 38.4196H48.7433ZM42.4462 38.4278L41.7244 39.7317H39.2603L38.5386 38.4278H42.4462ZM40.492 52.1112L37.9493 49.3905L39.4826 41.6448H41.5021L43.0352 49.3905L40.492 52.1112Z" fill="#FF6D2A"/>
<path d="M0.732953 49.6863L6.35375 51.0352C7.01387 53.1854 7.87016 55.2499 8.90449 57.186L5.86426 62.1162C5.63138 62.4936 5.68864 62.9818 6.00251 63.295L17.692 74.9701C18.0046 75.282 18.4897 75.3394 18.8683 75.1083L23.7991 72.0806C25.7415 73.1193 27.8008 73.9755 29.9356 74.6313L31.2845 80.2664C31.3878 80.6967 31.772 81 32.2148 81H48.7423C49.185 81 49.5692 80.6967 49.6727 80.2664L51.0215 74.632C53.1718 73.9712 55.2362 73.1156 57.1728 72.0806L62.1037 75.1083C62.4823 75.3406 62.9686 75.2814 63.2807 74.9694L74.9551 63.2944C75.2684 62.9818 75.3256 62.4948 75.094 62.1174L72.0668 57.1866C73.1019 55.2505 73.9576 53.1861 74.6182 51.0358L80.2521 49.6863C80.6824 49.5829 80.9857 49.1981 80.9857 48.756V32.2434C80.9857 31.8014 80.6824 31.4165 80.2521 31.313L74.6182 29.9636C73.9576 27.8133 73.1019 25.749 72.0668 23.8129L75.094 18.882C75.3256 18.5047 75.2684 18.0182 74.9558 17.7056L63.2813 6.01628C62.9675 5.70241 62.4817 5.64388 62.1037 5.87676L57.1704 8.90575C55.2212 7.87513 53.1575 7.02318 51.0215 6.36752L49.6727 0.73359C49.5692 0.303282 49.185 0 48.7423 0H32.2148C31.772 0 31.3878 0.303282 31.2845 0.73359L29.9356 6.36816C27.8314 7.01515 25.7769 7.86709 23.8146 8.90639L18.8671 5.87612C18.4902 5.64515 18.0033 5.70433 17.6914 6.01564L6.002 17.705C5.68864 18.0182 5.63138 18.5059 5.86426 18.8833L8.90449 23.8135C7.87016 25.7495 7.01387 27.8139 6.35375 29.9642L0.732953 31.313C0.303282 31.4165 0 31.8014 0 32.2434V48.756C-1.27537e-07 49.1981 0.303282 49.5829 0.732953 49.6863ZM1.91305 32.9975L7.33641 31.696C7.6703 31.6157 7.93558 31.3623 8.03149 31.0322C8.72452 28.6415 9.67173 26.3593 10.8456 24.2494C11.0143 23.9468 11.0056 23.5768 10.8238 23.2823L7.88941 18.5226L18.5109 7.90127L23.2854 10.825C23.5787 11.0037 23.9449 11.0137 24.2456 10.8475C26.3966 9.66485 28.6702 8.7221 31.0043 8.04513C31.3342 7.94923 31.5877 7.68395 31.6681 7.34955L32.9696 1.91305H47.9875L49.289 7.34955C49.3694 7.68395 49.6228 7.94923 49.9529 8.04513C52.3267 8.73383 54.6103 9.67671 56.7406 10.8475C57.0433 11.0132 57.4101 11.0037 57.7023 10.8244L62.4612 7.90255L73.0689 18.5239L70.147 23.2835C69.9664 23.5781 69.9583 23.9474 70.1264 24.2494C71.3003 26.3593 72.2474 28.6415 72.9406 31.0322C73.0365 31.3623 73.3018 31.6157 73.6362 31.696L79.0727 32.9982V48.0012L73.6362 49.3033C73.3018 49.3837 73.0365 49.6371 72.9406 49.9672C72.2474 52.3578 71.3003 54.6402 70.1264 56.7501C69.9583 57.0521 69.9664 57.4213 70.147 57.7159L73.0689 62.4754L62.4618 73.0832L57.7023 70.1607C57.407 69.9788 57.0378 69.9701 56.7363 70.1401C54.6253 71.314 52.3429 72.2612 49.9529 72.9542C49.6228 73.0501 49.3694 73.3154 49.289 73.6498L47.9875 79.087H32.9696L31.6681 73.6498C31.5877 73.3154 31.3342 73.0501 31.0043 72.9542C28.6335 72.2668 26.3561 71.3196 24.2357 70.1401C23.9343 69.9714 23.5649 69.9801 23.2698 70.1607L18.5096 73.0832L7.88941 62.4761L10.8238 57.7172C11.0056 57.4226 11.0143 57.0527 10.8456 56.7501C9.67173 54.6402 8.72452 52.3578 8.03149 49.9672C7.93558 49.6371 7.6703 49.3837 7.33641 49.3033L1.91305 48.0018V32.9975Z" fill="#213CC4"/>
<path d="M65.1821 28.0748C64.3195 26.3642 63.2727 24.7363 62.0714 23.2361L60.5781 24.4317C61.6966 25.8286 62.6711 27.3437 63.4745 28.9367L65.1821 28.0748Z" fill="white"/>
<path d="M40.494 68.1331C55.7312 68.1331 68.1274 55.7368 68.1274 40.4998C68.1274 38.786 67.9692 37.0697 67.6578 35.3983L65.7771 35.7496C66.0674 37.3051 66.2143 38.9037 66.2143 40.4998C66.2143 54.682 54.6762 66.2201 40.494 66.2201C26.3125 66.2201 14.7744 54.682 14.7744 40.4998C14.7744 26.3176 26.3125 14.7795 40.494 14.7795C46.638 14.7795 52.5858 16.9809 57.2401 20.9775L58.4868 19.5265C53.4849 15.2316 47.0951 12.8665 40.494 12.8665C25.2575 12.8665 12.8613 25.2626 12.8613 40.4998C12.8613 55.7368 25.2575 68.1331 40.494 68.1331Z" fill="#213CC4"/>
</svg>
