<svg width="83" height="83" viewBox="0 0 83 83" fill="none" xmlns="http://www.w3.org/2000/svg">
<path d="M68.0044 30.2783C67.9052 30.2783 67.8054 30.2545 67.7148 30.2065L62.4442 27.4361L57.1736 30.2065C56.9655 30.3178 56.7105 30.2996 56.5176 30.159C56.326 30.0197 56.2298 29.7836 56.27 29.5499L57.2764 23.6812L53.0122 19.5247C52.8424 19.3592 52.7816 19.1116 52.8546 18.8864C52.9282 18.6607 53.123 18.4964 53.3578 18.4623L59.2503 17.6056L61.8856 12.2662C62.0949 11.8403 62.7934 11.8403 63.0027 12.2662L65.638 17.6056L71.5305 18.4623C71.7654 18.4964 71.9601 18.6607 72.0337 18.8864C72.1067 19.1116 72.0459 19.3592 71.8761 19.5247L67.6119 23.6812L68.6183 29.5499C68.6585 29.7836 68.5624 30.0197 68.3707 30.159C68.2618 30.2381 68.1334 30.2783 68.0044 30.2783ZM62.4442 26.109C62.544 26.109 62.6431 26.1327 62.7338 26.1808L67.1769 28.5161L66.3287 23.5686C66.294 23.3666 66.3609 23.1603 66.5075 23.0173L70.1018 19.5138L65.1348 18.7915C64.9316 18.7623 64.7564 18.6345 64.6657 18.4508L62.4442 13.9499L60.2226 18.4508C60.132 18.6345 59.9567 18.7623 59.7535 18.7915L54.7865 19.5138L58.3808 23.0173C58.5274 23.1603 58.5943 23.3666 58.5597 23.5686L57.7115 28.5161L62.1545 26.1808C62.2452 26.1327 62.3444 26.109 62.4442 26.109Z" fill="#FF6D2A" stroke="#FF6D2A" stroke-width="0.405"/>
<path d="M45.9907 24.7722C45.8915 24.7722 45.7918 24.7484 45.7005 24.7004L40.4305 21.9294L35.1605 24.7004C34.9512 24.8111 34.6968 24.7935 34.504 24.6529C34.3123 24.5136 34.2161 24.2775 34.2563 24.0438L35.2627 18.1751L30.9985 14.0186C30.8288 13.8531 30.7679 13.6055 30.8409 13.3803C30.9146 13.1546 31.1093 12.9903 31.3442 12.9562L37.2366 12.0995L39.8719 6.76012C40.0812 6.33419 40.7798 6.33419 40.9891 6.76012L43.6244 12.0995L49.5168 12.9562C49.7517 12.9903 49.9464 13.1546 50.02 13.3803C50.0931 13.6055 50.0322 13.8531 49.8624 14.0186L45.5983 18.1751L46.6047 24.0438C46.6448 24.2775 46.5487 24.5136 46.357 24.6529C46.2481 24.732 46.1197 24.7722 45.9907 24.7722ZM40.4305 20.6023C40.5303 20.6023 40.6295 20.626 40.7207 20.6741L45.1632 23.01L44.315 18.0625C44.2803 17.8605 44.3472 17.6542 44.4939 17.5112L48.0881 14.0077L43.1212 13.2854C42.9179 13.2562 42.7427 13.1284 42.652 12.9446L40.4305 8.44377L38.209 12.9446C38.1183 13.1284 37.943 13.2562 37.7398 13.2854L32.7728 14.0077L36.3671 17.5112C36.5137 17.6542 36.5807 17.8605 36.546 18.0625L35.6978 23.01L40.1402 20.6741C40.2315 20.626 40.3307 20.6023 40.4305 20.6023Z" fill="#FF6D2A" stroke="#FF6D2A" stroke-width="0.405"/>
<path d="M23.9796 30.2783C23.8804 30.2783 23.7806 30.2545 23.69 30.2065L18.4188 27.4361L13.1482 30.2065C12.9401 30.3178 12.6851 30.2996 12.4922 30.159C12.3006 30.0197 12.2044 29.7836 12.2446 29.5499L13.251 23.6812L8.98682 19.5247C8.81706 19.3592 8.75621 19.1116 8.82923 18.8864C8.90285 18.6607 9.09756 18.4964 9.33243 18.4623L15.2249 17.6056L17.8602 12.2662C18.0695 11.8403 18.768 11.8403 18.9773 12.2662L21.6126 17.6056L27.5051 18.4623C27.74 18.4964 27.9347 18.6607 28.0083 18.8864C28.0813 19.1116 28.0205 19.3592 27.8507 19.5247L23.5865 23.6806L24.5936 29.5499C24.6337 29.7836 24.5376 30.0197 24.3459 30.159C24.2376 30.2381 24.1086 30.2783 23.9796 30.2783ZM10.7611 19.5138L14.3554 23.0173C14.502 23.1603 14.569 23.3666 14.5343 23.5686L13.6861 28.5161L18.1291 26.1808C18.3105 26.0847 18.5271 26.0847 18.7084 26.1808L23.1521 28.5161L22.3033 23.5686C22.2686 23.3666 22.3355 23.1603 22.4822 23.0173L26.0764 19.5138L21.1094 18.7915C20.9062 18.7623 20.731 18.6345 20.6403 18.4508L18.4188 13.9499L16.1972 18.4508C16.1066 18.6345 15.9313 18.7623 15.7281 18.7915L10.7611 19.5138Z" fill="#FF6D2A" stroke="#FF6D2A" stroke-width="0.405"/>
<path d="M21.9623 50.4598H7.3887C7.04431 50.4598 6.76562 50.1812 6.76562 49.8368V35.2632C6.76562 34.9188 7.04431 34.6401 7.3887 34.6401H21.9623C22.3067 34.6401 22.5853 34.9188 22.5853 35.2632V49.8368C22.5853 50.1812 22.3067 50.4598 21.9623 50.4598ZM8.01178 49.2137H21.3392V35.8863H8.01178V49.2137Z" fill="#213CC4" stroke="#213CC4" stroke-width="0.405"/>
<path d="M75.6129 38.3006H27.0567C26.7123 38.3006 26.4336 38.0219 26.4336 37.6775C26.4336 37.3331 26.7123 37.0544 27.0567 37.0544H75.6129C75.9573 37.0544 76.236 37.3331 76.236 37.6775C76.236 38.0219 75.9573 38.3006 75.6129 38.3006Z" fill="#213CC4" stroke="#213CC4" stroke-width="0.405"/>
<path d="M57.0325 47.202H27.0567C26.7123 47.202 26.4336 46.9233 26.4336 46.5789C26.4336 46.2345 26.7123 45.9558 27.0567 45.9558H57.0325C57.3769 45.9558 57.6556 46.2345 57.6556 46.5789C57.6556 46.9233 57.3769 47.202 57.0325 47.202Z" fill="#213CC4" stroke="#213CC4" stroke-width="0.405"/>
<path d="M12.8437 45.962C12.6843 45.962 12.5249 45.9011 12.4032 45.7794L10.4853 43.8621C10.2419 43.6187 10.2419 43.2244 10.4853 42.9811C10.7287 42.7377 11.123 42.7377 11.3663 42.9811L12.8437 44.4578L17.9805 39.3205C18.2238 39.0771 18.6181 39.0771 18.8615 39.3205C19.1049 39.5639 19.1049 39.9582 18.8615 40.2016L13.2843 45.7794C13.1626 45.9011 13.0031 45.962 12.8437 45.962Z" fill="#213CC4" stroke="#213CC4" stroke-width="0.405"/>
<path fill-rule="evenodd" clip-rule="evenodd" d="M1 4.09531C1 2.38854 2.38854 1 4.09531 1H78.9047C80.6115 1 82 2.38854 82 4.09531V63.214C82 64.9208 80.6115 66.3093 78.9047 66.3093H4.09531C2.38854 66.3093 1 64.9208 1 63.214V4.09531ZM80.7539 54.6266V4.09531C80.7539 3.0755 79.9245 2.24615 78.9047 2.24615H4.09531C3.0755 2.24615 2.24615 3.0755 2.24615 4.09531V54.6266H80.7539ZM2.24615 63.214V55.8728H80.7539V63.214C80.7539 64.2338 79.9245 65.0632 78.9047 65.0632H4.09531C3.0755 65.0632 2.24615 64.2338 2.24615 63.214Z" fill="#213CC4"/>
<path d="M41.5004 63.2395C39.9719 63.2395 38.7288 61.9964 38.7288 60.4679C38.7288 58.9395 39.9719 57.6957 41.5004 57.6957C43.0289 57.6957 44.272 58.9395 44.272 60.4679C44.272 61.9964 43.0289 63.2395 41.5004 63.2395ZM41.5004 58.9419C40.6595 58.9419 39.975 59.6264 39.975 60.4679C39.975 61.3089 40.6595 61.9934 41.5004 61.9934C42.3413 61.9934 43.0259 61.3089 43.0259 60.4679C43.0259 59.6264 42.3413 58.9419 41.5004 58.9419Z" fill="#213CC4"/>
<path d="M55.9437 82H27.0582C26.7138 82 26.4351 81.7213 26.4351 81.3769V78.3169C26.4351 76.8998 27.5882 75.7467 29.0053 75.7467H53.9965C55.4137 75.7467 56.5667 76.8998 56.5667 78.3169V81.3769C56.5667 81.7213 56.288 82 55.9437 82ZM27.6813 80.7538H55.3206V78.3169C55.3206 77.5867 54.7267 76.9929 53.9965 76.9929H29.0053C28.2751 76.9929 27.6813 77.5867 27.6813 78.3169V80.7538Z" fill="#213CC4"/>
<path d="M52.6147 76.9929H30.3884C30.1894 76.9929 30.002 76.898 29.8846 76.7367C29.7677 76.5761 29.7343 76.3686 29.7951 76.1793L33.2305 65.4958C33.3133 65.2378 33.553 65.0631 33.8238 65.0631H49.1793C49.45 65.0631 49.6898 65.2378 49.7725 65.4958L53.208 76.1793C53.2688 76.3686 53.2353 76.5761 53.1185 76.7367C53.0011 76.898 52.8137 76.9929 52.6147 76.9929ZM31.2433 75.7467H51.7598L48.7253 66.3093H34.2777L31.2433 75.7467Z" fill="#213CC4"/>
<path fill-rule="evenodd" clip-rule="evenodd" d="M1 4.09531C1 2.38854 2.38854 1 4.09531 1H78.9047C80.6115 1 82 2.38854 82 4.09531V63.214C82 64.9208 80.6115 66.3093 78.9047 66.3093H4.09531C2.38854 66.3093 1 64.9208 1 63.214V4.09531ZM80.7539 54.6266V4.09531C80.7539 3.0755 79.9245 2.24615 78.9047 2.24615H4.09531C3.0755 2.24615 2.24615 3.0755 2.24615 4.09531V54.6266H80.7539ZM2.24615 63.214V55.8728H80.7539V63.214C80.7539 64.2338 79.9245 65.0632 78.9047 65.0632H4.09531C3.0755 65.0632 2.24615 64.2338 2.24615 63.214Z" stroke="#213CC4" stroke-width="0.405"/>
<path d="M41.5004 63.2395C39.9719 63.2395 38.7288 61.9964 38.7288 60.4679C38.7288 58.9395 39.9719 57.6957 41.5004 57.6957C43.0289 57.6957 44.272 58.9395 44.272 60.4679C44.272 61.9964 43.0289 63.2395 41.5004 63.2395ZM41.5004 58.9419C40.6595 58.9419 39.975 59.6264 39.975 60.4679C39.975 61.3089 40.6595 61.9934 41.5004 61.9934C42.3413 61.9934 43.0259 61.3089 43.0259 60.4679C43.0259 59.6264 42.3413 58.9419 41.5004 58.9419Z" stroke="#213CC4" stroke-width="0.405"/>
<path d="M55.9437 82H27.0582C26.7138 82 26.4351 81.7213 26.4351 81.3769V78.3169C26.4351 76.8998 27.5882 75.7467 29.0053 75.7467H53.9965C55.4137 75.7467 56.5667 76.8998 56.5667 78.3169V81.3769C56.5667 81.7213 56.288 82 55.9437 82ZM27.6813 80.7538H55.3206V78.3169C55.3206 77.5867 54.7267 76.9929 53.9965 76.9929H29.0053C28.2751 76.9929 27.6813 77.5867 27.6813 78.3169V80.7538Z" stroke="#213CC4" stroke-width="0.405"/>
<path d="M52.6147 76.9929H30.3884C30.1894 76.9929 30.002 76.898 29.8846 76.7367C29.7677 76.5761 29.7343 76.3686 29.7951 76.1793L33.2305 65.4958C33.3133 65.2378 33.553 65.0631 33.8238 65.0631H49.1793C49.45 65.0631 49.6898 65.2378 49.7725 65.4958L53.208 76.1793C53.2688 76.3686 53.2353 76.5761 53.1185 76.7367C53.0011 76.898 52.8137 76.9929 52.6147 76.9929ZM31.2433 75.7467H51.7598L48.7253 66.3093H34.2777L31.2433 75.7467Z" stroke="#213CC4" stroke-width="0.405"/>
</svg>
