<svg style="display: none;">
    <symbol viewBox="0 0 69 70" xmlns="http://www.w3.org/2000/svg" id="service_1">
    <path d="M38.259 53.847c0-.607-.666-1.273-1.274-1.273a1.25 1.25 0 0 0-.896.36c-.26.248-.401.577-.398.922l.06 11.527c.005.581-.175 1.166-.477 1.556-.145.182-.444.49-.828.491l-.755.005a.9.9 0 0 1-.555-.2c-.463-.33-.768-1.052-.775-1.836l-.053-11.507c.002-.368-.166-.724-.503-1.01-.617-.458-1.256-.329-1.7.104a1.277 1.277 0 0 0-.367.909l.056 11.515c.012 1.483.62 2.876 1.629 3.734.063.053.129.105.2.158a3.424 3.424 0 0 0 2.044.698v-.484l.029.484.764-.005c1.08-.005 2.113-.547 2.837-1.483.663-.861 1.025-1.977 1.02-3.144l-.058-11.52zm4.072-29.187a13.807 13.807 0 0 0-8.288-2.74c-4.403 0-8.593 2.103-11.208 5.626-4.36 5.88-3.41 14.192 2.168 18.926.242.203.484.395.72.57a13.813 13.813 0 0 0 8.288 2.74c4.404 0 8.593-2.103 11.206-5.627 4.577-6.166 3.284-14.912-2.886-19.496zm.842 17.977a11.448 11.448 0 0 1-9.162 4.598 11.29 11.29 0 0 1-6.773-2.24c-.19-.14-.382-.291-.59-.467-4.556-3.866-5.333-10.658-1.768-15.464a11.448 11.448 0 0 1 9.162-4.598c2.457 0 4.799.774 6.771 2.238 5.043 3.747 6.101 10.895 2.36 15.933z"></path>
    <path d="M29.05 42.907a.56.56 0 0 1-.334-.11 8.398 8.398 0 0 1-.45-.356c-3.491-2.962-4.087-8.164-1.358-11.844a8.767 8.767 0 0 1 7.012-3.52c1.881 0 3.676.592 5.187 1.715a.562.562 0 0 1-.67.903A7.535 7.535 0 0 0 33.92 28.2a7.64 7.64 0 0 0-6.11 3.067c-2.379 3.206-1.86 7.738 1.181 10.316.13.109.262.214.39.31a.562.562 0 0 1-.33 1.013zm-.09-37.185c1.328 0 2.555 1.218 2.585 2.566.04 1.409-1.197 2.667-2.616 2.667-1.368 0-2.566-1.188-2.596-2.546-.03-1.42 1.208-2.676 2.626-2.687zm-8.997.011c1.42.04 2.506 1.187 2.496 2.626-.01 1.459-1.086 2.576-2.536 2.585-1.46.01-2.606-1.177-2.566-2.677.02-1.408 1.237-2.575 2.606-2.534zm-9.057 0c1.349.01 2.577 1.227 2.596 2.576.03 1.389-1.227 2.647-2.646 2.637-1.36 0-2.567-1.197-2.586-2.556-.03-1.41 1.228-2.688 2.636-2.657z"></path>
    <path d="M59.755 0H8.315C3.73 0 0 3.73 0 8.303v43.553c0 4.585 3.73 8.303 8.315 8.303h19.708v-2.606H8.315c-3.147 0-5.708-2.562-5.708-5.697V15.63h44.136a.994.994 0 0 0 1.011-1.011l-.045-4.282 11.248.012v4.236c0 .573.473 1.045 1.057 1.045h5.438v36.226c0 3.135-2.562 5.697-5.697 5.697H40.333v2.606h19.422a8.305 8.305 0 0 0 8.303-8.303V8.303C68.06 3.73 64.34 0 59.755 0zm5.697 14.484l-5.338.033v-4.225c0-.617-.494-1.123-1.113-1.123H47.653c-.584 0-1.068.484-1.068 1.068v4.236H2.607v-6.17c0-3.135 2.561-5.696 5.708-5.696h51.44c3.135 0 5.697 2.561 5.697 5.696v6.18z" fill="currentColor"></path>
  </symbol>
  <symbol viewBox="0 0 72 71" xmlns="http://www.w3.org/2000/svg" id="service_2">
    <path d="M35.81 0a1.46 1.46 0 0 0-1.459 1.458v22.33a1.458 1.458 0 0 0 2.916 0V1.458A1.46 1.46 0 0 0 35.81 0zm33.857 33.932h-22.33a1.46 1.46 0 0 0-1.458 1.458 1.46 1.46 0 0 0 1.458 1.458h22.329a1.46 1.46 0 0 0 .001-2.916zM35.81 44.906a1.46 1.46 0 0 0-1.458 1.458v22.33a1.46 1.46 0 0 0 1.458 1.458 1.46 1.46 0 0 0 1.458-1.458v-22.33a1.46 1.46 0 0 0-1.458-1.458zM23.788 33.932H1.458A1.46 1.46 0 0 0 0 35.39a1.46 1.46 0 0 0 1.458 1.458h22.33a1.46 1.46 0 0 0 1.458-1.458 1.46 1.46 0 0 0-1.458-1.458z"></path>
    <path d="M57.204 13.882a30.112 30.112 0 0 0-17.699-8.855v2.948c5.918.85 11.368 3.607 15.622 7.94 4.255 4.344 6.902 9.848 7.627 15.79h2.925c-.726-6.701-3.674-12.943-8.475-17.823zM8.45 39.084H5.513c1.82 13.702 12.83 24.545 26.61 26.109v-2.937C19.94 60.726 10.225 51.178 8.45 39.084zm5.918-25.65c-5.047 4.947-8.163 11.356-8.921 18.27h2.937c.748-6.131 3.54-11.804 8.017-16.192 4.333-4.232 9.815-6.878 15.722-7.616V4.959c-6.677.75-12.886 3.696-17.755 8.476zm48.307 25.65C60.91 51.01 51.442 60.47 39.505 62.188v2.948c13.544-1.764 24.309-12.506 26.107-26.05h-2.937v-.002zm-23.171-21.63v1.15c6.376 1.52 11.356 6.656 12.663 13.1h1.127c-1.328-7.07-6.8-12.698-13.79-14.25zm-20.401 21.63h-1.14c1.564 6.934 7.147 12.361 14.16 13.711v-1.139c-6.399-1.317-11.48-6.252-13.02-12.573zm-1.274-7.382h1.128c1.34-6.611 6.555-11.848 13.165-13.21v-1.139c-7.224 1.385-12.93 7.114-14.293 14.35zm34.193 7.381c-1.496 6.152-6.354 11-12.518 12.462v1.15c6.779-1.507 12.127-6.845 13.657-13.612h-1.139z" fill="currentColor"></path>
  </symbol>
  <symbol viewBox="0 0 80 71" xmlns="http://www.w3.org/2000/svg" id="service_3">
    <path d="M69.675 70.2H9.696C4.35 70.2 0 65.856 0 60.517V9.732C0 4.387 4.35.037 9.696.037h59.979c5.345 0 9.695 4.35 9.695 9.695v50.784c0 5.34-4.35 9.684-9.695 9.684zM9.696 3.09a6.65 6.65 0 0 0-6.642 6.642v50.784c0 3.656 2.98 6.63 6.642 6.63h59.979c3.662 0 6.642-2.974 6.642-6.63V9.732a6.65 6.65 0 0 0-6.642-6.643H9.696z" fill="currentColor"></path>
    <path d="M32.092 7.243c-.81.005-1.613.36-2.206.969-.588.605-.917 1.41-.899 2.212.038 1.636 1.447 3.018 3.08 3.018.813 0 1.62-.35 2.214-.962.586-.604.91-1.406.886-2.2-.036-1.617-1.472-3.037-3.075-3.037zm-8.886.008c-1.615 0-2.999 1.381-3.023 3.008a3.102 3.102 0 0 0 .869 2.266c.57.585 1.337.908 2.164.908h.022c1.708-.012 3.005-1.331 3.016-3.066.013-1.7-1.29-3.066-3.049-3.116zm-8.863.001c-.79 0-1.578.345-2.166.945-.592.605-.922 1.41-.905 2.202.024 1.616 1.459 3.033 3.066 3.033h.02c.812 0 1.62-.35 2.218-.963.585-.597.911-1.387.895-2.164-.024-1.614-1.46-3.04-3.128-3.053z"></path>
    <path d="M74.584 18.207h-4.602c-.64 0-1.16-.52-1.16-1.161V12.04l-13.25-.012.05 5.067a1.1 1.1 0 0 1-1.111 1.112H4.785v-1.222H54.4V11.98c0-.646.525-1.173 1.173-1.173h13.236c.68 0 1.234.553 1.234 1.234v5.006l4.541-.06v1.22zM59.363 49.016a2.868 2.868 0 0 0-.054-.423c-.54-2.599-2.603-4.278-5.26-4.284l-5.051-.002h-8.54v-3.805h-1.316v3.806l-8.457-.001c-1.735 0-3.47 0-5.205.004-2.246.006-4.23 1.41-4.936 3.494-.127.369-.193.76-.269 1.208l-.027.215h1.294l.027-.158c.367-2.129 1.933-3.45 4.088-3.45l3.98.001 9.537-.001v3.6h1.302v-3.526l.366-.052a.924.924 0 0 1 .166-.018l7.95-.007c1.795 0 3.593.003 5.388.01 1.764.008 3.422 1.466 3.698 3.25l.054.343h1.278l-.013-.204z" fill="currentColor"></path>
    <path d="M45.282 50.118c-3.636-.01-7.27-.01-10.888.005-2.04 0-3.174 1.138-3.194 3.2a312.163 312.163 0 0 0-.007 4.642c.01 2.703.927 3.62 3.63 3.638l8.355.017c.685 0 1.363-.003 2.043-.01 2.078-.021 3.188-1.11 3.208-3.154.028-1.939.028-3.644 0-5.209-.022-1.978-1.168-3.118-3.147-3.129zm-.01 3.09a.76.76 0 0 1 .068.002l.001.082a161.8 161.8 0 0 1 0 5.127l-.001.098a165.554 165.554 0 0 1-2.158.014l-3.992-.017-2.923.007-1.42-.007a9.757 9.757 0 0 1-.55-.016 8.876 8.876 0 0 1-.014-.544 274.24 274.24 0 0 1 .007-4.598c0-.053.001-.1.004-.142.032-.002.067-.002.108-.002 3.621-.017 7.242-.019 10.87-.004zm-19.398-3.09c-3.643-.01-7.27-.01-10.89.005-2.04 0-3.173 1.138-3.195 3.2-.016 1.465-.01 2.935-.006 4.407v.235c.009 2.703.927 3.62 3.63 3.638l8.356.017c.685 0 1.364-.003 2.043-.01 2.077-.021 3.186-1.11 3.208-3.154a167.01 167.01 0 0 0 0-5.209c-.022-1.978-1.168-3.118-3.146-3.129zm.057 8.3c0 .03 0 .064-.003.098a166.045 166.045 0 0 1-2.157.014l-3.992-.017-2.923.007-1.42-.007a9.842 9.842 0 0 1-.551-.016 8.894 8.894 0 0 1-.014-.546 289.45 289.45 0 0 1 .007-4.594c0-.054.003-.101.006-.143.03-.002.067-.002.108-.002 3.624-.017 7.243-.019 10.871-.005l.068.001.001.083c.027 1.542.027 3.217-.001 5.126zm41.331-5.17c-.023-1.979-1.17-3.12-3.147-3.13-3.635-.01-7.27-.01-10.89.005-2.04 0-3.174 1.138-3.194 3.2-.016 1.418-.01 2.842-.007 4.265l.002.377c.008 2.703.924 3.62 3.63 3.638l8.355.017c.685 0 1.363-.003 2.043-.01 2.078-.021 3.187-1.11 3.208-3.154.027-1.939.027-3.645 0-5.209zm-3.09 5.17v.098a165.552 165.552 0 0 1-2.158.014l-3.992-.017-2.924.007-1.42-.007a9.96 9.96 0 0 1-.551-.016 8.813 8.813 0 0 1-.014-.542l-.001-.373a248.283 248.283 0 0 1 .012-4.37l.11-.001a1270.848 1270.848 0 0 1 10.939-.004l.001.082c.026 1.544.026 3.219-.001 5.128zM31.478 39.523a1229.11 1229.11 0 0 0 16.772.027c2.633-.014 4.036-1.45 4.066-4.153.014-1.851.012-3.704.011-5.56l-.003-1.907c-.012-3.074-1.39-4.45-4.465-4.463-.792-.007-1.584-.008-2.375-.008l-6.48.017-4.94-.012c-.81 0-1.619.004-2.43.012-2.794.04-4.237 1.43-4.29 4.13-.047 2.6-.047 5.234 0 7.837.055 2.656 1.484 4.067 4.134 4.08zm-1.045-4.136a216.547 216.547 0 0 1 0-7.722c.018-.936.02-1.08 1.242-1.097.801-.008 1.601-.012 2.405-.012l4.93.012 6.476-.018c.78 0 1.563.003 2.354.008 1.364.006 1.39.032 1.395 1.381l.002 1.904c.001 1.845.002 3.689-.011 5.53-.01 1.086-.103 1.087-.99 1.093-5.578.028-11.15.018-16.735-.029-1.008-.008-1.047-.046-1.068-1.05z"></path>
  </symbol>
  <symbol viewBox="0 0 62 71" xmlns="http://www.w3.org/2000/svg" id="service_4">
    <path d="M34.785 70.364a5.888 5.888 0 0 1-1.781-.294c-.609-.2-1.129-.492-1.629-.782-.501.288-1.021.583-1.616.778-.822.264-1.634.352-2.356.265a3.914 3.914 0 0 1-2.183-.95c-.704-.628-1.527-1.8-1.556-3.888a13.913 13.913 0 0 1-.066-.536c-.306-3.141-.715-8.469-.994-12.408a3.008 3.008 0 0 1-.014-.356c-.18-2.522-.372-5.47-.44-7.007a6.55 6.55 0 0 1-.535-.167c-.982-.366-1.74-.918-2.268-1.642-.438-.6-.73-1.348-.866-2.22l-.153-1.037c-.194-1.301-.396-2.648-.49-4.01a22.674 22.674 0 0 1-.043-2.449c.056-1.455.174-2.917.29-4.329.084-1.02.167-2.041.227-3.066.24-4.1 4.138-4.51 6.467-4.756.316-.034.626-.065.923-.104l.712-.104c.222-.031.483-.026.708.003.541.04 1.23.366 1.469 1.008.6.905 1.938 3.091 2.691 4.337l.013.02 2.888-4.604c.288-.492.842-.735 1.32-.764.223-.028.458-.034.709.002l.694.1c.192.018.466.043.76.116h.006c.255.033.51.073.764.114l.218.048c.399.049.833.096 1.267.115 2.879.165 4.346 1.628 4.51 4.469.062 1.056.149 2.11.235 3.165.115 1.38.232 2.805.293 4.228.023.81.007 1.57-.046 2.276-.086 1.428-.3 2.861-.507 4.246l-.141.96c-.147.974-.493 1.796-1.03 2.453-.33.396-.692.7-1.116.944-.224.157-.579.334-.993.484a7.973 7.973 0 0 1-.532.163c-.067 1.539-.26 4.504-.443 7.105 0 .09-.004.178-.013.258h.004c-.278 3.91-.684 9.223-.993 12.398l-.058.517c-.034 2.126-.87 3.307-1.572 3.924a3.914 3.914 0 0 1-2.184.945 4.546 4.546 0 0 1-.55.032zm-3.401-4.233l.65.349c.224.12.442.246.656.37.42.242.815.472 1.163.586.422.133.821.184 1.17.146.28-.032.491-.12.676-.28.508-.447.622-1.298.626-1.933l.062-.626c.313-3.213.718-8.496.994-12.39l.007-.159c.28-4.015.464-7.126.464-7.836 0-.183.007-.345.026-.473l.135-.901 1.2-.31c.34-.077.673-.15.991-.262.179-.063.33-.137.45-.218.226-.134.34-.232.447-.362.213-.26.354-.621.425-1.094l.144-.966c.207-1.387.404-2.697.483-4.023.048-.633.061-1.295.041-1.991-.058-1.35-.172-2.747-.284-4.1a128.19 128.19 0 0 1-.24-3.231c-.083-1.433-.434-1.781-1.884-1.864a18.55 18.55 0 0 1-1.548-.144 2.835 2.835 0 0 1-.309-.063c-.189-.03-.365-.058-.54-.08l-.366-.063c-.132-.038-.27-.043-.409-.056l-.432-.06-3.42 5.458c-.658 1.033-2.313 1.024-2.96.01-.198-.342-.433-.73-.703-1.177l-.198-.337a215.405 215.405 0 0 0-2.447-3.956l-.388.057c-.319.04-.652.076-.99.112-2.918.308-3.904.665-3.992 2.165a145.354 145.354 0 0 1-.232 3.13c-.112 1.383-.23 2.814-.283 4.212-.027.666-.014 1.37.04 2.154.085 1.25.27 2.483.465 3.79l.153 1.035c.064.415.189.757.366.999.207.282.528.503.986.675.245.089.513.146.785.21.161.037.323.075.486.116l.897.23.13.916c.017.12.037.298.024.51.007.794.192 3.855.46 7.69l.005.198c.284 3.982.69 9.28.992 12.386.016.156.033.312.06.47l.02.23c0 .886.22 1.57.62 1.927.18.157.388.245.663.276.39.045.758-.01 1.187-.148.335-.11.708-.324 1.14-.573.224-.129.452-.26.686-.384l.65-.347zm-.393-47.035l-.151-.003c-1.57-.044-3.06-.756-3.985-1.903-.818-1.012-1.265-2.198-1.563-3.121a38.91 38.91 0 0 1-.4-1.343l-.073-.255c-.447-1.561-.848-3.593.043-5.447.963-2 3.244-3.242 5.95-3.242 1.224 0 2.427.272 3.385.768 2.367 1.222 3.04 2.725 3.188 3.773.332 2.347-.584 5.117-1.41 7.025-1.045 2.416-2.815 3.748-4.984 3.748zM30.813 6.55c-1.223 0-2.86.44-3.456 1.674-.487 1.01-.19 2.393.123 3.484l.074.26c.116.41.236.83.371 1.248.335 1.031.668 1.722 1.084 2.235.423.524 1.138.852 1.91.873l.072.001c1.025 0 1.847-.698 2.443-2.078.969-2.237 1.398-4.204 1.21-5.538-.107-.763-1.122-1.392-1.717-1.7-.573-.296-1.324-.459-2.114-.459z"></path>
    <path d="M61.985 29.96c-.061-1.441-.183-2.936-.29-4.255l-.01-.133c-.089-1.061-.167-2.02-.227-2.998-.209-3.298-3.024-3.794-6.138-4.043l-1.325-.153a1.786 1.786 0 0 0-.548 0c-.162.016-.555.084-.728.383l-3.572 5.702-.644-1.092c-1.332-2.19-2.23-3.638-2.667-4.297l-.142-.281-.202-.183c-.17-.147-.54-.238-.967-.238a1.86 1.86 0 0 0-.183.008l-.588.09c-.485.043-1.04.097-1.506.2l-.117.025c-.218.03-.426.054-.627.075l-.08.009.053 1.226.09-.009c.237-.023.486-.055.756-.09l.135-.027c.451-.099.962-.147 1.411-.187l.833-.123.267.418c.48.745 1.357 2.167 2.474 4.002l.873 1.447a.968.968 0 0 0 .824.472c.35 0 .655-.168.84-.46l3.67-5.86 1.59.167c2.832.226 4.847.566 4.994 2.896.054.868.124 1.744.192 2.592l.045.544c.112 1.38.229 2.804.286 4.227.028.592.019 1.242-.028 2.046-.09 1.35-.285 2.651-.492 4.03l-.155 1.046c-.08.594-.277 1.07-.594 1.456a2.253 2.253 0 0 1-.62.518 2.9 2.9 0 0 1-.611.297c-.328.115-.667.192-1.002.27l-.711.22-.082.291c-.045.157-.045.3-.045.437 0 .696-.166 3.585-.444 7.725a2.328 2.328 0 0 0-.017.223c-.386 5.376-.752 9.909-1 12.437l-.07.712c-.002 1.067-.312 1.926-.873 2.42a1.973 1.973 0 0 1-1.112.476c-.448.05-.961-.012-1.502-.183-.398-.125-.782-.35-1.242-.617l-.505-.288a1.026 1.026 0 0 0-.956-.002l-.482.279c-.44.255-.852.496-1.29.632-.523.17-1.053.233-1.511.176a1.861 1.861 0 0 1-1.063-.46c-.584-.515-.893-1.384-.894-2.516l-.016-.173a4.692 4.692 0 0 1-.053-.391c-.14-1.437-.285-3.109-.422-4.837l-.007-.084-1.223.092.007.086c.135 1.701.283 3.412.42 4.827.018.162.036.325.059.48l.01.11c.026 1.818.725 2.811 1.306 3.323.483.43 1.068.685 1.743.76.162.02.328.03.491.03.487 0 .986-.083 1.526-.256.553-.17 1.05-.46 1.487-.715l.389-.226.393.23c.457.265.929.54 1.463.708.7.224 1.384.305 2.008.232a3.203 3.203 0 0 0 1.784-.771c.575-.508 1.265-1.5 1.294-3.338l.06-.596c.314-3.212.718-8.498 1.003-12.37l.01-.237c.08-1.162.343-5.109.431-7.103l.024-.561.54-.15a7.06 7.06 0 0 0 .485-.146c.415-.15.692-.305.848-.409a3.48 3.48 0 0 0 .918-.78c.462-.561.75-1.256.862-2.066l.151-1.025c.202-1.349.412-2.746.506-4.143.05-.84.06-1.532.032-2.18zM20.042 18.722l-.193-.034a11.247 11.247 0 0 0-1.48-.205l-.74-.106-.016.067v-.066h-.023a2.72 2.72 0 0 0-.117-.003c-.428 0-.796.09-.974.245l-.19.234-.142.215c-.46.698-1.355 2.142-2.661 4.291l-.65 1.07-.675-1.039L9.302 18.8c-.197-.345-.59-.405-.7-.415-.261-.035-.392-.036-.556-.011l-1.331.155c-3.135.25-5.966.747-6.173 4.045-.065 1.038-.151 2.081-.226 3.003-.118 1.43-.238 2.911-.3 4.38-.029.65-.018 1.348.032 2.197.092 1.39.3 2.782.503 4.128L.7 37.287c.112.82.407 1.526.874 2.097.242.29.534.544.82.712.303.196.597.343.958.472.163.057.332.105.46.14l.542.148.025.563c.073 1.71.3 5.172.43 7.08l.012.29c.186 2.539.655 8.824 1 12.361l.054.486c.036 1.915.733 2.924 1.31 3.435.497.43 1.086.688 1.754.76.644.076 1.302 0 2.024-.228.543-.17 1.016-.448 1.472-.714l.389-.225.389.226c.504.295.962.553 1.467.71a5.12 5.12 0 0 0 1.55.26c.158 0 .315-.008.465-.027.688-.077 1.279-.33 1.759-.756.585-.517 1.287-1.512 1.311-3.322.033-.276.052-.443.07-.624.136-1.392.285-3.098.419-4.8l.007-.086-1.138-.087-.086-.005-.007.084c-.132 1.681-.28 3.376-.415 4.77-.02.193-.039.367-.068.547l-.01.164c.002 1.063-.317 1.929-.896 2.442-.29.257-.654.41-1.084.457-.457.046-.977-.016-1.51-.187-.418-.13-.83-.372-1.269-.628l-.486-.278c-.27-.15-.662-.15-.947.003-.146.081-.289.166-.43.248l-.049.028c-.417.244-.846.497-1.269.632-.562.177-1.068.238-1.52.18a1.909 1.909 0 0 1-1.083-.466c-.572-.505-.88-1.37-.888-2.515l-.065-.612c-.312-3.194-.718-8.52-.995-12.242l-.001-.095a2.235 2.235 0 0 0-.009-.218c-.285-4.197-.456-7.13-.456-7.843 0-.139 0-.282-.044-.434l-.088-.307-.3-.104a2.82 2.82 0 0 0-.198-.057l-.133-.03a10.18 10.18 0 0 1-1.062-.282 3.348 3.348 0 0 1-.711-.352 2.052 2.052 0 0 1-.525-.454c-.325-.396-.523-.882-.607-1.486l-.15-1.02c-.198-1.318-.404-2.68-.493-4.021a20.386 20.386 0 0 1-.03-2.071c.06-1.429.18-2.883.293-4.292.09-1.114.169-2.076.231-3.064.146-2.329 2.17-2.67 5.019-2.898l1.567-.166 3.672 5.86c.176.282.496.454.86.46a.95.95 0 0 0 .801-.471l.87-1.442a242.647 242.647 0 0 1 2.476-4.009l.267-.417.948.133c.39.032.861.079 1.386.192l.188.032c.197.025.405.05.616.07l.09.01.052-1.228-.08-.008a10.65 10.65 0 0 1-.453-.046zM7.36 9.195c.132.466.253.887.391 1.313.279.859.692 1.962 1.43 2.875.786.974 2.06 1.578 3.408 1.617h.135c2.357-.003 3.623-1.786 4.27-3.281 1.145-2.645 1.6-4.87 1.354-6.612-.123-.866-.704-2.125-2.778-3.195-.851-.44-1.928-.682-3.03-.682-2.41 0-4.423 1.075-5.256 2.805-.78 1.62-.407 3.47.003 4.9l.072.26zm5.18-6.737c.91 0 1.787.193 2.467.544.889.46 1.98 1.228 2.127 2.279.268 1.886-.54 4.279-1.265 5.953-.909 2.101-2.215 2.541-3.148 2.541-1.071-.029-2.012-.452-2.587-1.162-.475-.59-.85-1.354-1.216-2.483a31.81 31.81 0 0 1-.379-1.275l-.074-.258c-.35-1.22-.676-2.783-.076-4.03.75-1.555 2.635-2.11 4.15-2.11zm31.215 6.293c.126.443.236.824.36 1.207.279.858.692 1.961 1.428 2.872.786.974 2.06 1.578 3.41 1.617l.134.001c2.36-.004 3.625-1.787 4.27-3.282 1.146-2.644 1.601-4.868 1.356-6.614-.125-.866-.706-2.124-2.779-3.194-.851-.44-1.929-.682-3.031-.682-2.409 0-4.422 1.074-5.254 2.804-.781 1.623-.41 3.471.002 4.901l.104.37zm5.148-6.846c.91 0 1.787.193 2.469.544.887.458 1.975 1.224 2.127 2.275.266 1.887-.541 4.28-1.267 5.956-.91 2.1-2.215 2.541-3.148 2.541-1.072-.028-2.014-.452-2.586-1.162-.476-.587-.851-1.353-1.218-2.48a32.542 32.542 0 0 1-.343-1.15l-.109-.383c-.35-1.224-.676-2.786-.077-4.032.75-1.556 2.637-2.11 4.152-2.11z" fill="currentColor"></path>
  </symbol>
  <symbol viewBox="0 0 81 70" xmlns="http://www.w3.org/2000/svg" id="service_5">
    <path d="M40.187 57.05c-1.604-.06-2.846-1.388-2.826-3.022.02-1.613 1.32-2.944 2.903-2.953 1.634 0 2.924 1.379 2.885 3.1-.037 1.603-1.418 2.934-2.962 2.875z" fill="currentColor"></path>
    <path d="M73.28 0H7.72C3.462 0 0 3.464 0 7.72v46.67c0 4.257 3.464 7.72 7.72 7.72h65.56c4.258 0 7.72-3.464 7.72-7.72V7.72C81 3.461 77.538 0 73.28 0zm4.573 54.39a4.58 4.58 0 0 1-4.572 4.572H7.719a4.58 4.58 0 0 1-4.571-4.572v-6.108H77.85v6.108h.002zm0-9.257H3.148V7.72a4.58 4.58 0 0 1 4.571-4.571h65.562a4.58 4.58 0 0 1 4.572 4.571v37.414zM54.04 66.573H26.961v3.149h27.08v-3.15z" fill="currentColor"></path>
    <path d="M71.674 17.4a6.094 6.094 0 0 0-8.61.582 6.055 6.055 0 0 0-1.472 4.643l-8.02 4.015c-1.65-2.587-5.023-3.593-7.827-2.183a6.013 6.013 0 0 0-2.467 2.271l-6.161-5.37c1.76-2.512 1.41-6.025-.964-8.082a6.077 6.077 0 0 0-7.044-.69 6.207 6.207 0 0 0-1.553 1.276 6.104 6.104 0 0 0-1.285 5.65l-7.132 4.592c-1.927-2.407-5.379-3.043-8.01-1.328a6.059 6.059 0 0 0-2.642 6.566c.172.662.44 1.285.795 1.853 1.834 2.836 5.604 3.657 8.436 1.837 2.192-1.406 3.236-4.056 2.63-6.583a6.057 6.057 0 0 0-.5-1.283l6.908-4.446a5.71 5.71 0 0 0 1.382 1.755 6.097 6.097 0 0 0 7.044.69c.406-.225.766-.521 1.103-.836l6.437 5.608c-.32.87-.42 1.815-.298 2.78a5.79 5.79 0 0 0 .585 1.927c1.515 3.004 5.182 4.237 8.187 2.721a6.078 6.078 0 0 0 3.317-6.243 6.643 6.643 0 0 0-.352-1.34l7.705-3.86a5.982 5.982 0 0 0 1.78 2.675 6.097 6.097 0 0 0 7.043.69c.406-.227.767-.521 1.117-.834l.048.055c.187-.391.52-.692.895-.91l-.125-.116c1.76-2.529 1.423-6.026-.95-8.083zM15.986 30.337c-.654.411-1.433.572-2.184.395a2.885 2.885 0 0 1-1.83-1.255 3.196 3.196 0 0 1-.377-.885 2.91 2.91 0 0 1 3.451-3.533c.74.158 1.389.61 1.814 1.266.848 1.328.436 3.176-.874 4.012zm18.356-10.556c-1.044 1.19-2.93 1.308-4.11.281a2.768 2.768 0 0 1-.765-1.087 2.716 2.716 0 0 1-.21-.893 2.84 2.84 0 0 1 .018-.503 2.816 2.816 0 0 1 .673-1.613c.217-.25.47-.45.757-.613a2.905 2.905 0 0 1 3.354.331c.579.496.931 1.212.986 1.998a2.84 2.84 0 0 1-.703 2.099zM49.766 32.51c-.698.342-1.487.411-2.207.153a2.949 2.949 0 0 1-1.699-1.451 2.07 2.07 0 0 1-.218-.717l-.011-.018c-.016-.063-.036-.111-.038-.171a2.795 2.795 0 0 1 .153-1.411 2.858 2.858 0 0 1 1.41-1.575 2.87 2.87 0 0 1 2.238-.16 2.905 2.905 0 0 1 1.668 1.459c.709 1.417.09 3.19-1.296 3.89zm20.083-8.608c-1.044 1.191-2.928 1.294-4.11.281a2.879 2.879 0 0 1-.939-1.735c-.024-.095-.023-.169-.033-.26a2.84 2.84 0 0 1 .028-.619c.073-.55.303-1.066.677-1.492.214-.238.466-.437.74-.602a2.88 2.88 0 0 1 3.353.33c.592.5.946 1.216.986 1.999a2.838 2.838 0 0 1-.702 2.098z"></path>
  </symbol>
  <symbol viewBox="0 0 71 71" xmlns="http://www.w3.org/2000/svg" id="service_6">
    <path d="M65.589 28.533c-2.842-.593-5.125-4.621-5.203-7.699-.023-.984.168-1.834.57-2.473 1.376-2.26 2.362-4.956-.716-7.9-1.466-1.41-2.987-2.864-5.08-2.864-1.196 0-2.36.482-3.58 1.489-.358.29-.984.459-1.544.604a6.42 6.42 0 0 0-.583.156c-3.099-.156-7.597-3.02-8.044-4.766C40.783 2.574 39.64 0 35.815 0c-.134 0-.268.01-.336.01h-.649c-4.206-.178-5.415 2.63-6.02 5.07-.414 1.711-4.979 4.61-8.044 4.766a7.508 7.508 0 0 0-.583-.156c-.56-.146-1.196-.314-1.567-.627-1.196-.984-2.36-1.466-3.557-1.466-2.037 0-3.536 1.41-4.98 2.776l-.156.134c-3.01 2.931-2.025 5.617-.649 7.877.806 1.287.728 3.525-.201 5.706-.996 2.35-2.741 4.084-4.454 4.441C.795 29.338.146 31.665 0 33.701L.01 36.6c.124 1.801.75 4.274 4.61 5.013 1.712.358 3.413 2.036 4.432 4.386.961 2.215 1.074 4.509.28 5.806-1.355 2.104-2.507 4.89.681 7.91 1.454 1.41 2.976 2.865 5.035 2.865 1.196 0 2.372-.492 3.558-1.489.38-.302 1.085-.481 1.655-.638.18-.045.347-.088.493-.134 3.255.124 7.675 3.167 8.056 4.744.582 2.372 1.757 5.08 5.628 5.08.123 0 .257 0 .335-.01h.593c.169.01.336.01.482.01h.01c3.816-.045 4.969-2.74 5.55-5.08.033-.156.246-.75 1.253-1.655 1.119-1.018 2.652-1.913 4.129-2.462-.705-.705-1.41-1.41-2.127-2.138-1.51.705-2.886 1.612-3.883 2.529-1.14 1.03-1.846 2.059-2.092 3.055-.56 2.271-1.196 2.932-2.853 2.954-.101 0-.212 0-.392-.01h-.738c-1.88.1-2.585-.537-3.178-2.932-.828-3.412-7.082-6.881-10.976-6.881h-.224l-.224.078c-.157.045-.347.1-.548.146-.783.212-1.847.492-2.72 1.175-.682.583-1.287.861-1.79.861-.939 0-1.935-.961-3.098-2.081l-.079-.078c-1.42-1.355-1.466-2.317-.167-4.341 1.31-2.148 1.275-5.292-.089-8.403-1.398-3.212-3.793-5.46-6.445-6.008-2.07-.392-2.283-1.231-2.372-2.372v-2.697c.09-1.275.291-2.092 2.395-2.529 2.662-.56 5.069-2.83 6.456-6.086 1.32-3.088 1.31-6.187 0-8.28-1.264-2.08-1.219-2.987.213-4.375l.134-.123c1.152-1.085 2.137-2.014 3.066-2.014.514 0 1.107.28 1.768.817.84.717 1.89.985 2.652 1.186.224.056.425.101.593.168l.235.078h.257c3.894-.023 10.137-3.502 10.954-6.892.57-2.294 1.23-2.954 2.92-2.954.089 0 .179 0 .335.01h.762c1.868-.089 2.55.503 3.166 2.955.873 3.39 7.106 6.858 10.954 6.88h.247l.246-.077c.157-.068.359-.112.583-.168.761-.201 1.812-.47 2.64-1.163.671-.56 1.276-.84 1.79-.84.973 0 2.025 1.019 3.189 2.127 1.443 1.387 1.488 2.283.224 4.375-.682 1.085-1.018 2.473-.984 4.005.11 4.285 3.121 9.477 7.428 10.373 2.105.436 2.317 1.253 2.395 2.427v2.708c-.01.19-.033.358-.068.57-.134.783-.413 1.533-2.326 1.89-2.64.56-5.047 2.81-6.435 6.042a3.499 3.499 0 0 0-.123.303c.727.739 1.466 1.466 2.216 2.215a8.7 8.7 0 0 1 .481-1.41c1.007-2.361 2.708-4.05 4.408-4.408 2.652-.504 4.14-1.87 4.532-4.129a7.13 7.13 0 0 0 .112-.984v-2.897c-.133-1.937-.783-4.264-4.621-5.07z" fill="currentColor"></path>
    <path d="M52.689 27.413c-3.111-6.904-9.992-11.4-17.555-11.469-10.081.079-18.35 7.721-19.256 17.813v2.74c.604 6.614 4.498 12.41 10.416 15.509a19.31 19.31 0 0 0 8.84 2.193h.01a18.9 18.9 0 0 0 4.376-.538c-.314-.302-.627-.626-.94-.939a17.627 17.627 0 0 1-3.446.358 18.168 18.168 0 0 1-8.325-2.07c-5.583-2.92-9.253-8.38-9.813-14.567v-2.641a18.312 18.312 0 0 1 18.138-16.74c7.116.057 13.605 4.308 16.537 10.809a18.236 18.236 0 0 1 1.544 5.885l.011 2.64a17.483 17.483 0 0 1-.548 3.055l.896.895c.38-1.253.638-2.561.76-3.905V33.7a19.45 19.45 0 0 0-1.645-6.287z" fill="currentColor"></path>
    <path d="M62.772 53.376a8937.01 8937.01 0 0 0-13.12-13.089c.058-.34.176-.88.327-1.435l.057-.88c.03-1.077.062-2.19-.155-3.36-.55-2.833-1.89-5.325-3.88-7.209-1.972-1.853-4.538-3.047-7.416-3.45a10.85 10.85 0 0 0-1.665-.12h-.002l-.567-.01c-1.419 0-2.63.057-4.216.783l-2.22 1.028 1.499 1.958c.263.326.546.518.734.62l1.4 1.394c1.715 1.708 3.198 3.183 4.577 4.562.355.361.352.646-.012 1.016l-.934.944c-.8.801-1.905 1.91-2.508 2.496a.632.632 0 0 1-.868-.006c-.175-.165-.34-.33-.516-.506l-7.85-7.86-1.194 2.52c-1.015 2.197-.614 5.214-.285 6.819 1.298 6.263 6.64 10.638 12.995 10.638.262 0 .523-.006.82-.024l.217.153.531-.105c.76-.13 1.13-.136 1.356-.145l.824.827c4.206 4.214 8.117 8.134 11.917 11.933 2.19 2.19 4.311 4.311 6.391 6.382l.52.516 1.828-1.732-.553-.547a1032.22 1032.22 0 0 1-3.944-3.93L41.426 48.11c-.455-.455-1.076-.513-1.567-.513-.113 0-.23.004-.35.01l-.063-.063v.066a12.2 12.2 0 0 0-1.048.121 1.873 1.873 0 0 0-.439-.044l-.166.003c-5.517.41-10.266-3.25-11.374-8.601-.221-1.1-.494-2.985-.16-4.456l5.248 5.247c.196.197.382.382.578.567 1.205 1.143 3.14 1.134 4.33-.017.602-.588 1.68-1.667 2.485-2.474l.998-1.009c.662-.66 1.012-1.447 1.014-2.272.001-.827-.345-1.61-1.002-2.268a944.841 944.841 0 0 0-5.865-5.837c.738-.213 1.413-.233 2.293-.233l.586.01c.44 0 .89.032 1.302.093 2.36.33 4.456 1.298 6.06 2.797 1.6 1.506 2.678 3.53 3.122 5.855.174.892.145 1.866.116 2.815l-.008.45c-.606 2.268-.497 2.846-.001 3.343a12875.16 12875.16 0 0 1 17.903 17.875l2.33 2.33 1.81-1.736-6.786-6.792z"></path>
  </symbol>
  <symbol viewBox="0 0 62 71" xmlns="http://www.w3.org/2000/svg" id="service_7">
    <path d="M31.544 50.945h-.143c-1.385-.008-2.235-.37-2.599-1.108-.13-.265-.367-.965.237-1.76l1.925-2.57c.228-.294.359-.477.41-.615a17.487 17.487 0 0 1-4.91-12.182c0-9.69 7.883-17.575 17.574-17.575 9.685 0 17.562 7.883 17.562 17.575 0 9.683-7.877 17.562-17.562 17.562a17.38 17.38 0 0 1-5.551-.903.564.564 0 0 0-.16.056c-.703.33-1.328.577-1.99.799-.232.072-.445.128-.66.183l-.297.08c-1.118.305-2.408.458-3.836.458zM44.04 17.616c-8.322 0-15.094 6.772-15.094 15.095 0 4.016 1.569 7.804 4.417 10.666l.15.15.093.192c.285.601.332 1.266.135 1.922-.194.56-.485.959-.793 1.355l-1.089 1.466c1.08-.02 2.044-.144 2.866-.369l.334-.088c.17-.044.343-.087.515-.141a15.53 15.53 0 0 0 1.63-.648c.306-.173.744-.298 1.26-.343l.386-.005.201.071a14.9 14.9 0 0 0 4.99.853c8.316 0 15.083-6.765 15.083-15.082-.002-8.322-6.768-15.094-15.084-15.094z"></path>
    <path d="M44.094 24.269v-2.7h1.695v2.571c.67.114 1.316.178 1.935.342.507.136.986.384 1.47.6.061.028.131.174.11.233-.206.55-.432 1.094-.661 1.665a5.981 5.981 0 0 0-2.11-.778c-.888-.146-1.779-.217-2.652.083-.879.303-1.466.898-1.615 1.827-.147.919.134 1.729.937 2.236a15.3 15.3 0 0 0 2.122 1.09c.945.408 1.884.816 2.727 1.418 1.517 1.081 2.156 2.565 1.903 4.389-.242 1.751-1.286 2.928-2.89 3.61-.453.191-.938.303-1.443.461v2.775h-1.809v-2.679c-.627-.09-1.23-.152-1.824-.27a6.898 6.898 0 0 1-2.174-.828c-.163-.096-.196-.187-.128-.364.191-.505.362-1.018.552-1.558l.414.225c1.171.625 2.417.984 3.748.931a4.454 4.454 0 0 0 1.468-.303c2.008-.81 2.308-3.28.587-4.65-.693-.552-1.498-.895-2.311-1.224-1.017-.412-1.99-.895-2.85-1.599-2.018-1.65-1.806-4.815.206-6.379a5.656 5.656 0 0 1 2.23-1.038c.11-.024.221-.052.363-.086z"></path>
    <path d="M22.473 58.519a3.678 3.678 0 0 0-3.673 3.673 3.742 3.742 0 0 0 3.673 3.725c2.005 0 3.699-1.717 3.699-3.751.001-2.011-1.659-3.647-3.699-3.647z" fill="currentColor"></path>
    <path d="M44.944 8.481c0-.545.012-1.008.023-1.449.035-1.842-.625-3.603-1.9-4.9C41.748.774 39.858 0 37.889 0c-3.419.011-6.847.011-10.277.011L6.997 0C2.838 0 .034 2.792.034 6.94v47.182c0 2.908 0 5.91-.034 8.899v.07c0 1.97.684 3.696 1.97 4.982 1.297 1.32 3.175 2.074 5.132 2.074h.082c9.49-.081 19.142-.057 28.468-.034h2.318c1.9 0 3.73-.754 5.04-2.063 1.263-1.275 1.959-3.001 1.959-4.855v-.057a1267.14 1267.14 0 0 1-.035-9.988 19.054 19.054 0 0 1-2.538-.047c0 .741 0 1.472.012 2.167H2.571V11.598H42.43v.707a18.7 18.7 0 0 1 1.61-.07c.314 0 .614.011.927.023v-.846l-.011-1.61c-.012-.44-.012-.88-.012-1.32zm-2.537 47.947c0 2.456.011 4.657.023 6.732v.045c0 1.194-.418 2.248-1.229 3.059-.834.845-2.004 1.309-3.279 1.309H35.2c-9.188-.023-18.69-.046-28.04.034h-.058c-1.286 0-2.503-.475-3.337-1.32-.8-.811-1.229-1.913-1.229-3.199v-.046c.023-2.212.023-4.425.023-6.615h39.849zm.023-49.476c-.012.463-.023.938-.023 1.506 0 .464.011.916.011 1.368l.012.613H2.57V6.94c0-2.71 1.693-4.402 4.427-4.402l20.612.011c3.43 0 6.86 0 10.335-.011 1.263 0 2.468.497 3.315 1.367.533.545 1.17 1.506 1.17 2.931v.116z" fill="currentColor"></path>
  </symbol>
  <symbol viewBox="0 0 72 71" xmlns="http://www.w3.org/2000/svg" id="service_8">
    <path d="M36.244 70.3h-.917c-3.9 0-7.799-1.605-10.78-4.473l-.46-.458c-2.866-2.867-4.816-5.734-6.307-8.946-3.21-7.11-4.816-14.335-4.816-21.445v-3.211c.344-4.129 1.605-7.684 3.555-10.665 2.179-3.212 5.16-5.62 8.83-7.11 3.097-1.262 6.652-1.95 10.322-1.95 3.784 0 7.225.688 10.321 1.95 7.225 2.866 11.583 9.174 12.386 17.775.114.803 0 1.49 0 2.179v1.147c0 .802-.688 1.376-1.491 1.376-.803 0-1.491-.688-1.491-1.376v-2.982c-.688-7.454-4.473-12.844-10.666-15.367-2.752-1.147-5.963-1.72-9.289-1.72-3.326 0-6.422.687-9.289 1.72a16.656 16.656 0 0 0-7.454 5.963c-1.72 2.638-2.753 5.734-3.097 9.404v2.982c0 6.766 1.606 13.532 4.588 20.298 1.261 2.753 3.096 5.39 5.734 8.028l.688.344c2.408 2.408 5.504 3.67 8.716 3.67h1.032c3.21 0 6.307-1.262 8.716-3.67a1.453 1.453 0 0 1 2.064 0 1.454 1.454 0 0 1 0 2.064c-3.097 2.868-6.996 4.473-10.895 4.473z"></path>
    <path d="M20.418 36.354c1.835.344 2.179.344 4.014.344h.344c6.88 0 13.762-2.064 19.381-5.734l.803-.459.459.803c.688 1.262 1.835 2.409 3.096 2.982.688.344 1.606.688 2.408.688.688 0 .688-.23.688-.459 0-.344-.229-.573-.573-.573-.803-.115-1.49-.23-2.294-.688-1.49-.803-2.523-2.065-2.867-3.785l-.229-.802-.688.344c-5.734 4.243-12.845 6.536-20.184 6.536h-.688c-1.376 0-1.835 0-3.44-.344h-.23c-.23 0-.459.23-.459.46 0 .343.115.687.459.687z"></path>
    <path d="M71.222 29.588l-.115-.803c-.114-.917-.344-2.064-.917-2.867l-.23-.344-.343-.115c-.23-.114-.803-.229-1.033-.344h-.229c-.23 0-.344-.114-.573-.114-.23-.574-1.376-3.67-1.376-3.785-3.441-8.601-9.29-14.909-17.432-18.578C45.074.918 40.946 0 36.703 0h-2.064c-4.244 0-8.258.917-12.271 2.638C14.455 6.193 8.606 12.5 5.05 21.102l-.344.917c-.344.917-.803 2.408-1.033 2.752-.114 0-.344.115-.573.23h-.23c-.458.114-.802.229-1.031.344l-.344.114-.115.46c-.574.802-.803 1.949-.918 2.866 0 .344-.114.688-.114.918-.344 1.72-.459 3.44-.23 5.046.115 2.293.46 4.243 1.147 6.078l.115.23c.459 1.49 1.376 4.128 3.44 4.128.344 0 .803-.115 1.376-.115l3.67-.573c.803-.115 1.376-.803 1.262-1.606-.115-.803-.803-1.376-1.606-1.261l-3.67.573c-.344 0-.573.115-.917.115-.23-.23-.459-.803-.917-2.18l-.115-.229c-.574-1.605-.918-3.44-1.032-5.275-.115-1.376 0-2.867.23-4.358 0-.344.114-.688.114-1.032 0-.344.114-.918.23-1.376.114 0 .228 0 .228-.115h.23c1.032-.23 2.064-.573 2.523-1.835.688-1.95 1.147-2.982 1.376-3.784 3.096-7.913 8.486-13.648 15.94-16.973a26.995 26.995 0 0 1 11.125-2.409h2.064c3.785 0 7.454.803 11.124 2.409 7.455 3.325 12.73 9.06 15.941 16.973l1.376 3.784c.459 1.376 1.491 1.606 2.409 1.835h.229c.115 0 .115 0 .23.115.114.344.229 1.032.343 1.376l.115.803c.344 1.49.344 2.867.23 4.358-.115 1.95-.46 3.784-1.033 5.504l-.114.344c-.344 1.032-.688 1.72-.918 2.065-.23 0-.573-.115-.917-.115l-5.276-.574c-1.146-.114-2.179.115-3.21.574-1.262.688-2.18 1.72-2.638 2.982-.574 1.376-1.147 2.637-1.835 3.899-.574 1.147-1.147 2.293-2.18 3.21-.802.689-1.834.918-3.096.918h-.23v-.573c0-2.638-2.063-4.702-4.701-4.702h-7.569c-2.638 0-4.702 2.064-4.702 4.702v3.555c0 2.638 2.064 4.702 4.702 4.702h7.569c2.638 0 4.702-2.064 4.702-4.702v-.115c1.606-.114 3.67-.344 5.16-1.605 1.148-.918 1.95-2.064 2.524-3.326.688-1.49 1.49-2.752 2.064-4.358.23-.573.344-1.032.803-1.49.573-.689 1.49-1.033 2.408-.918l5.275.573c.46 0 .918.115 1.262.115h.115c1.95 0 2.867-2.523 3.325-4.014l.115-.344c.688-1.95 1.032-4.014 1.261-6.193-.114-1.49-.229-3.21-.573-4.931zm-26.95 26.606a1.811 1.811 0 0 1-1.835 1.835h-7.57a1.811 1.811 0 0 1-1.834-1.835V52.64c0-1.032.803-1.835 1.835-1.835h7.569c1.032 0 1.835.803 1.835 1.835v3.555z" fill="currentColor"></path>
  </symbol>
  <symbol viewBox="0 0 77 70" xmlns="http://www.w3.org/2000/svg" id="service_9">
    <path d="M48.187 56.779a23.42 23.42 0 0 1-3.664-.963c.13.392.298.749.511 1.082.928 1.487.785 2.022-.118 2.878l-.071.07c-.798.761-1.547 1.488-2.118 1.488-.297 0-.7-.203-1.19-.607-.7-.56-1.557-.784-2.223-.951a3.04 3.04 0 0 1-.357-.108l-.167-.06-.297-.01c-2.45 0-5.4 1.522-7.053 3.02-.928.833-1.511 1.69-1.712 2.521-.417 1.7-.833 1.987-1.832 1.998h-.903c-1.142.06-1.63-.167-2.07-1.987-.689-2.807-5.602-5.554-8.777-5.554h-.227l-.226.07c-.084.036-.19.06-.286.084l-.12.036c-.63.154-1.486.38-2.223.963-.57.487-.939.583-1.154.583-.57 0-1.32-.725-2.129-1.498l-.06-.06c-.891-.856-1.034-1.392-.059-2.89 1.058-1.75 1.036-4.294-.048-6.791-1.13-2.57-3.069-4.365-5.221-4.817-1.428-.273-1.475-.784-1.523-1.463v-2.058c.048-.808.084-1.308 1.558-1.605 2.153-.452 4.103-2.283 5.21-4.89 1.057-2.485 1.046-4.983-.025-6.684-.94-1.534-.809-2.034.095-2.915l.108-.094c.784-.75 1.533-1.452 2.117-1.452.202 0 .57.095 1.117.547.714.595 1.558.82 2.26.998.13.036.239.06.333.095l.25.095h.262c3.175-.024 8.088-2.783 8.753-5.566.428-1.712.845-1.998 1.891-1.998h.868c1.166-.048 1.606.154 2.058 2.01.024.095.06.202.095.297a27.582 27.582 0 0 1 1.831-3.188c-.678-1.117-1.796-1.987-3.794-1.987-.107 0-.214 0-.262.012h-.476c-3.509-.167-4.532 2.32-4.983 4.162-.262 1.058-3.45 3.235-5.793 3.378-.119-.036-.262-.071-.405-.108-.392-.095-.832-.214-1.058-.405-.987-.809-1.963-1.2-2.95-1.2-1.712 0-2.914 1.13-4.08 2.211l-.119.12c-2.51 2.438-1.617 4.745-.56 6.494.56.88.488 2.51-.178 4.056-.713 1.69-1.962 2.95-3.163 3.2-3.176.665-3.711 2.64-3.83 4.318l.011 2.247c.06.868.25 3.497 3.819 4.175 1.2.25 2.414 1.463 3.152 3.164.69 1.57.785 3.235.25 4.116-1.036 1.593-2.094 4.008.559 6.53 1.177 1.13 2.39 2.307 4.115 2.307 1.011 0 1.974-.405 2.962-1.225.238-.19.761-.322 1.141-.428.12-.024.227-.06.333-.083 2.462.118 5.555 2.402 5.792 3.366C22.574 67.62 23.538 70 26.81 70c.095 0 .214-.011.25-.011h.44c.13.011.262.011.392.011h.012c1.606-.024 2.652-.63 3.342-1.439.69-.82 1.047-1.855 1.26-2.736.012-.048.12-.44.845-1.095 1.32-1.2 3.485-2.188 4.948-2.271.095.024.214.06.321.083.393.108.917.238 1.118.405.998.833 1.974 1.25 2.985 1.25 1.725 0 2.926-1.166 4.103-2.297l.06-.059c1.932-1.815 1.861-3.6 1.302-5.062z"></path>
    <path d="M37.352 51.95a13.824 13.824 0 0 1-6.601 3.962 13.459 13.459 0 0 1-3.402.452 13.742 13.742 0 0 1-6.317-1.57c-4.234-2.213-7.017-6.34-7.445-11.026v-2.01a13.87 13.87 0 0 1 13.75-12.69h.071c.048-.406.095-.81.155-1.214-.071-.012-.155-.012-.227-.012-7.826.071-14.261 6.02-14.962 13.857v2.128c.464 5.138 3.496 9.646 8.099 12.05a15.003 15.003 0 0 0 6.875 1.712 14.841 14.841 0 0 0 3.723-.511 14.975 14.975 0 0 0 7.255-4.4 15.2 15.2 0 0 1-.974-.727z"></path>
    <path d="M72.759 14.144a4.436 4.436 0 0 1-.781 2.494 24.35 24.35 0 0 0-6.721-5.85 4.53 4.53 0 0 1 3.006-1.122c2.49.01 4.502 2.014 4.496 4.478zm-39.936 0c.005.924.293 1.783.781 2.494a24.35 24.35 0 0 1 6.721-5.85 4.53 4.53 0 0 0-3.007-1.122c-2.489.01-4.502 2.014-4.495 4.478z" fill="currentColor"></path>
    <path d="M75.85 27.59c-1.907-9.879-8.952-16.93-18.847-18.859a7.25 7.25 0 0 1-.724-.175l.001-.132 1.096.005c.46 0 .838-.005 1.191-.016 2.367-.077 2.818-1.814 2.903-2.557a16.67 16.67 0 0 0 .022-3.422C61.359 1 60.33.032 58.929.024a663.115 663.115 0 0 0-11.93.005c-1.6.013-2.762 1.19-2.826 2.863a39.045 39.045 0 0 0-.012 1.764l.003.294c.014 2.247 1.222 3.448 3.493 3.471.38.004.764.005 1.146.005l1.247-.002.001.07c-.119.03-.302.069-.586.112a8.28 8.28 0 0 0-.583.114c-.114.026-.227.05-.337.072-5.926 1.082-11.327 4.653-14.82 9.798-3.53 5.205-4.815 11.36-3.618 17.329 2.237 11.142 11.63 18.924 22.845 18.924 1.651 0 3.32-.174 4.962-.514 12.04-2.487 20.254-14.733 17.937-26.739zM52.839 7.352l-.184-1.792h-1.802l-2.051.005c-.373 0-.747-.002-1.119-.005-.656-.008-.656-.008-.66-.63l-.002-.297a37.03 37.03 0 0 1 .01-1.636c.003-.05.008-.087.01-.108a694.62 694.62 0 0 1 11.616-.006 13.588 13.588 0 0 1-.03 2.658 2.253 2.253 0 0 1-.154.011c-.325.011-.67.015-1.095.015l-3.724-.01-.166 1.806c-.232 2.443.143 3.626 2.967 4.176 8.71 1.699 14.909 7.902 16.585 16.593 2.027 10.504-5.166 21.218-15.708 23.396a21.51 21.51 0 0 1-4.38.454c-9.834 0-18.075-6.836-20.04-16.625-1.043-5.212.087-10.594 3.182-15.159 3.064-4.514 7.79-7.645 12.967-8.59.156-.028.314-.064.476-.1.118-.027.23-.052.353-.071 2.812-.435 3.192-1.663 2.949-4.085z" fill="currentColor"></path>
    <path d="M63.481 26.27a1.539 1.539 0 0 0-2.072-.672l-6.516 3.324a3.345 3.345 0 0 0-1.959-.64 3.366 3.366 0 1 0 3.365 3.378l6.51-3.32a1.536 1.536 0 0 0 .672-2.07z"></path>
  </symbol>
</svg>