<svg style="display: none;">
  <symbol viewBox="0 0 69 70" xmlns="http://www.w3.org/2000/svg" id="service_1">
    <path  d="M38.259 53.847c0-.607-.666-1.273-1.274-1.273a1.25 1.25 0 0 0-.896.36c-.26.248-.401.577-.398.922l.06 11.527c.005.581-.175 1.166-.477 1.556-.145.182-.444.49-.828.491l-.755.005a.9.9 0 0 1-.555-.2c-.463-.33-.768-1.052-.775-1.836l-.053-11.507c.002-.368-.166-.724-.503-1.01-.617-.458-1.256-.329-1.7.104a1.277 1.277 0 0 0-.367.909l.056 11.515c.012 1.483.62 2.876 1.629 3.734.063.053.129.105.2.158a3.424 3.424 0 0 0 2.044.698v-.484l.029.484.764-.005c1.08-.005 2.113-.547 2.837-1.483.663-.861 1.025-1.977 1.02-3.144l-.058-11.52zm4.072-29.187a13.807 13.807 0 0 0-8.288-2.74c-4.403 0-8.593 2.103-11.208 5.626-4.36 5.88-3.41 14.192 2.168 18.926.242.203.484.395.72.57a13.813 13.813 0 0 0 8.288 2.74c4.404 0 8.593-2.103 11.206-5.627 4.577-6.166 3.284-14.912-2.886-19.496zm.842 17.977a11.448 11.448 0 0 1-9.162 4.598 11.29 11.29 0 0 1-6.773-2.24c-.19-.14-.382-.291-.59-.467-4.556-3.866-5.333-10.658-1.768-15.464a11.448 11.448 0 0 1 9.162-4.598c2.457 0 4.799.774 6.771 2.238 5.043 3.747 6.101 10.895 2.36 15.933z"></path>
    <path  d="M29.05 42.907a.56.56 0 0 1-.334-.11 8.398 8.398 0 0 1-.45-.356c-3.491-2.962-4.087-8.164-1.358-11.844a8.767 8.767 0 0 1 7.012-3.52c1.881 0 3.676.592 5.187 1.715a.562.562 0 0 1-.67.903A7.535 7.535 0 0 0 33.92 28.2a7.64 7.64 0 0 0-6.11 3.067c-2.379 3.206-1.86 7.738 1.181 10.316.13.109.262.214.39.31a.562.562 0 0 1-.33 1.013zm-.09-37.185c1.328 0 2.555 1.218 2.585 2.566.04 1.409-1.197 2.667-2.616 2.667-1.368 0-2.566-1.188-2.596-2.546-.03-1.42 1.208-2.676 2.626-2.687zm-8.997.011c1.42.04 2.506 1.187 2.496 2.626-.01 1.459-1.086 2.576-2.536 2.585-1.46.01-2.606-1.177-2.566-2.677.02-1.408 1.237-2.575 2.606-2.534zm-9.057 0c1.349.01 2.577 1.227 2.596 2.576.03 1.389-1.227 2.647-2.646 2.637-1.36 0-2.567-1.197-2.586-2.556-.03-1.41 1.228-2.688 2.636-2.657z"></path>
    <path  fill="currentColor" d="M59.755 0H8.315C3.73 0 0 3.73 0 8.303v43.553c0 4.585 3.73 8.303 8.315 8.303h19.708v-2.606H8.315c-3.147 0-5.708-2.562-5.708-5.697V15.63h44.136a.994.994 0 0 0 1.011-1.011l-.045-4.282 11.248.012v4.236c0 .573.473 1.045 1.057 1.045h5.438v36.226c0 3.135-2.562 5.697-5.697 5.697H40.333v2.606h19.422a8.305 8.305 0 0 0 8.303-8.303V8.303C68.06 3.73 64.34 0 59.755 0zm5.697 14.484l-5.338.033v-4.225c0-.617-.494-1.123-1.113-1.123H47.653c-.584 0-1.068.484-1.068 1.068v4.236H2.607v-6.17c0-3.135 2.561-5.696 5.708-5.696h51.44c3.135 0 5.697 2.561 5.697 5.696v6.18z"></path>
  </symbol>
  <symbol viewBox="0 0 72 71" xmlns="http://www.w3.org/2000/svg" id="service_2">
    <path  d="M35.81 0a1.46 1.46 0 0 0-1.459 1.458v22.33a1.458 1.458 0 0 0 2.916 0V1.458A1.46 1.46 0 0 0 35.81 0zm33.857 33.932h-22.33a1.46 1.46 0 0 0-1.458 1.458 1.46 1.46 0 0 0 1.458 1.458h22.329a1.46 1.46 0 0 0 .001-2.916zM35.81 44.906a1.46 1.46 0 0 0-1.458 1.458v22.33a1.46 1.46 0 0 0 1.458 1.458 1.46 1.46 0 0 0 1.458-1.458v-22.33a1.46 1.46 0 0 0-1.458-1.458zM23.788 33.932H1.458A1.46 1.46 0 0 0 0 35.39a1.46 1.46 0 0 0 1.458 1.458h22.33a1.46 1.46 0 0 0 1.458-1.458 1.46 1.46 0 0 0-1.458-1.458z"></path>
    <path  fill="currentColor" d="M57.204 13.882a30.112 30.112 0 0 0-17.699-8.855v2.948c5.918.85 11.368 3.607 15.622 7.94 4.255 4.344 6.902 9.848 7.627 15.79h2.925c-.726-6.701-3.674-12.943-8.475-17.823zM8.45 39.084H5.513c1.82 13.702 12.83 24.545 26.61 26.109v-2.937C19.94 60.726 10.225 51.178 8.45 39.084zm5.918-25.65c-5.047 4.947-8.163 11.356-8.921 18.27h2.937c.748-6.131 3.54-11.804 8.017-16.192 4.333-4.232 9.815-6.878 15.722-7.616V4.959c-6.677.75-12.886 3.696-17.755 8.476zm48.307 25.65C60.91 51.01 51.442 60.47 39.505 62.188v2.948c13.544-1.764 24.309-12.506 26.107-26.05h-2.937v-.002zm-23.171-21.63v1.15c6.376 1.52 11.356 6.656 12.663 13.1h1.127c-1.328-7.07-6.8-12.698-13.79-14.25zm-20.401 21.63h-1.14c1.564 6.934 7.147 12.361 14.16 13.711v-1.139c-6.399-1.317-11.48-6.252-13.02-12.573zm-1.274-7.382h1.128c1.34-6.611 6.555-11.848 13.165-13.21v-1.139c-7.224 1.385-12.93 7.114-14.293 14.35zm34.193 7.381c-1.496 6.152-6.354 11-12.518 12.462v1.15c6.779-1.507 12.127-6.845 13.657-13.612h-1.139z"></path>
  </symbol>
</svg>