<svg width="71" height="60" viewBox="0 0 71 60" fill="none" xmlns="http://www.w3.org/2000/svg">
<path d="M9.11945 50.0112L6.38971 51.5873C4.35538 52.7618 1.74441 52.0622 0.569891 50.0278C-0.604633 47.9935 0.0949725 45.3825 2.12931 44.208L4.85905 42.632C5.26692 42.3965 5.78752 42.536 6.02301 42.9439L9.43133 48.8473C9.66682 49.2552 9.52733 49.7758 9.11945 50.0112ZM2.98139 45.6839C1.76064 46.3887 1.34094 47.955 2.04574 49.1758C2.75053 50.3965 4.31688 50.8162 5.53763 50.1114L7.52945 48.9614L4.9732 44.5339L2.98139 45.6839Z" fill="#53C6F1"/>
<path d="M53.8525 24.1846L20.9262 43.1946C20.5183 43.4301 19.9977 43.2906 19.7623 42.8827L16.3539 36.9793C16.1185 36.5715 16.2579 36.0509 16.6658 35.8154L49.592 16.8054C49.9999 16.5699 50.5205 16.7094 50.756 17.1173L54.1643 23.0207C54.3998 23.4285 54.2603 23.9491 53.8525 24.1846ZM20.8121 41.2927L52.2625 23.1348L49.7062 18.7073L18.2558 36.8652L20.8121 41.2927Z" fill="#53C6F1"/>
<path d="M68.3753 15.7999L65.6592 17.368C65.2514 17.6035 64.7308 17.464 64.4953 17.0561L61.0869 11.1527C60.8515 10.7448 60.9909 10.2242 61.3988 9.98876L64.1149 8.42064C66.1492 7.24612 68.7602 7.94573 69.9347 9.98006C71.1092 12.0144 70.4096 14.6254 68.3753 15.7999ZM65.5451 15.4661L67.5232 14.324C68.7439 13.6192 69.1636 12.0529 68.4588 10.8321C67.754 9.6114 66.1877 9.19169 64.9669 9.89649L62.9888 11.0386L65.5451 15.4661Z" fill="#53C6F1"/>
<path d="M69.9196 24.7472L64.0162 28.1555C63.6084 28.391 63.0878 28.2515 62.8523 27.8437L50.9232 7.18181C50.6877 6.77393 50.8272 6.25333 51.235 6.01784L57.1384 2.60952C57.5463 2.37403 58.0669 2.51353 58.3024 2.9214L70.2315 23.5833C70.467 23.9911 70.3275 24.5117 69.9196 24.7472ZM63.9021 26.2537L68.3296 23.6974L57.2526 4.51141L52.825 7.06765L63.9021 26.2537Z" fill="#53C6F1"/>
<path d="M67.4246 34.0589L61.5212 37.4673C61.1133 37.7027 60.5927 37.5632 60.3572 37.1554L41.6114 4.68674C41.376 4.27887 41.5154 3.75827 41.9233 3.52278L47.8267 0.114457C48.2346 -0.12103 48.7552 0.0184644 48.9907 0.42634L67.7365 32.895C67.9719 33.3028 67.8324 33.8234 67.4246 34.0589ZM61.407 35.5654L65.8346 33.0091L47.9409 2.01634L43.5133 4.57259L61.407 35.5654Z" fill="#53C6F1"/>
<path d="M19.2832 53.9822L13.3799 57.3905C12.972 57.626 12.4514 57.4865 12.2159 57.0786L0.28676 36.4167C0.0512732 36.0089 0.190768 35.4883 0.598643 35.2528L6.50203 31.8445C6.90991 31.609 7.43051 31.7485 7.666 32.1563L19.5951 52.8182C19.8306 53.2261 19.6911 53.7467 19.2832 53.9822ZM13.2657 55.4886L17.6932 52.9324L6.61619 33.7463L2.18865 36.3026L13.2657 55.4886Z" fill="#53C6F1"/>
<path d="M28.5949 56.4772L22.6916 59.8855C22.2837 60.121 21.7631 59.9815 21.5276 59.5737L2.78183 27.105C2.54634 26.6972 2.68583 26.1766 3.09371 25.9411L8.9971 22.5327C9.40497 22.2973 9.92557 22.4368 10.1611 22.8446L28.9068 55.3133C29.1423 55.7211 29.0028 56.2417 28.5949 56.4772ZM22.5774 57.9837L27.0049 55.4274L9.11125 24.4346L4.68371 26.9909L22.5774 57.9837Z" fill="#53C6F1"/>
</svg>
