<svg width="62" height="62" viewBox="0 0 62 62" fill="none" xmlns="http://www.w3.org/2000/svg">
<path d="M35.0764 34.6869C35.2208 34.6868 35.3618 34.6436 35.4814 34.5628C35.601 34.482 35.6937 34.3673 35.7477 34.2334C35.8017 34.0996 35.8144 33.9526 35.7843 33.8114C35.7541 33.6703 35.6825 33.5413 35.5786 33.4412L29.5896 27.6969V17.0741C29.5896 16.882 29.5133 16.6978 29.3775 16.562C29.2416 16.4262 29.0574 16.3498 28.8653 16.3498C28.6732 16.3498 28.489 16.4262 28.3532 16.562C28.2174 16.6978 28.1411 16.882 28.1411 17.0741V28.0075C28.1411 28.1051 28.1608 28.2017 28.1989 28.2916C28.2371 28.3815 28.2929 28.4628 28.3632 28.5306L34.5759 34.4857C34.7101 34.6155 34.8897 34.6877 35.0764 34.6869Z" fill="#53C6F1"/>
<path d="M50.4955 47.3827C50.0545 47.0876 49.1886 46.7845 47.8977 46.4733L46.7099 46.1836C46.2962 46.0986 45.8982 45.9498 45.5302 45.7426C45.0709 45.4636 44.8413 45.0881 44.8413 44.616C44.8375 44.4146 44.8833 44.2154 44.9748 44.036C45.0664 43.8566 45.2007 43.7026 45.366 43.5875C45.7147 43.3278 46.2292 43.1985 46.9095 43.1996C47.9289 43.1996 48.6445 43.4357 49.0566 43.9078C49.3041 44.2281 49.4534 44.6133 49.4863 45.0167H51.1843C51.1937 44.3188 50.9668 43.6381 50.5405 43.0853C49.974 42.3342 49.1231 41.8814 47.9879 41.7269V40.3073H46.2754V41.7124C45.4811 41.788 44.7277 42.0997 44.1122 42.6073C43.7562 42.9076 43.4729 43.2845 43.2833 43.7099C43.0938 44.1352 43.003 44.598 43.0177 45.0634C43.0177 45.9218 43.404 46.5946 44.1766 47.0817C44.6058 47.3618 45.2785 47.615 46.1949 47.8414L47.6225 48.2003C48.3886 48.3935 48.9015 48.5641 49.1612 48.7122C49.3507 48.8123 49.5083 48.9636 49.6161 49.1488C49.7239 49.334 49.7777 49.5457 49.7712 49.7599C49.7834 50.033 49.7181 50.304 49.5828 50.5415C49.4475 50.7791 49.2478 50.9735 49.0067 51.1023C48.4696 51.4002 47.8632 51.5507 47.2491 51.5385C46.1289 51.5385 45.3429 51.2482 44.8912 50.6677C44.6449 50.3458 44.4952 49.8903 44.4421 49.29H42.7135C42.731 50.2837 43.1091 51.2373 43.7774 51.973C44.3139 52.5546 45.1466 52.9012 46.2754 53.0128V54.0348H47.983V53.016C49.056 52.9087 49.8817 52.5755 50.4601 52.0165C50.804 51.7045 51.0784 51.3235 51.2653 50.8984C51.4523 50.4732 51.5475 50.0135 51.5449 49.5491C51.5449 48.5641 51.1951 47.842 50.4955 47.3827Z" fill="#53C6F1"/>
<path d="M55.6894 36.4091C56.3805 33.9531 56.7304 31.4136 56.7291 28.8621C56.7291 13.4994 44.2297 1 28.8637 1C13.4978 1 1 13.4994 1 28.8637C1 44.2281 13.501 56.7371 28.8637 56.7371C31.3945 56.7381 33.9135 56.3937 36.3512 55.7135C37.5507 57.2479 39.0622 58.5102 40.7858 59.4171C42.5094 60.3239 44.4058 60.8546 46.3498 60.9741C48.2937 61.0935 50.2409 60.7991 52.0626 60.1101C53.8842 59.4212 55.539 58.3534 56.9173 56.9775C58.2957 55.6015 59.3663 53.9487 60.0585 52.1282C60.7506 50.3077 61.0485 48.3611 60.9324 46.4169C60.8164 44.4728 60.289 42.5754 59.3852 40.8502C58.4813 39.125 57.2217 37.6113 55.6894 36.4091ZM29.5896 55.2693V52.3915C29.5774 52.2077 29.4957 52.0355 29.3613 51.9097C29.2268 51.7839 29.0495 51.7139 28.8654 51.7139C28.6812 51.7139 28.5039 51.7839 28.3694 51.9097C28.235 52.0355 28.1533 52.2077 28.1411 52.3915V55.2709C14.1497 54.891 2.83805 43.5794 2.46787 29.588H5.33601C5.5281 29.588 5.71232 29.5117 5.84815 29.3759C5.98398 29.2401 6.06028 29.0558 6.06028 28.8637C6.06028 28.6717 5.98398 28.4874 5.84815 28.3516C5.71232 28.2158 5.5281 28.1395 5.33601 28.1395H2.46787C2.83805 14.148 14.1497 2.83645 28.1411 2.45821V5.33601C28.1411 5.5281 28.2174 5.71232 28.3532 5.84815C28.489 5.98398 28.6733 6.06028 28.8654 6.06028C29.0574 6.06028 29.2417 5.98398 29.3775 5.84815C29.5133 5.71232 29.5896 5.5281 29.5896 5.33601V2.45821C43.5811 2.83645 54.891 14.148 55.2709 28.1395H52.3931C52.201 28.1395 52.0168 28.2158 51.881 28.3516C51.7451 28.4874 51.6688 28.6717 51.6688 28.8637C51.6688 29.0558 51.7451 29.2401 51.881 29.3759C52.0168 29.5117 52.201 29.588 52.3931 29.588H55.2709C55.2161 31.5928 54.9332 33.5848 54.4275 35.5255C51.7922 33.8976 48.6849 33.2061 45.608 33.5627C42.531 33.9193 39.6643 35.3033 37.4712 37.4908C35.2781 39.6783 33.8869 42.5415 33.5224 45.6175C33.158 48.6935 33.8416 51.8026 35.4627 54.442C33.5423 54.9376 31.5722 55.2152 29.5896 55.2693ZM47.1976 59.5554C45.3773 59.5578 43.5793 59.1558 41.9334 58.3784C40.2875 57.6009 38.8349 56.4675 37.6806 55.06C37.5293 54.8782 37.3861 54.6899 37.2477 54.4983L37.2155 54.4533C37.0803 54.2666 36.9499 54.075 36.8244 53.8803C35.5514 51.9001 34.8759 49.5951 34.8785 47.2411C34.8786 45.041 35.468 42.8811 36.5855 40.9859C37.703 39.0908 39.3078 37.5296 41.2329 36.4646C43.1581 35.3997 45.3334 34.8699 47.5327 34.9303C49.7319 34.9908 51.8748 35.6392 53.7386 36.8083C53.9361 36.9338 54.1303 37.0642 54.3213 37.1994L54.3631 37.2283C54.553 37.3652 54.7414 37.5068 54.9232 37.6549C56.9081 39.2533 58.3482 41.4282 59.0449 43.8796C59.7416 46.3311 59.6605 48.9383 58.8128 51.3417C57.9652 53.7451 56.3928 55.8263 54.3124 57.2983C52.232 58.7703 49.7461 59.5606 47.1976 59.5602V59.5554Z" fill="#53C6F1"/>
<path d="M35.0764 34.6869C35.2208 34.6868 35.3618 34.6436 35.4814 34.5628C35.601 34.482 35.6937 34.3673 35.7477 34.2334C35.8017 34.0996 35.8144 33.9526 35.7843 33.8114C35.7541 33.6703 35.6825 33.5413 35.5786 33.4412L29.5896 27.6969V17.0741C29.5896 16.882 29.5133 16.6978 29.3775 16.562C29.2416 16.4262 29.0574 16.3498 28.8653 16.3498C28.6732 16.3498 28.489 16.4262 28.3532 16.562C28.2174 16.6978 28.1411 16.882 28.1411 17.0741V28.0075C28.1411 28.1051 28.1608 28.2017 28.1989 28.2916C28.2371 28.3815 28.2929 28.4628 28.3632 28.5306L34.5759 34.4857C34.7101 34.6155 34.8897 34.6877 35.0764 34.6869Z" stroke="#53C6F1" stroke-width="0.5"/>
<path d="M50.4955 47.3827C50.0545 47.0876 49.1886 46.7845 47.8977 46.4733L46.7099 46.1836C46.2962 46.0986 45.8982 45.9498 45.5302 45.7426C45.0709 45.4636 44.8413 45.0881 44.8413 44.616C44.8375 44.4146 44.8833 44.2154 44.9748 44.036C45.0664 43.8566 45.2007 43.7026 45.366 43.5875C45.7147 43.3278 46.2292 43.1985 46.9095 43.1996C47.9289 43.1996 48.6445 43.4357 49.0566 43.9078C49.3041 44.2281 49.4534 44.6133 49.4863 45.0167H51.1843C51.1937 44.3188 50.9668 43.6381 50.5405 43.0853C49.974 42.3342 49.1231 41.8814 47.9879 41.7269V40.3073H46.2754V41.7124C45.4811 41.788 44.7277 42.0997 44.1122 42.6073C43.7562 42.9076 43.4729 43.2845 43.2833 43.7099C43.0938 44.1352 43.003 44.598 43.0177 45.0634C43.0177 45.9218 43.404 46.5946 44.1766 47.0817C44.6058 47.3618 45.2785 47.615 46.1949 47.8414L47.6225 48.2003C48.3886 48.3935 48.9015 48.5641 49.1612 48.7122C49.3507 48.8123 49.5083 48.9636 49.6161 49.1488C49.7239 49.334 49.7777 49.5457 49.7712 49.7599C49.7834 50.033 49.7181 50.304 49.5828 50.5415C49.4475 50.7791 49.2478 50.9735 49.0067 51.1023C48.4696 51.4002 47.8632 51.5507 47.2491 51.5385C46.1289 51.5385 45.3429 51.2482 44.8912 50.6677C44.6449 50.3458 44.4952 49.8903 44.4421 49.29H42.7135C42.731 50.2837 43.1091 51.2373 43.7774 51.973C44.3139 52.5546 45.1466 52.9012 46.2754 53.0128V54.0348H47.983V53.016C49.056 52.9087 49.8817 52.5755 50.4601 52.0165C50.804 51.7045 51.0784 51.3235 51.2653 50.8984C51.4523 50.4732 51.5475 50.0135 51.5449 49.5491C51.5449 48.5641 51.1951 47.842 50.4955 47.3827Z" stroke="#53C6F1" stroke-width="0.5"/>
<path d="M55.6894 36.4091C56.3805 33.9531 56.7304 31.4136 56.7291 28.8621C56.7291 13.4994 44.2297 1 28.8637 1C13.4978 1 1 13.4994 1 28.8637C1 44.2281 13.501 56.7371 28.8637 56.7371C31.3945 56.7381 33.9135 56.3937 36.3512 55.7135C37.5507 57.2479 39.0622 58.5102 40.7858 59.4171C42.5094 60.3239 44.4058 60.8546 46.3498 60.9741C48.2937 61.0935 50.2409 60.7991 52.0626 60.1101C53.8842 59.4212 55.539 58.3534 56.9173 56.9775C58.2957 55.6015 59.3663 53.9487 60.0585 52.1282C60.7506 50.3077 61.0485 48.3611 60.9324 46.4169C60.8164 44.4728 60.289 42.5754 59.3852 40.8502C58.4813 39.125 57.2217 37.6113 55.6894 36.4091ZM29.5896 55.2693V52.3915C29.5774 52.2077 29.4957 52.0355 29.3613 51.9097C29.2268 51.7839 29.0495 51.7139 28.8654 51.7139C28.6812 51.7139 28.5039 51.7839 28.3694 51.9097C28.235 52.0355 28.1533 52.2077 28.1411 52.3915V55.2709C14.1497 54.891 2.83805 43.5794 2.46787 29.588H5.33601C5.5281 29.588 5.71232 29.5117 5.84815 29.3759C5.98398 29.2401 6.06028 29.0558 6.06028 28.8637C6.06028 28.6717 5.98398 28.4874 5.84815 28.3516C5.71232 28.2158 5.5281 28.1395 5.33601 28.1395H2.46787C2.83805 14.148 14.1497 2.83645 28.1411 2.45821V5.33601C28.1411 5.5281 28.2174 5.71232 28.3532 5.84815C28.489 5.98398 28.6733 6.06028 28.8654 6.06028C29.0574 6.06028 29.2417 5.98398 29.3775 5.84815C29.5133 5.71232 29.5896 5.5281 29.5896 5.33601V2.45821C43.5811 2.83645 54.891 14.148 55.2709 28.1395H52.3931C52.201 28.1395 52.0168 28.2158 51.881 28.3516C51.7451 28.4874 51.6688 28.6717 51.6688 28.8637C51.6688 29.0558 51.7451 29.2401 51.881 29.3759C52.0168 29.5117 52.201 29.588 52.3931 29.588H55.2709C55.2161 31.5928 54.9332 33.5848 54.4275 35.5255C51.7922 33.8976 48.6849 33.2061 45.608 33.5627C42.531 33.9193 39.6643 35.3033 37.4712 37.4908C35.2781 39.6783 33.8869 42.5415 33.5224 45.6175C33.158 48.6935 33.8416 51.8026 35.4627 54.442C33.5423 54.9376 31.5722 55.2152 29.5896 55.2693ZM47.1976 59.5554C45.3773 59.5578 43.5793 59.1558 41.9334 58.3784C40.2875 57.6009 38.8349 56.4675 37.6806 55.06C37.5293 54.8782 37.3861 54.6899 37.2477 54.4983L37.2155 54.4533C37.0803 54.2666 36.9499 54.075 36.8244 53.8803C35.5514 51.9001 34.8759 49.5951 34.8785 47.2411C34.8786 45.041 35.468 42.8811 36.5855 40.9859C37.703 39.0908 39.3078 37.5296 41.2329 36.4646C43.1581 35.3997 45.3334 34.8699 47.5327 34.9303C49.7319 34.9908 51.8748 35.6392 53.7386 36.8083C53.9361 36.9338 54.1303 37.0642 54.3213 37.1994L54.3631 37.2283C54.553 37.3652 54.7414 37.5068 54.9232 37.6549C56.9081 39.2533 58.3482 41.4282 59.0449 43.8796C59.7416 46.3311 59.6605 48.9383 58.8128 51.3417C57.9652 53.7451 56.3928 55.8263 54.3124 57.2983C52.232 58.7703 49.7461 59.5606 47.1976 59.5602V59.5554Z" stroke="#53C6F1" stroke-width="0.5"/>
</svg>
