<svg width="84" height="81" viewBox="0 0 84 81" fill="none" xmlns="http://www.w3.org/2000/svg">
<path d="M71.4399 80.8516C69.2017 80.8516 67.0976 79.98 65.515 78.3972L45.6052 58.4875C41.0458 61.0361 35.8819 62.3794 30.6231 62.3794C22.3902 62.3794 14.6569 59.1655 8.84783 53.33C3.07695 47.5327 -0.0649003 39.7502 0.00101653 31.416C0.0671195 23.0776 3.33428 15.3411 9.20069 9.63167C14.9654 4.02111 22.5734 0.931396 30.6233 0.931396C38.8299 0.931396 46.5453 4.12724 52.3481 9.93016C62.0961 19.678 64.1492 34.6735 57.4555 46.6374L77.365 66.5473C80.6321 69.8142 80.6321 75.1302 77.365 78.3972C75.7822 79.98 73.6781 80.8516 71.4399 80.8516ZM45.759 56.394C45.9999 56.394 46.2383 56.4873 46.4176 56.6668L66.8315 77.0807C68.0625 78.3116 69.6991 78.9895 71.4399 78.9895C73.1808 78.9895 74.8173 78.3116 76.0483 77.0807C78.5893 74.5398 78.5893 70.4049 76.0483 67.8639L55.6346 47.45C55.3343 47.1497 55.275 46.6842 55.4912 46.3183C62.1834 34.9869 60.3495 20.5651 51.0314 11.247C45.5802 5.79565 38.3324 2.79364 30.6231 2.79364C23.0613 2.79364 15.9145 5.69603 10.4993 10.9662C4.99207 16.3259 1.92489 23.5937 1.86289 31.4309C1.80088 39.2637 4.75 46.5745 10.1673 52.0163C15.6244 57.4981 22.8889 60.5172 30.6229 60.5172C35.7916 60.5172 40.862 59.1361 45.2858 56.5233C45.4331 56.4365 45.5966 56.394 45.759 56.394Z" fill="#213CC4"/>
<path d="M30.6232 53.0692C24.9034 53.0692 19.5259 50.8418 15.4815 46.7972C7.13245 38.4481 7.13245 24.8629 15.4815 16.5137C19.5261 12.4693 24.9035 10.2417 30.6232 10.2417C36.3429 10.2417 41.7205 12.4691 45.7649 16.5137C54.114 24.8628 54.114 38.4479 45.7649 46.7972C41.7205 50.8418 36.3431 53.0692 30.6232 53.0692ZM30.6232 12.1039C25.4009 12.1039 20.4908 14.1377 16.7982 17.8305C9.17513 25.4536 9.17513 37.8575 16.7982 45.4807C20.491 49.1734 25.4009 51.2071 30.6232 51.2071C35.8456 51.2071 40.7556 49.1734 44.4484 45.4807C52.0713 37.8575 52.0713 25.4536 44.4484 17.8305C40.7556 14.1377 35.8457 12.1039 30.6232 12.1039Z" fill="#FF6D2A"/>
<path d="M40.4514 42.4147C40.2131 42.4147 39.9749 42.3238 39.793 42.1419C39.4293 41.7784 39.4293 41.1889 39.793 40.8254C44.8492 35.7692 44.8492 27.5419 39.793 22.4857C39.4293 22.122 39.4293 21.5325 39.793 21.169C40.1569 20.8055 40.7462 20.8057 41.1097 21.169C46.8919 26.9514 46.8919 36.3599 41.1097 42.1421C40.9279 42.3238 40.6896 42.4147 40.4514 42.4147Z" fill="#FF6D2A"/>
<path d="M50.3734 62.8701C50.1352 62.8701 49.8967 62.7793 49.7151 62.5974C49.3515 62.2339 49.3515 61.6443 49.7151 61.2809L60.2484 50.7476C60.6117 50.3839 61.2016 50.3839 61.5649 50.7476C61.9285 51.1111 61.9285 51.7006 61.5649 52.0641L51.0316 62.5974C50.8501 62.7791 50.6117 62.8701 50.3734 62.8701Z" fill="#213CC4"/>
<path d="M54.3231 66.8201C54.0849 66.8201 53.8464 66.7292 53.6648 66.5473C53.3012 66.1838 53.3012 65.5943 53.6648 65.2308L64.1981 54.6975C64.5614 54.3339 65.1513 54.3339 65.5146 54.6975C65.8782 55.061 65.8782 55.6506 65.5146 56.014L54.9813 66.5473C54.7998 66.729 54.5614 66.8201 54.3231 66.8201Z" fill="#213CC4"/>
<path d="M12.1031 77.2759C9.53629 77.2759 7.448 75.1876 7.448 72.6207C7.448 70.0539 9.53629 67.9656 12.1031 67.9656C14.67 67.9656 16.7583 70.0539 16.7583 72.6207C16.7583 75.1876 14.6702 77.2759 12.1031 77.2759ZM12.1031 69.8276C10.563 69.8276 9.31005 71.0806 9.31005 72.6207C9.31005 74.1608 10.563 75.4138 12.1031 75.4138C13.6432 75.4138 14.8962 74.1608 14.8962 72.6207C14.8962 71.0806 13.6432 69.8276 12.1031 69.8276Z" fill="#FF6D2A"/>
<path d="M73.5511 25.1383C69.9575 25.1383 67.0339 22.2147 67.0339 18.6211C67.0339 15.0275 69.9575 12.1039 73.5511 12.1039C77.1447 12.1039 80.0683 15.0275 80.0683 18.6211C80.0683 22.2147 77.1447 25.1383 73.5511 25.1383ZM73.5511 13.9659C70.9843 13.9659 68.896 16.0542 68.896 18.6211C68.896 21.1879 70.9843 23.2762 73.5511 23.2762C76.118 23.2762 78.2063 21.1879 78.2063 18.6211C78.2063 16.0542 76.118 13.9659 73.5511 13.9659Z" fill="#FF6D2A"/>
<path d="M80.9988 35.379C82.0272 35.379 82.8608 34.5453 82.8608 33.517C82.8608 32.4886 82.0272 31.6549 80.9988 31.6549C79.9704 31.6549 79.1367 32.4886 79.1367 33.517C79.1367 34.5453 79.9704 35.379 80.9988 35.379Z" fill="#FF6D2A"/>
<path d="M71.6887 46.5525C72.7171 46.5525 73.5508 45.7188 73.5508 44.6904C73.5508 43.662 72.7171 42.8284 71.6887 42.8284C70.6603 42.8284 69.8267 43.662 69.8267 44.6904C69.8267 45.7188 70.6603 46.5525 71.6887 46.5525Z" fill="#FF6D2A"/>
<path d="M58.655 3.72411C59.6834 3.72411 60.5171 2.89044 60.5171 1.86206C60.5171 0.833671 59.6834 0 58.655 0C57.6266 0 56.793 0.833671 56.793 1.86206C56.793 2.89044 57.6266 3.72411 58.655 3.72411Z" fill="#FF6D2A"/>
<path d="M2.79296 5.58678C3.82135 5.58678 4.65502 4.75311 4.65502 3.72473C4.65502 2.69634 3.82135 1.86267 2.79296 1.86267C1.76458 1.86267 0.930908 2.69634 0.930908 3.72473C0.930908 4.75311 1.76458 5.58678 2.79296 5.58678Z" fill="#FF6D2A"/>
<path d="M4.65502 61.4485C5.68341 61.4485 6.51708 60.6148 6.51708 59.5864C6.51708 58.558 5.68341 57.7244 4.65502 57.7244C3.62664 57.7244 2.79297 58.558 2.79297 59.5864C2.79297 60.6148 3.62664 61.4485 4.65502 61.4485Z" fill="#FF6D2A"/>
<path d="M34.448 76.3448C35.4764 76.3448 36.31 75.5112 36.31 74.4828C36.31 73.4544 35.4764 72.6207 34.448 72.6207C33.4196 72.6207 32.5859 73.4544 32.5859 74.4828C32.5859 75.5112 33.4196 76.3448 34.448 76.3448Z" fill="#FF6D2A"/>
<path d="M82.8614 81H45.6202C45.1059 81 44.6892 80.5833 44.6892 80.069C44.6892 79.5547 45.1059 79.1379 45.6202 79.1379H82.8614C83.3757 79.1379 83.7924 79.5547 83.7924 80.069C83.7924 80.5833 83.3757 81 82.8614 81Z" fill="#213CC4"/>
</svg>
