<svg width="53" height="60" viewBox="0 0 53 60" fill="none" xmlns="http://www.w3.org/2000/svg">
<path d="M52.8421 56.8577C52.5827 56.5191 52.094 56.4484 51.7511 56.7077C47.2372 60.1285 42.3162 57.0549 42.1061 56.922C42.0225 56.8706 41.2466 56.3926 40.0249 55.9725C40.8673 55.411 41.6774 54.8216 42.4169 54.1743C42.7405 53.8914 42.7748 53.4006 42.4898 53.0748C42.2047 52.749 41.7139 52.7168 41.3902 53.0019C40.3486 53.9128 39.1762 54.7316 37.9223 55.4581C35.8905 55.1495 33.3249 55.306 30.6886 56.9113C29.499 57.6379 28.3459 57.9466 27.2786 58.0494V33.624L48.4182 39.5096C48.1867 41.1086 47.7816 42.8897 47.0915 44.7136C46.9393 45.1166 47.1408 45.5645 47.5437 45.7189C47.9381 45.8646 48.3946 45.6717 48.5468 45.2666C50.9323 38.9631 50.15 33.2232 50.1136 32.9832C50.0686 32.6788 49.85 32.4281 49.5542 32.3445L42.8541 30.4541V20.2282C42.8541 18.6529 41.5724 17.3712 39.9971 17.3712H38.5203V12.4951C38.5203 11.2198 37.4851 10.1824 36.2098 10.1824H29.962V0.933974C29.962 0.503164 29.6126 0.155945 29.184 0.155945H23.8128C23.382 0.155945 23.0348 0.505308 23.0348 0.933974V10.1824H17.1277C15.8525 10.1824 14.8172 11.2198 14.8172 12.4951V17.3712H13.3405C11.7673 17.3712 10.4856 18.6529 10.4856 20.2282V30.3576L3.44258 32.3445C3.16609 32.4216 2.95604 32.6467 2.89389 32.9253C2.86388 33.0603 0.148279 46.3104 12.8518 55.7882C12.3138 55.9854 11.7716 56.2276 11.2293 56.5512C5.65449 59.8777 1.47071 56.2876 1.29496 56.1312C0.973461 55.8439 0.480495 55.8782 0.197575 56.1955C-0.0874875 56.517 -0.0617674 57.0078 0.259732 57.2928C0.311172 57.34 5.45516 61.8195 12.0288 57.8865C16.2597 55.3553 20.7693 57.878 21.2815 58.1845C21.2944 58.193 21.3072 58.2038 21.3201 58.2123C21.453 58.3002 23.5792 59.6548 26.5005 59.6676C28.0094 59.6741 29.7284 59.3269 31.5009 58.2466C33.9143 56.772 36.2677 56.7184 38.0616 57.0571C38.0681 57.0571 38.0724 57.0614 38.0788 57.0614C38.0809 57.0614 38.0809 57.0614 38.0831 57.0614C39.9242 57.4129 41.1695 58.1759 41.2659 58.2359C41.3045 58.2616 43.8336 59.852 47.0765 59.852C48.8319 59.852 50.7973 59.3869 52.6899 57.953C53.035 57.6915 53.1014 57.2028 52.8421 56.8577ZM48.6004 37.9471L27.2786 32.0101V27.6763L48.6261 33.7012C48.6904 34.4471 48.7719 35.9817 48.6004 37.9471ZM28.4081 1.712V2.96585H24.593V1.712H28.4081ZM24.593 4.52191H28.4081V10.1824H24.593V4.52191ZM16.3754 12.4951C16.3754 12.0793 16.7141 11.7406 17.1299 11.7406H36.212C36.6278 11.7406 36.9664 12.0793 36.9664 12.4951V17.3712H16.3776V12.4951H16.3754ZM12.0438 20.2282C12.0438 19.5124 12.6246 18.9294 13.3405 18.9294H39.9992C40.7151 18.9294 41.2981 19.5124 41.2981 20.2282V30.0147L26.7106 25.8995C26.6934 25.8952 26.6784 25.9016 26.6613 25.8973C26.5884 25.8802 26.5177 25.8802 26.4405 25.8866C26.4019 25.8888 26.3633 25.8866 26.3248 25.8952C26.3119 25.8973 26.299 25.8952 26.2862 25.8973L12.0395 29.9161V20.2282H12.0438ZM4.3342 33.7119L25.7225 27.6784V31.9865L4.19489 37.9793C4.04914 35.9753 4.21846 34.4385 4.3342 33.7119ZM22.1689 56.9006C21.9931 56.787 18.6709 54.7208 14.6993 55.3145C14.6458 55.2267 14.5729 55.1495 14.485 55.0874C7.36059 50.1084 5.02864 44.0299 4.37064 39.5482L25.7246 33.6026V58.0537C23.8707 57.8651 22.5118 57.1149 22.2289 56.9435C22.2096 56.9263 22.1881 56.9135 22.1689 56.9006Z" fill="#53C6F1"/>
<path d="M47.0443 48.488C46.4142 49.6047 45.6876 50.6635 44.8882 51.6323C44.7338 51.8188 44.5109 51.9152 44.288 51.9152C44.1123 51.9152 43.9365 51.8573 43.7929 51.7373C43.4607 51.463 43.4135 50.9743 43.6879 50.6399C44.4295 49.7419 45.1025 48.7602 45.6898 47.7229C45.9019 47.3499 46.3778 47.2149 46.7507 47.4271C47.1236 47.6393 47.2544 48.113 47.0443 48.488Z" fill="#53C6F1"/>
<path d="M19.3932 13.3439V15.7658C19.3932 16.1966 19.0439 16.5438 18.6152 16.5438C18.1865 16.5438 17.8372 16.1945 17.8372 15.7658V13.3439C17.8372 12.913 18.1865 12.5658 18.6152 12.5658C19.0439 12.5658 19.3932 12.913 19.3932 13.3439Z" fill="#53C6F1"/>
<path d="M23.337 13.3439V15.7658C23.337 16.1966 22.9876 16.5438 22.5589 16.5438C22.1303 16.5438 21.7809 16.1945 21.7809 15.7658V13.3439C21.7809 12.913 22.1303 12.5658 22.5589 12.5658C22.9876 12.5658 23.337 12.913 23.337 13.3439Z" fill="#53C6F1"/>
<path d="M31.4666 13.3439V15.7658C31.4666 16.1966 31.1173 16.5438 30.6886 16.5438C30.2599 16.5438 29.9084 16.1966 29.9084 15.768V13.346C29.9084 12.9152 30.2578 12.568 30.6864 12.568C31.1151 12.568 31.4666 12.913 31.4666 13.3439Z" fill="#53C6F1"/>
<path d="M27.2786 13.3439V15.7658C27.2786 16.1966 26.9292 16.5438 26.5005 16.5438C26.0719 16.5438 25.7225 16.1945 25.7225 15.7658V13.3439C25.7225 12.913 26.0719 12.5658 26.5005 12.5658C26.9292 12.5658 27.2786 12.913 27.2786 13.3439Z" fill="#53C6F1"/>
<path d="M35.6525 13.3439V15.7658C35.6525 16.1966 35.3032 16.5438 34.8745 16.5438C34.4458 16.5438 34.0965 16.1945 34.0965 15.7658V13.3439C34.0965 12.913 34.4458 12.5658 34.8745 12.5658C35.3032 12.5658 35.6525 12.913 35.6525 13.3439Z" fill="#53C6F1"/>
<path d="M31.8074 25.6959C30.3478 25.6959 29.1625 24.5085 29.1625 23.0489C29.1625 21.5892 30.3499 20.404 31.8074 20.404C33.267 20.404 34.4544 21.5914 34.4544 23.0489C34.4544 24.5106 33.267 25.6959 31.8074 25.6959ZM31.8074 21.9622C31.2073 21.9622 30.7186 22.4509 30.7186 23.051C30.7186 23.6511 31.2073 24.1398 31.8074 24.1398C32.4075 24.1398 32.8962 23.6511 32.8962 23.051C32.8962 22.4509 32.4075 21.9622 31.8074 21.9622Z" fill="#53C6F1"/>
<path d="M21.1658 25.6959C19.7062 25.6959 18.5188 24.5085 18.5188 23.0489C18.5188 21.5892 19.7062 20.404 21.1658 20.404C22.6254 20.404 23.8106 21.5914 23.8106 23.0489C23.8106 24.5106 22.6254 25.6959 21.1658 25.6959ZM21.1658 21.9622C20.5656 21.9622 20.077 22.4509 20.077 23.051C20.077 23.6511 20.5656 24.1398 21.1658 24.1398C21.7659 24.1398 22.2546 23.6511 22.2546 23.051C22.2546 22.4509 21.7659 21.9622 21.1658 21.9622Z" fill="#53C6F1"/>
</svg>
