<svg width="266" height="324" viewBox="0 0 266 324" fill="none" xmlns="http://www.w3.org/2000/svg">
<g filter="url(#filter0_f)">
<ellipse cx="133" cy="289" rx="113" ry="15" fill="#1C319F"/>
</g>
<path d="M164.827 217.976H100.621L109.558 203.554H155.895L164.827 217.976Z" fill="#53C6F1"/>
<path d="M121.678 203.554L118.314 208.983L112.741 217.976H100.621L100.474 209.9L109.558 203.554H121.678Z" fill="#09AEEB"/>
<path d="M164.827 217.976H152.712L143.78 203.554H155.895L165.512 210.765L164.827 217.976Z" fill="#09AEEB"/>
<path d="M123.666 180.797L117.279 191.099L109.558 203.554L100.621 217.976L82.7213 246.847C81.3718 249.041 79.023 250.252 76.6226 250.252C75.3452 250.252 74.0523 249.912 72.8882 249.196C69.5247 247.125 68.4739 242.721 70.5394 239.358L101.244 191.099L107.796 180.797H123.666Z" fill="#53C6F1"/>
<path d="M192.539 249.196C191.369 249.912 190.082 250.252 188.804 250.252C186.399 250.252 184.055 249.041 182.706 246.847L164.827 217.976L155.895 203.554L148.184 191.099L141.802 180.797H157.657L164.204 191.099L194.882 239.358C196.953 242.721 195.902 247.125 192.539 249.196Z" fill="#53C6F1"/>
<path d="M107.796 180.797L114.651 175.646L123.666 180.797L117.279 191.099H101.244L107.796 180.797Z" fill="#09AEEB"/>
<path d="M164.204 191.099H148.184L141.802 180.797L150.598 175.646L157.657 180.797L164.204 191.099Z" fill="#09AEEB"/>
<path d="M260 5.15091V19.2747L132 24.4256L4 19.2747V5.15091C4 2.30246 6.30761 0 9.15091 0H254.849C257.693 0 260 2.30246 260 5.15091Z" fill="url(#paint0_linear)"/>
<path d="M260 19.2749V175.646C260 178.489 257.693 180.797 254.849 180.797H9.15091C6.30761 180.797 4 178.489 4 175.646V19.2749H260Z" fill="#F5F5F5"/>
<path d="M260 19.2749V29.5767H19.4527C16.6079 29.5767 14.3018 31.8828 14.3018 34.7276V180.797H9.15091C6.30606 180.797 4 178.491 4 175.646V19.2749H130.455H260Z" fill="#E6E6E6"/>
<path d="M132 155.001C119.929 155.001 110.109 145.181 110.109 133.11C110.109 121.038 119.929 111.218 132 111.218C144.071 111.218 153.891 121.038 153.891 133.11C153.891 145.181 144.071 155.001 132 155.001ZM132 118.945C124.189 118.945 117.835 125.299 117.835 133.11C117.835 140.92 124.189 147.275 132 147.275C139.811 147.275 146.165 140.92 146.165 133.11C146.165 125.299 139.811 118.945 132 118.945Z" fill="#09AEEB"/>
<path d="M204.113 89.0693C192.042 89.0693 182.221 79.2491 182.221 67.178C182.221 55.1068 192.042 45.2866 204.113 45.2866C216.184 45.2866 226.004 55.1068 226.004 67.178C226.004 79.2491 216.184 89.0693 204.113 89.0693ZM204.113 53.013C196.302 53.013 189.948 59.3677 189.948 67.178C189.948 74.9883 196.302 81.343 204.113 81.343C211.924 81.343 218.278 74.9883 218.278 67.178C218.278 59.3677 211.924 53.013 204.113 53.013Z" fill="#DEE3E9"/>
<path d="M204.113 155.001C192.042 155.001 182.221 145.181 182.221 133.11C182.221 121.038 192.042 111.218 204.113 111.218C216.184 111.218 226.004 121.038 226.004 133.11C226.004 145.181 216.184 155.001 204.113 155.001ZM204.113 118.945C196.302 118.945 189.948 125.299 189.948 133.11C189.948 140.92 196.302 147.275 204.113 147.275C211.924 147.275 218.278 140.92 218.278 133.11C218.278 125.299 211.924 118.945 204.113 118.945Z" fill="#DEE3E9"/>
<path d="M59.8873 89.0693C47.8162 89.0693 37.996 79.2491 37.996 67.178C37.996 55.1068 47.8162 45.2866 59.8873 45.2866C71.9585 45.2866 81.7787 55.1068 81.7787 67.178C81.7787 79.2491 71.9585 89.0693 59.8873 89.0693ZM59.8873 53.013C52.0765 53.013 45.7223 59.3677 45.7223 67.178C45.7223 74.9883 52.0765 81.343 59.8873 81.343C67.6982 81.343 74.0523 74.9883 74.0523 67.178C74.0523 59.3677 67.6982 53.013 59.8873 53.013Z" fill="#09AEEB"/>
<path d="M135.918 67.1782L148.639 54.4575C150.148 52.9483 150.148 50.5027 148.639 48.994C147.13 47.4858 144.684 47.4858 143.176 48.994L130.455 61.7146L117.734 48.9934C116.225 47.4853 113.779 47.4853 112.271 48.9934C110.762 50.5027 110.762 52.9483 112.271 54.457L124.991 67.1782L112.271 79.8989C110.762 81.4081 110.762 83.8538 112.271 85.3625C113.025 86.1165 114.014 86.4936 115.002 86.4936C115.991 86.4936 116.979 86.1165 117.734 85.3625L130.455 72.6413L143.176 85.3625C143.93 86.1165 144.919 86.4936 145.908 86.4936C146.896 86.4936 147.885 86.1165 148.639 85.3625C150.148 83.8532 150.148 81.4076 148.639 79.8989L135.918 67.1782Z" fill="#FF6D2A"/>
<path d="M66.3811 133.11L79.1018 120.389C80.6105 118.88 80.6105 116.434 79.1018 114.926C77.5931 113.417 75.1469 113.417 73.6388 114.926L60.9176 127.646L48.1964 114.925C46.6877 113.417 44.2415 113.417 42.7333 114.925C41.2246 116.434 41.2246 118.88 42.7333 120.389L55.454 133.11L42.7333 145.831C41.2246 147.34 41.2246 149.785 42.7333 151.294C43.4874 152.048 44.4764 152.425 45.4648 152.425C46.4533 152.425 47.4423 152.048 48.1964 151.294L60.9176 138.573L73.6388 151.294C74.3928 152.048 75.3818 152.425 76.3703 152.425C77.3587 152.425 78.3477 152.048 79.1018 151.294C80.6105 149.785 80.6105 147.339 79.1018 145.831L66.3811 133.11Z" fill="#FF6D2A"/>
<path d="M84.0966 91.9026C84.0966 90.9141 84.4737 89.9252 85.2278 89.1711C86.737 87.6624 89.1826 87.6624 90.6913 89.1711L106.144 104.624C107.652 106.132 107.652 108.579 106.144 110.087C104.635 111.596 102.189 111.596 100.68 110.087L85.2278 94.6341C84.4742 93.88 84.0966 92.8916 84.0966 91.9026Z" fill="#09AEEB"/>
<defs>
<filter id="filter0_f" x="0" y="254" width="266" height="70" filterUnits="userSpaceOnUse" color-interpolation-filters="sRGB">
<feFlood flood-opacity="0" result="BackgroundImageFix"/>
<feBlend mode="normal" in="SourceGraphic" in2="BackgroundImageFix" result="shape"/>
<feGaussianBlur stdDeviation="10" result="effect1_foregroundBlur"/>
</filter>
<linearGradient id="paint0_linear" x1="260" y1="12" x2="4" y2="11.9999" gradientUnits="userSpaceOnUse">
<stop stop-color="#0D9DE5"/>
<stop offset="1" stop-color="#108DE0"/>
</linearGradient>
</defs>
</svg>
