<svg width="237" height="205" viewBox="0 0 237 205" fill="none" xmlns="http://www.w3.org/2000/svg">
<path d="M221.319 50.5639L47.5099 3.99189C39.3161 1.79635 30.8139 6.71044 28.6163 14.9121L-2.01726 129.238L201.588 183.794L232.221 69.4679C234.419 61.2662 229.513 52.7594 221.319 50.5639ZM95.3616 123.365L30.804 106.067C28.0727 105.335 26.4374 102.5 27.1699 99.7658C27.9024 97.0319 30.7365 95.3939 33.4678 96.1257L98.0254 113.424C100.757 114.156 102.392 116.991 101.66 119.725C100.927 122.459 98.0929 124.097 95.3616 123.365ZM103.353 93.5411L38.7953 76.2429C36.0641 75.5111 34.4287 72.6755 35.1613 69.9416C35.8938 67.2077 38.7279 65.5697 41.4591 66.3015L106.017 83.5997C108.748 84.3315 110.383 87.1671 109.651 89.901C108.918 92.6349 106.084 94.2729 103.353 93.5411ZM111.344 63.7169L46.7867 46.4187C44.0554 45.6869 42.4201 42.8513 43.1526 40.1174C43.8852 37.3835 46.7192 35.7455 49.4505 36.4773L114.008 53.7755C116.739 54.5074 118.375 57.343 117.642 60.0768C116.91 62.8107 114.076 64.4488 111.344 63.7169ZM188.625 146.757C187.365 147.485 185.991 147.649 184.749 147.317C183.508 146.984 182.399 146.154 181.673 144.894L171.249 127.184C165.599 129.399 159.107 129.791 152.651 128.061C136.263 123.67 126.451 106.656 130.847 90.2528C135.242 73.8495 152.246 64.0214 168.634 68.4124C185.022 72.8035 194.834 89.8171 190.438 106.22C188.707 112.682 185.122 118.115 180.381 121.906L190.556 139.549C191.943 142.318 191.144 145.301 188.625 146.757ZM-4.68105 139.18L198.924 193.735C196.726 201.937 188.224 206.851 180.03 204.656L6.22119 158.084C-1.97267 155.888 -6.87868 147.381 -4.68105 139.18ZM139.76 225.831C139.028 228.565 136.194 230.203 133.462 229.471L34.1427 202.858C31.4114 202.126 29.7761 199.291 30.5087 196.557C31.2412 193.823 34.0752 192.185 36.8065 192.917L59.1534 198.905L63.1491 183.992L117.775 198.629L113.779 213.541L136.126 219.529C138.857 220.261 140.493 223.097 139.76 225.831ZM180.506 103.559C177.576 114.495 166.24 121.047 155.315 118.119C144.39 115.192 137.848 103.85 140.779 92.9141C143.709 81.9786 155.045 75.4264 165.97 78.3538C176.895 81.2812 183.437 92.6236 180.506 103.559Z" fill="url(#paint0_linear)"/>
<defs>
<linearGradient id="paint0_linear" x1="202.347" y1="14.0594" x2="95.6403" y2="182.228" gradientUnits="userSpaceOnUse">
<stop stop-color="#2980F4"/>
<stop offset="1" stop-color="#1D50CB" stop-opacity="0"/>
</linearGradient>
</defs>
</svg>
