<svg width="60" height="60" viewBox="0 0 60 60" fill="none" xmlns="http://www.w3.org/2000/svg">
<path d="M25.3125 54.375H34.6875C34.9361 54.375 35.1746 54.2762 35.3504 54.1004C35.5262 53.9246 35.625 53.6861 35.625 53.4375C35.625 53.1889 35.5262 52.9504 35.3504 52.7746C35.1746 52.5988 34.9361 52.5 34.6875 52.5H25.3125C25.0639 52.5 24.8254 52.5988 24.6496 52.7746C24.4738 52.9504 24.375 53.1889 24.375 53.4375C24.375 53.6861 24.4738 53.9246 24.6496 54.1004C24.8254 54.2762 25.0639 54.375 25.3125 54.375Z" fill="#09AEEB"/>
<path d="M55.3125 0H4.6875C4.07193 0 3.46238 0.121246 2.89367 0.356815C2.32496 0.592384 1.80821 0.937662 1.37294 1.37294C0.49386 2.25201 0 3.4443 0 4.6875V42.1875C0 43.4307 0.49386 44.623 1.37294 45.5021C1.80821 45.9373 2.32496 46.2826 2.89367 46.5182C3.46238 46.7538 4.07193 46.875 4.6875 46.875H21.15L19.0406 52.5H18.75C17.7554 52.5 16.8016 52.8951 16.0984 53.5984C15.3951 54.3016 15 55.2554 15 56.25C15 57.2446 15.3951 58.1984 16.0984 58.9016C16.8016 59.6049 17.7554 60 18.75 60H41.25C42.2446 60 43.1984 59.6049 43.9016 58.9016C44.6049 58.1984 45 57.2446 45 56.25C45 55.2554 44.6049 54.3016 43.9016 53.5984C43.1984 52.8951 42.2446 52.5 41.25 52.5H40.9594L38.85 46.875H55.3125C56.5557 46.875 57.748 46.3811 58.6271 45.5021C59.5061 44.623 60 43.4307 60 42.1875V4.6875C60 4.07193 59.8788 3.46238 59.6432 2.89367C59.4076 2.32496 59.0623 1.80821 58.6271 1.37294C58.1918 0.937662 57.675 0.592384 57.1063 0.356815C56.5376 0.121246 55.9281 0 55.3125 0ZM4.6875 1.875H55.3125C56.0584 1.875 56.7738 2.17132 57.3012 2.69876C57.8287 3.22621 58.125 3.94158 58.125 4.6875V39.375H1.875V4.6875C1.875 3.94158 2.17132 3.22621 2.69876 2.69876C3.22621 2.17132 3.94158 1.875 4.6875 1.875ZM39.4313 53.7656C39.4983 53.9451 39.6187 54.0997 39.7762 54.2086C39.9338 54.3176 40.1209 54.3756 40.3125 54.375H41.25C41.7473 54.375 42.2242 54.5725 42.5758 54.9242C42.9275 55.2758 43.125 55.7527 43.125 56.25C43.125 56.7473 42.9275 57.2242 42.5758 57.5758C42.2242 57.9275 41.7473 58.125 41.25 58.125H18.75C18.2527 58.125 17.7758 57.9275 17.4242 57.5758C17.0725 57.2242 16.875 56.7473 16.875 56.25C16.875 55.7527 17.0725 55.2758 17.4242 54.9242C17.7758 54.5725 18.2527 54.375 18.75 54.375H19.6875C19.8791 54.3756 20.0662 54.3176 20.2238 54.2086C20.3813 54.0997 20.5017 53.9451 20.5688 53.7656L23.1469 46.875H36.8531L39.4313 53.7656ZM55.3125 45H4.6875C3.94158 45 3.22621 44.7037 2.69876 44.1762C2.17132 43.6488 1.875 42.9334 1.875 42.1875V41.25H58.125V42.1875C58.125 42.9334 57.8287 43.6488 57.3012 44.1762C56.7738 44.7037 56.0584 45 55.3125 45Z" fill="#09AEEB"/>
<path d="M28.125 23.4375H30.3937C30.6173 24.2096 30.932 24.9523 31.3312 25.65L29.7281 27.2531C29.5538 27.4273 29.4155 27.6341 29.3211 27.8617C29.2268 28.0893 29.1782 28.3333 29.1782 28.5797C29.1782 28.8261 29.2268 29.0701 29.3211 29.2977C29.4155 29.5253 29.5538 29.7321 29.7281 29.9063L31.05 31.2281C31.2241 31.4025 31.4309 31.5408 31.6585 31.6351C31.8862 31.7295 32.1302 31.778 32.3766 31.778C32.623 31.778 32.867 31.7295 33.0946 31.6351C33.3222 31.5408 33.529 31.4025 33.7031 31.2281L35.3062 29.625C36.0039 30.0242 36.7467 30.3389 37.5188 30.5625V32.8125C37.5188 33.3098 37.7163 33.7867 38.0679 34.1383C38.4196 34.49 38.8965 34.6875 39.3938 34.6875H41.2688C41.766 34.6875 42.2429 34.49 42.5946 34.1383C42.9462 33.7867 43.1438 33.3098 43.1438 32.8125V30.5438C43.9158 30.3202 44.6586 30.0055 45.3563 29.6063L46.9594 31.2094C47.1335 31.3837 47.3403 31.522 47.5679 31.6164C47.7955 31.7107 48.0395 31.7593 48.2859 31.7593C48.5323 31.7593 48.7763 31.7107 49.004 31.6164C49.2316 31.522 49.4384 31.3837 49.6125 31.2094L50.9344 29.8875C51.1087 29.7134 51.247 29.5066 51.3414 29.2789C51.4357 29.0513 51.4843 28.8073 51.4843 28.5609C51.4843 28.3145 51.4357 28.0705 51.3414 27.8429C51.247 27.6153 51.1087 27.4085 50.9344 27.2344L49.3125 25.65C49.7117 24.9523 50.0264 24.2096 50.25 23.4375H52.5C52.9973 23.4375 53.4742 23.24 53.8258 22.8883C54.1775 22.5367 54.375 22.0598 54.375 21.5625V19.6875C54.375 19.1902 54.1775 18.7133 53.8258 18.3617C53.4742 18.01 52.9973 17.8125 52.5 17.8125H50.2313C50.0077 17.0404 49.693 16.2977 49.2938 15.6L50.8969 13.9969C51.0712 13.8227 51.2095 13.6159 51.3039 13.3883C51.3982 13.1607 51.4468 12.9167 51.4468 12.6703C51.4468 12.4239 51.3982 12.1799 51.3039 11.9523C51.2095 11.7247 51.0712 11.5179 50.8969 11.3438L49.5938 10.0219C49.4196 9.84754 49.2128 9.70925 48.9852 9.61489C48.7576 9.52053 48.5136 9.47196 48.2672 9.47196C48.0208 9.47196 47.7768 9.52053 47.5492 9.61489C47.3216 9.70925 47.1148 9.84754 46.9406 10.0219L45.3375 11.625C44.6398 11.2258 43.8971 10.9111 43.125 10.6875V8.4375C43.125 7.94022 42.9275 7.46331 42.5758 7.11168C42.2242 6.76004 41.7473 6.5625 41.25 6.5625H39.375C38.8777 6.5625 38.4008 6.76004 38.0492 7.11168C37.6975 7.46331 37.5 7.94022 37.5 8.4375V10.7063C36.7279 10.9298 35.9852 11.2445 35.2875 11.6438L33.6844 10.0406C33.5102 9.86629 33.3034 9.728 33.0758 9.63364C32.8482 9.53928 32.6042 9.49071 32.3578 9.49071C32.1114 9.49071 31.8674 9.53928 31.6398 9.63364C31.4122 9.728 31.2054 9.86629 31.0312 10.0406L29.7094 11.3438C29.535 11.5179 29.3967 11.7247 29.3024 11.9523C29.208 12.1799 29.1595 12.4239 29.1595 12.6703C29.1595 12.9167 29.208 13.1607 29.3024 13.3883C29.3967 13.6159 29.535 13.8227 29.7094 13.9969L31.3125 15.6C30.9133 16.2977 30.5986 17.0404 30.375 17.8125H28.125C27.6277 17.8125 27.1508 18.01 26.7992 18.3617C26.4475 18.7133 26.25 19.1902 26.25 19.6875V21.5625C26.25 22.0598 26.4475 22.5367 26.7992 22.8883C27.1508 23.24 27.6277 23.4375 28.125 23.4375ZM28.125 19.6875H31.125C31.3443 19.6919 31.5583 19.6193 31.7296 19.4823C31.9009 19.3452 32.0187 19.1524 32.0625 18.9375C32.2684 17.8689 32.6791 16.8501 33.2719 15.9375C33.3922 15.7578 33.4468 15.5421 33.4263 15.3268C33.4058 15.1115 33.3115 14.91 33.1594 14.7562L31.0312 12.6656L32.3531 11.3438L34.4812 13.4719C34.635 13.624 34.8365 13.7183 35.0518 13.7388C35.2671 13.7593 35.4828 13.7047 35.6625 13.5844C36.5624 12.9894 37.5681 12.5725 38.625 12.3563C38.8399 12.3124 39.0327 12.1946 39.1698 12.0233C39.3068 11.852 39.3794 11.6381 39.375 11.4188V8.4375H41.25V11.4375C41.2456 11.6568 41.3182 11.8708 41.4552 12.0421C41.5923 12.2134 41.7851 12.3312 42 12.375C43.0686 12.5809 44.0874 12.9915 45 13.5844C45.1797 13.7047 45.3954 13.7593 45.6107 13.7388C45.826 13.7183 46.0275 13.624 46.1812 13.4719L48.3094 11.3438L49.6312 12.6656L47.5031 14.7938C47.3542 14.9404 47.2586 15.1326 47.2314 15.3398C47.2042 15.547 47.2471 15.7574 47.3531 15.9375C47.9481 16.8374 48.365 17.8431 48.5812 18.9C48.6251 19.1149 48.7429 19.3077 48.9142 19.4448C49.0855 19.5818 49.2994 19.6544 49.5187 19.65H52.5V21.525H49.5C49.2807 21.5206 49.0667 21.5932 48.8954 21.7302C48.7241 21.8673 48.6063 22.0601 48.5625 22.275C48.3613 23.3567 47.9504 24.3885 47.3531 25.3125C47.2328 25.4922 47.1782 25.7079 47.1987 25.9232C47.2192 26.1385 47.3135 26.34 47.4656 26.4937L49.5938 28.6219L48.2719 29.9063L46.1438 27.7781C45.9926 27.6351 45.7982 27.5464 45.5911 27.5261C45.3841 27.5057 45.1761 27.5548 45 27.6656C44.1001 28.2606 43.0944 28.6775 42.0375 28.8937C41.8226 28.9376 41.6298 29.0554 41.4927 29.2267C41.3557 29.398 41.2831 29.6119 41.2875 29.8312V32.8125H39.375V29.8125C39.3794 29.5932 39.3068 29.3792 39.1698 29.2079C39.0327 29.0366 38.8399 28.9188 38.625 28.875C37.5564 28.6691 36.5376 28.2585 35.625 27.6656C35.4453 27.5453 35.2296 27.4907 35.0143 27.5112C34.799 27.5317 34.5975 27.626 34.4438 27.7781L32.3531 29.9063L31.0312 28.5844L33.1594 26.4562C33.3024 26.3051 33.3911 26.1107 33.4114 25.9036C33.4318 25.6966 33.3827 25.4886 33.2719 25.3125C32.6769 24.4126 32.26 23.4069 32.0438 22.35C31.9999 22.1351 31.8821 21.9423 31.7108 21.8052C31.5395 21.6682 31.3256 21.5956 31.1063 21.6H28.125V19.6875Z" fill="#09AEEB"/>
<path d="M40.3125 25.3125C41.2396 25.3125 42.1459 25.0376 42.9167 24.5225C43.6876 24.0074 44.2884 23.2754 44.6432 22.4188C44.998 21.5623 45.0908 20.6198 44.9099 19.7105C44.7291 18.8012 44.2826 17.966 43.6271 17.3104C42.9715 16.6549 42.1363 16.2084 41.227 16.0276C40.3177 15.8467 39.3752 15.9395 38.5187 16.2943C37.6621 16.6491 36.9301 17.2499 36.415 18.0208C35.8999 18.7916 35.625 19.6979 35.625 20.625C35.625 21.8682 36.1189 23.0605 36.9979 23.9396C37.877 24.8186 39.0693 25.3125 40.3125 25.3125ZM40.3125 17.8125C40.8688 17.8125 41.4125 17.9775 41.875 18.2865C42.3376 18.5955 42.698 19.0348 42.9109 19.5487C43.1238 20.0626 43.1795 20.6281 43.071 21.1737C42.9624 21.7193 42.6946 22.2204 42.3012 22.6137C41.9079 23.0071 41.4068 23.2749 40.8612 23.3835C40.3156 23.492 39.7501 23.4363 39.2362 23.2234C38.7223 23.0105 38.283 22.6501 37.974 22.1875C37.665 21.725 37.5 21.1813 37.5 20.625C37.5 19.8791 37.7963 19.1637 38.3238 18.6363C38.8512 18.1088 39.5666 17.8125 40.3125 17.8125Z" fill="#09AEEB"/>
<path d="M17.1465 25.0406C17.2336 25.1284 17.3373 25.1982 17.4515 25.2458C17.5658 25.2934 17.6883 25.3179 17.8121 25.3179C17.9358 25.3179 18.0584 25.2934 18.1726 25.2458C18.2869 25.1982 18.3905 25.1284 18.4777 25.0406L22.2277 21.2906C22.3156 21.2034 22.3853 21.0997 22.4329 20.9855C22.4805 20.8712 22.505 20.7487 22.505 20.6249C22.505 20.5012 22.4805 20.3786 22.4329 20.2644C22.3853 20.1501 22.3156 20.0465 22.2277 19.9593L18.4777 16.2093C18.3903 16.1219 18.2865 16.0526 18.1723 16.0052C18.0581 15.9579 17.9357 15.9336 17.8121 15.9336C17.6885 15.9336 17.5661 15.9579 17.4518 16.0052C17.3376 16.0526 17.2339 16.1219 17.1465 16.2093C17.059 16.2967 16.9897 16.4005 16.9424 16.5147C16.8951 16.6289 16.8707 16.7513 16.8707 16.8749C16.8707 16.9985 16.8951 17.121 16.9424 17.2352C16.9897 17.3494 17.059 17.4531 17.1465 17.5406L20.2402 20.6249L17.1465 23.7093C17.0586 23.7965 16.9888 23.9001 16.9412 24.0144C16.8936 24.1286 16.8691 24.2512 16.8691 24.3749C16.8691 24.4987 16.8936 24.6212 16.9412 24.7355C16.9888 24.8497 17.0586 24.9534 17.1465 25.0406Z" fill="#09AEEB"/>
<path d="M9.64645 25.0406C9.7336 25.1284 9.83729 25.1982 9.95154 25.2458C10.0658 25.2934 10.1883 25.3179 10.3121 25.3179C10.4358 25.3179 10.5584 25.2934 10.6726 25.2458C10.7869 25.1982 10.8905 25.1284 10.9777 25.0406C11.0656 24.9534 11.1353 24.8497 11.1829 24.7355C11.2305 24.6212 11.255 24.4987 11.255 24.3749C11.255 24.2512 11.2305 24.1286 11.1829 24.0144C11.1353 23.9001 11.0656 23.7965 10.9777 23.7093L7.88395 20.6249L10.9777 17.5406C11.1542 17.364 11.2534 17.1246 11.2534 16.8749C11.2534 16.6253 11.1542 16.3858 10.9777 16.2093C10.8012 16.0328 10.5617 15.9336 10.3121 15.9336C10.0624 15.9336 9.82299 16.0328 9.64645 16.2093L5.89645 19.9593C5.80858 20.0465 5.73884 20.1501 5.69124 20.2644C5.64365 20.3786 5.61914 20.5012 5.61914 20.6249C5.61914 20.7487 5.64365 20.8712 5.69124 20.9855C5.73884 21.0997 5.80858 21.2034 5.89645 21.2906L9.64645 25.0406Z" fill="#09AEEB"/>
</svg>
