<svg width="49" height="60" viewBox="0 0 49 60" fill="none" xmlns="http://www.w3.org/2000/svg">
<g opacity="0.5">
<path d="M34.3356 46.7442L30.897 42.8571C29.9003 43.206 28.8538 43.4551 27.8073 43.6545L27.4585 41.7608C28.6046 41.5614 29.7508 41.2126 30.8472 40.814L31.495 40.5648L34.7841 44.3023L36.4784 43.3555L34.8837 38.6711L35.4319 38.2724C36.4784 37.4252 37.4253 36.4784 38.2724 35.4319L38.6711 34.8837L43.3555 36.4784L44.3023 34.784L40.6146 31.495L40.8638 30.8472C41.3621 29.6013 41.7109 28.3056 41.9103 27.01L42.01 26.3123L46.8438 25.3655V23.3721L42.01 22.3754L41.9103 21.6777C41.7109 20.3821 41.3621 19.0864 40.8638 17.8405L40.6146 17.1927L44.3023 13.9037L43.3555 12.2093L38.6711 13.804L38.2724 13.2558C37.4253 12.2093 36.4784 11.2625 35.4319 10.4153L34.8837 10.0166L36.4784 5.33223L34.7841 4.33555L31.495 8.07309L30.8472 7.82393C29.6013 7.32559 28.3056 6.97673 27.0099 6.7774L26.3123 6.67775L25.3156 1.79401H23.3721L22.3754 6.6279L21.7276 6.72757C20.4319 6.92691 19.1362 7.27573 17.8904 7.77407L17.2425 8.02324L13.9535 4.2857L12.2591 5.28238L13.8538 9.96678L13.3056 10.3654C12.2591 11.2126 11.3123 12.1595 10.4651 13.206L10.0664 13.7541L5.38208 12.1595L4.43523 13.8538L8.12295 17.1429L7.87378 17.7907C7.37544 19.0365 7.02655 20.3322 6.82722 21.6279L6.72757 22.3256L1.89371 23.3222V25.3156L6.72757 26.3123L6.82722 27.01C7.02655 28.3056 7.37544 29.6013 7.87378 30.8472L8.12295 31.495L4.43523 34.784L5.4319 36.4784L10.1163 34.8837L10.5648 35.4319C11.4119 36.4784 12.3588 37.4253 13.4053 38.2226L13.9535 38.6213L12.3588 43.3057L14.0531 44.3023L17.2923 40.5648L17.9402 40.814C18.9867 41.2126 20.1329 41.5614 21.279 41.7608L20.9302 43.6545C19.8837 43.4551 18.8372 43.206 17.8406 42.8571L14.402 46.7442L9.96677 44.2027L11.6113 39.2691C10.8638 38.6213 10.1163 37.8737 9.46844 37.1262L4.53487 38.7708L1.99335 34.3356L5.88042 30.897C5.53158 29.9502 5.28237 28.9535 5.08303 27.9568L0 26.9601V21.8272L5.08303 20.7807C5.28237 19.7841 5.53158 18.7874 5.88042 17.8405L1.99335 14.402L4.53487 9.96678L9.46844 11.6113C10.1163 10.8638 10.8638 10.1163 11.6113 9.46844L9.96677 4.53487L14.402 1.99336L17.8406 5.88039C18.7874 5.53155 19.784 5.2824 20.7807 5.08306L21.8273 0H26.9601L28.0066 5.08306C29.0033 5.2824 30 5.53155 30.9468 5.88039L34.3854 1.99336L38.8206 4.53487L37.1761 9.46844C37.9734 10.1163 38.6711 10.8638 39.3688 11.6113L44.3023 9.96678L46.8438 14.402L42.9568 17.8405C43.3056 18.7874 43.5548 19.7841 43.7542 20.7807L48.8372 21.7774V26.9103L43.7542 27.907C43.5548 28.9037 43.3056 29.9003 42.9568 30.8472L46.8438 34.2857L44.3023 38.7209L39.3688 37.0764C38.7209 37.8738 37.9734 38.5714 37.1761 39.2193L38.8206 44.1528L34.3356 46.7442Z" fill="#09AEEB"/>
<path d="M24.3689 39.3689C16.0965 39.3689 9.3689 32.6413 9.3689 24.3689C9.3689 16.0965 16.0965 9.3689 24.3689 9.3689C32.6413 9.3689 39.3689 16.0965 39.3689 24.3689C39.4187 32.6413 32.6413 39.3689 24.3689 39.3689ZM24.3689 11.2626C17.1928 11.2626 11.3124 17.143 11.3124 24.3191C11.3124 31.545 17.143 37.3755 24.3689 37.3755C31.5948 37.3755 37.4752 31.4951 37.4752 24.3191C37.4752 17.143 31.5948 11.2626 24.3689 11.2626Z" fill="#09AEEB"/>
<path d="M24.4187 60C23.2726 60 22.2261 59.5515 21.4287 58.7541C20.6314 57.9568 20.1829 56.9103 20.1829 55.7641V37.9734H22.1264V55.7641C22.1264 56.3621 22.3756 56.9601 22.8241 57.4086C23.2726 57.8571 23.8207 58.1063 24.4686 58.1063C25.0666 58.1063 25.6646 57.8571 26.1131 57.4086C26.5616 56.9601 26.8108 56.4119 26.8108 55.7641V37.9734H28.7543V55.7641C28.7543 56.9103 28.3058 57.9568 27.5084 58.7541C26.6114 59.6013 25.5151 60 24.4187 60Z" fill="#09AEEB"/>
<path d="M24.3688 35.8306C18.0399 35.8306 12.907 30.6479 12.907 24.319C12.907 17.9901 18.0399 12.8074 24.3688 12.8074C30.6977 12.8074 35.8804 17.9901 35.8804 24.319C35.8804 30.6977 30.7475 35.8306 24.3688 35.8306ZM24.3688 14.8007C19.0864 14.8007 14.8006 19.0864 14.8006 24.3688C14.8006 29.6512 19.0864 33.9369 24.3688 33.9369C29.6512 33.9369 33.9369 29.6512 33.9369 24.3688C33.9369 19.0864 29.6512 14.8007 24.3688 14.8007Z" fill="#09AEEB"/>
<path d="M18.4387 24.3188H16.4951C16.4951 19.9335 20.0333 16.3953 24.4187 16.3953V18.3388C21.0798 18.3388 18.4387 21.0298 18.4387 24.3188Z" fill="#09AEEB"/>
</g>
</svg>
