<svg style="display: none;">
  <symbol viewBox="0 0 76 55" xmlns="http://www.w3.org/2000/svg" id="condition_1">
    <path d="M70.571 45.6H5.428a1.086 1.086 0 0 1-1.085-1.086V5.43A5.435 5.435 0 0 1 9.77 0h56.457a5.435 5.435 0 0 1 5.43 5.429v39.085A1.086 1.086 0 0 1 70.57 45.6zM6.514 43.429h62.972v-38a3.257 3.257 0 0 0-3.258-3.258H9.771A3.257 3.257 0 0 0 6.514 5.43v38z"></path>
    <path d="M66.23 41.257H9.771a1.086 1.086 0 0 1-1.085-1.086V5.428a1.086 1.086 0 0 1 1.085-1.085H66.23a1.086 1.086 0 0 1 1.086 1.085v34.743a1.086 1.086 0 0 1-1.086 1.086zm-55.372-2.171h54.286V6.514H10.858v32.572zm58.628 15.2H6.514A6.522 6.522 0 0 1 0 47.77v-3.257a1.086 1.086 0 0 1 1.086-1.086h73.828A1.086 1.086 0 0 1 76 44.514v3.257a6.522 6.522 0 0 1-6.514 6.515zM2.17 45.6v2.171a4.343 4.343 0 0 0 4.343 4.343h62.972a4.343 4.343 0 0 0 4.343-4.343V45.6H2.17z"></path>
    <path d="M37.012 34.743a1.085 1.085 0 0 1-.988-.636l-9.87-21.715a1.085 1.085 0 0 1 1.437-1.437l21.715 9.87a1.085 1.085 0 0 1-.236 2.053l-9.16 1.833-1.833 9.163a1.086 1.086 0 0 1-1.065.869zm-7.683-20.614l7.275 16.015 1.313-6.57a1.087 1.087 0 0 1 .852-.851l6.57-1.314-16.01-7.28z"></path>
    <path d="M38.21 24.555l1.536-1.535 9.868 9.868-1.535 1.535-9.868-9.868z"></path>
  </symbol>
  <symbol viewBox="0 0 51 62" xmlns="http://www.w3.org/2000/svg" id="condition_2">
    <path fill-rule="evenodd" clip-rule="evenodd" d="M36.885 19.02h10.243a2.64 2.64 0 0 1 2.636 2.636v1.561a2.64 2.64 0 0 1-2.212 2.602L31.429 43.856l-.007 5.669a.879.879 0 0 1-1.758-.002l.007-5.124h-3.053a.879.879 0 1 1 0-1.758h3.54l15.006-16.787H5.368l5.312 5.978a.879.879 0 0 1-1.314 1.167l-6.38-7.18a2.64 2.64 0 0 1-2.21-2.602v-1.56a2.64 2.64 0 0 1 2.636-2.637h10.186a12.77 12.77 0 0 1-1.128-5.249C12.47 6.73 18.199 1 25.24 1a12.77 12.77 0 0 1 10.58 5.614.879.879 0 1 1-1.456.986 11.013 11.013 0 0 0-9.124-4.843c-6.073 0-11.014 4.941-11.014 11.014 0 1.84.46 3.645 1.33 5.249h5.525c-.485-.62-.767-1.355-.767-2.144a.879.879 0 0 1 1.757 0c0 1.004.985 1.878 2.285 2.143v-4.427c-2.292-.32-4.042-1.958-4.042-3.926 0-1.967 1.75-3.605 4.042-3.926V5.394a.879.879 0 1 1 1.758 0v1.363c2.234.36 3.925 1.975 3.925 3.91a.879.879 0 1 1-1.758 0c0-.974-.926-1.826-2.167-2.119v4.42c2.234.358 3.925 1.974 3.925 3.908 0 .789-.283 1.524-.768 2.144h5.653a11.059 11.059 0 0 0 .996-7.952.879.879 0 1 1 1.704-.43 12.82 12.82 0 0 1-.74 8.382zm-10.77-.026c1.241-.293 2.167-1.144 2.167-2.118s-.926-1.825-2.167-2.118v4.236zM24.357 8.523c-1.3.265-2.285 1.14-2.285 2.143 0 1.004.985 1.878 2.285 2.143V8.523zm22.77 15.573a.88.88 0 0 0 .88-.879v-1.56a.88.88 0 0 0-.88-.88H3.412a.88.88 0 0 0-.88.88v1.56a.88.88 0 0 0 .88.879h43.716z"></path>
    <path d="M30.539 52.746c.486 0 .879.395.878.88l-.005 4.185a3.21 3.21 0 0 1-.673 1.977c-1.003 1.3-2.834 1.576-4.205.721 0 0-5.734-3.582-5.845-3.668-.9-.733-1.677-1.366-1.677-2.711V43.854l-6.921-7.789a.879.879 0 1 1 1.314-1.167l6.88 7.743h2.233a.879.879 0 1 1 0 1.758H20.77v9.73c0 .47.169.649 1.03 1.35.068.055 5.658 3.535 5.658 3.535.95.61 2.232-.095 2.197-1.206l.005-4.184c0-.485.394-.878.879-.878z"></path>
    <path clip-rule="evenodd" d="M36.885 19.02h10.243a2.64 2.64 0 0 1 2.636 2.636v1.561a2.64 2.64 0 0 1-2.212 2.602L31.429 43.856l-.007 5.669a.879.879 0 0 1-1.758-.002l.007-5.124h-3.053a.879.879 0 1 1 0-1.758h3.54l15.006-16.787H5.368l5.312 5.978a.879.879 0 0 1-1.314 1.167l-6.38-7.18a2.64 2.64 0 0 1-2.21-2.602v-1.56a2.64 2.64 0 0 1 2.636-2.637h10.186a12.77 12.77 0 0 1-1.128-5.249C12.47 6.73 18.199 1 25.24 1a12.77 12.77 0 0 1 10.58 5.614.879.879 0 1 1-1.456.986 11.013 11.013 0 0 0-9.124-4.843c-6.073 0-11.014 4.941-11.014 11.014 0 1.84.46 3.645 1.33 5.249h5.525c-.485-.62-.767-1.355-.767-2.144a.879.879 0 0 1 1.757 0c0 1.004.985 1.878 2.285 2.143v-4.427c-2.292-.32-4.042-1.958-4.042-3.926 0-1.967 1.75-3.605 4.042-3.926V5.394a.879.879 0 1 1 1.758 0v1.363c2.234.36 3.925 1.975 3.925 3.91a.879.879 0 1 1-1.758 0c0-.974-.926-1.826-2.167-2.119v4.42c2.234.358 3.925 1.974 3.925 3.908 0 .789-.283 1.524-.768 2.144h5.653a11.059 11.059 0 0 0 .996-7.952.879.879 0 1 1 1.704-.43 12.82 12.82 0 0 1-.74 8.382zm-10.77-.026c1.241-.293 2.167-1.144 2.167-2.118s-.926-1.825-2.167-2.118v4.236zM24.357 8.523c-1.3.265-2.285 1.14-2.285 2.143 0 1.004.985 1.878 2.285 2.143V8.523zm22.77 15.573a.88.88 0 0 0 .88-.879v-1.56a.88.88 0 0 0-.88-.88H3.412a.88.88 0 0 0-.88.88v1.56a.88.88 0 0 0 .88.879h43.716z" stroke-width=".5"></path>
    <path d="M30.539 52.746c.486 0 .879.395.878.88l-.005 4.185a3.21 3.21 0 0 1-.673 1.977c-1.003 1.3-2.834 1.576-4.205.721 0 0-5.734-3.582-5.845-3.668-.9-.733-1.677-1.366-1.677-2.711V43.854l-6.921-7.789a.879.879 0 1 1 1.314-1.167l6.88 7.743h2.233a.879.879 0 1 1 0 1.758H20.77v9.73c0 .47.169.649 1.03 1.35.068.055 5.658 3.535 5.658 3.535.95.61 2.232-.095 2.197-1.206l.005-4.184c0-.485.394-.878.879-.878z" stroke-width=".5"></path>
  </symbol>
  <symbol viewBox="0 0 60 60" xmlns="http://www.w3.org/2000/svg" id="condition_3">
    <path d="M59.568 20.18l-29-20a.993.993 0 0 0-1.14 0l-29 20A1 1 0 0 0 .998 22h3v1a3.009 3.009 0 0 0 3 3v1a3.01 3.01 0 0 0 2 2.82v14.36a3.01 3.01 0 0 0-2 2.82v1a3.009 3.009 0 0 0-3 3v1.18a3.01 3.01 0 0 0-2 2.82v4a1 1 0 0 0 1 1h54a1 1 0 0 0 1-1v-4a3.01 3.01 0 0 0-2-2.82V51a3.009 3.009 0 0 0-3-3v-1a3.01 3.01 0 0 0-2-2.82V29.82a3.01 3.01 0 0 0 2-2.82v-1a3.009 3.009 0 0 0 3-3v-1h3a1 1 0 0 0 .57-1.82zM8.998 47a1 1 0 0 1 1-1h6a1 1 0 0 1 1 1v1h-8v-1zm34-17.18v14.36a3.01 3.01 0 0 0-2 2.82v1h-22v-1a3.01 3.01 0 0 0-2-2.82V29.82a3.01 3.01 0 0 0 2-2.82v-1h22v1a3.01 3.01 0 0 0 2 2.82zm7 16.18a1 1 0 0 1 1 1v1h-8v-1a1 1 0 0 1 1-1h6zm-5-2V30h4v14h-4zm-28-17a1 1 0 0 1-1 1h-6a1 1 0 0 1-1-1v-1h8v1zm-2 3v14h-4V30h4zm41 25v3h-52v-3a1 1 0 0 1 1-1h50a1 1 0 0 1 1 1zm-3-5a1 1 0 0 1 1 1v1h-48v-1a1 1 0 0 1 1-1h46zm-2-23a1 1 0 0 1-1 1h-6a1 1 0 0 1-1-1v-1h8v1zm3-4a1 1 0 0 1-1 1h-46a1 1 0 0 1-1-1v-1h48v1zm-49.79-3l25.79-17.79L55.788 20H4.208z"></path>
    <path d="M29.999 11a1 1 0 1 1 1-1h2a3 3 0 0 0-2-2.816V6h-2v1.184a2.993 2.993 0 0 0 1 5.816 1 1 0 1 1-1 1h-2a3 3 0 0 0 2 2.816V18h2v-1.184a2.993 2.993 0 0 0-1-5.816zm7.393 20.081l-7-3a1.007 1.007 0 0 0-.788 0l-7 3a1 1 0 0 0-.606.919v3.515a6.955 6.955 0 0 0 2.051 4.95l5.242 5.242a1 1 0 0 0 1.414 0l5.242-5.242a6.954 6.954 0 0 0 2.051-4.95V32a1 1 0 0 0-.606-.919zm-1.394 4.434a4.972 4.972 0 0 1-1.465 3.536l-4.535 4.535-4.535-4.535a4.97 4.97 0 0 1-1.465-3.536v-2.856l6-2.571 6 2.571v2.856z"></path>
    <path d="M28.706 35.293l-1.414 1.414 2 2a1 1 0 0 0 1.414 0l4-4-1.414-1.414-3.293 3.293-1.293-1.293z"></path>
  </symbol>
</svg>