<svg width="56" height="62" viewBox="0 0 56 62" fill="none" xmlns="http://www.w3.org/2000/svg">
<path d="M20.1842 1C14.803 1 9.96877 3.95391 6.52878 8.63081C3.0888 13.3077 1 19.7215 1 26.814V35.186C1 42.2785 3.0888 48.6923 6.52878 53.3692C9.96877 58.0461 14.803 61 20.1842 61H35.8158C41.197 61 46.0312 58.0461 49.4712 53.3692C52.9112 48.6923 55 42.2785 55 35.186V26.814C55 19.7215 52.9112 13.3077 49.4712 8.63081C46.0312 3.95391 41.197 1 35.8158 1H20.1842ZM20.1842 2.39535H35.8158C40.669 2.39535 45.0784 5.03487 48.3166 9.4375C51.5549 13.8401 53.5789 19.992 53.5789 26.814V35.186C53.5789 42.008 51.5549 48.1381 48.3166 52.5407C45.0784 56.9433 40.669 59.6046 35.8158 59.6046H20.1842C15.331 59.6046 10.9216 56.9433 7.68339 52.5407C4.44514 48.1381 2.42105 42.008 2.42105 35.186V26.814C2.42105 19.992 4.44514 13.8401 7.68339 9.4375C10.9216 5.03487 15.331 2.39535 20.1842 2.39535ZM35.1053 10.0698C31.1653 10.0698 27.7534 12.5101 25.3799 16.3052C23.0065 20.1003 21.6053 25.2834 21.6053 31C21.6053 36.7166 23.0065 41.8779 25.3799 45.673C27.7534 49.4681 31.1653 51.9302 35.1053 51.9302C39.0452 51.9302 42.6306 49.4861 45.1859 45.6948C47.7411 41.9034 49.3158 36.7311 49.3158 31C49.3158 25.2689 47.7411 20.0748 45.1859 16.2834C42.6306 12.4921 39.0452 10.0698 35.1053 10.0698ZM19.4293 11.4433C19.1941 11.4559 18.9694 11.5917 18.852 11.7922C15.8026 16.8773 13.9778 24.1416 13.7895 30.9782C13.7836 31.3435 14.1169 31.6811 14.4889 31.6868C14.8609 31.6925 15.2047 31.3653 15.2105 31C15.3928 24.3845 17.2216 17.3039 20.0954 12.5116C20.378 12.0738 19.9549 11.3952 19.4293 11.4433ZM35.1053 11.4651C37.4875 11.4651 39.7864 12.5101 41.7664 14.3866C41.6692 14.4601 41.5918 14.5589 41.5444 14.6701L36.6151 26.4433C36.1477 26.2412 35.6446 26.1163 35.1053 26.1163C34.5659 26.1163 34.0629 26.2412 33.5954 26.4433L28.6661 14.6701C28.6381 14.607 28.6006 14.548 28.5551 14.4956C30.4409 12.5541 32.6793 11.4651 35.1053 11.4651ZM42.7656 15.4767C43.1875 15.9666 43.6036 16.4779 43.9868 17.0465C46.2578 20.416 47.7462 25.1081 47.8725 30.3023C45.0241 30.3023 42.1693 30.3023 39.324 30.3023C39.1708 29.0953 38.6315 28.0108 37.8367 27.2496C39.4506 23.3543 41.1251 19.3898 42.7656 15.4767ZM27.5337 15.6948C29.1351 19.5563 30.7927 23.3987 32.3822 27.2635C31.5889 28.0244 31.0395 29.0967 30.8865 30.3023C28.2778 30.3023 25.6603 30.3023 23.0485 30.3023C23.1589 25.0931 24.4728 20.4141 26.5789 17.0465C26.8809 16.5637 27.2034 16.1212 27.5337 15.6948ZM9.4375 19.1177C9.15569 19.153 8.90675 19.3703 8.83799 19.641C7.84662 22.996 7.45947 26.9549 7.39474 30.9782C7.38891 31.3435 7.72213 31.6811 8.09416 31.6868C8.46619 31.6925 8.80998 31.3653 8.81579 31C8.8793 27.0525 9.27929 23.1988 10.2146 20.0334C10.3715 19.5827 9.91728 19.0476 9.4375 19.1177ZM35.1053 27.5116C36.6158 27.5116 37.9474 28.9933 37.9474 31C37.9474 33.0068 36.6158 34.4884 35.1053 34.4884C33.5947 34.4884 32.2632 33.0068 32.2632 31C32.2632 28.9933 33.5947 27.5116 35.1053 27.5116ZM23.0485 31.6977C25.6601 31.6977 28.2781 31.6977 30.8865 31.6977C31.0355 32.9089 31.5808 33.9869 32.3756 34.7519C30.7645 38.5667 29.1273 42.4637 27.5115 46.3052C27.1882 45.886 26.875 45.4269 26.5789 44.9535C24.4718 41.5842 23.1578 36.9099 23.0485 31.6977ZM47.8725 31.6977C47.7487 36.8962 46.26 41.5589 43.9868 44.9317C43.622 45.473 43.2322 45.987 42.8322 46.4578C41.1906 42.5507 39.4621 38.6452 37.8413 34.7458C38.628 33.9856 39.1718 32.9189 39.324 31.7195C39.3271 31.7096 39.3301 31.7023 39.3332 31.6969C42.1565 31.6975 45.0314 31.6977 47.8725 31.6977ZM33.5954 35.5567C34.0639 35.7598 34.5645 35.8837 35.1053 35.8837C35.6461 35.8837 36.1467 35.7598 36.6151 35.5567L41.6554 47.3081C41.6898 47.3974 41.7431 47.4796 41.8109 47.548C39.8183 49.4638 37.5096 50.5349 35.1053 50.5349C32.6872 50.5349 30.4665 49.4643 28.5847 47.5348C30.2067 43.5779 31.9275 39.5329 33.5954 35.5567ZM15.1217 37.9549C14.7297 38.0055 14.4324 38.4271 14.5222 38.8052C14.9603 40.8468 15.9926 43.4499 16.676 45.1933C16.8086 45.5373 17.2488 45.7311 17.5985 45.5994C17.9483 45.4678 18.1438 45.0347 18.0082 44.6919C17.3225 42.9426 16.292 40.3539 15.8988 38.5218C15.8344 38.179 15.4746 37.9165 15.1217 37.9549ZM8.74918 38.6526C8.35854 38.6936 8.05163 39.1026 8.12747 39.4811C8.31804 40.4978 8.57382 41.465 8.83799 42.359C8.94263 42.7129 9.36575 42.9414 9.72615 42.8387C10.0866 42.7359 10.3193 42.3205 10.2146 41.9666C9.95279 41.0804 9.67946 40.1767 9.50411 39.2413C9.44988 38.8986 9.10135 38.6269 8.74918 38.6526Z" fill="#FF6D2A" stroke="#FF6D2A" stroke-width="0.3"/>
</svg>
