<svg width="62" height="62" viewBox="0 0 62 62" fill="none" xmlns="http://www.w3.org/2000/svg">
<path d="M27.94 41.44C27.58 41.44 27.28 41.14 27.34 40.78C27.64 36.58 31.12 34.66 31.3 34.6C31.6 34.42 31.96 34.54 32.14 34.84C32.32 35.14 32.2 35.5 31.9 35.68C31.78 35.74 28.84 37.36 28.6 40.84C28.54 41.2 28.3 41.44 27.94 41.44Z" fill="#FF6D2A"/>
<path d="M28.3 39.4C28.12 39.4 27.88 39.28 27.76 39.1L25.72 35.74C25.24 34.9 25.18 33.94 25.54 33.1C25.9 32.2 26.68 31.6 27.58 31.42C28.66 31.18 29.56 30.76 30.4 30.1L32.8 28.3C34.06 27.34 35.74 27.16 37.12 27.76C38.2 28.24 38.86 29.08 39.04 30.16C39.4 32.08 38.08 34.06 36.1 34.54L34.6 34.96C34.3 35.02 33.94 34.84 33.88 34.54C33.82 34.24 34 33.88 34.3 33.82L35.86 33.46C37.18 33.16 38.14 31.72 37.9 30.46C37.78 29.74 37.36 29.26 36.64 28.96C35.68 28.54 34.48 28.66 33.58 29.32L31.18 31.12C30.22 31.84 29.08 32.38 27.88 32.62C27.28 32.74 26.86 33.1 26.62 33.64C26.38 34.18 26.44 34.72 26.74 35.2L28.78 38.56C28.96 38.86 28.84 39.22 28.6 39.4C28.54 39.4 28.42 39.4 28.3 39.4Z" fill="#FF6D2A"/>
<path d="M18.58 53.38C17.44 53.38 16.66 52.6 16.42 51.7C16.12 50.68 16.36 49.36 17.74 48.82C19.42 48.1 19.6 47.5 20.38 45.16L20.5 44.74C20.86 43.54 21.76 42.58 22.9 42.1C24.04 41.62 25.36 41.62 26.5 42.16L31.3 44.5C31.6 44.62 31.72 45.04 31.6 45.34C31.48 45.64 31.06 45.76 30.76 45.64L25.96 43.3C25.18 42.88 24.22 42.88 23.38 43.24C22.54 43.6 21.94 44.32 21.64 45.16L21.52 45.58C20.8 47.98 20.44 49.12 18.22 50.02C17.5 50.32 17.44 50.98 17.56 51.4C17.68 51.88 18.1 52.3 18.82 52.18L19.78 51.82C21.7 51.04 23.2 49.6 24.04 47.74C24.22 47.32 24.64 46.96 25.12 46.9C25.6 46.78 26.08 46.96 26.44 47.26C29.44 50.14 32.32 51.34 34.9 50.86C37.48 50.38 39.7 48.16 41.38 44.44C41.44 44.32 41.5 44.14 41.56 44.02C45.1 35.2 44.32 27.88 44.32 27.82C44.14 24.04 43.36 20.68 41.98 17.86C40 13.48 35.8 10.48 31.18 9.94C28.6 9.64 26.2 10.12 24.1 11.38C21.34 13.06 19.66 16.12 19.84 19.36C20.02 23.5 23.14 25.06 25 25.66C25.9 25.96 26.62 26.68 26.86 27.64C26.98 28.18 27.4 28.6 27.94 28.72C28.3 28.78 28.48 29.14 28.42 29.44C28.36 29.74 28 29.98 27.7 29.92C26.68 29.68 25.9 28.9 25.66 27.94C25.54 27.46 25.12 27.04 24.64 26.86C22.9 26.32 18.88 24.52 18.64 19.48C18.46 15.76 20.32 12.28 23.5 10.36C25.78 8.98 28.42 8.44 31.3 8.74C36.4 9.28 40.9 12.58 43.18 17.26C44.62 20.26 45.46 23.74 45.64 27.64C45.7 27.88 46.48 35.26 42.76 44.38C42.7 44.56 42.64 44.68 42.58 44.86C40.72 48.94 38.14 51.4 35.2 52C32.2 52.6 29.02 51.28 25.66 48.1C25.54 48.04 25.48 48.04 25.42 48.04C25.36 48.04 25.24 48.1 25.18 48.22C24.22 50.38 22.42 52 20.26 52.9L19.24 53.32C19.24 53.32 19.18 53.32 19.12 53.32C18.94 53.32 18.76 53.38 18.58 53.38Z" fill="#FF6D2A"/>
<path d="M34.78 24.22C34.48 24.22 34.18 23.98 34.18 23.62C34.12 22.9 33.94 22.36 33.64 22.06C33.34 21.76 32.92 21.82 32.92 21.82C32.56 21.88 32.26 21.64 32.26 21.28C32.2 20.92 32.44 20.62 32.8 20.62C32.92 20.62 33.7 20.5 34.48 21.1C35.08 21.58 35.44 22.42 35.5 23.56C35.44 23.92 35.14 24.22 34.78 24.22Z" fill="#FF6D2A"/>
<path d="M31 61C14.44 61 1 47.56 1 31C1 14.44 14.44 1 31 1C47.56 1 61 14.44 61 31C61 47.56 47.56 61 31 61ZM31 2.2C15.16 2.2 2.2 15.16 2.2 31C2.2 46.84 15.1 59.8 31 59.8C46.84 59.8 59.8 46.9 59.8 31C59.8 15.16 46.84 2.2 31 2.2Z" fill="#FF6D2A"/>
<path d="M23.74 39.16C23.68 39.16 23.62 39.16 23.56 39.1C22.06 38.62 21.34 38.62 19.24 38.8C18.88 38.8 18.52 38.86 18.16 38.92C16.36 39.1 14.5 39.28 12.7 38.74C10.48 38.08 8.32 35.86 8.86 33.4C9.16 32.02 10.12 31.06 11.02 30.16C11.8 29.38 12.52 28.66 12.82 27.76C13.06 26.98 12.94 26.08 12.4 25.3C11.92 24.52 11.14 24.04 10.36 23.98H6.34C5.98 23.98 5.74 23.68 5.74 23.38C5.74 23.08 6.04 22.78 6.34 22.78H10.48C11.62 22.9 12.76 23.56 13.48 24.64C14.2 25.72 14.38 27.04 14.02 28.12C13.6 29.32 12.76 30.16 11.92 31C11.08 31.84 10.3 32.62 10.06 33.64C9.7 35.32 11.32 37.06 13.06 37.54C14.62 38.02 16.3 37.84 18.04 37.66C18.4 37.6 18.76 37.6 19.12 37.54C21.22 37.36 22.18 37.36 23.92 37.9C24.22 38.02 24.4 38.38 24.28 38.68C24.22 39.04 23.98 39.16 23.74 39.16Z" fill="#FF6D2A"/>
<path d="M27.94 41.44C27.58 41.44 27.28 41.14 27.34 40.78C27.64 36.58 31.12 34.66 31.3 34.6C31.6 34.42 31.96 34.54 32.14 34.84C32.32 35.14 32.2 35.5 31.9 35.68C31.78 35.74 28.84 37.36 28.6 40.84C28.54 41.2 28.3 41.44 27.94 41.44Z" stroke="#FF6D2A" stroke-width="0.7"/>
<path d="M28.3 39.4C28.12 39.4 27.88 39.28 27.76 39.1L25.72 35.74C25.24 34.9 25.18 33.94 25.54 33.1C25.9 32.2 26.68 31.6 27.58 31.42C28.66 31.18 29.56 30.76 30.4 30.1L32.8 28.3C34.06 27.34 35.74 27.16 37.12 27.76C38.2 28.24 38.86 29.08 39.04 30.16C39.4 32.08 38.08 34.06 36.1 34.54L34.6 34.96C34.3 35.02 33.94 34.84 33.88 34.54C33.82 34.24 34 33.88 34.3 33.82L35.86 33.46C37.18 33.16 38.14 31.72 37.9 30.46C37.78 29.74 37.36 29.26 36.64 28.96C35.68 28.54 34.48 28.66 33.58 29.32L31.18 31.12C30.22 31.84 29.08 32.38 27.88 32.62C27.28 32.74 26.86 33.1 26.62 33.64C26.38 34.18 26.44 34.72 26.74 35.2L28.78 38.56C28.96 38.86 28.84 39.22 28.6 39.4C28.54 39.4 28.42 39.4 28.3 39.4Z" stroke="#FF6D2A" stroke-width="0.7"/>
<path d="M18.58 53.38C17.44 53.38 16.66 52.6 16.42 51.7C16.12 50.68 16.36 49.36 17.74 48.82C19.42 48.1 19.6 47.5 20.38 45.16L20.5 44.74C20.86 43.54 21.76 42.58 22.9 42.1C24.04 41.62 25.36 41.62 26.5 42.16L31.3 44.5C31.6 44.62 31.72 45.04 31.6 45.34C31.48 45.64 31.06 45.76 30.76 45.64L25.96 43.3C25.18 42.88 24.22 42.88 23.38 43.24C22.54 43.6 21.94 44.32 21.64 45.16L21.52 45.58C20.8 47.98 20.44 49.12 18.22 50.02C17.5 50.32 17.44 50.98 17.56 51.4C17.68 51.88 18.1 52.3 18.82 52.18L19.78 51.82C21.7 51.04 23.2 49.6 24.04 47.74C24.22 47.32 24.64 46.96 25.12 46.9C25.6 46.78 26.08 46.96 26.44 47.26C29.44 50.14 32.32 51.34 34.9 50.86C37.48 50.38 39.7 48.16 41.38 44.44C41.44 44.32 41.5 44.14 41.56 44.02C45.1 35.2 44.32 27.88 44.32 27.82C44.14 24.04 43.36 20.68 41.98 17.86C40 13.48 35.8 10.48 31.18 9.94C28.6 9.64 26.2 10.12 24.1 11.38C21.34 13.06 19.66 16.12 19.84 19.36C20.02 23.5 23.14 25.06 25 25.66C25.9 25.96 26.62 26.68 26.86 27.64C26.98 28.18 27.4 28.6 27.94 28.72C28.3 28.78 28.48 29.14 28.42 29.44C28.36 29.74 28 29.98 27.7 29.92C26.68 29.68 25.9 28.9 25.66 27.94C25.54 27.46 25.12 27.04 24.64 26.86C22.9 26.32 18.88 24.52 18.64 19.48C18.46 15.76 20.32 12.28 23.5 10.36C25.78 8.98 28.42 8.44 31.3 8.74C36.4 9.28 40.9 12.58 43.18 17.26C44.62 20.26 45.46 23.74 45.64 27.64C45.7 27.88 46.48 35.26 42.76 44.38C42.7 44.56 42.64 44.68 42.58 44.86C40.72 48.94 38.14 51.4 35.2 52C32.2 52.6 29.02 51.28 25.66 48.1C25.54 48.04 25.48 48.04 25.42 48.04C25.36 48.04 25.24 48.1 25.18 48.22C24.22 50.38 22.42 52 20.26 52.9L19.24 53.32C19.24 53.32 19.18 53.32 19.12 53.32C18.94 53.32 18.76 53.38 18.58 53.38Z" stroke="#FF6D2A" stroke-width="0.7"/>
<path d="M34.78 24.22C34.48 24.22 34.18 23.98 34.18 23.62C34.12 22.9 33.94 22.36 33.64 22.06C33.34 21.76 32.92 21.82 32.92 21.82C32.56 21.88 32.26 21.64 32.26 21.28C32.2 20.92 32.44 20.62 32.8 20.62C32.92 20.62 33.7 20.5 34.48 21.1C35.08 21.58 35.44 22.42 35.5 23.56C35.44 23.92 35.14 24.22 34.78 24.22Z" stroke="#FF6D2A" stroke-width="0.7"/>
<path d="M31 61C14.44 61 1 47.56 1 31C1 14.44 14.44 1 31 1C47.56 1 61 14.44 61 31C61 47.56 47.56 61 31 61ZM31 2.2C15.16 2.2 2.2 15.16 2.2 31C2.2 46.84 15.1 59.8 31 59.8C46.84 59.8 59.8 46.9 59.8 31C59.8 15.16 46.84 2.2 31 2.2Z" stroke="#FF6D2A" stroke-width="0.7"/>
<path d="M23.74 39.16C23.68 39.16 23.62 39.16 23.56 39.1C22.06 38.62 21.34 38.62 19.24 38.8C18.88 38.8 18.52 38.86 18.16 38.92C16.36 39.1 14.5 39.28 12.7 38.74C10.48 38.08 8.32 35.86 8.86 33.4C9.16 32.02 10.12 31.06 11.02 30.16C11.8 29.38 12.52 28.66 12.82 27.76C13.06 26.98 12.94 26.08 12.4 25.3C11.92 24.52 11.14 24.04 10.36 23.98H6.34C5.98 23.98 5.74 23.68 5.74 23.38C5.74 23.08 6.04 22.78 6.34 22.78H10.48C11.62 22.9 12.76 23.56 13.48 24.64C14.2 25.72 14.38 27.04 14.02 28.12C13.6 29.32 12.76 30.16 11.92 31C11.08 31.84 10.3 32.62 10.06 33.64C9.7 35.32 11.32 37.06 13.06 37.54C14.62 38.02 16.3 37.84 18.04 37.66C18.4 37.6 18.76 37.6 19.12 37.54C21.22 37.36 22.18 37.36 23.92 37.9C24.22 38.02 24.4 38.38 24.28 38.68C24.22 39.04 23.98 39.16 23.74 39.16Z" stroke="#FF6D2A" stroke-width="0.7"/>
</svg>
