<svg width="66" height="62" viewBox="0 0 66 62" fill="none" xmlns="http://www.w3.org/2000/svg">
<path d="M9.76692 61C9.73274 61 9.69827 60.9937 9.66507 60.9808C9.55726 60.939 9.48548 60.8353 9.48335 60.7188L9.35242 53.4509L1.26678 52.9644C1.15656 52.9578 1.05996 52.8871 1.01967 52.7833C0.979243 52.6793 1.00222 52.5613 1.07854 52.4807L25.0336 27.1731C25.0871 27.1165 25.1613 27.0846 25.2387 27.0846C25.2391 27.0846 25.2396 27.0846 25.24 27.0846C25.3179 27.0849 25.3922 27.1176 25.4455 27.1749L33.2067 35.5246C33.3093 35.6348 33.3093 35.8062 33.2067 35.9163L9.97389 60.9095C9.91928 60.9684 9.84395 61 9.76692 61ZM1.9118 52.4294L9.64819 52.8949C9.796 52.9038 9.91218 53.0261 9.91488 53.1756L10.038 60.0035L32.6109 35.7204L25.2369 27.7873L1.9118 52.4294Z" fill="#FF6D2A"/>
<path d="M40.7614 27.6572C40.684 27.6572 40.6099 27.6253 40.5563 27.5687L32.7949 19.369C32.6902 19.2583 32.6902 19.084 32.7949 18.9732L45.2582 5.80613C45.311 5.75043 45.3838 5.7185 45.4602 5.71764C45.4612 5.71764 45.4624 5.71764 45.4634 5.71764C45.5385 5.71764 45.6107 5.74771 45.6639 5.80155L47.2218 7.37405C49.0644 9.11895 50.0508 11.5016 49.9932 14.0769C49.9372 16.5754 48.9211 19.0114 47.1319 20.9362L40.9681 27.5668C40.9149 27.6241 40.8406 27.6569 40.7626 27.6572C40.7623 27.6572 40.7618 27.6572 40.7614 27.6572ZM33.3926 19.1711L40.7597 26.9543L46.7185 20.5441C48.4118 18.7225 49.3735 16.4212 49.4262 14.0638C49.4803 11.6534 48.5572 9.42366 46.8274 7.78529L45.4682 6.41354L33.3926 19.1711Z" fill="#FF6D2A"/>
<path d="M56.2332 61C56.1564 61 56.0811 60.9686 56.0262 60.9095L18.868 20.9362C15.085 16.8663 15.0484 10.9064 18.7846 7.36775L20.336 5.80155C20.3899 5.747 20.4599 5.71564 20.5399 5.71764C20.6162 5.7185 20.689 5.75043 20.7417 5.80613L64.9214 52.4805C65.0037 52.5675 65.0234 52.6971 64.9708 52.8049C64.9182 52.9128 64.803 52.976 64.6861 52.9631L55.1487 51.9327L56.507 60.6291C56.5152 60.6558 56.5196 60.6841 56.5196 60.7135C56.5196 60.8716 56.3925 60.9999 56.2359 60.9999C56.2343 61 56.234 61 56.2332 61ZM20.5321 6.41368L19.1793 7.77913C15.6687 11.1044 15.7165 16.7087 19.2818 20.5443L55.8093 59.8392L54.5306 51.6528C54.5169 51.5649 54.5445 51.4754 54.6053 51.4108C54.6661 51.3463 54.7525 51.3137 54.841 51.3236L63.9757 52.3106L20.5321 6.41368Z" fill="#FF6D2A"/>
<path d="M45.4634 6.2904C45.388 6.2904 45.3129 6.26033 45.2571 6.20062C42.3851 3.12979 38.2613 1.57276 33.0001 1.57276C27.7389 1.57276 23.615 3.12979 20.743 6.20062C20.6355 6.31546 20.456 6.3209 20.342 6.21222C20.2281 6.10368 20.223 5.9224 20.3305 5.80742C23.3139 2.61746 27.5766 1 33.0001 1C38.4236 1 42.6862 2.61746 45.6696 5.80742C45.7773 5.9224 45.772 6.10368 45.6581 6.21222C45.6034 6.26448 45.5334 6.2904 45.4634 6.2904Z" fill="#FF6D2A"/>
<path d="M39.2321 12.5807C39.1431 12.5807 39.0556 12.5386 39.0003 12.4598C37.5925 10.453 35.5739 9.43554 33.0001 9.43554C30.4264 9.43554 28.4076 10.453 27 12.4598C26.9093 12.5888 26.7324 12.6195 26.6045 12.5281C26.4767 12.4366 26.4463 12.2579 26.5368 12.1289C28.0357 9.99226 30.2706 8.86293 33.0001 8.86293C35.7295 8.86293 37.9644 9.99226 39.4633 12.1289C39.5539 12.2579 39.5237 12.4368 39.3956 12.5281C39.3458 12.5636 39.2887 12.5807 39.2321 12.5807Z" fill="#FF6D2A"/>
<path d="M9.76692 61C9.73274 61 9.69827 60.9937 9.66507 60.9808C9.55726 60.939 9.48548 60.8353 9.48335 60.7188L9.35242 53.4509L1.26678 52.9644C1.15656 52.9578 1.05996 52.8871 1.01967 52.7833C0.979243 52.6793 1.00222 52.5613 1.07854 52.4807L25.0336 27.1731C25.0871 27.1165 25.1613 27.0846 25.2387 27.0846C25.2391 27.0846 25.2396 27.0846 25.24 27.0846C25.3179 27.0849 25.3922 27.1176 25.4455 27.1749L33.2067 35.5246C33.3093 35.6348 33.3093 35.8062 33.2067 35.9163L9.97389 60.9095C9.91928 60.9684 9.84395 61 9.76692 61ZM1.9118 52.4294L9.64819 52.8949C9.796 52.9038 9.91218 53.0261 9.91488 53.1756L10.038 60.0035L32.6109 35.7204L25.2369 27.7873L1.9118 52.4294Z" stroke="#FF6D2A" stroke-width="1.2"/>
<path d="M40.7614 27.6572C40.684 27.6572 40.6099 27.6253 40.5563 27.5687L32.7949 19.369C32.6902 19.2583 32.6902 19.084 32.7949 18.9732L45.2582 5.80613C45.311 5.75043 45.3838 5.7185 45.4602 5.71764C45.4612 5.71764 45.4624 5.71764 45.4634 5.71764C45.5385 5.71764 45.6107 5.74771 45.6639 5.80155L47.2218 7.37405C49.0644 9.11895 50.0508 11.5016 49.9932 14.0769C49.9372 16.5754 48.9211 19.0114 47.1319 20.9362L40.9681 27.5668C40.9149 27.6241 40.8406 27.6569 40.7626 27.6572C40.7623 27.6572 40.7618 27.6572 40.7614 27.6572ZM33.3926 19.1711L40.7597 26.9543L46.7185 20.5441C48.4118 18.7225 49.3735 16.4212 49.4262 14.0638C49.4803 11.6534 48.5572 9.42366 46.8274 7.78529L45.4682 6.41354L33.3926 19.1711Z" stroke="#FF6D2A" stroke-width="1.2"/>
<path d="M56.2332 61C56.1564 61 56.0811 60.9686 56.0262 60.9095L18.868 20.9362C15.085 16.8663 15.0484 10.9064 18.7846 7.36775L20.336 5.80155C20.3899 5.747 20.4599 5.71564 20.5399 5.71764C20.6162 5.7185 20.689 5.75043 20.7417 5.80613L64.9214 52.4805C65.0037 52.5675 65.0234 52.6971 64.9708 52.8049C64.9182 52.9128 64.803 52.976 64.6861 52.9631L55.1487 51.9327L56.507 60.6291C56.5152 60.6558 56.5196 60.6841 56.5196 60.7135C56.5196 60.8716 56.3925 60.9999 56.2359 60.9999C56.2343 61 56.234 61 56.2332 61ZM20.5321 6.41368L19.1793 7.77913C15.6687 11.1044 15.7165 16.7087 19.2818 20.5443L55.8093 59.8392L54.5306 51.6528C54.5169 51.5649 54.5445 51.4754 54.6053 51.4108C54.6661 51.3463 54.7525 51.3137 54.841 51.3236L63.9757 52.3106L20.5321 6.41368Z" stroke="#FF6D2A" stroke-width="1.2"/>
<path d="M45.4634 6.2904C45.388 6.2904 45.3129 6.26033 45.2571 6.20062C42.3851 3.12979 38.2613 1.57276 33.0001 1.57276C27.7389 1.57276 23.615 3.12979 20.743 6.20062C20.6355 6.31546 20.456 6.3209 20.342 6.21222C20.2281 6.10368 20.223 5.9224 20.3305 5.80742C23.3139 2.61746 27.5766 1 33.0001 1C38.4236 1 42.6862 2.61746 45.6696 5.80742C45.7773 5.9224 45.772 6.10368 45.6581 6.21222C45.6034 6.26448 45.5334 6.2904 45.4634 6.2904Z" stroke="#FF6D2A" stroke-width="1.2"/>
<path d="M39.2321 12.5807C39.1431 12.5807 39.0556 12.5386 39.0003 12.4598C37.5925 10.453 35.5739 9.43554 33.0001 9.43554C30.4264 9.43554 28.4076 10.453 27 12.4598C26.9093 12.5888 26.7324 12.6195 26.6045 12.5281C26.4767 12.4366 26.4463 12.2579 26.5368 12.1289C28.0357 9.99226 30.2706 8.86293 33.0001 8.86293C35.7295 8.86293 37.9644 9.99226 39.4633 12.1289C39.5539 12.2579 39.5237 12.4368 39.3956 12.5281C39.3458 12.5636 39.2887 12.5807 39.2321 12.5807Z" stroke="#FF6D2A" stroke-width="1.2"/>
</svg>
