<svg width="59" height="62" viewBox="0 0 59 62" fill="none" xmlns="http://www.w3.org/2000/svg">
<path d="M21.1189 54.04H4.29328C2.43707 54.04 1 52.54 1 50.74V34.96C1 33.1 2.49695 31.66 4.29328 31.66H30.3401C32.1963 31.66 33.6334 33.16 33.6334 34.96V45.64C33.6334 46 33.334 46.36 32.9149 46.36C32.5556 46.36 32.1963 46.06 32.1963 45.64V34.96C32.1963 33.88 31.358 33.04 30.2802 33.04H4.29328C3.21548 33.04 2.37719 33.88 2.37719 34.96V50.74C2.37719 51.82 3.21548 52.66 4.29328 52.66H21.1189C21.4782 52.66 21.8375 52.96 21.8375 53.38C21.8375 53.74 21.5381 54.04 21.1189 54.04Z" fill="#FF6D2A"/>
<path d="M27.4061 33.04C27.0468 33.04 26.6876 32.74 26.6876 32.32V25.6H7.94583V32.32C7.94583 32.68 7.64644 33.04 7.22729 33.04C6.86802 33.04 6.50876 32.74 6.50876 32.32V24.94C6.50876 24.58 6.80815 24.22 7.22729 24.22H27.4061C27.7654 24.22 28.1246 24.52 28.1246 24.94V32.38C28.1246 32.74 27.8253 33.04 27.4061 33.04Z" fill="#FF6D2A"/>
<path d="M49.3214 32.08H49.2615C48.9022 32.02 48.6029 31.72 48.6627 31.3L51.8363 2.38H28.1845L30.3401 22.06C30.4 22.42 30.1006 22.78 29.7413 22.84C29.3821 22.9 29.0228 22.6 28.9629 22.24L26.6277 1H53.3332L49.98 31.48C49.98 31.84 49.6806 32.08 49.3214 32.08Z" fill="#FF6D2A"/>
<path d="M51.8961 8.38H28.0648C27.7055 8.38 27.3462 8.08 27.3462 7.66C27.3462 7.3 27.6456 6.94 28.0648 6.94H51.8961C52.2554 6.94 52.6147 7.24 52.6147 7.66C52.6147 8.08 52.3153 8.38 51.8961 8.38Z" fill="#FF6D2A"/>
<path d="M35.2501 61C32.5556 61 29.8012 60.1 27.5259 58.36C23.3344 55.12 21.4183 49.72 22.2566 43.42C22.3165 43.06 22.6758 42.76 23.035 42.82C23.3943 42.88 23.6937 43.24 23.6338 43.6C22.8554 49.36 24.5919 54.34 28.3642 57.22C31.5377 59.62 35.7291 60.28 39.0823 58.84C42.3756 57.46 44.4114 54.4 44.8904 50.2C44.9503 49.84 45.3096 49.54 45.6688 49.6C46.0281 49.66 46.3275 50.02 46.2676 50.38C45.7287 55.12 43.3336 58.6 39.6212 60.16C38.244 60.7 36.747 61 35.2501 61Z" fill="#FF6D2A"/>
<path d="M45.5491 60.28C43.9324 60.28 42.3157 59.86 40.8786 58.96C40.5193 58.78 40.4595 58.36 40.6391 58C40.8187 57.64 41.2379 57.58 41.5971 57.76C44.1719 59.32 46.6868 58.96 48.3633 58.36C51.7764 57.16 54.5308 54.16 55.4289 51.82C59.4407 41.8 52.3752 36.76 46.3275 33.82C45.2497 37.06 42.7947 39.46 40.6391 41.62C36.8069 45.4 33.7532 48.4 38.0644 54.7C38.3039 55 38.1841 55.48 37.8847 55.66C37.5853 55.9 37.1063 55.78 36.9267 55.48C31.9568 48.28 35.9088 44.38 39.6811 40.6C42.0163 38.32 44.3515 35.92 45.1898 32.68L45.3694 31.84L46.1479 32.2C50.0399 34 61.8358 39.46 56.7462 52.42C55.7283 55 52.8542 58.36 48.8424 59.74C47.7646 60.1 46.6269 60.28 45.5491 60.28Z" fill="#FF6D2A"/>
<path d="M21.1189 54.04H4.29328C2.43707 54.04 1 52.54 1 50.74V34.96C1 33.1 2.49695 31.66 4.29328 31.66H30.3401C32.1963 31.66 33.6334 33.16 33.6334 34.96V45.64C33.6334 46 33.334 46.36 32.9149 46.36C32.5556 46.36 32.1963 46.06 32.1963 45.64V34.96C32.1963 33.88 31.358 33.04 30.2802 33.04H4.29328C3.21548 33.04 2.37719 33.88 2.37719 34.96V50.74C2.37719 51.82 3.21548 52.66 4.29328 52.66H21.1189C21.4782 52.66 21.8375 52.96 21.8375 53.38C21.8375 53.74 21.5381 54.04 21.1189 54.04Z" stroke="#FF6D2A" stroke-width="0.6"/>
<path d="M27.4061 33.04C27.0468 33.04 26.6876 32.74 26.6876 32.32V25.6H7.94583V32.32C7.94583 32.68 7.64644 33.04 7.22729 33.04C6.86802 33.04 6.50876 32.74 6.50876 32.32V24.94C6.50876 24.58 6.80815 24.22 7.22729 24.22H27.4061C27.7654 24.22 28.1246 24.52 28.1246 24.94V32.38C28.1246 32.74 27.8253 33.04 27.4061 33.04Z" stroke="#FF6D2A" stroke-width="0.6"/>
<path d="M49.3214 32.08H49.2615C48.9022 32.02 48.6029 31.72 48.6627 31.3L51.8363 2.38H28.1845L30.3401 22.06C30.4 22.42 30.1006 22.78 29.7413 22.84C29.3821 22.9 29.0228 22.6 28.9629 22.24L26.6277 1H53.3332L49.98 31.48C49.98 31.84 49.6806 32.08 49.3214 32.08Z" stroke="#FF6D2A" stroke-width="0.6"/>
<path d="M51.8961 8.38H28.0648C27.7055 8.38 27.3462 8.08 27.3462 7.66C27.3462 7.3 27.6456 6.94 28.0648 6.94H51.8961C52.2554 6.94 52.6147 7.24 52.6147 7.66C52.6147 8.08 52.3153 8.38 51.8961 8.38Z" stroke="#FF6D2A" stroke-width="0.6"/>
<path d="M35.2501 61C32.5556 61 29.8012 60.1 27.5259 58.36C23.3344 55.12 21.4183 49.72 22.2566 43.42C22.3165 43.06 22.6758 42.76 23.035 42.82C23.3943 42.88 23.6937 43.24 23.6338 43.6C22.8554 49.36 24.5919 54.34 28.3642 57.22C31.5377 59.62 35.7291 60.28 39.0823 58.84C42.3756 57.46 44.4114 54.4 44.8904 50.2C44.9503 49.84 45.3096 49.54 45.6688 49.6C46.0281 49.66 46.3275 50.02 46.2676 50.38C45.7287 55.12 43.3336 58.6 39.6212 60.16C38.244 60.7 36.747 61 35.2501 61Z" stroke="#FF6D2A" stroke-width="0.6"/>
<path d="M45.5491 60.28C43.9324 60.28 42.3157 59.86 40.8786 58.96C40.5193 58.78 40.4595 58.36 40.6391 58C40.8187 57.64 41.2379 57.58 41.5971 57.76C44.1719 59.32 46.6868 58.96 48.3633 58.36C51.7764 57.16 54.5308 54.16 55.4289 51.82C59.4407 41.8 52.3752 36.76 46.3275 33.82C45.2497 37.06 42.7947 39.46 40.6391 41.62C36.8069 45.4 33.7532 48.4 38.0644 54.7C38.3039 55 38.1841 55.48 37.8847 55.66C37.5853 55.9 37.1063 55.78 36.9267 55.48C31.9568 48.28 35.9088 44.38 39.6811 40.6C42.0163 38.32 44.3515 35.92 45.1898 32.68L45.3694 31.84L46.1479 32.2C50.0399 34 61.8358 39.46 56.7462 52.42C55.7283 55 52.8542 58.36 48.8424 59.74C47.7646 60.1 46.6269 60.28 45.5491 60.28Z" stroke="#FF6D2A" stroke-width="0.6"/>
</svg>
