<svg width="61" height="61" viewBox="0 0 61 61" fill="none" xmlns="http://www.w3.org/2000/svg">
<path d="M37.6116 19.9586C38.5908 19.9455 39.5494 19.6743 40.3904 19.1725C41.622 18.3474 42.6762 17.2844 43.491 16.0459C44.3058 14.8075 44.8648 13.4186 45.135 11.961C46.3874 6.52204 44.4856 1.36289 40.8059 0.215424C40.3364 0.069638 39.8473 -0.00298975 39.3557 9.42371e-05C39.3461 0.00107095 39.3365 0.00107095 39.3269 9.42371e-05C36.0403 0.0210942 32.8845 3.38144 31.823 7.98984C30.5705 13.4288 32.4724 18.588 36.1521 19.735C36.6244 19.8831 37.1165 19.9585 37.6116 19.9586ZM33.7722 8.43902C34.614 4.78277 37.0075 2.01471 39.3396 2.00003C39.6342 1.99913 39.9275 2.04147 40.2102 2.12459C42.8083 2.93465 44.1711 7.23398 43.1858 11.5118C42.9774 12.7013 42.535 13.8376 41.8843 14.8549C41.2335 15.8722 40.3873 16.7502 39.3948 17.4381C39.0042 17.6821 38.5673 17.8425 38.1117 17.9093C37.656 17.976 37.1914 17.9476 36.7473 17.8258C34.1496 17.0157 32.7868 12.7173 33.7722 8.43902Z" fill="#FF6D2A"/>
<path d="M51.1882 29.2403C51.6605 29.3884 52.1527 29.4639 52.6477 29.4639C53.6268 29.4508 54.5852 29.1797 55.426 28.6778C57.6511 27.401 59.4245 24.7047 60.1706 21.4664C61.4231 16.0274 59.5212 10.8682 55.842 9.72077C55.3637 9.57038 54.8644 9.49768 54.363 9.50544C51.0764 9.52644 47.9206 12.8868 46.8591 17.4952C45.6067 22.9342 47.5086 28.0933 51.1882 29.2403ZM48.8083 17.9444C49.6501 14.2882 52.0437 11.5201 54.3757 11.5054C54.6705 11.5 54.9644 11.542 55.2458 11.6299C57.844 12.44 59.2068 16.7393 58.2214 21.0171C58.0132 22.2067 57.5708 23.343 56.9201 24.3603C56.2693 25.3776 55.4231 26.2556 54.4304 26.9434C54.0398 27.1872 53.603 27.3474 53.1475 27.4141C52.6919 27.4809 52.2275 27.4526 51.7834 27.3311C49.1858 26.5211 47.823 22.2227 48.8083 17.9444Z" fill="#FF6D2A"/>
<path d="M20.1648 19.1725C21.0058 19.6743 21.9643 19.9455 22.9436 19.9586C23.4384 19.9586 23.9304 19.8832 24.4026 19.735C28.0828 18.588 29.9846 13.4289 28.7322 7.98989C27.6706 3.38149 24.5149 0.0211381 21.2283 0.000138144C20.7272 -0.00361167 20.2285 0.0689981 19.7493 0.215468C16.0696 1.36293 14.1677 6.52211 15.4202 11.9611C15.6904 13.4187 16.2493 14.8075 17.0642 16.046C17.879 17.2844 18.9332 18.3474 20.1648 19.1725ZM20.345 2.12464C20.6201 2.0398 20.9066 1.99781 21.1946 2.00013H21.2156C23.5476 2.01478 25.9412 4.78284 26.7829 8.43913C27.7683 12.7174 26.4055 17.0158 23.8074 17.8258C23.3633 17.9481 22.8988 17.9767 22.4431 17.91C21.9875 17.8432 21.5507 17.6826 21.1604 17.4381C20.1678 16.7503 19.3216 15.8723 18.6709 14.855C18.0201 13.8377 17.5777 12.7014 17.3694 11.5119C16.384 7.234 17.7468 2.93464 20.345 2.12464Z" fill="#FF6D2A"/>
<path d="M12.3726 35.9941C11.5029 36.7168 10.6036 37.4639 9.75977 38.2832C8.62613 39.2679 7.70993 40.4778 7.06952 41.836C6.4291 43.1941 6.0785 44.6708 6.04004 46.1719C6.04004 54.3623 12.0522 60.5391 20.0254 60.5391C22.3784 60.5391 24.2788 59.3564 25.9551 58.313L26.0645 58.2451C27.7393 57.2031 29.0215 56.4653 30.2773 56.4653C31.5337 56.4653 32.8159 57.2031 34.4902 58.2451L34.5996 58.313C36.2759 59.3564 38.1763 60.5391 40.5293 60.5391C48.5025 60.5391 54.5147 54.3623 54.5147 46.1719C54.4762 44.6707 54.1256 43.194 53.4851 41.8359C52.8446 40.4777 51.9283 39.2678 50.7944 38.2832C49.9512 37.4639 49.0518 36.7168 48.1822 35.9941C47.1261 35.1625 46.1307 34.2565 45.2036 33.2832C44.0493 31.9008 43.0035 30.4313 42.0757 28.8877C41.2881 27.6582 40.4737 26.3872 39.5752 25.1997C37.8335 22.8979 34.9741 19.8384 30.2773 19.8384C25.5806 19.8384 22.7212 22.8979 20.9795 25.1997C20.0811 26.3872 19.2666 27.6582 18.479 28.8877C17.5512 30.4313 16.5054 31.9008 15.3511 33.2832C14.424 34.2566 13.4286 35.1625 12.3726 35.9941ZM16.8403 34.6181C18.0687 33.1574 19.1797 31.602 20.1631 29.9663C20.9297 28.7695 21.7226 27.5322 22.5742 26.4067C24.9653 23.2471 27.3413 21.8384 30.2773 21.8384C33.2133 21.8384 35.5893 23.2471 37.9805 26.4067C38.832 27.5322 39.625 28.7695 40.3916 29.9663C41.375 31.602 42.486 33.1574 43.7143 34.6182C44.7053 35.6658 45.7713 36.6399 46.9038 37.5327C47.7446 38.2309 48.6133 38.9526 49.4004 39.7178C51.5542 41.811 52.5146 43.8018 52.5146 46.1719C52.5146 53.2222 47.3623 58.5391 40.5293 58.5391C38.748 58.5391 37.1763 57.5611 35.6563 56.6152L35.5469 56.5469C33.9795 55.5713 32.2026 54.4653 30.2773 54.4653C28.353 54.4653 26.5757 55.5713 25.0078 56.5469L24.8985 56.6152C23.3785 57.561 21.8067 58.5391 20.0254 58.5391C13.1924 58.5391 8.0401 53.2222 8.0401 46.1719C8.0401 43.8018 9.00055 41.811 11.1539 39.7178C11.9415 38.9526 12.8101 38.2309 13.6509 37.5327C14.7834 36.6399 15.8494 35.6658 16.8403 34.6181Z" fill="#FF6D2A"/>
<path d="M6.19213 9.50546C5.69106 9.49952 5.19216 9.57218 4.71361 9.72079C1.03392 10.8683 -0.867932 16.0274 0.384508 21.4664C1.1306 24.7047 2.90404 27.401 5.12914 28.6778C5.96997 29.1797 6.92833 29.4509 7.90746 29.464C8.40232 29.4639 8.89429 29.3885 9.36646 29.2403C13.0466 28.0933 14.9485 22.9342 13.696 17.4952C12.6345 12.8868 9.47875 9.52646 6.19213 9.50546ZM8.77123 27.3311C8.32729 27.4532 7.86285 27.4818 7.4073 27.415C6.95175 27.3483 6.51501 27.1877 6.12475 26.9434C5.13209 26.2557 4.28585 25.3777 3.63509 24.3604C2.98433 23.3431 2.542 22.2067 2.33375 21.0172C1.3484 16.7393 2.71119 12.44 5.30982 11.63C5.58461 11.5451 5.87085 11.5031 6.15845 11.5055H6.17945C8.51145 11.5201 10.905 14.2882 11.7468 17.9445C12.7322 22.2228 11.3694 26.5211 8.77123 27.3311Z" fill="#FF6D2A"/>
</svg>
