<svg width="55" height="62" viewBox="0 0 55 62" fill="none" xmlns="http://www.w3.org/2000/svg">
<path d="M53.4941 10.8441C52.6032 5.98277 48.7968 2.42667 43.3121 1.33197C39.717 0.614158 35.9908 1.07497 32.2332 2.70166C28.9273 4.13279 25.6335 4.10581 22.1658 2.62224C20.2327 1.79503 18.2253 1.28776 16.0269 1.07197C10.7385 0.553467 5.49878 2.87325 2.98868 6.84744C1.70067 8.88774 1.06977 11.2068 1.00608 14.1455C0.900432 18.9551 2.17046 23.0244 4.88811 26.5865C5.23578 27.0429 5.5295 27.5344 5.84045 28.0536L6.12443 28.5257C6.68265 29.4376 6.9359 30.3899 6.89994 31.4374C6.85123 32.858 7.27233 42.0307 7.72115 45.2886C8.22242 48.9316 9.14329 52.0569 10.5347 54.8442C11.4204 56.6185 12.7676 58.8514 15.3518 60.3837C15.3826 60.4017 15.4148 60.4181 15.4478 60.4316C15.9962 60.6579 16.5372 60.7711 17.0602 60.7711C17.7585 60.7711 18.4254 60.5695 19.0353 60.1694C21.1176 58.8012 22.6176 55.0488 23.4943 49.0156C24.1304 44.639 24.2024 40.5771 24.2031 40.5239C24.2031 38.7152 25.674 37.2451 27.4902 37.2196C29.3065 37.2451 30.7773 38.7159 30.7773 40.5359C30.805 42.2158 31.1812 57.0396 35.9451 60.1694C36.555 60.5702 37.2219 60.7711 37.9202 60.7711C38.4432 60.7711 38.9842 60.6579 39.5327 60.4316C39.5424 60.4279 39.5477 60.4196 39.5567 60.4151C39.5657 60.4114 39.5754 60.4121 39.5844 60.4077C42.8071 58.7772 46.0005 51.1248 46.7385 47.6496C47.7336 42.9636 48.1344 37.8737 47.9988 31.6322L47.9876 31.3228C47.9719 30.9346 47.9554 30.5338 48.07 30.2827L48.1712 30.0617C48.7324 28.8306 49.3131 27.5584 50.1073 26.4644C53.4184 21.9035 54.558 16.6488 53.4941 10.8441ZM48.895 25.5832C48.0123 26.7993 47.3994 28.1413 46.8075 29.4391L46.7071 29.6593C46.4433 30.2363 46.468 30.8455 46.4898 31.3834L46.4995 31.6644C46.6329 37.7876 46.2425 42.768 45.2722 47.3387C44.5791 50.6033 41.5752 57.684 38.9318 59.0552C38.1098 59.3879 37.4205 59.3452 36.7678 58.9173C33.2919 56.6343 32.3463 44.857 32.2751 40.5247C32.2751 37.9157 30.1741 35.79 27.5681 35.7233C27.5569 35.7225 27.5479 35.7173 27.5367 35.7173C27.5209 35.7173 27.5052 35.7195 27.4895 35.7195C27.4737 35.7195 27.458 35.7173 27.4423 35.7173C27.431 35.7173 27.422 35.7233 27.4108 35.7233C24.804 35.79 22.7038 37.9157 22.7038 40.5127C22.6326 44.8578 21.687 56.635 18.2111 58.9173C17.5645 59.3429 16.8819 59.3916 16.0689 59.0664C13.8518 57.7335 12.6634 55.7539 11.8744 54.1744C10.5572 51.5361 9.68427 48.5622 9.20548 45.0841C8.76865 41.9124 8.35354 32.7756 8.39775 31.4876C8.44346 30.1561 8.10853 28.8966 7.40271 27.7427L7.12622 27.2834C6.80778 26.7506 6.47809 26.1999 6.07872 25.6762C3.57537 22.3951 2.40574 18.6329 2.5039 14.1769C2.56159 11.5222 3.11831 9.4467 4.25572 7.64617C6.46985 4.13878 11.1401 2.09924 15.8801 2.56154C17.9234 2.7631 19.7861 3.2329 21.5761 3.99867C25.4447 5.65383 29.1252 5.67856 32.8281 4.07659C36.3497 2.5518 39.6818 2.13445 43.0184 2.80056C47.8782 3.77089 51.244 6.87816 52.0202 11.1131C53.0213 16.5754 51.9985 21.3086 48.895 25.5832Z" fill="#FF6D2A"/>
<path d="M41.4395 6.10179C41.0356 6.01937 40.6392 6.28387 40.5583 6.68998C40.4774 7.09609 40.7404 7.49021 41.1465 7.57113C44.3707 8.21477 46.602 10.2693 47.1145 13.0656C47.7866 16.7326 47.101 19.9088 45.0188 22.7771C44.7753 23.112 44.8494 23.5803 45.1851 23.8231C45.3177 23.9197 45.4721 23.9662 45.6242 23.9662C45.8565 23.9662 46.085 23.859 46.2311 23.6567C48.5344 20.4843 49.3279 16.83 48.5884 12.7951C47.9605 9.37241 45.2885 6.86981 41.4395 6.10179Z" fill="#FF6D2A"/>
<path d="M34.8736 16.2352H31.1271V12.4888C31.1271 12.0752 30.7915 11.7395 30.3779 11.7395H24.5087C24.0951 11.7395 23.7595 12.0752 23.7595 12.4888V16.2352H20.013C19.5994 16.2352 19.2638 16.5708 19.2638 16.9844V22.8536C19.2638 23.2672 19.5994 23.6029 20.013 23.6029H23.7595V27.3493C23.7595 27.7629 24.0951 28.0986 24.5087 28.0986H30.3779C30.7915 28.0986 31.1271 27.7629 31.1271 27.3493V23.6029H34.8736C35.2872 23.6029 35.6228 23.2672 35.6228 22.8536V16.9844C35.6228 16.5708 35.2872 16.2352 34.8736 16.2352ZM34.1243 22.1043H30.3779C29.9643 22.1043 29.6286 22.44 29.6286 22.8536V26.6H25.258V22.8536C25.258 22.44 24.9223 22.1043 24.5087 22.1043H20.7623V17.7337H24.5087C24.9223 17.7337 25.258 17.3981 25.258 16.9844V13.238H29.6286V16.9844C29.6286 17.3981 29.9643 17.7337 30.3779 17.7337H34.1243V22.1043Z" fill="#FF6D2A"/>
<path d="M53.4941 10.8441C52.6032 5.98277 48.7968 2.42667 43.3121 1.33197C39.717 0.614158 35.9908 1.07497 32.2332 2.70166C28.9273 4.13279 25.6335 4.10581 22.1658 2.62224C20.2327 1.79503 18.2253 1.28776 16.0269 1.07197C10.7385 0.553467 5.49878 2.87325 2.98868 6.84744C1.70067 8.88774 1.06977 11.2068 1.00608 14.1455C0.900432 18.9551 2.17046 23.0244 4.88811 26.5865C5.23578 27.0429 5.5295 27.5344 5.84045 28.0536L6.12443 28.5257C6.68265 29.4376 6.9359 30.3899 6.89994 31.4374C6.85123 32.858 7.27233 42.0307 7.72115 45.2886C8.22242 48.9316 9.14329 52.0569 10.5347 54.8442C11.4204 56.6185 12.7676 58.8514 15.3518 60.3837C15.3826 60.4017 15.4148 60.4181 15.4478 60.4316C15.9962 60.6579 16.5372 60.7711 17.0602 60.7711C17.7585 60.7711 18.4254 60.5695 19.0353 60.1694C21.1176 58.8012 22.6176 55.0488 23.4943 49.0156C24.1304 44.639 24.2024 40.5771 24.2031 40.5239C24.2031 38.7152 25.674 37.2451 27.4902 37.2196C29.3065 37.2451 30.7773 38.7159 30.7773 40.5359C30.805 42.2158 31.1812 57.0396 35.9451 60.1694C36.555 60.5702 37.2219 60.7711 37.9202 60.7711C38.4432 60.7711 38.9842 60.6579 39.5327 60.4316C39.5424 60.4279 39.5477 60.4196 39.5567 60.4151C39.5657 60.4114 39.5754 60.4121 39.5844 60.4077C42.8071 58.7772 46.0005 51.1248 46.7385 47.6496C47.7336 42.9636 48.1344 37.8737 47.9988 31.6322L47.9876 31.3228C47.9719 30.9346 47.9554 30.5338 48.07 30.2827L48.1712 30.0617C48.7324 28.8306 49.3131 27.5584 50.1073 26.4644C53.4184 21.9035 54.558 16.6488 53.4941 10.8441ZM48.895 25.5832C48.0123 26.7993 47.3994 28.1413 46.8075 29.4391L46.7071 29.6593C46.4433 30.2363 46.468 30.8455 46.4898 31.3834L46.4995 31.6644C46.6329 37.7876 46.2425 42.768 45.2722 47.3387C44.5791 50.6033 41.5752 57.684 38.9318 59.0552C38.1098 59.3879 37.4205 59.3452 36.7678 58.9173C33.2919 56.6343 32.3463 44.857 32.2751 40.5247C32.2751 37.9157 30.1741 35.79 27.5681 35.7233C27.5569 35.7225 27.5479 35.7173 27.5367 35.7173C27.5209 35.7173 27.5052 35.7195 27.4895 35.7195C27.4737 35.7195 27.458 35.7173 27.4423 35.7173C27.431 35.7173 27.422 35.7233 27.4108 35.7233C24.804 35.79 22.7038 37.9157 22.7038 40.5127C22.6326 44.8578 21.687 56.635 18.2111 58.9173C17.5645 59.3429 16.8819 59.3916 16.0689 59.0664C13.8518 57.7335 12.6634 55.7539 11.8744 54.1744C10.5572 51.5361 9.68427 48.5622 9.20548 45.0841C8.76865 41.9124 8.35354 32.7756 8.39775 31.4876C8.44346 30.1561 8.10853 28.8966 7.40271 27.7427L7.12622 27.2834C6.80778 26.7506 6.47809 26.1999 6.07872 25.6762C3.57537 22.3951 2.40574 18.6329 2.5039 14.1769C2.56159 11.5222 3.11831 9.4467 4.25572 7.64617C6.46985 4.13878 11.1401 2.09924 15.8801 2.56154C17.9234 2.7631 19.7861 3.2329 21.5761 3.99867C25.4447 5.65383 29.1252 5.67856 32.8281 4.07659C36.3497 2.5518 39.6818 2.13445 43.0184 2.80056C47.8782 3.77089 51.244 6.87816 52.0202 11.1131C53.0213 16.5754 51.9985 21.3086 48.895 25.5832Z" stroke="#FF6D2A" stroke-width="0.5"/>
<path d="M41.4395 6.10179C41.0356 6.01937 40.6392 6.28387 40.5583 6.68998C40.4774 7.09609 40.7404 7.49021 41.1465 7.57113C44.3707 8.21477 46.602 10.2693 47.1145 13.0656C47.7866 16.7326 47.101 19.9088 45.0188 22.7771C44.7753 23.112 44.8494 23.5803 45.1851 23.8231C45.3177 23.9197 45.4721 23.9662 45.6242 23.9662C45.8565 23.9662 46.085 23.859 46.2311 23.6567C48.5344 20.4843 49.3279 16.83 48.5884 12.7951C47.9605 9.37241 45.2885 6.86981 41.4395 6.10179Z" stroke="#FF6D2A" stroke-width="0.5"/>
<path d="M34.8736 16.2352H31.1271V12.4888C31.1271 12.0752 30.7915 11.7395 30.3779 11.7395H24.5087C24.0951 11.7395 23.7595 12.0752 23.7595 12.4888V16.2352H20.013C19.5994 16.2352 19.2638 16.5708 19.2638 16.9844V22.8536C19.2638 23.2672 19.5994 23.6029 20.013 23.6029H23.7595V27.3493C23.7595 27.7629 24.0951 28.0986 24.5087 28.0986H30.3779C30.7915 28.0986 31.1271 27.7629 31.1271 27.3493V23.6029H34.8736C35.2872 23.6029 35.6228 23.2672 35.6228 22.8536V16.9844C35.6228 16.5708 35.2872 16.2352 34.8736 16.2352ZM34.1243 22.1043H30.3779C29.9643 22.1043 29.6286 22.44 29.6286 22.8536V26.6H25.258V22.8536C25.258 22.44 24.9223 22.1043 24.5087 22.1043H20.7623V17.7337H24.5087C24.9223 17.7337 25.258 17.3981 25.258 16.9844V13.238H29.6286V16.9844C29.6286 17.3981 29.9643 17.7337 30.3779 17.7337H34.1243V22.1043Z" stroke="#FF6D2A" stroke-width="0.5"/>
</svg>
