<svg width="31" height="24" viewBox="0 0 31 24" fill="none" xmlns="http://www.w3.org/2000/svg">
<path fill-rule="evenodd" clip-rule="evenodd" d="M23.188 0.462064C23.7855 0.0788332 24.5022 -0.0735917 25.2039 0.0332999C25.9057 0.140192 26.5445 0.499078 27.0008 1.04283C27.4563 1.58553 27.6988 2.27528 27.6834 2.98351V8.30161H28.3149C29.0271 8.30161 29.7101 8.58452 30.2137 9.08811C30.7172 9.59169 31.0002 10.2747 31.0002 10.9869V12.6285C31.0002 13.3407 30.7172 14.0237 30.2137 14.5273C29.7101 15.0309 29.0271 15.3138 28.3149 15.3138H27.7169V20.6319C27.7323 21.3401 27.4898 22.0299 27.0343 22.5726C26.578 23.1163 25.9392 23.4752 25.2375 23.5821C24.5357 23.689 23.819 23.5366 23.2215 23.1533C22.6764 22.8037 22.2645 22.2839 22.048 21.6773L16.8431 20.024L16.1767 22.11L16.1762 22.1116C16.0713 22.4492 15.9008 22.7626 15.6745 23.0341C15.4478 23.3061 15.1696 23.5305 14.8558 23.6945C14.5421 23.8585 14.199 23.9588 13.8464 23.9897C13.494 24.0206 13.139 23.9816 12.8018 23.8749L12.8009 23.8746L7.00631 22.0659C6.33218 21.8537 5.76811 21.3842 5.43777 20.7594C5.10743 20.1346 5.03671 19.4048 5.24094 18.7282L5.24175 18.7256L5.9112 16.5717L4.00757 15.9838H2.68527C1.97309 15.9838 1.29008 15.7009 0.786498 15.1973C0.282912 14.6938 0 14.0107 0 13.2986V10.3168C0 9.60465 0.282912 8.92164 0.786498 8.41805C1.29008 7.91446 1.97309 7.63155 2.68527 7.63155H4.0064L22.0146 1.93779C22.2312 1.33133 22.643 0.811608 23.188 0.462064ZM24.7636 1.41015C24.3473 1.41015 23.9481 1.57551 23.6537 1.86986C23.3594 2.16422 23.194 2.56345 23.194 2.97972V20.6022C23.194 21.0184 23.3594 21.4177 23.6537 21.712C23.9481 22.0064 24.3473 22.1717 24.7636 22.1717C25.1799 22.1717 25.5791 22.0064 25.8734 21.712C26.1678 21.4177 26.3332 21.0184 26.3332 20.6022V2.97972C26.3332 2.56345 26.1678 2.16422 25.8734 1.86986C25.5791 1.57551 25.1799 1.41015 24.7636 1.41015ZM4.801 8.79044L21.8438 3.4102V20.2044L4.801 14.7919V8.79044ZM2.68527 8.98177C2.33119 8.98177 1.99162 9.12243 1.74125 9.3728C1.49087 9.62317 1.35022 9.96275 1.35022 10.3168V13.2651C1.35022 13.6191 1.49087 13.9587 1.74125 14.2091C1.99162 14.4595 2.33119 14.6001 2.68527 14.6001H3.45078V8.98177H2.68527ZM27.6834 9.65182V13.9636H28.2814C28.6355 13.9636 28.975 13.8229 29.2254 13.5725C29.4758 13.3222 29.6164 12.9826 29.6164 12.6285V10.9869C29.6164 10.6328 29.4758 10.2932 29.2254 10.0429C28.975 9.79248 28.6355 9.65182 28.2814 9.65182H27.6834ZM7.19686 16.9759L15.5247 19.6172L14.8578 21.7048L14.8566 21.7087C14.8049 21.8776 14.7202 22.0346 14.6074 22.1705C14.4946 22.3064 14.356 22.4186 14.1995 22.5005C14.0431 22.5825 13.8719 22.6326 13.6959 22.6479C13.52 22.6632 13.3427 22.6435 13.1744 22.5898L7.37983 20.7811C7.05109 20.6705 6.77824 20.4363 6.61912 20.1281C6.45967 19.8191 6.42702 19.4602 6.52811 19.1275L7.19686 16.9759Z" fill="white" fill-opacity="0.5"/>
</svg>
