<svg width="66" height="62" viewBox="0 0 66 62" fill="none" xmlns="http://www.w3.org/2000/svg">
<path d="M31.9288 15.9168C26.3163 15.9168 21.7504 20.5831 21.7504 26.3189C21.7504 32.0547 26.3163 36.7209 31.9288 36.7209C37.5413 36.7209 42.1071 32.0545 42.1071 26.3189C42.1071 20.5832 37.5412 15.9168 31.9288 15.9168ZM31.9288 35.16C27.1771 35.16 23.3114 31.1938 23.3114 26.3189C23.3114 21.4439 27.1771 17.4778 31.9288 17.4778C36.6805 17.4778 40.5462 21.4438 40.5462 26.3189C40.5462 31.1939 36.6804 35.1594 31.9288 35.1594V35.16Z" fill="#53C6F1"/>
<path d="M31.9288 10.4715C23.3552 10.4715 16.3801 17.5803 16.3801 26.3183C16.3801 35.0564 23.3552 42.1652 31.9288 42.1652C40.5023 42.1652 47.4773 35.0563 47.4773 26.3183C47.4773 17.5804 40.5022 10.4715 31.9288 10.4715ZM31.9288 40.6043C24.216 40.6043 17.9411 34.1956 17.9411 26.3183C17.9411 18.4411 24.216 12.0324 31.9288 12.0324C39.6416 12.0324 45.9163 18.4404 45.9163 26.3183C45.9163 34.1963 39.6416 40.6043 31.9288 40.6043Z" fill="#53C6F1"/>
<path d="M7.1215 22.5979V31.3914H4.22901C4.02201 31.3914 3.82349 31.4736 3.67712 31.62C3.53075 31.7664 3.44852 31.9649 3.44852 32.1719V56.6583C3.45488 57.8352 3.92688 58.9618 4.76137 59.7918C5.59585 60.6217 6.72496 61.0877 7.90192 61.0877C9.07888 61.0877 10.208 60.6217 11.0425 59.7918C11.877 58.9618 12.349 57.8352 12.3553 56.6583V32.172C12.3553 31.965 12.2731 31.7665 12.1267 31.6201C11.9804 31.4738 11.7818 31.3915 11.5748 31.3915H8.68247V22.598C12.122 22.2234 14.8038 19.4057 14.8038 15.9948V3.19068C14.8038 2.98368 14.7216 2.78516 14.5752 2.63879C14.4289 2.49242 14.2303 2.41019 14.0234 2.41019C13.8164 2.41019 13.6178 2.49242 13.4715 2.63879C13.3251 2.78516 13.2429 2.98368 13.2429 3.19068V15.9948C13.2429 18.5468 11.2587 20.6648 8.68247 21.0259V3.24804C8.68247 3.04104 8.60024 2.84252 8.45387 2.69615C8.3075 2.54978 8.10898 2.46755 7.90198 2.46755C7.69499 2.46755 7.49647 2.54978 7.3501 2.69615C7.20373 2.84252 7.1215 3.04104 7.1215 3.24804V21.0257C4.54511 20.6648 2.56098 18.5466 2.56098 15.9948V3.19068C2.56098 2.98368 2.47875 2.78516 2.33238 2.63879C2.18601 2.49242 1.98749 2.41019 1.78049 2.41019C1.57349 2.41019 1.37497 2.49242 1.2286 2.63879C1.08223 2.78516 1 2.98368 1 3.19068V15.9948C1 19.4056 3.68202 22.2233 7.1215 22.5979ZM10.7943 56.6583C10.7892 57.422 10.4822 58.1528 9.94035 58.691C9.39847 59.2293 8.6657 59.5314 7.90192 59.5314C7.13814 59.5314 6.40537 59.2293 5.86349 58.691C5.32161 58.1528 5.01462 57.422 5.0095 56.6583V32.9525H10.7943V56.6583Z" fill="#53C6F1"/>
<path d="M64.2195 35.0648H61.3272V1.88986C61.3272 1.68286 61.2449 1.48434 61.0986 1.33797C60.9522 1.1916 60.7537 1.10938 60.5467 1.10938H59.3988C57.4675 1.11154 55.6159 1.87972 54.2503 3.24537C52.8846 4.61102 52.1164 6.46261 52.1143 8.39393V29.4364C52.1143 29.6434 52.1965 29.8419 52.3429 29.9883C52.4892 30.1347 52.6878 30.2169 52.8948 30.2169H59.7662V35.0648H56.8737C56.6667 35.0648 56.4682 35.147 56.3218 35.2934C56.1754 35.4397 56.0932 35.6383 56.0932 35.8452V56.6583C56.0996 57.8352 56.5716 58.9618 57.406 59.7918C58.2405 60.6217 59.3696 61.0877 60.5466 61.0877C61.7236 61.0877 62.8527 60.6217 63.6872 59.7918C64.5216 58.9618 64.9936 57.8352 65 56.6583V35.8452C65 35.6383 64.9178 35.4397 64.7714 35.2934C64.625 35.147 64.4265 35.0648 64.2195 35.0648ZM53.6753 8.39393C53.677 6.87647 54.2805 5.42166 55.3535 4.34865C56.4266 3.27564 57.8814 2.67207 59.3988 2.67035H59.7662V28.6559H53.6753V8.39393ZM63.439 56.6583C63.4339 57.422 63.1269 58.1528 62.585 58.691C62.0431 59.2293 61.3104 59.5314 60.5466 59.5314C59.7828 59.5314 59.0501 59.2293 58.5082 58.691C57.9663 58.1528 57.6593 57.422 57.6542 56.6583V36.6257H63.439V56.6583Z" fill="#53C6F1"/>
<path d="M31.9288 15.9168C26.3163 15.9168 21.7504 20.5831 21.7504 26.3189C21.7504 32.0547 26.3163 36.7209 31.9288 36.7209C37.5413 36.7209 42.1071 32.0545 42.1071 26.3189C42.1071 20.5832 37.5412 15.9168 31.9288 15.9168ZM31.9288 35.16C27.1771 35.16 23.3114 31.1938 23.3114 26.3189C23.3114 21.4439 27.1771 17.4778 31.9288 17.4778C36.6805 17.4778 40.5462 21.4438 40.5462 26.3189C40.5462 31.1939 36.6804 35.1594 31.9288 35.1594V35.16Z" stroke="#53C6F1" stroke-width="0.5"/>
<path d="M31.9288 10.4715C23.3552 10.4715 16.3801 17.5803 16.3801 26.3183C16.3801 35.0564 23.3552 42.1652 31.9288 42.1652C40.5023 42.1652 47.4773 35.0563 47.4773 26.3183C47.4773 17.5804 40.5022 10.4715 31.9288 10.4715ZM31.9288 40.6043C24.216 40.6043 17.9411 34.1956 17.9411 26.3183C17.9411 18.4411 24.216 12.0324 31.9288 12.0324C39.6416 12.0324 45.9163 18.4404 45.9163 26.3183C45.9163 34.1963 39.6416 40.6043 31.9288 40.6043Z" stroke="#53C6F1" stroke-width="0.5"/>
<path d="M7.1215 22.5979V31.3914H4.22901C4.02201 31.3914 3.82349 31.4736 3.67712 31.62C3.53075 31.7664 3.44852 31.9649 3.44852 32.1719V56.6583C3.45488 57.8352 3.92688 58.9618 4.76137 59.7918C5.59585 60.6217 6.72496 61.0877 7.90192 61.0877C9.07888 61.0877 10.208 60.6217 11.0425 59.7918C11.877 58.9618 12.349 57.8352 12.3553 56.6583V32.172C12.3553 31.965 12.2731 31.7665 12.1267 31.6201C11.9804 31.4738 11.7818 31.3915 11.5748 31.3915H8.68247V22.598C12.122 22.2234 14.8038 19.4057 14.8038 15.9948V3.19068C14.8038 2.98368 14.7216 2.78516 14.5752 2.63879C14.4289 2.49242 14.2303 2.41019 14.0234 2.41019C13.8164 2.41019 13.6178 2.49242 13.4715 2.63879C13.3251 2.78516 13.2429 2.98368 13.2429 3.19068V15.9948C13.2429 18.5468 11.2587 20.6648 8.68247 21.0259V3.24804C8.68247 3.04104 8.60024 2.84252 8.45387 2.69615C8.3075 2.54978 8.10898 2.46755 7.90198 2.46755C7.69499 2.46755 7.49647 2.54978 7.3501 2.69615C7.20373 2.84252 7.1215 3.04104 7.1215 3.24804V21.0257C4.54511 20.6648 2.56098 18.5466 2.56098 15.9948V3.19068C2.56098 2.98368 2.47875 2.78516 2.33238 2.63879C2.18601 2.49242 1.98749 2.41019 1.78049 2.41019C1.57349 2.41019 1.37497 2.49242 1.2286 2.63879C1.08223 2.78516 1 2.98368 1 3.19068V15.9948C1 19.4056 3.68202 22.2233 7.1215 22.5979ZM10.7943 56.6583C10.7892 57.422 10.4822 58.1528 9.94035 58.691C9.39847 59.2293 8.6657 59.5314 7.90192 59.5314C7.13814 59.5314 6.40537 59.2293 5.86349 58.691C5.32161 58.1528 5.01462 57.422 5.0095 56.6583V32.9525H10.7943V56.6583Z" stroke="#53C6F1" stroke-width="0.5"/>
<path d="M64.2195 35.0648H61.3272V1.88986C61.3272 1.68286 61.2449 1.48434 61.0986 1.33797C60.9522 1.1916 60.7537 1.10938 60.5467 1.10938H59.3988C57.4675 1.11154 55.6159 1.87972 54.2503 3.24537C52.8846 4.61102 52.1164 6.46261 52.1143 8.39393V29.4364C52.1143 29.6434 52.1965 29.8419 52.3429 29.9883C52.4892 30.1347 52.6878 30.2169 52.8948 30.2169H59.7662V35.0648H56.8737C56.6667 35.0648 56.4682 35.147 56.3218 35.2934C56.1754 35.4397 56.0932 35.6383 56.0932 35.8452V56.6583C56.0996 57.8352 56.5716 58.9618 57.406 59.7918C58.2405 60.6217 59.3696 61.0877 60.5466 61.0877C61.7236 61.0877 62.8527 60.6217 63.6872 59.7918C64.5216 58.9618 64.9936 57.8352 65 56.6583V35.8452C65 35.6383 64.9178 35.4397 64.7714 35.2934C64.625 35.147 64.4265 35.0648 64.2195 35.0648ZM53.6753 8.39393C53.677 6.87647 54.2805 5.42166 55.3535 4.34865C56.4266 3.27564 57.8814 2.67207 59.3988 2.67035H59.7662V28.6559H53.6753V8.39393ZM63.439 56.6583C63.4339 57.422 63.1269 58.1528 62.585 58.691C62.0431 59.2293 61.3104 59.5314 60.5466 59.5314C59.7828 59.5314 59.0501 59.2293 58.5082 58.691C57.9663 58.1528 57.6593 57.422 57.6542 56.6583V36.6257H63.439V56.6583Z" stroke="#53C6F1" stroke-width="0.5"/>
</svg>
