<svg width="62" height="62" viewBox="0 0 62 62" fill="none" xmlns="http://www.w3.org/2000/svg">
<path d="M56.0801 13.1047H47.2032V7.76104C47.2032 5.22274 45.1392 3.15714 42.602 3.15714H41.3427V3.0566C41.3427 1.92213 40.421 1 39.287 1H21.3367C20.2028 1 19.281 1.92213 19.281 3.0566V3.15714H18.2558C15.7186 3.15714 13.6538 5.22274 13.6538 7.76104V13.1047H5.91919C3.20722 13.1047 1 15.3122 1 18.026V56.0787C1 58.7918 3.20647 61 5.91919 61H56.0808C58.7928 61 61 58.7926 61 56.0787V18.026C60.9993 15.3122 58.7928 13.1047 56.0801 13.1047ZM10.7499 14.6054H18.8123V20.1802H10.7499V14.6054ZM16.8008 21.6808V59.4986H12.7306V21.6808H16.8008ZM18.3008 21.6808H19.5623C19.977 21.6808 20.3123 21.3454 20.3123 20.9305V14.6054H40.5935V20.9305C40.5935 21.3454 40.9288 21.6808 41.3435 21.6808H42.557V59.4986H18.3008V21.6808ZM44.057 21.6808H48.1272V59.4986H44.057V21.6808ZM42.0935 20.1802V14.6054H50.1559V20.1802H42.0935ZM20.781 3.0566C20.781 2.74972 21.03 2.50062 21.3367 2.50062H39.2878C39.5945 2.50062 39.8435 2.74972 39.8435 3.0566V4.7583C39.8435 5.06518 39.5945 5.31428 39.2878 5.31428H21.3367C21.03 5.31428 20.781 5.06518 20.781 4.7583V3.0566ZM15.1538 7.76104C15.1538 6.05033 16.5451 4.65776 18.2558 4.65776H19.281V4.7583C19.281 5.89277 20.2028 6.8149 21.3367 6.8149H39.2878C40.4218 6.8149 41.3435 5.89277 41.3435 4.7583V4.65776H42.6027C44.3127 4.65776 45.7039 6.04958 45.7039 7.76104V13.1047H15.1538V7.76104ZM2.49998 56.078V18.026C2.49998 16.1397 4.03371 14.6054 5.91919 14.6054H9.2499V20.9305C9.2499 21.3454 9.58514 21.6808 9.99989 21.6808H11.2314V59.4986H5.91919C4.03371 59.4986 2.49998 57.9642 2.49998 56.078ZM59.4993 56.078C59.4993 57.9642 57.9655 59.4986 56.0801 59.4986H49.6271V21.6808H50.9059C51.3206 21.6808 51.6559 21.3454 51.6559 20.9305V14.6054H56.0801C57.9655 14.6054 59.4993 16.1397 59.4993 18.026V56.078Z" fill="#53C6F1" stroke="#53C6F1" stroke-width="0.5"/>
</svg>
