<svg width="60" height="60" viewBox="0 0 60 60" fill="none" xmlns="http://www.w3.org/2000/svg">
<path d="M59.5677 20.1799L30.5677 0.17989C30.4007 0.0628095 30.2017 0 29.9977 0C29.7937 0 29.5947 0.0628095 29.4277 0.17989L0.427641 20.1799C0.253312 20.3016 0.122298 20.4757 0.0536189 20.6769C-0.0150607 20.8781 -0.0178321 21.0959 0.0457069 21.2988C0.109246 21.5017 0.235788 21.679 0.406966 21.8051C0.578143 21.9312 0.785047 21.9994 0.997642 21.9999H3.99765V22.9999C4.00002 23.7949 4.31686 24.5565 4.87895 25.1186C5.44105 25.6807 6.20273 25.9976 6.99765 25.9999V26.9999C7.00084 27.6185 7.19454 28.2211 7.55241 28.7257C7.91027 29.2303 8.41491 29.6124 8.99766 29.8199V44.18C8.41491 44.3875 7.91027 44.7696 7.55241 45.2742C7.19454 45.7788 7.00084 46.3814 6.99765 47V48C6.20273 48.0023 5.44105 48.3192 4.87895 48.8813C4.31686 49.4434 4.00002 50.2051 3.99765 51V52.18C3.4149 52.3875 2.91026 52.7696 2.5524 53.2742C2.19454 53.7788 2.00083 54.3814 1.99764 55V59C1.99764 59.2652 2.103 59.5196 2.29054 59.7071C2.47807 59.8946 2.73243 60 2.99765 60H56.9977C57.263 60 57.5173 59.8946 57.7048 59.7071C57.8924 59.5196 57.9977 59.2652 57.9977 59V55C57.9946 54.3814 57.8009 53.7788 57.443 53.2742C57.0851 52.7696 56.5805 52.3875 55.9977 52.18V51C55.9954 50.2051 55.6785 49.4434 55.1164 48.8813C54.5543 48.3192 53.7927 48.0023 52.9977 48V47C52.9945 46.3814 52.8008 45.7788 52.443 45.2742C52.0851 44.7696 51.5805 44.3875 50.9977 44.18V29.8199C51.5805 29.6124 52.0851 29.2303 52.443 28.7257C52.8008 28.2211 52.9945 27.6185 52.9977 26.9999V25.9999C53.7927 25.9976 54.5543 25.6807 55.1164 25.1186C55.6785 24.5565 55.9954 23.7949 55.9977 22.9999V21.9999H58.9977C59.2103 21.9994 59.4172 21.9312 59.5884 21.8051C59.7596 21.679 59.8861 21.5017 59.9497 21.2988C60.0132 21.0959 60.0104 20.8781 59.9418 20.6769C59.8731 20.4757 59.7421 20.3016 59.5677 20.1799ZM8.99766 47C8.99766 46.7348 9.10301 46.4804 9.29055 46.2929C9.47809 46.1053 9.73244 46 9.99766 46H15.9977C16.2629 46 16.5172 46.1053 16.7048 46.2929C16.8923 46.4804 16.9977 46.7348 16.9977 47V48H8.99766V47ZM42.9977 29.8199V44.18C42.415 44.3875 41.9103 44.7696 41.5525 45.2742C41.1946 45.7788 41.0009 46.3814 40.9977 47V48H18.9977V47C18.9945 46.3814 18.8008 45.7788 18.4429 45.2742C18.0851 44.7696 17.5804 44.3875 16.9977 44.18V29.8199C17.5804 29.6124 18.0851 29.2303 18.4429 28.7257C18.8008 28.2211 18.9945 27.6185 18.9977 26.9999V25.9999H40.9977V26.9999C41.0009 27.6185 41.1946 28.2211 41.5525 28.7257C41.9103 29.2303 42.415 29.6124 42.9977 29.8199ZM49.9977 46C50.2629 46 50.5173 46.1053 50.7048 46.2929C50.8924 46.4804 50.9977 46.7348 50.9977 47V48H42.9977V47C42.9977 46.7348 43.1031 46.4804 43.2906 46.2929C43.4781 46.1053 43.7325 46 43.9977 46H49.9977ZM44.9977 44V29.9999H48.9977V44H44.9977ZM16.9977 26.9999C16.9977 27.2652 16.8923 27.5195 16.7048 27.707C16.5172 27.8946 16.2629 27.9999 15.9977 27.9999H9.99766C9.73244 27.9999 9.47809 27.8946 9.29055 27.707C9.10301 27.5195 8.99766 27.2652 8.99766 26.9999V25.9999H16.9977V26.9999ZM14.9977 29.9999V44H10.9977V29.9999H14.9977ZM55.9977 55V58H3.99765V55C3.99765 54.7348 4.103 54.4804 4.29054 54.2929C4.47808 54.1053 4.73243 54 4.99765 54H54.9977C55.263 54 55.5173 54.1053 55.7048 54.2929C55.8924 54.4804 55.9977 54.7348 55.9977 55ZM52.9977 50C53.263 50 53.5173 50.1053 53.7048 50.2929C53.8924 50.4804 53.9977 50.7348 53.9977 51V52H5.99765V51C5.99765 50.7348 6.10301 50.4804 6.29055 50.2929C6.47808 50.1053 6.73244 50 6.99765 50H52.9977ZM50.9977 26.9999C50.9977 27.2652 50.8924 27.5195 50.7048 27.707C50.5173 27.8946 50.2629 27.9999 49.9977 27.9999H43.9977C43.7325 27.9999 43.4781 27.8946 43.2906 27.707C43.1031 27.5195 42.9977 27.2652 42.9977 26.9999V25.9999H50.9977V26.9999ZM53.9977 22.9999C53.9977 23.2651 53.8924 23.5195 53.7048 23.707C53.5173 23.8946 53.263 23.9999 52.9977 23.9999H6.99765C6.73244 23.9999 6.47808 23.8946 6.29055 23.707C6.10301 23.5195 5.99765 23.2651 5.99765 22.9999V21.9999H53.9977V22.9999ZM4.20765 19.9999L29.9977 2.20989L55.7877 19.9999H4.20765Z" fill="#53C6F1"/>
<path d="M29.999 11C29.8012 11 29.6079 10.9414 29.4435 10.8315C29.279 10.7216 29.1508 10.5654 29.0751 10.3827C28.9995 10.2 28.9797 9.9989 29.0182 9.80492C29.0568 9.61094 29.1521 9.43275 29.2919 9.2929C29.4318 9.15305 29.61 9.05781 29.8039 9.01922C29.9979 8.98064 30.199 9.00044 30.3817 9.07613C30.5644 9.15181 30.7206 9.27999 30.8305 9.44444C30.9404 9.60889 30.999 9.80223 30.999 10H32.999C32.9965 9.38175 32.8029 8.77938 32.4449 8.27531C32.0869 7.77123 31.5819 7.39009 30.999 7.184V6H28.999V7.184C28.3323 7.41882 27.7703 7.88201 27.4124 8.49154C27.0545 9.10106 26.9239 9.81758 27.0436 10.5142C27.1634 11.2108 27.5259 11.8425 28.0668 12.2975C28.6077 12.7525 29.2922 13.0014 29.999 13C30.1968 13 30.3901 13.0587 30.5546 13.1685C30.719 13.2784 30.8472 13.4346 30.9229 13.6173C30.9986 13.8001 31.0184 14.0011 30.9798 14.1951C30.9412 14.3891 30.846 14.5673 30.7061 14.7071C30.5663 14.847 30.3881 14.9422 30.1941 14.9808C30.0001 15.0194 29.7991 14.9996 29.6163 14.9239C29.4336 14.8482 29.2774 14.72 29.1676 14.5556C29.0577 14.3911 28.999 14.1978 28.999 14H26.999C27.0016 14.6183 27.1951 15.2206 27.5531 15.7247C27.9111 16.2288 28.4161 16.6099 28.999 16.816V18H30.999V16.816C31.6657 16.5812 32.2278 16.118 32.5857 15.5085C32.9436 14.899 33.0742 14.1824 32.9544 13.4858C32.8346 12.7892 32.4722 12.1575 31.9313 11.7025C31.3904 11.2475 30.7059 10.9987 29.999 11Z" fill="#53C6F1"/>
<path d="M37.3921 31.081L30.3921 28.081C30.2675 28.028 30.1335 28.0007 29.9981 28.0007C29.8627 28.0007 29.7287 28.028 29.6041 28.081L22.6041 31.081C22.4242 31.1581 22.271 31.2863 22.1632 31.4496C22.0555 31.613 21.9981 31.8043 21.9981 32V35.515C21.9957 36.4347 22.1757 37.3458 22.5278 38.1955C22.8798 39.0451 23.3969 39.8165 24.0491 40.465L29.2911 45.707C29.4786 45.8945 29.7329 45.9998 29.9981 45.9998C30.2633 45.9998 30.5176 45.8945 30.7051 45.707L35.9471 40.465C36.5993 39.8165 37.1164 39.0451 37.4684 38.1955C37.8205 37.3458 38.0005 36.4347 37.9981 35.515V32C37.9981 31.8043 37.9407 31.613 37.8329 31.4496C37.7252 31.2863 37.5719 31.1581 37.3921 31.081ZM35.9981 35.515C35.9997 36.172 35.871 36.8227 35.6196 37.4297C35.3681 38.0366 34.9988 38.5877 34.5331 39.051L29.9981 43.586L25.4631 39.051C24.9973 38.5877 24.6281 38.0366 24.3766 37.4297C24.1252 36.8227 23.9965 36.172 23.9981 35.515V32.659L29.9981 30.088L35.9981 32.659V35.515Z" fill="#53C6F1"/>
<path d="M28.706 35.293L27.292 36.707L29.292 38.707C29.4795 38.8945 29.7338 38.9998 29.999 38.9998C30.2642 38.9998 30.5185 38.8945 30.706 38.707L34.706 34.707L33.292 33.293L29.999 36.586L28.706 35.293Z" fill="#53C6F1"/>
</svg>
