<svg width="51" height="62" viewBox="0 0 51 62" fill="none" xmlns="http://www.w3.org/2000/svg">
<path fill-rule="evenodd" clip-rule="evenodd" d="M36.8848 19.02H47.1277C48.5814 19.02 49.764 20.2027 49.764 21.6563V23.2171C49.764 24.5263 48.8045 25.6153 47.5517 25.8188L31.429 43.8562L31.422 49.525C31.4214 50.0099 31.0281 50.4026 30.5432 50.4026H30.5422C30.0568 50.402 29.6639 50.0081 29.6644 49.5227L29.6709 44.399H26.6183C26.133 44.399 25.7395 44.0057 25.7395 43.5202C25.7395 43.0348 26.133 42.6415 26.6183 42.6415H30.1576L45.1637 25.8535H5.36818L10.6803 31.8319C11.0026 32.1947 10.9699 32.7502 10.607 33.0725C10.2443 33.395 9.68878 33.362 9.36645 32.9993L2.98602 25.8186C1.73407 25.6144 0.775391 24.5258 0.775391 23.2171V21.6563C0.775391 20.2027 1.95798 19.02 3.41169 19.02H13.5977C12.8577 17.3786 12.4698 15.5901 12.4698 13.7712C12.4698 6.72896 18.199 0.999756 25.2412 0.999756C29.4827 0.999756 33.4374 3.09849 35.8202 6.6139C36.0925 7.01568 35.9876 7.56215 35.5858 7.83434C35.184 8.10675 34.6376 8.00177 34.3653 7.6C32.31 4.56767 28.8991 2.75729 25.2412 2.75729C19.1681 2.75729 14.2273 7.69807 14.2273 13.7712C14.2273 15.6118 14.6867 17.4156 15.5575 19.02H21.0821C20.5972 18.4005 20.3147 17.665 20.3147 16.8761C20.3147 16.3907 20.7082 15.9974 21.1935 15.9974C21.6788 15.9974 22.0723 16.3907 22.0723 16.8761C22.0723 17.8802 23.0569 18.754 24.357 19.0194V14.5921C22.0652 14.2716 20.3147 12.6338 20.3147 10.6662C20.3147 8.69857 22.0652 7.06079 24.357 6.74033V5.39359C24.357 4.90816 24.7505 4.51482 25.2358 4.51482C25.7211 4.51482 26.1146 4.90816 26.1146 5.39359V6.75744C28.3486 7.11644 30.0397 8.7322 30.0397 10.6662C30.0397 11.1516 29.6463 11.545 29.161 11.545C28.6757 11.545 28.2822 11.1516 28.2822 10.6662C28.2822 9.69264 27.3562 8.84117 26.1146 8.54848V12.9673C28.3486 13.3263 30.0397 14.942 30.0397 16.876C30.0397 17.665 29.7572 18.4004 29.2724 19.0199H34.9249C35.7957 17.4155 36.2551 15.6115 36.2551 13.7711C36.2551 12.8557 36.1427 11.9461 35.921 11.0675C35.8022 10.5969 36.0875 10.1192 36.5581 10.0004C37.0289 9.88186 37.5064 10.1671 37.6251 10.6376C37.8822 11.6566 38.0126 12.7109 38.0126 13.7712C38.0126 15.5901 37.6247 17.3786 36.8848 19.02ZM26.1146 18.9939C27.3562 18.7012 28.2822 17.8498 28.2822 16.8761C28.2822 15.9025 27.3563 15.0511 26.1146 14.7584V18.9939ZM24.357 8.52294C23.0569 8.78833 22.0723 9.66217 22.0723 10.6662C22.0723 11.6702 23.0569 12.5441 24.357 12.8094V8.52294ZM47.1277 24.0959C47.6122 24.0959 48.0064 23.7017 48.0064 23.2171L48.0063 21.6563C48.0063 21.1717 47.612 20.7775 47.1275 20.7775H35.4402C35.4392 20.7775 35.4382 20.7776 35.4371 20.7777C35.4364 20.7778 35.4356 20.7779 35.4348 20.7779C35.4336 20.7779 35.4324 20.7777 35.4313 20.7776C35.4307 20.7776 35.4302 20.7775 35.4296 20.7775H15.0527C15.0518 20.7775 15.0509 20.7776 15.05 20.7777C15.0492 20.7778 15.0484 20.7779 15.0475 20.7779C15.0457 20.7779 15.0439 20.7775 15.0421 20.7775H3.41169C2.92708 20.7775 2.53292 21.1717 2.53292 21.6563V23.2171C2.53292 23.7017 2.92708 24.0959 3.41169 24.0959H47.1277Z" fill="#53C6F1"/>
<path d="M30.5386 52.746H30.5396C31.0249 52.7466 31.4179 53.1405 31.4172 53.626L31.412 57.8108C31.4111 58.5362 31.1782 59.2198 30.7387 59.7882C29.7359 61.0877 27.9054 61.364 26.5342 60.5094C26.5342 60.5094 20.8004 56.9274 20.6894 56.8414C19.7895 56.1084 19.0122 55.4753 19.0122 54.1298V43.8543L12.091 36.065C11.7687 35.7023 11.8014 35.1468 12.1642 34.8245C12.5271 34.5019 13.0825 34.5348 13.4048 34.8977L20.2857 42.6415H22.5179C23.0032 42.6415 23.3966 43.0348 23.3966 43.5203C23.3966 44.0057 23.0032 44.399 22.5179 44.399H20.7698V54.1298C20.7698 54.5992 20.9385 54.7776 21.7995 55.4786C21.8679 55.5344 27.4576 59.0139 27.4576 59.0139C28.4074 59.6248 29.6901 58.9189 29.6546 57.8084L29.6598 53.6236C29.6604 53.1388 30.0537 52.746 30.5386 52.746Z" fill="#53C6F1"/>
<path fill-rule="evenodd" clip-rule="evenodd" d="M36.8848 19.02H47.1277C48.5814 19.02 49.764 20.2027 49.764 21.6563V23.2171C49.764 24.5263 48.8045 25.6153 47.5517 25.8188L31.429 43.8562L31.422 49.525C31.4214 50.0099 31.0281 50.4026 30.5432 50.4026H30.5422C30.0568 50.402 29.6639 50.0081 29.6644 49.5227L29.6709 44.399H26.6183C26.133 44.399 25.7395 44.0057 25.7395 43.5202C25.7395 43.0348 26.133 42.6415 26.6183 42.6415H30.1576L45.1637 25.8535H5.36818L10.6803 31.8319C11.0026 32.1947 10.9699 32.7502 10.607 33.0725C10.2443 33.395 9.68878 33.362 9.36645 32.9993L2.98602 25.8186C1.73407 25.6144 0.775391 24.5258 0.775391 23.2171V21.6563C0.775391 20.2027 1.95798 19.02 3.41169 19.02H13.5977C12.8577 17.3786 12.4698 15.5901 12.4698 13.7712C12.4698 6.72896 18.199 0.999756 25.2412 0.999756C29.4827 0.999756 33.4374 3.09849 35.8202 6.6139C36.0925 7.01568 35.9876 7.56215 35.5858 7.83434C35.184 8.10675 34.6376 8.00177 34.3653 7.6C32.31 4.56767 28.8991 2.75729 25.2412 2.75729C19.1681 2.75729 14.2273 7.69807 14.2273 13.7712C14.2273 15.6118 14.6867 17.4156 15.5575 19.02H21.0821C20.5972 18.4005 20.3147 17.665 20.3147 16.8761C20.3147 16.3907 20.7082 15.9974 21.1935 15.9974C21.6788 15.9974 22.0723 16.3907 22.0723 16.8761C22.0723 17.8802 23.0569 18.754 24.357 19.0194V14.5921C22.0652 14.2716 20.3147 12.6338 20.3147 10.6662C20.3147 8.69857 22.0652 7.06079 24.357 6.74033V5.39359C24.357 4.90816 24.7505 4.51482 25.2358 4.51482C25.7211 4.51482 26.1146 4.90816 26.1146 5.39359V6.75744C28.3486 7.11644 30.0397 8.7322 30.0397 10.6662C30.0397 11.1516 29.6463 11.545 29.161 11.545C28.6757 11.545 28.2822 11.1516 28.2822 10.6662C28.2822 9.69264 27.3562 8.84117 26.1146 8.54848V12.9673C28.3486 13.3263 30.0397 14.942 30.0397 16.876C30.0397 17.665 29.7572 18.4004 29.2724 19.0199H34.9249C35.7957 17.4155 36.2551 15.6115 36.2551 13.7711C36.2551 12.8557 36.1427 11.9461 35.921 11.0675C35.8022 10.5969 36.0875 10.1192 36.5581 10.0004C37.0289 9.88186 37.5064 10.1671 37.6251 10.6376C37.8822 11.6566 38.0126 12.7109 38.0126 13.7712C38.0126 15.5901 37.6247 17.3786 36.8848 19.02ZM26.1146 18.9939C27.3562 18.7012 28.2822 17.8498 28.2822 16.8761C28.2822 15.9025 27.3563 15.0511 26.1146 14.7584V18.9939ZM24.357 8.52294C23.0569 8.78833 22.0723 9.66217 22.0723 10.6662C22.0723 11.6702 23.0569 12.5441 24.357 12.8094V8.52294ZM47.1277 24.0959C47.6122 24.0959 48.0064 23.7017 48.0064 23.2171L48.0063 21.6563C48.0063 21.1717 47.612 20.7775 47.1275 20.7775H35.4402C35.4392 20.7775 35.4382 20.7776 35.4371 20.7777C35.4364 20.7778 35.4356 20.7779 35.4348 20.7779C35.4336 20.7779 35.4324 20.7777 35.4313 20.7776C35.4307 20.7776 35.4302 20.7775 35.4296 20.7775H15.0527C15.0518 20.7775 15.0509 20.7776 15.05 20.7777C15.0492 20.7778 15.0484 20.7779 15.0475 20.7779C15.0457 20.7779 15.0439 20.7775 15.0421 20.7775H3.41169C2.92708 20.7775 2.53292 21.1717 2.53292 21.6563V23.2171C2.53292 23.7017 2.92708 24.0959 3.41169 24.0959H47.1277Z" stroke="#53C6F1" stroke-width="0.5"/>
<path d="M30.5386 52.746H30.5396C31.0249 52.7466 31.4179 53.1405 31.4172 53.626L31.412 57.8108C31.4111 58.5362 31.1782 59.2198 30.7387 59.7882C29.7359 61.0877 27.9054 61.364 26.5342 60.5094C26.5342 60.5094 20.8004 56.9274 20.6894 56.8414C19.7895 56.1084 19.0122 55.4753 19.0122 54.1298V43.8543L12.091 36.065C11.7687 35.7023 11.8014 35.1468 12.1642 34.8245C12.5271 34.5019 13.0825 34.5348 13.4048 34.8977L20.2857 42.6415H22.5179C23.0032 42.6415 23.3966 43.0348 23.3966 43.5203C23.3966 44.0057 23.0032 44.399 22.5179 44.399H20.7698V54.1298C20.7698 54.5992 20.9385 54.7776 21.7995 55.4786C21.8679 55.5344 27.4576 59.0139 27.4576 59.0139C28.4074 59.6248 29.6901 58.9189 29.6546 57.8084L29.6598 53.6236C29.6604 53.1388 30.0537 52.746 30.5386 52.746Z" stroke="#53C6F1" stroke-width="0.5"/>
</svg>
