<svg width="84" height="81" viewBox="0 0 84 81" fill="none" xmlns="http://www.w3.org/2000/svg">
<path d="M64.9449 81H18.8616C15.4935 81 12.7532 78.2624 12.7532 74.8973V16.1141C12.7532 12.749 15.4935 10.0112 18.8616 10.0112H27.6825C28.1855 10.0112 28.5935 10.4188 28.5935 10.9213C28.5935 11.4239 28.1855 11.8315 27.6825 11.8315H18.8616C16.498 11.8315 14.575 13.7527 14.575 16.1141V74.8973C14.575 77.2585 16.498 79.1798 18.8616 79.1798H64.9449C67.3083 79.1798 69.2313 77.2585 69.2313 74.8973V16.1141C69.2313 13.7527 67.3083 11.8315 64.9449 11.8315H56.8325C56.3293 11.8315 55.9216 11.4239 55.9216 10.9213C55.9216 10.4188 56.3293 10.0112 56.8325 10.0112H64.9449C68.313 10.0112 71.0531 12.749 71.0531 16.1141V74.8973C71.0531 78.2624 68.313 81 64.9449 81Z" fill="#213CC4"/>
<path d="M53.1885 19.1124H31.326C28.3122 19.1124 25.8604 16.6627 25.8604 13.6517C25.8604 10.6407 28.3122 8.19102 31.326 8.19102H36.7916C36.7916 5.18001 39.2435 2.73035 42.2572 2.73035C45.271 2.73035 47.7228 5.18001 47.7228 8.19102H53.1885C56.2022 8.19102 58.6541 10.6407 58.6541 13.6517C58.6541 16.6627 56.2022 19.1124 53.1885 19.1124ZM31.326 10.0112C29.3168 10.0112 27.6822 11.6444 27.6822 13.6517C27.6822 15.659 29.3168 17.2921 31.326 17.2921H53.1885C55.1976 17.2921 56.8322 15.659 56.8322 13.6517C56.8322 11.6444 55.1976 10.0112 53.1885 10.0112H46.8119C46.3087 10.0112 45.901 9.6037 45.901 9.10113V8.19102C45.901 6.18368 44.2664 4.55057 42.2572 4.55057C40.248 4.55057 38.6135 6.18368 38.6135 8.19102V9.10113C38.6135 9.6037 38.2055 10.0112 37.7025 10.0112H31.326Z" fill="#213CC4"/>
<path d="M61.0326 73.7191H22.7732C22.2702 73.7191 21.8623 73.3117 21.8623 72.809V18.2022C21.8623 17.6997 22.2702 17.2921 22.7732 17.2921H61.0326C61.5358 17.2921 61.9435 17.6997 61.9435 18.2022V72.809C61.9435 73.3117 61.5358 73.7191 61.0326 73.7191ZM23.6842 71.8989H60.1216V19.1123H23.6842V71.8989Z" fill="#213CC4"/>
<path d="M55.9214 35.4944H41.8343C41.3313 35.4944 40.9233 35.0869 40.9233 34.5843C40.9233 34.0817 41.3313 33.6742 41.8343 33.6742H55.9214C56.4246 33.6742 56.8323 34.0817 56.8323 34.5843C56.8323 35.0869 56.4246 35.4944 55.9214 35.4944Z" fill="#213CC4"/>
<path d="M49.1218 30.0337H41.8343C41.3313 30.0337 40.9233 29.6262 40.9233 29.1236C40.9233 28.621 41.3313 28.2135 41.8343 28.2135H49.1218C49.625 28.2135 50.0327 28.621 50.0327 29.1236C50.0327 29.6262 49.625 30.0337 49.1218 30.0337Z" fill="#213CC4"/>
<path d="M31.1697 45.9931C30.9365 45.9931 30.7033 45.9041 30.5255 45.7264L27.949 43.1522C27.5932 42.7969 27.5932 42.2207 27.949 41.8653C28.3048 41.5099 28.8814 41.5099 29.2372 41.8653L31.1794 43.8055L35.7342 39.3917C36.0953 39.0416 36.6719 39.0504 37.0223 39.4113C37.3726 39.7721 37.3639 40.3484 37.0026 40.6982L31.8037 45.7362C31.6272 45.9075 31.3983 45.9931 31.1697 45.9931Z" fill="#FF6D2A"/>
<path d="M55.9214 46.4157H41.8343C41.3313 46.4157 40.9233 46.0083 40.9233 45.5056C40.9233 45.0028 41.3313 44.5955 41.8343 44.5955H55.9214C56.4246 44.5955 56.8323 45.0028 56.8323 45.5056C56.8323 46.0083 56.4246 46.4157 55.9214 46.4157Z" fill="#213CC4"/>
<path d="M49.1218 40.955H41.8343C41.3313 40.955 40.9233 40.5476 40.9233 40.0449C40.9233 39.5423 41.3313 39.1348 41.8343 39.1348H49.1218C49.625 39.1348 50.0327 39.5423 50.0327 40.0449C50.0327 40.5476 49.625 40.955 49.1218 40.955Z" fill="#213CC4"/>
<path d="M31.1697 56.9144C30.9365 56.9144 30.7033 56.8254 30.5255 56.6477L27.949 54.0734C27.5932 53.718 27.5932 53.1418 27.949 52.7865C28.305 52.4311 28.8816 52.4311 29.2372 52.7865L31.1794 54.7268L35.7342 50.3129C36.0953 49.9627 36.6719 49.9718 37.0223 50.3324C37.3726 50.6932 37.3639 51.2695 37.0026 51.6193L31.8037 56.6573C31.6272 56.8288 31.3983 56.9144 31.1697 56.9144Z" fill="#FF6D2A"/>
<path d="M55.9214 57.3371H41.8343C41.3313 57.3371 40.9233 56.9297 40.9233 56.427C40.9233 55.9242 41.3313 55.5168 41.8343 55.5168H55.9214C56.4246 55.5168 56.8323 55.9242 56.8323 56.427C56.8323 56.9297 56.4246 57.3371 55.9214 57.3371Z" fill="#213CC4"/>
<path d="M49.1218 51.8764H41.8343C41.3313 51.8764 40.9233 51.469 40.9233 50.9663C40.9233 50.4635 41.3313 50.0562 41.8343 50.0562H49.1218C49.625 50.0562 50.0327 50.4635 50.0327 50.9663C50.0327 51.469 49.625 51.8764 49.1218 51.8764Z" fill="#213CC4"/>
<path d="M31.1697 67.8359C30.9365 67.8359 30.7033 67.7469 30.5255 67.5692L27.949 64.9949C27.5932 64.6395 27.5932 64.0633 27.949 63.708C28.305 63.3525 28.8816 63.3526 29.2372 63.708L31.1794 65.6483L35.7342 61.2345C36.0953 60.8842 36.6719 60.8933 37.0223 61.2539C37.3726 61.6147 37.3639 62.191 37.0026 62.5408L31.8037 67.5788C31.6272 67.7503 31.3983 67.8359 31.1697 67.8359Z" fill="#FF6D2A"/>
<path d="M55.9214 68.2585H41.8343C41.3313 68.2585 40.9233 67.8511 40.9233 67.3483C40.9233 66.8456 41.3313 66.4382 41.8343 66.4382H55.9214C56.4246 66.4382 56.8323 66.8456 56.8323 67.3483C56.8323 67.8511 56.4246 68.2585 55.9214 68.2585Z" fill="#213CC4"/>
<path d="M49.1218 62.7978H41.8343C41.3313 62.7978 40.9233 62.3904 40.9233 61.8877C40.9233 61.3849 41.3313 60.9775 41.8343 60.9775H49.1218C49.625 60.9775 50.0327 61.3849 50.0327 61.8877C50.0327 62.3904 49.625 62.7978 49.1218 62.7978Z" fill="#213CC4"/>
<path d="M4.55468 64.618C2.04323 64.618 0 62.5766 0 60.0674C0 57.5582 2.04323 55.5168 4.55468 55.5168C7.06614 55.5168 9.10937 57.5582 9.10937 60.0674C9.10937 62.5766 7.06614 64.618 4.55468 64.618ZM4.55468 57.3371C3.04781 57.3371 1.82187 58.5619 1.82187 60.0674C1.82187 61.5729 3.04781 62.7977 4.55468 62.7977C6.06156 62.7977 7.28749 61.5729 7.28749 60.0674C7.28749 58.5619 6.06156 57.3371 4.55468 57.3371Z" fill="#FF6D2A"/>
<path d="M78.3404 11.8315C75.3266 11.8315 72.8748 9.38185 72.8748 6.37083C72.8748 3.35981 75.3266 0.910156 78.3404 0.910156C81.3541 0.910156 83.806 3.35981 83.806 6.37083C83.806 9.38185 81.3541 11.8315 78.3404 11.8315ZM78.3404 2.73038C76.3312 2.73038 74.6966 4.36349 74.6966 6.37083C74.6966 8.37817 76.3312 10.0113 78.3404 10.0113C80.3495 10.0113 81.9841 8.37817 81.9841 6.37083C81.9841 4.36349 80.3495 2.73038 78.3404 2.73038Z" fill="#FF6D2A"/>
<path d="M77.4298 72.809C78.436 72.809 79.2517 71.9941 79.2517 70.9888C79.2517 69.9835 78.436 69.1686 77.4298 69.1686C76.4236 69.1686 75.6079 69.9835 75.6079 70.9888C75.6079 71.9941 76.4236 72.809 77.4298 72.809Z" fill="#FF6D2A"/>
<path d="M75.6075 25.4831C76.6137 25.4831 77.4294 24.6682 77.4294 23.6629C77.4294 22.6576 76.6137 21.8427 75.6075 21.8427C74.6013 21.8427 73.7856 22.6576 73.7856 23.6629C73.7856 24.6682 74.6013 25.4831 75.6075 25.4831Z" fill="#FF6D2A"/>
<path d="M35.5265 36.4045C36.5327 36.4045 37.3483 35.5895 37.3483 34.5843C37.3483 33.579 36.5327 32.764 35.5265 32.764C34.5203 32.764 33.7046 33.579 33.7046 34.5843C33.7046 35.5895 34.5203 36.4045 35.5265 36.4045Z" fill="#FF6D2A"/>
<path d="M59.2108 3.64045C60.217 3.64045 61.0327 2.82551 61.0327 1.82022C61.0327 0.814942 60.217 0 59.2108 0C58.2046 0 57.3889 0.814942 57.3889 1.82022C57.3889 2.82551 58.2046 3.64045 59.2108 3.64045Z" fill="#FF6D2A"/>
<path d="M15.4859 5.46064C16.4921 5.46064 17.3078 4.6457 17.3078 3.64042C17.3078 2.63513 16.4921 1.82019 15.4859 1.82019C14.4797 1.82019 13.6641 2.63513 13.6641 3.64042C13.6641 4.6457 14.4797 5.46064 15.4859 5.46064Z" fill="#FF6D2A"/>
<path d="M2.73276 18.2022C3.73896 18.2022 4.55464 17.3873 4.55464 16.382C4.55464 15.3767 3.73896 14.5618 2.73276 14.5618C1.72657 14.5618 0.910889 15.3767 0.910889 16.382C0.910889 17.3873 1.72657 18.2022 2.73276 18.2022Z" fill="#FF6D2A"/>
<path d="M6.37656 47.3259C7.38275 47.3259 8.19843 46.5109 8.19843 45.5056C8.19843 44.5004 7.38275 43.6854 6.37656 43.6854C5.37037 43.6854 4.55469 44.5004 4.55469 45.5056C4.55469 46.5109 5.37037 47.3259 6.37656 47.3259Z" fill="#FF6D2A"/>
<path d="M6.37656 78.2696C7.38275 78.2696 8.19843 77.4547 8.19843 76.4494C8.19843 75.4441 7.38275 74.6292 6.37656 74.6292C5.37037 74.6292 4.55469 75.4441 4.55469 76.4494C4.55469 77.4547 5.37037 78.2696 6.37656 78.2696Z" fill="#FF6D2A"/>
</svg>
