<svg width="80" height="81" viewBox="0 0 80 81" fill="none" xmlns="http://www.w3.org/2000/svg">
<path d="M45.3692 12.3031C44.8901 12.3031 44.5019 11.9148 44.5019 11.4359V2.49409H35.4979V11.4359C35.4979 11.9148 35.1095 12.3031 34.6307 12.3031C34.1518 12.3031 33.7634 11.9148 33.7634 11.4359V1.62687C33.7634 1.14799 34.1518 0.759644 34.6307 0.759644H45.3692C45.8482 0.759644 46.2364 1.14799 46.2364 1.62687V11.4359C46.2364 11.9148 45.8482 12.3031 45.3692 12.3031Z" fill="#213CC4"/>
<path d="M64.5742 24.6934C64.3524 24.6934 64.1302 24.6088 63.9611 24.4395C63.6223 24.1008 63.6223 23.5516 63.9611 23.2131L70.2656 16.9083L63.8514 10.4942L57.5467 16.7989C57.2083 17.1375 56.6589 17.1375 56.3205 16.7989C55.9817 16.4602 55.9817 15.911 56.3205 15.5725L63.2383 8.65444C63.401 8.49174 63.6215 8.40051 63.8514 8.40051C64.0814 8.40051 64.3021 8.49192 64.4646 8.65444L72.1054 16.2952C72.4441 16.634 72.4441 17.1831 72.1054 17.5216L65.1875 24.4395C65.0182 24.6088 64.796 24.6934 64.5742 24.6934Z" fill="#213CC4"/>
<path d="M79.1327 46.996H69.3235C68.8445 46.996 68.4563 46.6079 68.4563 46.1288C68.4563 45.6497 68.8445 45.2616 69.3235 45.2616H78.2655V36.2575H69.3235C68.8445 36.2575 68.4563 35.8692 68.4563 35.3903C68.4563 34.9114 68.8445 34.5231 69.3235 34.5231H79.1327C79.6118 34.5231 79.9999 34.9114 79.9999 35.3903V46.1288C79.9999 46.6079 79.6116 46.996 79.1327 46.996Z" fill="#213CC4"/>
<path d="M63.8512 73.1189C63.6294 73.1189 63.4072 73.0343 63.2381 72.8648L56.3202 65.947C55.9815 65.6084 55.9815 65.0593 56.3202 64.7207C56.6586 64.382 57.2081 64.382 57.5465 64.7207L63.8512 71.0253L70.2654 64.6111L63.9608 58.3064C63.6221 57.9678 63.6221 57.4187 63.9608 57.0801C64.2992 56.7414 64.8487 56.7414 65.1871 57.0801L72.1049 63.998C72.4437 64.3365 72.4437 64.8857 72.1049 65.2242L64.4642 72.865C64.2952 73.0343 64.073 73.1189 63.8512 73.1189Z" fill="#213CC4"/>
<path d="M45.3692 80.7597H34.6307C34.1518 80.7597 33.7634 80.3715 33.7634 79.8925V70.0833C33.7634 69.6042 34.1518 69.2161 34.6307 69.2161C35.1095 69.2161 35.4979 69.6042 35.4979 70.0833V79.0253H44.5019V70.0833C44.5019 69.6042 44.8901 69.2161 45.3692 69.2161C45.8482 69.2161 46.2364 69.6042 46.2364 70.0833V79.8925C46.2364 80.3714 45.8482 80.7597 45.3692 80.7597Z" fill="#213CC4"/>
<path d="M16.1489 73.1189C15.9269 73.1189 15.705 73.0343 15.5356 72.8648L7.89479 65.224C7.7321 65.0613 7.64087 64.8409 7.64087 64.6109C7.64087 64.3809 7.73227 64.1603 7.89479 63.9978L14.8128 57.0799C15.1517 56.7412 15.7007 56.7414 16.0393 57.0799C16.3778 57.4185 16.378 57.9676 16.0393 58.3062L9.73452 64.6109L16.1487 71.0251L22.4534 64.7205C22.7923 64.3818 23.3413 64.382 23.6799 64.7205C24.0186 65.0591 24.0186 65.6082 23.6799 65.9468L16.762 72.8646C16.5927 73.0343 16.3707 73.1189 16.1489 73.1189Z" fill="#213CC4"/>
<path d="M10.6762 46.996H0.867226C0.388344 46.996 0 46.6079 0 46.1288V35.3903C0 34.9114 0.388344 34.5231 0.867226 34.5231H10.6762C11.1551 34.5231 11.5435 34.9114 11.5435 35.3903C11.5435 35.8692 11.1551 36.2575 10.6762 36.2575H1.73445V45.2616H10.6762C11.1551 45.2616 11.5435 45.6497 11.5435 46.1288C11.5435 46.6079 11.1551 46.996 10.6762 46.996Z" fill="#213CC4"/>
<path d="M15.4261 24.6934C15.2041 24.6934 14.9823 24.6088 14.8128 24.4395L7.89479 17.5215C7.7321 17.3588 7.64087 17.1383 7.64087 16.9082C7.64087 16.678 7.73227 16.4575 7.89479 16.2948L15.5356 8.65407C15.6983 8.49138 15.9187 8.40015 16.1489 8.40015C16.379 8.40015 16.5995 8.49155 16.7622 8.65407L23.68 15.5721C24.0188 15.9108 24.0188 16.46 23.68 16.7985C23.3413 17.1373 22.7923 17.1371 22.4536 16.7985L16.1489 10.4938L9.7347 16.908L16.0394 23.2127C16.3782 23.5514 16.3782 24.1006 16.0394 24.4391C15.87 24.6088 15.6481 24.6934 15.4261 24.6934Z" fill="#213CC4"/>
<path d="M39.9997 51.3126C34.1808 51.3126 29.4468 46.5785 29.4468 40.7595C29.4468 34.9406 34.1808 30.2065 39.9997 30.2065C45.8188 30.2065 50.5528 34.9406 50.5528 40.7595C50.5528 43.5516 49.4478 46.1944 47.4412 48.2008C45.4346 50.2075 42.7918 51.3126 39.9997 51.3126ZM39.9997 31.941C35.1372 31.941 31.1812 35.8969 31.1812 40.7595C31.1812 45.622 35.1372 49.5781 39.9997 49.5781C44.78 49.5781 48.8183 45.5398 48.8183 40.7595C48.8183 35.8969 44.8624 31.941 39.9997 31.941Z" fill="#213CC4"/>
<path d="M39.9996 59.9848C29.3988 59.9848 20.7744 51.3603 20.7744 40.7595C20.7744 30.1587 29.3988 21.5343 39.9996 21.5343C50.6004 21.5343 59.2249 30.1587 59.2249 40.7595C59.2249 45.8442 57.2112 50.6582 53.5549 54.3146C49.8985 57.971 45.0845 59.9848 39.9996 59.9848ZM39.9996 23.2688C30.3552 23.2688 22.5089 31.1151 22.5089 40.7595C22.5089 50.4039 30.3552 58.2504 39.9996 58.2504C49.4806 58.2504 57.4905 50.2405 57.4905 40.7595C57.4905 31.1151 49.6442 23.2688 39.9996 23.2688Z" fill="#FF6D2A"/>
<path d="M39.9997 71.4667C31.828 71.4667 24.1252 68.2642 18.3101 62.4493C12.495 56.6342 9.29248 48.9314 9.29248 40.7595C9.29248 32.5878 12.495 24.8849 18.3101 19.0698C24.1252 13.2547 31.828 10.0522 39.9997 10.0522C48.1714 10.0522 55.8743 13.2547 61.6896 19.0698C67.5045 24.8849 70.707 32.5878 70.707 40.7595C70.707 48.9312 67.5045 56.6341 61.6896 62.4493C55.8745 68.2644 48.1716 71.4667 39.9997 71.4667ZM39.9997 11.7869C24.0242 11.7869 11.0271 24.784 11.0271 40.7595C11.0271 56.735 24.0242 69.7323 39.9997 69.7323C55.9752 69.7323 68.9725 56.735 68.9725 40.7595C68.9725 24.784 55.9754 11.7869 39.9997 11.7869Z" fill="#213CC4"/>
<path d="M5.31098 79.7847C2.92004 79.7847 0.974854 77.8395 0.974854 75.4486C0.974854 73.0576 2.92004 71.1124 5.31098 71.1124C7.70192 71.1124 9.64711 73.0576 9.64711 75.4486C9.64711 77.8395 7.70192 79.7847 5.31098 79.7847ZM5.31098 72.8469C3.87642 72.8469 2.7093 74.014 2.7093 75.4486C2.7093 76.8831 3.87642 78.0502 5.31098 78.0502C6.74555 78.0502 7.91266 76.8831 7.91266 75.4486C7.91266 74.014 6.74555 72.8469 5.31098 72.8469Z" fill="#FF6D2A"/>
<path d="M73.8215 10.4067C70.9524 10.4067 68.6182 8.07248 68.6182 5.20335C68.6182 2.33422 70.9524 0 73.8215 0C76.6906 0 79.0249 2.33422 79.0249 5.20335C79.0249 8.07248 76.6906 10.4067 73.8215 10.4067ZM73.8215 1.73445C71.9088 1.73445 70.3526 3.2906 70.3526 5.20335C70.3526 7.11611 71.9088 8.67226 73.8215 8.67226C75.7343 8.67226 77.2904 7.11611 77.2904 5.20335C77.2904 3.2906 75.7344 1.73445 73.8215 1.73445Z" fill="#FF6D2A"/>
<path d="M76.4232 58.1039C77.3811 58.1039 78.1576 57.3274 78.1576 56.3695C78.1576 55.4116 77.3811 54.635 76.4232 54.635C75.4653 54.635 74.6887 55.4116 74.6887 56.3695C74.6887 57.3274 75.4653 58.1039 76.4232 58.1039Z" fill="#FF6D2A"/>
<path d="M76.4232 21.6807C77.3811 21.6807 78.1576 20.9042 78.1576 19.9462C78.1576 18.9883 77.3811 18.2118 76.4232 18.2118C75.4653 18.2118 74.6887 18.9883 74.6887 19.9462C74.6887 20.9042 75.4653 21.6807 76.4232 21.6807Z" fill="#FF6D2A"/>
<path d="M53.8753 6.07059C54.8332 6.07059 55.6098 5.29405 55.6098 4.33614C55.6098 3.37822 54.8332 2.60168 53.8753 2.60168C52.9174 2.60168 52.1409 3.37822 52.1409 4.33614C52.1409 5.29405 52.9174 6.07059 53.8753 6.07059Z" fill="#FF6D2A"/>
<path d="M17.452 4.33609C18.4099 4.33609 19.1864 3.55955 19.1864 2.60164C19.1864 1.64373 18.4099 0.867188 17.452 0.867188C16.4941 0.867188 15.7175 1.64373 15.7175 2.60164C15.7175 3.55955 16.4941 4.33609 17.452 4.33609Z" fill="#FF6D2A"/>
<path d="M1.84187 14.7428C2.79978 14.7428 3.57632 13.9663 3.57632 13.0084C3.57632 12.0505 2.79978 11.2739 1.84187 11.2739C0.883962 11.2739 0.107422 12.0505 0.107422 13.0084C0.107422 13.9663 0.883962 14.7428 1.84187 14.7428Z" fill="#FF6D2A"/>
<path d="M69.4854 77.1829C70.4433 77.1829 71.2199 76.4064 71.2199 75.4484C71.2199 74.4905 70.4433 73.714 69.4854 73.714C68.5275 73.714 67.751 74.4905 67.751 75.4484C67.751 76.4064 68.5275 77.1829 69.4854 77.1829Z" fill="#FF6D2A"/>
<path d="M3.57649 59.8384C4.5344 59.8384 5.31094 59.0619 5.31094 58.104C5.31094 57.146 4.5344 56.3695 3.57649 56.3695C2.61858 56.3695 1.84204 57.146 1.84204 58.104C1.84204 59.0619 2.61858 59.8384 3.57649 59.8384Z" fill="#FF6D2A"/>
</svg>
