<svg width="60" height="60" viewBox="0 0 60 60" fill="none" xmlns="http://www.w3.org/2000/svg">
<path d="M53.0301 60H6.96991C3.12653 60 0 56.8735 0 53.031V6.96991C0 3.12653 3.12653 0 6.96991 0H53.0301C56.8735 0 60 3.12653 60 6.96991V53.031C60 56.8735 56.8735 60 53.0301 60ZM6.96991 1.875C4.16016 1.875 1.875 4.16016 1.875 6.96991V53.031C1.875 55.8398 4.16016 58.125 6.96991 58.125H53.0301C55.8398 58.125 58.125 55.8398 58.125 53.031V6.96991C58.125 4.16016 55.8398 1.875 53.0301 1.875H6.96991Z" fill="#FF6D2A"/>
<path d="M57.1243 58.0618C56.8845 58.0618 56.6446 57.9703 56.4615 57.7872L2.21283 3.53943C1.84662 3.17322 1.84662 2.57996 2.21283 2.21375C2.57904 1.84753 3.1723 1.84753 3.53851 2.21375L57.7872 56.4615C58.1534 56.8277 58.1534 57.421 57.7872 57.7872C57.6041 57.9703 57.3642 58.0618 57.1243 58.0618Z" fill="#FF6D2A"/>
<path d="M53.9648 47.1835H6.03516C5.51697 47.1835 5.09766 46.7642 5.09766 46.246V37.8085C5.09766 37.2903 5.51697 36.871 6.03516 36.871H53.9648C54.483 36.871 54.9023 37.2903 54.9023 37.8085V46.246C54.9023 46.7642 54.483 47.1835 53.9648 47.1835ZM6.97266 45.3085H53.0273V38.746H6.97266V45.3085Z" fill="#FF6D2A"/>
<path d="M53.9648 34.0585C53.4467 34.0585 53.0273 33.6392 53.0273 33.121C53.0273 26.5182 52.0221 22.8571 46.55 21.2503C44.9066 21.1469 44.6036 19.3185 44.3362 17.6999C44.1348 16.4813 43.9059 15.0998 43.2239 14.4177C42.8577 14.0515 42.8577 13.4583 43.2239 13.092C43.5901 12.7258 44.1833 12.7258 44.5496 13.092C45.6573 14.1998 45.9384 15.8972 46.1865 17.3941C46.2982 18.0725 46.4859 19.2068 46.7194 19.3936C46.8018 19.3936 46.8732 19.3918 46.9565 19.4156C54.2889 21.5112 54.9023 27.3349 54.9023 33.121C54.9023 33.6392 54.483 34.0585 53.9648 34.0585Z" fill="#FF6D2A"/>
<path d="M48.4607 34.0585C47.9425 34.0585 47.5232 33.6392 47.5232 33.121C47.5232 28.8684 45.9091 26.4038 42.4448 25.3748C41.1218 25.2704 40.8792 23.8019 40.6998 22.7197C40.5707 21.9379 40.4242 21.0526 40.0305 20.6589C39.6643 20.2927 39.6643 19.6994 40.0305 19.3332C40.3967 18.967 40.99 18.967 41.3562 19.3332C42.1756 20.1526 42.3834 21.4059 42.55 22.413C42.6096 22.7728 42.6947 23.2901 42.7899 23.5254C42.8128 23.53 42.8348 23.5355 42.8568 23.5419C47.1973 24.7824 49.3982 28.0051 49.3982 33.121C49.3982 33.6392 48.9789 34.0585 48.4607 34.0585Z" fill="#FF6D2A"/>
<path d="M14.2383 47.1835C13.7201 47.1835 13.3008 46.7642 13.3008 46.246V37.8085C13.3008 37.2903 13.7201 36.871 14.2383 36.871C14.7565 36.871 15.1758 37.2903 15.1758 37.8085V46.246C15.1758 46.7642 14.7565 47.1835 14.2383 47.1835Z" fill="#FF6D2A"/>
<path d="M48.457 47.1835C47.9388 47.1835 47.5195 46.7642 47.5195 46.246V37.8085C47.5195 37.2903 47.9388 36.871 48.457 36.871C48.9752 36.871 49.3945 37.2903 49.3945 37.8085V46.246C49.3945 46.7642 48.9752 47.1835 48.457 47.1835Z" fill="#FF6D2A"/>
</svg>
