<svg width="47" height="62" viewBox="0 0 47 62" fill="none" xmlns="http://www.w3.org/2000/svg">
<path d="M36.382 46.6067C36.142 46.6067 35.9021 46.4868 35.7821 46.1869C35.6022 45.8271 35.7821 45.4073 36.082 45.2274C37.9415 44.3278 37.7615 42.7685 37.3416 40.6695C37.2817 40.4296 37.2217 40.1298 37.1617 39.9499C36.9818 38.8704 36.7418 35.272 42.3201 33.7727C43.9995 33.293 44.7793 32.3934 44.6593 30.8941C44.5994 30.2944 44.3594 29.6947 43.9995 29.0949C43.5197 28.3153 42.5 26.6961 41.3604 24.777C39.261 21.4185 36.6819 17.2205 35.1823 14.8816C33.7428 12.6027 33.8627 9.66403 33.9227 8.10476C33.9227 7.92485 33.9227 7.8049 33.9227 7.68496C33.9227 7.32513 34.2226 6.9653 34.6425 7.02527C35.0024 7.02527 35.3023 7.3851 35.3023 7.74493C35.3023 7.86488 35.3023 8.04479 35.3023 8.22471C35.2423 9.66403 35.1223 12.3028 36.322 14.1619C37.8215 16.5008 40.4007 20.6989 42.5 24.0573C43.6996 25.9764 44.6593 27.5357 45.1392 28.3153C45.619 29.0949 45.9189 29.9345 45.9789 30.7142C46.0989 31.9736 45.799 34.1926 42.62 35.0322C38.3013 36.1716 38.3013 38.6305 38.4813 39.65C38.5413 39.8899 38.6012 40.0698 38.6012 40.3697C38.9611 42.1088 39.6209 45.0475 36.6219 46.4868C36.6219 46.6067 36.5019 46.6067 36.382 46.6067Z" fill="#FF6D2A"/>
<path d="M29.3642 61C25.2255 61 21.1468 60.4603 17.308 59.4407C12.6295 58.1813 6.03154 55.7824 1.23305 51.6444C0.933148 51.4045 0.933147 50.9247 1.17307 50.6848C1.413 50.385 1.89284 50.385 2.13277 50.6249C6.69133 54.643 13.1093 56.9219 17.6679 58.1213C21.4467 59.1409 25.3454 59.6206 29.3642 59.6206C32.2433 59.6206 34.2226 59.0209 35.0624 57.9414C35.7222 57.1018 35.6622 56.0223 35.4223 55.2427C35.0024 53.5635 35.1223 51.8243 35.8421 50.325C36.202 49.6053 36.5019 49.1855 36.5019 49.1256C36.5619 49.0656 36.6219 48.9456 36.6219 48.8857C36.6819 48.8257 36.6819 48.7657 36.7418 48.7058C37.0417 48.226 37.1017 47.6862 36.8618 47.2664C35.8421 45.4073 31.1636 47.2664 29.6641 48.0461C29.3042 48.226 28.8843 48.106 28.7044 47.7462C28.5244 47.3864 28.6444 46.9666 29.0043 46.7867C29.7241 46.4268 36.202 43.2483 38.0614 46.6067C38.5413 47.5063 38.4813 48.5858 37.8815 49.4854C37.8215 49.5454 37.8215 49.6053 37.7615 49.6653C37.7015 49.7253 37.6416 49.8452 37.5816 49.9052C37.5816 49.9052 37.3416 50.265 37.0417 50.8647C36.5019 52.0642 36.382 53.4435 36.7418 54.8229C37.1017 56.3222 36.9218 57.7015 36.082 58.7211C35.0624 60.2803 32.7831 61 29.3642 61Z" fill="#FF6D2A"/>
<path d="M7.29114 21.6584C7.05121 21.6584 6.75131 21.5385 6.63135 21.2386C5.67165 19.1996 5.49171 17.3404 6.1515 15.7812C6.81129 14.102 8.3708 12.8425 10.77 11.943C12.5695 11.2833 14.7888 10.9234 17.5479 10.8635C30.1439 10.6236 33.9827 8.10476 34.8824 6.00575C35.7821 4.08665 34.2826 2.16754 34.2226 2.10757C33.9827 1.80771 34.0427 1.38791 34.3426 1.14802C34.6425 0.908134 35.0624 0.968106 35.3023 1.26797C35.3623 1.38791 37.4016 3.90673 36.142 6.60547C34.5225 10.1438 28.2245 12.0029 17.5479 12.2428C14.9087 12.3028 12.8094 12.6027 11.1899 13.2024C9.21053 13.922 7.89095 15.0015 7.35112 16.2609C6.87127 17.4604 6.99123 18.8997 7.83097 20.5789C8.01091 20.9388 7.83097 21.3586 7.47108 21.4785C7.47108 21.5984 7.4111 21.6584 7.29114 21.6584Z" fill="#FF6D2A"/>
<path d="M16.5282 56.682C16.1683 56.682 15.8684 56.4421 15.8684 56.0823L14.7888 49.4854C14.3689 47.0865 13.949 44.5677 14.069 41.9889C14.129 39.1102 14.9087 36.5315 16.2283 34.6124C17.6679 32.5733 19.7072 31.194 21.7466 29.8146C22.3464 29.3948 22.9462 29.035 23.486 28.6152C27.6847 25.5566 31.1036 21.4785 33.2629 16.7407C33.4429 16.3809 33.8627 16.2609 34.1626 16.3809C34.5225 16.5608 34.6425 16.9806 34.5225 17.2805C32.2433 22.1982 28.7044 26.5161 24.2658 29.6947C23.666 30.1145 23.0662 30.5343 22.4663 30.9541C20.487 32.2735 18.6276 33.5329 17.368 35.392C16.1683 37.0712 15.5085 39.3501 15.4486 41.9889C15.3886 44.3878 15.8084 46.8466 16.1683 49.1855L17.248 55.7824C17.308 56.1423 17.0681 56.5021 16.6482 56.5621C16.5882 56.682 16.5282 56.682 16.5282 56.682Z" fill="#FF6D2A"/>
<path d="M36.382 46.6067C36.142 46.6067 35.9021 46.4868 35.7821 46.1869C35.6022 45.8271 35.7821 45.4073 36.082 45.2274C37.9415 44.3278 37.7615 42.7685 37.3416 40.6695C37.2817 40.4296 37.2217 40.1298 37.1617 39.9499C36.9818 38.8704 36.7418 35.272 42.3201 33.7727C43.9995 33.293 44.7793 32.3934 44.6593 30.8941C44.5994 30.2944 44.3594 29.6947 43.9995 29.0949C43.5197 28.3153 42.5 26.6961 41.3604 24.777C39.261 21.4185 36.6819 17.2205 35.1823 14.8816C33.7428 12.6027 33.8627 9.66403 33.9227 8.10476C33.9227 7.92485 33.9227 7.8049 33.9227 7.68496C33.9227 7.32513 34.2226 6.9653 34.6425 7.02527C35.0024 7.02527 35.3023 7.3851 35.3023 7.74493C35.3023 7.86488 35.3023 8.04479 35.3023 8.22471C35.2423 9.66403 35.1223 12.3028 36.322 14.1619C37.8215 16.5008 40.4007 20.6989 42.5 24.0573C43.6996 25.9764 44.6593 27.5357 45.1392 28.3153C45.619 29.0949 45.9189 29.9345 45.9789 30.7142C46.0989 31.9736 45.799 34.1926 42.62 35.0322C38.3013 36.1716 38.3013 38.6305 38.4813 39.65C38.5413 39.8899 38.6012 40.0698 38.6012 40.3697C38.9611 42.1088 39.6209 45.0475 36.6219 46.4868C36.6219 46.6067 36.5019 46.6067 36.382 46.6067Z" stroke="#FF6D2A" stroke-width="0.7"/>
<path d="M29.3642 61C25.2255 61 21.1468 60.4603 17.308 59.4407C12.6295 58.1813 6.03154 55.7824 1.23305 51.6444C0.933148 51.4045 0.933147 50.9247 1.17307 50.6848C1.413 50.385 1.89284 50.385 2.13277 50.6249C6.69133 54.643 13.1093 56.9219 17.6679 58.1213C21.4467 59.1409 25.3454 59.6206 29.3642 59.6206C32.2433 59.6206 34.2226 59.0209 35.0624 57.9414C35.7222 57.1018 35.6622 56.0223 35.4223 55.2427C35.0024 53.5635 35.1223 51.8243 35.8421 50.325C36.202 49.6053 36.5019 49.1855 36.5019 49.1256C36.5619 49.0656 36.6219 48.9456 36.6219 48.8857C36.6819 48.8257 36.6819 48.7657 36.7418 48.7058C37.0417 48.226 37.1017 47.6862 36.8618 47.2664C35.8421 45.4073 31.1636 47.2664 29.6641 48.0461C29.3042 48.226 28.8843 48.106 28.7044 47.7462C28.5244 47.3864 28.6444 46.9666 29.0043 46.7867C29.7241 46.4268 36.202 43.2483 38.0614 46.6067C38.5413 47.5063 38.4813 48.5858 37.8815 49.4854C37.8215 49.5454 37.8215 49.6053 37.7615 49.6653C37.7015 49.7253 37.6416 49.8452 37.5816 49.9052C37.5816 49.9052 37.3416 50.265 37.0417 50.8647C36.5019 52.0642 36.382 53.4435 36.7418 54.8229C37.1017 56.3222 36.9218 57.7015 36.082 58.7211C35.0624 60.2803 32.7831 61 29.3642 61Z" stroke="#FF6D2A" stroke-width="0.7"/>
<path d="M7.29114 21.6584C7.05121 21.6584 6.75131 21.5385 6.63135 21.2386C5.67165 19.1996 5.49171 17.3404 6.1515 15.7812C6.81129 14.102 8.3708 12.8425 10.77 11.943C12.5695 11.2833 14.7888 10.9234 17.5479 10.8635C30.1439 10.6236 33.9827 8.10476 34.8824 6.00575C35.7821 4.08665 34.2826 2.16754 34.2226 2.10757C33.9827 1.80771 34.0427 1.38791 34.3426 1.14802C34.6425 0.908134 35.0624 0.968106 35.3023 1.26797C35.3623 1.38791 37.4016 3.90673 36.142 6.60547C34.5225 10.1438 28.2245 12.0029 17.5479 12.2428C14.9087 12.3028 12.8094 12.6027 11.1899 13.2024C9.21053 13.922 7.89095 15.0015 7.35112 16.2609C6.87127 17.4604 6.99123 18.8997 7.83097 20.5789C8.01091 20.9388 7.83097 21.3586 7.47108 21.4785C7.47108 21.5984 7.4111 21.6584 7.29114 21.6584Z" stroke="#FF6D2A" stroke-width="0.7"/>
<path d="M16.5282 56.682C16.1683 56.682 15.8684 56.4421 15.8684 56.0823L14.7888 49.4854C14.3689 47.0865 13.949 44.5677 14.069 41.9889C14.129 39.1102 14.9087 36.5315 16.2283 34.6124C17.6679 32.5733 19.7072 31.194 21.7466 29.8146C22.3464 29.3948 22.9462 29.035 23.486 28.6152C27.6847 25.5566 31.1036 21.4785 33.2629 16.7407C33.4429 16.3809 33.8627 16.2609 34.1626 16.3809C34.5225 16.5608 34.6425 16.9806 34.5225 17.2805C32.2433 22.1982 28.7044 26.5161 24.2658 29.6947C23.666 30.1145 23.0662 30.5343 22.4663 30.9541C20.487 32.2735 18.6276 33.5329 17.368 35.392C16.1683 37.0712 15.5085 39.3501 15.4486 41.9889C15.3886 44.3878 15.8084 46.8466 16.1683 49.1855L17.248 55.7824C17.308 56.1423 17.0681 56.5021 16.6482 56.5621C16.5882 56.682 16.5282 56.682 16.5282 56.682Z" stroke="#FF6D2A" stroke-width="0.7"/>
</svg>
