<svg width="72" height="62" viewBox="0 0 72 62" fill="none" xmlns="http://www.w3.org/2000/svg">
<path d="M36 1C29.7162 1 24.6047 6.09177 24.6047 12.3514C24.6047 18.6109 29.7162 23.7027 36 23.7027C42.2838 23.7027 47.3954 18.6109 47.3954 12.3514C47.3954 6.09177 42.2838 1 36 1ZM36 2.62162C41.4041 2.62162 45.7674 6.96817 45.7674 12.3514C45.7674 17.7345 41.4041 22.0811 36 22.0811C30.596 22.0811 26.2326 17.7345 26.2326 12.3514C26.2326 6.96817 30.596 2.62162 36 2.62162ZM35.8219 7.08108C35.6382 7.12208 35.4743 7.2253 35.3584 7.37315C35.2424 7.521 35.1815 7.70433 35.1861 7.89189V11.5405H31.5487C31.4895 11.5341 31.4298 11.5341 31.3706 11.5405C31.2637 11.5522 31.1602 11.5846 31.0659 11.6361C30.9715 11.6876 30.8884 11.7571 30.821 11.8407C30.7537 11.9242 30.7035 12.0201 30.6734 12.123C30.6433 12.2258 30.6338 12.3336 30.6455 12.4401C30.6572 12.5466 30.6898 12.6497 30.7415 12.7436C30.7933 12.8376 30.8631 12.9204 30.9469 12.9875C31.0308 13.0545 31.1271 13.1045 31.2304 13.1344C31.3336 13.1644 31.4418 13.1738 31.5487 13.1622H35.1861V16.7855C35.1845 16.8929 35.2045 16.9996 35.2447 17.0993C35.2849 17.199 35.3446 17.2897 35.4203 17.3663C35.4961 17.4428 35.5863 17.5035 35.6858 17.545C35.7853 17.5865 35.8921 17.6078 36 17.6078C36.1079 17.6078 36.2147 17.5865 36.3142 17.545C36.4137 17.5035 36.5039 17.4428 36.5797 17.3663C36.6554 17.2897 36.7151 17.199 36.7553 17.0993C36.7956 16.9996 36.8155 16.8929 36.814 16.7855V13.1622H40.4513C40.5592 13.1637 40.6663 13.1438 40.7663 13.1038C40.8664 13.0637 40.9575 13.0042 41.0343 12.9288C41.1112 12.8533 41.1722 12.7634 41.2138 12.6643C41.2554 12.5652 41.2769 12.4588 41.2769 12.3514C41.2769 12.2439 41.2554 12.1375 41.2138 12.0384C41.1722 11.9393 41.1112 11.8494 41.0343 11.7739C40.9575 11.6985 40.8664 11.639 40.7663 11.5989C40.6663 11.5589 40.5592 11.539 40.4513 11.5405H36.814V7.89189C36.8169 7.76871 36.7917 7.64646 36.7402 7.53444C36.6886 7.42243 36.6121 7.32359 36.5165 7.24542C36.4209 7.16726 36.3086 7.11184 36.1883 7.08336C36.0679 7.05489 35.9426 7.05411 35.8219 7.08108ZM17.7624 14.1757C17.56 14.1947 17.3721 14.2884 17.2356 14.4385C17.099 14.5885 17.0238 14.784 17.0247 14.9865V59.3784H2.62791V26.7432H11.7086C11.8164 26.7448 11.9235 26.7249 12.0236 26.6848C12.1237 26.6448 12.2148 26.5853 12.2916 26.5099C12.3684 26.4344 12.4294 26.3445 12.4711 26.2454C12.5127 26.1463 12.5341 26.0399 12.5341 25.9324C12.5341 25.825 12.5127 25.7186 12.4711 25.6195C12.4294 25.5203 12.3684 25.4304 12.2916 25.355C12.2148 25.2796 12.1237 25.2201 12.0236 25.18C11.9235 25.14 11.8164 25.1201 11.7086 25.1216H1.81396C1.78854 25.1204 1.76307 25.1204 1.73765 25.1216C1.53527 25.1406 1.34735 25.2344 1.21085 25.3844C1.07434 25.5345 0.999131 25.7299 1.00001 25.9324V60.1892C1.00003 60.4042 1.08579 60.6104 1.23843 60.7625C1.39107 60.9145 1.59809 61 1.81396 61H70.186C70.4019 61 70.6089 60.9145 70.7616 60.7625C70.9142 60.6104 71 60.4042 71 60.1892V25.9324C71 25.7174 70.9142 25.5112 70.7616 25.3591C70.6089 25.2071 70.4019 25.1216 70.186 25.1216H60.2914C60.1836 25.1201 60.0765 25.14 59.9764 25.18C59.8763 25.2201 59.7852 25.2796 59.7084 25.355C59.6316 25.4304 59.5706 25.5203 59.5289 25.6195C59.4873 25.7186 59.4659 25.825 59.4659 25.9324C59.4659 26.0399 59.4873 26.1463 59.5289 26.2454C59.5706 26.3445 59.6316 26.4344 59.7084 26.5099C59.7852 26.5853 59.8763 26.6448 59.9764 26.6848C60.0765 26.7249 60.1836 26.7448 60.2914 26.7432H69.3721V59.3784H54.9753V14.9865C54.9753 14.7715 54.8895 14.5652 54.7369 14.4132C54.5842 14.2611 54.3772 14.1757 54.1613 14.1757H50.9055C50.8801 14.1745 50.8546 14.1745 50.8292 14.1757C50.7223 14.1807 50.6175 14.2066 50.5206 14.2519C50.4238 14.2973 50.3369 14.3612 50.2648 14.44C50.1194 14.5992 50.0433 14.8095 50.0534 15.0245C50.0635 15.2395 50.159 15.4418 50.3188 15.5867C50.4786 15.7316 50.6897 15.8074 50.9055 15.7973H53.3474V59.3784H42.1555V44.277C42.1555 40.8936 39.3965 38.1453 36 38.1453C32.6035 38.1453 29.8445 40.8936 29.8445 44.277V59.3784H18.6526V15.7973H21.0945C21.2023 15.7988 21.3094 15.779 21.4095 15.7389C21.5096 15.6988 21.6007 15.6394 21.6775 15.5639C21.7543 15.4885 21.8153 15.3986 21.857 15.2994C21.8986 15.2003 21.92 15.0939 21.92 14.9865C21.92 14.879 21.8986 14.7727 21.857 14.6735C21.8153 14.5744 21.7543 14.4845 21.6775 14.4091C21.6007 14.3336 21.5096 14.2741 21.4095 14.2341C21.3094 14.194 21.2023 14.1742 21.0945 14.1757H17.8387C17.8132 14.1745 17.7878 14.1745 17.7624 14.1757ZM23.7144 26.7686C23.4985 26.7887 23.2995 26.8935 23.1612 27.0598C23.0229 27.2261 22.9565 27.4404 22.9767 27.6554C22.997 27.8704 23.1022 28.0687 23.2691 28.2065C23.4361 28.3443 23.6511 28.4104 23.867 28.3902H29.4884C29.5962 28.3917 29.7033 28.3719 29.8034 28.3318C29.9035 28.2917 29.9946 28.2323 30.0714 28.1568C30.1482 28.0814 30.2092 27.9915 30.2509 27.8924C30.2925 27.7932 30.3139 27.6868 30.3139 27.5794C30.3139 27.4719 30.2925 27.3656 30.2509 27.2664C30.2092 27.1673 30.1482 27.0774 30.0714 27.002C29.9946 26.9265 29.9035 26.867 29.8034 26.827C29.7033 26.7869 29.5962 26.7671 29.4884 26.7686H23.867C23.8163 26.7638 23.7652 26.7638 23.7144 26.7686ZM42.3336 26.7686C42.2267 26.7802 42.1231 26.8127 42.0288 26.8642C41.9345 26.9157 41.8513 26.9852 41.7839 27.0687C41.7166 27.1522 41.6665 27.2482 41.6363 27.351C41.6062 27.4539 41.5967 27.5616 41.6084 27.6681C41.6201 27.7746 41.6528 27.8778 41.7045 27.9717C41.7562 28.0656 41.826 28.1485 41.9099 28.2155C41.9937 28.2826 42.0901 28.3325 42.1933 28.3625C42.2966 28.3925 42.4047 28.4019 42.5116 28.3902H48.133C48.2409 28.3917 48.3479 28.3719 48.448 28.3318C48.5481 28.2917 48.6392 28.2323 48.716 28.1568C48.7928 28.0814 48.8538 27.9915 48.8955 27.8924C48.9371 27.7932 48.9585 27.6868 48.9585 27.5794C48.9585 27.4719 48.9371 27.3656 48.8955 27.2664C48.8538 27.1673 48.7928 27.0774 48.716 27.002C48.6392 26.9265 48.5481 26.867 48.448 26.827C48.3479 26.7869 48.2409 26.7671 48.133 26.7686H42.5116C42.4525 26.7621 42.3927 26.7621 42.3336 26.7686ZM6.95204 32.799C6.84515 32.804 6.7403 32.8299 6.64346 32.8752C6.54662 32.9206 6.4597 32.9845 6.38766 33.0633C6.31563 33.1422 6.25988 33.2343 6.2236 33.3346C6.18732 33.4349 6.17123 33.5413 6.17624 33.6478C6.18125 33.7543 6.20727 33.8587 6.2528 33.9552C6.29834 34.0517 6.3625 34.1382 6.44162 34.21C6.52075 34.2818 6.61329 34.3373 6.71396 34.3734C6.81463 34.4096 6.92146 34.4256 7.02835 34.4206H12.6752C12.783 34.4221 12.8901 34.4023 12.9902 34.3622C13.0903 34.3221 13.1814 34.2627 13.2582 34.1872C13.335 34.1118 13.396 34.0219 13.4376 33.9228C13.4793 33.8236 13.5007 33.7173 13.5007 33.6098C13.5007 33.5023 13.4793 33.396 13.4376 33.2968C13.396 33.1977 13.335 33.1078 13.2582 33.0324C13.1814 32.9569 13.0903 32.8974 12.9902 32.8574C12.8901 32.8173 12.783 32.7975 12.6752 32.799H7.02835C7.00293 32.7978 6.97746 32.7978 6.95204 32.799ZM59.2485 32.799C59.1417 32.804 59.0368 32.8299 58.94 32.8752C58.8431 32.9206 58.7562 32.9845 58.6842 33.0633C58.6121 33.1422 58.5564 33.2343 58.5201 33.3346C58.4838 33.4349 58.4677 33.5413 58.4727 33.6478C58.4778 33.7543 58.5038 33.8587 58.5493 33.9552C58.5948 34.0517 58.659 34.1382 58.7381 34.21C58.8173 34.2818 58.9098 34.3373 59.0105 34.3734C59.1111 34.4096 59.218 34.4256 59.3249 34.4206H64.9717C65.0795 34.4221 65.1866 34.4023 65.2867 34.3622C65.3868 34.3221 65.4779 34.2627 65.5547 34.1872C65.6315 34.1118 65.6925 34.0219 65.7341 33.9228C65.7758 33.8236 65.7972 33.7173 65.7972 33.6098C65.7972 33.5023 65.7758 33.396 65.7341 33.2968C65.6925 33.1977 65.6315 33.1078 65.5547 33.0324C65.4779 32.9569 65.3868 32.8974 65.2867 32.8574C65.1866 32.8173 65.0795 32.7975 64.9717 32.799H59.3249C59.2994 32.7978 59.274 32.7978 59.2485 32.799ZM23.867 32.875C23.7592 32.8735 23.6521 32.8933 23.552 32.9334C23.4519 32.9735 23.3608 33.0329 23.284 33.1084C23.2072 33.1838 23.1462 33.2737 23.1045 33.3728C23.0629 33.472 23.0415 33.5784 23.0415 33.6858C23.0415 33.7933 23.0629 33.8996 23.1045 33.9988C23.1462 34.0979 23.2072 34.1878 23.284 34.2632C23.3608 34.3387 23.4519 34.3982 23.552 34.4382C23.6521 34.4783 23.7592 34.4981 23.867 34.4966H29.4884C29.5962 34.4981 29.7033 34.4783 29.8034 34.4382C29.9035 34.3982 29.9946 34.3387 30.0714 34.2632C30.1482 34.1878 30.2092 34.0979 30.2509 33.9988C30.2925 33.8996 30.3139 33.7933 30.3139 33.6858C30.3139 33.5784 30.2925 33.472 30.2509 33.3728C30.2092 33.2737 30.1482 33.1838 30.0714 33.1084C29.9946 33.0329 29.9035 32.9735 29.8034 32.9334C29.7033 32.8933 29.5962 32.8735 29.4884 32.875H23.867ZM42.5116 32.875C42.4038 32.8735 42.2967 32.8933 42.1966 32.9334C42.0965 32.9735 42.0054 33.0329 41.9286 33.1084C41.8518 33.1838 41.7908 33.2737 41.7492 33.3728C41.7075 33.472 41.6861 33.5784 41.6861 33.6858C41.6861 33.7933 41.7075 33.8996 41.7492 33.9988C41.7908 34.0979 41.8518 34.1878 41.9286 34.2632C42.0054 34.3387 42.0965 34.3982 42.1966 34.4382C42.2967 34.4783 42.4038 34.4981 42.5116 34.4966H48.133C48.2409 34.4981 48.3479 34.4783 48.448 34.4382C48.5481 34.3982 48.6392 34.3387 48.716 34.2632C48.7928 34.1878 48.8538 34.0979 48.8955 33.9988C48.9371 33.8996 48.9585 33.7933 48.9585 33.6858C48.9585 33.5784 48.9371 33.472 48.8955 33.3728C48.8538 33.2737 48.7928 33.1838 48.716 33.1084C48.6392 33.0329 48.5481 32.9735 48.448 32.9334C48.3479 32.8933 48.2409 32.8735 48.133 32.875H42.5116ZM23.7907 39.0068C23.5748 39.0168 23.3718 39.1119 23.2263 39.2711C23.0808 39.4303 23.0048 39.6405 23.0149 39.8556C23.025 40.0706 23.1205 40.2728 23.2803 40.4178C23.4401 40.5627 23.6511 40.6385 23.867 40.6284H26.4106C26.5185 40.6299 26.6256 40.61 26.7257 40.57C26.8257 40.5299 26.9168 40.4704 26.9937 40.395C27.0705 40.3195 27.1315 40.2297 27.1731 40.1305C27.2147 40.0314 27.2362 39.925 27.2362 39.8176C27.2362 39.7101 27.2147 39.6037 27.1731 39.5046C27.1315 39.4055 27.0705 39.3156 26.9937 39.2401C26.9168 39.1647 26.8257 39.1052 26.7257 39.0652C26.6256 39.0251 26.5185 39.0052 26.4106 39.0068H23.867C23.8416 39.0056 23.8161 39.0056 23.7907 39.0068ZM45.5131 39.0068C45.2972 39.0168 45.0942 39.1119 44.9487 39.2711C44.8032 39.4303 44.7272 39.6405 44.7373 39.8556C44.7474 40.0706 44.8429 40.2728 45.0027 40.4178C45.1625 40.5627 45.3735 40.6385 45.5894 40.6284H48.133C48.2409 40.6299 48.3479 40.61 48.448 40.57C48.5481 40.5299 48.6392 40.4704 48.716 40.395C48.7928 40.3195 48.8538 40.2297 48.8955 40.1305C48.9371 40.0314 48.9585 39.925 48.9585 39.8176C48.9585 39.7101 48.9371 39.6037 48.8955 39.5046C48.8538 39.4055 48.7928 39.3156 48.716 39.2401C48.6392 39.1647 48.5481 39.1052 48.448 39.0652C48.3479 39.0251 48.2409 39.0052 48.133 39.0068H45.5894C45.564 39.0056 45.5385 39.0056 45.5131 39.0068ZM36 39.7669C38.5233 39.7669 40.5276 41.7634 40.5276 44.277V59.3784H31.4724V44.277C31.4724 41.7634 33.4767 39.7669 36 39.7669ZM6.87573 40.1976C6.65986 40.2178 6.46087 40.3226 6.32253 40.4889C6.1842 40.6552 6.11785 40.8694 6.13809 41.0845C6.15833 41.2995 6.26349 41.4977 6.43045 41.6355C6.5974 41.7733 6.81248 41.8394 7.02835 41.8193H12.6752C12.783 41.8208 12.8901 41.8009 12.9902 41.7609C13.0903 41.7208 13.1814 41.6613 13.2582 41.5859C13.335 41.5104 13.396 41.4205 13.4376 41.3214C13.4793 41.2223 13.5007 41.1159 13.5007 41.0084C13.5007 40.901 13.4793 40.7946 13.4376 40.6955C13.396 40.5964 13.335 40.5065 13.2582 40.431C13.1814 40.3556 13.0903 40.2961 12.9902 40.256C12.8901 40.216 12.783 40.1961 12.6752 40.1976H7.02835C6.97759 40.1929 6.92649 40.1929 6.87573 40.1976ZM59.1722 40.1976C58.9564 40.2178 58.7574 40.3226 58.619 40.4889C58.4807 40.6552 58.4144 40.8694 58.4346 41.0845C58.4548 41.2995 58.56 41.4977 58.727 41.6355C58.8939 41.7733 59.109 41.8394 59.3249 41.8193H64.9717C65.0795 41.8208 65.1866 41.8009 65.2867 41.7609C65.3868 41.7208 65.4779 41.6613 65.5547 41.5859C65.6315 41.5104 65.6925 41.4205 65.7341 41.3214C65.7758 41.2223 65.7972 41.1159 65.7972 41.0084C65.7972 40.901 65.7758 40.7946 65.7341 40.6955C65.6925 40.5964 65.6315 40.5065 65.5547 40.431C65.4779 40.3556 65.3868 40.2961 65.2867 40.256C65.1866 40.216 65.0795 40.1961 64.9717 40.1976H59.3249C59.2741 40.1929 59.223 40.1929 59.1722 40.1976ZM6.95204 47.5709C6.84515 47.5759 6.7403 47.6018 6.64346 47.6472C6.54662 47.6926 6.4597 47.7565 6.38766 47.8353C6.31563 47.9141 6.25988 48.0063 6.2236 48.1066C6.18732 48.2069 6.17123 48.3133 6.17624 48.4198C6.18125 48.5262 6.20727 48.6307 6.2528 48.7271C6.29834 48.8236 6.3625 48.9102 6.44162 48.982C6.52075 49.0537 6.61329 49.1093 6.71396 49.1454C6.81463 49.1815 6.92146 49.1976 7.02835 49.1926H9.59739C9.70525 49.1941 9.81234 49.1742 9.91243 49.1342C10.0125 49.0941 10.1036 49.0346 10.1804 48.9592C10.2572 48.8837 10.3182 48.7938 10.3599 48.6947C10.4015 48.5956 10.4229 48.4892 10.4229 48.3818C10.4229 48.2743 10.4015 48.1679 10.3599 48.0688C10.3182 47.9697 10.2572 47.8798 10.1804 47.8043C10.1036 47.7289 10.0125 47.6694 9.91243 47.6293C9.81234 47.5893 9.70525 47.5694 9.59739 47.5709H7.02835C7.00293 47.5698 6.97746 47.5698 6.95204 47.5709ZM62.3263 47.5709C62.2194 47.5759 62.1146 47.6018 62.0177 47.6472C61.9209 47.6926 61.834 47.7565 61.7619 47.8353C61.6899 47.9141 61.6341 48.0063 61.5979 48.1066C61.5616 48.2069 61.5455 48.3133 61.5505 48.4198C61.5555 48.5262 61.5815 48.6307 61.6271 48.7271C61.6726 48.8236 61.7368 48.9102 61.8159 48.982C61.895 49.0537 61.9876 49.1093 62.0882 49.1454C62.1889 49.1815 62.2957 49.1976 62.4026 49.1926H64.9717C65.0795 49.1941 65.1866 49.1742 65.2867 49.1342C65.3868 49.0941 65.4779 49.0346 65.5547 48.9592C65.6315 48.8837 65.6925 48.7938 65.7341 48.6947C65.7758 48.5956 65.7972 48.4892 65.7972 48.3818C65.7972 48.2743 65.7758 48.1679 65.7341 48.0688C65.6925 47.9697 65.6315 47.8798 65.5547 47.8043C65.4779 47.7289 65.3868 47.6694 65.2867 47.6293C65.1866 47.5893 65.0795 47.5694 64.9717 47.5709H62.4026C62.3772 47.5698 62.3517 47.5698 62.3263 47.5709Z" fill="#FF6D2A" stroke="#FF6D2A" stroke-width="0.5"/>
</svg>
