<svg style="display: none;">
  <symbol viewBox="0 0 60 60" xmlns="http://www.w3.org/2000/svg" id="med_3">
    <path d="M53.03 60H6.97C3.127 60 0 56.873 0 53.031V6.97A6.978 6.978 0 0 1 6.97 0h46.06A6.978 6.978 0 0 1 60 6.97v46.06A6.978 6.978 0 0 1 53.03 60zM6.97 1.875A5.1 5.1 0 0 0 1.875 6.97v46.06a5.1 5.1 0 0 0 5.095 5.094h46.06a5.1 5.1 0 0 0 5.095-5.094V6.97a5.1 5.1 0 0 0-5.095-5.095H6.97z"></path>
    <path d="M57.124 58.062a.934.934 0 0 1-.663-.275L2.214 3.54A.937.937 0 1 1 3.54 2.215l54.248 54.248a.937.937 0 0 1-.663 1.6z"></path>
    <path d="M53.965 47.184H6.035a.937.937 0 0 1-.937-.938v-8.438c0-.518.419-.937.937-.937h47.93c.518 0 .937.42.937.938v8.437a.937.937 0 0 1-.937.938zM6.973 45.309h46.054v-6.563H6.973v6.563zm46.992-11.25a.937.937 0 0 1-.938-.938c0-6.603-1.005-10.264-6.477-11.87-1.643-.104-1.946-1.933-2.214-3.551-.201-1.219-.43-2.6-1.112-3.282a.937.937 0 1 1 1.326-1.326c1.107 1.108 1.388 2.805 1.637 4.302.111.679.299 1.813.532 2 .083 0 .154-.002.237.022 7.333 2.095 7.946 7.919 7.946 13.705a.937.937 0 0 1-.937.938zm-5.505 0a.937.937 0 0 1-.937-.938c0-4.253-1.614-6.717-5.078-7.746-1.323-.105-1.566-1.573-1.745-2.655-.13-.782-.276-1.667-.67-2.061a.937.937 0 1 1 1.326-1.326c.82.82 1.027 2.073 1.194 3.08.06.36.145.877.24 1.112a.73.73 0 0 1 .067.017c4.34 1.24 6.541 4.463 6.541 9.579 0 .518-.42.938-.937.938z"></path>
    <path d="M14.238 47.184a.937.937 0 0 1-.937-.938v-8.438a.937.937 0 1 1 1.875 0v8.438c0 .518-.42.938-.938.938zm34.219 0a.937.937 0 0 1-.938-.938v-8.438a.937.937 0 1 1 1.876 0v8.438c0 .518-.42.938-.938.938z"></path>
  </symbol>
  <symbol viewBox="0 0 59 62" xmlns="http://www.w3.org/2000/svg" id="med_4">
    <path d="M21.119 54.04H4.293A3.287 3.287 0 0 1 1 50.74V34.96c0-1.86 1.497-3.3 3.293-3.3H30.34c1.856 0 3.293 1.5 3.293 3.3v10.68c0 .36-.299.72-.718.72-.36 0-.719-.3-.719-.72V34.96c0-1.08-.838-1.92-1.916-1.92H4.293c-1.078 0-1.916.84-1.916 1.92v15.78c0 1.08.838 1.92 1.916 1.92H21.12c.36 0 .718.3.718.72 0 .36-.299.66-.718.66z"></path>
    <path d="M27.406 33.04c-.36 0-.718-.3-.718-.72V25.6H7.946v6.72c0 .36-.3.72-.719.72a.729.729 0 0 1-.718-.72v-7.38c0-.36.3-.72.718-.72h20.18c.358 0 .718.3.718.72v7.44c0 .36-.3.66-.719.66zm21.915-.96h-.06c-.359-.06-.658-.36-.598-.78l3.173-28.92H28.185l2.155 19.68c.06.36-.24.72-.599.78-.359.06-.718-.24-.778-.6L26.628 1h26.705L49.98 31.48c0 .36-.3.6-.659.6z"></path>
    <path d="M51.896 8.38H28.065c-.36 0-.719-.3-.719-.72 0-.36.3-.72.719-.72h23.831c.36 0 .719.3.719.72s-.3.72-.719.72zM35.25 61c-2.694 0-5.449-.9-7.724-2.64-4.192-3.24-6.108-8.64-5.27-14.94.06-.36.42-.66.779-.6.36.06.659.42.599.78-.779 5.76.958 10.74 4.73 13.62 3.174 2.4 7.365 3.06 10.718 1.62 3.294-1.38 5.33-4.44 5.808-8.64.06-.36.42-.66.779-.6.36.06.659.42.599.78-.54 4.74-2.934 8.22-6.647 9.78-1.377.54-2.874.84-4.37.84z"></path>
    <path d="M45.55 60.28a8.753 8.753 0 0 1-4.671-1.32c-.36-.18-.42-.6-.24-.96s.599-.42.958-.24c2.575 1.56 5.09 1.2 6.766.6 3.413-1.2 6.168-4.2 7.066-6.54 4.012-10.02-3.054-15.06-9.102-18-1.077 3.24-3.532 5.64-5.688 7.8-3.832 3.78-6.886 6.78-2.575 13.08.24.3.12.78-.18.96-.299.24-.778.12-.957-.18-4.97-7.2-1.018-11.1 2.754-14.88 2.335-2.28 4.67-4.68 5.509-7.92l.18-.84.778.36c3.892 1.8 15.688 7.26 10.598 20.22-1.018 2.58-3.892 5.94-7.904 7.32-1.077.36-2.215.54-3.293.54z"></path>
    <path d="M21.119 54.04H4.293A3.287 3.287 0 0 1 1 50.74V34.96c0-1.86 1.497-3.3 3.293-3.3H30.34c1.856 0 3.293 1.5 3.293 3.3v10.68c0 .36-.299.72-.718.72-.36 0-.719-.3-.719-.72V34.96c0-1.08-.838-1.92-1.916-1.92H4.293c-1.078 0-1.916.84-1.916 1.92v15.78c0 1.08.838 1.92 1.916 1.92H21.12c.36 0 .718.3.718.72 0 .36-.299.66-.718.66z" stroke-width=".6"></path>
    <path d="M27.406 33.04c-.36 0-.718-.3-.718-.72V25.6H7.946v6.72c0 .36-.3.72-.719.72a.729.729 0 0 1-.718-.72v-7.38c0-.36.3-.72.718-.72h20.18c.358 0 .718.3.718.72v7.44c0 .36-.3.66-.719.66zm21.915-.96h-.06c-.359-.06-.658-.36-.598-.78l3.173-28.92H28.185l2.155 19.68c.06.36-.24.72-.599.78-.359.06-.718-.24-.778-.6L26.628 1h26.705L49.98 31.48c0 .36-.3.6-.659.6z" stroke-width=".6"></path>
    <path d="M51.896 8.38H28.065c-.36 0-.719-.3-.719-.72 0-.36.3-.72.719-.72h23.831c.36 0 .719.3.719.72s-.3.72-.719.72zM35.25 61c-2.694 0-5.449-.9-7.724-2.64-4.192-3.24-6.108-8.64-5.27-14.94.06-.36.42-.66.779-.6.36.06.659.42.599.78-.779 5.76.958 10.74 4.73 13.62 3.174 2.4 7.365 3.06 10.718 1.62 3.294-1.38 5.33-4.44 5.808-8.64.06-.36.42-.66.779-.6.36.06.659.42.599.78-.54 4.74-2.934 8.22-6.647 9.78-1.377.54-2.874.84-4.37.84z" stroke-width=".6"></path>
    <path d="M45.55 60.28a8.753 8.753 0 0 1-4.671-1.32c-.36-.18-.42-.6-.24-.96s.599-.42.958-.24c2.575 1.56 5.09 1.2 6.766.6 3.413-1.2 6.168-4.2 7.066-6.54 4.012-10.02-3.054-15.06-9.102-18-1.077 3.24-3.532 5.64-5.688 7.8-3.832 3.78-6.886 6.78-2.575 13.08.24.3.12.78-.18.96-.299.24-.778.12-.957-.18-4.97-7.2-1.018-11.1 2.754-14.88 2.335-2.28 4.67-4.68 5.509-7.92l.18-.84.778.36c3.892 1.8 15.688 7.26 10.598 20.22-1.018 2.58-3.892 5.94-7.904 7.32-1.077.36-2.215.54-3.293.54z" stroke-width=".6"></path>
  </symbol>
  <symbol viewBox="0 0 62 62" xmlns="http://www.w3.org/2000/svg" id="med_5">
    <path d="M27.94 41.44c-.36 0-.66-.3-.6-.66.3-4.2 3.78-6.12 3.96-6.18.3-.18.66-.06.84.24.18.3.06.66-.24.84-.12.06-3.06 1.68-3.3 5.16-.06.36-.3.6-.66.6z"></path>
    <path d="M28.3 39.4c-.18 0-.42-.12-.54-.3l-2.04-3.36c-.48-.84-.54-1.8-.18-2.64.36-.9 1.14-1.5 2.04-1.68 1.08-.24 1.98-.66 2.82-1.32l2.4-1.8a4.335 4.335 0 0 1 4.32-.54c1.08.48 1.74 1.32 1.92 2.4.36 1.92-.96 3.9-2.94 4.38l-1.5.42c-.3.06-.66-.12-.72-.42-.06-.3.12-.66.42-.72l1.56-.36c1.32-.3 2.28-1.74 2.04-3-.12-.72-.54-1.2-1.26-1.5-.96-.42-2.16-.3-3.06.36l-2.4 1.8c-.96.72-2.1 1.26-3.3 1.5-.6.12-1.02.48-1.26 1.02s-.18 1.08.12 1.56l2.04 3.36c.18.3.06.66-.18.84h-.3z"></path>
    <path d="M18.58 53.38c-1.14 0-1.92-.78-2.16-1.68-.3-1.02-.06-2.34 1.32-2.88 1.68-.72 1.86-1.32 2.64-3.66l.12-.42c.36-1.2 1.26-2.16 2.4-2.64s2.46-.48 3.6.06l4.8 2.34c.3.12.42.54.3.84-.12.3-.54.42-.84.3l-4.8-2.34c-.78-.42-1.74-.42-2.58-.06-.84.36-1.44 1.08-1.74 1.92l-.12.42c-.72 2.4-1.08 3.54-3.3 4.44-.72.3-.78.96-.66 1.38.12.48.54.9 1.26.78l.96-.36a7.881 7.881 0 0 0 4.26-4.08c.18-.42.6-.78 1.08-.84.48-.12.96.06 1.32.36 3 2.88 5.88 4.08 8.46 3.6 2.58-.48 4.8-2.7 6.48-6.42.06-.12.12-.3.18-.42 3.54-8.82 2.76-16.14 2.76-16.2-.18-3.78-.96-7.14-2.34-9.96-1.98-4.38-6.18-7.38-10.8-7.92-2.58-.3-4.98.18-7.08 1.44-2.76 1.68-4.44 4.74-4.26 7.98.18 4.14 3.3 5.7 5.16 6.3.9.3 1.62 1.02 1.86 1.98.12.54.54.96 1.08 1.08.36.06.54.42.48.72-.06.3-.42.54-.72.48a2.74 2.74 0 0 1-2.04-1.98c-.12-.48-.54-.9-1.02-1.08-1.74-.54-5.76-2.34-6-7.38-.18-3.72 1.68-7.2 4.86-9.12 2.28-1.38 4.92-1.92 7.8-1.62 5.1.54 9.6 3.84 11.88 8.52 1.44 3 2.28 6.48 2.46 10.38.06.24.84 7.62-2.88 16.74-.06.18-.12.3-.18.48-1.86 4.08-4.44 6.54-7.38 7.14-3 .6-6.18-.72-9.54-3.9-.12-.06-.18-.06-.24-.06s-.18.06-.24.18c-.96 2.16-2.76 3.78-4.92 4.68l-1.02.42h-.12c-.18 0-.36.06-.54.06z"></path>
    <path d="M34.78 24.22c-.3 0-.6-.24-.6-.6-.06-.72-.24-1.26-.54-1.56-.3-.3-.72-.24-.72-.24-.36.06-.66-.18-.66-.54-.06-.36.18-.66.54-.66.12 0 .9-.12 1.68.48.6.48.96 1.32 1.02 2.46-.06.36-.36.66-.72.66z"></path>
    <path d="M31 61C14.44 61 1 47.56 1 31 1 14.44 14.44 1 31 1c16.56 0 30 13.44 30 30 0 16.56-13.44 30-30 30zm0-58.8C15.16 2.2 2.2 15.16 2.2 31S15.1 59.8 31 59.8c15.84 0 28.8-12.9 28.8-28.8C59.8 15.16 46.84 2.2 31 2.2z"></path>
    <path d="M23.74 39.16c-.06 0-.12 0-.18-.06-1.5-.48-2.22-.48-4.32-.3-.36 0-.72.06-1.08.12-1.8.18-3.66.36-5.46-.18-2.22-.66-4.38-2.88-3.84-5.34.3-1.38 1.26-2.34 2.16-3.24.78-.78 1.5-1.5 1.8-2.4.24-.78.12-1.68-.42-2.46-.48-.78-1.26-1.26-2.04-1.32H6.34c-.36 0-.6-.3-.6-.6s.3-.6.6-.6h4.14c1.14.12 2.28.78 3 1.86.72 1.08.9 2.4.54 3.48-.42 1.2-1.26 2.04-2.1 2.88-.84.84-1.62 1.62-1.86 2.64-.36 1.68 1.26 3.42 3 3.9 1.56.48 3.24.3 4.98.12.36-.06.72-.06 1.08-.12 2.1-.18 3.06-.18 4.8.36.3.12.48.48.36.78-.06.36-.3.48-.54.48z"></path>
    <path d="M27.94 41.44c-.36 0-.66-.3-.6-.66.3-4.2 3.78-6.12 3.96-6.18.3-.18.66-.06.84.24.18.3.06.66-.24.84-.12.06-3.06 1.68-3.3 5.16-.06.36-.3.6-.66.6z" stroke-width=".7"></path>
    <path d="M28.3 39.4c-.18 0-.42-.12-.54-.3l-2.04-3.36c-.48-.84-.54-1.8-.18-2.64.36-.9 1.14-1.5 2.04-1.68 1.08-.24 1.98-.66 2.82-1.32l2.4-1.8a4.335 4.335 0 0 1 4.32-.54c1.08.48 1.74 1.32 1.92 2.4.36 1.92-.96 3.9-2.94 4.38l-1.5.42c-.3.06-.66-.12-.72-.42-.06-.3.12-.66.42-.72l1.56-.36c1.32-.3 2.28-1.74 2.04-3-.12-.72-.54-1.2-1.26-1.5-.96-.42-2.16-.3-3.06.36l-2.4 1.8c-.96.72-2.1 1.26-3.3 1.5-.6.12-1.02.48-1.26 1.02s-.18 1.08.12 1.56l2.04 3.36c.18.3.06.66-.18.84h-.3z" stroke-width=".7"></path>
    <path d="M18.58 53.38c-1.14 0-1.92-.78-2.16-1.68-.3-1.02-.06-2.34 1.32-2.88 1.68-.72 1.86-1.32 2.64-3.66l.12-.42c.36-1.2 1.26-2.16 2.4-2.64s2.46-.48 3.6.06l4.8 2.34c.3.12.42.54.3.84-.12.3-.54.42-.84.3l-4.8-2.34c-.78-.42-1.74-.42-2.58-.06-.84.36-1.44 1.08-1.74 1.92l-.12.42c-.72 2.4-1.08 3.54-3.3 4.44-.72.3-.78.96-.66 1.38.12.48.54.9 1.26.78l.96-.36a7.881 7.881 0 0 0 4.26-4.08c.18-.42.6-.78 1.08-.84.48-.12.96.06 1.32.36 3 2.88 5.88 4.08 8.46 3.6 2.58-.48 4.8-2.7 6.48-6.42.06-.12.12-.3.18-.42 3.54-8.82 2.76-16.14 2.76-16.2-.18-3.78-.96-7.14-2.34-9.96-1.98-4.38-6.18-7.38-10.8-7.92-2.58-.3-4.98.18-7.08 1.44-2.76 1.68-4.44 4.74-4.26 7.98.18 4.14 3.3 5.7 5.16 6.3.9.3 1.62 1.02 1.86 1.98.12.54.54.96 1.08 1.08.36.06.54.42.48.72-.06.3-.42.54-.72.48a2.74 2.74 0 0 1-2.04-1.98c-.12-.48-.54-.9-1.02-1.08-1.74-.54-5.76-2.34-6-7.38-.18-3.72 1.68-7.2 4.86-9.12 2.28-1.38 4.92-1.92 7.8-1.62 5.1.54 9.6 3.84 11.88 8.52 1.44 3 2.28 6.48 2.46 10.38.06.24.84 7.62-2.88 16.74-.06.18-.12.3-.18.48-1.86 4.08-4.44 6.54-7.38 7.14-3 .6-6.18-.72-9.54-3.9-.12-.06-.18-.06-.24-.06s-.18.06-.24.18c-.96 2.16-2.76 3.78-4.92 4.68l-1.02.42h-.12c-.18 0-.36.06-.54.06z" stroke-width=".7"></path>
    <path d="M34.78 24.22c-.3 0-.6-.24-.6-.6-.06-.72-.24-1.26-.54-1.56-.3-.3-.72-.24-.72-.24-.36.06-.66-.18-.66-.54-.06-.36.18-.66.54-.66.12 0 .9-.12 1.68.48.6.48.96 1.32 1.02 2.46-.06.36-.36.66-.72.66z" stroke-width=".7"></path>
    <path d="M31 61C14.44 61 1 47.56 1 31 1 14.44 14.44 1 31 1c16.56 0 30 13.44 30 30 0 16.56-13.44 30-30 30zm0-58.8C15.16 2.2 2.2 15.16 2.2 31S15.1 59.8 31 59.8c15.84 0 28.8-12.9 28.8-28.8C59.8 15.16 46.84 2.2 31 2.2z" stroke-width=".7"></path>
    <path d="M23.74 39.16c-.06 0-.12 0-.18-.06-1.5-.48-2.22-.48-4.32-.3-.36 0-.72.06-1.08.12-1.8.18-3.66.36-5.46-.18-2.22-.66-4.38-2.88-3.84-5.34.3-1.38 1.26-2.34 2.16-3.24.78-.78 1.5-1.5 1.8-2.4.24-.78.12-1.68-.42-2.46-.48-.78-1.26-1.26-2.04-1.32H6.34c-.36 0-.6-.3-.6-.6s.3-.6.6-.6h4.14c1.14.12 2.28.78 3 1.86.72 1.08.9 2.4.54 3.48-.42 1.2-1.26 2.04-2.1 2.88-.84.84-1.62 1.62-1.86 2.64-.36 1.68 1.26 3.42 3 3.9 1.56.48 3.24.3 4.98.12.36-.06.72-.06 1.08-.12 2.1-.18 3.06-.18 4.8.36.3.12.48.48.36.78-.06.36-.3.48-.54.48z" stroke-width=".7"></path>
  </symbol>
  <symbol viewBox="0 0 66 62" xmlns="http://www.w3.org/2000/svg" id="med_6">
    <path d="M9.767 61a.286.286 0 0 1-.284-.281l-.13-7.268-8.086-.487a.284.284 0 0 1-.247-.18.288.288 0 0 1 .059-.303l23.955-25.308a.282.282 0 0 1 .205-.088h.001c.078 0 .152.033.206.09l7.76 8.35a.288.288 0 0 1 0 .391L9.975 60.91a.282.282 0 0 1-.207.09zm-7.855-8.57l7.736.465a.285.285 0 0 1 .267.28l.123 6.829L32.611 35.72l-7.374-7.933L1.912 52.43zm38.849-24.773a.282.282 0 0 1-.205-.088l-7.761-8.2a.289.289 0 0 1 0-.396L45.258 5.806a.283.283 0 0 1 .202-.088h.003c.075 0 .148.03.2.084l1.559 1.572c1.842 1.745 2.829 4.128 2.771 6.703-.056 2.498-1.072 4.934-2.861 6.86l-6.164 6.63a.282.282 0 0 1-.205.09h-.002zm-7.368-8.486l7.367 7.783 5.959-6.41c1.693-1.822 2.654-4.123 2.707-6.48.054-2.41-.869-4.64-2.599-6.279l-1.359-1.371L33.393 19.17z"></path>
    <path d="M56.233 61a.282.282 0 0 1-.207-.09L18.868 20.936c-3.783-4.07-3.82-10.03-.083-13.568l1.551-1.566a.282.282 0 0 1 .406.005l44.18 46.673a.289.289 0 0 1 .049.325.284.284 0 0 1-.285.158l-9.537-1.03 1.358 8.696a.287.287 0 0 1-.271.37l-.003.001zm-35.7-54.586l-1.354 1.365c-3.51 3.325-3.462 8.93.103 12.765L55.809 59.84l-1.278-8.186a.289.289 0 0 1 .074-.242.28.28 0 0 1 .236-.087l9.135.987L20.532 6.414z"></path>
    <path d="M45.463 6.29a.281.281 0 0 1-.206-.09C42.385 3.13 38.261 1.574 33 1.574c-5.261 0-9.385 1.557-12.257 4.628a.282.282 0 0 1-.401.011.288.288 0 0 1-.011-.405C23.314 2.617 27.577 1 33 1s9.685 1.617 12.669 4.807a.288.288 0 0 1-.012.405.28.28 0 0 1-.195.078zm-6.231 6.29a.283.283 0 0 1-.232-.12c-1.407-2.007-3.426-3.024-6-3.024s-4.592 1.017-6 3.024a.282.282 0 0 1-.395.068.288.288 0 0 1-.068-.4C28.036 9.993 30.27 8.864 33 8.864s4.964 1.13 6.463 3.266a.288.288 0 0 1-.23.452z"></path>
    <path d="M9.767 61a.286.286 0 0 1-.284-.281l-.13-7.268-8.086-.487a.284.284 0 0 1-.247-.18.288.288 0 0 1 .059-.303l23.955-25.308a.282.282 0 0 1 .205-.088h.001c.078 0 .152.033.206.09l7.76 8.35a.288.288 0 0 1 0 .391L9.975 60.91a.282.282 0 0 1-.207.09zm-7.855-8.57l7.736.465a.285.285 0 0 1 .267.28l.123 6.829L32.611 35.72l-7.374-7.933L1.912 52.43zm38.849-24.773a.282.282 0 0 1-.205-.088l-7.761-8.2a.289.289 0 0 1 0-.396L45.258 5.806a.283.283 0 0 1 .202-.088h.003c.075 0 .148.03.2.084l1.559 1.572c1.842 1.745 2.829 4.128 2.771 6.703-.056 2.498-1.072 4.934-2.861 6.86l-6.164 6.63a.282.282 0 0 1-.205.09h-.002zm-7.368-8.486l7.367 7.783 5.959-6.41c1.693-1.822 2.654-4.123 2.707-6.48.054-2.41-.869-4.64-2.599-6.279l-1.359-1.371L33.393 19.17z" stroke-width="1.2"></path>
    <path d="M56.233 61a.282.282 0 0 1-.207-.09L18.868 20.936c-3.783-4.07-3.82-10.03-.083-13.568l1.551-1.566a.282.282 0 0 1 .406.005l44.18 46.673a.289.289 0 0 1 .049.325.284.284 0 0 1-.285.158l-9.537-1.03 1.358 8.696a.287.287 0 0 1-.271.37l-.003.001zm-35.7-54.586l-1.354 1.365c-3.51 3.325-3.462 8.93.103 12.765L55.809 59.84l-1.278-8.186a.289.289 0 0 1 .074-.242.28.28 0 0 1 .236-.087l9.135.987L20.532 6.414z" stroke-width="1.2"></path>
    <path d="M45.463 6.29a.281.281 0 0 1-.206-.09C42.385 3.13 38.261 1.574 33 1.574c-5.261 0-9.385 1.557-12.257 4.628a.282.282 0 0 1-.401.011.288.288 0 0 1-.011-.405C23.314 2.617 27.577 1 33 1s9.685 1.617 12.669 4.807a.288.288 0 0 1-.012.405.28.28 0 0 1-.195.078zm-6.231 6.29a.283.283 0 0 1-.232-.12c-1.407-2.007-3.426-3.024-6-3.024s-4.592 1.017-6 3.024a.282.282 0 0 1-.395.068.288.288 0 0 1-.068-.4C28.036 9.993 30.27 8.864 33 8.864s4.964 1.13 6.463 3.266a.288.288 0 0 1-.23.452z" stroke-width="1.2"></path>
  </symbol>
  <symbol viewBox="0 0 61 61" xmlns="http://www.w3.org/2000/svg" id="med_7">
    <path d="M37.612 19.959a5.569 5.569 0 0 0 2.778-.787 11.12 11.12 0 0 0 4.745-7.211c1.252-5.439-.65-10.598-4.33-11.746A4.789 4.789 0 0 0 39.328 0c-3.287.021-6.442 3.381-7.504 7.99-1.253 5.439.65 10.598 4.33 11.745.471.148.964.224 1.459.224zm-3.84-11.52C34.614 4.783 37.008 2.015 39.34 2c.294 0 .587.041.87.125 2.598.81 3.961 5.109 2.976 9.387a9.128 9.128 0 0 1-3.791 5.926 3.335 3.335 0 0 1-2.648.388c-2.597-.81-3.96-5.109-2.975-9.387zM51.188 29.24c.472.148.965.224 1.46.224a5.566 5.566 0 0 0 2.778-.786c2.225-1.277 3.998-3.973 4.745-7.212 1.252-5.439-.65-10.598-4.329-11.745a4.689 4.689 0 0 0-1.479-.216c-3.287.021-6.442 3.382-7.504 7.99-1.252 5.44.65 10.598 4.33 11.745zm-2.38-11.296c.842-3.656 3.236-6.424 5.568-6.439a2.75 2.75 0 0 1 .87.125c2.598.81 3.96 5.11 2.975 9.387a9.124 9.124 0 0 1-3.79 5.926 3.336 3.336 0 0 1-2.648.388c-2.597-.81-3.96-5.108-2.975-9.387zm-28.643 1.228c.84.502 1.8.773 2.779.787.494 0 .986-.076 1.459-.224 3.68-1.147 5.582-6.306 4.33-11.745C27.67 3.38 24.514.02 21.227 0c-.5-.004-1 .069-1.479.215-3.68 1.148-5.581 6.307-4.329 11.746a11.118 11.118 0 0 0 4.745 7.211zm.18-17.047c.275-.085.562-.127.85-.125h.02c2.333.015 4.726 2.783 5.568 6.44.985 4.277-.378 8.576-2.976 9.386a3.325 3.325 0 0 1-2.647-.388 9.124 9.124 0 0 1-3.79-5.926c-.986-4.278.377-8.577 2.975-9.387zm-7.972 33.869c-.87.723-1.77 1.47-2.613 2.29a10.816 10.816 0 0 0-3.72 7.888c0 8.19 6.012 14.367 13.985 14.367 2.353 0 4.254-1.183 5.93-2.226l.11-.068c1.674-1.042 2.956-1.78 4.212-1.78 1.257 0 2.539.738 4.213 1.78l.11.068c1.676 1.043 3.576 2.226 5.93 2.226 7.972 0 13.985-6.177 13.985-14.367a10.815 10.815 0 0 0-3.72-7.889c-.844-.82-1.743-1.566-2.613-2.289a28.253 28.253 0 0 1-2.978-2.71 34.948 34.948 0 0 1-3.128-4.396c-.788-1.23-1.602-2.5-2.5-3.688-1.742-2.302-4.602-5.362-9.299-5.362-4.696 0-7.556 3.06-9.297 5.362-.899 1.187-1.713 2.458-2.501 3.688a34.948 34.948 0 0 1-3.128 4.395 28.25 28.25 0 0 1-2.978 2.711zm4.467-1.376a36.237 36.237 0 0 0 3.323-4.652c.767-1.197 1.56-2.434 2.411-3.56 2.391-3.159 4.767-4.568 7.703-4.568s5.312 1.41 7.703 4.569c.852 1.125 1.645 2.363 2.412 3.56a36.254 36.254 0 0 0 3.322 4.651 29.708 29.708 0 0 0 3.19 2.915c.84.698 1.71 1.42 2.496 2.185 2.154 2.093 3.115 4.084 3.115 6.454 0 7.05-5.153 12.367-11.986 12.367-1.781 0-3.353-.978-4.873-1.924l-.11-.068c-1.566-.976-3.343-2.082-5.269-2.082-1.924 0-3.701 1.106-5.27 2.082l-.109.068c-1.52.946-3.091 1.924-4.873 1.924-6.833 0-11.985-5.317-11.985-12.367 0-2.37.96-4.361 3.114-6.454.787-.765 1.656-1.487 2.497-2.185a29.688 29.688 0 0 0 3.19-2.915zM6.192 9.505c-.5-.005-1 .067-1.478.216-3.68 1.147-5.582 6.306-4.33 11.745.747 3.239 2.52 5.935 4.745 7.212.841.502 1.8.773 2.778.786.495 0 .987-.075 1.46-.224 3.68-1.147 5.581-6.306 4.329-11.745-1.062-4.608-4.217-7.969-7.504-7.99zm2.58 17.826a3.324 3.324 0 0 1-2.647-.388 9.123 9.123 0 0 1-3.791-5.926c-.986-4.278.377-8.577 2.976-9.387a2.8 2.8 0 0 1 .848-.125h.021c2.332.015 4.726 2.783 5.568 6.44.985 4.278-.378 8.576-2.976 9.386z"></path>
  </symbol>
  <symbol viewBox="0 0 47 62" xmlns="http://www.w3.org/2000/svg" id="med_8">
    <path d="M36.382 46.607c-.24 0-.48-.12-.6-.42-.18-.36 0-.78.3-.96 1.86-.9 1.68-2.458 1.26-4.557-.06-.24-.12-.54-.18-.72-.18-1.08-.42-4.678 5.158-6.177 1.68-.48 2.46-1.38 2.34-2.879-.06-.6-.3-1.2-.66-1.8-.48-.779-1.5-2.398-2.64-4.317-2.099-3.358-4.678-7.556-6.178-9.895-1.44-2.28-1.32-5.218-1.26-6.777v-.42c0-.36.3-.72.72-.66.36 0 .66.36.66.72v.48c-.06 1.439-.18 4.078 1.02 5.937 1.5 2.339 4.079 6.537 6.178 9.895 1.2 1.92 2.16 3.479 2.64 4.258.479.78.779 1.62.839 2.4.12 1.259-.18 3.478-3.359 4.317-4.319 1.14-4.319 3.599-4.139 4.618.06.24.12.42.12.72.36 1.739 1.02 4.678-1.98 6.117 0 .12-.12.12-.239.12z"></path>
    <path d="M29.364 61c-4.139 0-8.217-.54-12.056-1.56-4.678-1.259-11.276-3.658-16.075-7.796-.3-.24-.3-.72-.06-.96.24-.299.72-.299.96-.06 4.558 4.019 10.976 6.298 15.535 7.497 3.779 1.02 7.677 1.5 11.696 1.5 2.88 0 4.859-.6 5.698-1.68.66-.84.6-1.919.36-2.698-.42-1.68-.3-3.419.42-4.918.36-.72.66-1.14.66-1.2.06-.06.12-.18.12-.24.06-.06.06-.12.12-.18.3-.479.36-1.019.12-1.439-1.02-1.859-5.698 0-7.198.78-.36.18-.78.06-.96-.3-.18-.36-.06-.78.3-.96.72-.36 7.198-3.538 9.057-.18.48.9.42 1.98-.18 2.88-.06.06-.06.12-.12.18s-.12.18-.18.24c0 0-.24.359-.54.959-.54 1.2-.659 2.578-.3 3.958.36 1.5.18 2.879-.659 3.898-1.02 1.56-3.299 2.279-6.718 2.279zM7.291 21.658c-.24 0-.54-.12-.66-.42-.96-2.038-1.14-3.898-.48-5.457.66-1.679 2.22-2.939 4.619-3.838 1.8-.66 4.019-1.02 6.778-1.08 12.596-.24 16.435-2.758 17.334-4.857.9-1.92-.6-3.838-.66-3.898-.24-.3-.18-.72.12-.96s.72-.18.96.12c.06.12 2.1 2.639.84 5.337-1.62 3.539-7.918 5.398-18.594 5.638-2.64.06-4.739.36-6.358.96-1.98.719-3.299 1.799-3.839 3.058-.48 1.2-.36 2.639.48 4.318.18.36 0 .78-.36.9 0 .12-.06.18-.18.18z"></path>
    <path d="M16.528 56.682c-.36 0-.66-.24-.66-.6l-1.08-6.597c-.42-2.398-.839-4.917-.719-7.496.06-2.879.84-5.457 2.16-7.377 1.439-2.039 3.478-3.418 5.518-4.797.6-.42 1.2-.78 1.739-1.2 4.199-3.058 7.618-7.136 9.777-11.874.18-.36.6-.48.9-.36.36.18.48.6.36.9a31.697 31.697 0 0 1-10.257 12.414l-1.8 1.26c-1.979 1.319-3.838 2.578-5.098 4.437-1.2 1.68-1.86 3.958-1.92 6.597-.06 2.399.36 4.858.72 7.197l1.08 6.596c.06.36-.18.72-.6.78-.06.12-.12.12-.12.12z"></path>
    <path d="M36.382 46.607c-.24 0-.48-.12-.6-.42-.18-.36 0-.78.3-.96 1.86-.9 1.68-2.458 1.26-4.557-.06-.24-.12-.54-.18-.72-.18-1.08-.42-4.678 5.158-6.177 1.68-.48 2.46-1.38 2.34-2.879-.06-.6-.3-1.2-.66-1.8-.48-.779-1.5-2.398-2.64-4.317-2.099-3.358-4.678-7.556-6.178-9.895-1.44-2.28-1.32-5.218-1.26-6.777v-.42c0-.36.3-.72.72-.66.36 0 .66.36.66.72v.48c-.06 1.439-.18 4.078 1.02 5.937 1.5 2.339 4.079 6.537 6.178 9.895 1.2 1.92 2.16 3.479 2.64 4.258.479.78.779 1.62.839 2.4.12 1.259-.18 3.478-3.359 4.317-4.319 1.14-4.319 3.599-4.139 4.618.06.24.12.42.12.72.36 1.739 1.02 4.678-1.98 6.117 0 .12-.12.12-.239.12z" stroke-width=".7"></path>
    <path d="M29.364 61c-4.139 0-8.217-.54-12.056-1.56-4.678-1.259-11.276-3.658-16.075-7.796-.3-.24-.3-.72-.06-.96.24-.299.72-.299.96-.06 4.558 4.019 10.976 6.298 15.535 7.497 3.779 1.02 7.677 1.5 11.696 1.5 2.88 0 4.859-.6 5.698-1.68.66-.84.6-1.919.36-2.698-.42-1.68-.3-3.419.42-4.918.36-.72.66-1.14.66-1.2.06-.06.12-.18.12-.24.06-.06.06-.12.12-.18.3-.479.36-1.019.12-1.439-1.02-1.859-5.698 0-7.198.78-.36.18-.78.06-.96-.3-.18-.36-.06-.78.3-.96.72-.36 7.198-3.538 9.057-.18.48.9.42 1.98-.18 2.88-.06.06-.06.12-.12.18s-.12.18-.18.24c0 0-.24.359-.54.959-.54 1.2-.659 2.578-.3 3.958.36 1.5.18 2.879-.659 3.898-1.02 1.56-3.299 2.279-6.718 2.279zM7.291 21.658c-.24 0-.54-.12-.66-.42-.96-2.038-1.14-3.898-.48-5.457.66-1.679 2.22-2.939 4.619-3.838 1.8-.66 4.019-1.02 6.778-1.08 12.596-.24 16.435-2.758 17.334-4.857.9-1.92-.6-3.838-.66-3.898-.24-.3-.18-.72.12-.96s.72-.18.96.12c.06.12 2.1 2.639.84 5.337-1.62 3.539-7.918 5.398-18.594 5.638-2.64.06-4.739.36-6.358.96-1.98.719-3.299 1.799-3.839 3.058-.48 1.2-.36 2.639.48 4.318.18.36 0 .78-.36.9 0 .12-.06.18-.18.18z" stroke-width=".7"></path>
    <path d="M16.528 56.682c-.36 0-.66-.24-.66-.6l-1.08-6.597c-.42-2.398-.839-4.917-.719-7.496.06-2.879.84-5.457 2.16-7.377 1.439-2.039 3.478-3.418 5.518-4.797.6-.42 1.2-.78 1.739-1.2 4.199-3.058 7.618-7.136 9.777-11.874.18-.36.6-.48.9-.36.36.18.48.6.36.9a31.697 31.697 0 0 1-10.257 12.414l-1.8 1.26c-1.979 1.319-3.838 2.578-5.098 4.437-1.2 1.68-1.86 3.958-1.92 6.597-.06 2.399.36 4.858.72 7.197l1.08 6.596c.06.36-.18.72-.6.78-.06.12-.12.12-.12.12z" stroke-width=".7"></path>
  </symbol>
  <symbol viewBox="0 0 72 62" xmlns="http://www.w3.org/2000/svg" id="med_1">
    <path d="M36 1c-6.284 0-11.395 5.092-11.395 11.351 0 6.26 5.111 11.352 11.395 11.352S47.395 18.61 47.395 12.35C47.395 6.091 42.284 1 36 1zm0 1.622c5.404 0 9.767 4.346 9.767 9.73 0 5.383-4.363 9.73-9.767 9.73-5.404 0-9.767-4.348-9.767-9.73 0-5.384 4.363-9.73 9.767-9.73zm-.178 4.46a.814.814 0 0 0-.636.81v3.648H31.55a.828.828 0 0 0-.483.096.817.817 0 0 0-.325 1.108.819.819 0 0 0 .808.418h3.637v3.623a.807.807 0 0 0 .5.76.816.816 0 0 0 1.128-.76v-3.623h3.637a.818.818 0 0 0 .763-.498.809.809 0 0 0-.763-1.123h-3.637V7.89a.81.81 0 0 0-.992-.81zm-18.06 7.094a.815.815 0 0 0-.737.81v44.392H2.628V26.743h9.08a.815.815 0 0 0 .826-.81.808.808 0 0 0-.825-.811H1.814a.81.81 0 0 0-.076 0 .815.815 0 0 0-.738.81V60.19a.81.81 0 0 0 .814.811h68.372a.816.816 0 0 0 .814-.81v-34.26a.81.81 0 0 0-.814-.81h-9.895a.818.818 0 0 0-.762.497.808.808 0 0 0 .447 1.066c.1.04.208.06.315.058h9.081v32.635H54.975V14.986a.81.81 0 0 0-.814-.81h-3.255a.809.809 0 0 0-.385.076.817.817 0 0 0-.468.772.81.81 0 0 0 .853.773h2.441v43.581H42.156V44.277c0-3.383-2.76-6.132-6.156-6.132-3.397 0-6.155 2.749-6.155 6.132v15.101H18.652v-43.58h2.442a.817.817 0 0 0 .762-.499.808.808 0 0 0-.447-1.065.817.817 0 0 0-.316-.058H17.84a.809.809 0 0 0-.077 0zm5.952 12.593a.818.818 0 0 0-.737.886.814.814 0 0 0 .89.735h5.621a.817.817 0 0 0 .763-.498.81.81 0 0 0-.763-1.123h-5.621a.81.81 0 0 0-.153 0zm18.62 0a.82.82 0 0 0-.698.582.813.813 0 0 0 .557 1.012.82.82 0 0 0 .319.027h5.621a.816.816 0 0 0 .825-.81.809.809 0 0 0-.825-.811h-5.621a.815.815 0 0 0-.178 0zm-35.382 6.03a.819.819 0 0 0-.728.536.809.809 0 0 0 .49 1.038c.1.037.207.053.314.048h5.647a.817.817 0 0 0 .763-.498.807.807 0 0 0-.448-1.066.817.817 0 0 0-.315-.058H7.028a.81.81 0 0 0-.076 0zm52.297 0a.818.818 0 0 0-.729.536.809.809 0 0 0 .49 1.038.806.806 0 0 0 .315.048h5.647a.817.817 0 0 0 .762-.498.807.807 0 0 0-.447-1.066.817.817 0 0 0-.315-.058h-5.647a.811.811 0 0 0-.077 0zm-35.382.076a.817.817 0 0 0-.762.498.81.81 0 0 0 .762 1.124h5.621a.817.817 0 0 0 .763-.498.809.809 0 0 0-.763-1.124h-5.621zm18.645 0a.817.817 0 0 0-.763.498.808.808 0 0 0 .448 1.065c.1.04.207.06.315.059h5.621a.816.816 0 0 0 .825-.811.81.81 0 0 0-.825-.811h-5.621zM23.79 39.007a.816.816 0 0 0-.776.849.81.81 0 0 0 .852.772h2.544a.819.819 0 0 0 .762-.498.809.809 0 0 0-.762-1.123h-2.544a.809.809 0 0 0-.076 0zm21.722 0a.816.816 0 0 0-.776.849.81.81 0 0 0 .852.772h2.544a.818.818 0 0 0 .762-.498.808.808 0 0 0-.447-1.065.814.814 0 0 0-.315-.058h-2.544a.809.809 0 0 0-.076 0zm-9.513.76c2.523 0 4.528 1.996 4.528 4.51v15.101h-9.056V44.277c0-2.514 2.005-4.51 4.528-4.51zm-29.124.43a.819.819 0 0 0-.738.887.813.813 0 0 0 .89.735h5.647a.818.818 0 0 0 .763-.498.807.807 0 0 0-.448-1.065.818.818 0 0 0-.315-.058H7.028a.828.828 0 0 0-.152 0zm52.296 0a.82.82 0 0 0-.737.887.813.813 0 0 0 .89.735h5.647a.818.818 0 0 0 .762-.498.807.807 0 0 0-.447-1.065.818.818 0 0 0-.315-.058h-5.647a.829.829 0 0 0-.153 0zm-52.22 7.374a.817.817 0 0 0-.776.849.809.809 0 0 0 .538.725c.1.036.207.053.314.048h2.57a.818.818 0 0 0 .762-.498.808.808 0 0 0-.448-1.066.818.818 0 0 0-.315-.058H7.028a.883.883 0 0 0-.076 0zm55.374 0a.817.817 0 0 0-.728.536.809.809 0 0 0 .49 1.038c.1.036.208.053.315.048h2.569a.818.818 0 0 0 .762-.498.807.807 0 0 0-.447-1.066.818.818 0 0 0-.315-.058h-2.57a.882.882 0 0 0-.076 0z" stroke-width=".5"></path>
  </symbol>
  <symbol viewBox="0 0 55 62" xmlns="http://www.w3.org/2000/svg" id="med_2">
    <path d="M53.494 10.844c-.89-4.861-4.697-8.417-10.182-9.512-3.595-.718-7.321-.257-11.079 1.37-3.306 1.43-6.6 1.404-10.067-.08-1.933-.827-3.94-1.334-6.14-1.55C10.74.553 5.5 2.873 2.99 6.847c-1.288 2.04-1.92 4.36-1.983 7.298-.106 4.81 1.164 8.88 3.882 12.442.348.456.641.947.952 1.467l.284.472c.559.912.812 1.864.776 2.911-.049 1.421.372 10.594.821 13.852.501 3.643 1.422 6.768 2.814 9.555.885 1.774 2.233 4.007 4.817 5.54.03.018.063.034.096.048.548.226 1.09.34 1.612.34.699 0 1.365-.203 1.975-.603 2.083-1.368 3.583-5.12 4.46-11.153.635-4.377.707-8.439.708-8.492 0-1.809 1.471-3.279 3.287-3.304a3.325 3.325 0 0 1 3.287 3.316c.028 1.68.404 16.504 5.168 19.633.61.401 1.277.602 1.975.602.523 0 1.064-.113 1.613-.34.01-.003.015-.011.024-.016.009-.004.018-.003.027-.007 3.223-1.63 6.416-9.283 7.154-12.758.996-4.686 1.396-9.776 1.26-16.018l-.01-.31c-.016-.387-.033-.788.082-1.04l.101-.22c.561-1.231 1.142-2.504 1.936-3.598 3.311-4.56 4.451-9.815 3.387-15.62zm-4.599 14.74c-.883 1.215-1.496 2.557-2.088 3.855l-.1.22c-.264.577-.239 1.187-.217 1.724l.01.281c.133 6.124-.258 11.104-1.228 15.675-.693 3.264-3.697 10.345-6.34 11.716-.822.333-1.512.29-2.164-.138-3.476-2.283-4.422-14.06-4.493-18.392 0-2.61-2.1-4.735-4.707-4.802-.011 0-.02-.006-.031-.006l-.047.002-.048-.002c-.011 0-.02.006-.031.006-2.607.067-4.707 2.193-4.707 4.79-.071 4.345-1.017 16.122-4.493 18.404-.646.426-1.33.475-2.142.15-2.217-1.334-3.406-3.313-4.195-4.893-1.317-2.638-2.19-5.612-2.669-9.09-.436-3.172-.851-12.308-.807-13.596a6.628 6.628 0 0 0-.995-3.745l-.277-.46c-.318-.532-.648-1.083-1.047-1.607-2.504-3.28-3.673-7.043-3.575-11.5.058-2.654.614-4.73 1.752-6.53C6.47 4.14 11.14 2.1 15.88 2.562c2.043.201 3.906.67 5.696 1.437 3.869 1.655 7.55 1.68 11.252.078 3.522-1.525 6.854-1.943 10.19-1.276 4.86.97 8.226 4.077 9.002 8.312 1.001 5.462-.022 10.196-3.125 14.47z"></path>
    <path d="M41.44 6.102a.749.749 0 1 0-.293 1.47c3.224.643 5.455 2.697 5.968 5.494.672 3.667-.014 6.843-2.096 9.711a.748.748 0 0 0 .605 1.19.748.748 0 0 0 .607-.31c2.303-3.173 3.097-6.827 2.357-10.862-.627-3.423-3.3-5.925-7.148-6.693zm-6.566 10.133h-3.747V12.49a.75.75 0 0 0-.75-.75H24.51a.75.75 0 0 0-.75.75v3.746h-3.746a.75.75 0 0 0-.75.75v5.869a.75.75 0 0 0 .75.749h3.746v3.746c0 .414.336.75.75.75h5.869a.75.75 0 0 0 .75-.75v-3.746h3.746a.75.75 0 0 0 .749-.75v-5.869a.75.75 0 0 0-.75-.749zm-.75 5.87h-3.746a.75.75 0 0 0-.75.749V26.6h-4.37v-3.746a.75.75 0 0 0-.75-.75h-3.746v-4.37h3.747a.75.75 0 0 0 .749-.75v-3.746h4.37v3.746c0 .414.336.75.75.75h3.746v4.37z"></path>
    <path d="M53.494 10.844c-.89-4.861-4.697-8.417-10.182-9.512-3.595-.718-7.321-.257-11.079 1.37-3.306 1.43-6.6 1.404-10.067-.08-1.933-.827-3.94-1.334-6.14-1.55C10.74.553 5.5 2.873 2.99 6.847c-1.288 2.04-1.92 4.36-1.983 7.298-.106 4.81 1.164 8.88 3.882 12.442.348.456.641.947.952 1.467l.284.472c.559.912.812 1.864.776 2.911-.049 1.421.372 10.594.821 13.852.501 3.643 1.422 6.768 2.814 9.555.885 1.774 2.233 4.007 4.817 5.54.03.018.063.034.096.048.548.226 1.09.34 1.612.34.699 0 1.365-.203 1.975-.603 2.083-1.368 3.583-5.12 4.46-11.153.635-4.377.707-8.439.708-8.492 0-1.809 1.471-3.279 3.287-3.304a3.325 3.325 0 0 1 3.287 3.316c.028 1.68.404 16.504 5.168 19.633.61.401 1.277.602 1.975.602.523 0 1.064-.113 1.613-.34.01-.003.015-.011.024-.016.009-.004.018-.003.027-.007 3.223-1.63 6.416-9.283 7.154-12.758.996-4.686 1.396-9.776 1.26-16.018l-.01-.31c-.016-.387-.033-.788.082-1.04l.101-.22c.561-1.231 1.142-2.504 1.936-3.598 3.311-4.56 4.451-9.815 3.387-15.62zm-4.599 14.74c-.883 1.215-1.496 2.557-2.088 3.855l-.1.22c-.264.577-.239 1.187-.217 1.724l.01.281c.133 6.124-.258 11.104-1.228 15.675-.693 3.264-3.697 10.345-6.34 11.716-.822.333-1.512.29-2.164-.138-3.476-2.283-4.422-14.06-4.493-18.392 0-2.61-2.1-4.735-4.707-4.802-.011 0-.02-.006-.031-.006l-.047.002-.048-.002c-.011 0-.02.006-.031.006-2.607.067-4.707 2.193-4.707 4.79-.071 4.345-1.017 16.122-4.493 18.404-.646.426-1.33.475-2.142.15-2.217-1.334-3.406-3.313-4.195-4.893-1.317-2.638-2.19-5.612-2.669-9.09-.436-3.172-.851-12.308-.807-13.596a6.628 6.628 0 0 0-.995-3.745l-.277-.46c-.318-.532-.648-1.083-1.047-1.607-2.504-3.28-3.673-7.043-3.575-11.5.058-2.654.614-4.73 1.752-6.53C6.47 4.14 11.14 2.1 15.88 2.562c2.043.201 3.906.67 5.696 1.437 3.869 1.655 7.55 1.68 11.252.078 3.522-1.525 6.854-1.943 10.19-1.276 4.86.97 8.226 4.077 9.002 8.312 1.001 5.462-.022 10.196-3.125 14.47z" stroke-width=".5"></path>
    <path d="M41.44 6.102a.749.749 0 1 0-.293 1.47c3.224.643 5.455 2.697 5.968 5.494.672 3.667-.014 6.843-2.096 9.711a.748.748 0 0 0 .605 1.19.748.748 0 0 0 .607-.31c2.303-3.173 3.097-6.827 2.357-10.862-.627-3.423-3.3-5.925-7.148-6.693zm-6.566 10.133h-3.747V12.49a.75.75 0 0 0-.75-.75H24.51a.75.75 0 0 0-.75.75v3.746h-3.746a.75.75 0 0 0-.75.75v5.869a.75.75 0 0 0 .75.749h3.746v3.746c0 .414.336.75.75.75h5.869a.75.75 0 0 0 .75-.75v-3.746h3.746a.75.75 0 0 0 .749-.75v-5.869a.75.75 0 0 0-.75-.749zm-.75 5.87h-3.746a.75.75 0 0 0-.75.749V26.6h-4.37v-3.746a.75.75 0 0 0-.75-.75h-3.746v-4.37h3.747a.75.75 0 0 0 .749-.75v-3.746h4.37v3.746c0 .414.336.75.75.75h3.746v4.37z" stroke-width=".5"></path>
  </symbol>
</svg>