<svg width="62" height="60" viewBox="0 0 62 60" fill="none" xmlns="http://www.w3.org/2000/svg">
<g opacity="0.5">
<path d="M2.23277 41.9656H0V44.1984H2.23277V41.9656Z" fill="#09AEEB"/>
<path d="M2.23277 39.6181H0V37.328H2.23277V39.6181ZM2.23277 34.9807H0V32.6334H2.23277V34.9807ZM2.23277 30.2861H0V27.9387H2.23277V30.2861ZM2.23277 25.5914H0V23.2441H2.23277V25.5914ZM2.23277 20.954H0V18.6067H2.23277V20.954ZM2.23277 16.2593H0V13.912H2.23277V16.2593ZM2.23277 11.5647H0V9.21737H2.23277V11.5647ZM2.23277 6.87002H0V4.52271H2.23277V6.87002Z" fill="#09AEEB"/>
<path d="M2.23326 0.000244141H0.000488281V2.23308H2.23326V0.000244141Z" fill="#09AEEB"/>
<path d="M57.0227 2.23284H54.7326V0H57.0227V2.23284ZM52.4425 2.23284H50.1525V0H52.4425V2.23284ZM47.8624 2.23284H45.5723V0H47.8624V2.23284ZM43.2822 2.23284H40.9921V0H43.2822V2.23284ZM38.7594 2.23284H36.4693V0H38.7594V2.23284ZM34.1792 2.23284H31.8891V0H34.1792V2.23284ZM29.5991 2.23284H27.309V0H29.5991V2.23284ZM25.0762 2.23284H22.7861V0H25.0762V2.23284ZM20.4961 2.23284H18.206V0H20.4961V2.23284ZM15.9159 2.23284H13.6258V0H15.9159V2.23284ZM11.3358 2.23284H9.04569V0H11.3358V2.23284ZM6.81278 2.23284H4.52271V0H6.81278V2.23284Z" fill="#09AEEB"/>
<path d="M61.5459 0H59.313V2.23284H61.5459V0Z" fill="#09AEEB"/>
<path d="M61.4886 39.6181H59.2559V37.328H61.4886V39.6181ZM61.4886 34.9807H59.2559V32.6334H61.4886V34.9807ZM61.4886 30.2861H59.2559V27.9387H61.4886V30.2861ZM61.4886 25.5914H59.2559V23.2441H61.4886V25.5914ZM61.4886 20.954H59.2559V18.6067H61.4886V20.954ZM61.4886 16.2593H59.2559V13.912H61.4886V16.2593ZM61.4886 11.5647H59.2559V9.21737H61.4886V11.5647ZM61.4886 6.87002H59.2559V4.52271H61.4886V6.87002Z" fill="#09AEEB"/>
<path d="M61.5459 41.9656H59.313V44.1984H61.5459V41.9656Z" fill="#09AEEB"/>
<path d="M57.0227 44.1984H54.7326V41.9656H57.0227V44.1984ZM52.4425 44.1984H50.1525V41.9656H52.4425V44.1984ZM47.8624 44.1984H45.5723V41.9656H47.8624V44.1984ZM43.2822 44.1984H40.9921V41.9656H43.2822V44.1984ZM38.7594 44.1984H36.4693V41.9656H38.7594V44.1984ZM34.1792 44.1984H31.8891V41.9656H34.1792V44.1984ZM29.5991 44.1984H27.309V41.9656H29.5991V44.1984ZM25.0762 44.1984H22.7861V41.9656H25.0762V44.1984ZM20.4961 44.1984H18.206V41.9656H20.4961V44.1984ZM15.9159 44.1984H13.6258V41.9656H15.9159V44.1984ZM11.3358 44.1984H9.04569V41.9656H11.3358V44.1984ZM6.81278 44.1984H4.52271V41.9656H6.81278V44.1984Z" fill="#09AEEB"/>
<path d="M56.5649 39.2747H4.92358V4.92358H56.5649V39.2747ZM7.15649 37.0419H54.332V7.15639H7.15649V37.0419Z" fill="#09AEEB"/>
<path d="M6.87017 38.9314L5.26709 37.3856L25.6488 17.0039L37.8434 29.1986L42.9389 24.1032L56.2213 37.3856L54.6755 38.9314L42.9389 27.252L37.8434 32.3474L25.6488 20.1528L6.87017 38.9314Z" fill="#09AEEB"/>
<path d="M36.1832 19.4657C33.6641 19.4657 31.603 17.4047 31.603 14.8856C31.603 12.3665 33.6641 10.3054 36.1832 10.3054C38.7023 10.3054 40.7633 12.3665 40.7633 14.8856C40.7633 17.4047 38.7023 19.4657 36.1832 19.4657ZM36.1832 12.5383C34.8664 12.5383 33.8358 13.5688 33.8358 14.8856C33.8358 16.2024 34.8664 17.2329 36.1832 17.2329C37.5 17.2329 38.5306 16.2024 38.5306 14.8856C38.5306 13.5688 37.5 12.5383 36.1832 12.5383Z" fill="#09AEEB"/>
<path d="M61.4885 60.0001H0V46.8894H61.4885V60.0001ZM2.23277 57.7673H59.3129V49.1222H2.23277V57.7673Z" fill="#09AEEB"/>
<path d="M56.9656 48.0342H54.7327V51.4693H56.9656V48.0342Z" fill="#09AEEB"/>
<path d="M52.3853 48.0342H50.1523V51.4693H52.3853V48.0342Z" fill="#09AEEB"/>
<path d="M47.8624 48.0342H45.6296V51.4693H47.8624V48.0342Z" fill="#09AEEB"/>
<path d="M43.2823 48.0342H41.0496V51.4693H43.2823V48.0342Z" fill="#09AEEB"/>
<path d="M38.7023 48.0342H36.4695V51.4693H38.7023V48.0342Z" fill="#09AEEB"/>
<path d="M34.1793 48.0342H31.9465V51.4693H34.1793V48.0342Z" fill="#09AEEB"/>
<path d="M29.599 48.0342H27.3662V51.4693H29.599V48.0342Z" fill="#09AEEB"/>
<path d="M25.0189 48.0342H22.7861V51.4693H25.0189V48.0342Z" fill="#09AEEB"/>
<path d="M20.4961 48.0342H18.2632V51.4693H20.4961V48.0342Z" fill="#09AEEB"/>
<path d="M15.916 48.0342H13.6831V51.4693H15.916V48.0342Z" fill="#09AEEB"/>
<path d="M11.3359 48.0342H9.10303V51.4693H11.3359V48.0342Z" fill="#09AEEB"/>
<path d="M6.81285 48.0347H4.58008V51.4698H6.81285V48.0347Z" fill="#09AEEB"/>
</g>
</svg>
