<svg width="80" height="57" viewBox="0 0 80 57" fill="none" xmlns="http://www.w3.org/2000/svg">
<g opacity="0.5">
<path d="M17.0911 24.0603H14.7275V16.3028C14.7275 15.5149 15.0306 14.727 15.6366 14.1816C16.2427 13.5755 16.97 13.2725 17.7578 13.2725H38.4244V15.636H17.7578C17.576 15.636 17.3942 15.6967 17.273 15.8179C17.1518 15.9391 17.0911 16.1209 17.0911 16.3028V24.0603Z" fill="#09AEEB"/>
<path d="M73.0305 51.3332H14.7275V44.9696H17.0911V48.9695H70.667V29.2119H73.0305V51.3332Z" fill="#09AEEB"/>
<path d="M68.5458 51.3332H19.2124V44.9696H21.5761V48.9695H66.1821V29.2119H68.5458V51.3332Z" fill="#09AEEB"/>
<path d="M21.5761 24.0604H19.2124V17.7573H38.4245V20.121H21.5761V24.0604Z" fill="#09AEEB"/>
<path d="M75.0303 56.3028H12.6666C11.6969 56.3028 10.7879 55.9392 10.0607 55.2119C9.394 54.5452 8.96973 53.5755 8.96973 52.6058V48.9089H78.6667V52.6058C78.6667 53.5755 78.303 54.4846 77.5758 55.2119C76.9697 55.9392 76 56.3028 75.0303 56.3028ZM11.394 51.3332V52.6665C11.394 53.0301 11.5151 53.3331 11.7575 53.5756C11.9999 53.818 12.3636 53.9391 12.6666 53.9391H75.0303C75.394 53.9391 75.697 53.818 75.9394 53.5756C76.1818 53.3331 76.303 53.0301 76.303 52.6665V51.3332H11.394Z" fill="#09AEEB"/>
<path d="M33.394 46.182H0V22.9092H33.394V46.182ZM2.36358 43.8183H31.0909V25.2728H2.36358V43.8183Z" fill="#09AEEB"/>
<path d="M11.3945 32.6667H9.03076V37.8788H11.3945V32.6667Z" fill="#09AEEB"/>
<path d="M7.03072 36.3032H4.66699V37.8184H7.03072V36.3032Z" fill="#09AEEB"/>
<path d="M15.6976 34.606H13.334V37.8181H15.6976V34.606Z" fill="#09AEEB"/>
<path d="M20.061 30.1211H17.6973V37.8786H20.061V30.1211Z" fill="#09AEEB"/>
<path d="M24.4248 31.9392H22.061V37.818H24.4248V31.9392Z" fill="#09AEEB"/>
<path d="M28.7884 27.9395H26.4248V37.8788H28.7884V27.9395Z" fill="#09AEEB"/>
<path d="M28.7882 39.5757H4.66699V41.9394H28.7882V39.5757Z" fill="#09AEEB"/>
<path d="M80.0002 30.3639H37.2729V1.51538H80.0002V30.3639ZM39.6365 28.0002H77.6972V3.87903H39.6365V28.0002Z" fill="#09AEEB"/>
<path d="M45.5154 21.4546L43.8789 19.7576L50.9093 12.7273L55.5154 17.394L61.7577 11.2122L66.3638 15.8788L71.7577 10.4849L73.3942 12.1819L66.3638 19.1516L61.7577 14.5455L55.5154 20.7273L50.9093 16.0607L45.5154 21.4546Z" fill="#09AEEB"/>
<path d="M73.7578 16.0608H71.3942V12.485H67.8184V10.1213H73.7578V16.0608Z" fill="#09AEEB"/>
<path d="M53.1517 44.7274C50.182 44.7274 47.8184 42.3031 47.8184 39.394C47.8184 36.4243 50.2426 34.0608 53.1517 34.0608C56.1214 34.0608 58.4851 36.4849 58.4851 39.394C58.4851 42.3031 56.1214 44.7274 53.1517 44.7274ZM53.1517 36.3637C51.5154 36.3637 50.1214 37.697 50.1214 39.394C50.1214 41.0304 51.4548 42.4243 53.1517 42.4243C54.8487 42.4243 56.182 41.091 56.182 39.394C56.1214 37.697 54.7881 36.3637 53.1517 36.3637Z" fill="#09AEEB"/>
<path d="M25.0306 8.60603C22.667 8.60603 20.7275 6.66665 20.7275 4.30302C20.7275 1.93938 22.667 0 25.0306 0C27.3943 0 29.3336 1.93938 29.3336 4.30302C29.3942 6.66665 27.4549 8.60603 25.0306 8.60603ZM25.0306 2.30299C23.9397 2.30299 23.0913 3.21212 23.0913 4.24242C23.0913 5.33333 24.0003 6.18179 25.0306 6.18179C26.1215 6.18179 26.97 5.27273 26.97 4.24242C27.0306 3.15152 26.1215 2.30299 25.0306 2.30299Z" fill="#09AEEB"/>
</g>
</svg>
