<svg width="73" height="62" viewBox="0 0 73 62" fill="none" xmlns="http://www.w3.org/2000/svg">
<path d="M63.9495 6.4165C63.5257 6.4165 63.179 6.76323 63.179 7.187C63.179 7.61077 63.5257 7.9575 63.9495 7.9575H70.3446V10.269H63.9495C63.5257 10.269 63.179 10.6157 63.179 11.0395C63.179 11.4633 63.5257 11.81 63.9495 11.81H70.3446V45.3189H2.54099V11.81H8.72807C9.15185 11.81 9.49857 11.4633 9.49857 11.0395C9.49857 10.6157 9.15185 10.269 8.72807 10.269H2.54099V7.9575H8.72807C9.15185 7.9575 9.49857 7.61077 9.49857 7.187C9.49857 6.76323 9.15185 6.4165 8.72807 6.4165H1V46.0893V50.7123H31.4346V59.8889H25.4864C25.0626 59.8889 24.7159 60.2357 24.7159 60.6594C24.7159 61.0832 25.0626 61.4299 25.4864 61.4299H47.407C47.8307 61.4299 48.1775 61.0832 48.1775 60.6594C48.1775 60.2357 47.8307 59.8889 47.407 59.8889H41.451V50.7123H71.8856V46.0893V6.4165H63.9495ZM39.91 59.8966H32.9756V50.7123H39.91V59.8966ZM70.3446 49.1713H2.54099V46.8598H70.3446V49.1713Z" fill="#09AEEB" stroke="#09AEEB" stroke-width="0.3"/>
<path d="M12.1182 41.0427C12.5419 41.0427 12.8886 40.696 12.8886 40.2722V7.64168H59.9968V40.2722C59.9968 40.696 60.3435 41.0427 60.7673 41.0427C61.191 41.0427 61.5378 40.696 61.5378 40.2722V1H11.3477V40.2722C11.3477 40.696 11.6944 41.0427 12.1182 41.0427ZM12.8886 2.54099H59.9968V6.10068H12.8886V2.54099Z" fill="#09AEEB" stroke="#09AEEB" stroke-width="0.3"/>
<path d="M20.8171 3.33447H20.5166C20.0928 3.33447 19.7461 3.6812 19.7461 4.10497C19.7461 4.52874 20.0928 4.87546 20.5166 4.87546H20.8171C21.2409 4.87546 21.5876 4.52874 21.5876 4.10497C21.5876 3.6812 21.2486 3.33447 20.8171 3.33447Z" fill="#09AEEB" stroke="#09AEEB" stroke-width="0.3"/>
<path d="M18.1198 3.33447H17.8193C17.3956 3.33447 17.0488 3.6812 17.0488 4.10497C17.0488 4.52874 17.3956 4.87546 17.8193 4.87546H18.1198C18.5436 4.87546 18.8903 4.52874 18.8903 4.10497C18.8903 3.6812 18.5436 3.33447 18.1198 3.33447Z" fill="#09AEEB" stroke="#09AEEB" stroke-width="0.3"/>
<path d="M15.4167 3.33447H15.1162C14.6924 3.33447 14.3457 3.6812 14.3457 4.10497C14.3457 4.52874 14.6924 4.87546 15.1162 4.87546H15.4167C15.8405 4.87546 16.1872 4.52874 16.1872 4.10497C16.1872 3.6812 15.8405 3.33447 15.4167 3.33447Z" fill="#09AEEB" stroke="#09AEEB" stroke-width="0.3"/>
<path d="M40.164 33.6457C40.3104 33.7844 40.503 33.8537 40.6879 33.8537C40.896 33.8537 41.0963 33.769 41.2504 33.6072L50.219 24.0299L41.2504 14.4527C40.9576 14.1445 40.4722 14.129 40.164 14.4141C39.8558 14.7069 39.8404 15.1923 40.1255 15.5005L48.1078 24.0299L40.1255 32.5593C39.8327 32.8675 39.8481 33.3606 40.164 33.6457Z" fill="#09AEEB" stroke="#09AEEB" stroke-width="0.3"/>
<path d="M32.721 14.4145C32.4128 14.1217 31.9197 14.1371 31.6346 14.453L22.666 24.0303L31.6346 33.6076C31.7887 33.7694 31.989 33.8541 32.1971 33.8541C32.3897 33.8541 32.5746 33.7848 32.721 33.6461C33.0292 33.3533 33.0446 32.8679 32.7595 32.5597L24.7772 24.0303L32.7595 15.5009C33.0523 15.1927 33.0369 14.7073 32.721 14.4145Z" fill="#09AEEB" stroke="#09AEEB" stroke-width="0.3"/>
</svg>
