<svg width="58" height="60" viewBox="0 0 58 60" fill="none" xmlns="http://www.w3.org/2000/svg">
<g opacity="0.5">
<path d="M5.70419 44.2604V35.0702H0V7.02441H19.2254V9.08429H2.05987V33.0103H7.76407V39.3484L14.0493 33.0103H44.2606V24.7709H46.3204V35.0702H14.8944L5.70419 44.2604Z" fill="#09AEEB"/>
<path d="M47.7465 7.44702H27.9402V9.5069H47.7465V7.44702Z" fill="#09AEEB"/>
<path d="M47.7465 11.8838H27.9402V13.9437H47.7465V11.8838Z" fill="#09AEEB"/>
<path d="M37.8169 16.2676H27.9402V18.3275H37.8169V16.2676Z" fill="#09AEEB"/>
<path d="M57.4119 25.7747H18.1689V0H57.4119V25.7747ZM20.2288 23.7148H55.352V2.05987H20.2288V23.7148Z" fill="#09AEEB"/>
<path d="M53.6094 60H16.4263V41.0916H53.6094V60ZM18.4861 57.9402H51.5495V43.0986H18.4861V57.9402Z" fill="#09AEEB"/>
<path d="M25.7742 45.3696H23.7144V47.4295H25.7742V45.3696Z" fill="#09AEEB"/>
<path d="M29.8943 45.3694H27.8345V47.4293H29.8943V45.3694Z" fill="#09AEEB"/>
<path d="M34.014 45.3694H31.9541V47.4293H34.014V45.3694Z" fill="#09AEEB"/>
<path d="M38.0806 45.3694H36.0208V47.4293H38.0806V45.3694Z" fill="#09AEEB"/>
<path d="M42.2007 45.3694H40.1409V47.4293H42.2007V45.3694Z" fill="#09AEEB"/>
<path d="M46.3204 45.3694H44.2605V47.4293H46.3204V45.3694Z" fill="#09AEEB"/>
<path d="M25.7742 53.6091H23.7144V55.669H25.7742V53.6091Z" fill="#09AEEB"/>
<path d="M46.3204 53.6089H44.2605V55.6688H46.3204V53.6089Z" fill="#09AEEB"/>
<path d="M42.2007 53.6089H27.8345V55.6688H42.2007V53.6089Z" fill="#09AEEB"/>
<path d="M23.7147 49.4895H21.6548V51.5493H23.7147V49.4895Z" fill="#09AEEB"/>
<path d="M27.834 49.4893H25.7742V51.5491H27.834V49.4893Z" fill="#09AEEB"/>
<path d="M31.9542 49.4893H29.8943V51.5491H31.9542V49.4893Z" fill="#09AEEB"/>
<path d="M36.0737 49.4893H34.0139V51.5491H36.0737V49.4893Z" fill="#09AEEB"/>
<path d="M40.1409 49.4893H38.0811V51.5491H40.1409V49.4893Z" fill="#09AEEB"/>
<path d="M44.2602 49.4893H42.2004V51.5491H44.2602V49.4893Z" fill="#09AEEB"/>
<path d="M48.3799 49.4893H46.3201V51.5491H48.3799V49.4893Z" fill="#09AEEB"/>
</g>
</svg>
