<svg width="66" height="60" viewBox="0 0 66 60" fill="none" xmlns="http://www.w3.org/2000/svg">
<path d="M4.45101 51.7027H6.78213V59.0124C6.78213 59.3654 6.9702 59.6914 7.27593 59.8679C7.42928 59.9561 7.59903 60 7.76974 60C7.94045 60 8.11116 59.9556 8.26355 59.8674L22.3939 51.7027H50.6268C53.0804 51.7027 55.0768 49.7063 55.0768 47.2527V20.6213L62.7829 10.1419C62.7832 10.1415 62.7832 10.141 62.7835 10.1406L64.7475 7.46987C65.6088 6.29805 65.168 4.55911 63.7445 3.51122L59.956 0.725843C58.5306 -0.322049 56.7415 -0.224156 55.8773 0.947188C55.8773 0.947188 55.8773 0.947188 55.8773 0.94767L53.9127 3.61924C53.9124 3.61966 53.9124 3.62015 53.9121 3.62057L46.6495 13.4968H4.45101C1.99644 13.4968 0 15.4884 0 17.9363V47.2527C0 49.7063 1.99644 51.7027 4.45101 51.7027ZM43.886 32.5055L42.6924 29.8369L58.5583 8.26188L60.6061 9.76771L43.886 32.5055ZM57.4687 2.11805C57.6133 1.91985 58.2142 1.89719 58.7852 2.31721L62.5736 5.10259C63.1446 5.52213 63.3018 6.10129 63.1561 6.29997L61.7769 8.17586L58.934 6.08526C58.9339 6.08514 58.9338 6.08502 58.9337 6.0849C58.9336 6.08478 58.9334 6.08484 58.9333 6.08472L56.0895 3.99345L57.4687 2.11805ZM54.9186 5.58531L56.9672 7.09174L41.1011 28.6669L38.1985 28.3233L54.9186 5.58531ZM42.3478 33.9044L36.9815 35.9366L37.3219 30.2086L40.8837 30.6301L42.3478 33.9044ZM1.97523 17.9363C1.97523 16.5773 3.08629 15.472 4.45101 15.472H45.1971L35.6023 28.5198C35.5847 28.5438 35.5814 28.5724 35.5663 28.5973C35.5333 28.6516 35.5099 28.7069 35.4878 28.7664C35.4628 28.8336 35.443 28.8987 35.4333 28.9684C35.4294 28.9954 35.414 29.0189 35.4123 29.0464L34.9195 37.3418C34.8992 37.676 35.0506 37.9976 35.3197 38.1958C35.4924 38.3222 35.6978 38.3878 35.9051 38.3878C36.0228 38.3878 36.1414 38.3665 36.2552 38.3236L44.0269 35.3806C44.0436 35.3742 44.055 35.3596 44.0712 35.3524C44.1192 35.3314 44.1577 35.2979 44.2022 35.2692C44.2821 35.2173 44.3543 35.1617 44.416 35.0895C44.4326 35.0702 44.4572 35.0628 44.4725 35.042L53.1016 23.3074V47.2527C53.1016 48.6174 51.9915 49.7275 50.6268 49.7275H22.1287C21.9551 49.7275 21.7844 49.7733 21.6349 49.8601L8.75735 57.3009V50.7151C8.75735 50.1697 8.31563 49.7275 7.76974 49.7275H4.45101C3.08629 49.7275 1.97523 48.6174 1.97523 47.2527V17.9363Z" fill="#09AEEB"/>
<path d="M10.2532 24.1847H34.9137C35.4596 24.1847 35.9013 23.7425 35.9013 23.1971C35.9013 22.6517 35.4596 22.2095 34.9137 22.2095H10.2532C9.70735 22.2095 9.26562 22.6517 9.26562 23.1971C9.26562 23.7425 9.70735 24.1847 10.2532 24.1847Z" fill="#09AEEB"/>
<path d="M10.2532 33.587H29.8435C30.3894 33.587 30.8311 33.1448 30.8311 32.5994C30.8311 32.054 30.3894 31.6118 29.8435 31.6118H10.2532C9.70735 31.6118 9.26562 32.054 9.26562 32.5994C9.26562 33.1448 9.70735 33.587 10.2532 33.587Z" fill="#09AEEB"/>
<path d="M10.2532 42.9904H44.8245C45.3704 42.9904 45.8121 42.5482 45.8121 42.0027C45.8121 41.4573 45.3704 41.0151 44.8245 41.0151H10.2532C9.70735 41.0151 9.26562 41.4573 9.26562 42.0027C9.26562 42.5482 9.70735 42.9904 10.2532 42.9904Z" fill="#09AEEB"/>
</svg>
