<svg width="64" height="64" viewBox="0 0 64 64" fill="none" xmlns="http://www.w3.org/2000/svg">
<path d="M40.2986 32.4427C40.2713 32.4079 40.2418 32.3752 40.21 32.3445C38.9982 31.1472 37.5591 30.2042 35.9775 29.5712C36.527 29.1562 37.0141 28.6644 37.4239 28.1109C38.4136 26.7656 38.943 25.1368 38.9332 23.4667C38.9354 23.043 38.8997 22.62 38.8266 22.2027C38.6208 20.5223 37.8184 18.9717 36.5654 17.8332C35.3124 16.6948 33.6923 16.0442 31.9999 16C30.3118 16.0433 28.6952 16.6905 27.4436 17.8241C26.192 18.9577 25.3883 20.5025 25.1786 22.1781C25.1031 22.6035 25.0657 23.0347 25.0666 23.4667C25.0556 24.643 25.3165 25.806 25.829 26.8649C26.3415 27.9238 27.0918 28.85 28.0212 29.5712C26.4401 30.2046 25.0015 31.1475 23.7898 32.3445C23.7588 32.3745 23.7299 32.4065 23.7034 32.4405C21.0554 35.2037 19.2939 38.6954 18.6452 42.4672C18.3631 43.9391 18.222 45.4346 18.2239 46.9333C18.2239 47.2162 18.3363 47.4875 18.5363 47.6876C18.7364 47.8876 19.0077 48 19.2906 48H44.7092C44.9921 48 45.2634 47.8876 45.4635 47.6876C45.6635 47.4875 45.7759 47.2162 45.7759 46.9333C45.7779 45.4346 45.6372 43.9392 45.3556 42.4672C44.7065 38.6964 42.9455 35.2056 40.2986 32.4427ZM27.1999 23.4667C27.199 23.1533 27.2269 22.8405 27.2831 22.5323C27.4128 21.3559 27.9602 20.2651 28.8256 19.458C29.6911 18.6508 30.8174 18.1808 31.9999 18.1333C33.1863 18.1826 34.3156 18.6563 35.1821 19.4681C36.0486 20.28 36.5947 21.3761 36.721 22.5568C36.7747 22.8571 36.8011 23.1616 36.7999 23.4667C36.8086 24.681 36.4252 25.8658 35.7066 26.8448C35.2876 27.4408 34.7331 27.9289 34.0887 28.2688C33.4443 28.6087 32.7284 28.7908 31.9999 28.8C30.658 28.7242 29.4005 28.121 28.5013 27.122C27.6022 26.123 27.1344 24.8091 27.1999 23.4667ZM20.3828 45.8667C20.4302 44.8592 20.5496 43.8565 20.7402 42.8661C21.3129 39.4827 22.8954 36.3515 25.2799 33.8837C25.3079 33.8565 25.3342 33.8276 25.3588 33.7973C27.1133 32.0117 29.4971 30.9837 31.9999 30.9333C34.5025 30.9829 36.8862 32.0102 38.641 33.7952C38.666 33.8265 38.6931 33.8561 38.722 33.8837C41.1063 36.3528 42.6884 39.485 43.2607 42.8693C43.4505 43.8587 43.5695 44.8603 43.617 45.8667H20.3828Z" fill="#FF6D2A"/>
<path d="M53.8453 11.6629L55.3813 10.1269L53.8731 8.61865L52.3371 10.1547C47.0887 5.25175 40.2444 2.41225 33.0667 2.15999V-1.52588e-05H30.9333V2.15999C23.7556 2.41225 16.9113 5.25175 11.6629 10.1547L10.1269 8.61865L8.61867 10.1269L10.1547 11.6629C5.25127 16.9109 2.41169 23.7555 2.16 30.9333H0V33.0667H2.16C2.41169 40.2445 5.25127 47.0891 10.1547 52.3371L8.61867 53.8731L10.1269 55.3813L11.6629 53.8453C16.9113 58.7482 23.7556 61.5877 30.9333 61.84V64H33.0667V61.84C40.2451 61.5863 47.0895 58.7448 52.3371 53.84L53.8731 55.376L55.3813 53.8677L53.8453 52.3317C58.7475 47.0851 61.587 40.2426 61.84 33.0667H64V30.9333H61.84C61.5883 23.7555 58.7487 16.9109 53.8453 11.6629ZM52.3371 50.8288L50.8565 49.3483L49.3483 50.8565L50.8288 52.3381C45.9815 56.8421 39.6787 59.4568 33.0667 59.7067V57.6H30.9333V59.7067C24.3213 59.4568 18.0185 56.8421 13.1712 52.3381L14.6517 50.8565L13.1435 49.3483L11.6629 50.8288C7.15854 45.9817 4.54347 39.6789 4.29333 33.0667H6.4V30.9333H4.29333C4.54347 24.3211 7.15854 18.0183 11.6629 13.1712L13.1435 14.6517L14.6517 13.1435L13.1712 11.6619C18.0185 7.15785 24.3213 4.54316 30.9333 4.29332V6.39999H33.0667V4.29332C39.6787 4.54316 45.9815 7.15785 50.8288 11.6619L49.3483 13.1435L50.8565 14.6517L52.3371 13.1712C56.8415 18.0183 59.4565 24.3211 59.7067 30.9333H57.6V33.0667H59.7067C59.4565 39.6789 56.8415 45.9817 52.3371 50.8288Z" fill="white" fill-opacity="0.5"/>
<path d="M2.13333 2.13332H9.6V-1.52588e-05H1.06667C0.783769 -1.52588e-05 0.512458 0.112365 0.312419 0.312404C0.112381 0.512443 0 0.783754 0 1.06665V9.59999H2.13333V2.13332Z" fill="white"/>
<path d="M62.9332 -1.52588e-05H54.3999V2.13332H61.8666V9.59999H63.9999V1.06665C63.9999 0.783754 63.8875 0.512443 63.6875 0.312404C63.4874 0.112365 63.2161 -1.52588e-05 62.9332 -1.52588e-05Z" fill="white"/>
<path d="M2.13333 54.4H0V62.9333C0 63.2162 0.112381 63.4876 0.312419 63.6876C0.512458 63.8876 0.783769 64 1.06667 64H9.6V61.8667H2.13333V54.4Z" fill="white"/>
<path d="M61.8666 61.8667H54.3999V64H62.9332C63.2161 64 63.4874 63.8876 63.6875 63.6876C63.8875 63.4876 63.9999 63.2162 63.9999 62.9333V54.4H61.8666V61.8667Z" fill="white"/>
</svg>
