<svg width="64" height="53" viewBox="0 0 64 53" fill="none" xmlns="http://www.w3.org/2000/svg">
<path d="M25.4398 30.4462H54.6862L63.9999 6.86861H17.1079L17.6872 8.51618L25.4398 30.4462ZM60.3737 9.33621L53.0085 27.9824H27.1814L20.5911 9.33621H60.3737Z" fill="#FF6D2A"/>
<path d="M14.5197 33.5609V33.29C14.5235 31.823 15.6971 30.6419 17.1754 30.6381H20.1207L8.85854 -1.52588e-05H0V2.46759H7.13949L16.6036 28.2081C14.0382 28.494 12.0596 30.6569 12.0559 33.29V33.5684C12.0596 36.3933 14.3429 38.6729 17.1679 38.6841H60.697V36.2165H17.1679C15.6971 36.209 14.5235 35.0316 14.5197 33.5609Z" fill="white"/>
<path d="M21.1811 40.4935C17.8634 40.4935 15.1738 43.1831 15.1738 46.497C15.1738 49.8185 17.8634 52.5043 21.1811 52.5043C24.4988 52.4968 27.1808 49.8185 27.1883 46.497C27.1883 43.1831 24.5026 40.4935 21.1811 40.4935ZM21.1811 50.0367C19.2288 50.0329 17.6452 48.4531 17.6452 46.497C17.6452 44.5448 19.2326 42.9611 21.1811 42.9574C23.1409 42.9611 24.717 44.541 24.717 46.497C24.717 48.4568 23.1409 50.0367 21.1811 50.0367Z" fill="#85A5D2"/>
<path d="M52.2032 40.4935C48.8855 40.4935 46.1997 43.1831 46.1997 46.5008C46.1997 49.8148 48.8892 52.5043 52.2032 52.5043C55.5247 52.4968 58.2142 49.8185 58.2142 46.5008C58.2142 43.1793 55.5247 40.4935 52.2032 40.4935ZM52.2032 50.0367C50.2472 50.0329 48.6711 48.4568 48.6673 46.497C48.6711 44.541 50.2509 42.9611 52.2032 42.9574C54.163 42.9611 55.7429 44.5448 55.7466 46.497C55.7466 48.4568 54.1668 50.0367 52.2032 50.0367Z" fill="#85A5D2"/>
</svg>
