<svg width="61" height="62" viewBox="0 0 61 62" fill="none" xmlns="http://www.w3.org/2000/svg">
<path d="M52.6258 33.5786C52.4484 33.5786 52.2783 33.6491 52.1529 33.7745C52.0274 33.8999 51.957 34.07 51.957 34.2474V54.158C51.9774 54.8629 51.8583 55.5649 51.6066 56.2237C51.3548 56.8824 50.9753 57.4848 50.4898 57.9964C50.0044 58.5079 49.4226 58.9184 48.778 59.2043C48.1333 59.4903 47.4385 59.6459 46.7335 59.6624H45.6166L45.3691 59.5888C45.2822 59.5888 45.2019 59.542 45.1217 59.5085L44.8475 59.4015L44.6134 59.3012L44.3525 59.1608L44.1251 59.0404L43.8777 58.8732L43.6637 58.7327L43.4229 58.5388C43.3553 58.4889 43.2905 58.4353 43.2289 58.3782C43.1487 58.3114 43.0751 58.2378 43.0015 58.1642C42.928 58.0907 42.8745 58.0505 42.8143 57.9836C42.7541 57.9168 42.6738 57.8298 42.6069 57.7496C42.5401 57.6693 42.4665 57.6559 42.4665 57.5556C42.4665 57.4553 42.3394 57.3817 42.2725 57.2948C42.2175 57.2285 42.1662 57.1593 42.1187 57.0874C42.0518 57.0005 41.9983 56.9002 41.9381 56.8065L41.7977 56.5925L41.6037 56.3183L41.4833 56.0842L41.3429 55.7766L41.2359 55.5358C41.1957 55.4288 41.1623 55.3151 41.1222 55.2014L41.0352 54.9606C40.9951 54.8469 40.9683 54.7265 40.9349 54.6128C40.9015 54.4991 40.8881 54.4523 40.8747 54.3654C40.8431 54.242 40.8185 54.117 40.8011 53.9908C40.8011 53.9173 40.7677 53.837 40.7543 53.7567C40.7409 53.6765 40.7142 53.4625 40.7008 53.322V53.1347C40.7008 52.9207 40.7008 52.7067 40.7008 52.4994V51.5563C40.7008 51.379 40.6304 51.2088 40.5049 51.0834C40.3795 50.958 40.2094 50.8875 40.032 50.8875H11.0322V2.33161H40.6941V13.4607C40.6941 13.6381 40.7646 13.8082 40.89 13.9336C41.0154 14.059 41.1856 14.1295 41.3629 14.1295H51.957V15.6678C51.957 15.8452 52.0274 16.0153 52.1529 16.1407C52.2783 16.2661 52.4484 16.3366 52.6258 16.3366C52.8032 16.3366 52.9733 16.2661 53.0987 16.1407C53.2241 16.0153 53.2946 15.8452 53.2946 15.6678V13.4607C53.2946 13.4607 53.2946 13.4607 53.2946 13.4206C53.2938 13.3632 53.2824 13.3066 53.2612 13.2534C53.264 13.2334 53.264 13.2131 53.2612 13.1932C53.2356 13.1205 53.1945 13.0543 53.1408 12.9992L53.0672 12.9256L41.8445 1.20132C41.7787 1.13397 41.6994 1.08129 41.6118 1.04671C41.5242 1.01214 41.4303 0.996448 41.3362 1.00067H10.3634C10.186 1.00067 10.0159 1.07114 9.89048 1.19656C9.76505 1.32199 9.69459 1.49211 9.69459 1.66949V50.8942H1.66881C1.49143 50.8942 1.32132 50.9647 1.19589 51.0901C1.07046 51.2155 1 51.3856 1 51.563C1 56.7597 4.70523 61 9.26655 61H46.7201C47.6008 60.9835 48.4695 60.7932 49.2764 60.4401C50.0833 60.0869 50.8125 59.5779 51.4222 58.9421C52.0318 58.3064 52.5098 57.5565 52.8289 56.7355C53.1479 55.9145 53.3016 55.0386 53.2812 54.158V34.2474C53.2812 34.0723 53.2126 33.9042 53.0901 33.7792C52.9675 33.6541 52.8008 33.5821 52.6258 33.5786ZM42.0318 3.37496L51.0607 12.7919H42.0318V3.37496ZM9.26655 59.6624C5.63488 59.6624 2.65197 56.3852 2.33763 52.2252H39.3164V52.4793C39.3175 52.7988 39.3354 53.1181 39.3699 53.4357C39.3699 53.516 39.3699 53.6029 39.4033 53.6899C39.4033 53.9574 39.4836 54.2182 39.5371 54.4791C39.5371 54.5259 39.5371 54.5794 39.5705 54.6329C39.6379 54.9319 39.7228 55.2267 39.8247 55.5157L39.9049 55.7297C39.9919 55.9705 40.0855 56.1979 40.1858 56.3986C40.1858 56.4588 40.246 56.5256 40.2728 56.5858C40.4065 56.86 40.5537 57.1276 40.7075 57.3817C40.7075 57.4285 40.7677 57.4753 40.8011 57.5222C40.9349 57.7362 41.082 57.9368 41.2292 58.1375L41.3696 58.3181C41.5569 58.5454 41.7509 58.7728 41.9582 58.9869C41.9582 58.9869 41.9582 58.9869 41.9916 58.9869C42.1923 59.1808 42.3929 59.3614 42.6069 59.5353L42.6872 59.6089L9.26655 59.6624Z" fill="#FF6D2A" stroke="#FF6D2A" stroke-width="0.5"/>
<path d="M30.4813 44.3934H42.1922C42.3696 44.3934 42.5397 44.3229 42.6652 44.1975C42.7906 44.072 42.8611 43.9019 42.8611 43.7245C42.8611 43.5472 42.7906 43.377 42.6652 43.2516C42.5397 43.1262 42.3696 43.0557 42.1922 43.0557H30.4813C30.3039 43.0557 30.1338 43.1262 30.0084 43.2516C29.883 43.377 29.8125 43.5472 29.8125 43.7245C29.8125 43.9019 29.883 44.072 30.0084 44.1975C30.1338 44.3229 30.3039 44.3934 30.4813 44.3934Z" fill="#FF6D2A" stroke="#FF6D2A" stroke-width="0.5"/>
<path d="M27.7539 43.778C27.7539 43.9103 27.7931 44.0396 27.8666 44.1496C27.9401 44.2596 28.0446 44.3453 28.1668 44.3959C28.289 44.4465 28.4235 44.4598 28.5532 44.434C28.6829 44.4082 28.8021 44.3445 28.8956 44.2509C28.9892 44.1574 29.0529 44.0382 29.0787 43.9085C29.1045 43.7787 29.0912 43.6443 29.0406 43.5221C28.99 43.3999 28.9043 43.2954 28.7943 43.2219C28.6843 43.1484 28.555 43.1092 28.4227 43.1092C28.2453 43.1092 28.0752 43.1797 27.9498 43.3051C27.8244 43.4305 27.7539 43.6006 27.7539 43.778Z" fill="#FF6D2A" stroke="#FF6D2A" stroke-width="0.5"/>
<path d="M14.3758 9.78892H22.4618C22.6392 9.78892 22.8093 9.71846 22.9347 9.59303C23.0602 9.4676 23.1306 9.29749 23.1306 9.12011C23.1306 8.94273 23.0602 8.77261 22.9347 8.64718C22.8093 8.52176 22.6392 8.45129 22.4618 8.45129H14.3758C14.1985 8.45129 14.0283 8.52176 13.9029 8.64718C13.7775 8.77261 13.707 8.94273 13.707 9.12011C13.707 9.29749 13.7775 9.4676 13.9029 9.59303C14.0283 9.71846 14.1985 9.78892 14.3758 9.78892Z" fill="#FF6D2A" stroke="#FF6D2A" stroke-width="0.5"/>
<path d="M14.3758 12.4642H25.224C25.4014 12.4642 25.5715 12.3937 25.6969 12.2683C25.8224 12.1428 25.8928 11.9727 25.8928 11.7953C25.8928 11.618 25.8224 11.4478 25.6969 11.3224C25.5715 11.197 25.4014 11.1265 25.224 11.1265H14.3758C14.1985 11.1265 14.0283 11.197 13.9029 11.3224C13.7775 11.4478 13.707 11.618 13.707 11.7953C13.707 11.9727 13.7775 12.1428 13.9029 12.2683C14.0283 12.3937 14.1985 12.4642 14.3758 12.4642Z" fill="#FF6D2A" stroke="#FF6D2A" stroke-width="0.5"/>
<path d="M28.1345 11.7953C28.1345 11.6631 28.0953 11.5338 28.0218 11.4238C27.9483 11.3138 27.8438 11.2281 27.7216 11.1774C27.5994 11.1268 27.4649 11.1136 27.3352 11.1394C27.2055 11.1652 27.0863 11.2289 26.9928 11.3224C26.8992 11.416 26.8355 11.5351 26.8097 11.6649C26.7839 11.7946 26.7972 11.9291 26.8478 12.0513C26.8984 12.1735 26.9841 12.2779 27.0941 12.3514C27.2041 12.4249 27.3334 12.4642 27.4657 12.4642C27.6431 12.4642 27.8132 12.3937 27.9386 12.2683C28.064 12.1428 28.1345 11.9727 28.1345 11.7953Z" fill="#FF6D2A" stroke="#FF6D2A" stroke-width="0.5"/>
<path d="M60.5263 18.0755C60.4567 17.5358 60.2288 17.0287 59.8713 16.6183C59.5139 16.208 59.043 15.9126 58.5179 15.7695C57.9928 15.6265 57.4371 15.6421 56.9209 15.8144C56.4047 15.9867 55.9511 16.3081 55.6172 16.7379L54.6408 17.9618L54.3331 18.3631C54.2973 18.2326 54.2226 18.1159 54.1191 18.0287C54.0494 17.9743 53.9697 17.9342 53.8844 17.9107C53.7992 17.8873 53.7102 17.881 53.6225 17.8922C53.5348 17.9034 53.4502 17.9318 53.3735 17.9759C53.2969 18.02 53.2298 18.0789 53.1761 18.1491L49.3438 23.0849C49.2351 23.2244 49.1861 23.4011 49.2074 23.5766C49.2287 23.752 49.3186 23.9119 49.4575 24.0213C49.564 24.1016 49.6921 24.1481 49.8253 24.155L40.2546 36.4746C40.2097 36.541 40.1737 36.6129 40.1476 36.6886C40.1476 36.6886 40.1476 36.7221 40.1476 36.7421C40.1446 36.7598 40.1446 36.7779 40.1476 36.7956L39.6259 40.4674C39.5217 40.4957 39.4259 40.5488 39.3467 40.6222C39.2675 40.6956 39.2073 40.7871 39.1711 40.8888C39.12 40.9428 39.0553 40.982 38.9838 41.0025C38.7497 41.0627 37.8134 41.1362 35.5528 39.2435C34.0547 37.9995 32.8775 37.6116 31.8877 38.0664C30.4297 38.7218 30.4297 40.8553 30.4297 41.0961C30.4297 41.2735 30.5002 41.4436 30.6256 41.569C30.751 41.6945 30.9211 41.7649 31.0985 41.7649C31.2759 41.7649 31.446 41.6945 31.5714 41.569C31.6969 41.4436 31.7673 41.2735 31.7673 41.0961C31.7673 40.6012 31.9412 39.5043 32.4361 39.2702C32.9311 39.0362 33.6734 39.4375 34.67 40.2668C36.3554 41.6713 37.6997 42.3602 38.7497 42.3602C38.9443 42.3615 39.1381 42.3344 39.3249 42.2799C39.67 42.1889 39.9756 41.9867 40.1944 41.7047C40.2818 41.7037 40.3681 41.6855 40.4485 41.6512L44.3343 40.0528C44.4188 40.0101 44.4938 39.951 44.555 39.8789L58.9881 21.346L59.9445 20.1154C60.1717 19.8309 60.3402 19.504 60.4401 19.1539C60.54 18.8037 60.5693 18.4371 60.5263 18.0755ZM41.3046 38.1399L42.7693 39.2769L41.0371 39.9926L41.3046 38.1399ZM43.9799 38.5212L41.746 36.7823L55.3163 19.3262L57.5501 21.0651L43.9799 38.5212ZM58.8877 19.2861L58.3393 19.995L56.1055 18.2561L56.6539 17.5271C56.7676 17.3804 56.9091 17.2576 57.0704 17.1656C57.2316 17.0736 57.4093 17.0143 57.5935 16.991C57.7776 16.9677 57.9645 16.9809 58.1436 17.0299C58.3226 17.0788 58.4903 17.1626 58.6369 17.2763C58.7836 17.39 58.9064 17.5315 58.9984 17.6928C59.0904 17.854 59.1497 18.0317 59.173 18.2159C59.1963 18.4 59.1831 18.5869 59.1342 18.766C59.0852 18.945 59.0015 19.1126 58.8877 19.2593V19.2861Z" fill="#FF6D2A" stroke="#FF6D2A" stroke-width="0.5"/>
<path d="M49.1542 21.0183C49.1542 20.8409 49.0837 20.6708 48.9583 20.5454C48.8329 20.42 48.6628 20.3495 48.4854 20.3495H14.3758C14.1985 20.3495 14.0283 20.42 13.9029 20.5454C13.7775 20.6708 13.707 20.8409 13.707 21.0183C13.707 21.1957 13.7775 21.3658 13.9029 21.4912C14.0283 21.6166 14.1985 21.6871 14.3758 21.6871H48.4854C48.6628 21.6871 48.8329 21.6166 48.9583 21.4912C49.0837 21.3658 49.1542 21.1957 49.1542 21.0183Z" fill="#FF6D2A" stroke="#FF6D2A" stroke-width="0.5"/>
<path d="M41.1284 25.0378H14.3758C14.1985 25.0378 14.0283 25.1083 13.9029 25.2337C13.7775 25.3592 13.707 25.5293 13.707 25.7067C13.707 25.884 13.7775 26.0542 13.9029 26.1796C14.0283 26.305 14.1985 26.3755 14.3758 26.3755H41.1284C41.3058 26.3755 41.4759 26.305 41.6013 26.1796C41.7268 26.0542 41.7972 25.884 41.7972 25.7067C41.7972 25.5293 41.7268 25.3592 41.6013 25.2337C41.4759 25.1083 41.3058 25.0378 41.1284 25.0378Z" fill="#FF6D2A" stroke="#FF6D2A" stroke-width="0.5"/>
<path d="M41.7972 31.0572C41.7972 30.8798 41.7268 30.7097 41.6013 30.5843C41.4759 30.4588 41.3058 30.3884 41.1284 30.3884H14.3758C14.1985 30.3884 14.0283 30.4588 13.9029 30.5843C13.7775 30.7097 13.707 30.8798 13.707 31.0572C13.707 31.2346 13.7775 31.4047 13.9029 31.5301C14.0283 31.6555 14.1985 31.726 14.3758 31.726H41.1284C41.3058 31.726 41.4759 31.6555 41.6013 31.5301C41.7268 31.4047 41.7972 31.2346 41.7972 31.0572Z" fill="#FF6D2A" stroke="#FF6D2A" stroke-width="0.5"/>
</svg>
