<svg width="62" height="62" viewBox="0 0 62 62" fill="none" xmlns="http://www.w3.org/2000/svg">
<path d="M1.75 61H60.25C60.664 61 61 60.6647 61 60.25V55.0315C61 54.6168 60.664 54.2815 60.25 54.2815H57.016V7.7185H58.1223C58.5363 7.7185 58.8723 7.38325 58.8723 6.9685V1.75C58.8723 1.33525 58.5363 1 58.1223 1H3.87775C3.46375 1 3.12775 1.33525 3.12775 1.75V6.9685C3.12775 7.38325 3.46375 7.7185 3.87775 7.7185H4.984V54.2815H1.75C1.336 54.2815 1 54.6168 1 55.0315V60.25C1 60.6647 1.336 61 1.75 61ZM4.62775 2.5H57.3715V6.2185H4.62775V2.5ZM6.484 7.7185H55.5153V54.2815H39.5312V37.477C39.5312 37.0623 39.1953 36.727 38.7812 36.727H23.2188C22.8048 36.727 22.4688 37.0623 22.4688 37.477V54.2815H6.484V7.7185ZM23.9688 54.2815V38.227H30.25V54.2815H23.9688ZM31.75 38.227H38.0312V54.2815H31.75V38.227ZM2.5 55.7815H59.5V59.5H2.5V55.7815Z" fill="#FF6D2A"/>
<path d="M44.8834 45.385H49.6482C50.0622 45.385 50.3982 45.0498 50.3982 44.635V37.3893C50.3982 36.9745 50.0622 36.6393 49.6482 36.6393H44.8834C44.4694 36.6393 44.1334 36.9745 44.1334 37.3893V44.635C44.1334 45.049 44.4687 45.385 44.8834 45.385ZM45.6334 38.1393H48.8982V43.885H45.6334V38.1393Z" fill="#FF6D2A"/>
<path d="M17.0232 36.6393H12.2584C11.8444 36.6393 11.5084 36.9745 11.5084 37.3893V44.635C11.5084 45.0498 11.8444 45.385 12.2584 45.385H17.0232C17.4372 45.385 17.7732 45.0498 17.7732 44.635V37.3893C17.7732 36.9745 17.4372 36.6393 17.0232 36.6393ZM16.2732 43.885H13.0084V38.1393H16.2732V43.885Z" fill="#FF6D2A"/>
<path d="M44.8834 33.4788H49.6482C50.0622 33.4788 50.3982 33.1435 50.3982 32.7288V25.483C50.3982 25.0683 50.0622 24.733 49.6482 24.733H44.8834C44.4694 24.733 44.1334 25.0683 44.1334 25.483V32.7288C44.1334 33.1428 44.4687 33.4788 44.8834 33.4788ZM45.6334 26.233H48.8982V31.9788H45.6334V26.233Z" fill="#FF6D2A"/>
<path d="M34.0165 33.4788H38.7812C39.1952 33.4788 39.5312 33.1435 39.5312 32.7288V25.483C39.5312 25.0683 39.1952 24.733 38.7812 24.733H34.0165C33.6025 24.733 33.2665 25.0683 33.2665 25.483V32.7288C33.2665 33.1428 33.6025 33.4788 34.0165 33.4788ZM34.7665 26.233H38.0312V31.9788H34.7665V26.233Z" fill="#FF6D2A"/>
<path d="M23.2188 33.4788H27.9835C28.3975 33.4788 28.7335 33.1435 28.7335 32.7288V25.483C28.7335 25.0683 28.3975 24.733 27.9835 24.733H23.2188C22.8048 24.733 22.4688 25.0683 22.4688 25.483V32.7288C22.4688 33.1428 22.8048 33.4788 23.2188 33.4788ZM23.9688 26.233H27.2335V31.9788H23.9688V26.233Z" fill="#FF6D2A"/>
<path d="M34.0165 21.5725H38.7812C39.1952 21.5725 39.5312 21.2373 39.5312 20.8225V13.5768C39.5312 13.162 39.1952 12.8268 38.7812 12.8268H34.0165C33.6025 12.8268 33.2665 13.162 33.2665 13.5768V20.8225C33.2665 21.2365 33.6025 21.5725 34.0165 21.5725ZM34.7665 14.3268H38.0312V20.0725H34.7665V14.3268Z" fill="#FF6D2A"/>
<path d="M23.2188 21.5725H27.9835C28.3975 21.5725 28.7335 21.2373 28.7335 20.8225V13.5768C28.7335 13.162 28.3975 12.8268 27.9835 12.8268H23.2188C22.8048 12.8268 22.4688 13.162 22.4688 13.5768V20.8225C22.4688 21.2365 22.8048 21.5725 23.2188 21.5725ZM23.9688 14.3268H27.2335V20.0725H23.9688V14.3268Z" fill="#FF6D2A"/>
<path d="M17.0232 24.733H12.2584C11.8444 24.733 11.5084 25.0683 11.5084 25.483V32.7288C11.5084 33.1435 11.8444 33.4788 12.2584 33.4788H17.0232C17.4372 33.4788 17.7732 33.1435 17.7732 32.7288V25.483C17.7732 25.0683 17.4372 24.733 17.0232 24.733ZM16.2732 31.9788H13.0084V26.233H16.2732V31.9788Z" fill="#FF6D2A"/>
<path d="M44.8834 21.5725H49.6482C50.0622 21.5725 50.3982 21.2373 50.3982 20.8225V13.5768C50.3982 13.162 50.0622 12.8268 49.6482 12.8268H44.8834C44.4694 12.8268 44.1334 13.162 44.1334 13.5768V20.8225C44.1334 21.2365 44.4687 21.5725 44.8834 21.5725ZM45.6334 14.3268H48.8982V20.0725H45.6334V14.3268Z" fill="#FF6D2A"/>
<path d="M17.0232 12.8268H12.2584C11.8444 12.8268 11.5084 13.162 11.5084 13.5768V20.8225C11.5084 21.2373 11.8444 21.5725 12.2584 21.5725H17.0232C17.4372 21.5725 17.7732 21.2373 17.7732 20.8225V13.5768C17.7732 13.162 17.4372 12.8268 17.0232 12.8268ZM16.2732 20.0725H13.0084V14.3268H16.2732V20.0725Z" fill="#FF6D2A"/>
<path d="M1.75 61H60.25C60.664 61 61 60.6647 61 60.25V55.0315C61 54.6168 60.664 54.2815 60.25 54.2815H57.016V7.7185H58.1223C58.5363 7.7185 58.8723 7.38325 58.8723 6.9685V1.75C58.8723 1.33525 58.5363 1 58.1223 1H3.87775C3.46375 1 3.12775 1.33525 3.12775 1.75V6.9685C3.12775 7.38325 3.46375 7.7185 3.87775 7.7185H4.984V54.2815H1.75C1.336 54.2815 1 54.6168 1 55.0315V60.25C1 60.6647 1.336 61 1.75 61ZM4.62775 2.5H57.3715V6.2185H4.62775V2.5ZM6.484 7.7185H55.5153V54.2815H39.5312V37.477C39.5312 37.0623 39.1953 36.727 38.7812 36.727H23.2188C22.8048 36.727 22.4688 37.0623 22.4688 37.477V54.2815H6.484V7.7185ZM23.9688 54.2815V38.227H30.25V54.2815H23.9688ZM31.75 38.227H38.0312V54.2815H31.75V38.227ZM2.5 55.7815H59.5V59.5H2.5V55.7815Z" stroke="#FF6D2A" stroke-width="0.3"/>
<path d="M44.8834 45.385H49.6482C50.0622 45.385 50.3982 45.0498 50.3982 44.635V37.3893C50.3982 36.9745 50.0622 36.6393 49.6482 36.6393H44.8834C44.4694 36.6393 44.1334 36.9745 44.1334 37.3893V44.635C44.1334 45.049 44.4687 45.385 44.8834 45.385ZM45.6334 38.1393H48.8982V43.885H45.6334V38.1393Z" stroke="#FF6D2A" stroke-width="0.3"/>
<path d="M17.0232 36.6393H12.2584C11.8444 36.6393 11.5084 36.9745 11.5084 37.3893V44.635C11.5084 45.0498 11.8444 45.385 12.2584 45.385H17.0232C17.4372 45.385 17.7732 45.0498 17.7732 44.635V37.3893C17.7732 36.9745 17.4372 36.6393 17.0232 36.6393ZM16.2732 43.885H13.0084V38.1393H16.2732V43.885Z" stroke="#FF6D2A" stroke-width="0.3"/>
<path d="M44.8834 33.4788H49.6482C50.0622 33.4788 50.3982 33.1435 50.3982 32.7288V25.483C50.3982 25.0683 50.0622 24.733 49.6482 24.733H44.8834C44.4694 24.733 44.1334 25.0683 44.1334 25.483V32.7288C44.1334 33.1428 44.4687 33.4788 44.8834 33.4788ZM45.6334 26.233H48.8982V31.9788H45.6334V26.233Z" stroke="#FF6D2A" stroke-width="0.3"/>
<path d="M34.0165 33.4788H38.7812C39.1952 33.4788 39.5312 33.1435 39.5312 32.7288V25.483C39.5312 25.0683 39.1952 24.733 38.7812 24.733H34.0165C33.6025 24.733 33.2665 25.0683 33.2665 25.483V32.7288C33.2665 33.1428 33.6025 33.4788 34.0165 33.4788ZM34.7665 26.233H38.0312V31.9788H34.7665V26.233Z" stroke="#FF6D2A" stroke-width="0.3"/>
<path d="M23.2188 33.4788H27.9835C28.3975 33.4788 28.7335 33.1435 28.7335 32.7288V25.483C28.7335 25.0683 28.3975 24.733 27.9835 24.733H23.2188C22.8048 24.733 22.4688 25.0683 22.4688 25.483V32.7288C22.4688 33.1428 22.8048 33.4788 23.2188 33.4788ZM23.9688 26.233H27.2335V31.9788H23.9688V26.233Z" stroke="#FF6D2A" stroke-width="0.3"/>
<path d="M34.0165 21.5725H38.7812C39.1952 21.5725 39.5312 21.2373 39.5312 20.8225V13.5768C39.5312 13.162 39.1952 12.8268 38.7812 12.8268H34.0165C33.6025 12.8268 33.2665 13.162 33.2665 13.5768V20.8225C33.2665 21.2365 33.6025 21.5725 34.0165 21.5725ZM34.7665 14.3268H38.0312V20.0725H34.7665V14.3268Z" stroke="#FF6D2A" stroke-width="0.3"/>
<path d="M23.2188 21.5725H27.9835C28.3975 21.5725 28.7335 21.2373 28.7335 20.8225V13.5768C28.7335 13.162 28.3975 12.8268 27.9835 12.8268H23.2188C22.8048 12.8268 22.4688 13.162 22.4688 13.5768V20.8225C22.4688 21.2365 22.8048 21.5725 23.2188 21.5725ZM23.9688 14.3268H27.2335V20.0725H23.9688V14.3268Z" stroke="#FF6D2A" stroke-width="0.3"/>
<path d="M17.0232 24.733H12.2584C11.8444 24.733 11.5084 25.0683 11.5084 25.483V32.7288C11.5084 33.1435 11.8444 33.4788 12.2584 33.4788H17.0232C17.4372 33.4788 17.7732 33.1435 17.7732 32.7288V25.483C17.7732 25.0683 17.4372 24.733 17.0232 24.733ZM16.2732 31.9788H13.0084V26.233H16.2732V31.9788Z" stroke="#FF6D2A" stroke-width="0.3"/>
<path d="M44.8834 21.5725H49.6482C50.0622 21.5725 50.3982 21.2373 50.3982 20.8225V13.5768C50.3982 13.162 50.0622 12.8268 49.6482 12.8268H44.8834C44.4694 12.8268 44.1334 13.162 44.1334 13.5768V20.8225C44.1334 21.2365 44.4687 21.5725 44.8834 21.5725ZM45.6334 14.3268H48.8982V20.0725H45.6334V14.3268Z" stroke="#FF6D2A" stroke-width="0.3"/>
<path d="M17.0232 12.8268H12.2584C11.8444 12.8268 11.5084 13.162 11.5084 13.5768V20.8225C11.5084 21.2373 11.8444 21.5725 12.2584 21.5725H17.0232C17.4372 21.5725 17.7732 21.2373 17.7732 20.8225V13.5768C17.7732 13.162 17.4372 12.8268 17.0232 12.8268ZM16.2732 20.0725H13.0084V14.3268H16.2732V20.0725Z" stroke="#FF6D2A" stroke-width="0.3"/>
</svg>
