<svg width="58" height="62" viewBox="0 0 58 62" fill="none" xmlns="http://www.w3.org/2000/svg">
<path d="M43.8203 29.8182C41.5174 29.8182 39.6441 27.9563 39.6441 25.6682C39.6441 23.3801 41.5174 21.5188 43.8203 21.5188C46.1233 21.5188 47.9971 23.3801 47.9971 25.6682C47.9971 27.9563 46.1233 29.8182 43.8203 29.8182ZM43.8203 22.7433C42.1974 22.7433 40.8765 24.0557 40.8765 25.6682C40.8765 27.2813 42.1974 28.5937 43.8203 28.5937C45.4439 28.5937 46.7647 27.2813 46.7647 25.6682C46.7647 24.0557 45.4439 22.7433 43.8203 22.7433Z" fill="#FF6D2A"/>
<path d="M28.9996 29.8182C26.6967 29.8182 24.8234 27.9563 24.8234 25.6682C24.8234 23.3801 26.6967 21.5188 28.9996 21.5188C31.3025 21.5188 33.1764 23.3801 33.1764 25.6682C33.1764 27.9563 31.3025 29.8182 28.9996 29.8182ZM28.9996 22.7433C27.3766 22.7433 26.0558 24.0557 26.0558 25.6682C26.0558 27.2813 27.3766 28.5937 28.9996 28.5937C30.6231 28.5937 31.944 27.2813 31.944 25.6682C31.944 24.0557 30.6231 22.7433 28.9996 22.7433Z" fill="#FF6D2A"/>
<path d="M14.1788 29.8182C11.8759 29.8182 10.0026 27.9563 10.0026 25.6682C10.0026 23.3801 11.8759 21.5188 14.1788 21.5188C16.4818 21.5188 18.3557 23.3801 18.3557 25.6682C18.3557 27.9563 16.4818 29.8182 14.1788 29.8182ZM14.1788 22.7433C12.5559 22.7433 11.235 24.0557 11.235 25.6682C11.235 27.2813 12.5559 28.5937 14.1788 28.5937C15.8024 28.5937 17.1233 27.2813 17.1233 25.6682C17.1233 24.0557 15.8024 22.7433 14.1788 22.7433Z" fill="#FF6D2A"/>
<path d="M17.6299 61C17.3634 61 17.1215 60.8272 17.0414 60.5671C16.9524 60.2789 17.0878 59.9698 17.3603 59.8377C21.1617 57.9956 23.0632 52.1243 23.594 50.2045C10.0917 47.6999 0.477981 36.829 1.02197 24.6285C1.63155 10.9373 14.6843 0.346275 30.1152 1.03146C45.5378 1.71066 57.588 13.4006 56.9778 27.0912C56.5012 37.7839 48.4659 46.8718 36.9458 49.7877C32.8936 58.7465 18.3412 60.9055 17.7178 60.994C17.6883 60.9982 17.6588 61 17.6299 61ZM28.7113 2.22485C14.5543 2.22485 2.81522 12.0656 2.25317 24.6823C1.72663 36.49 11.2687 46.9956 24.4497 49.1193C24.6362 49.1193 24.7656 49.1994 24.8823 49.3447C24.9991 49.4894 24.9961 49.6747 24.9558 49.8559C24.8908 50.1471 23.5771 55.8791 20.2356 59.2338C24.6717 58.1618 33.2907 55.32 35.9343 49.0278C36.0209 48.8209 36.2087 48.6864 36.4169 48.6571C47.5254 45.9361 55.2911 37.2541 55.7466 27.0374C56.3267 14.0213 44.8042 2.90406 30.0611 2.25475C29.6086 2.23502 29.1591 2.22485 28.7113 2.22485Z" fill="#FF6D2A"/>
<path d="M43.8203 29.8182C41.5174 29.8182 39.6441 27.9563 39.6441 25.6682C39.6441 23.3801 41.5174 21.5188 43.8203 21.5188C46.1233 21.5188 47.9971 23.3801 47.9971 25.6682C47.9971 27.9563 46.1233 29.8182 43.8203 29.8182ZM43.8203 22.7433C42.1974 22.7433 40.8765 24.0557 40.8765 25.6682C40.8765 27.2813 42.1974 28.5937 43.8203 28.5937C45.4439 28.5937 46.7647 27.2813 46.7647 25.6682C46.7647 24.0557 45.4439 22.7433 43.8203 22.7433Z" stroke="#FF6D2A"/>
<path d="M28.9996 29.8182C26.6967 29.8182 24.8234 27.9563 24.8234 25.6682C24.8234 23.3801 26.6967 21.5188 28.9996 21.5188C31.3025 21.5188 33.1764 23.3801 33.1764 25.6682C33.1764 27.9563 31.3025 29.8182 28.9996 29.8182ZM28.9996 22.7433C27.3766 22.7433 26.0558 24.0557 26.0558 25.6682C26.0558 27.2813 27.3766 28.5937 28.9996 28.5937C30.6231 28.5937 31.944 27.2813 31.944 25.6682C31.944 24.0557 30.6231 22.7433 28.9996 22.7433Z" stroke="#FF6D2A"/>
<path d="M14.1788 29.8182C11.8759 29.8182 10.0026 27.9563 10.0026 25.6682C10.0026 23.3801 11.8759 21.5188 14.1788 21.5188C16.4818 21.5188 18.3557 23.3801 18.3557 25.6682C18.3557 27.9563 16.4818 29.8182 14.1788 29.8182ZM14.1788 22.7433C12.5559 22.7433 11.235 24.0557 11.235 25.6682C11.235 27.2813 12.5559 28.5937 14.1788 28.5937C15.8024 28.5937 17.1233 27.2813 17.1233 25.6682C17.1233 24.0557 15.8024 22.7433 14.1788 22.7433Z" stroke="#FF6D2A"/>
<path d="M17.6299 61C17.3634 61 17.1215 60.8272 17.0414 60.5671C16.9524 60.2789 17.0878 59.9698 17.3603 59.8377C21.1617 57.9956 23.0632 52.1243 23.594 50.2045C10.0917 47.6999 0.477981 36.829 1.02197 24.6285C1.63155 10.9373 14.6843 0.346275 30.1152 1.03146C45.5378 1.71066 57.588 13.4006 56.9778 27.0912C56.5012 37.7839 48.4659 46.8718 36.9458 49.7877C32.8936 58.7465 18.3412 60.9055 17.7178 60.994C17.6883 60.9982 17.6588 61 17.6299 61ZM28.7113 2.22485C14.5543 2.22485 2.81522 12.0656 2.25317 24.6823C1.72663 36.49 11.2687 46.9956 24.4497 49.1193C24.6362 49.1193 24.7656 49.1994 24.8823 49.3447C24.9991 49.4894 24.9961 49.6747 24.9558 49.8559C24.8908 50.1471 23.5771 55.8791 20.2356 59.2338C24.6717 58.1618 33.2907 55.32 35.9343 49.0278C36.0209 48.8209 36.2087 48.6864 36.4169 48.6571C47.5254 45.9361 55.2911 37.2541 55.7466 27.0374C56.3267 14.0213 44.8042 2.90406 30.0611 2.25475C29.6086 2.23502 29.1591 2.22485 28.7113 2.22485Z" stroke="#FF6D2A"/>
</svg>
