<svg width="59" height="62" viewBox="0 0 59 62" fill="none" xmlns="http://www.w3.org/2000/svg">
<path d="M51.8961 13.7764C51.5943 13.6011 51.2743 13.4466 50.9682 13.2976C48.8266 12.2533 46.6322 11.7947 44.7032 11.9205C42.4986 12.0643 40.6328 12.9812 39.6792 14.6684L37.5917 18.3415C37.0971 19.2169 36.9183 20.2155 36.9925 21.2373L25.851 40.936C24.9438 41.3934 24.1987 42.056 23.7035 42.9322L20.7693 48.1158C19.816 49.803 19.9911 51.8949 20.9937 53.8729C21.9965 55.851 23.8162 57.7361 26.2392 59.1231C28.6624 60.5098 31.2271 61.1242 33.432 60.9793C35.6368 60.8343 37.5023 59.9186 38.456 58.2313L41.4201 53.065C41.9119 52.1944 42.0718 51.2139 42.002 50.1993L53.1607 30.4708C54.0704 30.0127 54.7901 29.3555 55.2844 28.4808L57.3806 24.7927C58.334 23.1053 58.1365 21.0223 57.1325 19.0418C56.1285 17.0614 54.3191 15.1633 51.8961 13.7764ZM32.7404 2.86751C32.4387 2.6922 32.1101 2.55257 31.804 2.40358C29.6624 1.3593 27.4917 0.894387 25.5625 1.02007C23.358 1.16393 21.4771 2.072 20.5235 3.75926L18.4509 7.44102C17.9563 8.31643 17.7626 9.30627 17.8367 10.3281L6.71015 30.0356C5.80299 30.493 5.04279 31.1469 4.54767 32.0231L1.62882 37.2156C0.675554 38.9028 0.850717 40.9947 1.8533 42.9727C2.85605 44.9508 4.66715 46.851 7.09012 48.238C9.51332 49.6247 12.0717 50.2154 14.2766 50.0704C16.4815 49.9254 18.3619 49.0185 19.3156 47.3312L22.2648 42.1563C22.7566 41.2856 22.9316 40.3139 22.8617 39.2992L33.9968 19.5769C34.9065 19.1189 35.6499 18.4554 36.1442 17.5807L38.2168 13.8989C39.1702 12.2115 38.9814 10.1134 37.9774 8.13294C36.9734 6.15263 35.1635 4.2545 32.7404 2.86751ZM51.5687 14.3471C53.8887 15.6751 55.6237 17.5073 56.5566 19.3475C57.4895 21.1877 57.6224 23.0227 56.8012 24.4757L54.6987 28.1401C54.2786 28.8835 53.6522 29.4695 52.8611 29.8758C52.8582 29.8807 52.8553 29.8857 52.8526 29.8907C52.8445 29.8937 52.8358 29.8932 52.8291 29.897C52.8131 29.9001 52.7973 29.9045 52.7819 29.9099C52.7738 29.9129 52.7656 29.9126 52.7585 29.9162C52.6139 29.9863 52.4591 30.0542 52.3047 30.1131C52.0983 30.1918 51.8867 30.2631 51.664 30.3216C51.2637 30.4273 50.8381 30.5053 50.3936 30.5446C50.3314 30.5502 50.2694 30.552 50.2066 30.5561C50.0334 30.5674 49.8564 30.5681 49.6779 30.5693C49.665 30.5695 49.6517 30.5669 49.6395 30.5669C49.567 30.5671 49.4872 30.5774 49.4139 30.576C49.3099 30.5738 49.21 30.5616 49.1044 30.5564C49.0896 30.5554 49.0722 30.569 49.057 30.5686C48.6676 30.5474 48.2831 30.4912 47.8774 30.4239C47.8404 30.4178 47.7981 30.4233 47.7613 30.4167C47.6065 30.3895 47.4579 30.3436 47.3015 30.3097C47.1724 30.2815 47.0405 30.2555 46.9105 30.2227C46.8813 30.2154 46.8556 30.2017 46.8268 30.1939C46.5655 30.1261 46.3107 30.0675 46.0469 29.9811C45.8105 29.904 45.569 29.8182 45.3316 29.7257C45.272 29.7026 45.2083 29.6842 45.1491 29.6595C45.1013 29.64 45.0627 29.5996 45.0139 29.5809C44.8323 29.5049 44.6495 29.4288 44.4683 29.344C44.4055 29.3146 44.342 29.2847 44.2793 29.2541C43.9866 29.1116 43.6952 28.9525 43.4052 28.7866C42.8022 28.4426 42.2414 28.0713 41.7217 27.6683C41.5107 27.504 41.287 27.3334 41.0906 27.1614C40.9222 27.0143 40.7607 26.8703 40.6033 26.7181C40.5769 26.6926 40.5566 26.6615 40.5303 26.636C40.4243 26.5321 40.3152 26.4183 40.2148 26.3125C40.1461 26.2399 40.0834 26.1709 40.0173 26.0977C39.9152 25.9845 39.8302 25.8676 39.7341 25.7529C39.4668 25.4331 39.2085 25.109 38.9896 24.7797C38.9848 24.7769 38.9758 24.7781 38.9747 24.7711C38.9712 24.7626 38.9726 24.7545 38.9683 24.7475C38.8949 24.6361 38.8064 24.5259 38.7388 24.4139C38.6661 24.2935 38.6075 24.1798 38.5415 24.059C38.498 23.9792 38.4492 23.8815 38.4086 23.8016C38.401 23.7869 38.4038 23.7686 38.3962 23.754C38.302 23.5659 38.21 23.3883 38.1326 23.2003C38.0701 23.0485 38.0231 22.8975 37.972 22.7467C37.9148 22.5788 37.8652 22.4054 37.8222 22.2391C37.7811 22.0781 37.745 21.9168 37.7176 21.7578C37.689 21.5938 37.674 21.4248 37.6602 21.2639C37.6608 21.243 37.6595 21.2221 37.6563 21.2014C37.5915 20.2951 37.7536 19.4362 38.1797 18.6821L40.2672 15.009C41.0886 13.5562 42.7115 12.7269 44.76 12.5932C46.5523 12.4762 48.6381 12.8977 50.6876 13.8944C50.9803 14.037 51.2803 14.1811 51.5703 14.3471L51.5687 14.3471ZM32.4044 3.45319C34.7244 4.78124 36.4681 6.59838 37.4009 8.43862C38.3338 10.2788 38.4581 12.1288 37.6369 13.5818L35.558 17.2399C35.1379 17.9833 34.5115 18.5692 33.7203 18.9756C33.7124 18.9774 33.7046 18.9795 33.6969 18.9818C33.6888 18.9848 33.6801 18.9842 33.6734 18.988C33.6575 18.991 33.6418 18.9952 33.6265 19.0005C33.6184 19.0035 33.6102 19.0032 33.6031 19.0067C33.4585 19.0768 33.3037 19.1447 33.1493 19.2037C32.9429 19.2823 32.7378 19.3774 32.515 19.4358C32.1147 19.5416 31.6827 19.5958 31.2382 19.6352C31.176 19.6407 31.129 19.6513 31.0662 19.6554C30.893 19.6667 30.6924 19.6737 30.5139 19.6749C30.5009 19.6751 30.4877 19.6725 30.4755 19.6725C30.4029 19.6726 30.3469 19.6767 30.2735 19.6752C30.1695 19.6731 30.0546 19.6522 29.949 19.6469C29.9342 19.646 29.9165 19.66 29.9014 19.6596C29.5119 19.6384 29.1339 19.6059 28.7282 19.5386C28.6912 19.5326 28.6577 19.5227 28.6208 19.516C28.4661 19.4889 28.3024 19.4343 28.146 19.4004C28.0169 19.3721 27.885 19.3462 27.755 19.3134C27.7259 19.306 27.6913 19.3077 27.6628 19.2995C27.4015 19.2317 27.1553 19.1581 26.8915 19.0717C26.6551 18.9945 26.4136 18.9087 26.1762 18.8163C26.1166 18.7931 26.0529 18.7748 25.9935 18.7505C25.9456 18.731 25.907 18.6907 25.8582 18.6719C25.6766 18.5959 25.5092 18.5281 25.3277 18.4438C25.2648 18.4143 25.1929 18.3994 25.1302 18.3687C24.8375 18.2262 24.546 18.0672 24.2559 17.9012C23.653 17.5573 23.0772 17.1772 22.5575 16.7742C22.3464 16.6099 22.1464 16.433 21.95 16.2611C21.7816 16.1139 21.6051 15.9612 21.4477 15.809C21.4213 15.7835 21.401 15.7524 21.3746 15.7269C21.2687 15.6231 21.1746 15.518 21.0742 15.4122C21.0055 15.3396 20.9428 15.2706 20.8768 15.1973C20.7746 15.0841 20.6746 14.9586 20.5785 14.8438C20.3112 14.524 20.0529 14.1999 19.834 13.8706C19.8305 13.8622 19.8166 13.8451 19.8127 13.8384C19.7392 13.727 19.6658 13.6256 19.5982 13.5136C19.5254 13.3931 19.4519 13.2708 19.3859 13.15C19.3423 13.0702 19.3 12.9962 19.2594 12.9163C19.2518 12.9016 19.2546 12.8833 19.2469 12.8687C19.1527 12.6806 19.0693 12.4879 18.9919 12.3C18.9294 12.1482 18.8825 11.9971 18.8313 11.8463C18.7741 11.6784 18.7245 11.5051 18.6816 11.3388C18.6404 11.1778 18.5894 11.0077 18.5619 10.8487C18.5333 10.6848 18.5183 10.5157 18.5045 10.3548C18.5052 10.3339 18.5039 10.313 18.5006 10.2923C18.4358 9.38599 18.6129 8.53578 19.0391 7.78174L21.1112 4.09971C21.9325 2.64699 23.5555 1.81756 25.604 1.68387C27.3963 1.56688 29.4821 1.98839 31.5315 2.98515C31.8243 3.12769 32.1158 3.28677 32.4058 3.4527L32.4044 3.45319ZM50.7478 15.8125C50.5176 15.6788 50.2715 15.5563 50.0392 15.4405C48.4118 14.632 46.7617 14.2423 45.332 14.2476C43.6981 14.2538 42.319 14.8004 41.6547 15.9758C40.9906 17.1512 41.2149 18.6307 42.0448 20.0471C42.8746 21.4635 44.3097 22.8606 46.1573 23.9182C48.0052 24.9757 49.9221 25.519 51.5559 25.5129C53.1898 25.5067 54.5862 24.9299 55.2505 23.7546C55.9147 22.5792 55.6754 21.091 54.8454 19.6746C54.0156 18.2583 52.5955 16.8702 50.7478 15.8125ZM31.5835 4.91864C31.3534 4.78494 31.116 4.64706 30.8834 4.53178C29.256 3.72323 27.621 3.34223 26.1913 3.34756C24.5575 3.35376 23.1783 3.9003 22.5141 5.07577C21.85 6.25117 22.0743 7.73062 22.9041 9.14701C23.7339 10.5634 25.169 11.9605 27.0167 13.0182C28.8645 14.0757 30.7664 14.6102 32.4002 14.6041C34.0341 14.598 35.4369 14.0449 36.1012 12.8696C36.7653 11.6941 36.5197 10.1822 35.6897 8.76589C34.8599 7.34946 33.4312 5.97636 31.5835 4.91864ZM50.4117 16.3982C52.1695 17.4047 53.5354 18.7246 54.2904 20.0133C55.0455 21.3021 55.1765 22.5077 54.6641 23.4143C54.1517 24.3208 53.0261 24.8373 51.5395 24.8428C50.0529 24.8485 48.2424 24.354 46.4846 23.3478C44.7266 22.3417 43.3847 21.0152 42.6296 19.7264C41.8745 18.4376 41.7135 17.2146 42.2258 16.308C42.7382 15.4014 43.8466 14.9149 45.3332 14.9094C46.634 14.9045 48.2022 15.2829 49.7481 16.0527C49.9688 16.163 50.192 16.2724 50.4117 16.3982ZM31.2475 5.50432C33.0052 6.51083 34.3798 7.81568 35.1347 9.10441C35.8898 10.3932 36.0122 11.6138 35.4998 12.5204C34.9874 13.4269 33.8855 13.9372 32.3989 13.9427C30.9123 13.9483 29.0868 13.4451 27.329 12.4388C25.5709 11.4328 24.229 10.1062 23.4739 8.81751C22.7189 7.52872 22.573 6.31443 23.0852 5.40776C23.5976 4.50125 24.706 4.01477 26.1926 4.00923C27.4934 4.00428 29.0465 4.37402 30.5924 5.14381C30.8131 5.25408 31.0277 5.37855 31.2475 5.50432ZM52.1525 30.8658L40.0783 52.225C39.3359 53.539 37.8779 54.291 36.0179 54.4113C34.3904 54.5167 32.4829 54.1435 30.6187 53.2369C30.3525 53.1073 30.0834 52.9631 29.8199 52.8126C28.7666 52.2096 27.8462 51.4994 27.089 50.7254C26.8997 50.5319 26.7174 50.3308 26.5482 50.1309C26.0406 49.5312 25.626 48.897 25.3107 48.2705C24.4701 46.6 24.3503 44.9335 25.0933 43.6188L26.3881 41.3274C26.3979 41.313 26.4066 41.2979 26.414 41.2822L37.1591 22.2746C37.3042 22.8841 37.5171 23.5189 37.8229 24.122C38.3962 25.2529 39.2439 26.3337 40.3116 27.33C40.3844 27.3992 40.4574 27.4705 40.5326 27.5385C40.5778 27.5789 40.6198 27.6161 40.6659 27.6557C40.8333 27.8036 41.0225 27.9443 41.2004 28.0864C41.2618 28.1349 41.3162 28.1819 41.3788 28.2297C41.5606 28.37 41.7385 28.4964 41.9306 28.6304C42.0638 28.7232 42.1878 28.8305 42.3255 28.9201C42.5677 29.0775 42.8215 29.2083 43.0772 29.3568C43.4754 29.5817 43.8826 29.792 44.2841 29.9779C44.8052 30.2166 45.3132 30.4308 45.8328 30.5974C45.9178 30.6257 45.9993 30.657 46.0842 30.6832C46.0975 30.6846 46.1199 30.6668 46.1311 30.6708C47.564 31.1083 48.9704 31.3122 50.261 31.228C50.9276 31.1845 51.5612 31.0495 52.1525 30.8658ZM33.0031 19.9806L20.9375 41.3249C20.1951 42.639 18.7134 43.3972 16.8534 43.5176C15.226 43.6229 13.3271 43.2346 11.4629 42.3281C11.1967 42.1984 10.9276 42.0543 10.6641 41.9037C9.61077 41.3008 8.70536 40.5993 7.94822 39.8253C7.75898 39.6318 7.57668 39.4307 7.40746 39.2307C6.89981 38.6311 6.48514 37.9969 6.16987 37.3703C5.32924 35.6999 5.20092 34.0485 5.9439 32.7337L7.24734 30.4272C7.25715 30.4129 7.26581 30.3978 7.27326 30.382L18.0183 11.3744C18.1634 11.9839 18.3613 12.61 18.667 13.2131C19.2403 14.344 20.0794 15.4398 21.1471 16.4361C21.22 16.5054 21.3166 16.5705 21.3918 16.6385C21.4369 16.6789 21.4789 16.716 21.525 16.7556C21.6924 16.9035 21.8665 17.0355 22.0445 17.1777C22.1059 17.2262 22.1514 17.2885 22.214 17.3364C22.3959 17.4767 22.5737 17.603 22.7658 17.7371C22.8991 17.8299 23.0466 17.931 23.1846 18.0202C23.4268 18.1775 23.6712 18.3246 23.9277 18.4717C24.3259 18.6967 24.7331 18.907 25.1347 19.0929C25.6558 19.3315 26.1637 19.5457 26.6833 19.7123C26.7683 19.7405 26.8584 19.757 26.9433 19.7832C26.9566 19.7846 26.9701 19.7822 26.9821 19.786C28.415 20.2235 29.8149 20.4036 31.1056 20.3193C31.7722 20.2759 32.4119 20.1643 33.0031 19.9806ZM41.2591 51.5294C41.1719 51.952 41.0484 52.3451 40.8341 52.7243L37.8849 57.8992C37.0636 59.3519 35.441 60.1803 33.3922 60.315C31.3435 60.4498 28.8954 59.8652 26.5753 58.5371C24.2552 57.2091 22.5254 55.3982 21.5937 53.5604C20.6621 51.7227 20.5278 49.8853 21.3491 48.4323L24.2833 43.2487C24.509 42.8442 24.8075 42.4924 25.1508 42.1908L24.5132 43.3021C23.6385 44.8501 23.8075 46.7567 24.719 48.5679C25.6304 50.3793 27.2969 52.1271 29.5071 53.3923C31.7173 54.6572 34.0417 55.2058 36.0577 55.0754C38.0736 54.945 39.7892 54.1143 40.6644 52.5656L41.2591 51.5294ZM22.1034 40.6206C22.0163 41.0432 21.8927 41.4362 21.6784 41.8154L18.7446 46.9992C17.9233 48.452 16.3007 49.2804 14.2519 49.4151C12.2032 49.5499 9.74648 48.9802 7.42636 47.6522C5.10636 46.3242 3.37643 44.5132 2.44474 42.6754C1.51321 40.8377 1.38744 38.9854 2.20873 37.5323L5.12757 32.3398C5.35324 31.9353 5.65186 31.5834 5.99509 31.2819L5.37235 32.4019C4.49775 33.9498 4.65163 35.8476 5.56311 37.6589C6.47455 39.4703 8.14108 41.2181 10.3513 42.4832C12.5615 43.7481 14.8772 44.3119 16.8932 44.1815C18.9092 44.051 20.6484 43.2141 21.5236 41.6654L22.1034 40.6206Z" fill="#FF6D2A" stroke="#FF6D2A" stroke-width="1.2"/>
</svg>
