<svg style="display: none;">

  <symbol viewBox="0 0 38 62" xmlns="http://www.w3.org/2000/svg" id="other_1">
    <path d="M33.962 31.584a63.82 63.82 0 0 0-6.095-1.485v-5.4c3.772-2.382 6.24-6.24 6.24-10.599 0-7.223-6.749-13.1-15.044-13.1C10.768 1 4.02 6.877 4.02 14.1c0 4.31 2.413 8.129 6.113 10.518v5.331a54.026 54.026 0 0 0-6.165 1.602C2.22 32.11 1 33.879 1 35.913c0 1.242.875 2.28 2.044 2.55v2.443c0 1.155.946 2.095 2.11 2.095H6.26L5.53 59.25A1.76 1.76 0 0 0 7.293 61H10c.972 0 1.763-.786 1.762-1.718l.413-9.157h13.65l.412 9.124A1.76 1.76 0 0 0 28 61h2.706c.973 0 1.764-.786 1.763-1.785L31.74 43h1.234c1.163 0 2.11-.94 2.11-2.095v-2.482c1.103-.315 1.917-1.315 1.917-2.51 0-2.02-1.25-3.8-3.038-4.328zM5.53 14.1c0-6.396 6.07-11.6 13.533-11.6 7.462 0 13.533 5.204 13.533 11.6s-6.07 11.6-13.533 11.6C11.6 25.7 5.53 20.496 5.53 14.1zm6.114 11.382a16.673 16.673 0 0 0 7.419 1.718c2.646 0 5.13-.603 7.293-1.651v4.274c-5.748-.945-10.558-.8-14.712-.14v-4.201zM10 59.5H7.294c-.14 0-.253-.113-.254-.218L7.773 43h3.21l-.73 16.249A.253.253 0 0 1 10 59.5zm2.242-10.875L12.496 43h13.008l.254 5.625H12.243zM30.96 59.249a.253.253 0 0 1-.253.251H28c-.139 0-.253-.113-.253-.285L27.017 43h3.21l.732 16.249zM32.973 41.5H5.153a.597.597 0 0 1-.599-.595v-2.37h29.018v2.37a.597.597 0 0 1-.599.595zm1.385-4.464H3.642c-.624 0-1.131-.504-1.131-1.184 0-1.33.789-2.512 1.92-2.872 3.888-1.242 8.4-2.33 13.996-2.33 4.318 0 9.282.648 15.104 2.372 1.153.34 1.959 1.53 1.959 2.89a1.13 1.13 0 0 1-1.132 1.124z" stroke-width=".5"></path>
  </symbol>
  <symbol viewBox="0 0 62 62" xmlns="http://www.w3.org/2000/svg" id="other_2">
    <path d="M1.75 61h58.5a.75.75 0 0 0 .75-.75v-5.218a.75.75 0 0 0-.75-.75h-3.234V7.718h1.106a.75.75 0 0 0 .75-.75V1.75a.75.75 0 0 0-.75-.75H3.878a.75.75 0 0 0-.75.75v5.218c0 .415.336.75.75.75h1.106v46.564H1.75a.75.75 0 0 0-.75.75v5.218c0 .415.336.75.75.75zM4.628 2.5H57.37v3.718H4.628V2.5zm1.856 5.218h49.031v46.564H39.531V37.477a.75.75 0 0 0-.75-.75H23.22a.75.75 0 0 0-.75.75v16.805H6.484V7.718zm17.485 46.564V38.227h6.281v16.055h-6.281zm7.781-16.055h6.281v16.055H31.75V38.227zM2.5 55.782h57V59.5h-57v-3.718z"></path>
    <path d="M44.883 45.385h4.765a.75.75 0 0 0 .75-.75v-7.246a.75.75 0 0 0-.75-.75h-4.765a.75.75 0 0 0-.75.75v7.246c0 .414.336.75.75.75zm.75-7.246h3.265v5.746h-3.265v-5.746zm-28.61-1.499h-4.765a.75.75 0 0 0-.75.75v7.245c0 .415.336.75.75.75h4.765a.75.75 0 0 0 .75-.75v-7.246a.75.75 0 0 0-.75-.75zm-.75 7.245h-3.265v-5.746h3.265v5.746zm28.61-10.406h4.765a.75.75 0 0 0 .75-.75v-7.246a.75.75 0 0 0-.75-.75h-4.765a.75.75 0 0 0-.75.75v7.246c0 .414.336.75.75.75zm.75-7.246h3.265v5.746h-3.265v-5.746zm-11.616 7.246h4.764a.75.75 0 0 0 .75-.75v-7.246a.75.75 0 0 0-.75-.75h-4.764a.75.75 0 0 0-.75.75v7.246c0 .414.335.75.75.75zm.75-7.246h3.264v5.746h-3.264v-5.746zm-11.548 7.246h4.764a.75.75 0 0 0 .75-.75v-7.246a.75.75 0 0 0-.75-.75H23.22a.75.75 0 0 0-.75.75v7.246c0 .414.336.75.75.75zm.75-7.246h3.264v5.746H23.97v-5.746zm10.048-4.66h4.764a.75.75 0 0 0 .75-.75v-7.246a.75.75 0 0 0-.75-.75h-4.764a.75.75 0 0 0-.75.75v7.246c0 .413.335.75.75.75zm.75-7.246h3.264v5.746h-3.264v-5.746zm-11.548 7.246h4.764a.75.75 0 0 0 .75-.75v-7.246a.75.75 0 0 0-.75-.75H23.22a.75.75 0 0 0-.75.75v7.246c0 .413.336.75.75.75zm.75-7.246h3.264v5.746H23.97v-5.746zm-6.946 10.406h-4.765a.75.75 0 0 0-.75.75v7.246c0 .415.336.75.75.75h4.765a.75.75 0 0 0 .75-.75v-7.246a.75.75 0 0 0-.75-.75zm-.75 7.246h-3.265v-5.746h3.265v5.746zm28.61-10.406h4.765a.75.75 0 0 0 .75-.75v-7.246a.75.75 0 0 0-.75-.75h-4.765a.75.75 0 0 0-.75.75v7.246c0 .413.336.75.75.75zm.75-7.246h3.265v5.746h-3.265v-5.746zm-28.61-1.5h-4.765a.75.75 0 0 0-.75.75v7.246c0 .414.336.75.75.75h4.765a.75.75 0 0 0 .75-.75v-7.246a.75.75 0 0 0-.75-.75zm-.75 7.246h-3.265v-5.746h3.265v5.746z"></path>
    <path d="M1.75 61h58.5a.75.75 0 0 0 .75-.75v-5.218a.75.75 0 0 0-.75-.75h-3.234V7.718h1.106a.75.75 0 0 0 .75-.75V1.75a.75.75 0 0 0-.75-.75H3.878a.75.75 0 0 0-.75.75v5.218c0 .415.336.75.75.75h1.106v46.564H1.75a.75.75 0 0 0-.75.75v5.218c0 .415.336.75.75.75zM4.628 2.5H57.37v3.718H4.628V2.5zm1.856 5.218h49.031v46.564H39.531V37.477a.75.75 0 0 0-.75-.75H23.22a.75.75 0 0 0-.75.75v16.805H6.484V7.718zm17.485 46.564V38.227h6.281v16.055h-6.281zm7.781-16.055h6.281v16.055H31.75V38.227zM2.5 55.782h57V59.5h-57v-3.718z" stroke-width=".3"></path>
    <path d="M44.883 45.385h4.765a.75.75 0 0 0 .75-.75v-7.246a.75.75 0 0 0-.75-.75h-4.765a.75.75 0 0 0-.75.75v7.246c0 .414.336.75.75.75zm.75-7.246h3.265v5.746h-3.265v-5.746zm-28.61-1.499h-4.765a.75.75 0 0 0-.75.75v7.245c0 .415.336.75.75.75h4.765a.75.75 0 0 0 .75-.75v-7.246a.75.75 0 0 0-.75-.75zm-.75 7.245h-3.265v-5.746h3.265v5.746zm28.61-10.406h4.765a.75.75 0 0 0 .75-.75v-7.246a.75.75 0 0 0-.75-.75h-4.765a.75.75 0 0 0-.75.75v7.246c0 .414.336.75.75.75zm.75-7.246h3.265v5.746h-3.265v-5.746zm-11.616 7.246h4.764a.75.75 0 0 0 .75-.75v-7.246a.75.75 0 0 0-.75-.75h-4.764a.75.75 0 0 0-.75.75v7.246c0 .414.335.75.75.75zm.75-7.246h3.264v5.746h-3.264v-5.746zm-11.548 7.246h4.764a.75.75 0 0 0 .75-.75v-7.246a.75.75 0 0 0-.75-.75H23.22a.75.75 0 0 0-.75.75v7.246c0 .414.336.75.75.75zm.75-7.246h3.264v5.746H23.97v-5.746zm10.048-4.66h4.764a.75.75 0 0 0 .75-.75v-7.246a.75.75 0 0 0-.75-.75h-4.764a.75.75 0 0 0-.75.75v7.246c0 .413.335.75.75.75zm.75-7.246h3.264v5.746h-3.264v-5.746zm-11.548 7.246h4.764a.75.75 0 0 0 .75-.75v-7.246a.75.75 0 0 0-.75-.75H23.22a.75.75 0 0 0-.75.75v7.246c0 .413.336.75.75.75zm.75-7.246h3.264v5.746H23.97v-5.746zm-6.946 10.406h-4.765a.75.75 0 0 0-.75.75v7.246c0 .415.336.75.75.75h4.765a.75.75 0 0 0 .75-.75v-7.246a.75.75 0 0 0-.75-.75zm-.75 7.246h-3.265v-5.746h3.265v5.746zm28.61-10.406h4.765a.75.75 0 0 0 .75-.75v-7.246a.75.75 0 0 0-.75-.75h-4.765a.75.75 0 0 0-.75.75v7.246c0 .413.336.75.75.75zm.75-7.246h3.265v5.746h-3.265v-5.746zm-28.61-1.5h-4.765a.75.75 0 0 0-.75.75v7.246c0 .414.336.75.75.75h4.765a.75.75 0 0 0 .75-.75v-7.246a.75.75 0 0 0-.75-.75zm-.75 7.246h-3.265v-5.746h3.265v5.746z" stroke-width=".3"></path>
  </symbol>
  <symbol viewBox="0 0 56 62" xmlns="http://www.w3.org/2000/svg" id="other_3">
    <path d="M20.184 1C14.803 1 9.97 3.954 6.53 8.63 3.089 13.309 1 19.722 1 26.815v8.372C1 42.28 3.089 48.693 6.529 53.37S14.803 61 20.184 61h15.632c5.381 0 10.215-2.954 13.655-7.63C52.911 48.691 55 42.278 55 35.185v-8.372c0-7.093-2.089-13.506-5.529-18.183S41.197 1 35.816 1H20.184zm0 1.395h15.632c4.853 0 9.262 2.64 12.5 7.042 3.239 4.403 5.263 10.555 5.263 17.377v8.372c0 6.822-2.024 12.952-5.262 17.355-3.239 4.402-7.648 7.064-12.501 7.064H20.184c-4.853 0-9.262-2.662-12.5-7.064-3.24-4.403-5.264-10.533-5.264-17.355v-8.372c0-6.822 2.024-12.974 5.262-17.377 3.239-4.402 7.648-7.042 12.501-7.042zm14.921 7.675c-3.94 0-7.352 2.44-9.725 6.235C23.007 20.1 21.605 25.283 21.605 31c0 5.717 1.401 10.878 3.775 14.673 2.373 3.795 5.785 6.257 9.725 6.257 3.94 0 7.526-2.444 10.08-6.235 2.556-3.792 4.13-8.964 4.13-14.695s-1.574-10.925-4.13-14.717c-2.554-3.79-6.14-6.213-10.08-6.213zM19.43 11.443a.726.726 0 0 0-.577.35c-3.05 5.084-4.874 12.349-5.063 19.185-.005.365.328.703.7.709.372.005.716-.322.721-.687.183-6.616 2.012-13.696 4.885-18.488.283-.438-.14-1.117-.666-1.069zm15.676.022c2.383 0 4.681 1.045 6.661 2.922a.704.704 0 0 0-.222.283l-4.929 11.773a3.778 3.778 0 0 0-1.51-.327 3.78 3.78 0 0 0-1.51.327l-4.93-11.773a.699.699 0 0 0-.11-.174c1.885-1.942 4.123-3.03 6.55-3.03zm7.66 4.012c.422.49.839 1 1.222 1.57 2.27 3.369 3.76 8.061 3.886 13.255h-8.549c-.153-1.207-.692-2.291-1.487-3.052 1.614-3.896 3.288-7.86 4.929-11.773zm-15.231.218c1.601 3.861 3.259 7.704 4.848 11.569-.793.76-1.342 1.833-1.495 3.038H23.05c.11-5.209 1.424-9.888 3.53-13.255.302-.483.624-.926.955-1.352zM9.438 19.118a.724.724 0 0 0-.6.523c-.991 3.355-1.379 7.314-1.443 11.337-.006.365.327.703.7.709.371.005.715-.322.72-.687.064-3.948.464-7.801 1.4-10.967.156-.45-.298-.985-.777-.915zm25.667 8.394c1.51 0 2.842 1.481 2.842 3.488 0 2.007-1.331 3.488-2.842 3.488-1.51 0-2.842-1.481-2.842-3.488 0-2.007 1.332-3.488 2.842-3.488zM23.05 31.698h7.838c.148 1.21.694 2.289 1.489 3.054-1.611 3.815-3.249 7.712-4.864 11.553a16.577 16.577 0 0 1-.933-1.352c-2.107-3.369-3.421-8.043-3.53-13.255zm24.824 0c-.124 5.198-1.613 9.86-3.886 13.234a17.299 17.299 0 0 1-1.155 1.526c-1.641-3.907-3.37-7.813-4.99-11.712.786-.76 1.33-1.827 1.482-3.027a.115.115 0 0 1 .01-.022h8.538zm-14.278 3.859c.469.203.97.327 1.51.327a3.76 3.76 0 0 0 1.51-.327l5.04 11.751c.035.09.088.172.156.24-1.993 1.916-4.301 2.987-6.706 2.987-2.418 0-4.638-1.07-6.52-3 1.622-3.957 3.342-8.002 5.01-11.978zm-18.473 2.398c-.392.05-.69.472-.6.85.438 2.042 1.47 4.645 2.154 6.388.133.344.573.538.923.406.35-.131.545-.564.41-.907-.686-1.75-1.717-4.338-2.11-6.17-.065-.343-.424-.605-.777-.567zm-6.373.698c-.39.04-.697.45-.622.828a29.04 29.04 0 0 0 .711 2.878c.105.354.528.582.888.48.36-.103.593-.518.489-.872-.262-.887-.536-1.79-.71-2.726-.055-.342-.404-.614-.756-.588z" stroke-width=".3"></path>
  </symbol>
  <symbol viewBox="0 0 59 62" xmlns="http://www.w3.org/2000/svg" id="other_4">
    <path d="M51.896 13.776c-.302-.175-.622-.33-.928-.478-2.141-1.045-4.336-1.503-6.265-1.377-2.204.143-4.07 1.06-5.024 2.747l-2.087 3.674c-.495.875-.674 1.873-.6 2.895l-11.14 19.699c-.907.457-1.652 1.12-2.148 1.996l-2.934 5.184c-.953 1.687-.778 3.779.225 5.757 1.003 1.978 2.822 3.863 5.245 5.25s4.988 2.001 7.193 1.856c2.205-.145 4.07-1.06 5.024-2.748l2.964-5.166c.492-.87.652-1.851.582-2.866l11.159-19.728c.91-.458 1.63-1.116 2.123-1.99l2.097-3.688c.953-1.688.755-3.77-.248-5.751-1.005-1.98-2.814-3.879-5.237-5.266zM32.74 2.868c-.301-.176-.63-.315-.936-.464-2.142-1.045-4.312-1.51-6.241-1.384-2.205.144-4.086 1.052-5.04 2.74l-2.072 3.68c-.495.875-.688 1.865-.614 2.887L6.71 30.036c-.907.457-1.667 1.11-2.162 1.987l-2.92 5.193c-.952 1.687-.777 3.779.225 5.757 1.003 1.978 2.814 3.878 5.237 5.265 2.423 1.387 4.982 1.977 7.187 1.832 2.205-.145 4.085-1.051 5.039-2.739l2.949-5.175c.492-.87.667-1.842.597-2.857l11.135-19.722c.91-.458 1.653-1.122 2.147-1.996l2.073-3.682c.953-1.688.764-3.786-.24-5.766s-2.813-3.878-5.237-5.265zm18.829 11.48c2.32 1.327 4.055 3.16 4.988 5 .932 1.84 1.065 3.675.244 5.128L54.7 28.14c-.42.744-1.047 1.33-1.838 1.736a.44.44 0 0 0-.008.015c-.009.003-.017.002-.024.006a.336.336 0 0 0-.047.013c-.008.003-.016.003-.023.006a6.243 6.243 0 0 1-1.094.405 7.673 7.673 0 0 1-1.271.224c-.063.005-.125.007-.187.011-.174.011-.35.012-.53.013l-.038-.002c-.072 0-.152.01-.225.009-.104-.002-.204-.014-.31-.02-.014 0-.032.013-.047.013-.39-.022-.774-.078-1.18-.145-.037-.006-.079 0-.116-.007-.155-.027-.303-.073-.46-.107-.129-.028-.26-.054-.39-.087-.03-.008-.055-.021-.084-.03-.261-.067-.516-.126-.78-.212a13.576 13.576 0 0 1-.715-.255c-.06-.023-.124-.042-.183-.066-.048-.02-.086-.06-.135-.08a12.85 12.85 0 0 1-.546-.236 12.96 12.96 0 0 1-1.063-.557 14.312 14.312 0 0 1-1.683-1.119c-.211-.164-.435-.335-.631-.507-.169-.147-.33-.29-.488-.443-.026-.025-.046-.056-.073-.082a12.757 12.757 0 0 1-.513-.538c-.102-.113-.187-.23-.283-.345-.267-.32-.526-.644-.744-.973-.005-.003-.014-.002-.015-.009-.004-.008-.002-.017-.007-.024-.073-.11-.162-.221-.23-.333-.072-.12-.13-.234-.197-.355-.043-.08-.092-.178-.132-.257-.008-.015-.005-.033-.013-.048-.094-.188-.186-.366-.263-.554-.063-.151-.11-.302-.161-.453a7.093 7.093 0 0 1-.254-.99 5.748 5.748 0 0 1-.062-.556c-.064-.906.098-1.765.524-2.519l2.087-3.673c.822-1.453 2.444-2.282 4.493-2.416 1.792-.117 3.878.305 5.928 1.301.292.143.592.287.882.453h-.001zM32.404 3.452c2.32 1.328 4.064 3.145 4.997 4.986.933 1.84 1.057 3.69.236 5.143l-2.079 3.658c-.42.743-1.047 1.33-1.838 1.736a.366.366 0 0 0-.023.006c-.008.003-.017.002-.024.006a.33.33 0 0 0-.047.012c-.008.003-.016.003-.023.007-.145.07-.3.138-.454.197-.206.078-.411.173-.634.232-.4.106-.832.16-1.277.2-.062.005-.109.015-.172.02a9.904 9.904 0 0 1-.552.019c-.013 0-.026-.003-.038-.003-.073 0-.13.005-.203.003-.104-.002-.218-.023-.324-.028-.015-.001-.033.013-.048.013-.39-.022-.767-.054-1.173-.121-.037-.006-.07-.016-.107-.023-.155-.027-.319-.082-.475-.116-.13-.028-.261-.054-.391-.087-.03-.007-.064-.005-.092-.014a13.758 13.758 0 0 1-1.487-.483c-.06-.023-.123-.041-.182-.066-.048-.019-.087-.06-.136-.078-.181-.076-.349-.144-.53-.228-.063-.03-.135-.045-.198-.075a14.931 14.931 0 0 1-.874-.468 14.555 14.555 0 0 1-1.698-1.127c-.212-.164-.412-.341-.608-.513-.168-.147-.345-.3-.502-.452-.027-.025-.047-.057-.073-.082-.106-.104-.2-.209-.3-.315a11.529 11.529 0 0 1-.198-.215c-.102-.113-.202-.238-.299-.353-.267-.32-.525-.644-.744-.973-.003-.009-.017-.026-.021-.033-.074-.111-.147-.212-.215-.324a9.811 9.811 0 0 1-.212-.364c-.044-.08-.086-.154-.127-.234-.007-.014-.004-.033-.012-.047a8.494 8.494 0 0 1-.255-.569c-.063-.152-.11-.303-.16-.454a7.038 7.038 0 0 1-.15-.507c-.042-.161-.093-.331-.12-.49a5.743 5.743 0 0 1-.061-.557c-.065-.906.112-1.756.538-2.51L21.111 4.1c.822-1.453 2.444-2.282 4.493-2.416 1.792-.117 3.878.304 5.928 1.301.292.143.584.302.874.468h-.002zm18.344 12.36a12.35 12.35 0 0 0-.709-.373c-1.627-.808-3.277-1.198-4.707-1.192-1.634.006-3.013.552-3.677 1.728-.664 1.175-.44 2.655.39 4.071.83 1.416 2.265 2.814 4.112 3.871 1.848 1.058 3.765 1.601 5.399 1.595 1.634-.006 3.03-.583 3.695-1.758.664-1.176.424-2.664-.406-4.08-.83-1.417-2.25-2.805-4.097-3.863zM31.584 4.918c-.23-.134-.468-.272-.7-.387-1.628-.809-3.263-1.19-4.693-1.184-1.633.006-3.013.552-3.677 1.728-.664 1.175-.44 2.655.39 4.071.83 1.416 2.265 2.813 4.113 3.871 1.848 1.058 3.75 1.592 5.383 1.586 1.634-.006 3.037-.56 3.701-1.734.664-1.176.419-2.688-.411-4.104-.83-1.417-2.259-2.79-4.106-3.847zm18.828 11.48c1.758 1.006 3.123 2.326 3.878 3.614.755 1.29.886 2.495.374 3.401-.512.907-1.638 1.423-3.125 1.429-1.486.006-3.297-.489-5.054-1.495-1.758-1.006-3.1-2.333-3.855-3.622-.756-1.288-.916-2.511-.404-3.418s1.62-1.393 3.107-1.399c1.301-.005 2.87.374 4.415 1.144.22.11.444.22.664.345zM31.247 5.503c1.758 1.007 3.133 2.312 3.888 3.6.755 1.29.877 2.51.365 3.416-.513.907-1.614 1.417-3.101 1.423-1.487.005-3.312-.498-5.07-1.504-1.758-1.006-3.1-2.333-3.855-3.621-.755-1.29-.901-2.504-.389-3.41.513-.907 1.621-1.393 3.108-1.399 1.3-.005 2.854.365 4.4 1.135.22.11.435.235.654.36zm20.906 25.362l-12.075 21.36c-.742 1.314-2.2 2.066-4.06 2.186-1.628.106-3.535-.267-5.4-1.174-.265-.13-.535-.274-.798-.424a12.524 12.524 0 0 1-2.731-2.088 11.23 11.23 0 0 1-.54-.594 9.537 9.537 0 0 1-1.238-1.86c-.84-1.671-.96-3.337-.218-4.652l1.295-2.292a.332.332 0 0 0 .026-.045l10.745-19.007a8.4 8.4 0 0 0 .664 1.847c.573 1.13 1.42 2.212 2.489 3.208.072.07.145.14.22.209l.134.117c.167.148.357.288.534.43.062.049.116.096.179.144.182.14.36.266.552.4.133.093.257.2.395.29.242.157.495.288.751.437.398.225.806.435 1.207.62.521.24 1.03.454 1.549.62.085.029.166.06.251.086.013.002.036-.016.047-.012 1.433.437 2.84.641 4.13.557a8.167 8.167 0 0 0 1.892-.362zM33.003 19.98L20.937 41.325c-.742 1.314-2.224 2.072-4.084 2.193-1.627.105-3.526-.283-5.39-1.19a13.83 13.83 0 0 1-.799-.424 12.391 12.391 0 0 1-2.716-2.079 11.015 11.015 0 0 1-.54-.594 9.528 9.528 0 0 1-1.238-1.86c-.84-1.671-.97-3.323-.226-4.637l1.303-2.307a.324.324 0 0 0 .026-.045l10.745-19.008c.145.61.343 1.236.649 1.84.573 1.13 1.412 2.226 2.48 3.222.073.07.17.134.245.203l.133.117c.167.148.341.28.52.422.06.048.106.11.169.158.182.14.36.267.552.401a15.614 15.614 0 0 0 2.369 1.356c.52.238 1.029.453 1.548.62.085.027.175.044.26.07.014.002.027 0 .04.003 1.432.438 2.832.618 4.123.533a8.207 8.207 0 0 0 1.897-.338zm8.256 31.548c-.087.423-.21.816-.425 1.195l-2.95 5.175c-.82 1.453-2.443 2.281-4.492 2.416-2.049.135-4.497-.45-6.817-1.778-2.32-1.328-4.05-3.139-4.981-4.977-.932-1.837-1.066-3.675-.245-5.128l2.934-5.183a4 4 0 0 1 .868-1.058l-.638 1.111c-.875 1.548-.706 3.455.206 5.266.911 1.811 2.578 3.56 4.788 4.824 2.21 1.265 4.535 1.814 6.55 1.683 2.017-.13 3.732-.96 4.607-2.51l.595-1.036zM22.103 40.621c-.087.422-.21.815-.425 1.194L18.745 47c-.822 1.453-2.444 2.281-4.493 2.416-2.049.135-4.506-.435-6.826-1.763-2.32-1.328-4.05-3.139-4.981-4.977-.932-1.837-1.058-3.69-.236-5.143l2.919-5.192c.225-.405.524-.757.867-1.058l-.623 1.12c-.874 1.548-.72 3.446.191 5.257.912 1.811 2.578 3.56 4.788 4.824 2.21 1.265 4.526 1.829 6.542 1.699 2.016-.131 3.755-.968 4.63-2.517l.58-1.044z" stroke-width="1.2"></path>
  </symbol>
  <symbol viewBox="0 0 58 62" xmlns="http://www.w3.org/2000/svg" id="other_5">
    <path d="M43.82 29.818c-2.303 0-4.176-1.862-4.176-4.15 0-2.288 1.873-4.15 4.176-4.15s4.177 1.862 4.177 4.15c0 2.288-1.874 4.15-4.177 4.15zm0-7.075c-1.623 0-2.944 1.313-2.944 2.925 0 1.613 1.321 2.926 2.944 2.926 1.624 0 2.945-1.313 2.945-2.926 0-1.612-1.321-2.925-2.945-2.925zM29 29.818c-2.303 0-4.177-1.862-4.177-4.15 0-2.288 1.874-4.15 4.177-4.15 2.302 0 4.176 1.862 4.176 4.15 0 2.288-1.874 4.15-4.176 4.15zm0-7.075c-1.623 0-2.944 1.313-2.944 2.925A2.938 2.938 0 0 0 29 28.594c1.623 0 2.944-1.313 2.944-2.926 0-1.612-1.32-2.925-2.944-2.925zm-14.821 7.075c-2.303 0-4.176-1.862-4.176-4.15 0-2.288 1.873-4.15 4.176-4.15s4.177 1.862 4.177 4.15c0 2.288-1.874 4.15-4.177 4.15zm0-7.075c-1.623 0-2.944 1.313-2.944 2.925a2.938 2.938 0 0 0 2.944 2.926c1.623 0 2.944-1.313 2.944-2.926 0-1.612-1.32-2.925-2.944-2.925z"></path>
    <path d="M17.63 61a.61.61 0 0 1-.27-1.162c3.802-1.842 5.703-7.714 6.234-9.633C10.092 47.7.478 36.829 1.022 24.629 1.632 10.936 14.684.345 30.115 1.03c15.423.68 27.473 12.37 26.863 26.06-.477 10.693-8.512 19.78-20.032 22.697-4.052 8.959-18.605 11.118-19.228 11.206a.624.624 0 0 1-.088.006zM28.71 2.225c-14.157 0-25.896 9.84-26.458 22.457C1.727 36.49 11.27 46.996 24.45 49.12c.186 0 .316.08.432.226.117.144.114.33.074.51-.065.292-1.379 6.024-4.72 9.379 4.436-1.072 13.055-3.914 15.698-10.206a.615.615 0 0 1 .483-.37c11.108-2.722 18.874-11.404 19.33-21.62.58-13.017-10.943-24.134-25.686-24.783-.452-.02-.902-.03-1.35-.03z"></path>
    <path d="M43.82 29.818c-2.303 0-4.176-1.862-4.176-4.15 0-2.288 1.873-4.15 4.176-4.15s4.177 1.862 4.177 4.15c0 2.288-1.874 4.15-4.177 4.15zm0-7.075c-1.623 0-2.944 1.313-2.944 2.925 0 1.613 1.321 2.926 2.944 2.926 1.624 0 2.945-1.313 2.945-2.926 0-1.612-1.321-2.925-2.945-2.925zM29 29.818c-2.303 0-4.177-1.862-4.177-4.15 0-2.288 1.874-4.15 4.177-4.15 2.302 0 4.176 1.862 4.176 4.15 0 2.288-1.874 4.15-4.176 4.15zm0-7.075c-1.623 0-2.944 1.313-2.944 2.925A2.938 2.938 0 0 0 29 28.594c1.623 0 2.944-1.313 2.944-2.926 0-1.612-1.32-2.925-2.944-2.925zm-14.821 7.075c-2.303 0-4.176-1.862-4.176-4.15 0-2.288 1.873-4.15 4.176-4.15s4.177 1.862 4.177 4.15c0 2.288-1.874 4.15-4.177 4.15zm0-7.075c-1.623 0-2.944 1.313-2.944 2.925a2.938 2.938 0 0 0 2.944 2.926c1.623 0 2.944-1.313 2.944-2.926 0-1.612-1.32-2.925-2.944-2.925z"></path>
    <path d="M17.63 61a.61.61 0 0 1-.27-1.162c3.802-1.842 5.703-7.714 6.234-9.633C10.092 47.7.478 36.829 1.022 24.629 1.632 10.936 14.684.345 30.115 1.03c15.423.68 27.473 12.37 26.863 26.06-.477 10.693-8.512 19.78-20.032 22.697-4.052 8.959-18.605 11.118-19.228 11.206a.624.624 0 0 1-.088.006zM28.71 2.225c-14.157 0-25.896 9.84-26.458 22.457C1.727 36.49 11.27 46.996 24.45 49.12c.186 0 .316.08.432.226.117.144.114.33.074.51-.065.292-1.379 6.024-4.72 9.379 4.436-1.072 13.055-3.914 15.698-10.206a.615.615 0 0 1 .483-.37c11.108-2.722 18.874-11.404 19.33-21.62.58-13.017-10.943-24.134-25.686-24.783-.452-.02-.902-.03-1.35-.03z"></path>
  </symbol>
  <symbol viewBox="0 0 60 60" xmlns="http://www.w3.org/2000/svg" id="other_6">
    <path d="M59.93 20.415a18.945 18.945 0 0 0-.212-1.878c-.011-.076-.027-.152-.04-.228a22.2 22.2 0 0 0-.29-1.423c-.017-.07-.031-.138-.048-.206a22.296 22.296 0 0 0-.45-1.546c-.017-.054-.036-.107-.054-.161-3.88-11.51-16.354-17.694-27.863-13.815a21.991 21.991 0 0 0-13.815 13.815l-.055.161a22.296 22.296 0 0 0-.45 1.546c-.016.068-.03.137-.047.206-.112.466-.21.94-.291 1.423-.012.076-.028.152-.04.228-.081.5-.141 1.015-.186 1.53-.01.116-.018.232-.026.348a21.999 21.999 0 0 0-.064 1.588c0 .048 0 .1.006.168a21.96 21.96 0 0 0 2.4 9.831H1a1 1 0 0 0-1 1V55a1 1 0 0 0 1 1h3v3a1 1 0 0 0 1 1h45.995a1 1 0 0 0 1-1V38.963a21.876 21.876 0 0 0 8-16.96c0-.535-.026-1.063-.064-1.588zm-4.833-8.717c.061.091.12.182.174.276a17.948 17.948 0 0 1 1.01 1.963c.084.187.163.376.24.565.193.472.373.95.529 1.44.038.117.069.237.1.356.154.518.293 1.042.406 1.576.01.046.023.09.032.137.118.58.2 1.17.27 1.768.012.1.025.2.034.3.007.072 0 .147.012.22l-4.479-3.31 1.672-5.29zm-1.434-2.085l-2.207 6.983-6.307 2.289-6.153-4.395V7.52l5.944-4.246a20.062 20.062 0 0 1 8.723 6.34zm-12.36 17.39H34.69l-2.487-6.632 5.794-4.138 5.793 4.138-2.487 6.632zm.207 2l2.355 3H32.128l2.355-3h7.027zM33.577 2.514c.26-.06.52-.112.78-.16.475-.089.95-.167 1.435-.22.15-.018.3-.027.453-.04.549-.048 1.1-.082 1.66-.084h.183c.56 0 1.111.036 1.66.084.151.013.3.022.453.04.484.053.96.131 1.434.22.261.048.521.1.781.16.037.008.072.02.108.028l-4.527 3.234-4.528-3.234c.036-.009.071-.02.108-.028zm-2.524.76l5.944 4.245v6.971l-6.153 4.395-6.307-2.29-2.207-6.982a20.062 20.062 0 0 1 8.723-6.34zM18.098 20.077l.033-.3c.067-.6.153-1.188.271-1.767l.032-.14c.113-.533.252-1.057.406-1.574.036-.12.067-.24.105-.356a19.608 19.608 0 0 1 .77-2.005c.173-.393.36-.779.557-1.157.143-.272.3-.54.452-.806.055-.094.113-.185.17-.277l1.671 5.292-4.479 3.309c.005-.072.003-.147.012-.22zm-.072 2.75h.002l5.87-4.336 6.326 2.3 2.641 7.04-3.279 4.17h-8.899a19.935 19.935 0 0 1-2.66-9.175zM2 54V34.002h43.996V54H2zm47.995 4H6v-2h40.997a1 1 0 0 0 1-1V38.001h2V58zm1.807-21.552a.983.983 0 0 0-.807-.447h-3v-.875l5.107-.04a19.86 19.86 0 0 1-1.3 1.362zm2.85-3.375l-6.656.053v-.125a1 1 0 0 0-1-1h-.59l-3.276-4.174 2.64-7.041 6.327-2.3 5.875 4.34a19.87 19.87 0 0 1-3.32 10.247z"></path>
  </symbol>
</svg>