<svg width="76" height="55" viewBox="0 0 76 55" fill="none" xmlns="http://www.w3.org/2000/svg">
<path d="M70.5713 45.6H5.42849C5.14054 45.6 4.86438 45.4856 4.66077 45.282C4.45716 45.0784 4.34277 44.8022 4.34277 44.5143V5.42857C4.3445 3.98935 4.91699 2.60958 5.93467 1.5919C6.95235 0.574215 8.33213 0.00172396 9.77134 0H66.2285C67.6677 0.00172396 69.0475 0.574215 70.0652 1.5919C71.0828 2.60958 71.6553 3.98935 71.6571 5.42857V44.5143C71.6571 44.8022 71.5427 45.0784 71.3391 45.282C71.1354 45.4856 70.8593 45.6 70.5713 45.6ZM6.5142 43.4286H69.4856V5.42857C69.4856 4.56472 69.1425 3.73626 68.5316 3.12542C67.9208 2.51459 67.0923 2.17143 66.2285 2.17143H9.77134C8.9075 2.17143 8.07903 2.51459 7.4682 3.12542C6.85736 3.73626 6.5142 4.56472 6.5142 5.42857V43.4286Z" fill="#53C6F1"/>
<path d="M66.2294 41.2571H9.77224C9.48429 41.2571 9.20813 41.1427 9.00452 40.9391C8.80091 40.7354 8.68652 40.4593 8.68652 40.1713V5.42849C8.68652 5.14054 8.80091 4.86438 9.00452 4.66077C9.20813 4.45716 9.48429 4.34277 9.77224 4.34277H66.2294C66.5173 4.34277 66.7935 4.45716 66.9971 4.66077C67.2007 4.86438 67.3151 5.14054 67.3151 5.42849V40.1713C67.3151 40.4593 67.2007 40.7354 66.9971 40.9391C66.7935 41.1427 66.5173 41.2571 66.2294 41.2571ZM10.858 39.0856H65.1437V6.5142H10.858V39.0856Z" fill="#53C6F1"/>
<path d="M69.4857 54.2856H6.51429C4.78721 54.2836 3.13144 53.5966 1.91021 52.3754C0.688982 51.1542 0.00201141 49.4984 0 47.7713V44.5142C0 44.2262 0.114387 43.9501 0.317998 43.7465C0.521609 43.5429 0.797765 43.4285 1.08571 43.4285H74.9143C75.2022 43.4285 75.4784 43.5429 75.682 43.7465C75.8856 43.9501 76 44.2262 76 44.5142V47.7713C75.998 49.4984 75.311 51.1542 74.0898 52.3754C72.8686 53.5966 71.2128 54.2836 69.4857 54.2856ZM2.17143 45.5999V47.7713C2.17143 48.9231 2.62898 50.0277 3.44342 50.8422C4.25787 51.6566 5.36249 52.1142 6.51429 52.1142H69.4857C70.6375 52.1142 71.7421 51.6566 72.5566 50.8422C73.371 50.0277 73.8286 48.9231 73.8286 47.7713V45.5999H2.17143Z" fill="#53C6F1"/>
<path d="M37.012 34.7428C36.8037 34.7428 36.5997 34.6828 36.4245 34.5699C36.2493 34.4571 36.1103 34.2963 36.024 34.1066L26.1538 12.3923C26.0624 12.1911 26.0346 11.9669 26.0741 11.7495C26.1136 11.5321 26.2184 11.3319 26.3746 11.1757C26.5309 11.0194 26.7311 10.9146 26.9485 10.8751C27.1659 10.8357 27.3901 10.8635 27.5913 10.9548L49.3056 20.8251C49.5147 20.92 49.6883 21.0789 49.8014 21.2787C49.9146 21.4786 49.9614 21.7092 49.9353 21.9374C49.9091 22.1656 49.8112 22.3795 49.6557 22.5486C49.5002 22.7176 49.2952 22.833 49.07 22.8781L39.9098 24.7108L38.0771 33.8743C38.027 34.1197 37.8936 34.3402 37.6995 34.4985C37.5054 34.6568 37.2625 34.7431 37.012 34.7428ZM29.3295 14.1295L36.6038 30.1437L37.9175 23.5741C37.9596 23.3641 38.0629 23.1712 38.2143 23.0197C38.3658 22.8683 38.5587 22.765 38.7687 22.7229L45.3384 21.4092L29.3295 14.1295Z" fill="#53C6F1"/>
<path d="M38.2109 24.5549L39.7461 23.0197L49.6143 32.8881L48.0791 34.4233L38.2109 24.5549Z" fill="#53C6F1"/>
</svg>
