<svg width="17" height="15" viewBox="0 0 17 15" fill="none" xmlns="http://www.w3.org/2000/svg">
<path d="M16.2609 0H0.73913C0.332609 0 0 0.3375 0 0.75V10.3312C0 10.7437 0.332609 11.0625 0.73913 11.0625H9.42391V14.25C9.42391 14.5688 9.66414 14.85 9.94131 14.9625C10.0337 15 10.1261 15 10.2185 15C10.4402 15 10.6435 14.9062 10.7913 14.7375L13.8587 11.0625H16.2609C16.6674 11.0625 17 10.7437 17 10.3312V0.75C17 0.3375 16.6674 0 16.2609 0ZM15.5217 9.5625H13.5261C13.3043 9.5625 13.0641 9.675 12.9163 9.825L10.9022 12.1875V10.3125C10.9022 9.9 10.6435 9.54375 10.237 9.54375H1.47826V1.48125H15.5217V9.5625ZM3.43695 4.125C3.43695 3.7125 3.76956 3.375 4.17608 3.375H9.53478C9.9413 3.375 10.2739 3.7125 10.2739 4.125C10.2739 4.5375 9.9413 4.875 9.53478 4.875H4.17608C3.76956 4.875 3.43695 4.5375 3.43695 4.125ZM11.5489 4.70625C11.4196 4.575 11.3272 4.36876 11.3272 4.18126C11.3272 3.97501 11.4011 3.7875 11.5489 3.65625C11.6967 3.50625 11.8815 3.43126 12.0663 3.43126C12.2696 3.43126 12.4543 3.50625 12.5837 3.65625C12.713 3.7875 12.8054 3.99376 12.8054 4.18126C12.8054 4.38751 12.7315 4.575 12.5837 4.70625C12.4359 4.85625 12.2511 4.93126 12.0663 4.93126C11.8815 4.91251 11.6967 4.8375 11.5489 4.70625Z" fill="#FF6D2A"/>
</svg>
