<svg width="261" height="91" viewBox="0 0 261 91" fill="none" xmlns="http://www.w3.org/2000/svg">
<path d="M109.142 7.07075C111.623 9.03036 112.863 11.7589 112.863 15.2565C112.863 18.7044 111.623 21.4329 109.142 23.3925C106.662 25.3522 103.239 26.3444 98.8731 26.3444H88.951V37.1346H86.4209V4.14374H98.8731C103.239 4.14374 106.662 5.11114 109.142 7.07075ZM107.356 21.8546C109.316 20.3167 110.283 18.109 110.283 15.2565C110.283 12.4039 109.316 10.1962 107.356 8.63347C105.397 7.07075 102.569 6.30179 98.8731 6.30179H88.951V24.1615H98.8731C102.569 24.1615 105.397 23.3925 107.356 21.8546Z" fill="#303032"/>
<path d="M133.997 14.6612C135.709 16.2239 136.577 18.506 136.577 21.5074V37.1098H134.195V32.7193C133.377 34.158 132.161 35.2991 130.574 36.0928C128.986 36.8866 127.076 37.2835 124.869 37.2835C121.991 37.2835 119.709 36.6386 118.047 35.3487C116.385 34.0588 115.542 32.3721 115.542 30.2636C115.542 28.2296 116.311 26.5677 117.849 25.3026C119.387 24.0375 121.843 23.3926 125.216 23.3926H134.096V21.4082C134.096 19.1261 133.451 17.3649 132.137 16.1743C130.822 14.9836 128.912 14.3883 126.407 14.3883C124.695 14.3883 123.033 14.6612 121.47 15.2317C119.908 15.8022 118.568 16.5464 117.477 17.489L116.237 15.8022C117.526 14.7108 119.089 13.8426 120.9 13.2225C122.711 12.6024 124.621 12.3047 126.605 12.3047C129.805 12.3295 132.261 13.1233 133.997 14.6612ZM130.698 33.9596C132.211 33.017 133.327 31.6527 134.096 29.8667V25.253H125.266C122.711 25.253 120.875 25.6995 119.734 26.5677C118.593 27.4358 118.023 28.6513 118.023 30.1892C118.023 31.8015 118.643 33.0666 119.908 33.9844C121.173 34.9022 122.934 35.3735 125.216 35.3735C127.349 35.3735 129.185 34.9022 130.698 33.9596Z" fill="#303032"/>
<path d="M164.656 15.0332C166.541 16.8192 167.484 19.399 167.484 22.7725V37.1595H165.003V22.9709C165.003 20.2175 164.259 18.1091 162.796 16.6456C161.332 15.2069 159.273 14.4875 156.619 14.4875C153.568 14.4875 151.187 15.3557 149.426 17.0921C147.665 18.8284 146.796 21.1353 146.796 24.0623V37.1595H144.316V12.5527H146.697V17.8858C147.59 16.1495 148.93 14.81 150.691 13.8426C152.452 12.8752 154.56 12.3791 156.967 12.3791C160.191 12.3295 162.771 13.2225 164.656 15.0332Z" fill="#303032"/>
<path d="M175.819 36.4153C173.933 35.82 172.47 35.0758 171.403 34.158L172.544 32.2728C173.611 33.1162 174.975 33.8355 176.637 34.4061C178.299 34.9766 180.06 35.2494 181.871 35.2494C184.476 35.2494 186.41 34.8526 187.651 34.034C188.891 33.2154 189.511 32.0744 189.511 30.6357C189.511 29.5939 189.164 28.7753 188.494 28.18C187.824 27.5846 186.981 27.1382 185.989 26.8653C184.997 26.5924 183.632 26.2948 181.871 25.9723C179.812 25.625 178.175 25.253 176.91 24.8313C175.645 24.4344 174.578 23.7646 173.685 22.8469C172.792 21.9291 172.346 20.6888 172.346 19.0765C172.346 17.1169 173.189 15.5293 174.901 14.2395C176.612 12.9744 179.019 12.3295 182.169 12.3295C183.831 12.3295 185.468 12.5527 187.08 12.9992C188.693 13.4457 190.032 14.0162 191.049 14.7356L189.908 16.6208C188.841 15.9014 187.651 15.3557 186.286 14.9836C184.922 14.6115 183.533 14.4131 182.119 14.4131C179.713 14.4131 177.877 14.8348 176.662 15.6782C175.447 16.5215 174.826 17.6378 174.826 19.0269C174.826 20.1183 175.174 20.9865 175.868 21.6066C176.563 22.2267 177.406 22.6732 178.423 22.9709C179.44 23.2685 180.854 23.591 182.665 23.9383C184.674 24.2856 186.311 24.6576 187.551 25.0545C188.792 25.4514 189.834 26.0963 190.702 26.9645C191.57 27.8327 191.992 29.0481 191.992 30.5861C191.992 32.6201 191.099 34.2572 189.313 35.4975C187.527 36.7129 185.021 37.3331 181.772 37.3331C179.688 37.3083 177.704 37.0106 175.819 36.4153Z" fill="#303032"/>
<path d="M216.797 15.0332C218.682 16.8192 219.624 19.3989 219.624 22.7724V37.1594H217.144V22.9709C217.144 20.2175 216.4 18.1091 214.936 16.6456C213.473 15.2069 211.414 14.4875 208.76 14.4875C205.709 14.4875 203.327 15.3557 201.566 17.092C199.805 18.8284 198.937 21.1353 198.937 24.0623V37.1594H196.456V2.18414H198.937V17.6626C199.83 15.9758 201.145 14.6611 202.906 13.7185C204.667 12.8008 206.726 12.3295 209.107 12.3295C212.332 12.3295 214.911 13.2224 216.797 15.0332Z" fill="#303032"/>
<path d="M227.165 6.00414C226.768 5.63206 226.57 5.18557 226.57 4.66466C226.57 4.11895 226.768 3.67245 227.165 3.30038C227.562 2.9283 228.033 2.72986 228.604 2.72986C229.174 2.72986 229.646 2.90349 230.043 3.27557C230.439 3.64765 230.638 4.09414 230.638 4.61505C230.638 5.16076 230.439 5.60726 230.043 5.97933C229.646 6.35141 229.174 6.54985 228.604 6.54985C228.033 6.54985 227.562 6.35141 227.165 6.00414ZM227.364 12.5279H229.844V37.1346H227.364V12.5279Z" fill="#303032"/>
<path d="M258.172 15.0332C260.057 16.8192 260.999 19.399 260.999 22.7725V37.1595H258.519V22.9709C258.519 20.2175 257.775 18.1091 256.311 16.6456C254.848 15.2069 252.789 14.4875 250.135 14.4875C247.084 14.4875 244.702 15.3557 242.941 17.0921C241.18 18.8284 240.312 21.1353 240.312 24.0623V37.1595H237.831V12.5527H240.213V17.8858C241.106 16.1495 242.445 14.81 244.206 13.8426C245.968 12.8752 248.076 12.3791 250.482 12.3791C253.707 12.3295 256.286 13.2225 258.172 15.0332Z" fill="#303032"/>
<path d="M99.1955 55.1807H101.502V61.384C100.667 62.0203 99.7125 62.5372 98.5991 62.8951C97.4856 63.253 96.3722 63.4121 95.1793 63.4121C93.5092 63.4121 91.9583 63.0542 90.6063 62.3384C89.2543 61.6226 88.1807 60.6683 87.4251 59.4356C86.6696 58.2029 86.272 56.8111 86.272 55.2603C86.272 53.7094 86.6696 52.3177 87.4251 51.085C88.1807 49.8523 89.2543 48.8979 90.6063 48.1821C91.9583 47.5061 93.5092 47.1483 95.1793 47.1483C96.5313 47.1483 97.7242 47.3471 98.7979 47.7845C99.8715 48.1821 100.826 48.8184 101.581 49.6137L100.11 51.0054C98.7581 49.7727 97.1675 49.1763 95.2588 49.1763C93.9863 49.1763 92.8332 49.4546 91.839 49.9716C90.8449 50.4885 90.0496 51.2043 89.4532 52.1586C88.8567 53.113 88.5783 54.1469 88.5783 55.3C88.5783 56.4532 88.8567 57.4871 89.4532 58.4017C90.0496 59.3163 90.8052 60.0718 91.839 60.5888C92.8332 61.1057 93.9863 61.384 95.2588 61.384C96.7699 61.384 98.0423 61.0262 99.1558 60.3502V55.1807H99.1955Z" fill="url(#paint0_linear)"/>
<path d="M116.016 63.2133L112.397 58.3222C111.96 58.362 111.602 58.3619 111.363 58.3619H107.228V63.2133H104.842V47.3471H111.363C113.511 47.3471 115.221 47.8243 116.453 48.8184C117.686 49.8125 118.322 51.1645 118.322 52.8744C118.322 54.1071 118.004 55.141 117.368 56.0158C116.732 56.8907 115.817 57.4871 114.664 57.8848L118.64 63.2133H116.016ZM114.743 55.5387C115.539 54.9024 115.936 54.0276 115.936 52.8744C115.936 51.7212 115.539 50.8464 114.743 50.2499C113.948 49.6535 112.795 49.3353 111.284 49.3353H107.228V56.493H111.284C112.795 56.4532 113.948 56.1351 114.743 55.5387Z" fill="url(#paint1_linear)"/>
<path d="M123.969 62.3384C122.617 61.6227 121.543 60.6683 120.788 59.4356C120.032 58.2029 119.635 56.8111 119.635 55.3001C119.635 53.789 120.032 52.3972 120.788 51.1645C121.543 49.9318 122.617 48.9377 123.969 48.2617C125.321 47.5459 126.832 47.188 128.542 47.188C130.212 47.188 131.723 47.5459 133.075 48.2617C134.427 48.9775 135.501 49.9318 136.256 51.1645C137.012 52.3972 137.41 53.789 137.41 55.3398C137.41 56.8907 137.012 58.2824 136.256 59.5151C135.501 60.7479 134.427 61.7022 133.075 62.418C131.723 63.1337 130.212 63.4916 128.542 63.4916C126.872 63.4121 125.321 63.0542 123.969 62.3384ZM131.842 60.5888C132.837 60.0718 133.592 59.3163 134.149 58.4017C134.706 57.4871 134.984 56.4532 134.984 55.3001C134.984 54.1469 134.706 53.113 134.149 52.1984C133.592 51.2838 132.797 50.5283 131.842 50.0113C130.848 49.4944 129.775 49.2161 128.542 49.2161C127.309 49.2161 126.196 49.4944 125.202 50.0113C124.208 50.5283 123.412 51.2838 122.856 52.1984C122.299 53.113 122.021 54.1469 122.021 55.3001C122.021 56.4532 122.299 57.4871 122.856 58.4017C123.412 59.3163 124.208 60.0718 125.202 60.5888C126.196 61.1057 127.309 61.3841 128.542 61.3841C129.775 61.3841 130.848 61.1057 131.842 60.5888Z" fill="url(#paint2_linear)"/>
<path d="M141.585 61.5829C140.352 60.39 139.716 58.6403 139.716 56.3737V47.3471H142.102V56.2942C142.102 59.714 143.652 61.3841 146.794 61.3841C148.305 61.3841 149.498 60.9467 150.293 60.1116C151.088 59.2766 151.526 58.0041 151.526 56.2545V47.3074H153.832V56.334C153.832 58.6006 153.196 60.3502 151.963 61.5432C150.731 62.7361 148.981 63.3326 146.754 63.3326C144.527 63.4121 142.817 62.7759 141.585 61.5829Z" fill="url(#paint3_linear)"/>
<path d="M169.142 48.8184C170.374 49.8125 171.011 51.1645 171.011 52.8744C171.011 54.5843 170.374 55.9363 169.142 56.9304C167.909 57.9245 166.199 58.4017 164.052 58.4017H159.916V63.2133H157.53V47.3471H164.052C166.199 47.3471 167.909 47.8243 169.142 48.8184ZM167.432 55.4989C168.227 54.9024 168.625 53.9878 168.625 52.8744C168.625 51.7212 168.227 50.8464 167.432 50.2499C166.637 49.6535 165.483 49.3353 163.972 49.3353H159.916V56.4532H163.972C165.483 56.4532 166.637 56.1351 167.432 55.4989Z" fill="url(#paint4_linear)"/>
<path fill-rule="evenodd" clip-rule="evenodd" d="M65.8429 43.3913L51.1659 44.3025C53.0271 41.181 54.0935 37.536 54.0935 33.6389C54.0935 22.1222 44.7677 12.7964 33.251 12.7964C21.7343 12.7964 12.4085 22.1222 12.4085 33.6389C12.4085 38.4666 14.0565 42.9066 16.7903 46.4352C5.07971 32.6307 15.1229 5.54517 15.1229 5.54517C22.2772 0.542973 31.0213 9.91821e-05 31.0213 9.91821e-05H67.2776V33.6389C67.2776 37.8462 65.8429 43.3913 65.8429 43.3913Z" fill="url(#paint5_linear)"/>
<path fill-rule="evenodd" clip-rule="evenodd" d="M33.6388 67.2777C15.0648 67.2777 0 52.2129 0 33.6389C0 21.8895 6.01039 11.5555 15.1423 5.54515C9.13192 23.4406 10.935 34.8604 14.0178 41.6851C14.8709 43.7208 16.0342 45.5821 17.4495 47.2301C19.2914 49.4404 20.8231 50.3711 20.8231 50.3711C24.2936 52.9497 28.5978 54.4814 33.251 54.4814C44.7677 54.4814 54.0935 45.1556 54.0935 33.6389C54.0935 24.5651 48.2964 16.868 40.2115 13.9985C57.6804 19.2333 65.8235 43.3719 65.8235 43.3912C61.655 57.2151 48.8199 67.2777 33.6388 67.2777Z" fill="url(#paint6_linear)"/>
<path fill-rule="evenodd" clip-rule="evenodd" d="M46.7647 17.0037C43.934 15.2199 41.239 14.1924 39.0288 13.6107C37.8267 13.2617 36.5858 13.0291 35.3062 12.8933C34.1817 12.777 33.5419 12.7964 33.5419 12.7964H33.5613C33.4643 12.7964 33.348 12.7964 33.251 12.7964C21.7344 12.7964 12.4085 22.1222 12.4085 33.6389C12.4085 36.2757 12.8933 38.8156 13.8045 41.1422C13.7851 41.1034 13.7851 41.084 13.7851 41.084C12.3504 38.0594 11.633 33.5419 11.4779 32.4368C12.0983 20.9395 21.618 11.827 33.251 11.827C33.348 11.827 33.4449 11.827 33.5419 11.827C33.5613 11.827 33.5806 11.827 33.6 11.827C36.1399 11.8657 38.5828 12.3505 40.8319 13.1842C58.6498 18.9425 65.6296 40.4248 65.6296 40.4248L65.8429 43.3912C60.2784 28.6173 53.0078 20.9589 46.7647 17.0037Z" fill="url(#paint7_linear)"/>
<path fill-rule="evenodd" clip-rule="evenodd" d="M11.4973 32.049C11.4973 32.0297 11.4973 32.0297 11.4973 32.0103C11.7882 35.3063 12.6412 38.1176 13.2423 39.7656C13.4168 40.4442 13.6494 41.0259 13.9015 41.4136C13.9015 41.4136 13.6107 40.8126 13.2423 39.7656C13.1066 39.2421 12.9902 38.6799 12.8933 38.0788C14.9291 47.4628 23.2661 54.4814 33.2511 54.4814C44.7678 54.4814 54.0936 45.1556 54.0936 33.6389C54.0936 22.1804 44.8259 12.8739 33.3868 12.7964C33.445 12.7964 33.5031 12.7964 33.5419 12.7964C41.9565 12.7964 47.9475 17.6629 49.4598 19.0394C52.9497 22.8977 55.063 28.0357 55.063 33.6389C55.063 45.6791 45.2913 55.4508 33.2511 55.4508C23.2273 55.4508 14.7934 48.7037 12.2341 39.4942C7.23189 26.4264 13.6301 7.71664 13.6301 7.71664L15.1423 5.54515C11.1096 17.2557 10.8769 26.2519 11.4973 32.049Z" fill="url(#paint8_linear)"/>
<path fill-rule="evenodd" clip-rule="evenodd" d="M67.2582 32.747C67.2582 33.1154 67.2582 33.4644 67.2582 33.8328C67.2001 37.1482 66.696 40.3085 65.8235 43.2749L65.6102 40.4248L65.5909 40.5024C66.0562 38.3309 66.2888 36.0624 66.2888 33.7552C66.2888 33.4644 66.2888 33.1736 66.2694 32.9021L66.2888 32.9215L66.2307 0.96949H33.5419H33.4449C26.4263 0.988876 19.9312 3.21854 14.6188 6.97989L14.677 6.9411L15.1229 5.56453C19.6404 2.53995 24.9334 0.581718 30.653 0.0582352H67.2001L67.2582 32.747ZM0.775535 33.7358C0.775535 51.8252 15.4525 66.5022 33.5419 66.5022C48.8393 66.5022 61.6744 56.0325 65.2806 41.8596V41.8983L65.8235 43.3137C61.6162 57.6223 48.7424 67.2777 33.8327 67.2777C15.0842 67.2777 0 52.5232 0 33.8328C0 22.064 6.01039 11.6525 15.1229 5.56453L13.63 7.71664C5.81651 13.7076 0.775535 23.1304 0.775535 33.7358Z" fill="url(#paint9_linear)"/>
<path fill-rule="evenodd" clip-rule="evenodd" d="M44.9991 21.7917V46.8027C44.9991 46.8027 42.7889 24.3122 19.9882 21.7917H44.9991Z" fill="#052B60"/>
<path fill-rule="evenodd" clip-rule="evenodd" d="M44.9991 21.7917V43.7006C44.9991 43.7006 42.2848 24.2347 23.0903 21.7917H44.9991Z" fill="url(#paint10_linear)"/>
<g opacity="0.302">
<g opacity="0.302">
<path opacity="0.302" fill-rule="evenodd" clip-rule="evenodd" d="M44.9991 21.7917V43.119L44.0297 39.8423V22.7612L44.9991 21.7917Z" fill="#05B3CD"/>
</g>
</g>
<g opacity="0.3">
<g opacity="0.3">
<path opacity="0.3" fill-rule="evenodd" clip-rule="evenodd" d="M44.9991 21.7917L44.0297 22.7612H27.6466C27.6272 22.7612 25.6883 22.1213 23.2648 21.8305L23.0903 21.7917H44.9991Z" fill="#007FF6"/>
</g>
</g>
<path d="M3.60877 78.6277C4.69562 78.6277 5.52923 78.902 6.10958 79.4507C6.68994 79.9889 6.98012 80.7908 6.98012 81.8566V87.0165H5.90382V85.7186C5.65057 86.1512 5.27598 86.4889 4.78004 86.7316C4.29465 86.9743 3.71429 87.0956 3.03896 87.0956C2.11039 87.0956 1.37175 86.874 0.823053 86.4309C0.274351 85.9877 0 85.402 0 84.674C0 83.967 0.253247 83.3972 0.759741 82.9645C1.27679 82.5319 2.09456 82.3156 3.21307 82.3156H5.85634V81.8091C5.85634 81.0916 5.65585 80.5481 5.25488 80.1788C4.8539 79.799 4.26827 79.609 3.49797 79.609C2.97038 79.609 2.46388 79.6987 1.97849 79.8781C1.4931 80.0469 1.0763 80.2843 0.728085 80.5904L0.221591 79.7515C0.64367 79.3927 1.15016 79.1184 1.74107 78.9284C2.33198 78.7279 2.95455 78.6277 3.60877 78.6277ZM3.21307 86.2093C3.84619 86.2093 4.38962 86.0668 4.84335 85.7819C5.29708 85.4865 5.63475 85.0644 5.85634 84.5157V83.1545H3.24473C1.82021 83.1545 1.10796 83.6504 1.10796 84.6423C1.10796 85.1277 1.29262 85.5128 1.66193 85.7977C2.03125 86.0721 2.5483 86.2093 3.21307 86.2093Z" fill="#303032"/>
<path d="M15.8597 79.6882H11.0955V87.0165H9.97173V78.691H15.8597V79.6882Z" fill="#303032"/>
<path d="M24.3782 83.202H17.4139C17.4773 84.0672 17.8096 84.7689 18.4111 85.3071C19.0126 85.8347 19.7723 86.0985 20.6903 86.0985C21.2074 86.0985 21.6822 86.0088 22.1148 85.8294C22.5475 85.6395 22.9221 85.3651 23.2386 85.0063L23.8717 85.7344C23.5024 86.1776 23.0381 86.5153 22.4789 86.7474C21.9302 86.9796 21.3235 87.0956 20.6587 87.0956C19.804 87.0956 19.0442 86.9163 18.3795 86.5575C17.7252 86.1882 17.2135 85.6817 16.8441 85.038C16.4748 84.3943 16.2902 83.6662 16.2902 82.8537C16.2902 82.0412 16.4643 81.3132 16.8125 80.6695C17.1713 80.0258 17.6566 79.5246 18.2687 79.1658C18.8912 78.8071 19.5877 78.6277 20.3579 78.6277C21.1282 78.6277 21.8194 78.8071 22.4314 79.1658C23.0434 79.5246 23.5235 80.0258 23.8717 80.6695C24.22 81.3026 24.3941 82.0307 24.3941 82.8537L24.3782 83.202ZM20.3579 79.5932C19.556 79.5932 18.8807 79.8517 18.332 80.3688C17.7938 80.8753 17.4878 81.54 17.4139 82.3631H23.3178C23.2439 81.54 22.9326 80.8753 22.3839 80.3688C21.8458 79.8517 21.1704 79.5932 20.3579 79.5932Z" fill="#303032"/>
<path d="M26.8817 78.691H28.0054V82.3789H33.2445V78.691H34.3683V87.0165H33.2445V83.3444H28.0054V87.0165H26.8817V78.691Z" fill="#303032"/>
<path d="M43.4188 79.6882H40.269V87.0165H39.1452V79.6882H35.9955V78.691H43.4188V79.6882Z" fill="#303032"/>
<path d="M48.1393 87.0956C47.3163 87.0956 46.5776 86.9163 45.9234 86.5575C45.2797 86.1987 44.7732 85.6975 44.4039 85.0538C44.0346 84.3996 43.8499 83.6662 43.8499 82.8537C43.8499 82.0412 44.0346 81.3132 44.4039 80.6695C44.7732 80.0258 45.2797 79.5246 45.9234 79.1658C46.5776 78.8071 47.3163 78.6277 48.1393 78.6277C48.8568 78.6277 49.4952 78.7701 50.0545 79.055C50.6243 79.3294 51.0728 79.7356 51.3999 80.2738L50.561 80.8436C50.2866 80.4321 49.9384 80.1261 49.5163 79.9256C49.0943 79.7145 48.6353 79.609 48.1393 79.609C47.5379 79.609 46.9944 79.7462 46.509 80.0205C46.0342 80.2843 45.6596 80.6642 45.3853 81.1602C45.1215 81.6561 44.9896 82.2206 44.9896 82.8537C44.9896 83.4974 45.1215 84.0672 45.3853 84.5632C45.6596 85.0486 46.0342 85.4284 46.509 85.7028C46.9944 85.9666 47.5379 86.0985 48.1393 86.0985C48.6353 86.0985 49.0943 85.9982 49.5163 85.7977C49.9384 85.5973 50.2866 85.2912 50.561 84.8797L51.3999 85.4495C51.0728 85.9877 50.6243 86.3992 50.0545 86.6841C49.4847 86.9585 48.8463 87.0956 48.1393 87.0956Z" fill="#303032"/>
<path d="M59.2776 79.6882H56.1279V87.0165H55.0041V79.6882H51.8543V78.691H59.2776V79.6882Z" fill="#303032"/>
<path d="M66.2048 82.7113C67.3339 82.9751 67.8984 83.6557 67.8984 84.7531C67.8984 85.4812 67.6293 86.0404 67.0912 86.4309C66.553 86.8213 65.7511 87.0165 64.6853 87.0165H60.9024V78.691H64.5745C65.5242 78.691 66.2681 78.8757 66.8063 79.245C67.3444 79.6143 67.6135 80.1419 67.6135 80.8278C67.6135 81.2815 67.4869 81.6719 67.2336 81.999C66.9909 82.3156 66.648 82.553 66.2048 82.7113ZM61.9946 82.3947H64.4954C65.1391 82.3947 65.6297 82.2734 65.9674 82.0307C66.3156 81.788 66.4897 81.4345 66.4897 80.9702C66.4897 80.5059 66.3156 80.1577 65.9674 79.9256C65.6297 79.6934 65.1391 79.5774 64.4954 79.5774H61.9946V82.3947ZM64.6378 86.1301C65.3554 86.1301 65.8935 86.0141 66.2523 85.7819C66.6111 85.5498 66.7904 85.1857 66.7904 84.6898C66.7904 84.1938 66.6269 83.8298 66.2998 83.5977C65.9727 83.355 65.4556 83.2336 64.7486 83.2336H61.9946V86.1301H64.6378Z" fill="#303032"/>
<path d="M73.9668 87.0956C73.1649 87.0956 72.442 86.9163 71.7984 86.5575C71.1547 86.1882 70.6482 85.6817 70.2789 85.038C69.9096 84.3943 69.7249 83.6662 69.7249 82.8537C69.7249 82.0412 69.9096 81.3132 70.2789 80.6695C70.6482 80.0258 71.1547 79.5246 71.7984 79.1658C72.442 78.8071 73.1649 78.6277 73.9668 78.6277C74.7688 78.6277 75.4916 78.8071 76.1352 79.1658C76.7789 79.5246 77.2801 80.0258 77.6389 80.6695C78.0082 81.3132 78.1929 82.0412 78.1929 82.8537C78.1929 83.6662 78.0082 84.3943 77.6389 85.038C77.2801 85.6817 76.7789 86.1882 76.1352 86.5575C75.4916 86.9163 74.7688 87.0956 73.9668 87.0956ZM73.9668 86.0985C74.5577 86.0985 75.0853 85.9666 75.5496 85.7028C76.0244 85.4284 76.3938 85.0433 76.6576 84.5473C76.9214 84.0514 77.0533 83.4869 77.0533 82.8537C77.0533 82.2206 76.9214 81.6561 76.6576 81.1602C76.3938 80.6642 76.0244 80.2843 75.5496 80.0205C75.0853 79.7462 74.5577 79.609 73.9668 79.609C73.3759 79.609 72.843 79.7462 72.3682 80.0205C71.9039 80.2843 71.5346 80.6642 71.2602 81.1602C70.9964 81.6561 70.8645 82.2206 70.8645 82.8537C70.8645 83.4869 70.9964 84.0514 71.2602 84.5473C71.5346 85.0433 71.9039 85.4284 72.3682 85.7028C72.843 85.9666 73.3759 86.0985 73.9668 86.0985Z" fill="#303032"/>
<path d="M84.7371 78.691H85.8609V85.3071L91.4165 78.691H92.4136V87.0165H91.2899V80.4004L85.7501 87.0165H84.7371V78.691Z" fill="#303032"/>
<path d="M95.6343 78.691H96.758V82.3789H101.997V78.691H103.121V87.0165H101.997V83.3444H96.758V87.0165H95.6343V78.691Z" fill="#303032"/>
<path d="M112.171 79.6882H109.022V87.0165H107.898V79.6882H104.748V78.691H112.171V79.6882Z" fill="#303032"/>
<path d="M120.691 83.202H113.726C113.79 84.0672 114.122 84.7689 114.723 85.3071C115.325 85.8347 116.085 86.0985 117.003 86.0985C117.52 86.0985 117.995 86.0088 118.427 85.8294C118.86 85.6395 119.234 85.3651 119.551 85.0063L120.184 85.7344C119.815 86.1776 119.351 86.5153 118.791 86.7474C118.243 86.9796 117.636 87.0956 116.971 87.0956C116.116 87.0956 115.357 86.9163 114.692 86.5575C114.038 86.1882 113.526 85.6817 113.157 85.038C112.787 84.3943 112.603 83.6662 112.603 82.8537C112.603 82.0412 112.777 81.3132 113.125 80.6695C113.484 80.0258 113.969 79.5246 114.581 79.1658C115.204 78.8071 115.9 78.6277 116.67 78.6277C117.441 78.6277 118.132 78.8071 118.744 79.1658C119.356 79.5246 119.836 80.0258 120.184 80.6695C120.532 81.3026 120.706 82.0307 120.706 82.8537L120.691 83.202ZM116.67 79.5932C115.868 79.5932 115.193 79.8517 114.644 80.3688C114.106 80.8753 113.8 81.54 113.726 82.3631H119.63C119.556 81.54 119.245 80.8753 118.696 80.3688C118.158 79.8517 117.483 79.5932 116.67 79.5932Z" fill="#303032"/>
<path d="M127.483 78.6277C128.264 78.6277 128.971 78.8071 129.604 79.1658C130.237 79.5141 130.733 80.01 131.092 80.6537C131.451 81.2973 131.63 82.0307 131.63 82.8537C131.63 83.6874 131.451 84.426 131.092 85.0697C130.733 85.7133 130.237 86.2145 129.604 86.5733C128.982 86.9215 128.275 87.0956 127.483 87.0956C126.808 87.0956 126.196 86.9585 125.647 86.6841C125.109 86.3992 124.666 85.9877 124.318 85.4495V90.0871H123.194V78.691H124.27V80.3371C124.608 79.7884 125.051 79.3663 125.6 79.0709C126.159 78.7754 126.787 78.6277 127.483 78.6277ZM127.404 86.0985C127.985 86.0985 128.512 85.9666 128.987 85.7028C129.462 85.4284 129.831 85.0433 130.095 84.5473C130.369 84.0514 130.507 83.4869 130.507 82.8537C130.507 82.2206 130.369 81.6614 130.095 81.176C129.831 80.68 129.462 80.2949 128.987 80.0205C128.512 79.7462 127.985 79.609 127.404 79.609C126.813 79.609 126.28 79.7462 125.806 80.0205C125.341 80.2949 124.972 80.68 124.698 81.176C124.434 81.6614 124.302 82.2206 124.302 82.8537C124.302 83.4869 124.434 84.0514 124.698 84.5473C124.972 85.0433 125.341 85.4284 125.806 85.7028C126.28 85.9666 126.813 86.0985 127.404 86.0985Z" fill="#303032"/>
<path d="M134.045 78.691H135.169V82.3789H140.408V78.691H141.531V87.0165H140.408V83.3444H135.169V87.0165H134.045V78.691Z" fill="#303032"/>
<path d="M152.006 83.202H145.042C145.105 84.0672 145.438 84.7689 146.039 85.3071C146.641 85.8347 147.401 86.0985 148.319 86.0985C148.836 86.0985 149.31 86.0088 149.743 85.8294C150.176 85.6395 150.55 85.3651 150.867 85.0063L151.5 85.7344C151.131 86.1776 150.666 86.5153 150.107 86.7474C149.558 86.9796 148.952 87.0956 148.287 87.0956C147.432 87.0956 146.672 86.9163 146.008 86.5575C145.353 86.1882 144.842 85.6817 144.472 85.038C144.103 84.3943 143.918 83.6662 143.918 82.8537C143.918 82.0412 144.092 81.3132 144.441 80.6695C144.799 80.0258 145.285 79.5246 145.897 79.1658C146.519 78.8071 147.216 78.6277 147.986 78.6277C148.756 78.6277 149.448 78.8071 150.06 79.1658C150.672 79.5246 151.152 80.0258 151.5 80.6695C151.848 81.3026 152.022 82.0307 152.022 82.8537L152.006 83.202ZM147.986 79.5932C147.184 79.5932 146.509 79.8517 145.96 80.3688C145.422 80.8753 145.116 81.54 145.042 82.3631H150.946C150.872 81.54 150.561 80.8753 150.012 80.3688C149.474 79.8517 148.799 79.5932 147.986 79.5932Z" fill="#303032"/>
<path d="M159.995 79.6882H156.845V87.0165H155.722V79.6882H152.572V78.691H159.995V79.6882Z" fill="#303032"/>
<path d="M160.6 82.2365H164.747V83.2178H160.6V82.2365Z" fill="#303032"/>
<path d="M176.6 78.691V87.0165H175.571V80.4321L172.199 86.0035H171.693L168.322 80.4162V87.0165H167.293V78.691H168.432L171.962 84.6898L175.555 78.691H176.6Z" fill="#303032"/>
<path d="M182.662 78.6277C183.749 78.6277 184.583 78.902 185.163 79.4507C185.744 79.9889 186.034 80.7908 186.034 81.8566V87.0165H184.957V85.7186C184.704 86.1512 184.33 86.4889 183.834 86.7316C183.348 86.9743 182.768 87.0956 182.093 87.0956C181.164 87.0956 180.425 86.874 179.877 86.4309C179.328 85.9877 179.054 85.402 179.054 84.674C179.054 83.967 179.307 83.3972 179.813 82.9645C180.33 82.5319 181.148 82.3156 182.267 82.3156H184.91V81.8091C184.91 81.0916 184.709 80.5481 184.308 80.1788C183.907 79.799 183.322 79.609 182.552 79.609C182.024 79.609 181.517 79.6987 181.032 79.8781C180.547 80.0469 180.13 80.2843 179.782 80.5904L179.275 79.7515C179.697 79.3927 180.204 79.1184 180.795 78.9284C181.386 78.7279 182.008 78.6277 182.662 78.6277ZM182.267 86.2093C182.9 86.2093 183.443 86.0668 183.897 85.7819C184.351 85.4865 184.688 85.0644 184.91 84.5157V83.1545H182.298C180.874 83.1545 180.162 83.6504 180.162 84.6423C180.162 85.1277 180.346 85.5128 180.715 85.7977C181.085 86.0721 181.602 86.2093 182.267 86.2093Z" fill="#303032"/>
<path d="M193.315 78.6277C194.096 78.6277 194.802 78.8071 195.436 79.1658C196.069 79.5141 196.565 80.01 196.923 80.6537C197.282 81.2973 197.462 82.0307 197.462 82.8537C197.462 83.6874 197.282 84.426 196.923 85.0697C196.565 85.7133 196.069 86.2145 195.436 86.5733C194.813 86.9215 194.106 87.0956 193.315 87.0956C192.639 87.0956 192.027 86.9585 191.479 86.6841C190.94 86.3992 190.497 85.9877 190.149 85.4495V90.0871H189.025V78.691H190.102V80.3371C190.439 79.7884 190.882 79.3663 191.431 79.0709C191.99 78.7754 192.618 78.6277 193.315 78.6277ZM193.236 86.0985C193.816 86.0985 194.343 85.9666 194.818 85.7028C195.293 85.4284 195.662 85.0433 195.926 84.5473C196.201 84.0514 196.338 83.4869 196.338 82.8537C196.338 82.2206 196.201 81.6614 195.926 81.176C195.662 80.68 195.293 80.2949 194.818 80.0205C194.343 79.7462 193.816 79.609 193.236 79.609C192.645 79.609 192.112 79.7462 191.637 80.0205C191.173 80.2949 190.803 80.68 190.529 81.176C190.265 81.6614 190.133 82.2206 190.133 82.8537C190.133 83.4869 190.265 84.0514 190.529 84.5473C190.803 85.0433 191.173 85.4284 191.637 85.7028C192.112 85.9666 192.645 86.0985 193.236 86.0985Z" fill="#303032"/>
<path d="M202.899 83.3128H201V87.0165H199.876V78.691H201V82.3473H202.915L205.843 78.691H207.062L203.786 82.7271L207.299 87.0165H205.97L202.899 83.3128Z" fill="#303032"/>
<path d="M216.06 83.202H209.096C209.159 84.0672 209.492 84.7689 210.093 85.3071C210.694 85.8347 211.454 86.0985 212.372 86.0985C212.889 86.0985 213.364 86.0088 213.797 85.8294C214.229 85.6395 214.604 85.3651 214.921 85.0063L215.554 85.7344C215.184 86.1776 214.72 86.5153 214.161 86.7474C213.612 86.9796 213.005 87.0956 212.341 87.0956C211.486 87.0956 210.726 86.9163 210.061 86.5575C209.407 86.1882 208.895 85.6817 208.526 85.038C208.157 84.3943 207.972 83.6662 207.972 82.8537C207.972 82.0412 208.146 81.3132 208.494 80.6695C208.853 80.0258 209.339 79.5246 209.951 79.1658C210.573 78.8071 211.27 78.6277 212.04 78.6277C212.81 78.6277 213.501 78.8071 214.113 79.1658C214.725 79.5246 215.205 80.0258 215.554 80.6695C215.902 81.3026 216.076 82.0307 216.076 82.8537L216.06 83.202ZM212.04 79.5932C211.238 79.5932 210.563 79.8517 210.014 80.3688C209.476 80.8753 209.17 81.54 209.096 82.3631H215C214.926 81.54 214.615 80.8753 214.066 80.3688C213.528 79.8517 212.852 79.5932 212.04 79.5932Z" fill="#303032"/>
<path d="M224.049 79.6882H220.899V87.0165H219.775V79.6882H216.626V78.691H224.049V79.6882Z" fill="#303032"/>
<path d="M225.674 78.691H226.798V85.3071L232.353 78.691H233.35V87.0165H232.227V80.4004L226.687 87.0165H225.674V78.691Z" fill="#303032"/>
<path d="M236.571 78.691H237.695V82.3789H242.934V78.691H244.058V87.0165H242.934V83.3444H237.695V87.0165H236.571V78.691Z" fill="#303032"/>
<path d="M253.14 79.6882H248.375V87.0165H247.252V78.691H253.14V79.6882Z" fill="#303032"/>
<path d="M257.629 78.6277C258.715 78.6277 259.549 78.902 260.129 79.4507C260.71 79.9889 261 80.7908 261 81.8566V87.0165H259.924V85.7186C259.67 86.1512 259.296 86.4889 258.8 86.7316C258.315 86.9743 257.734 87.0956 257.059 87.0956C256.13 87.0956 255.392 86.874 254.843 86.4309C254.294 85.9877 254.02 85.402 254.02 84.674C254.02 83.967 254.273 83.3972 254.78 82.9645C255.297 82.5319 256.114 82.3156 257.233 82.3156H259.876V81.8091C259.876 81.0916 259.676 80.5481 259.275 80.1788C258.874 79.799 258.288 79.609 257.518 79.609C256.99 79.609 256.484 79.6987 255.998 79.8781C255.513 80.0469 255.096 80.2843 254.748 80.5904L254.241 79.7515C254.664 79.3927 255.17 79.1184 255.761 78.9284C256.352 78.7279 256.974 78.6277 257.629 78.6277ZM257.233 86.2093C257.866 86.2093 258.409 86.0668 258.863 85.7819C259.317 85.4865 259.655 85.0644 259.876 84.5157V83.1545H257.265C255.84 83.1545 255.128 83.6504 255.128 84.6423C255.128 85.1277 255.312 85.5128 255.682 85.7977C256.051 86.0721 256.568 86.2093 257.233 86.2093Z" fill="#303032"/>
<defs>
<linearGradient id="paint0_linear" x1="93.9466" y1="63.3946" x2="93.9466" y2="47.1656" gradientUnits="userSpaceOnUse">
<stop stop-color="#213CC4"/>
<stop offset="1" stop-color="#0999EB"/>
</linearGradient>
<linearGradient id="paint1_linear" x1="111.733" y1="63.2133" x2="111.733" y2="47.3469" gradientUnits="userSpaceOnUse">
<stop stop-color="#213CC4"/>
<stop offset="1" stop-color="#0999EB"/>
</linearGradient>
<linearGradient id="paint2_linear" x1="128.518" y1="63.3946" x2="128.518" y2="47.1656" gradientUnits="userSpaceOnUse">
<stop stop-color="#213CC4"/>
<stop offset="1" stop-color="#0999EB"/>
</linearGradient>
<linearGradient id="paint3_linear" x1="146.769" y1="63.3947" x2="146.769" y2="47.347" gradientUnits="userSpaceOnUse">
<stop stop-color="#213CC4"/>
<stop offset="1" stop-color="#0999EB"/>
</linearGradient>
<linearGradient id="paint4_linear" x1="164.269" y1="63.2133" x2="164.269" y2="47.3469" gradientUnits="userSpaceOnUse">
<stop stop-color="#213CC4"/>
<stop offset="1" stop-color="#0999EB"/>
</linearGradient>
<linearGradient id="paint5_linear" x1="39.1987" y1="0.000118666" x2="39.1987" y2="54.4814" gradientUnits="userSpaceOnUse">
<stop stop-color="#213CC4"/>
<stop offset="1" stop-color="#09AEEB"/>
</linearGradient>
<linearGradient id="paint6_linear" x1="33.6752" y1="7.25045e-05" x2="33.6752" y2="67.2777" gradientUnits="userSpaceOnUse">
<stop stop-color="#D2D2D2"/>
<stop offset="1" stop-color="#CCCED1"/>
</linearGradient>
<linearGradient id="paint7_linear" x1="38.6088" y1="56.4202" x2="38.6088" y2="11.827" gradientUnits="userSpaceOnUse">
<stop stop-color="#000133" stop-opacity="0.2"/>
<stop offset="1" stop-color="#8BE0F2" stop-opacity="0.4"/>
</linearGradient>
<linearGradient id="paint8_linear" x1="32.6937" y1="55.4508" x2="32.6937" y2="5.54862" gradientUnits="userSpaceOnUse">
<stop stop-opacity="0.1"/>
<stop offset="1" stop-color="white" stop-opacity="0.7"/>
</linearGradient>
<linearGradient id="paint9_linear" x1="117.106" y1="-0.0968743" x2="117.106" y2="67.5201" gradientUnits="userSpaceOnUse">
<stop stop-opacity="0.1"/>
<stop offset="1" stop-color="white" stop-opacity="0.5"/>
</linearGradient>
<linearGradient id="paint10_linear" x1="34.0447" y1="43.7006" x2="34.0447" y2="21.7917" gradientUnits="userSpaceOnUse">
<stop stop-color="#012960"/>
<stop offset="1" stop-color="#054193"/>
</linearGradient>
</defs>
</svg>
