<svg width="12" height="18" viewBox="0 0 12 18" fill="none" xmlns="http://www.w3.org/2000/svg">
<path d="M10.6667 0H1.33333C0.979711 0 0.640573 0.135459 0.390525 0.376577C0.140476 0.617695 0 0.944722 0 1.28571V16.7143C0 17.0553 0.140476 17.3823 0.390525 17.6234C0.640573 17.8645 0.979711 18 1.33333 18H10.6667C11.0203 18 11.3594 17.8645 11.6095 17.6234C11.8595 17.3823 12 17.0553 12 16.7143V1.28571C12 0.944722 11.8595 0.617695 11.6095 0.376577C11.3594 0.135459 11.0203 0 10.6667 0ZM6.66667 16.7143H5.33333V15.4286H6.66667V16.7143ZM1.33333 14.1429V1.28571H10.6667V14.1429H1.33333Z" fill="#FF6D2A"/>
</svg>
