<svg width="48" height="61" viewBox="0 0 48 61" fill="none" xmlns="http://www.w3.org/2000/svg">
<path d="M46.9776 0H1.02312C0.457676 0 0 0.455467 0 1.01667V57.2763C0 57.8375 0.457676 58.293 1.02312 58.293H3.45951V61H5.50575V58.293H42.4943V61H44.5405V58.293H46.9769C47.5423 58.293 48 57.8375 48 57.2763V1.01667C48.0007 0.455467 47.5423 0 46.9776 0ZM45.9544 2.03333V13.3712H2.04624V2.03333H45.9544ZM2.04624 56.2596V15.4045H45.9538V56.2596H2.04624Z" fill="#FF6D2A"/>
<path d="M24.0003 19.5654C14.9744 19.5654 7.63043 26.863 7.63043 35.8321C7.63043 44.8011 14.9744 52.0987 24.0003 52.0987C33.0263 52.0987 40.3703 44.8011 40.3703 35.8321C40.3703 26.863 33.0263 19.5654 24.0003 19.5654ZM24.0003 50.0654C16.1019 50.0654 9.67667 43.6801 9.67667 35.8321C9.67667 27.9841 16.1019 21.5987 24.0003 21.5987C31.8988 21.5987 38.324 27.9841 38.324 35.8321C38.324 43.6801 31.8988 50.0654 24.0003 50.0654Z" fill="#FF6D2A"/>
<path d="M24.0003 23.7134C17.2757 23.7134 11.8054 29.1499 11.8054 35.8321C11.8054 42.5136 17.2764 47.9501 24.0003 47.9501C30.7243 47.9501 36.1959 42.5143 36.1959 35.8321C36.1959 29.1499 30.725 23.7134 24.0003 23.7134ZM24.0003 45.9167C18.4039 45.9167 13.8517 41.3926 13.8517 35.8321C13.8517 30.2709 18.4046 25.7467 24.0003 25.7467C29.5961 25.7467 34.149 30.2709 34.149 35.8321C34.1497 41.3926 29.5968 45.9167 24.0003 45.9167Z" fill="#FF6D2A"/>
<path d="M7.09295 5.77806H5.04671V9.6258H7.09295V5.77806Z" fill="#FF6D2A"/>
<path d="M11.98 5.77806H9.93381V9.6258H11.98V5.77806Z" fill="#FF6D2A"/>
<path d="M16.8672 5.77806H14.8209V9.6258H16.8672V5.77806Z" fill="#FF6D2A"/>
<path d="M41.9309 6.6856H33.6941V8.71893H41.9309V6.6856Z" fill="#FF6D2A"/>
</svg>
