<svg width="67" height="62" viewBox="0 0 67 62" fill="none" xmlns="http://www.w3.org/2000/svg">
<path d="M65.3367 1H1.66327C1.29714 1 1 1.29867 1 1.66667V57.6667C1 58.0347 1.29714 58.3333 1.66327 58.3333H65.3367C65.7029 58.3333 66 58.0347 66 57.6667V1.66667C66 1.29867 65.7029 1 65.3367 1ZM64.6735 57H2.32653V2.33333H64.6735V57Z" fill="#FF6D2A"/>
<path d="M14.9286 59.6667H9.62245C9.25633 59.6667 8.95918 59.9653 8.95918 60.3333C8.95918 60.7013 9.25633 61 9.62245 61H14.9286C15.2947 61 15.5918 60.7013 15.5918 60.3333C15.5918 59.9653 15.2947 59.6667 14.9286 59.6667Z" fill="#FF6D2A"/>
<path d="M57.3775 59.6667H52.0714C51.7053 59.6667 51.4082 59.9653 51.4082 60.3333C51.4082 60.7013 51.7053 61 52.0714 61H57.3775C57.7437 61 58.0408 60.7013 58.0408 60.3333C58.0408 59.9653 57.7437 59.6667 57.3775 59.6667Z" fill="#FF6D2A"/>
<path d="M6.96939 53H60.0306C60.3967 53 60.6939 52.7013 60.6939 52.3333V17.6667C60.6939 17.2987 60.3967 17 60.0306 17H6.96939C6.60327 17 6.30612 17.2987 6.30612 17.6667V52.3333C6.30612 52.7013 6.60327 53 6.96939 53ZM7.63265 18.3333H59.3673V51.6667H7.63265V18.3333Z" fill="#FF6D2A"/>
<path d="M49.4184 22.3333H17.5816C17.2155 22.3333 16.9184 22.632 16.9184 23C16.9184 23.368 17.2155 23.6667 17.5816 23.6667H49.4184C49.7845 23.6667 50.0816 23.368 50.0816 23C50.0816 22.632 49.7845 22.3333 49.4184 22.3333Z" fill="#FF6D2A"/>
<path d="M9.62245 13C11.4504 13 12.9388 11.504 12.9388 9.66667C12.9388 7.82933 11.4504 6.33333 9.62245 6.33333C7.79449 6.33333 6.30612 7.82933 6.30612 9.66667C6.30612 11.504 7.79449 13 9.62245 13ZM9.62245 7.66667C10.7195 7.66667 11.6122 8.564 11.6122 9.66667C11.6122 10.7693 10.7195 11.6667 9.62245 11.6667C8.52541 11.6667 7.63265 10.7693 7.63265 9.66667C7.63265 8.564 8.52541 7.66667 9.62245 7.66667Z" fill="#FF6D2A"/>
<path d="M57.3775 13C59.2068 13 60.6939 11.504 60.6939 9.66667C60.6939 7.82933 59.2068 6.33333 57.3775 6.33333C55.5483 6.33333 54.0612 7.82933 54.0612 9.66667C54.0612 11.504 55.5483 13 57.3775 13ZM57.3775 7.66667C58.4746 7.66667 59.3673 8.564 59.3673 9.66667C59.3673 10.7693 58.4746 11.6667 57.3775 11.6667C56.2805 11.6667 55.3878 10.7693 55.3878 9.66667C55.3878 8.564 56.2805 7.66667 57.3775 7.66667Z" fill="#FF6D2A"/>
<path d="M46.7653 13C48.5946 13 50.0816 11.504 50.0816 9.66667C50.0816 7.82933 48.5946 6.33333 46.7653 6.33333C44.936 6.33333 43.449 7.82933 43.449 9.66667C43.449 11.504 44.936 13 46.7653 13ZM46.7653 7.66667C47.8623 7.66667 48.7551 8.564 48.7551 9.66667C48.7551 10.7693 47.8623 11.6667 46.7653 11.6667C45.6683 11.6667 44.7755 10.7693 44.7755 9.66667C44.7755 8.564 45.6683 7.66667 46.7653 7.66667Z" fill="#FF6D2A"/>
<path d="M36.1531 13C37.9823 13 39.4694 11.504 39.4694 9.66667C39.4694 7.82933 37.9823 6.33333 36.1531 6.33333C34.3251 6.33333 32.8367 7.82933 32.8367 9.66667C32.8367 11.504 34.3251 13 36.1531 13ZM36.1531 7.66667C37.2501 7.66667 38.1429 8.564 38.1429 9.66667C38.1429 10.7693 37.2501 11.6667 36.1531 11.6667C35.056 11.6667 34.1633 10.7693 34.1633 9.66667C34.1633 8.564 35.056 7.66667 36.1531 7.66667Z" fill="#FF6D2A"/>
<path d="M25.5408 13C27.3688 13 28.8571 11.504 28.8571 9.66667C28.8571 7.82933 27.3688 6.33333 25.5408 6.33333C23.7129 6.33333 22.2245 7.82933 22.2245 9.66667C22.2245 11.504 23.7129 13 25.5408 13ZM25.5408 7.66667C26.6379 7.66667 27.5306 8.564 27.5306 9.66667C27.5306 10.7693 26.6379 11.6667 25.5408 11.6667C24.4438 11.6667 23.551 10.7693 23.551 9.66667C23.551 8.564 24.4438 7.66667 25.5408 7.66667Z" fill="#FF6D2A"/>
<path d="M65.3367 1H1.66327C1.29714 1 1 1.29867 1 1.66667V57.6667C1 58.0347 1.29714 58.3333 1.66327 58.3333H65.3367C65.7029 58.3333 66 58.0347 66 57.6667V1.66667C66 1.29867 65.7029 1 65.3367 1ZM64.6735 57H2.32653V2.33333H64.6735V57Z" stroke="#FF6D2A" stroke-width="0.6"/>
<path d="M14.9286 59.6667H9.62245C9.25633 59.6667 8.95918 59.9653 8.95918 60.3333C8.95918 60.7013 9.25633 61 9.62245 61H14.9286C15.2947 61 15.5918 60.7013 15.5918 60.3333C15.5918 59.9653 15.2947 59.6667 14.9286 59.6667Z" stroke="#FF6D2A" stroke-width="0.6"/>
<path d="M57.3775 59.6667H52.0714C51.7053 59.6667 51.4082 59.9653 51.4082 60.3333C51.4082 60.7013 51.7053 61 52.0714 61H57.3775C57.7437 61 58.0408 60.7013 58.0408 60.3333C58.0408 59.9653 57.7437 59.6667 57.3775 59.6667Z" stroke="#FF6D2A" stroke-width="0.6"/>
<path d="M6.96939 53H60.0306C60.3967 53 60.6939 52.7013 60.6939 52.3333V17.6667C60.6939 17.2987 60.3967 17 60.0306 17H6.96939C6.60327 17 6.30612 17.2987 6.30612 17.6667V52.3333C6.30612 52.7013 6.60327 53 6.96939 53ZM7.63265 18.3333H59.3673V51.6667H7.63265V18.3333Z" stroke="#FF6D2A" stroke-width="0.6"/>
<path d="M49.4184 22.3333H17.5816C17.2155 22.3333 16.9184 22.632 16.9184 23C16.9184 23.368 17.2155 23.6667 17.5816 23.6667H49.4184C49.7845 23.6667 50.0816 23.368 50.0816 23C50.0816 22.632 49.7845 22.3333 49.4184 22.3333Z" stroke="#FF6D2A" stroke-width="0.6"/>
<path d="M9.62245 13C11.4504 13 12.9388 11.504 12.9388 9.66667C12.9388 7.82933 11.4504 6.33333 9.62245 6.33333C7.79449 6.33333 6.30612 7.82933 6.30612 9.66667C6.30612 11.504 7.79449 13 9.62245 13ZM9.62245 7.66667C10.7195 7.66667 11.6122 8.564 11.6122 9.66667C11.6122 10.7693 10.7195 11.6667 9.62245 11.6667C8.52541 11.6667 7.63265 10.7693 7.63265 9.66667C7.63265 8.564 8.52541 7.66667 9.62245 7.66667Z" stroke="#FF6D2A" stroke-width="0.6"/>
<path d="M57.3775 13C59.2068 13 60.6939 11.504 60.6939 9.66667C60.6939 7.82933 59.2068 6.33333 57.3775 6.33333C55.5483 6.33333 54.0612 7.82933 54.0612 9.66667C54.0612 11.504 55.5483 13 57.3775 13ZM57.3775 7.66667C58.4746 7.66667 59.3673 8.564 59.3673 9.66667C59.3673 10.7693 58.4746 11.6667 57.3775 11.6667C56.2805 11.6667 55.3878 10.7693 55.3878 9.66667C55.3878 8.564 56.2805 7.66667 57.3775 7.66667Z" stroke="#FF6D2A" stroke-width="0.6"/>
<path d="M46.7653 13C48.5946 13 50.0816 11.504 50.0816 9.66667C50.0816 7.82933 48.5946 6.33333 46.7653 6.33333C44.936 6.33333 43.449 7.82933 43.449 9.66667C43.449 11.504 44.936 13 46.7653 13ZM46.7653 7.66667C47.8623 7.66667 48.7551 8.564 48.7551 9.66667C48.7551 10.7693 47.8623 11.6667 46.7653 11.6667C45.6683 11.6667 44.7755 10.7693 44.7755 9.66667C44.7755 8.564 45.6683 7.66667 46.7653 7.66667Z" stroke="#FF6D2A" stroke-width="0.6"/>
<path d="M36.1531 13C37.9823 13 39.4694 11.504 39.4694 9.66667C39.4694 7.82933 37.9823 6.33333 36.1531 6.33333C34.3251 6.33333 32.8367 7.82933 32.8367 9.66667C32.8367 11.504 34.3251 13 36.1531 13ZM36.1531 7.66667C37.2501 7.66667 38.1429 8.564 38.1429 9.66667C38.1429 10.7693 37.2501 11.6667 36.1531 11.6667C35.056 11.6667 34.1633 10.7693 34.1633 9.66667C34.1633 8.564 35.056 7.66667 36.1531 7.66667Z" stroke="#FF6D2A" stroke-width="0.6"/>
<path d="M25.5408 13C27.3688 13 28.8571 11.504 28.8571 9.66667C28.8571 7.82933 27.3688 6.33333 25.5408 6.33333C23.7129 6.33333 22.2245 7.82933 22.2245 9.66667C22.2245 11.504 23.7129 13 25.5408 13ZM25.5408 7.66667C26.6379 7.66667 27.5306 8.564 27.5306 9.66667C27.5306 10.7693 26.6379 11.6667 25.5408 11.6667C24.4438 11.6667 23.551 10.7693 23.551 9.66667C23.551 8.564 24.4438 7.66667 25.5408 7.66667Z" stroke="#FF6D2A" stroke-width="0.6"/>
</svg>
