<svg width="48" height="62" viewBox="0 0 48 62" fill="none" xmlns="http://www.w3.org/2000/svg">
<path d="M23.1333 4.13333C23.2667 4.26667 23.4 4.33333 23.6 4.33333C23.6667 4.33333 23.6667 4.33333 23.7333 4.33333C23.8 4.33333 23.8 4.33333 23.8667 4.26667C23.9333 4.26667 23.9333 4.2 24 4.2C24.0667 4.2 24.0667 4.13333 24.1333 4.13333C24.2 4.06667 24.2667 4 24.2667 3.93333C24.2667 3.86667 24.2667 3.73333 24.2667 3.66667C24.2667 3.46667 24.2 3.33333 24.0667 3.2C24.0667 3.2 24 3.13333 23.9333 3.13333C23.9333 3.13333 23.8667 3.06667 23.8 3.06667C23.7333 3.06667 23.7333 3.06667 23.6667 3C23.4667 2.93333 23.2 3 23.0667 3.2L23 3.26667C23 3.33333 22.9333 3.33333 22.9333 3.4C22.9333 3.46667 22.9333 3.46667 22.8667 3.53333C22.8667 3.6 22.8667 3.6 22.8667 3.66667C22.8667 3.73333 22.8667 3.86667 22.9333 3.93333C23 4 23.0667 4.06667 23.1333 4.13333Z" fill="#FF6D2A"/>
<path d="M16.4667 4.13333C16.6 4.26667 16.7333 4.33333 16.9333 4.33333C17.1333 4.33333 17.2667 4.26667 17.4 4.13333C17.4667 4.06667 17.5333 4 17.5333 3.93333C17.5333 3.86667 17.6 3.73333 17.6 3.66667C17.6 3.46667 17.5333 3.33333 17.4 3.2C17.4 3.2 17.3333 3.13333 17.2667 3.13333C17.2 3.13333 17.2 3.06667 17.1333 3.06667C17.0667 3.06667 17.0667 3.06667 17 3C16.8 2.93333 16.5333 3 16.4 3.2C16.3333 3.33333 16.2667 3.46667 16.2667 3.66667C16.2667 3.73333 16.2667 3.86667 16.3333 3.93333C16.3333 4 16.4 4.06667 16.4667 4.13333Z" fill="#FF6D2A"/>
<path d="M26.3333 3.93333C26.3333 4 26.3333 4 26.4 4.06667L26.5333 4.2C26.6 4.2 26.6 4.26667 26.6667 4.26667C26.7333 4.26667 26.7333 4.26667 26.8 4.33333C26.8667 4.33333 26.8667 4.33333 26.9333 4.33333C27 4.33333 27 4.33333 27.0667 4.33333C27.1333 4.33333 27.1333 4.33333 27.2 4.26667C27.2667 4.26667 27.2667 4.2 27.3333 4.2C27.4 4.2 27.4 4.13333 27.4667 4.13333C27.4667 4.06667 27.5333 4.06667 27.5333 4.06667C27.5333 4 27.6 4 27.6 3.93333C27.6 3.86667 27.6 3.86667 27.6667 3.8C27.6667 3.73333 27.6667 3.73333 27.6667 3.66667C27.6667 3.6 27.6667 3.6 27.6667 3.53333C27.6667 3.46667 27.6667 3.46667 27.6 3.4C27.6 3.33333 27.6 3.33333 27.5333 3.26667C27.5333 3.2 27.4667 3.2 27.4667 3.2C27.2 2.93333 26.8 2.93333 26.5333 3.2C26.3333 3.33333 26.2667 3.46667 26.2667 3.66667C26.2667 3.73333 26.2667 3.73333 26.2667 3.8C26.2667 3.86667 26.2667 3.86667 26.3333 3.93333Z" fill="#FF6D2A"/>
<path d="M41.6 5H5.66667C4.93333 5 4.33333 5.6 4.33333 6.33333V56.3333C4.33333 57.0667 4.93333 57.6667 5.66667 57.6667H41.6C42.3333 57.6667 42.9333 57.0667 42.9333 56.3333V6.33333C42.9333 5.6 42.3333 5 41.6 5ZM5.66667 56.3333V6.33333H41.6V56.3333H5.66667Z" fill="#FF6D2A"/>
<path d="M46.9333 13.6667V10.3333C46.9333 9.93333 46.6667 9.66667 46.2667 9.66667V4.33333C46.2667 2.46667 44.8 1 42.9333 1H4.33333C2.46667 1 1 2.46667 1 4.33333V57.6667C1 59.5333 2.46667 61 4.33333 61H42.9333C44.8 61 46.2667 59.5333 46.2667 57.6667V27.6667C46.6667 27.6667 46.9333 27.4 46.9333 27V18.3333C46.9333 17.9333 46.6667 17.6667 46.2667 17.6667V14.3333C46.6667 14.3333 46.9333 14.0667 46.9333 13.6667ZM44.9333 57.6667C44.9333 58.8 44.0667 59.6667 42.9333 59.6667H4.33333C3.2 59.6667 2.33333 58.8 2.33333 57.6667V4.33333C2.33333 3.2 3.2 2.33333 4.33333 2.33333H42.9333C44.0667 2.33333 44.9333 3.2 44.9333 4.33333V57.6667Z" fill="#FF6D2A"/>
<path d="M19.1333 4.13333C19.2 4.2 19.2667 4.26667 19.3333 4.26667C19.4 4.26667 19.5333 4.33333 19.6 4.33333H20.9333C21.1333 4.33333 21.2667 4.26667 21.4 4.13333C21.4667 4.06667 21.5333 4 21.5333 3.93333C21.5333 3.86667 21.6 3.73333 21.6 3.66667C21.6 3.46667 21.5333 3.33333 21.4 3.2C21.4 3.2 21.3333 3.13333 21.2667 3.13333C21.2 3.13333 21.2 3.06667 21.1333 3.06667C21.0667 3.06667 21.0667 3.06667 21 3C20.9333 3 20.9333 3 20.8667 3H19.5333C19.4667 3 19.3333 3 19.2667 3.06667C19.2 3.06667 19.1333 3.13333 19.0667 3.2C19 3.26667 18.9333 3.33333 18.9333 3.4C18.9333 3.46667 18.9333 3.6 18.9333 3.66667C18.9333 3.73333 18.9333 3.86667 19 3.93333C19 4 19.0667 4.06667 19.1333 4.13333Z" fill="#FF6D2A"/>
<path d="M23.1333 4.13333C23.2667 4.26667 23.4 4.33333 23.6 4.33333C23.6667 4.33333 23.6667 4.33333 23.7333 4.33333C23.8 4.33333 23.8 4.33333 23.8667 4.26667C23.9333 4.26667 23.9333 4.2 24 4.2C24.0667 4.2 24.0667 4.13333 24.1333 4.13333C24.2 4.06667 24.2667 4 24.2667 3.93333C24.2667 3.86667 24.2667 3.73333 24.2667 3.66667C24.2667 3.46667 24.2 3.33333 24.0667 3.2C24.0667 3.2 24 3.13333 23.9333 3.13333C23.9333 3.13333 23.8667 3.06667 23.8 3.06667C23.7333 3.06667 23.7333 3.06667 23.6667 3C23.4667 2.93333 23.2 3 23.0667 3.2L23 3.26667C23 3.33333 22.9333 3.33333 22.9333 3.4C22.9333 3.46667 22.9333 3.46667 22.8667 3.53333C22.8667 3.6 22.8667 3.6 22.8667 3.66667C22.8667 3.73333 22.8667 3.86667 22.9333 3.93333C23 4 23.0667 4.06667 23.1333 4.13333Z" stroke="#FF6D2A" stroke-width="0.3"/>
<path d="M16.4667 4.13333C16.6 4.26667 16.7333 4.33333 16.9333 4.33333C17.1333 4.33333 17.2667 4.26667 17.4 4.13333C17.4667 4.06667 17.5333 4 17.5333 3.93333C17.5333 3.86667 17.6 3.73333 17.6 3.66667C17.6 3.46667 17.5333 3.33333 17.4 3.2C17.4 3.2 17.3333 3.13333 17.2667 3.13333C17.2 3.13333 17.2 3.06667 17.1333 3.06667C17.0667 3.06667 17.0667 3.06667 17 3C16.8 2.93333 16.5333 3 16.4 3.2C16.3333 3.33333 16.2667 3.46667 16.2667 3.66667C16.2667 3.73333 16.2667 3.86667 16.3333 3.93333C16.3333 4 16.4 4.06667 16.4667 4.13333Z" stroke="#FF6D2A" stroke-width="0.3"/>
<path d="M26.3333 3.93333C26.3333 4 26.3333 4 26.4 4.06667L26.5333 4.2C26.6 4.2 26.6 4.26667 26.6667 4.26667C26.7333 4.26667 26.7333 4.26667 26.8 4.33333C26.8667 4.33333 26.8667 4.33333 26.9333 4.33333C27 4.33333 27 4.33333 27.0667 4.33333C27.1333 4.33333 27.1333 4.33333 27.2 4.26667C27.2667 4.26667 27.2667 4.2 27.3333 4.2C27.4 4.2 27.4 4.13333 27.4667 4.13333C27.4667 4.06667 27.5333 4.06667 27.5333 4.06667C27.5333 4 27.6 4 27.6 3.93333C27.6 3.86667 27.6 3.86667 27.6667 3.8C27.6667 3.73333 27.6667 3.73333 27.6667 3.66667C27.6667 3.6 27.6667 3.6 27.6667 3.53333C27.6667 3.46667 27.6667 3.46667 27.6 3.4C27.6 3.33333 27.6 3.33333 27.5333 3.26667C27.5333 3.2 27.4667 3.2 27.4667 3.2C27.2 2.93333 26.8 2.93333 26.5333 3.2C26.3333 3.33333 26.2667 3.46667 26.2667 3.66667C26.2667 3.73333 26.2667 3.73333 26.2667 3.8C26.2667 3.86667 26.2667 3.86667 26.3333 3.93333Z" stroke="#FF6D2A" stroke-width="0.3"/>
<path d="M41.6 5H5.66667C4.93333 5 4.33333 5.6 4.33333 6.33333V56.3333C4.33333 57.0667 4.93333 57.6667 5.66667 57.6667H41.6C42.3333 57.6667 42.9333 57.0667 42.9333 56.3333V6.33333C42.9333 5.6 42.3333 5 41.6 5ZM5.66667 56.3333V6.33333H41.6V56.3333H5.66667Z" stroke="#FF6D2A" stroke-width="0.3"/>
<path d="M46.9333 13.6667V10.3333C46.9333 9.93333 46.6667 9.66667 46.2667 9.66667V4.33333C46.2667 2.46667 44.8 1 42.9333 1H4.33333C2.46667 1 1 2.46667 1 4.33333V57.6667C1 59.5333 2.46667 61 4.33333 61H42.9333C44.8 61 46.2667 59.5333 46.2667 57.6667V27.6667C46.6667 27.6667 46.9333 27.4 46.9333 27V18.3333C46.9333 17.9333 46.6667 17.6667 46.2667 17.6667V14.3333C46.6667 14.3333 46.9333 14.0667 46.9333 13.6667ZM44.9333 57.6667C44.9333 58.8 44.0667 59.6667 42.9333 59.6667H4.33333C3.2 59.6667 2.33333 58.8 2.33333 57.6667V4.33333C2.33333 3.2 3.2 2.33333 4.33333 2.33333H42.9333C44.0667 2.33333 44.9333 3.2 44.9333 4.33333V57.6667Z" stroke="#FF6D2A" stroke-width="0.3"/>
<path d="M19.1333 4.13333C19.2 4.2 19.2667 4.26667 19.3333 4.26667C19.4 4.26667 19.5333 4.33333 19.6 4.33333H20.9333C21.1333 4.33333 21.2667 4.26667 21.4 4.13333C21.4667 4.06667 21.5333 4 21.5333 3.93333C21.5333 3.86667 21.6 3.73333 21.6 3.66667C21.6 3.46667 21.5333 3.33333 21.4 3.2C21.4 3.2 21.3333 3.13333 21.2667 3.13333C21.2 3.13333 21.2 3.06667 21.1333 3.06667C21.0667 3.06667 21.0667 3.06667 21 3C20.9333 3 20.9333 3 20.8667 3H19.5333C19.4667 3 19.3333 3 19.2667 3.06667C19.2 3.06667 19.1333 3.13333 19.0667 3.2C19 3.26667 18.9333 3.33333 18.9333 3.4C18.9333 3.46667 18.9333 3.6 18.9333 3.66667C18.9333 3.73333 18.9333 3.86667 19 3.93333C19 4 19.0667 4.06667 19.1333 4.13333Z" stroke="#FF6D2A" stroke-width="0.3"/>
</svg>
