<svg width="37" height="63" viewBox="0 0 37 63" fill="none" xmlns="http://www.w3.org/2000/svg">
<path d="M31.4553 1H5.48567C3.00674 1 1 2.9603 1 5.38185V55.9461C1 58.3677 3.00674 60.328 5.48567 60.328H5.54469C5.60371 61.2504 6.371 62 7.31535 62C8.2597 62 9.02699 61.2504 9.08597 60.328H28.1501C28.2091 61.2504 28.9764 62 29.9207 62C30.8651 62 31.6324 61.2504 31.6914 60.328C34.0523 60.2127 36 58.31 36 55.9461V5.38185C35.9409 2.9603 33.9343 1 31.4553 1ZM7.31535 61.0198C6.90219 61.0198 6.60708 60.7316 6.60708 60.328H8.08263C8.02361 60.6739 7.66948 61.0198 7.31535 61.0198ZM29.8617 61.0198C29.4486 61.0198 29.1535 60.7316 29.1535 60.328H30.629C30.57 60.6739 30.2749 61.0198 29.8617 61.0198ZM31.4553 59.3478H5.48567C3.59696 59.3478 2.00338 57.8488 2.00338 55.9461V5.38185C2.00338 3.53686 3.53794 1.98015 5.48567 1.98015H31.4553C33.344 1.98015 34.9376 3.4792 34.9376 5.38185V19.7958H5.24958C4.95447 19.7958 4.71838 20.0265 4.71838 20.3148C4.71838 20.603 4.95447 20.8336 5.24958 20.8336H34.9376V56.0038C34.9376 57.7911 33.344 59.3478 31.4553 59.3478Z" fill="#FF6D2A"/>
<path d="M31.1599 16.1636C31.455 16.1636 31.6911 15.933 31.6911 15.6447V11.6088C31.6911 11.3205 31.455 11.0899 31.1599 11.0899C30.8648 11.0899 30.6287 11.3205 30.6287 11.6088V15.6447C30.6287 15.9907 30.8648 16.1636 31.1599 16.1636Z" fill="#FF6D2A"/>
<path d="M31.1599 31.4424C30.8648 31.4424 30.6287 31.6731 30.6287 31.9613V35.9972C30.6287 36.2855 30.8648 36.5162 31.1599 36.5162C31.455 36.5162 31.6911 36.2855 31.6911 35.9972V31.9613C31.6321 31.6731 31.396 31.4424 31.1599 31.4424Z" fill="#FF6D2A"/>
<path d="M6.4301 4.51697C6.72521 4.51697 6.96129 4.28635 6.96129 3.99807C6.96129 3.70979 6.72521 3.53682 6.4301 3.53682C4.83651 3.53682 3.53802 4.80525 3.53802 6.36196V9.76367C3.53802 10.0519 3.77411 10.2826 4.06922 10.2826C4.36433 10.2826 4.5414 10.0519 4.5414 9.76367V6.36196C4.5414 5.32416 5.42673 4.51697 6.4301 4.51697Z" fill="#FF6D2A"/>
<path d="M31.4553 1H5.48567C3.00674 1 1 2.9603 1 5.38185V55.9461C1 58.3677 3.00674 60.328 5.48567 60.328H5.54469C5.60371 61.2504 6.371 62 7.31535 62C8.2597 62 9.02699 61.2504 9.08597 60.328H28.1501C28.2091 61.2504 28.9764 62 29.9207 62C30.8651 62 31.6324 61.2504 31.6914 60.328C34.0523 60.2127 36 58.31 36 55.9461V5.38185C35.9409 2.9603 33.9343 1 31.4553 1ZM7.31535 61.0198C6.90219 61.0198 6.60708 60.7316 6.60708 60.328H8.08263C8.02361 60.6739 7.66948 61.0198 7.31535 61.0198ZM29.8617 61.0198C29.4486 61.0198 29.1535 60.7316 29.1535 60.328H30.629C30.57 60.6739 30.2749 61.0198 29.8617 61.0198ZM31.4553 59.3478H5.48567C3.59696 59.3478 2.00338 57.8488 2.00338 55.9461V5.38185C2.00338 3.53686 3.53794 1.98015 5.48567 1.98015H31.4553C33.344 1.98015 34.9376 3.4792 34.9376 5.38185V19.7958H5.24958C4.95447 19.7958 4.71838 20.0265 4.71838 20.3148C4.71838 20.603 4.95447 20.8336 5.24958 20.8336H34.9376V56.0038C34.9376 57.7911 33.344 59.3478 31.4553 59.3478Z" stroke="#FF6D2A"/>
<path d="M31.1599 16.1636C31.455 16.1636 31.6911 15.933 31.6911 15.6447V11.6088C31.6911 11.3205 31.455 11.0899 31.1599 11.0899C30.8648 11.0899 30.6287 11.3205 30.6287 11.6088V15.6447C30.6287 15.9907 30.8648 16.1636 31.1599 16.1636Z" stroke="#FF6D2A"/>
<path d="M31.1599 31.4424C30.8648 31.4424 30.6287 31.6731 30.6287 31.9613V35.9972C30.6287 36.2855 30.8648 36.5162 31.1599 36.5162C31.455 36.5162 31.6911 36.2855 31.6911 35.9972V31.9613C31.6321 31.6731 31.396 31.4424 31.1599 31.4424Z" stroke="#FF6D2A"/>
<path d="M6.4301 4.51697C6.72521 4.51697 6.96129 4.28635 6.96129 3.99807C6.96129 3.70979 6.72521 3.53682 6.4301 3.53682C4.83651 3.53682 3.53802 4.80525 3.53802 6.36196V9.76367C3.53802 10.0519 3.77411 10.2826 4.06922 10.2826C4.36433 10.2826 4.5414 10.0519 4.5414 9.76367V6.36196C4.5414 5.32416 5.42673 4.51697 6.4301 4.51697Z" stroke="#FF6D2A"/>
</svg>
