<svg width="56" height="62" viewBox="0 0 56 62" fill="none" xmlns="http://www.w3.org/2000/svg">
<path d="M54.3717 1H1.6283C1.28148 1 1 1.27712 1 1.61857V15.4485C1 15.79 1.28148 16.0671 1.6283 16.0671H5.46408L6.26705 18.4925C6.27019 18.5024 6.2771 18.5092 6.28087 18.5185C6.2903 18.5426 6.30412 18.5637 6.31606 18.5859C6.33993 18.6298 6.36632 18.6707 6.39899 18.7072C6.41596 18.7263 6.43418 18.7437 6.45366 18.7604C6.49261 18.7938 6.53345 18.8204 6.57932 18.8433C6.60068 18.8544 6.61953 18.8661 6.64215 18.8748C6.71252 18.9014 6.78666 18.9193 6.86394 18.9193H22.9221C22.9993 18.9193 23.0735 18.9014 23.1439 18.8748C23.1665 18.8661 23.1853 18.8544 23.2067 18.8439C23.2519 18.8204 23.294 18.7938 23.3323 18.7604C23.3518 18.743 23.37 18.7263 23.387 18.7072C23.4197 18.6707 23.4461 18.6298 23.4699 18.5865C23.4825 18.5637 23.4963 18.5426 23.5058 18.5185C23.5095 18.5092 23.5164 18.5018 23.5196 18.4925L24.3213 16.0671H37.258C38.9871 16.0671 40.1865 16.4735 40.7262 17.2418C41.2879 18.041 41.0178 19.0814 40.8073 19.6301C40.8054 19.6344 40.8067 19.6387 40.8048 19.6431C40.8035 19.6474 40.7998 19.6499 40.7985 19.6542L32.4402 44.4898H19.8359C21.3444 42.7974 23.5862 38.9486 23.5504 31.0266V31.0241C23.5504 30.9746 23.5328 30.932 23.5215 30.8856C23.5133 30.8522 23.5139 30.8163 23.5001 30.7847C23.4806 30.7402 23.448 30.7043 23.4184 30.666C23.3996 30.6406 23.3876 30.6109 23.3656 30.5886C23.3286 30.5528 23.2815 30.5293 23.2362 30.5027C23.2117 30.4884 23.1929 30.4674 23.1665 30.4563C23.0911 30.4247 23.0088 30.4074 22.9221 30.4074H7.08761C7.00091 30.4074 6.9186 30.4247 6.8432 30.4563C6.81681 30.4674 6.79734 30.4884 6.77346 30.5027C6.72822 30.5293 6.6811 30.5528 6.64403 30.5886C6.62141 30.6109 6.60948 30.6406 6.59126 30.666C6.56235 30.7049 6.52905 30.7402 6.50958 30.7847C6.49638 30.8157 6.49638 30.8522 6.48821 30.8856C6.4769 30.9313 6.45994 30.9746 6.45931 31.0241V31.0266C6.45743 31.4404 6.46308 31.84 6.47313 32.2316C5.17318 32.3157 4.1346 32.6559 3.38315 33.2497C2.5651 33.8968 2.13283 34.8042 2.13283 35.8731C2.13283 38.5169 4.85212 41.5652 8.42652 41.7916C9.0121 43.0194 9.63852 43.8891 10.1732 44.4891H1.6283C1.28148 44.4891 1 44.7656 1 45.1077V58.0692C1 58.4113 1.28148 58.6878 1.6283 58.6878H3.77835C3.82107 60.6586 4.15596 61 6.31857 61H7.85414C10.0168 61 10.3523 60.6579 10.3944 58.6878H45.5736C45.6157 60.6586 45.9512 61 48.1144 61H49.65C51.8133 61 52.1488 60.6579 52.1909 58.6878H54.3717C54.7192 58.6878 55 58.4113 55 58.0692V1.61857C55 1.27712 54.7185 1 54.3717 1ZM22.4665 17.6828H7.32071L6.78603 16.0677H23.0006L22.4665 17.6828ZM37.2587 14.83H2.2566V2.23714H53.7428V57.4519H2.2566V45.7275H32.8945C32.9711 45.7275 33.0446 45.7102 33.1156 45.6836C33.1389 45.6749 33.1584 45.6632 33.181 45.6514C33.2256 45.6292 33.2664 45.6026 33.3047 45.5692C33.3242 45.5525 33.3424 45.5351 33.36 45.516C33.3927 45.4795 33.4191 45.4393 33.443 45.3953C33.4555 45.3725 33.4694 45.3527 33.4788 45.3285C33.4826 45.3193 33.4888 45.3131 33.492 45.3038L41.9929 20.0445L41.9935 20.042C42.4955 18.7127 42.4145 17.47 41.7617 16.5397C41.2132 15.7591 39.988 14.83 37.2587 14.83ZM9.40605 40.9262C8.52894 38.9468 7.76869 35.9844 7.72094 31.6458H22.2887C22.1826 41.0029 18.6949 43.993 18.0075 44.4904H11.999C11.6252 44.2275 10.4553 43.2662 9.43243 40.9856C9.42427 40.9645 9.41547 40.9454 9.40605 40.9262ZM3.39006 35.8737C3.39006 35.1828 3.65269 34.6242 4.17041 34.2147C4.70447 33.7922 5.51372 33.5398 6.5278 33.4699C6.70749 36.4471 7.23149 38.7377 7.87864 40.4833C5.32146 40.0132 3.39006 37.7709 3.39006 35.8737ZM9.05985 59.6911C8.93922 59.7641 8.3882 59.7641 7.8554 59.7641H6.31983C5.7864 59.7641 5.23538 59.7641 5.1292 59.7041C5.05757 59.5989 5.03747 59.1932 5.03181 58.6884H9.14342C9.13839 59.1919 9.12142 59.5958 9.05985 59.6911ZM50.8557 59.6905C50.7351 59.7641 50.1834 59.7641 49.65 59.7641H48.1144C47.581 59.7641 47.0294 59.7641 46.9232 59.7041C46.8516 59.5989 46.8315 59.1932 46.8264 58.6884H50.9399C50.9343 59.1919 50.9173 59.5958 50.8557 59.6905Z" fill="#FF6D2A"/>
<path d="M42.5256 9.70329C42.873 9.70329 43.1539 9.42617 43.1539 9.08472V6.75952C43.1539 6.41807 42.873 6.14095 42.5256 6.14095C42.1781 6.14095 41.8973 6.41807 41.8973 6.75952V9.08472C41.8973 9.42617 42.1781 9.70329 42.5256 9.70329Z" fill="#FF6D2A"/>
<path d="M48.3337 9.70329C48.6811 9.70329 48.962 9.42617 48.962 9.08472V6.75952C48.962 6.41807 48.6811 6.14095 48.3337 6.14095C47.9862 6.14095 47.7054 6.41807 47.7054 6.75952V9.08472C47.7054 9.42617 47.9869 9.70329 48.3337 9.70329Z" fill="#FF6D2A"/>
<path d="M45.4296 9.70329C45.7771 9.70329 46.0579 9.42617 46.0579 9.08472V6.75952C46.0579 6.41807 45.7771 6.14095 45.4296 6.14095C45.0822 6.14095 44.8013 6.41807 44.8013 6.75952V9.08472C44.8013 9.42617 45.0822 9.70329 45.4296 9.70329Z" fill="#FF6D2A"/>
<path d="M54.3717 1H1.6283C1.28148 1 1 1.27712 1 1.61857V15.4485C1 15.79 1.28148 16.0671 1.6283 16.0671H5.46408L6.26705 18.4925C6.27019 18.5024 6.2771 18.5092 6.28087 18.5185C6.2903 18.5426 6.30412 18.5637 6.31606 18.5859C6.33993 18.6298 6.36632 18.6707 6.39899 18.7072C6.41596 18.7263 6.43418 18.7437 6.45366 18.7604C6.49261 18.7938 6.53345 18.8204 6.57932 18.8433C6.60068 18.8544 6.61953 18.8661 6.64215 18.8748C6.71252 18.9014 6.78666 18.9193 6.86394 18.9193H22.9221C22.9993 18.9193 23.0735 18.9014 23.1439 18.8748C23.1665 18.8661 23.1853 18.8544 23.2067 18.8439C23.2519 18.8204 23.294 18.7938 23.3323 18.7604C23.3518 18.743 23.37 18.7263 23.387 18.7072C23.4197 18.6707 23.4461 18.6298 23.4699 18.5865C23.4825 18.5637 23.4963 18.5426 23.5058 18.5185C23.5095 18.5092 23.5164 18.5018 23.5196 18.4925L24.3213 16.0671H37.258C38.9871 16.0671 40.1865 16.4735 40.7262 17.2418C41.2879 18.041 41.0178 19.0814 40.8073 19.6301C40.8054 19.6344 40.8067 19.6387 40.8048 19.6431C40.8035 19.6474 40.7998 19.6499 40.7985 19.6542L32.4402 44.4898H19.8359C21.3444 42.7974 23.5862 38.9486 23.5504 31.0266V31.0241C23.5504 30.9746 23.5328 30.932 23.5215 30.8856C23.5133 30.8522 23.5139 30.8163 23.5001 30.7847C23.4806 30.7402 23.448 30.7043 23.4184 30.666C23.3996 30.6406 23.3876 30.6109 23.3656 30.5886C23.3286 30.5528 23.2815 30.5293 23.2362 30.5027C23.2117 30.4884 23.1929 30.4674 23.1665 30.4563C23.0911 30.4247 23.0088 30.4074 22.9221 30.4074H7.08761C7.00091 30.4074 6.9186 30.4247 6.8432 30.4563C6.81681 30.4674 6.79734 30.4884 6.77346 30.5027C6.72822 30.5293 6.6811 30.5528 6.64403 30.5886C6.62141 30.6109 6.60948 30.6406 6.59126 30.666C6.56235 30.7049 6.52905 30.7402 6.50958 30.7847C6.49638 30.8157 6.49638 30.8522 6.48821 30.8856C6.4769 30.9313 6.45994 30.9746 6.45931 31.0241V31.0266C6.45743 31.4404 6.46308 31.84 6.47313 32.2316C5.17318 32.3157 4.1346 32.6559 3.38315 33.2497C2.5651 33.8968 2.13283 34.8042 2.13283 35.8731C2.13283 38.5169 4.85212 41.5652 8.42652 41.7916C9.0121 43.0194 9.63852 43.8891 10.1732 44.4891H1.6283C1.28148 44.4891 1 44.7656 1 45.1077V58.0692C1 58.4113 1.28148 58.6878 1.6283 58.6878H3.77835C3.82107 60.6586 4.15596 61 6.31857 61H7.85414C10.0168 61 10.3523 60.6579 10.3944 58.6878H45.5736C45.6157 60.6586 45.9512 61 48.1144 61H49.65C51.8133 61 52.1488 60.6579 52.1909 58.6878H54.3717C54.7192 58.6878 55 58.4113 55 58.0692V1.61857C55 1.27712 54.7185 1 54.3717 1ZM22.4665 17.6828H7.32071L6.78603 16.0677H23.0006L22.4665 17.6828ZM37.2587 14.83H2.2566V2.23714H53.7428V57.4519H2.2566V45.7275H32.8945C32.9711 45.7275 33.0446 45.7102 33.1156 45.6836C33.1389 45.6749 33.1584 45.6632 33.181 45.6514C33.2256 45.6292 33.2664 45.6026 33.3047 45.5692C33.3242 45.5525 33.3424 45.5351 33.36 45.516C33.3927 45.4795 33.4191 45.4393 33.443 45.3953C33.4555 45.3725 33.4694 45.3527 33.4788 45.3285C33.4826 45.3193 33.4888 45.3131 33.492 45.3038L41.9929 20.0445L41.9935 20.042C42.4955 18.7127 42.4145 17.47 41.7617 16.5397C41.2132 15.7591 39.988 14.83 37.2587 14.83ZM9.40605 40.9262C8.52894 38.9468 7.76869 35.9844 7.72094 31.6458H22.2887C22.1826 41.0029 18.6949 43.993 18.0075 44.4904H11.999C11.6252 44.2275 10.4553 43.2662 9.43243 40.9856C9.42427 40.9645 9.41547 40.9454 9.40605 40.9262ZM3.39006 35.8737C3.39006 35.1828 3.65269 34.6242 4.17041 34.2147C4.70447 33.7922 5.51372 33.5398 6.5278 33.4699C6.70749 36.4471 7.23149 38.7377 7.87864 40.4833C5.32146 40.0132 3.39006 37.7709 3.39006 35.8737ZM9.05985 59.6911C8.93922 59.7641 8.3882 59.7641 7.8554 59.7641H6.31983C5.7864 59.7641 5.23538 59.7641 5.1292 59.7041C5.05757 59.5989 5.03747 59.1932 5.03181 58.6884H9.14342C9.13839 59.1919 9.12142 59.5958 9.05985 59.6911ZM50.8557 59.6905C50.7351 59.7641 50.1834 59.7641 49.65 59.7641H48.1144C47.581 59.7641 47.0294 59.7641 46.9232 59.7041C46.8516 59.5989 46.8315 59.1932 46.8264 58.6884H50.9399C50.9343 59.1919 50.9173 59.5958 50.8557 59.6905Z" stroke="#FF6D2A" stroke-width="0.6"/>
<path d="M42.5256 9.70329C42.873 9.70329 43.1539 9.42617 43.1539 9.08472V6.75952C43.1539 6.41807 42.873 6.14095 42.5256 6.14095C42.1781 6.14095 41.8973 6.41807 41.8973 6.75952V9.08472C41.8973 9.42617 42.1781 9.70329 42.5256 9.70329Z" stroke="#FF6D2A" stroke-width="0.6"/>
<path d="M48.3337 9.70329C48.6811 9.70329 48.962 9.42617 48.962 9.08472V6.75952C48.962 6.41807 48.6811 6.14095 48.3337 6.14095C47.9862 6.14095 47.7054 6.41807 47.7054 6.75952V9.08472C47.7054 9.42617 47.9869 9.70329 48.3337 9.70329Z" stroke="#FF6D2A" stroke-width="0.6"/>
<path d="M45.4296 9.70329C45.7771 9.70329 46.0579 9.42617 46.0579 9.08472V6.75952C46.0579 6.41807 45.7771 6.14095 45.4296 6.14095C45.0822 6.14095 44.8013 6.41807 44.8013 6.75952V9.08472C44.8013 9.42617 45.0822 9.70329 45.4296 9.70329Z" stroke="#FF6D2A" stroke-width="0.6"/>
</svg>
