<svg width="62" height="62" viewBox="0 0 62 62" fill="none" xmlns="http://www.w3.org/2000/svg">
<path d="M6.7 61C5.14 61 3.7 60.4 2.68 59.32C1.6 58.24 1 56.8 1 55.3C1 53.8 1.6 52.36 2.68 51.28L22.78 31.18C23.08 30.88 23.5 30.88 23.8 31.18C24.1 31.48 24.1 31.9 23.8 32.2L3.7 52.24C2.86 53.02 2.44 54.1 2.44 55.3C2.44 56.44 2.86 57.52 3.7 58.36C4.48 59.14 5.56 59.62 6.76 59.62C7.9 59.62 8.98 59.2 9.82 58.36L29.86 38.2C30.16 37.9 30.58 37.9 30.88 38.2C31.18 38.5 31.18 38.92 30.88 39.22L10.78 59.32C9.7 60.4 8.26 61 6.7 61Z" fill="#FF6D2A"/>
<path d="M36.94 29.86C36.76 29.86 36.58 29.8 36.46 29.68C36.16 29.38 36.16 28.96 36.46 28.66L49.84 15.28L46.78 12.16L33.4 25.54C33.1 25.84 32.68 25.84 32.38 25.54C32.08 25.24 32.08 24.82 32.38 24.52L46.3 10.6C46.42 10.48 46.6 10.42 46.78 10.42C46.96 10.42 47.14 10.48 47.26 10.6L51.34 14.68C51.64 14.98 51.64 15.4 51.34 15.7L37.48 29.62C37.36 29.8 37.18 29.86 36.94 29.86Z" fill="#FF6D2A"/>
<path d="M50.68 16.06L45.94 11.32L48.22 5.56L55.48 1L61 6.52L56.44 13.78L50.68 16.06ZM47.62 10.96L51.04 14.38L55.48 12.64L59.2 6.76L55.24 2.8L49.36 6.52L47.62 10.96Z" fill="#FF6D2A"/>
<path d="M54.22 61C52.6 61 51.04 60.4 49.84 59.2L15.88 25.24C11.86 26.2 7.54 25 4.6 22.06C1.72 19.18 0.52 15.04 1.42 11.02L1.72 9.76L6.4 14.44C7.3 15.34 8.62 15.7 9.82 15.34C12.28 14.68 14.2 12.76 14.86 10.3C15.16 9.1 14.86 7.78 13.96 6.88L9.28 2.2L10.54 1.9C14.5 1.06 18.64 2.26 21.52 5.2C24.46 8.14 25.66 12.4 24.7 16.42L58.6 50.38C61 52.78 61 56.74 58.6 59.2C57.4 60.4 55.84 61 54.22 61ZM16.3 23.62L50.86 58.18C52.72 60.04 55.78 60.04 57.64 58.18C59.5 56.32 59.5 53.26 57.64 51.4L23.08 16.84L23.2 16.42C24.22 12.76 23.2 8.86 20.5 6.16C18.28 3.94 15.22 2.86 12.16 3.1L14.92 5.86C16.18 7.12 16.66 8.92 16.18 10.66C15.4 13.6 13.06 15.88 10.18 16.66C8.5 17.14 6.64 16.6 5.38 15.4L2.62 12.64C2.32 15.76 3.4 18.76 5.62 20.98C8.32 23.68 12.22 24.7 15.88 23.68L16.3 23.62Z" fill="#FF6D2A"/>
<path d="M6.7 61C5.14 61 3.7 60.4 2.68 59.32C1.6 58.24 1 56.8 1 55.3C1 53.8 1.6 52.36 2.68 51.28L22.78 31.18C23.08 30.88 23.5 30.88 23.8 31.18C24.1 31.48 24.1 31.9 23.8 32.2L3.7 52.24C2.86 53.02 2.44 54.1 2.44 55.3C2.44 56.44 2.86 57.52 3.7 58.36C4.48 59.14 5.56 59.62 6.76 59.62C7.9 59.62 8.98 59.2 9.82 58.36L29.86 38.2C30.16 37.9 30.58 37.9 30.88 38.2C31.18 38.5 31.18 38.92 30.88 39.22L10.78 59.32C9.7 60.4 8.26 61 6.7 61Z" stroke="#FF6D2A" stroke-width="0.6"/>
<path d="M36.94 29.86C36.76 29.86 36.58 29.8 36.46 29.68C36.16 29.38 36.16 28.96 36.46 28.66L49.84 15.28L46.78 12.16L33.4 25.54C33.1 25.84 32.68 25.84 32.38 25.54C32.08 25.24 32.08 24.82 32.38 24.52L46.3 10.6C46.42 10.48 46.6 10.42 46.78 10.42C46.96 10.42 47.14 10.48 47.26 10.6L51.34 14.68C51.64 14.98 51.64 15.4 51.34 15.7L37.48 29.62C37.36 29.8 37.18 29.86 36.94 29.86Z" stroke="#FF6D2A" stroke-width="0.6"/>
<path d="M50.68 16.06L45.94 11.32L48.22 5.56L55.48 1L61 6.52L56.44 13.78L50.68 16.06ZM47.62 10.96L51.04 14.38L55.48 12.64L59.2 6.76L55.24 2.8L49.36 6.52L47.62 10.96Z" stroke="#FF6D2A" stroke-width="0.6"/>
<path d="M54.22 61C52.6 61 51.04 60.4 49.84 59.2L15.88 25.24C11.86 26.2 7.54 25 4.6 22.06C1.72 19.18 0.52 15.04 1.42 11.02L1.72 9.76L6.4 14.44C7.3 15.34 8.62 15.7 9.82 15.34C12.28 14.68 14.2 12.76 14.86 10.3C15.16 9.1 14.86 7.78 13.96 6.88L9.28 2.2L10.54 1.9C14.5 1.06 18.64 2.26 21.52 5.2C24.46 8.14 25.66 12.4 24.7 16.42L58.6 50.38C61 52.78 61 56.74 58.6 59.2C57.4 60.4 55.84 61 54.22 61ZM16.3 23.62L50.86 58.18C52.72 60.04 55.78 60.04 57.64 58.18C59.5 56.32 59.5 53.26 57.64 51.4L23.08 16.84L23.2 16.42C24.22 12.76 23.2 8.86 20.5 6.16C18.28 3.94 15.22 2.86 12.16 3.1L14.92 5.86C16.18 7.12 16.66 8.92 16.18 10.66C15.4 13.6 13.06 15.88 10.18 16.66C8.5 17.14 6.64 16.6 5.38 15.4L2.62 12.64C2.32 15.76 3.4 18.76 5.62 20.98C8.32 23.68 12.22 24.7 15.88 23.68L16.3 23.62Z" stroke="#FF6D2A" stroke-width="0.6"/>
</svg>
