<svg width="64" height="50" viewBox="0 0 64 50" fill="none" xmlns="http://www.w3.org/2000/svg">
<path d="M57.8213 27.5536V19.9519C57.8213 18.8936 57.4007 17.8786 56.6521 17.1303C55.9035 16.382 54.8882 15.9615 53.8295 15.9615C47.5683 15.9351 41.3129 16.3417 35.1079 17.1786C33.4968 14.9228 32.157 12.4851 31.1161 9.91611C28.1821 3.1524 23.6714 1.52479e-07 16.9053 1.52479e-07C14.6414 -0.000346824 12.4169 0.591491 10.4528 1.71671C8.48858 2.84192 6.85314 4.46135 5.70895 6.41406C4.56475 8.36677 3.95163 10.5848 3.9305 12.8477C3.90938 15.1107 4.48098 17.3397 5.58853 19.3135L3.59262 20.6702L7.58443 26.995C5.30725 28.5593 3.43288 30.6403 2.11465 33.0678C0.79642 35.4952 0.071777 38.2002 0 40.9613V43.8942C0 44.9525 0.420564 45.9675 1.16917 46.7159C1.91778 47.4642 2.93311 47.8846 3.9918 47.8846H8.10336C8.30392 48.4715 8.68305 48.981 9.18769 49.3417C9.69232 49.7025 10.2972 49.8964 10.9176 49.8964C11.538 49.8964 12.1428 49.7025 12.6475 49.3417C13.1521 48.981 13.5313 48.4715 13.7318 47.8846H45.2271C46.5627 48.8051 48.0714 49.4447 49.6617 49.7647C51.252 50.0846 52.8907 50.0783 54.4785 49.746C56.0662 49.4137 57.5699 48.7624 58.8983 47.8316C60.2266 46.9008 61.352 45.71 62.206 44.3313C63.06 42.9526 63.625 41.4148 63.8665 39.8113C64.108 38.2078 64.0212 36.5719 63.6111 35.0029C63.2011 33.434 62.4765 31.9647 61.4812 30.6841C60.4859 29.4036 59.2408 28.3385 57.8213 27.5536ZM5.92783 12.9688C5.93311 10.06 7.09135 7.2719 9.14888 5.2151C11.2064 3.1583 13.9955 2.00047 16.9053 1.99519C22.893 1.99519 26.6653 4.6887 29.2599 10.6942C30.2482 13.0804 31.4647 15.3655 32.8925 17.5178L30.7169 17.9567C29.4786 15.9964 28.4102 13.9339 27.5235 11.7916L27.4237 11.5522C25.1683 6.225 22.0547 3.99038 17.0051 3.99038C15.4659 3.9868 13.9517 4.37958 12.6085 5.13086C11.2652 5.88215 10.1382 6.96662 9.336 8.27977C8.53379 9.59292 8.08344 11.0905 8.02835 12.6281C7.97327 14.1658 8.31529 15.6917 9.02148 17.0589L7.305 18.1962C6.41549 16.5964 5.94196 14.799 5.92783 12.9688ZM17.2646 21.6279L12.8137 14.505L10.6382 15.9615C10.136 14.8909 9.91319 13.7106 9.99055 12.5306C10.0679 11.3506 10.4429 10.2095 11.0805 9.2135C11.7182 8.21753 12.5977 7.39917 13.6372 6.83474C14.6767 6.2703 15.8422 5.97817 17.025 5.98558C21.2963 5.98558 23.6315 7.68149 25.6074 12.2704V12.5099C26.4414 14.5146 27.4221 16.4552 28.5414 18.3159C24.6965 19.103 20.9243 20.2109 17.2646 21.6279ZM6.28709 21.2488L12.2748 17.2584L15.4682 22.3661C13.288 23.3143 11.1972 24.4562 9.22107 25.7779L6.28709 21.2488ZM53.8295 17.9567C54.3588 17.9567 54.8665 18.1669 55.2408 18.5411C55.6151 18.9153 55.8254 19.4228 55.8254 19.9519C38.481 20.2313 26.326 27.4139 16.5261 33.2399C10.7779 36.6916 6.12742 39.425 1.93603 39.9038C3.03377 26.7156 23.5916 17.9567 53.8295 17.9567ZM1.93603 43.8942V41.899C6.58648 41.52 11.4764 38.6269 17.544 35.0156C27.1243 29.2894 39.0199 22.2464 55.8254 21.9471V26.6159C53.3189 25.7368 50.5911 25.7157 48.0713 26.5559C45.5516 27.3962 43.3827 29.05 41.9061 31.2573C40.4295 33.4646 39.7289 36.0999 39.9146 38.7488C40.1003 41.3976 41.1617 43.9096 42.9319 45.8894H3.93193C3.40258 45.8894 2.89492 45.6792 2.52061 45.305C2.14631 44.9309 1.93603 44.4234 1.93603 43.8942ZM51.8336 47.8846C49.8598 47.8846 47.9304 47.2995 46.2893 46.2034C44.6481 45.1072 43.369 43.5492 42.6137 41.7263C41.8584 39.9034 41.6608 37.8976 42.0458 35.9624C42.4309 34.0273 43.3813 32.2497 44.777 30.8546C46.1727 29.4594 47.9508 28.5093 49.8867 28.1244C51.8225 27.7395 53.8291 27.937 55.6526 28.6921C57.4761 29.4471 59.0347 30.7258 60.1312 32.3663C61.2278 34.0068 61.8131 35.9356 61.8131 37.9087C61.8131 40.5544 60.7617 43.0919 58.8902 44.9627C57.0186 46.8336 54.4803 47.8846 51.8336 47.8846Z" fill="#FF6D2A"/>
</svg>
