<svg width="72" height="61" viewBox="0 0 72 61" fill="none" xmlns="http://www.w3.org/2000/svg">
<path d="M4.18605 0C1.88145 0 0 1.90396 0 4.23611V46.5972C0 48.9294 1.88145 50.8333 4.18605 50.8333H29.3023V59.3056H25.9535C25.4911 59.3056 25.1163 59.6849 25.1163 60.1528C25.1163 60.6207 25.4911 61 25.9535 61H46.0465C46.5089 61 46.8837 60.6207 46.8837 60.1528C46.8837 59.6849 46.5089 59.3056 46.0465 59.3056H42.6977V50.8333H67.8139C70.1185 50.8333 72 48.9294 72 46.5972V4.23611C72 1.90396 70.1185 0 67.8139 0H4.18605ZM4.18605 1.69444H67.8139C69.2199 1.69444 70.3256 2.81337 70.3256 4.23611V38.9722H1.67442V4.23611C1.67442 2.81337 2.78011 1.69444 4.18605 1.69444ZM59.8605 4.23611C59.6462 4.23611 59.4484 4.33549 59.2849 4.50087C58.9579 4.83171 58.9579 5.36149 59.2849 5.69233L66.375 12.8937C66.7019 13.2246 67.2515 13.2246 67.5785 12.8937C67.9055 12.5629 67.9054 12.0067 67.5785 11.6758L60.4622 4.50087C60.2987 4.33549 60.0747 4.23611 59.8605 4.23611ZM56.3285 6.64545C56.1142 6.64537 55.8902 6.7183 55.7267 6.88368C55.3998 7.21452 55.3998 7.77072 55.7267 8.10156L64.0203 16.4679C64.3473 16.7987 64.8707 16.7987 65.1977 16.4679C65.5246 16.137 65.5246 15.6074 65.1977 15.2765L56.9041 6.88368C56.7406 6.7183 56.5428 6.64545 56.3285 6.64545ZM1.67442 40.6667H70.3256V46.5972C70.3256 48.02 69.2199 49.1389 67.8139 49.1389H4.18605C2.78011 49.1389 1.67442 48.02 1.67442 46.5972V40.6667ZM36 43.2083C35.0752 43.2083 34.3256 43.9669 34.3256 44.9028C34.3256 45.8386 35.0752 46.5972 36 46.5972C36.9248 46.5972 37.6744 45.8386 37.6744 44.9028C37.6744 43.9669 36.9248 43.2083 36 43.2083ZM30.9767 50.8333H41.0233V59.3056H30.9767V50.8333Z" fill="#FF6D2A"/>
</svg>
