<svg width="78" height="63" viewBox="0 0 78 63" fill="none" xmlns="http://www.w3.org/2000/svg">
<path fill-rule="evenodd" clip-rule="evenodd" d="M75.3111 2.69444H56.7333V60.3056H75.3111V2.69444ZM55.8889 1H76.1556C76.6225 1 77 1.37956 77 1.84722V61.1528C77 61.6213 76.6225 62 76.1556 62H55.8889C55.4228 62 55.0444 61.6213 55.0444 61.1528V1.84722C55.0444 1.37956 55.4228 1 55.8889 1Z" fill="#FF6D2A"/>
<path fill-rule="evenodd" clip-rule="evenodd" d="M1.84444 14.5556H50.8222C51.2884 14.5556 51.6667 14.9351 51.6667 15.4028V52.6806C51.6667 53.1482 51.2884 53.5278 50.8222 53.5278H27.1778V60.3056H39C39.4661 60.3056 39.8444 60.6843 39.8444 61.1528C39.8444 61.6213 39.4661 62 39 62C30.5556 62 22.1111 62 13.6667 62C13.2005 62 12.8222 61.6213 12.8222 61.1528C12.8222 60.6843 13.1997 60.3056 13.6667 60.3056H25.4889V53.5278H1.84444C1.37831 53.5278 1 53.1482 1 52.6806V15.4028C1 14.9351 1.37747 14.5556 1.84444 14.5556ZM49.9778 16.25H2.68889V51.8333H49.9778V16.25Z" fill="#FF6D2A"/>
<path fill-rule="evenodd" clip-rule="evenodd" d="M60.1111 11.1667C59.6441 11.1667 59.2667 10.7871 59.2667 10.3194C59.2667 9.85093 59.6441 9.47222 60.1111 9.47222H71.9333C72.3995 9.47222 72.7778 9.85093 72.7778 10.3194C72.7778 10.7871 72.3995 11.1667 71.9333 11.1667H60.1111Z" fill="#FF6D2A"/>
<path fill-rule="evenodd" clip-rule="evenodd" d="M70.2444 16.25C69.7775 16.25 69.4 15.8704 69.4 15.4028C69.4 14.9343 69.7775 14.5556 70.2444 14.5556H71.9333C72.3995 14.5556 72.7778 14.9343 72.7778 15.4028C72.7778 15.8704 72.3995 16.25 71.9333 16.25H70.2444Z" fill="#FF6D2A"/>
<path fill-rule="evenodd" clip-rule="evenodd" d="M75.3111 2.69444H56.7333V60.3056H75.3111V2.69444ZM55.8889 1H76.1556C76.6225 1 77 1.37956 77 1.84722V61.1528C77 61.6213 76.6225 62 76.1556 62H55.8889C55.4228 62 55.0444 61.6213 55.0444 61.1528V1.84722C55.0444 1.37956 55.4228 1 55.8889 1Z" stroke="#FF6D2A" stroke-width="0.5"/>
<path fill-rule="evenodd" clip-rule="evenodd" d="M1.84444 14.5556H50.8222C51.2884 14.5556 51.6667 14.9351 51.6667 15.4028V52.6806C51.6667 53.1482 51.2884 53.5278 50.8222 53.5278H27.1778V60.3056H39C39.4661 60.3056 39.8444 60.6843 39.8444 61.1528C39.8444 61.6213 39.4661 62 39 62C30.5556 62 22.1111 62 13.6667 62C13.2005 62 12.8222 61.6213 12.8222 61.1528C12.8222 60.6843 13.1997 60.3056 13.6667 60.3056H25.4889V53.5278H1.84444C1.37831 53.5278 1 53.1482 1 52.6806V15.4028C1 14.9351 1.37747 14.5556 1.84444 14.5556ZM49.9778 16.25H2.68889V51.8333H49.9778V16.25Z" stroke="#FF6D2A" stroke-width="0.5"/>
<path fill-rule="evenodd" clip-rule="evenodd" d="M60.1111 11.1667C59.6441 11.1667 59.2667 10.7871 59.2667 10.3194C59.2667 9.85093 59.6441 9.47222 60.1111 9.47222H71.9333C72.3995 9.47222 72.7778 9.85093 72.7778 10.3194C72.7778 10.7871 72.3995 11.1667 71.9333 11.1667H60.1111Z" stroke="#FF6D2A" stroke-width="0.5"/>
<path fill-rule="evenodd" clip-rule="evenodd" d="M70.2444 16.25C69.7775 16.25 69.4 15.8704 69.4 15.4028C69.4 14.9343 69.7775 14.5556 70.2444 14.5556H71.9333C72.3995 14.5556 72.7778 14.9343 72.7778 15.4028C72.7778 15.8704 72.3995 16.25 71.9333 16.25H70.2444Z" stroke="#FF6D2A" stroke-width="0.5"/>
</svg>
