<svg width="71" height="62" viewBox="0 0 71 62" fill="none" xmlns="http://www.w3.org/2000/svg">
<path d="M13.7957 9.18619C11.2296 9.18619 9.14182 11.2856 9.14182 13.8668C9.14182 16.4473 11.2296 18.5467 13.7957 18.5467C16.3626 18.5467 18.4503 16.4473 18.4503 13.8668C18.4503 11.2856 16.3626 9.18619 13.7957 9.18619ZM13.7957 17.0933C12.0266 17.0933 10.5871 15.6458 10.5871 13.8668C10.5871 12.0871 12.0266 10.6396 13.7957 10.6396C15.5655 10.6396 17.005 12.0871 17.005 13.8668C17.005 15.6458 15.5655 17.0933 13.7957 17.0933Z" fill="#FF6D2A"/>
<path d="M68.0396 29.729L67.8387 28.8192L52.4875 37.3106V27.5737C52.4875 26.3092 51.4649 25.2802 50.2075 25.2802H45.2472C47.6399 23.6975 49.2254 20.9775 49.2254 17.8883C49.2254 13.0115 45.2797 9.04302 40.4293 9.04302C35.5796 9.04302 31.6339 13.0108 31.6339 17.8883C31.6339 20.9775 33.2194 23.6975 35.6121 25.2802H19.6791C23.7794 23.1336 26.5905 18.8279 26.5905 13.8668C26.5905 6.77211 20.8505 1 13.7953 1C6.74002 1 1 6.77211 1 13.8668C1 18.8279 3.81111 23.1336 7.91144 25.2802H3.28069C2.02327 25.2802 1 26.3092 1 27.5737V58.7073C1 59.9717 2.02327 61 3.28069 61H50.2075C51.4649 61 52.4875 59.9717 52.4875 58.7073V46.0331L66.9947 54.0572L67.8886 54.5477L68.0461 53.5943C70.6535 45.8972 70.6513 37.4261 68.0396 29.729ZM33.0785 17.8883C33.0785 13.8123 36.3759 10.4964 40.4286 10.4964C44.4812 10.4964 47.7794 13.8123 47.7794 17.8883C47.7794 21.9643 44.4819 25.2802 40.4286 25.2802C36.3752 25.2802 33.0785 21.9643 33.0785 17.8883ZM2.4453 13.8668C2.4453 7.57365 7.5371 2.45338 13.7953 2.45338C20.0534 2.45338 25.1452 7.57365 25.1452 13.8668C25.1452 20.1599 20.0534 25.2802 13.7953 25.2802C7.5371 25.2802 2.4453 20.1599 2.4453 13.8668ZM51.0421 58.7073C51.0421 59.1702 50.6671 59.5466 50.2075 59.5466H3.28069C2.82036 59.5466 2.4453 59.1695 2.4453 58.7073V52.5798H26.7444V51.1264H2.4453V27.5737C2.4453 27.1108 2.82036 26.7336 3.28069 26.7336H50.2075C50.6678 26.7336 51.0421 27.1108 51.0421 27.5737V58.7073ZM66.9275 52.3618L52.4875 44.3755V38.9689L66.9275 30.9826C69.0976 37.9094 69.0969 45.4343 66.9275 52.3618Z" fill="#FF6D2A"/>
<path d="M13.7957 9.18619C11.2296 9.18619 9.14182 11.2856 9.14182 13.8668C9.14182 16.4473 11.2296 18.5467 13.7957 18.5467C16.3626 18.5467 18.4503 16.4473 18.4503 13.8668C18.4503 11.2856 16.3626 9.18619 13.7957 9.18619ZM13.7957 17.0933C12.0266 17.0933 10.5871 15.6458 10.5871 13.8668C10.5871 12.0871 12.0266 10.6396 13.7957 10.6396C15.5655 10.6396 17.005 12.0871 17.005 13.8668C17.005 15.6458 15.5655 17.0933 13.7957 17.0933Z" stroke="#FF6D2A" stroke-width="0.5"/>
<path d="M68.0396 29.729L67.8387 28.8192L52.4875 37.3106V27.5737C52.4875 26.3092 51.4649 25.2802 50.2075 25.2802H45.2472C47.6399 23.6975 49.2254 20.9775 49.2254 17.8883C49.2254 13.0115 45.2797 9.04302 40.4293 9.04302C35.5796 9.04302 31.6339 13.0108 31.6339 17.8883C31.6339 20.9775 33.2194 23.6975 35.6121 25.2802H19.6791C23.7794 23.1336 26.5905 18.8279 26.5905 13.8668C26.5905 6.77211 20.8505 1 13.7953 1C6.74002 1 1 6.77211 1 13.8668C1 18.8279 3.81111 23.1336 7.91144 25.2802H3.28069C2.02327 25.2802 1 26.3092 1 27.5737V58.7073C1 59.9717 2.02327 61 3.28069 61H50.2075C51.4649 61 52.4875 59.9717 52.4875 58.7073V46.0331L66.9947 54.0572L67.8886 54.5477L68.0461 53.5943C70.6535 45.8972 70.6513 37.4261 68.0396 29.729ZM33.0785 17.8883C33.0785 13.8123 36.3759 10.4964 40.4286 10.4964C44.4812 10.4964 47.7794 13.8123 47.7794 17.8883C47.7794 21.9643 44.4819 25.2802 40.4286 25.2802C36.3752 25.2802 33.0785 21.9643 33.0785 17.8883ZM2.4453 13.8668C2.4453 7.57365 7.5371 2.45338 13.7953 2.45338C20.0534 2.45338 25.1452 7.57365 25.1452 13.8668C25.1452 20.1599 20.0534 25.2802 13.7953 25.2802C7.5371 25.2802 2.4453 20.1599 2.4453 13.8668ZM51.0421 58.7073C51.0421 59.1702 50.6671 59.5466 50.2075 59.5466H3.28069C2.82036 59.5466 2.4453 59.1695 2.4453 58.7073V52.5798H26.7444V51.1264H2.4453V27.5737C2.4453 27.1108 2.82036 26.7336 3.28069 26.7336H50.2075C50.6678 26.7336 51.0421 27.1108 51.0421 27.5737V58.7073ZM66.9275 52.3618L52.4875 44.3755V38.9689L66.9275 30.9826C69.0976 37.9094 69.0969 45.4343 66.9275 52.3618Z" stroke="#FF6D2A" stroke-width="0.5"/>
</svg>
