<svg width="47" height="62" viewBox="0 0 47 62" fill="none" xmlns="http://www.w3.org/2000/svg">
<path d="M44.2024 34.66H41.4461C41.0866 34.66 40.787 34.36 40.787 34C40.787 33.64 41.0866 33.34 41.4461 33.34H44.2024C44.4421 33.34 44.6218 33.16 44.6218 32.92V29.14C44.6218 28.9 44.4421 28.72 44.2024 28.72H41.4461C41.0866 28.72 40.787 28.42 40.787 28.06C40.787 27.7 41.0866 27.4 41.4461 27.4H44.2024C45.221 27.4 46 28.24 46 29.2V32.98C46 33.82 45.1611 34.66 44.2024 34.66Z" fill="#FF6D2A"/>
<path d="M15.0812 36.16C14.7816 36.16 14.5419 35.98 14.4221 35.74L12.8043 31.6H10.767C10.4075 31.6 10.1079 31.3 10.1079 30.94C10.1079 30.58 10.4075 30.28 10.767 30.28H13.2836C13.5832 30.28 13.8229 30.46 13.9427 30.7L14.9614 33.34L16.9387 26.2C16.9987 25.9 17.2383 25.72 17.5379 25.72C17.8375 25.72 18.0772 25.9 18.1971 26.14L19.8149 30.22H22.032C22.3316 30.22 22.5712 30.4 22.6911 30.64L23.7097 33.28L25.6871 26.2C25.747 25.9 25.9867 25.72 26.2863 25.72C26.5859 25.72 26.8256 25.9 26.9454 26.14L28.5632 30.22H32.2184C32.5779 30.22 32.8775 30.52 32.8775 30.88C32.8775 31.24 32.5779 31.54 32.2184 31.54H28.0839C27.7843 31.54 27.5446 31.36 27.4248 31.12L26.466 28.54L24.4887 35.62C24.4288 35.92 24.1891 36.1 23.8895 36.1C23.5899 36.1 23.3502 35.92 23.2304 35.68L21.5526 31.6H19.3356C19.036 31.6 18.7963 31.42 18.6764 31.18L17.6578 28.54L15.6804 35.62C15.6205 35.92 15.3808 36.16 15.0812 36.16Z" fill="#FF6D2A"/>
<path d="M21.5526 45.82C13.3435 45.82 6.69241 39.16 6.69241 30.94C6.69241 22.72 13.3435 16.06 21.5526 16.06C29.7617 16.06 36.4128 22.72 36.4128 30.94C36.4128 31.3 36.1132 31.6 35.7537 31.6C35.3941 31.6 35.0945 31.3 35.0945 30.94C35.0945 23.5 29.0426 17.44 21.6125 17.44C14.1824 17.44 8.13049 23.5 8.13049 30.94C8.13049 38.38 14.1824 44.44 21.6125 44.44C21.972 44.44 22.2716 44.74 22.2716 45.1C22.2117 45.52 21.9121 45.82 21.5526 45.82Z" fill="#FF6D2A"/>
<path d="M35.4541 34C35.2743 34 35.0945 33.94 34.9747 33.82C34.8549 33.7 34.7949 33.52 34.7949 33.34C34.7949 33.16 34.8549 32.98 34.9747 32.86C35.2144 32.62 35.6937 32.62 35.9334 32.86C36.0533 32.98 36.1132 33.16 36.1132 33.34C36.1132 33.52 36.0533 33.7 35.9334 33.82C35.8136 33.94 35.6338 34 35.4541 34Z" fill="#FF6D2A"/>
<path d="M28.2037 44.14C27.9041 44.14 27.6045 43.96 27.5446 43.66C27.4248 43.36 27.6045 43 27.9041 42.88C28.2037 42.7 28.5633 42.82 28.8029 43.12C28.9827 43.42 28.9228 43.84 28.6232 44.08C28.5632 44.14 28.5033 44.14 28.4434 44.2C28.3835 44.08 28.2637 44.14 28.2037 44.14ZM31.6192 41.56C31.4394 41.56 31.1997 41.5 31.0799 41.32C30.8402 41.02 30.9001 40.66 31.1398 40.42C31.3795 40.18 31.7989 40.12 32.0985 40.36C32.3981 40.6 32.3981 41.02 32.1585 41.32C32.1585 41.38 32.0985 41.38 32.0386 41.44C31.9188 41.5 31.7989 41.56 31.6192 41.56ZM34.1358 38.08C34.016 38.08 33.9561 38.08 33.8362 38.02C33.4767 37.84 33.3569 37.42 33.5366 37.12C33.7164 36.76 34.1358 36.64 34.4354 36.82C34.7949 37 34.9148 37.42 34.735 37.72C34.6152 37.9 34.3755 38.08 34.1358 38.08Z" fill="#FF6D2A"/>
<path d="M24.1891 45.52C24.0093 45.52 23.8296 45.46 23.7097 45.34C23.5899 45.22 23.53 45.04 23.53 44.86C23.53 44.68 23.5899 44.5 23.7097 44.38C23.9494 44.14 24.4288 44.14 24.6684 44.38C24.7883 44.5 24.8482 44.68 24.8482 44.86C24.8482 45.04 24.7883 45.22 24.6684 45.34C24.5486 45.46 24.3688 45.52 24.1891 45.52Z" fill="#FF6D2A"/>
<path d="M21.5526 51.52C10.2277 51.52 1 42.28 1 30.94C1 19.6 10.2277 10.36 21.5526 10.36C32.8775 10.36 42.1052 19.6 42.1052 30.94C42.1052 42.28 32.8775 51.52 21.5526 51.52ZM21.5526 11.74C10.9467 11.74 2.37816 20.38 2.37816 30.94C2.37816 41.56 11.0067 50.14 21.5526 50.14C32.1585 50.14 40.727 41.5 40.727 30.94C40.727 20.32 32.0985 11.74 21.5526 11.74Z" fill="#FF6D2A"/>
<path d="M30.9601 14.14C30.6005 14.14 30.3009 13.84 30.3009 13.48V3.46C30.3009 2.86 29.8216 2.38 29.2224 2.38H13.8828C13.2836 2.38 12.8043 2.86 12.8043 3.46V13.42C12.8043 13.78 12.5047 14.08 12.1451 14.08C11.7856 14.08 11.486 13.78 11.486 13.42V3.46C11.4261 2.08 12.5047 1 13.8828 1H29.2224C30.6005 1 31.6791 2.08 31.6791 3.46V13.42C31.6192 13.78 31.3196 14.14 30.9601 14.14Z" fill="#FF6D2A"/>
<path d="M29.1625 61H13.8828C12.5047 61 11.4261 59.92 11.4261 58.54V48.58C11.4261 48.22 11.7257 47.92 12.0852 47.92C12.4447 47.92 12.7443 48.22 12.7443 48.58V58.54C12.7443 59.14 13.2237 59.62 13.8229 59.62H29.1625C29.7617 59.62 30.241 59.14 30.241 58.54V48.58C30.241 48.22 30.5406 47.92 30.9001 47.92C31.2597 47.92 31.5593 48.22 31.5593 48.58V58.54C31.6192 59.92 30.5406 61 29.1625 61Z" fill="#FF6D2A"/>
<path d="M44.2024 34.66H41.4461C41.0866 34.66 40.787 34.36 40.787 34C40.787 33.64 41.0866 33.34 41.4461 33.34H44.2024C44.4421 33.34 44.6218 33.16 44.6218 32.92V29.14C44.6218 28.9 44.4421 28.72 44.2024 28.72H41.4461C41.0866 28.72 40.787 28.42 40.787 28.06C40.787 27.7 41.0866 27.4 41.4461 27.4H44.2024C45.221 27.4 46 28.24 46 29.2V32.98C46 33.82 45.1611 34.66 44.2024 34.66Z" stroke="#FF6D2A" stroke-width="0.5"/>
<path d="M15.0812 36.16C14.7816 36.16 14.5419 35.98 14.4221 35.74L12.8043 31.6H10.767C10.4075 31.6 10.1079 31.3 10.1079 30.94C10.1079 30.58 10.4075 30.28 10.767 30.28H13.2836C13.5832 30.28 13.8229 30.46 13.9427 30.7L14.9614 33.34L16.9387 26.2C16.9987 25.9 17.2383 25.72 17.5379 25.72C17.8375 25.72 18.0772 25.9 18.1971 26.14L19.8149 30.22H22.032C22.3316 30.22 22.5712 30.4 22.6911 30.64L23.7097 33.28L25.6871 26.2C25.747 25.9 25.9867 25.72 26.2863 25.72C26.5859 25.72 26.8256 25.9 26.9454 26.14L28.5632 30.22H32.2184C32.5779 30.22 32.8775 30.52 32.8775 30.88C32.8775 31.24 32.5779 31.54 32.2184 31.54H28.0839C27.7843 31.54 27.5446 31.36 27.4248 31.12L26.466 28.54L24.4887 35.62C24.4288 35.92 24.1891 36.1 23.8895 36.1C23.5899 36.1 23.3502 35.92 23.2304 35.68L21.5526 31.6H19.3356C19.036 31.6 18.7963 31.42 18.6764 31.18L17.6578 28.54L15.6804 35.62C15.6205 35.92 15.3808 36.16 15.0812 36.16Z" stroke="#FF6D2A" stroke-width="0.5"/>
<path d="M21.5526 45.82C13.3435 45.82 6.69241 39.16 6.69241 30.94C6.69241 22.72 13.3435 16.06 21.5526 16.06C29.7617 16.06 36.4128 22.72 36.4128 30.94C36.4128 31.3 36.1132 31.6 35.7537 31.6C35.3941 31.6 35.0945 31.3 35.0945 30.94C35.0945 23.5 29.0426 17.44 21.6125 17.44C14.1824 17.44 8.13049 23.5 8.13049 30.94C8.13049 38.38 14.1824 44.44 21.6125 44.44C21.972 44.44 22.2716 44.74 22.2716 45.1C22.2117 45.52 21.9121 45.82 21.5526 45.82Z" stroke="#FF6D2A" stroke-width="0.5"/>
<path d="M35.4541 34C35.2743 34 35.0945 33.94 34.9747 33.82C34.8549 33.7 34.7949 33.52 34.7949 33.34C34.7949 33.16 34.8549 32.98 34.9747 32.86C35.2144 32.62 35.6937 32.62 35.9334 32.86C36.0533 32.98 36.1132 33.16 36.1132 33.34C36.1132 33.52 36.0533 33.7 35.9334 33.82C35.8136 33.94 35.6338 34 35.4541 34Z" stroke="#FF6D2A" stroke-width="0.5"/>
<path d="M28.2037 44.14C27.9041 44.14 27.6045 43.96 27.5446 43.66C27.4248 43.36 27.6045 43 27.9041 42.88C28.2037 42.7 28.5633 42.82 28.8029 43.12C28.9827 43.42 28.9228 43.84 28.6232 44.08C28.5632 44.14 28.5033 44.14 28.4434 44.2C28.3835 44.08 28.2637 44.14 28.2037 44.14ZM31.6192 41.56C31.4394 41.56 31.1997 41.5 31.0799 41.32C30.8402 41.02 30.9001 40.66 31.1398 40.42C31.3795 40.18 31.7989 40.12 32.0985 40.36C32.3981 40.6 32.3981 41.02 32.1585 41.32C32.1585 41.38 32.0985 41.38 32.0386 41.44C31.9188 41.5 31.7989 41.56 31.6192 41.56ZM34.1358 38.08C34.016 38.08 33.9561 38.08 33.8362 38.02C33.4767 37.84 33.3569 37.42 33.5366 37.12C33.7164 36.76 34.1358 36.64 34.4354 36.82C34.7949 37 34.9148 37.42 34.735 37.72C34.6152 37.9 34.3755 38.08 34.1358 38.08Z" stroke="#FF6D2A" stroke-width="0.5"/>
<path d="M24.1891 45.52C24.0093 45.52 23.8296 45.46 23.7097 45.34C23.5899 45.22 23.53 45.04 23.53 44.86C23.53 44.68 23.5899 44.5 23.7097 44.38C23.9494 44.14 24.4288 44.14 24.6684 44.38C24.7883 44.5 24.8482 44.68 24.8482 44.86C24.8482 45.04 24.7883 45.22 24.6684 45.34C24.5486 45.46 24.3688 45.52 24.1891 45.52Z" stroke="#FF6D2A" stroke-width="0.5"/>
<path d="M21.5526 51.52C10.2277 51.52 1 42.28 1 30.94C1 19.6 10.2277 10.36 21.5526 10.36C32.8775 10.36 42.1052 19.6 42.1052 30.94C42.1052 42.28 32.8775 51.52 21.5526 51.52ZM21.5526 11.74C10.9467 11.74 2.37816 20.38 2.37816 30.94C2.37816 41.56 11.0067 50.14 21.5526 50.14C32.1585 50.14 40.727 41.5 40.727 30.94C40.727 20.32 32.0985 11.74 21.5526 11.74Z" stroke="#FF6D2A" stroke-width="0.5"/>
<path d="M30.9601 14.14C30.6005 14.14 30.3009 13.84 30.3009 13.48V3.46C30.3009 2.86 29.8216 2.38 29.2224 2.38H13.8828C13.2836 2.38 12.8043 2.86 12.8043 3.46V13.42C12.8043 13.78 12.5047 14.08 12.1451 14.08C11.7856 14.08 11.486 13.78 11.486 13.42V3.46C11.4261 2.08 12.5047 1 13.8828 1H29.2224C30.6005 1 31.6791 2.08 31.6791 3.46V13.42C31.6192 13.78 31.3196 14.14 30.9601 14.14Z" stroke="#FF6D2A" stroke-width="0.5"/>
<path d="M29.1625 61H13.8828C12.5047 61 11.4261 59.92 11.4261 58.54V48.58C11.4261 48.22 11.7257 47.92 12.0852 47.92C12.4447 47.92 12.7443 48.22 12.7443 48.58V58.54C12.7443 59.14 13.2237 59.62 13.8229 59.62H29.1625C29.7617 59.62 30.241 59.14 30.241 58.54V48.58C30.241 48.22 30.5406 47.92 30.9001 47.92C31.2597 47.92 31.5593 48.22 31.5593 48.58V58.54C31.6192 59.92 30.5406 61 29.1625 61Z" stroke="#FF6D2A" stroke-width="0.5"/>
</svg>
