<svg width="81" height="60" viewBox="0 0 81 60" fill="none" xmlns="http://www.w3.org/2000/svg">
<path d="M78.9497 48.6555H77.8183V5.04202C77.8183 2.26891 75.5554 0 72.7897 0H8.42298C5.65723 0 3.39434 2.26891 3.39434 5.04202V48.6555H2.26289C1.00573 48.6555 0 49.6639 0 50.9244V53.3193C0 53.4454 0 53.5714 0 53.5714C1.13145 57.2269 4.40007 60 8.5487 60H72.4125C76.4354 60 79.8298 57.479 80.9612 53.5714C80.9612 53.4454 80.9612 53.4454 80.9612 53.3193V50.9244C81.2126 49.6639 80.2069 48.6555 78.9497 48.6555ZM5.28008 5.04202C5.28008 3.27731 6.66296 1.89076 8.42298 1.89076H72.9154C74.6754 1.89076 76.0583 3.27731 76.0583 5.04202V48.6555C53.5551 48.6555 32.6862 48.6555 5.28008 48.6555V5.04202ZM50.2865 50.5462L49.7836 51.9328C49.5322 52.563 49.0293 52.9412 48.275 52.9412H32.9376C32.3091 52.9412 31.6805 52.563 31.429 51.9328L30.9262 50.5462H50.2865ZM79.3269 53.1933C78.3212 56.0924 75.6811 58.1092 72.6639 58.1092H8.67442C5.53151 58.1092 2.89147 55.9664 2.01146 53.1933V50.9244C2.01146 50.7983 2.13717 50.5462 2.38861 50.5462C15.966 50.5462 11.063 50.5462 29.0404 50.5462L29.9204 52.563C30.4233 53.8235 31.6805 54.7059 33.1891 54.7059H48.4007C49.7836 54.7059 51.1665 53.8235 51.5436 52.563L52.4236 50.5462C63.2352 50.5462 68.2639 50.5462 79.0755 50.5462C79.2012 50.5462 79.4526 50.6723 79.4526 50.9244V53.1933H79.3269Z" fill="#FF6D2A"/>
<path d="M72.7897 43.8656V6.80672C72.7897 6.30252 72.4125 5.79832 71.7839 5.79832H9.303C8.80013 5.79832 8.29727 6.17647 8.29727 6.80672V43.8656C8.29727 44.3698 8.67442 44.874 9.303 44.874H71.9097C72.4125 44.7479 72.7897 44.3698 72.7897 43.8656ZM10.3087 42.8571V7.68908H71.0296V42.8571H10.3087Z" fill="#FF6D2A"/>
<path d="M60.7209 53.4454H59.338C58.8352 53.4454 58.3323 53.8235 58.3323 54.4538C58.3323 55.084 58.7094 55.4622 59.338 55.4622H60.7209C61.2238 55.4622 61.7266 55.084 61.7266 54.4538C61.7266 53.8235 61.2238 53.4454 60.7209 53.4454Z" fill="#FF6D2A"/>
<path d="M65.6238 53.4454H64.241C63.7381 53.4454 63.2352 53.8235 63.2352 54.4538C63.2352 55.084 63.6124 55.4622 64.241 55.4622H65.6238C66.1267 55.4622 66.6296 55.084 66.6296 54.4538C66.6296 53.8235 66.1267 53.4454 65.6238 53.4454Z" fill="#FF6D2A"/>
<path d="M70.401 53.4454H69.0182C68.5153 53.4454 68.0124 53.8235 68.0124 54.4538C68.0124 55.084 68.3896 55.4622 69.0182 55.4622H70.401C70.9039 55.4622 71.4068 55.084 71.4068 54.4538C71.4068 53.8235 71.0296 53.4454 70.401 53.4454Z" fill="#FF6D2A"/>
<path d="M39.9777 4.53782C40.1035 4.66387 40.3549 4.78992 40.6063 4.78992C40.8577 4.78992 41.1092 4.66387 41.2349 4.53782C41.3606 4.41176 41.4863 4.15966 41.4863 3.90756C41.4863 3.78151 41.4863 3.65546 41.3606 3.52941C41.2349 3.40336 41.2349 3.27731 41.1092 3.27731C40.732 2.89916 40.1035 2.89916 39.7263 3.27731C39.6006 3.40336 39.6006 3.40336 39.4749 3.52941C39.4749 3.65546 39.3492 3.78151 39.3492 3.90756C39.3492 4.03361 39.3492 4.15966 39.4749 4.28571C39.7263 4.28571 39.852 4.41176 39.9777 4.53782Z" fill="#FF6D2A"/>
</svg>
