<svg width="65" height="61" viewBox="0 0 65 61" fill="none" xmlns="http://www.w3.org/2000/svg">
<path d="M23.6025 29.2739H16.4075C16.0903 29.2739 15.833 29.5325 15.833 29.8512C15.833 30.1698 16.0903 30.4284 16.4075 30.4284H23.6025C23.9196 30.4284 24.177 30.1698 24.177 29.8512C24.177 29.5325 23.9196 29.2739 23.6025 29.2739Z" fill="#FF6D2A"/>
<path d="M23.6025 32.5112H16.4075C16.0903 32.5112 15.833 32.7698 15.833 33.0884C15.833 33.4071 16.0903 33.6657 16.4075 33.6657H23.6025C23.9196 33.6657 24.177 33.4071 24.177 33.0884C24.177 32.7698 23.9196 32.5112 23.6025 32.5112Z" fill="#FF6D2A"/>
<path d="M23.6025 35.7484H16.4075C16.0903 35.7484 15.833 36.007 15.833 36.3257C15.833 36.6443 16.0903 36.9029 16.4075 36.9029H23.6025C23.9196 36.9029 24.177 36.6443 24.177 36.3257C24.177 36.007 23.9196 35.7484 23.6025 35.7484Z" fill="#FF6D2A"/>
<path d="M23.6025 38.9834H16.4075C16.0903 38.9834 15.833 39.242 15.833 39.5606C15.833 39.8793 16.0903 40.1379 16.4075 40.1379H23.6025C23.9196 40.1379 24.177 39.8793 24.177 39.5606C24.177 39.242 23.9196 38.9834 23.6025 38.9834Z" fill="#FF6D2A"/>
<path d="M23.6025 42.2206H16.4075C16.0903 42.2206 15.833 42.4793 15.833 42.7979C15.833 43.1166 16.0903 43.3752 16.4075 43.3752H23.6025C23.9196 43.3752 24.177 43.1166 24.177 42.7979C24.177 42.4793 23.9196 42.2206 23.6025 42.2206Z" fill="#FF6D2A"/>
<path d="M22.5408 22.8155H17.4691C15.0172 22.8155 13.0202 24.8198 13.0202 27.2858V45.3655C13.0202 47.8293 15.0149 49.8358 17.4691 49.8358H22.5408C24.9928 49.8358 26.9898 47.8316 26.9898 45.3655V27.2858C26.9875 24.8198 24.9928 22.8155 22.5408 22.8155ZM25.1514 45.3655C25.1514 46.811 23.9794 47.9863 22.5408 47.9863H17.4691C16.0306 47.9863 14.8586 46.811 14.8586 45.3655V27.2858C14.8586 25.8404 16.0306 24.6651 17.4691 24.6651H22.5408C23.9794 24.6651 25.1514 25.8404 25.1514 27.2858V45.3655Z" fill="#FF6D2A"/>
<path d="M62.1079 14.0343C59.2607 9.78337 53.9109 8.46953 48.0303 10.4576C47.4903 9.62174 46.9112 8.83666 46.3275 8.06314C46.3413 7.91305 46.3183 7.75604 46.2563 7.61519C44.3443 3.13336 37.903 0 30.5931 0C23.2716 0 16.8257 3.13105 14.9161 7.61519C14.854 7.75604 14.831 7.91074 14.8448 8.05852C14.3714 8.67734 13.9095 9.31925 13.4637 9.98887H0.0985058L0.0111815 10.8178C0.00428751 10.894 -0.616174 18.0959 8.47474 19.9754C5.70564 27.4659 4.16138 36.3326 4.16138 45.5641C4.16138 48.5612 4.31994 51.5076 4.63018 54.3315C3.81898 55.0288 3.29044 56.0679 3.29044 57.2755C3.29044 59.3306 4.9542 61 6.99712 61H54.1752C56.2204 61 57.8819 59.3283 57.8819 57.1624C57.8819 56.0148 57.3534 54.9988 56.5399 54.3177C56.8501 51.4752 57.0109 48.5312 57.0109 45.5641C57.0109 43.4283 56.9397 41.5695 56.7972 39.8931C56.7536 39.2328 56.6846 38.5862 56.6272 37.9305C60.7199 35.5729 63.4546 32.1025 64.5185 27.8377C65.6606 23.2496 64.7368 17.9597 62.1079 14.0343ZM30.5931 1.84953C36.4047 1.84953 41.5569 3.92305 43.8135 7.031H17.3565C19.6155 3.92305 24.7699 1.84953 30.5931 1.84953ZM1.85648 11.8384H12.3009C11.1404 13.7988 10.0902 15.9323 9.15955 18.216C3.13877 17.0799 2.02424 13.4871 1.85648 11.8384ZM54.1752 59.1505H6.99712C5.96762 59.1505 5.12884 58.31 5.12884 57.1624C5.12884 56.1349 5.95613 55.3036 6.97414 55.2898H54.1982C55.2162 55.3036 56.0435 56.1349 56.0435 57.2732C56.0412 58.31 55.2047 59.1505 54.1752 59.1505ZM54.1752 53.4379H6.99712C6.98104 53.4379 6.96725 53.4425 6.95116 53.4425H6.38126C6.12848 50.8957 5.99979 48.2518 5.99979 45.5641C5.99979 30.941 9.92019 17.2877 16.504 8.90363H44.689C46.1 10.7347 47.3915 12.7759 48.5221 14.9741C52.13 22.012 54.359 30.6709 54.9657 40.034C55.1059 41.6734 55.1725 43.4837 55.1725 45.5664C55.1725 48.2311 55.0439 50.8795 54.7865 53.4448H54.2212C54.2051 53.4425 54.1913 53.4379 54.1752 53.4379ZM62.2872 27.2766C61.4576 30.6085 59.4216 33.3932 56.3652 35.4067C55.4 27.5329 53.2905 20.241 50.156 14.1243C49.8641 13.5586 49.5309 13.0414 49.2207 12.4965C53.9339 11.0395 57.9968 12.0393 60.2006 15.325C62.4779 18.7239 63.2776 23.3051 62.2872 27.2766Z" fill="#FF6D2A"/>
</svg>
