<svg width="83" height="53" viewBox="0 0 83 53" fill="none" xmlns="http://www.w3.org/2000/svg">
<path d="M54.3793 0C49.7812 0 45.4786 1.27981 41.7987 3.50115H7.40273C7.399 3.50113 7.39527 3.50113 7.39155 3.50115C3.31079 3.50115 0 6.83651 0 10.9475V38.4805C0 42.5915 3.31079 45.9269 7.39155 45.9269H8.11026V52.1762C8.11028 52.3947 8.19644 52.6042 8.34979 52.7587C8.50314 52.9131 8.71112 53 8.92799 53H13.6763C13.8932 53 14.1011 52.9131 14.2545 52.7587C14.4078 52.6042 14.494 52.3947 14.494 52.1762V45.9269H41.7987C45.4786 48.1482 49.7812 49.4281 54.3793 49.4281C58.9774 49.4281 63.2801 48.1482 66.96 45.9269H70.0424V52.1762C70.0424 52.3947 70.1286 52.6042 70.282 52.7587C70.4353 52.9131 70.6433 53 70.8602 53H75.6085C75.8253 53 76.0333 52.9131 76.1867 52.7587C76.34 52.6042 76.4262 52.3947 76.4262 52.1762V45.8786C80.122 45.4679 83 42.3127 83 38.4805V10.9475C83 6.83651 79.6892 3.50115 75.6085 3.50115H66.96C63.2801 1.27981 58.9774 0 54.3793 0ZM54.3793 1.6476C58.6471 1.6476 62.6374 2.82447 66.056 4.86879C66.1652 4.99368 66.3094 5.08231 66.4696 5.12301C72.9581 9.1929 77.2759 16.4393 77.2759 24.714C77.2759 32.9929 72.954 40.2427 66.4601 44.3114C66.3184 44.3526 66.1903 44.4315 66.0895 44.54C62.6636 46.5965 58.6609 47.7804 54.3793 47.7804C50.1115 47.7804 46.1212 46.6036 42.7026 44.5593C42.5934 44.4344 42.4492 44.3457 42.289 44.305C35.8005 40.2351 31.4828 32.9888 31.4828 24.714C31.4828 16.4351 35.8046 9.18531 42.2986 5.11658C42.4403 5.07546 42.5683 4.99652 42.6691 4.8881C46.095 2.8315 50.0977 1.6476 54.3793 1.6476ZM54.3793 4.119C43.0984 4.119 33.936 13.3495 33.936 24.714C33.936 36.0786 43.0984 45.309 54.3793 45.309C65.6602 45.309 74.8227 36.0786 74.8227 24.714C74.8227 13.3495 65.6602 4.119 54.3793 4.119ZM7.39155 5.14876H39.4062C33.5957 9.67008 29.8473 16.753 29.8473 24.714C29.8473 32.675 33.5957 39.7579 39.4062 44.2793H13.6763H8.92799H7.39155C4.18855 44.2793 1.63547 41.7072 1.63547 38.4805V10.9475C1.63547 7.72078 4.18855 5.14876 7.39155 5.14876ZM69.3525 5.14876H75.6085C78.8114 5.14876 81.3645 7.72078 81.3645 10.9475V38.4805C81.3645 41.7072 78.8114 44.2793 75.6085 44.2793H69.3525C75.163 39.7579 78.9113 32.675 78.9113 24.714C78.9113 16.753 75.163 9.67007 69.3525 5.14876ZM54.3793 5.76661C64.7763 5.76661 73.1872 14.2399 73.1872 24.714C73.1872 35.1882 64.7763 43.6614 54.3793 43.6614C43.9823 43.6614 35.5714 35.1882 35.5714 24.714C35.5714 14.2399 43.9823 5.76661 54.3793 5.76661ZM10.9436 6.5711C6.86282 6.5711 3.55203 9.90646 3.55203 14.0175V17.834C3.5505 17.9431 3.57052 18.0515 3.61092 18.1528C3.65133 18.2541 3.71132 18.3463 3.78741 18.424C3.86349 18.5018 3.95416 18.5635 4.05413 18.6057C4.1541 18.6478 4.26139 18.6695 4.36976 18.6695C4.47814 18.6695 4.58542 18.6478 4.6854 18.6057C4.78537 18.5635 4.87604 18.5018 4.95212 18.424C5.02821 18.3463 5.0882 18.2541 5.12861 18.1528C5.16901 18.0515 5.18903 17.9431 5.1875 17.834V14.0175C5.1875 10.7907 7.74058 8.2187 10.9436 8.2187H30.8199C30.9283 8.22024 31.0359 8.20008 31.1364 8.15937C31.237 8.11866 31.3285 8.05823 31.4057 7.98158C31.4829 7.90493 31.5441 7.81359 31.586 7.71288C31.6278 7.61216 31.6493 7.50407 31.6493 7.3949C31.6493 7.28573 31.6278 7.17764 31.586 7.07692C31.5441 6.97621 31.4829 6.88487 31.4057 6.80822C31.3285 6.73157 31.237 6.67114 31.1364 6.63043C31.0359 6.58972 30.9283 6.56956 30.8199 6.5711H10.9436ZM54.3793 10.2975C54.271 10.296 54.1634 10.3161 54.0628 10.3568C53.9623 10.3975 53.8707 10.458 53.7936 10.5346C53.7164 10.6113 53.6551 10.7026 53.6133 10.8033C53.5715 10.9041 53.5499 11.0121 53.5499 11.1213C53.5499 11.2305 53.5715 11.3386 53.6133 11.4393C53.6551 11.54 53.7164 11.6313 53.7936 11.708C53.8707 11.7846 53.9623 11.8451 54.0628 11.8858C54.1634 11.9265 54.271 11.9467 54.3793 11.9451C61.3891 11.9451 67.0542 17.6522 67.0542 24.714C67.0527 24.8232 67.0727 24.9316 67.1131 25.0329C67.1535 25.1342 67.2135 25.2264 67.2896 25.3041C67.3656 25.3819 67.4563 25.4436 67.5563 25.4857C67.6563 25.5279 67.7635 25.5495 67.8719 25.5495C67.9803 25.5495 68.0876 25.5279 68.1876 25.4857C68.2875 25.4436 68.3782 25.3819 68.4543 25.3041C68.5304 25.2264 68.5904 25.1342 68.6308 25.0329C68.6712 24.9316 68.6912 24.8232 68.6897 24.714C68.6897 16.7617 62.273 10.2975 54.3793 10.2975ZM40.8739 23.879C40.6573 23.8824 40.4509 23.9722 40.3 24.1288C40.1491 24.2853 40.066 24.4958 40.069 24.714C40.069 32.6663 46.4856 39.1305 54.3793 39.1305C54.4877 39.1321 54.5952 39.1119 54.6958 39.0712C54.7964 39.0305 54.8879 38.9701 54.9651 38.8934C55.0422 38.8168 55.1035 38.7254 55.1453 38.6247C55.1871 38.524 55.2087 38.4159 55.2087 38.3067C55.2087 38.1976 55.1871 38.0895 55.1453 37.9888C55.1035 37.8881 55.0422 37.7967 54.9651 37.7201C54.8879 37.6434 54.7964 37.583 54.6958 37.5423C54.5952 37.5016 54.4877 37.4814 54.3793 37.4829C47.3695 37.4829 41.7044 31.7758 41.7044 24.714C41.7059 24.6038 41.6855 24.4944 41.6442 24.3923C41.603 24.2902 41.5419 24.1975 41.4644 24.1196C41.387 24.0417 41.2948 23.9803 41.1934 23.9389C41.092 23.8976 40.9833 23.8772 40.8739 23.879ZM7.91062 24.7172C6.33963 24.7172 5.04855 26.0179 5.04855 27.6005C5.04855 29.1832 6.33963 30.4839 7.91062 30.4839C9.48161 30.4839 10.7727 29.1832 10.7727 27.6005C10.7727 26.0179 9.48161 24.7172 7.91062 24.7172ZM16.6885 24.7172C15.1175 24.7172 13.8264 26.0179 13.8264 27.6005C13.8264 29.1832 15.1175 30.4839 16.6885 30.4839C18.2595 30.4839 19.5505 29.1832 19.5505 27.6005C19.5505 26.0179 18.2595 24.7172 16.6885 24.7172ZM7.91062 26.3648C8.59773 26.3648 9.13722 26.9083 9.13722 27.6005C9.13722 28.2928 8.59773 28.8362 7.91062 28.8362C7.2235 28.8362 6.68402 28.2928 6.68401 27.6005C6.68401 26.9083 7.2235 26.3648 7.91062 26.3648ZM16.6885 26.3648C17.3756 26.3648 17.9151 26.9083 17.9151 27.6005C17.9151 28.2928 17.3756 28.8362 16.6885 28.8362C16.0014 28.8362 15.4619 28.2928 15.4619 27.6005C15.4619 26.9083 16.0014 26.3648 16.6885 26.3648ZM8.24122 31.2352C6.51528 31.2352 5.09966 32.6597 5.09966 34.3985V36.791C5.09966 38.5298 6.51528 39.9559 8.24122 39.9559H24.8658C26.5918 39.9559 28.0058 38.5298 28.0058 36.791V34.3985C28.0058 32.6597 26.5918 31.2352 24.8658 31.2352H8.24122ZM8.24122 32.8828H24.8658C25.714 32.8828 26.3703 33.544 26.3703 34.3985V36.791C26.3703 37.6456 25.714 38.3083 24.8658 38.3083H8.24122C7.39304 38.3083 6.73512 37.6456 6.73512 36.791V34.3985C6.73512 33.544 7.39304 32.8828 8.24122 32.8828ZM9.74573 45.9269H12.8585V51.3524H9.74573V45.9269ZM71.6779 45.9269H74.7907V51.3524H71.6779V45.9269Z" fill="#FF6D2A"/>
</svg>
