<svg width="66" height="53" viewBox="0 0 66 53" fill="none" xmlns="http://www.w3.org/2000/svg">
<path d="M61.5 0H25.41C24.4935 0.00148868 23.5991 0.281553 22.8454 0.803051C22.0918 1.32455 21.5144 2.06284 21.19 2.92L18.99 8.78C18.8143 9.26373 18.4931 9.68115 18.0705 9.97484C17.6479 10.2685 17.1446 10.424 16.63 10.42H15.39V8.42C15.3874 7.85152 15.1597 7.30722 14.7568 6.90618C14.3538 6.50514 13.8085 6.27999 13.24 6.28H7.75C7.18244 6.28 6.63812 6.50546 6.23679 6.90679C5.83546 7.30812 5.61 7.85244 5.61 8.42V10.42H4.5C3.30551 10.4279 2.16248 10.9073 1.3197 11.7538C0.476922 12.6003 0.00261074 13.7455 0 14.94V47.94C0.0105056 49.1284 0.488614 50.2648 1.33083 51.1033C2.17304 51.9417 3.31159 52.4148 4.5 52.42H61.5C62.6936 52.4147 63.8366 51.9375 64.6797 51.0926C65.5227 50.2477 65.9974 49.1036 66 47.91V4.51C65.9974 3.31641 65.5227 2.17231 64.6797 1.32738C63.8366 0.48245 62.6936 0.00527848 61.5 0ZM7.61 8.39C7.61 8.35287 7.62475 8.31726 7.651 8.29101C7.67726 8.26475 7.71287 8.25 7.75 8.25H13.24C13.2592 8.24863 13.2785 8.25123 13.2967 8.25764C13.3148 8.26406 13.3314 8.27416 13.3455 8.2873C13.3596 8.30044 13.3708 8.31634 13.3785 8.33401C13.3861 8.35168 13.39 8.37074 13.39 8.39V10.39H7.61V8.39ZM4.51 12.39H16.63C17.5484 12.3856 18.444 12.1033 19.199 11.5804C19.954 11.0574 20.533 10.3182 20.86 9.46L23.06 3.59C23.2408 3.11324 23.5625 2.70285 23.9823 2.41345C24.4021 2.12405 24.9001 1.96937 25.41 1.97H61.5C61.8309 1.97262 62.1581 2.04039 62.4629 2.16946C62.7676 2.29852 63.0439 2.48635 63.2761 2.72221C63.5082 2.95807 63.6916 3.23735 63.8158 3.5441C63.9401 3.85085 64.0026 4.17907 64 4.51V29.35H50C49.6717 25.0795 47.7435 21.0902 44.601 18.1799C41.4584 15.2697 37.3331 13.6529 33.05 13.6529C28.7669 13.6529 24.6416 15.2697 21.499 18.1799C18.3564 21.0902 16.4283 25.0795 16.1 29.35H2V14.94C1.99998 14.2751 2.26273 13.6371 2.73101 13.1651C3.19928 12.6931 3.83513 12.4253 4.5 12.42L4.51 12.39ZM48 30.35C48 33.3167 47.1203 36.2168 45.472 38.6836C43.8238 41.1503 41.4811 43.0729 38.7402 44.2082C35.9994 45.3435 32.9834 45.6406 30.0736 45.0618C27.1639 44.483 24.4912 43.0544 22.3934 40.9566C20.2956 38.8588 18.867 36.1861 18.2882 33.2764C17.7094 30.3666 18.0065 27.3506 19.1418 24.6097C20.2771 21.8689 22.1997 19.5262 24.6664 17.878C27.1332 16.2297 30.0333 15.35 33 15.35C36.9782 15.35 40.7936 16.9304 43.6066 19.7434C46.4196 22.5564 48 26.3718 48 30.35ZM61.5 50.42H4.5C3.83685 50.4147 3.20251 50.1483 2.73452 49.6784C2.26653 49.2086 2.00261 48.5732 2 47.91V31.35H16.05C16.3783 35.6205 18.3064 39.6098 21.449 42.5201C24.5916 45.4303 28.7169 47.0471 33 47.0471C37.2831 47.0471 41.4084 45.4303 44.551 42.5201C47.6936 39.6098 49.6217 35.6205 49.95 31.35H63.95V47.91C63.9477 48.5647 63.6906 49.1927 63.2333 49.6612C62.7761 50.1297 62.1544 50.4018 61.5 50.42Z" fill="#FF6D2A"/>
<path d="M33 18.35C30.6266 18.35 28.3066 19.0538 26.3332 20.3723C24.3598 21.6909 22.8217 23.5651 21.9135 25.7578C21.0052 27.9505 20.7676 30.3633 21.2306 32.6911C21.6936 35.0188 22.8365 37.157 24.5147 38.8353C26.193 40.5135 28.3311 41.6564 30.6589 42.1194C32.9867 42.5824 35.3995 42.3448 37.5922 41.4365C39.7849 40.5283 41.6591 38.9902 42.9776 37.0168C44.2962 35.0434 45 32.7234 45 30.35C45 27.1674 43.7357 24.1151 41.4853 21.8647C39.2349 19.6143 36.1826 18.35 33 18.35ZM33 40.35C31.0222 40.35 29.0888 39.7635 27.4443 38.6647C25.7998 37.5659 24.5181 36.0041 23.7612 34.1768C23.0043 32.3495 22.8063 30.3389 23.1922 28.3991C23.578 26.4593 24.5304 24.6774 25.9289 23.2789C27.3275 21.8804 29.1093 20.928 31.0491 20.5421C32.9889 20.1563 34.9996 20.3543 36.8268 21.1112C38.6541 21.8681 40.2159 23.1498 41.3147 24.7943C42.4135 26.4388 43 28.3722 43 30.35C43 33.0021 41.9464 35.5457 40.0711 37.421C38.1957 39.2964 35.6522 40.35 33 40.35Z" fill="#FF6D2A"/>
<path d="M33 23.35V25.35C34.3261 25.35 35.5979 25.8768 36.5355 26.8144C37.4732 27.7521 38 29.0239 38 30.35H40C40 28.4935 39.2625 26.713 37.9497 25.4002C36.637 24.0875 34.8565 23.35 33 23.35Z" fill="#FF6D2A"/>
<path d="M51.0198 13.55H59.0198C59.5935 13.55 60.144 13.3227 60.5506 12.9179C60.9573 12.5131 61.1871 11.9638 61.1898 11.39V7.02997C61.1934 6.60964 61.0755 6.19723 60.8502 5.84239C60.6248 5.48755 60.3017 5.20541 59.9198 5.02997C59.6359 4.90588 59.3296 4.84122 59.0198 4.83997H51.0198C50.4442 4.83997 49.8923 5.06859 49.4853 5.47555C49.0784 5.8825 48.8498 6.43445 48.8498 7.00997V9.22997C48.7694 10.1712 48.8097 11.1189 48.9698 12.05C49.1051 12.487 49.3775 12.8688 49.7467 13.139C50.1159 13.4091 50.5623 13.5532 51.0198 13.55ZM50.8498 7.02997C50.8498 6.98488 50.8677 6.94164 50.8995 6.90976C50.9314 6.87788 50.9747 6.85997 51.0198 6.85997H59.0998C59.1296 6.87202 59.1551 6.89279 59.1729 6.91954C59.1907 6.9463 59.2001 6.97781 59.1998 7.00997V11.37C59.1972 11.4133 59.1782 11.454 59.1466 11.4838C59.1149 11.5135 59.0732 11.53 59.0298 11.53H51.0298C51.0051 11.5294 50.9809 11.5238 50.9585 11.5134C50.9362 11.5031 50.9162 11.4883 50.8998 11.47C50.8998 10.98 50.8998 9.46997 50.8998 9.22997L50.8498 7.02997Z" fill="#FF6D2A"/>
<path d="M56.5303 8.20996H53.5303V10.21H56.5303V8.20996Z" fill="#FF6D2A"/>
</svg>
