<svg width="60" height="63" viewBox="0 0 60 63" fill="none" xmlns="http://www.w3.org/2000/svg">
<path d="M59 20.2706V1H1V20.2706H7.63928V24.1715H1V43.442H29.3658V54.1261C27.6637 54.3958 26.3192 55.7256 26.0471 57.4085H10.358V58.663H26.0471C26.3528 60.5517 28.0061 62 30 62C31.9945 62 33.6478 60.551 33.9529 58.663H49.6413V57.4085H33.9529C33.6802 55.7249 32.3357 54.3951 30.6342 54.1261V43.442H59V24.1715H52.3607V20.2706H59ZM32.7397 58.0364C32.7397 59.5305 31.5106 60.7461 30 60.7461C28.4894 60.7461 27.2603 59.5305 27.2603 58.0364C27.2603 56.5422 28.4894 55.3266 30 55.3266C31.5106 55.326 32.7397 56.5422 32.7397 58.0364ZM2.26837 19.016V2.25451H57.731V19.016H2.26837ZM57.7316 25.426V42.1875H2.26837V25.426H57.7316ZM51.0924 24.1715H8.90765V20.2706H51.0924V24.1715Z" fill="#FF6D2A"/>
<path d="M11.6478 6.67042C9.43765 6.67042 7.63974 8.44869 7.63974 10.6353C7.63974 12.8213 9.43765 14.5996 11.6478 14.5996C13.8579 14.5996 15.6565 12.8213 15.6565 10.6353C15.6558 8.44869 13.8579 6.67042 11.6478 6.67042ZM11.6478 13.345C10.1372 13.345 8.90811 12.1294 8.90811 10.6353C8.90811 9.14118 10.1372 7.92493 11.6478 7.92493C13.1584 7.92493 14.3881 9.14055 14.3881 10.6353C14.3881 12.1301 13.1584 13.345 11.6478 13.345Z" fill="#FF6D2A"/>
<path d="M52.3603 6.80962H51.0919V14.4609H52.3603V6.80962Z" fill="#FF6D2A"/>
<path d="M47.2577 6.80962H45.9893V14.4609H47.2577V6.80962Z" fill="#FF6D2A"/>
<path d="M48.3519 37.7717C50.562 37.7717 52.3599 35.9928 52.3599 33.8068C52.3599 31.6208 50.562 29.8425 48.3519 29.8425C46.1417 29.8425 44.3438 31.6208 44.3438 33.8068C44.3438 35.9928 46.1417 37.7717 48.3519 37.7717ZM48.3519 31.0964C49.8625 31.0964 51.0915 32.312 51.0915 33.8061C51.0915 35.3009 49.8625 36.5165 48.3519 36.5165C46.8412 36.5165 45.6122 35.3009 45.6122 33.8061C45.6122 32.3126 46.8419 31.0964 48.3519 31.0964Z" fill="#FF6D2A"/>
<path d="M8.90749 29.9811H7.63912V37.6324H8.90749V29.9811Z" fill="#FF6D2A"/>
<path d="M14.0101 29.9811H12.7417V37.6324H14.0101V29.9811Z" fill="#FF6D2A"/>
<path d="M59 20.2706V1H1V20.2706H7.63928V24.1715H1V43.442H29.3658V54.1261C27.6637 54.3958 26.3192 55.7256 26.0471 57.4085H10.358V58.663H26.0471C26.3528 60.5517 28.0061 62 30 62C31.9945 62 33.6478 60.551 33.9529 58.663H49.6413V57.4085H33.9529C33.6802 55.7249 32.3357 54.3951 30.6342 54.1261V43.442H59V24.1715H52.3607V20.2706H59ZM32.7397 58.0364C32.7397 59.5305 31.5106 60.7461 30 60.7461C28.4894 60.7461 27.2603 59.5305 27.2603 58.0364C27.2603 56.5422 28.4894 55.3266 30 55.3266C31.5106 55.326 32.7397 56.5422 32.7397 58.0364ZM2.26837 19.016V2.25451H57.731V19.016H2.26837ZM57.7316 25.426V42.1875H2.26837V25.426H57.7316ZM51.0924 24.1715H8.90765V20.2706H51.0924V24.1715Z" stroke="#FF6D2A" stroke-width="0.7"/>
<path d="M11.6478 6.67042C9.43765 6.67042 7.63974 8.44869 7.63974 10.6353C7.63974 12.8213 9.43765 14.5996 11.6478 14.5996C13.8579 14.5996 15.6565 12.8213 15.6565 10.6353C15.6558 8.44869 13.8579 6.67042 11.6478 6.67042ZM11.6478 13.345C10.1372 13.345 8.90811 12.1294 8.90811 10.6353C8.90811 9.14118 10.1372 7.92493 11.6478 7.92493C13.1584 7.92493 14.3881 9.14055 14.3881 10.6353C14.3881 12.1301 13.1584 13.345 11.6478 13.345Z" stroke="#FF6D2A" stroke-width="0.7"/>
<path d="M52.3603 6.80962H51.0919V14.4609H52.3603V6.80962Z" stroke="#FF6D2A" stroke-width="0.7"/>
<path d="M47.2577 6.80962H45.9893V14.4609H47.2577V6.80962Z" stroke="#FF6D2A" stroke-width="0.7"/>
<path d="M48.3519 37.7717C50.562 37.7717 52.3599 35.9928 52.3599 33.8068C52.3599 31.6208 50.562 29.8425 48.3519 29.8425C46.1417 29.8425 44.3438 31.6208 44.3438 33.8068C44.3438 35.9928 46.1417 37.7717 48.3519 37.7717ZM48.3519 31.0964C49.8625 31.0964 51.0915 32.312 51.0915 33.8061C51.0915 35.3009 49.8625 36.5165 48.3519 36.5165C46.8412 36.5165 45.6122 35.3009 45.6122 33.8061C45.6122 32.3126 46.8419 31.0964 48.3519 31.0964Z" stroke="#FF6D2A" stroke-width="0.7"/>
<path d="M8.90749 29.9811H7.63912V37.6324H8.90749V29.9811Z" stroke="#FF6D2A" stroke-width="0.7"/>
<path d="M14.0101 29.9811H12.7417V37.6324H14.0101V29.9811Z" stroke="#FF6D2A" stroke-width="0.7"/>
</svg>
