<svg width="38" height="62" viewBox="0 0 38 62" fill="none" xmlns="http://www.w3.org/2000/svg">
<path d="M2.66666 1C1.7476 1 1 1.74977 1 2.6715V59.3285C1 60.2502 1.7476 61 2.66666 61H35.3333C36.2524 61 37 60.2502 37 59.3285V2.6715C37 1.74977 36.2524 1 35.3333 1H2.66666ZM36.0796 2.6715V59.3285C36.0796 59.7411 35.7448 60.0769 35.3333 60.0769H2.66666C2.25522 60.0769 1.9204 59.7411 1.9204 59.3285V2.6715C1.9204 2.25886 2.25522 1.92308 2.66666 1.92308H35.3333C35.7448 1.92308 36.0796 2.25886 36.0796 2.6715Z" fill="#FF6D2A"/>
<path d="M30.8142 10.27H7.18553C6.93139 10.27 6.72533 10.4766 6.72533 10.7315V15.7316C6.72533 15.9865 6.93139 16.1931 7.18553 16.1931H30.8142C31.0684 16.1931 31.2744 15.9865 31.2744 15.7316V10.7315C31.2744 10.4766 31.0684 10.27 30.8142 10.27ZM30.354 15.2701H7.64574V11.1931H30.354V15.2701Z" fill="#FF6D2A"/>
<path d="M30.8142 20.4062H7.18553C6.93139 20.4062 6.72533 20.6129 6.72533 20.8678V25.8679C6.72533 26.1227 6.93139 26.3294 7.18553 26.3294H30.8142C31.0684 26.3294 31.2744 26.1227 31.2744 25.8679V20.8678C31.2744 20.6129 31.0684 20.4062 30.8142 20.4062ZM30.354 25.4063H7.64574V21.3293H30.354V25.4063Z" fill="#FF6D2A"/>
<path d="M23.1607 38.9376C22.9555 38.7869 22.6677 38.8315 22.5174 39.037C22.3672 39.2426 22.4115 39.5315 22.6164 39.6822C24.1932 40.8415 25.1345 42.7003 25.1345 44.6546C25.1345 48.047 22.3825 50.8069 19 50.8069C15.6175 50.8069 12.8655 48.047 12.8655 44.6546C12.8655 42.7003 13.8068 40.8413 15.3833 39.6822C15.5883 39.5315 15.6325 39.2426 15.4824 39.037C15.3319 38.8315 15.0445 38.7869 14.8391 38.9376C13.027 40.27 11.9451 42.4073 11.9451 44.6546C11.9451 48.556 15.1099 51.73 19 51.73C22.8901 51.73 26.0549 48.556 26.0549 44.6546C26.0549 42.4073 24.973 40.2702 23.1607 38.9376Z" fill="#FF6D2A"/>
<path d="M19.4602 43.6738V35.8277C19.4602 35.5728 19.2541 35.3661 19 35.3661C18.7459 35.3661 18.5398 35.5728 18.5398 35.8277V43.6738C18.5398 43.9287 18.7459 44.1354 19 44.1354C19.2541 44.1354 19.4602 43.9287 19.4602 43.6738Z" fill="#FF6D2A"/>
<path d="M2.66666 1C1.7476 1 1 1.74977 1 2.6715V59.3285C1 60.2502 1.7476 61 2.66666 61H35.3333C36.2524 61 37 60.2502 37 59.3285V2.6715C37 1.74977 36.2524 1 35.3333 1H2.66666ZM36.0796 2.6715V59.3285C36.0796 59.7411 35.7448 60.0769 35.3333 60.0769H2.66666C2.25522 60.0769 1.9204 59.7411 1.9204 59.3285V2.6715C1.9204 2.25886 2.25522 1.92308 2.66666 1.92308H35.3333C35.7448 1.92308 36.0796 2.25886 36.0796 2.6715Z" stroke="#FF6D2A"/>
<path d="M30.8142 10.27H7.18553C6.93139 10.27 6.72533 10.4766 6.72533 10.7315V15.7316C6.72533 15.9865 6.93139 16.1931 7.18553 16.1931H30.8142C31.0684 16.1931 31.2744 15.9865 31.2744 15.7316V10.7315C31.2744 10.4766 31.0684 10.27 30.8142 10.27ZM30.354 15.2701H7.64574V11.1931H30.354V15.2701Z" stroke="#FF6D2A"/>
<path d="M30.8142 20.4062H7.18553C6.93139 20.4062 6.72533 20.6129 6.72533 20.8678V25.8679C6.72533 26.1227 6.93139 26.3294 7.18553 26.3294H30.8142C31.0684 26.3294 31.2744 26.1227 31.2744 25.8679V20.8678C31.2744 20.6129 31.0684 20.4062 30.8142 20.4062ZM30.354 25.4063H7.64574V21.3293H30.354V25.4063Z" stroke="#FF6D2A"/>
<path d="M23.1607 38.9376C22.9555 38.7869 22.6677 38.8315 22.5174 39.037C22.3672 39.2426 22.4115 39.5315 22.6164 39.6822C24.1932 40.8415 25.1345 42.7003 25.1345 44.6546C25.1345 48.047 22.3825 50.8069 19 50.8069C15.6175 50.8069 12.8655 48.047 12.8655 44.6546C12.8655 42.7003 13.8068 40.8413 15.3833 39.6822C15.5883 39.5315 15.6325 39.2426 15.4824 39.037C15.3319 38.8315 15.0445 38.7869 14.8391 38.9376C13.027 40.27 11.9451 42.4073 11.9451 44.6546C11.9451 48.556 15.1099 51.73 19 51.73C22.8901 51.73 26.0549 48.556 26.0549 44.6546C26.0549 42.4073 24.973 40.2702 23.1607 38.9376Z" stroke="#FF6D2A"/>
<path d="M19.4602 43.6738V35.8277C19.4602 35.5728 19.2541 35.3661 19 35.3661C18.7459 35.3661 18.5398 35.5728 18.5398 35.8277V43.6738C18.5398 43.9287 18.7459 44.1354 19 44.1354C19.2541 44.1354 19.4602 43.9287 19.4602 43.6738Z" stroke="#FF6D2A"/>
</svg>
