<svg width="37" height="62" viewBox="0 0 37 62" fill="none" xmlns="http://www.w3.org/2000/svg">
<path d="M31.5284 61H5.47098C3.00577 61 1 58.9392 1 56.4065V5.59418C1 3.06074 3.00577 1 5.47098 1H31.5284C33.9942 1 36 3.06074 36 5.59418V56.4065C36 58.9392 33.9942 61 31.5284 61ZM5.47098 2.42146C3.76841 2.42146 2.38355 3.84495 2.38355 5.59418V56.4065C2.38355 58.1557 3.76841 59.5785 5.47098 59.5785H31.5284C33.2309 59.5785 34.6165 58.1557 34.6165 56.4065V5.59418C34.6165 3.84495 33.2309 2.42146 31.5284 2.42146H5.47098Z" fill="#FF6D2A"/>
<path d="M18.8173 57.5978H18.1818C16.4944 57.5978 15.1221 56.1871 15.1221 54.4535V53.8006C15.1221 52.067 16.4944 50.657 18.1818 50.657H18.8173C20.5047 50.657 21.8777 52.067 21.8777 53.8006V54.4535C21.877 56.1871 20.504 57.5978 18.8173 57.5978ZM18.1818 51.8388C17.1285 51.8388 16.2723 52.7191 16.2723 53.8006V54.4535C16.2723 55.5356 17.1292 56.416 18.1818 56.416H18.8173C19.8706 56.416 20.7275 55.535 20.7275 54.4535V53.8006C20.7275 52.7184 19.8699 51.8388 18.8173 51.8388H18.1818Z" fill="#FF6D2A"/>
<path d="M31.4184 48.5617H5.58184V5.08698H31.4184V48.5617ZM7.03 47.0739H29.9702V6.57482H7.03V47.0739Z" fill="#FF6D2A"/>
<path d="M31.5284 61H5.47098C3.00577 61 1 58.9392 1 56.4065V5.59418C1 3.06074 3.00577 1 5.47098 1H31.5284C33.9942 1 36 3.06074 36 5.59418V56.4065C36 58.9392 33.9942 61 31.5284 61ZM5.47098 2.42146C3.76841 2.42146 2.38355 3.84495 2.38355 5.59418V56.4065C2.38355 58.1557 3.76841 59.5785 5.47098 59.5785H31.5284C33.2309 59.5785 34.6165 58.1557 34.6165 56.4065V5.59418C34.6165 3.84495 33.2309 2.42146 31.5284 2.42146H5.47098Z" stroke="#FF6D2A" stroke-width="0.5"/>
<path d="M18.8173 57.5978H18.1818C16.4944 57.5978 15.1221 56.1871 15.1221 54.4535V53.8006C15.1221 52.067 16.4944 50.657 18.1818 50.657H18.8173C20.5047 50.657 21.8777 52.067 21.8777 53.8006V54.4535C21.877 56.1871 20.504 57.5978 18.8173 57.5978ZM18.1818 51.8388C17.1285 51.8388 16.2723 52.7191 16.2723 53.8006V54.4535C16.2723 55.5356 17.1292 56.416 18.1818 56.416H18.8173C19.8706 56.416 20.7275 55.535 20.7275 54.4535V53.8006C20.7275 52.7184 19.8699 51.8388 18.8173 51.8388H18.1818Z" stroke="#FF6D2A" stroke-width="0.5"/>
<path d="M31.4184 48.5617H5.58184V5.08698H31.4184V48.5617ZM7.03 47.0739H29.9702V6.57482H7.03V47.0739Z" stroke="#FF6D2A" stroke-width="0.5"/>
</svg>
