<svg width="42" height="61" viewBox="0 0 42 61" fill="none" xmlns="http://www.w3.org/2000/svg">
<path d="M42 2.00995C42 0.90158 41.0908 0 39.9743 0H2.02567C0.908633 0 0 0.90158 0 2.00995V58.9888C0 60.0984 0.908633 61 2.02567 61H39.9743C41.0914 61 42 60.0978 42 58.9894V12.4696V2.00995ZM1.68017 2.00995C1.68017 1.82085 1.83509 1.66713 2.02567 1.66713H39.9743C40.1649 1.66713 40.3192 1.82085 40.3192 2.00995V10.4902C40.318 10.4902 40.3168 10.4902 40.3155 10.4902C40.3149 10.4902 40.3143 10.4896 40.3131 10.4896C40.2602 10.4804 40.2067 10.4731 40.1526 10.4676C40.0936 10.4627 40.0346 10.4591 39.9743 10.4591H2.02567C1.96543 10.4591 1.90579 10.4627 1.84739 10.4676C1.79083 10.4731 1.73489 10.481 1.68017 10.4908V2.00995ZM40.3192 58.9901C40.3192 59.1798 40.1643 59.3329 39.9737 59.3329H2.02567C1.83509 59.3329 1.68017 59.1798 1.68017 58.9901V12.4696C1.68017 12.2805 1.83509 12.1268 2.02567 12.1268H39.9743C40.1649 12.1268 40.3198 12.2805 40.3198 12.4696L40.3192 58.9901Z" fill="#FF6D2A"/>
<path d="M37.1757 8.84193C38.0941 8.84193 38.8386 8.10317 38.8386 7.19188C38.8386 6.28058 38.0941 5.54183 37.1757 5.54183C36.2572 5.54183 35.5127 6.28058 35.5127 7.19188C35.5127 8.10317 36.2572 8.84193 37.1757 8.84193Z" fill="#FF6D2A"/>
<path d="M32.811 8.84193C33.7294 8.84193 34.474 8.10317 34.474 7.19188C34.474 6.28058 33.7294 5.54183 32.811 5.54183C31.8926 5.54183 31.1481 6.28058 31.1481 7.19188C31.1481 8.10317 31.8926 8.84193 32.811 8.84193Z" fill="#FF6D2A"/>
<path d="M28.2386 8.63574C29.1571 8.63574 29.9016 7.89699 29.9016 6.98569C29.9016 6.07439 29.1571 5.33564 28.2386 5.33564C27.3202 5.33564 26.5757 6.07439 26.5757 6.98569C26.5757 7.89699 27.3202 8.63574 28.2386 8.63574Z" fill="#FF6D2A"/>
<path d="M12.5479 3.27384C11.113 3.27384 9.94922 4.42796 9.94922 5.8517C9.94922 7.27483 11.1124 8.42956 12.5479 8.42956C13.9821 8.42956 15.1453 7.27544 15.1453 5.8517C15.1453 4.42735 13.9827 3.27384 12.5479 3.27384ZM12.5479 7.17479C11.8108 7.17479 11.2138 6.58248 11.2138 5.8517C11.2138 5.12031 11.8108 4.528 12.5479 4.528C13.2844 4.528 13.8813 5.12092 13.8813 5.8517C13.8819 6.58248 13.2844 7.17479 12.5479 7.17479Z" fill="#FF6D2A"/>
<path d="M6.10536 3.27384C4.67049 3.27384 3.50672 4.42796 3.50672 5.8517C3.50672 7.27483 4.66987 8.42956 6.10536 8.42956C7.53963 8.42956 8.70278 7.27544 8.70278 5.8517C8.70278 4.42735 7.54024 3.27384 6.10536 3.27384ZM6.10536 7.17479C5.36825 7.17479 4.77131 6.58248 4.77131 5.8517C4.77131 5.12031 5.36825 4.528 6.10536 4.528C6.84186 4.528 7.4388 5.12092 7.4388 5.8517C7.43942 6.58248 6.84186 7.17479 6.10536 7.17479Z" fill="#FF6D2A"/>
<path d="M36.4337 55.8424H5.56475C4.35057 55.8424 3.36264 54.8621 3.36264 53.6574V23.0281C3.36264 21.8233 4.35057 20.8431 5.56475 20.8431H36.4337C37.6485 20.8431 38.6364 21.8233 38.6364 23.0281V53.6574C38.6364 54.8621 37.6485 55.8424 36.4337 55.8424ZM5.56475 22.5102C5.27704 22.5102 5.04342 22.7426 5.04342 23.0281V53.6574C5.04342 53.9429 5.27704 54.1753 5.56475 54.1753H36.4337C36.722 54.1753 36.9556 53.9429 36.9556 53.6574V23.0281C36.9556 22.7426 36.722 22.5102 36.4337 22.5102H5.56475Z" fill="#FF6D2A"/>
<path d="M24.7537 24.9118C24.7537 25.5614 24.2231 26.0885 23.5684 26.0885H18.4301C17.7754 26.0885 17.2442 25.5614 17.2442 24.9118V24.716C17.2442 24.0663 17.7754 23.5393 18.4301 23.5393H23.5684C24.2225 23.5393 24.7537 24.0657 24.7537 24.716V24.9118Z" fill="#FF6D2A"/>
</svg>
