<svg width="60" height="60" viewBox="0 0 60 60" fill="none" xmlns="http://www.w3.org/2000/svg">
<path d="M55.3125 0H4.6875C3.4443 0 2.25201 0.49386 1.37294 1.37294C0.49386 2.25201 0 3.4443 0 4.6875V45.9375C0 47.1807 0.49386 48.373 1.37294 49.2521C2.25201 50.1311 3.4443 50.625 4.6875 50.625H21.5625V52.2047C21.5646 53.0668 21.3959 53.9208 21.066 54.7173C20.7361 55.5139 20.2517 56.2371 19.6406 56.8453L18.3609 58.125H15C14.7514 58.125 14.5129 58.2238 14.3371 58.3996C14.1613 58.5754 14.0625 58.8139 14.0625 59.0625C14.0625 59.3111 14.1613 59.5496 14.3371 59.7254C14.5129 59.9012 14.7514 60 15 60H45C45.2486 60 45.4871 59.9012 45.6629 59.7254C45.8387 59.5496 45.9375 59.3111 45.9375 59.0625C45.9375 58.8139 45.8387 58.5754 45.6629 58.3996C45.4871 58.2238 45.2486 58.125 45 58.125H41.6391L40.3594 56.8453C39.7483 56.2371 39.2639 55.5139 38.934 54.7173C38.6041 53.9208 38.4354 53.0668 38.4375 52.2047V50.625H55.3125C56.5557 50.625 57.748 50.1311 58.6271 49.2521C59.5061 48.373 60 47.1807 60 45.9375V4.6875C60 3.4443 59.5061 2.25201 58.6271 1.37294C57.748 0.49386 56.5557 0 55.3125 0ZM1.875 6.5625C1.875 6.31386 1.97377 6.0754 2.14959 5.89959C2.3254 5.72377 2.56386 5.625 2.8125 5.625H57.1875C57.4361 5.625 57.6746 5.72377 57.8504 5.89959C58.0262 6.0754 58.125 6.31386 58.125 6.5625V40.3125C58.125 40.5611 58.0262 40.7996 57.8504 40.9754C57.6746 41.1512 57.4361 41.25 57.1875 41.25H2.8125C2.56386 41.25 2.3254 41.1512 2.14959 40.9754C1.97377 40.7996 1.875 40.5611 1.875 40.3125V6.5625ZM4.6875 1.875H55.3125C55.9159 1.87522 56.5031 2.06945 56.9876 2.42903C57.4721 2.7886 57.8282 3.29445 58.0031 3.87188C57.7389 3.79044 57.464 3.74935 57.1875 3.75H2.8125C2.53604 3.74935 2.26107 3.79044 1.99688 3.87188C2.17185 3.29445 2.52787 2.7886 3.01237 2.42903C3.49686 2.06945 4.08415 1.87522 4.6875 1.875ZM38.9906 58.125H21.0094C22.5703 56.5506 23.4435 54.4217 23.4375 52.2047V50.625H36.5625V52.2047C36.5565 54.4217 37.4297 56.5506 38.9906 58.125ZM55.3125 48.75H4.6875C3.94158 48.75 3.22621 48.4537 2.69876 47.9262C2.17132 47.3988 1.875 46.6834 1.875 45.9375V42.9609C2.17591 43.0685 2.49295 43.124 2.8125 43.125H57.1875C57.507 43.124 57.8241 43.0685 58.125 42.9609V45.9375C58.125 46.6834 57.8287 47.3988 57.3012 47.9262C56.7738 48.4537 56.0584 48.75 55.3125 48.75Z" fill="#FF6D2A"/>
<path d="M31.875 45H28.125C27.8764 45 27.6379 45.0988 27.4621 45.2746C27.2863 45.4504 27.1875 45.6889 27.1875 45.9375C27.1875 46.1861 27.2863 46.4246 27.4621 46.6004C27.6379 46.7762 27.8764 46.875 28.125 46.875H31.875C32.1236 46.875 32.3621 46.7762 32.5379 46.6004C32.7137 46.4246 32.8125 46.1861 32.8125 45.9375C32.8125 45.6889 32.7137 45.4504 32.5379 45.2746C32.3621 45.0988 32.1236 45 31.875 45Z" fill="#FF6D2A"/>
</svg>
