<svg width="53" height="63" viewBox="0 0 53 63" fill="none" xmlns="http://www.w3.org/2000/svg">
<path d="M51.3848 1H1.61643C1.27616 1 1 1.27592 1 1.6159V61.3841C1 61.7241 1.27616 62 1.61643 62H51.3836C51.7238 62 52 61.7241 52 61.3841V1.6159C52.0012 1.27592 51.7251 1 51.3848 1ZM2.23287 14.4981H16.4947C16.5403 17.0873 20.9157 19.1087 26.4994 19.1087C32.083 19.1087 36.4597 17.0861 36.5041 14.4981H50.7659V54.4294H2.23287V14.4981ZM35.2725 14.4981C35.2133 16.1043 31.6306 17.8769 26.5006 17.8769C21.3707 17.8769 17.7879 16.1043 17.73 14.4981H35.2725ZM50.7684 2.2318V13.2663H17.1678C17.1629 13.2663 17.158 13.2663 17.153 13.2663H2.23287V2.2318H50.7684ZM2.23287 60.7694V55.6624H50.7671V60.7694H2.23287Z" fill="#FF6D2A"/>
<path d="M4.87318 10.2817H20.803C21.1433 10.2817 21.4195 10.0058 21.4195 9.66584V5.83247C21.4195 5.4925 21.1433 5.21657 20.803 5.21657H4.87318C4.5329 5.21657 4.25674 5.4925 4.25674 5.83247V9.66584C4.25674 10.007 4.53167 10.2817 4.87318 10.2817ZM5.48961 6.44837H20.1866V9.04994H5.48961V6.44837Z" fill="#FF6D2A"/>
<path d="M41.8796 10.5908C41.8833 10.5945 41.8882 10.5958 41.8919 10.5995C42.6193 11.3201 43.6192 11.7672 44.7226 11.7672C46.9405 11.7672 48.7454 9.9651 48.7454 7.74909C48.7454 6.64909 48.3003 5.65379 47.5804 4.92703C47.5754 4.92087 47.573 4.91225 47.5668 4.90609C47.5594 4.89993 47.5508 4.89747 47.5434 4.89131C46.816 4.17563 45.8223 3.73095 44.7226 3.73095C42.5046 3.73095 40.701 5.53308 40.701 7.74909C40.701 8.85278 41.1485 9.853 41.8722 10.5798C41.8759 10.5847 41.8759 10.5884 41.8796 10.5908ZM44.7213 10.5354C44.1764 10.5354 43.6697 10.3728 43.2407 10.1006L47.0749 6.26723C47.3473 6.69713 47.5113 7.2034 47.5113 7.74909C47.5113 9.28637 46.26 10.5354 44.7213 10.5354ZM44.7213 4.96398C45.2663 4.96398 45.773 5.12658 46.202 5.39881L42.369 9.23094C42.0966 8.80104 41.9326 8.29601 41.9326 7.75032C41.9338 6.21426 43.1839 4.96398 44.7213 4.96398Z" fill="#FF6D2A"/>
<path d="M36.2432 10.8002C37.9261 10.8002 39.297 9.43165 39.297 7.74901C39.297 6.06637 37.9273 4.6966 36.2432 4.6966C34.5591 4.6966 33.1882 6.06514 33.1882 7.74901C33.1894 9.43165 34.5591 10.8002 36.2432 10.8002ZM36.2432 5.92964C37.2468 5.92964 38.0642 6.74632 38.0642 7.75024C38.0642 8.75292 37.248 9.56961 36.2432 9.56961C35.2384 9.56961 34.421 8.75292 34.421 7.75024C34.4223 6.74632 35.2397 5.92964 36.2432 5.92964Z" fill="#FF6D2A"/>
<path d="M28.7341 10.8002C30.4169 10.8002 31.7866 9.43165 31.7866 7.74901C31.7866 6.06637 30.4181 4.6966 28.7341 4.6966C27.05 4.6966 25.679 6.06514 25.679 7.74901C25.679 9.43165 27.0487 10.8002 28.7341 10.8002ZM28.7341 5.92964C29.7364 5.92964 30.5538 6.74632 30.5538 7.75024C30.5538 8.75292 29.7376 9.56961 28.7341 9.56961C27.7305 9.56961 26.9119 8.75292 26.9119 7.75024C26.9119 6.74632 27.7293 5.92964 28.7341 5.92964Z" fill="#FF6D2A"/>
<path d="M51.3848 1H1.61643C1.27616 1 1 1.27592 1 1.6159V61.3841C1 61.7241 1.27616 62 1.61643 62H51.3836C51.7238 62 52 61.7241 52 61.3841V1.6159C52.0012 1.27592 51.7251 1 51.3848 1ZM2.23287 14.4981H16.4947C16.5403 17.0873 20.9157 19.1087 26.4994 19.1087C32.083 19.1087 36.4597 17.0861 36.5041 14.4981H50.7659V54.4294H2.23287V14.4981ZM35.2725 14.4981C35.2133 16.1043 31.6306 17.8769 26.5006 17.8769C21.3707 17.8769 17.7879 16.1043 17.73 14.4981H35.2725ZM50.7684 2.2318V13.2663H17.1678C17.1629 13.2663 17.158 13.2663 17.153 13.2663H2.23287V2.2318H50.7684ZM2.23287 60.7694V55.6624H50.7671V60.7694H2.23287Z" stroke="#FF6D2A" stroke-width="0.5"/>
<path d="M4.87318 10.2817H20.803C21.1433 10.2817 21.4195 10.0058 21.4195 9.66584V5.83247C21.4195 5.4925 21.1433 5.21657 20.803 5.21657H4.87318C4.5329 5.21657 4.25674 5.4925 4.25674 5.83247V9.66584C4.25674 10.007 4.53167 10.2817 4.87318 10.2817ZM5.48961 6.44837H20.1866V9.04994H5.48961V6.44837Z" stroke="#FF6D2A" stroke-width="0.5"/>
<path d="M41.8796 10.5908C41.8833 10.5945 41.8882 10.5958 41.8919 10.5995C42.6193 11.3201 43.6192 11.7672 44.7226 11.7672C46.9405 11.7672 48.7454 9.9651 48.7454 7.74909C48.7454 6.64909 48.3003 5.65379 47.5804 4.92703C47.5754 4.92087 47.573 4.91225 47.5668 4.90609C47.5594 4.89993 47.5508 4.89747 47.5434 4.89131C46.816 4.17563 45.8223 3.73095 44.7226 3.73095C42.5046 3.73095 40.701 5.53308 40.701 7.74909C40.701 8.85278 41.1485 9.853 41.8722 10.5798C41.8759 10.5847 41.8759 10.5884 41.8796 10.5908ZM44.7213 10.5354C44.1764 10.5354 43.6697 10.3728 43.2407 10.1006L47.0749 6.26723C47.3473 6.69713 47.5113 7.2034 47.5113 7.74909C47.5113 9.28637 46.26 10.5354 44.7213 10.5354ZM44.7213 4.96398C45.2663 4.96398 45.773 5.12658 46.202 5.39881L42.369 9.23094C42.0966 8.80104 41.9326 8.29601 41.9326 7.75032C41.9338 6.21426 43.1839 4.96398 44.7213 4.96398Z" stroke="#FF6D2A" stroke-width="0.5"/>
<path d="M36.2432 10.8002C37.9261 10.8002 39.297 9.43165 39.297 7.74901C39.297 6.06637 37.9273 4.6966 36.2432 4.6966C34.5591 4.6966 33.1882 6.06514 33.1882 7.74901C33.1894 9.43165 34.5591 10.8002 36.2432 10.8002ZM36.2432 5.92964C37.2468 5.92964 38.0642 6.74632 38.0642 7.75024C38.0642 8.75292 37.248 9.56961 36.2432 9.56961C35.2384 9.56961 34.421 8.75292 34.421 7.75024C34.4223 6.74632 35.2397 5.92964 36.2432 5.92964Z" stroke="#FF6D2A" stroke-width="0.5"/>
<path d="M28.7341 10.8002C30.4169 10.8002 31.7866 9.43165 31.7866 7.74901C31.7866 6.06637 30.4181 4.6966 28.7341 4.6966C27.05 4.6966 25.679 6.06514 25.679 7.74901C25.679 9.43165 27.0487 10.8002 28.7341 10.8002ZM28.7341 5.92964C29.7364 5.92964 30.5538 6.74632 30.5538 7.75024C30.5538 8.75292 29.7376 9.56961 28.7341 9.56961C27.7305 9.56961 26.9119 8.75292 26.9119 7.75024C26.9119 6.74632 27.7293 5.92964 28.7341 5.92964Z" stroke="#FF6D2A" stroke-width="0.5"/>
</svg>
