<svg style="display: none;">
  <symbol xmlns="http://www.w3.org/2000/svg" viewBox="0 0 62 62" id="lead_1">
    <path d="M6.7 61c-1.56 0-3-.6-4.02-1.68A5.68 5.68 0 011 55.3c0-1.5.6-2.94 1.68-4.02l20.1-20.1c.3-.3.72-.3 1.02 0 .3.3.3.72 0 1.02L3.7 52.24c-.84.78-1.26 1.86-1.26 3.06 0 1.14.42 2.22 1.26 3.06.78.78 1.86 1.26 3.06 1.26 1.14 0 2.22-.42 3.06-1.26L29.86 38.2c.3-.3.72-.3 1.02 0 .3.3.3.72 0 1.02l-20.1 20.1A5.714 5.714 0 016.7 61zm30.24-31.14c-.18 0-.36-.06-.48-.18-.3-.3-.3-.72 0-1.02l13.38-13.38-3.06-3.12L33.4 25.54c-.3.3-.72.3-1.02 0-.3-.3-.3-.72 0-1.02L46.3 10.6c.12-.12.3-.18.48-.18s.36.06.48.18l4.08 4.08c.3.3.3.72 0 1.02L37.48 29.62c-.12.18-.3.24-.54.24z" ></path>
    <path d="M50.68 16.06l-4.74-4.74 2.28-5.76L55.48 1 61 6.52l-4.56 7.26-5.76 2.28zm-3.06-5.1l3.42 3.42 4.44-1.74 3.72-5.88-3.96-3.96-5.88 3.72-1.74 4.44zM54.22 61c-1.62 0-3.18-.6-4.38-1.8L15.88 25.24c-4.02.96-8.34-.24-11.28-3.18-2.88-2.88-4.08-7.02-3.18-11.04l.3-1.26 4.68 4.68c.9.9 2.22 1.26 3.42.9a7.13 7.13 0 005.04-5.04c.3-1.2 0-2.52-.9-3.42L9.28 2.2l1.26-.3c3.96-.84 8.1.36 10.98 3.3 2.94 2.94 4.14 7.2 3.18 11.22l33.9 33.96c2.4 2.4 2.4 6.36 0 8.82-1.2 1.2-2.76 1.8-4.38 1.8zM16.3 23.62l34.56 34.56c1.86 1.86 4.92 1.86 6.78 0 1.86-1.86 1.86-4.92 0-6.78L23.08 16.84l.12-.42c1.02-3.66 0-7.56-2.7-10.26a10.61 10.61 0 00-8.34-3.06l2.76 2.76a4.887 4.887 0 011.26 4.8c-.78 2.94-3.12 5.22-6 6-1.68.48-3.54-.06-4.8-1.26l-2.76-2.76c-.3 3.12.78 6.12 3 8.34 2.7 2.7 6.6 3.72 10.26 2.7l.42-.06z" ></path>
    <path d="M6.7 61c-1.56 0-3-.6-4.02-1.68A5.68 5.68 0 011 55.3c0-1.5.6-2.94 1.68-4.02l20.1-20.1c.3-.3.72-.3 1.02 0 .3.3.3.72 0 1.02L3.7 52.24c-.84.78-1.26 1.86-1.26 3.06 0 1.14.42 2.22 1.26 3.06.78.78 1.86 1.26 3.06 1.26 1.14 0 2.22-.42 3.06-1.26L29.86 38.2c.3-.3.72-.3 1.02 0 .3.3.3.72 0 1.02l-20.1 20.1A5.714 5.714 0 016.7 61zm30.24-31.14c-.18 0-.36-.06-.48-.18-.3-.3-.3-.72 0-1.02l13.38-13.38-3.06-3.12L33.4 25.54c-.3.3-.72.3-1.02 0-.3-.3-.3-.72 0-1.02L46.3 10.6c.12-.12.3-.18.48-.18s.36.06.48.18l4.08 4.08c.3.3.3.72 0 1.02L37.48 29.62c-.12.18-.3.24-.54.24z"  stroke-width=".6"></path>
    <path d="M50.68 16.06l-4.74-4.74 2.28-5.76L55.48 1 61 6.52l-4.56 7.26-5.76 2.28zm-3.06-5.1l3.42 3.42 4.44-1.74 3.72-5.88-3.96-3.96-5.88 3.72-1.74 4.44zM54.22 61c-1.62 0-3.18-.6-4.38-1.8L15.88 25.24c-4.02.96-8.34-.24-11.28-3.18-2.88-2.88-4.08-7.02-3.18-11.04l.3-1.26 4.68 4.68c.9.9 2.22 1.26 3.42.9a7.13 7.13 0 005.04-5.04c.3-1.2 0-2.52-.9-3.42L9.28 2.2l1.26-.3c3.96-.84 8.1.36 10.98 3.3 2.94 2.94 4.14 7.2 3.18 11.22l33.9 33.96c2.4 2.4 2.4 6.36 0 8.82-1.2 1.2-2.76 1.8-4.38 1.8zM16.3 23.62l34.56 34.56c1.86 1.86 4.92 1.86 6.78 0 1.86-1.86 1.86-4.92 0-6.78L23.08 16.84l.12-.42c1.02-3.66 0-7.56-2.7-10.26a10.61 10.61 0 00-8.34-3.06l2.76 2.76a4.887 4.887 0 011.26 4.8c-.78 2.94-3.12 5.22-6 6-1.68.48-3.54-.06-4.8-1.26l-2.76-2.76c-.3 3.12.78 6.12 3 8.34 2.7 2.7 6.6 3.72 10.26 2.7l.42-.06z"  stroke-width=".6"></path>
  </symbol>
  <symbol xmlns="http://www.w3.org/2000/svg" viewBox="0 0 37 62" id="lead_2">
    <path d="M31.528 61H5.471C3.006 61 1 58.94 1 56.407V5.593C1 3.061 3.006 1 5.471 1h26.057C33.994 1 36 3.06 36 5.594v50.813C36 58.939 33.994 61 31.528 61zM5.471 2.421c-1.703 0-3.087 1.424-3.087 3.173v50.813c0 1.749 1.384 3.172 3.087 3.172h26.057c1.703 0 3.089-1.423 3.089-3.172V5.593c0-1.75-1.386-3.173-3.089-3.173H5.471z" ></path>
    <path d="M18.817 57.598h-.635c-1.688 0-3.06-1.41-3.06-3.145v-.652c0-1.734 1.372-3.144 3.06-3.144h.635c1.688 0 3.06 1.41 3.06 3.144v.652c0 1.734-1.373 3.145-3.06 3.145zm-.635-5.76c-1.053 0-1.91.881-1.91 1.963v.652c0 1.083.857 1.963 1.91 1.963h.635c1.054 0 1.91-.881 1.91-1.962V53.8c0-1.083-.857-1.962-1.91-1.962h-.635zm13.236-3.276H5.582V5.087h25.836v43.475zM7.03 47.074h22.94v-40.5H7.03v40.5z" ></path>
    <path d="M31.528 61H5.471C3.006 61 1 58.94 1 56.407V5.593C1 3.061 3.006 1 5.471 1h26.057C33.994 1 36 3.06 36 5.594v50.813C36 58.939 33.994 61 31.528 61zM5.471 2.421c-1.703 0-3.087 1.424-3.087 3.173v50.813c0 1.749 1.384 3.172 3.087 3.172h26.057c1.703 0 3.089-1.423 3.089-3.172V5.593c0-1.75-1.386-3.173-3.089-3.173H5.471z"  stroke-width=".5"></path>
    <path d="M18.817 57.598h-.635c-1.688 0-3.06-1.41-3.06-3.145v-.652c0-1.734 1.372-3.144 3.06-3.144h.635c1.688 0 3.06 1.41 3.06 3.144v.652c0 1.734-1.373 3.145-3.06 3.145zm-.635-5.76c-1.053 0-1.91.881-1.91 1.963v.652c0 1.083.857 1.963 1.91 1.963h.635c1.054 0 1.91-.881 1.91-1.962V53.8c0-1.083-.857-1.962-1.91-1.962h-.635zm13.236-3.276H5.582V5.087h25.836v43.475zM7.03 47.074h22.94v-40.5H7.03v40.5z"  stroke-width=".5"></path>
  </symbol>
  <symbol xmlns="http://www.w3.org/2000/svg" viewBox="0 0 38 62" id="lead_3">
    <path d="M2.667 1C1.747 1 1 1.75 1 2.671v56.657A1.67 1.67 0 002.667 61h32.666c.92 0 1.667-.75 1.667-1.672V2.672A1.67 1.67 0 0035.333 1H2.667zM36.08 2.671v56.657a.748.748 0 01-.747.749H2.667a.748.748 0 01-.747-.748V2.672c0-.413.335-.749.747-.749h32.666c.412 0 .747.336.747.748z" ></path>
    <path d="M30.814 10.27H7.186a.46.46 0 00-.46.462v5a.46.46 0 00.46.461h23.628a.46.46 0 00.46-.461v-5a.46.46 0 00-.46-.462zm-.46 5H7.646v-4.077h22.708v4.077zm.46 5.136H7.186a.46.46 0 00-.46.462v5a.46.46 0 00.46.461h23.628a.46.46 0 00.46-.461v-5a.46.46 0 00-.46-.462zm-.46 5H7.646V21.33h22.708v4.077zM23.16 38.938a.46.46 0 00-.643.099.463.463 0 00.1.645 6.195 6.195 0 012.517 4.973c0 3.392-2.752 6.152-6.134 6.152-3.383 0-6.134-2.76-6.134-6.152 0-1.955.94-3.814 2.517-4.973.205-.15.25-.44.1-.645a.46.46 0 00-.644-.1 7.123 7.123 0 00-2.894 5.718c0 3.901 3.165 7.075 7.055 7.075 3.89 0 7.055-3.174 7.055-7.075a7.123 7.123 0 00-2.894-5.717z" ></path>
    <path d="M19.46 43.674v-7.846a.461.461 0 10-.92 0v7.846a.461.461 0 10.92 0z" ></path>
    <path d="M2.667 1C1.747 1 1 1.75 1 2.671v56.657A1.67 1.67 0 002.667 61h32.666c.92 0 1.667-.75 1.667-1.672V2.672A1.67 1.67 0 0035.333 1H2.667zM36.08 2.671v56.657a.748.748 0 01-.747.749H2.667a.748.748 0 01-.747-.748V2.672c0-.413.335-.749.747-.749h32.666c.412 0 .747.336.747.748z" ></path>
    <path d="M30.814 10.27H7.186a.46.46 0 00-.46.462v5a.46.46 0 00.46.461h23.628a.46.46 0 00.46-.461v-5a.46.46 0 00-.46-.462zm-.46 5H7.646v-4.077h22.708v4.077zm.46 5.136H7.186a.46.46 0 00-.46.462v5a.46.46 0 00.46.461h23.628a.46.46 0 00.46-.461v-5a.46.46 0 00-.46-.462zm-.46 5H7.646V21.33h22.708v4.077zM23.16 38.938a.46.46 0 00-.643.099.463.463 0 00.1.645 6.195 6.195 0 012.517 4.973c0 3.392-2.752 6.152-6.134 6.152-3.383 0-6.134-2.76-6.134-6.152 0-1.955.94-3.814 2.517-4.973.205-.15.25-.44.1-.645a.46.46 0 00-.644-.1 7.123 7.123 0 00-2.894 5.718c0 3.901 3.165 7.075 7.055 7.075 3.89 0 7.055-3.174 7.055-7.075a7.123 7.123 0 00-2.894-5.717z" ></path>
    <path d="M19.46 43.674v-7.846a.461.461 0 10-.92 0v7.846a.461.461 0 10.92 0z" ></path>
  </symbol>
  <symbol xmlns="http://www.w3.org/2000/svg" viewBox="0 0 48 62" id="lead_4">
    <path d="M23.133 4.133c.134.134.267.2.467.2h.133c.067 0 .067 0 .134-.066.066 0 .066-.067.133-.067s.067-.067.133-.067c.067-.066.134-.133.134-.2v-.266c0-.2-.067-.334-.2-.467 0 0-.067-.067-.134-.067 0 0-.066-.066-.133-.066s-.067 0-.133-.067a.538.538 0 00-.6.2L23 3.267c0 .066-.067.066-.067.133s0 .067-.066.133v.134c0 .066 0 .2.066.266l.2.2zm-6.666 0c.133.134.266.2.466.2s.334-.066.467-.2c.067-.066.133-.133.133-.2 0-.066.067-.2.067-.266 0-.2-.067-.334-.2-.467 0 0-.067-.067-.133-.067-.067 0-.067-.066-.134-.066-.066 0-.066 0-.133-.067a.538.538 0 00-.6.2c-.067.133-.133.267-.133.467 0 .066 0 .2.066.266 0 .067.067.134.134.2zm9.866-.2c0 .067 0 .067.067.134l.133.133c.067 0 .067.067.134.067.066 0 .066 0 .133.066h.267c.066 0 .066 0 .133-.066.067 0 .067-.067.133-.067.067 0 .067-.067.134-.067 0-.066.066-.066.066-.066 0-.067.067-.067.067-.134 0-.066 0-.066.067-.133v-.267c0-.066 0-.066-.067-.133 0-.067 0-.067-.067-.133 0-.067-.066-.067-.066-.067a.645.645 0 00-.934 0c-.2.133-.266.267-.266.467V3.8c0 .067 0 .067.066.133zM41.6 5H5.667c-.734 0-1.334.6-1.334 1.333v50c0 .734.6 1.334 1.334 1.334H41.6c.733 0 1.333-.6 1.333-1.334v-50C42.933 5.6 42.333 5 41.6 5zM5.667 56.333v-50H41.6v50H5.667z" ></path>
    <path d="M46.933 13.667v-3.334c0-.4-.266-.666-.666-.666V4.333A3.301 3.301 0 0042.933 1h-38.6A3.301 3.301 0 001 4.333v53.334A3.301 3.301 0 004.333 61h38.6a3.301 3.301 0 003.334-3.333v-30c.4 0 .666-.267.666-.667v-8.667c0-.4-.266-.666-.666-.666v-3.334c.4 0 .666-.266.666-.666zm-2 44c0 1.133-.866 2-2 2h-38.6c-1.133 0-2-.867-2-2V4.333c0-1.133.867-2 2-2h38.6c1.134 0 2 .867 2 2v53.334z" ></path>
    <path d="M19.133 4.133c.067.067.134.134.2.134.067 0 .2.066.267.066h1.333c.2 0 .334-.066.467-.2.067-.066.133-.133.133-.2 0-.066.067-.2.067-.266 0-.2-.067-.334-.2-.467 0 0-.067-.067-.133-.067-.067 0-.067-.066-.134-.066-.066 0-.066 0-.133-.067h-1.467c-.066 0-.2 0-.266.067-.067 0-.134.066-.2.133-.067.067-.134.133-.134.2v.267c0 .066 0 .2.067.266 0 .067.067.134.133.2z" ></path>
    <path d="M23.133 4.133c.134.134.267.2.467.2h.133c.067 0 .067 0 .134-.066.066 0 .066-.067.133-.067s.067-.067.133-.067c.067-.066.134-.133.134-.2v-.266c0-.2-.067-.334-.2-.467 0 0-.067-.067-.134-.067 0 0-.066-.066-.133-.066s-.067 0-.133-.067a.538.538 0 00-.6.2L23 3.267c0 .066-.067.066-.067.133s0 .067-.066.133v.134c0 .066 0 .2.066.266l.2.2zm-6.666 0c.133.134.266.2.466.2s.334-.066.467-.2c.067-.066.133-.133.133-.2 0-.066.067-.2.067-.266 0-.2-.067-.334-.2-.467 0 0-.067-.067-.133-.067-.067 0-.067-.066-.134-.066-.066 0-.066 0-.133-.067a.538.538 0 00-.6.2c-.067.133-.133.267-.133.467 0 .066 0 .2.066.266 0 .067.067.134.134.2zm9.866-.2c0 .067 0 .067.067.134l.133.133c.067 0 .067.067.134.067.066 0 .066 0 .133.066h.267c.066 0 .066 0 .133-.066.067 0 .067-.067.133-.067.067 0 .067-.067.134-.067 0-.066.066-.066.066-.066 0-.067.067-.067.067-.134 0-.066 0-.066.067-.133v-.267c0-.066 0-.066-.067-.133 0-.067 0-.067-.067-.133 0-.067-.066-.067-.066-.067a.645.645 0 00-.934 0c-.2.133-.266.267-.266.467V3.8c0 .067 0 .067.066.133zM41.6 5H5.667c-.734 0-1.334.6-1.334 1.333v50c0 .734.6 1.334 1.334 1.334H41.6c.733 0 1.333-.6 1.333-1.334v-50C42.933 5.6 42.333 5 41.6 5zM5.667 56.333v-50H41.6v50H5.667z"  stroke-width=".3"></path>
    <path d="M46.933 13.667v-3.334c0-.4-.266-.666-.666-.666V4.333A3.301 3.301 0 0042.933 1h-38.6A3.301 3.301 0 001 4.333v53.334A3.301 3.301 0 004.333 61h38.6a3.301 3.301 0 003.334-3.333v-30c.4 0 .666-.267.666-.667v-8.667c0-.4-.266-.666-.666-.666v-3.334c.4 0 .666-.266.666-.666zm-2 44c0 1.133-.866 2-2 2h-38.6c-1.133 0-2-.867-2-2V4.333c0-1.133.867-2 2-2h38.6c1.134 0 2 .867 2 2v53.334z"  stroke-width=".3"></path>
    <path d="M19.133 4.133c.067.067.134.134.2.134.067 0 .2.066.267.066h1.333c.2 0 .334-.066.467-.2.067-.066.133-.133.133-.2 0-.066.067-.2.067-.266 0-.2-.067-.334-.2-.467 0 0-.067-.067-.133-.067-.067 0-.067-.066-.134-.066-.066 0-.066 0-.133-.067h-1.467c-.066 0-.2 0-.266.067-.067 0-.134.066-.2.133-.067.067-.134.133-.134.2v.267c0 .066 0 .2.067.266 0 .067.067.134.133.2z"  stroke-width=".3"></path>
  </symbol>
  <symbol xmlns="http://www.w3.org/2000/svg" viewBox="0 0 81 60" id="lead_5">
    <path d="M78.95 48.656h-1.132V5.042C77.818 2.269 75.555 0 72.79 0H8.423C5.657 0 3.394 2.269 3.394 5.042v43.614H2.263A2.256 2.256 0 000 50.924v2.647C1.131 57.227 4.4 60 8.549 60h63.864c4.022 0 7.417-2.521 8.548-6.429v-2.647c.252-1.26-.754-2.268-2.011-2.268zM5.28 5.042a3.117 3.117 0 013.143-3.151h64.492a3.117 3.117 0 013.143 3.151v43.614H5.28V5.042zm45.006 45.504l-.502 1.387c-.252.63-.755 1.008-1.509 1.008H32.938a1.634 1.634 0 01-1.509-1.008l-.503-1.387h19.36zm29.04 2.647c-1.005 2.9-3.645 4.916-6.662 4.916H8.674c-3.142 0-5.783-2.143-6.663-4.916v-2.269c0-.126.126-.378.378-.378H29.04l.88 2.017c.503 1.26 1.76 2.143 3.27 2.143H48.4c1.384 0 2.767-.883 3.144-2.143l.88-2.017h26.652c.125 0 .377.126.377.378v2.27h-.126z" ></path>
    <path d="M72.79 43.866V6.806c0-.503-.378-1.008-1.006-1.008H9.303c-.503 0-1.006.378-1.006 1.009v37.059c0 .504.377 1.008 1.006 1.008H71.91c.502-.126.88-.504.88-1.008zm-62.481-1.009V7.69h60.72v35.168H10.31zM60.72 53.445h-1.382c-.503 0-1.006.379-1.006 1.009 0 .63.377 1.008 1.006 1.008h1.383c.503 0 1.006-.378 1.006-1.008s-.503-1.009-1.006-1.009zm4.904 0H64.24c-.503 0-1.006.379-1.006 1.009 0 .63.377 1.008 1.006 1.008h1.383c.503 0 1.006-.378 1.006-1.008s-.503-1.009-1.006-1.009zm4.777 0h-1.383c-.503 0-1.006.379-1.006 1.009 0 .63.378 1.008 1.006 1.008h1.383c.503 0 1.006-.378 1.006-1.008s-.377-1.009-1.006-1.009zM39.978 4.538a.96.96 0 00.628.252.959.959 0 00.629-.252.964.964 0 00.251-.63c0-.126 0-.253-.125-.379-.126-.126-.126-.252-.252-.252a.985.985 0 00-1.383 0l-.251.252c0 .126-.126.253-.126.379s0 .252.126.378c.251 0 .377.126.503.252z" ></path>
  </symbol>
  <symbol xmlns="http://www.w3.org/2000/svg" viewBox="0 0 60 60" id="lead_6">
    <path d="M55.313 0H4.687A4.687 4.687 0 000 4.688v41.25a4.688 4.688 0 004.688 4.687h16.875v1.58a6.525 6.525 0 01-1.922 4.64l-1.28 1.28H15A.938.938 0 0015 60h30a.938.938 0 000-1.875h-3.36l-1.28-1.28a6.524 6.524 0 01-1.922-4.64v-1.58h16.874A4.688 4.688 0 0060 45.937V4.688A4.688 4.688 0 0055.312 0zM1.874 6.563a.937.937 0 01.938-.938h54.374a.937.937 0 01.938.938v33.75a.938.938 0 01-.938.937H2.813a.938.938 0 01-.938-.938V6.563zm2.813-4.688h50.624a2.812 2.812 0 012.691 1.997 2.747 2.747 0 00-.816-.122H2.813c-.277 0-.552.04-.816.122a2.812 2.812 0 012.69-1.997zm34.303 56.25H21.009a8.377 8.377 0 002.428-5.92v-1.58h13.125v1.58a8.377 8.377 0 002.429 5.92zm16.322-9.375H4.687a2.812 2.812 0 01-2.812-2.813v-2.976c.3.108.618.163.938.164h54.374a2.81 2.81 0 00.938-.164v2.977a2.812 2.812 0 01-2.813 2.812z" ></path>
    <path d="M31.875 45h-3.75a.938.938 0 000 1.875h3.75a.938.938 0 000-1.875z" ></path>
  </symbol>
  <symbol xmlns="http://www.w3.org/2000/svg" viewBox="0 0 71 62" id="lead_7">
    <path d="M13.796 9.186c-2.566 0-4.654 2.1-4.654 4.68 0 2.581 2.088 4.68 4.654 4.68 2.567 0 4.654-2.099 4.654-4.68 0-2.58-2.087-4.68-4.654-4.68zm0 7.907a3.22 3.22 0 01-3.209-3.226c0-1.78 1.44-3.227 3.209-3.227 1.77 0 3.209 1.447 3.209 3.227a3.222 3.222 0 01-3.21 3.226z" ></path>
    <path d="M68.04 29.729l-.201-.91-15.352 8.492v-9.737a2.29 2.29 0 00-2.28-2.294h-4.96a8.853 8.853 0 003.978-7.392c0-4.877-3.945-8.845-8.796-8.845-4.85 0-8.795 3.968-8.795 8.845a8.85 8.85 0 003.978 7.392H19.68c4.1-2.146 6.912-6.452 6.912-11.413C26.59 6.772 20.85 1 13.794 1 6.74 1 1 6.772 1 13.867c0 4.96 2.811 9.267 6.911 11.413h-4.63A2.29 2.29 0 001 27.574v31.133A2.29 2.29 0 003.28 61h46.928a2.289 2.289 0 002.28-2.293V46.033l14.507 8.024.894.49.157-.953a37.355 37.355 0 00-.006-23.865zm-34.962-11.84c0-4.077 3.298-7.393 7.35-7.393 4.053 0 7.351 3.316 7.351 7.392 0 4.076-3.297 7.392-7.35 7.392-4.054 0-7.35-3.316-7.35-7.392zM2.445 13.866c0-6.293 5.092-11.414 11.35-11.414s11.35 5.12 11.35 11.414c0 6.293-5.092 11.413-11.35 11.413s-11.35-5.12-11.35-11.413zm48.597 44.84c0 .463-.375.84-.834.84H3.28a.839.839 0 01-.836-.84V52.58h24.3v-1.454h-24.3V27.574a.84.84 0 01.836-.84h46.927c.46 0 .834.377.834.84v31.133zm15.885-6.345l-14.44-7.986v-5.407l14.44-7.986a35.923 35.923 0 010 21.379z" ></path>
    <path d="M13.796 9.186c-2.566 0-4.654 2.1-4.654 4.68 0 2.581 2.088 4.68 4.654 4.68 2.567 0 4.654-2.099 4.654-4.68 0-2.58-2.087-4.68-4.654-4.68zm0 7.907a3.22 3.22 0 01-3.209-3.226c0-1.78 1.44-3.227 3.209-3.227 1.77 0 3.209 1.447 3.209 3.227a3.222 3.222 0 01-3.21 3.226z"  stroke-width=".5"></path>
    <path d="M68.04 29.729l-.201-.91-15.352 8.492v-9.737a2.29 2.29 0 00-2.28-2.294h-4.96a8.853 8.853 0 003.978-7.392c0-4.877-3.945-8.845-8.796-8.845-4.85 0-8.795 3.968-8.795 8.845a8.85 8.85 0 003.978 7.392H19.68c4.1-2.146 6.912-6.452 6.912-11.413C26.59 6.772 20.85 1 13.794 1 6.74 1 1 6.772 1 13.867c0 4.96 2.811 9.267 6.911 11.413h-4.63A2.29 2.29 0 001 27.574v31.133A2.29 2.29 0 003.28 61h46.928a2.289 2.289 0 002.28-2.293V46.033l14.507 8.024.894.49.157-.953a37.355 37.355 0 00-.006-23.865zm-34.962-11.84c0-4.077 3.298-7.393 7.35-7.393 4.053 0 7.351 3.316 7.351 7.392 0 4.076-3.297 7.392-7.35 7.392-4.054 0-7.35-3.316-7.35-7.392zM2.445 13.866c0-6.293 5.092-11.414 11.35-11.414s11.35 5.12 11.35 11.414c0 6.293-5.092 11.413-11.35 11.413s-11.35-5.12-11.35-11.413zm48.597 44.84c0 .463-.375.84-.834.84H3.28a.839.839 0 01-.836-.84V52.58h24.3v-1.454h-24.3V27.574a.84.84 0 01.836-.84h46.927c.46 0 .834.377.834.84v31.133zm15.885-6.345l-14.44-7.986v-5.407l14.44-7.986a35.923 35.923 0 010 21.379z"  stroke-width=".5"></path>
  </symbol>
  <symbol xmlns="http://www.w3.org/2000/svg" viewBox="0 0 83 53" id="lead_8">
    <path d="M54.38 0c-4.599 0-8.901 1.28-12.581 3.501H7.392C3.31 3.501 0 6.837 0 10.948V38.48c0 4.112 3.31 7.447 7.392 7.447h.718v6.25c0 .218.086.427.24.582a.815.815 0 00.578.241h4.748a.815.815 0 00.579-.241.827.827 0 00.239-.583v-6.25h27.305a24.263 24.263 0 0012.58 3.502c4.598 0 8.901-1.28 12.581-3.501h3.082v6.25a.83.83 0 00.24.582.815.815 0 00.578.241h4.749a.815.815 0 00.578-.241.827.827 0 00.24-.583V45.88c3.694-.412 6.573-3.567 6.573-7.4V10.947c0-4.11-3.31-7.446-7.391-7.446H66.96A24.263 24.263 0 0054.38 0zm0 1.648c4.267 0 8.257 1.176 11.676 3.22.11.126.253.214.414.255a23.075 23.075 0 0110.806 19.591A23.075 23.075 0 0166.46 44.311a.817.817 0 00-.37.229 22.673 22.673 0 01-11.71 3.24 22.671 22.671 0 01-11.677-3.22.817.817 0 00-.414-.255 23.075 23.075 0 01-10.806-19.591A23.075 23.075 0 0142.299 5.117a.817.817 0 00.37-.229 22.672 22.672 0 0111.71-3.24zm0 2.471c-11.282 0-20.444 9.23-20.444 20.595 0 11.365 9.162 20.595 20.443 20.595s20.444-9.23 20.444-20.595c0-11.364-9.163-20.595-20.444-20.595zM7.391 5.149h32.014a24.738 24.738 0 00-9.559 19.565 24.738 24.738 0 009.56 19.565H7.391c-3.203 0-5.757-2.572-5.757-5.799V10.948c0-3.227 2.554-5.8 5.757-5.8zm61.96 0h6.257c3.202 0 5.756 2.572 5.756 5.798v27.534c0 3.226-2.554 5.798-5.756 5.798h-6.256a24.738 24.738 0 009.558-19.565 24.738 24.738 0 00-9.558-19.565zm-14.973.618c10.397 0 18.808 8.473 18.808 18.947 0 10.474-8.41 18.947-18.808 18.947-10.397 0-18.808-8.473-18.808-18.947 0-10.474 8.411-18.947 18.808-18.947zm-43.435.804c-4.081 0-7.392 3.335-7.392 7.447v3.816a.83.83 0 00.502.772.813.813 0 001.075-.453.83.83 0 00.059-.319v-3.816c0-3.227 2.553-5.8 5.756-5.8H30.82a.812.812 0 00.766-.505.83.83 0 00-.45-1.083.812.812 0 00-.316-.059H10.944zm43.435 3.726a.814.814 0 00-.766.506.83.83 0 00.18.905.818.818 0 00.586.237c7.01 0 12.675 5.707 12.675 12.769a.83.83 0 00.502.772.811.811 0 00.898-.182.824.824 0 00.236-.59c0-7.952-6.417-14.416-14.31-14.416zM40.874 23.88a.815.815 0 00-.574.25.827.827 0 00-.231.585c0 7.952 6.417 14.416 14.31 14.416a.812.812 0 00.766-.505.83.83 0 00-.45-1.083.814.814 0 00-.316-.06c-7.01 0-12.675-5.706-12.675-12.768a.828.828 0 00-.51-.775.812.812 0 00-.32-.06zm-32.963.838c-1.571 0-2.862 1.3-2.862 2.884 0 1.582 1.29 2.883 2.862 2.883 1.57 0 2.862-1.3 2.862-2.884 0-1.582-1.291-2.883-2.862-2.883zm8.778 0c-1.572 0-2.863 1.3-2.863 2.884 0 1.582 1.291 2.883 2.863 2.883 1.57 0 2.861-1.3 2.861-2.884 0-1.582-1.29-2.883-2.861-2.883zM7.91 26.365c.687 0 1.226.543 1.226 1.236 0 .692-.54 1.235-1.226 1.235a1.219 1.219 0 01-1.227-1.235c0-.693.54-1.236 1.227-1.236zm8.778 0c.687 0 1.226.543 1.226 1.236 0 .692-.54 1.235-1.226 1.235a1.219 1.219 0 01-1.227-1.235c0-.693.54-1.236 1.227-1.236zm-8.448 4.87c-1.726 0-3.141 1.425-3.141 3.163v2.393c0 1.739 1.415 3.165 3.141 3.165h16.625c1.726 0 3.14-1.426 3.14-3.165v-2.392c0-1.74-1.414-3.164-3.14-3.164H8.24zm0 1.648h16.625c.848 0 1.504.661 1.504 1.515v2.393a1.49 1.49 0 01-1.504 1.517H8.24a1.491 1.491 0 01-1.506-1.517v-2.392a1.49 1.49 0 011.506-1.516zm1.505 13.044h3.112v5.425H9.746v-5.425zm61.932 0h3.113v5.425h-3.113v-5.425z" ></path>
  </symbol>
  <symbol xmlns="http://www.w3.org/2000/svg" viewBox="0 0 66 53" id="lead_9">
    <path d="M61.5 0H25.41a4.52 4.52 0 00-4.22 2.92l-2.2 5.86a2.49 2.49 0 01-2.36 1.64h-1.24v-2a2.15 2.15 0 00-2.15-2.14H7.75a2.14 2.14 0 00-2.14 2.14v2H4.5A4.53 4.53 0 000 14.94v33a4.52 4.52 0 004.5 4.48h57a4.52 4.52 0 004.5-4.51V4.51A4.52 4.52 0 0061.5 0zM7.61 8.39a.14.14 0 01.14-.14h5.49a.14.14 0 01.15.14v2H7.61v-2zm-3.1 4h12.12a4.55 4.55 0 004.23-2.93l2.2-5.87a2.51 2.51 0 012.35-1.62H61.5A2.52 2.52 0 0164 4.51v24.84H50a17 17 0 00-33.9 0H2V14.94a2.52 2.52 0 012.5-2.52l.01-.03zM48 30.35a15 15 0 11-30 0 15 15 0 0130 0zm13.5 20.07h-57A2.52 2.52 0 012 47.91V31.35h14.05a17 17 0 0033.9 0h14v16.56a2.52 2.52 0 01-2.45 2.51z" ></path>
    <path d="M33 18.35a12 12 0 100 24 12 12 0 000-24zm0 22a10 10 0 110-20 10 10 0 010 20z" ></path>
    <path d="M33 23.35v2a5 5 0 015 5h2a7 7 0 00-7-7zm18.02-9.8h8a2.17 2.17 0 002.17-2.16V7.03a2.18 2.18 0 00-1.27-2 2.27 2.27 0 00-.9-.19h-8a2.17 2.17 0 00-2.17 2.17v2.22a11.1 11.1 0 00.12 2.82 2.13 2.13 0 002.05 1.5zm-.17-6.52a.17.17 0 01.17-.17h8.08a.16.16 0 01.1.15v4.36a.17.17 0 01-.17.16h-8a.18.18 0 01-.13-.06V9.23l-.05-2.2z" ></path>
    <path d="M56.53 8.21h-3v2h3v-2z" ></path>
  </symbol>
  <symbol xmlns="http://www.w3.org/2000/svg" viewBox="0 0 72 61" id="lead_10">
    <path d="M4.186 0C1.881 0 0 1.904 0 4.236v42.361c0 2.332 1.881 4.236 4.186 4.236h25.116v8.473h-3.349a.842.842 0 00-.837.847c0 .468.375.847.837.847h20.094c.462 0 .837-.38.837-.847a.842.842 0 00-.837-.847h-3.35v-8.473h25.117c2.305 0 4.186-1.904 4.186-4.236V4.237C72 1.903 70.118 0 67.814 0H4.186zm0 1.694h63.628c1.406 0 2.512 1.12 2.512 2.542v34.736H1.674V4.236c0-1.423 1.106-2.542 2.512-2.542zm55.675 2.542c-.215 0-.413.1-.576.265a.846.846 0 000 1.191l7.09 7.202c.327.33.876.33 1.204 0a.879.879 0 000-1.218L60.462 4.5a.87.87 0 00-.602-.265zm-3.532 2.41a.841.841 0 00-.602.238.879.879 0 000 1.218l8.293 8.366c.327.33.85.33 1.178 0a.846.846 0 000-1.191l-8.294-8.393a.783.783 0 00-.576-.239zM1.673 40.665h68.652v5.931c0 1.423-1.106 2.542-2.512 2.542H4.186c-1.406 0-2.512-1.119-2.512-2.542v-5.93zM36 43.209c-.925 0-1.674.759-1.674 1.695s.75 1.694 1.674 1.694c.925 0 1.674-.758 1.674-1.694 0-.936-.75-1.695-1.674-1.695zm-5.023 7.625h10.046v8.473H30.977v-8.473z" ></path>
  </symbol>
  <symbol xmlns="http://www.w3.org/2000/svg" viewBox="0 0 60 63" id="lead_11">
    <path d="M59 20.27V1H1v19.27h6.64v3.902H1v19.27h28.366v10.684c-1.702.27-3.047 1.6-3.319 3.282H10.358v1.255h15.69A3.997 3.997 0 0030 62c1.994 0 3.648-1.449 3.953-3.337H49.64v-1.255H33.953a3.99 3.99 0 00-3.319-3.282V43.442H59v-19.27h-6.64V20.27H59zM32.74 58.037c0 1.495-1.23 2.71-2.74 2.71-1.51 0-2.74-1.215-2.74-2.71 0-1.494 1.23-2.71 2.74-2.71 1.51 0 2.74 1.216 2.74 2.71zM2.268 19.016V2.255h55.463v16.761H2.268zm55.464 6.41v16.762H2.268V25.425h55.464zm-6.64-1.254H8.908V20.27h42.184v3.9z" ></path>
    <path d="M11.648 6.67c-2.21 0-4.008 1.779-4.008 3.965S9.438 14.6 11.648 14.6s4.008-1.779 4.008-3.965-1.798-3.965-4.008-3.965zm0 6.675c-1.51 0-2.74-1.216-2.74-2.71s1.23-2.71 2.74-2.71c1.51 0 2.74 1.216 2.74 2.71 0 1.495-1.23 2.71-2.74 2.71zM52.36 6.81h-1.268v7.65h1.268V6.81zm-5.102 0h-1.269v7.65h1.269V6.81zm1.094 30.962c2.21 0 4.008-1.78 4.008-3.965 0-2.186-1.798-3.965-4.008-3.965s-4.008 1.779-4.008 3.965 1.798 3.965 4.008 3.965zm0-6.676c1.51 0 2.74 1.216 2.74 2.71 0 1.495-1.23 2.71-2.74 2.71-1.51 0-2.74-1.215-2.74-2.71 0-1.493 1.23-2.71 2.74-2.71zM8.907 29.981H7.64v7.651h1.268v-7.65zm5.103 0h-1.268v7.651h1.268v-7.65z" ></path>
    <path d="M59 20.27V1H1v19.27h6.64v3.902H1v19.27h28.366v10.684c-1.702.27-3.047 1.6-3.319 3.282H10.358v1.255h15.69A3.997 3.997 0 0030 62c1.994 0 3.648-1.449 3.953-3.337H49.64v-1.255H33.953a3.99 3.99 0 00-3.319-3.282V43.442H59v-19.27h-6.64V20.27H59zM32.74 58.037c0 1.495-1.23 2.71-2.74 2.71-1.51 0-2.74-1.215-2.74-2.71 0-1.494 1.23-2.71 2.74-2.71 1.51 0 2.74 1.216 2.74 2.71zM2.268 19.016V2.255h55.463v16.761H2.268zm55.464 6.41v16.762H2.268V25.425h55.464zm-6.64-1.254H8.908V20.27h42.184v3.9z"  stroke-width=".7"></path>
    <path d="M11.648 6.67c-2.21 0-4.008 1.779-4.008 3.965S9.438 14.6 11.648 14.6s4.008-1.779 4.008-3.965-1.798-3.965-4.008-3.965zm0 6.675c-1.51 0-2.74-1.216-2.74-2.71s1.23-2.71 2.74-2.71c1.51 0 2.74 1.216 2.74 2.71 0 1.495-1.23 2.71-2.74 2.71zM52.36 6.81h-1.268v7.65h1.268V6.81zm-5.102 0h-1.269v7.65h1.269V6.81zm1.094 30.962c2.21 0 4.008-1.78 4.008-3.965 0-2.186-1.798-3.965-4.008-3.965s-4.008 1.779-4.008 3.965 1.798 3.965 4.008 3.965zm0-6.676c1.51 0 2.74 1.216 2.74 2.71 0 1.495-1.23 2.71-2.74 2.71-1.51 0-2.74-1.215-2.74-2.71 0-1.493 1.23-2.71 2.74-2.71zM8.907 29.981H7.64v7.651h1.268v-7.65zm5.103 0h-1.268v7.651h1.268v-7.65z"  stroke-width=".7"></path>
  </symbol>
  <symbol xmlns="http://www.w3.org/2000/svg" viewBox="0 0 42 61" id="lead_12">
    <path d="M42 2.01A2.02 2.02 0 0039.974 0H2.026A2.02 2.02 0 000 2.01v56.979A2.02 2.02 0 002.026 61h37.948A2.02 2.02 0 0042 58.99V2.01zm-40.32 0c0-.19.155-.343.346-.343h37.948c.19 0 .345.154.345.343v8.48h-.006a2.144 2.144 0 00-.339-.03H2.026a2.132 2.132 0 00-.346.03V2.01zm38.64 56.98c0 .19-.156.343-.346.343H2.026a.344.344 0 01-.346-.343V12.47c0-.19.155-.343.346-.343h37.948c.19 0 .346.153.346.343v46.52z" ></path>
    <path d="M37.176 8.842c.918 0 1.663-.739 1.663-1.65 0-.911-.745-1.65-1.663-1.65-.919 0-1.663.739-1.663 1.65 0 .911.744 1.65 1.663 1.65zm-4.365 0c.918 0 1.663-.739 1.663-1.65 0-.911-.745-1.65-1.663-1.65s-1.663.739-1.663 1.65c0 .911.745 1.65 1.663 1.65zm-4.572-.206c.918 0 1.663-.739 1.663-1.65 0-.912-.745-1.65-1.663-1.65-.919 0-1.663.738-1.663 1.65 0 .911.744 1.65 1.663 1.65zM12.548 3.274a2.589 2.589 0 00-2.599 2.578 2.589 2.589 0 002.599 2.578 2.588 2.588 0 002.597-2.578 2.587 2.587 0 00-2.597-2.578zm0 3.9a1.328 1.328 0 01-1.334-1.322c0-.732.597-1.324 1.334-1.324.736 0 1.333.593 1.333 1.324 0 .73-.597 1.323-1.333 1.323zm-6.443-3.9a2.588 2.588 0 00-2.598 2.578A2.588 2.588 0 006.105 8.43a2.588 2.588 0 002.598-2.578 2.587 2.587 0 00-2.598-2.578zm0 3.9a1.328 1.328 0 01-1.334-1.322c0-.732.597-1.324 1.334-1.324.737 0 1.334.593 1.334 1.324 0 .73-.597 1.323-1.334 1.323zm30.329 48.668H5.564a2.196 2.196 0 01-2.201-2.185V23.028c0-1.205.988-2.185 2.202-2.185h30.869c1.215 0 2.202.98 2.202 2.185v30.63a2.196 2.196 0 01-2.202 2.184zM5.564 22.51a.52.52 0 00-.52.518v30.63a.52.52 0 00.52.517h30.87a.52.52 0 00.522-.518V23.028a.52.52 0 00-.522-.518H5.564z" ></path>
    <path d="M24.754 24.912c0 .65-.53 1.177-1.186 1.177H18.43a1.182 1.182 0 01-1.186-1.177v-.196c0-.65.531-1.177 1.186-1.177h5.138c.654 0 1.186.527 1.186 1.177v.196z" ></path>
  </symbol>
  <symbol xmlns="http://www.w3.org/2000/svg" viewBox="0 0 71 44" id="lead_13">
    <path d="M0 0v39.6h33.177v2.2h-10.99l1.11 2.2h24.406l1.11-2.2h-11.06v-2.2H71V0H0zm2.219 2.2H68.78v35.2H2.22V2.2z" ></path>
  </symbol>
  <symbol xmlns="http://www.w3.org/2000/svg" viewBox="0 0 37 63" id="lead_14">
    <path d="M31.455 1H5.485C3.008 1 1 2.96 1 5.382v50.564c0 2.422 2.007 4.382 4.486 4.382h.059A1.786 1.786 0 007.315 62c.945 0 1.712-.75 1.771-1.672H28.15A1.786 1.786 0 0029.92 62c.945 0 1.712-.75 1.771-1.672C34.052 60.213 36 58.31 36 55.946V5.382C35.94 2.96 33.934 1 31.455 1zM7.315 61.02c-.413 0-.708-.288-.708-.692h1.476c-.06.346-.414.692-.768.692zm22.547 0c-.413 0-.708-.288-.708-.692h1.475c-.059.346-.354.692-.767.692zm1.593-1.672H5.485c-1.888 0-3.482-1.5-3.482-3.402V5.382c0-1.845 1.535-3.402 3.483-3.402h25.97c1.888 0 3.482 1.5 3.482 3.402v14.414H5.25a.523.523 0 00-.532.519c0 .288.236.519.532.519h29.688v35.17c0 1.787-1.594 3.344-3.483 3.344z" ></path>
    <path d="M31.16 16.164a.523.523 0 00.531-.52V11.61a.523.523 0 00-.531-.52.523.523 0 00-.531.52v4.036c0 .346.236.519.53.519zm0 15.278a.523.523 0 00-.531.52v4.035c0 .288.236.52.53.52a.524.524 0 00.532-.52v-4.036c-.059-.288-.295-.519-.531-.519zM6.43 4.517c.295 0 .531-.23.531-.519 0-.288-.236-.461-.53-.461-1.594 0-2.893 1.268-2.893 2.825v3.402c0 .288.236.519.531.519.295 0 .472-.231.472-.52v-3.4c0-1.038.886-1.845 1.89-1.845z" ></path>
    <path d="M31.455 1H5.485C3.008 1 1 2.96 1 5.382v50.564c0 2.422 2.007 4.382 4.486 4.382h.059A1.786 1.786 0 007.315 62c.945 0 1.712-.75 1.771-1.672H28.15A1.786 1.786 0 0029.92 62c.945 0 1.712-.75 1.771-1.672C34.052 60.213 36 58.31 36 55.946V5.382C35.94 2.96 33.934 1 31.455 1zM7.315 61.02c-.413 0-.708-.288-.708-.692h1.476c-.06.346-.414.692-.768.692zm22.547 0c-.413 0-.708-.288-.708-.692h1.475c-.059.346-.354.692-.767.692zm1.593-1.672H5.485c-1.888 0-3.482-1.5-3.482-3.402V5.382c0-1.845 1.535-3.402 3.483-3.402h25.97c1.888 0 3.482 1.5 3.482 3.402v14.414H5.25a.523.523 0 00-.532.519c0 .288.236.519.532.519h29.688v35.17c0 1.787-1.594 3.344-3.483 3.344z" ></path>
    <path d="M31.16 16.164a.523.523 0 00.531-.52V11.61a.523.523 0 00-.531-.52.523.523 0 00-.531.52v4.036c0 .346.236.519.53.519zm0 15.278a.523.523 0 00-.531.52v4.035c0 .288.236.52.53.52a.524.524 0 00.532-.52v-4.036c-.059-.288-.295-.519-.531-.519zM6.43 4.517c.295 0 .531-.23.531-.519 0-.288-.236-.461-.53-.461-1.594 0-2.893 1.268-2.893 2.825v3.402c0 .288.236.519.531.519.295 0 .472-.231.472-.52v-3.4c0-1.038.886-1.845 1.89-1.845z" ></path>
  </symbol>
  <symbol xmlns="http://www.w3.org/2000/svg" viewBox="0 0 48 61" id="lead_15">
    <path d="M46.978 0H1.023A1.02 1.02 0 000 1.017v56.26a1.02 1.02 0 001.023 1.016H3.46V61h2.046v-2.707h36.988V61h2.047v-2.707h2.436A1.02 1.02 0 0048 57.276V1.016A1.02 1.02 0 0046.978 0zm-1.024 2.033v11.338H2.046V2.033h43.908zM2.046 56.26V15.405h43.908V56.26H2.046z" ></path>
    <path d="M24 19.565c-9.026 0-16.37 7.298-16.37 16.267C7.63 44.802 14.974 52.1 24 52.1s16.37-7.3 16.37-16.268S33.026 19.565 24 19.565zm0 30.5c-7.898 0-14.323-6.385-14.323-14.233C9.677 27.984 16.102 21.6 24 21.6c7.899 0 14.324 6.385 14.324 14.233 0 7.848-6.425 14.233-14.324 14.233z" ></path>
    <path d="M24 23.713c-6.724 0-12.195 5.437-12.195 12.12 0 6.68 5.471 12.117 12.195 12.117s12.196-5.436 12.196-12.118S30.725 23.713 24 23.713zm0 22.204c-5.596 0-10.148-4.524-10.148-10.085 0-5.561 4.553-10.085 10.148-10.085 5.596 0 10.149 4.524 10.149 10.085 0 5.56-4.552 10.085-10.149 10.085zM7.093 5.778H5.047v3.848h2.046V5.778zm4.887 0H9.934v3.848h2.046V5.778zm4.887 0h-2.046v3.848h2.046V5.778zm25.063.908h-8.236v2.033h8.237V6.686z" ></path>
  </symbol>
  <symbol xmlns="http://www.w3.org/2000/svg" viewBox="0 0 53 63" id="lead_16">
    <path d="M51.385 1H1.616A.616.616 0 001 1.616v59.768c0 .34.276.616.616.616h49.768c.34 0 .616-.276.616-.616V1.616A.615.615 0 0051.385 1zM2.233 14.498h14.262c.045 2.59 4.42 4.61 10.004 4.61s9.96-2.022 10.005-4.61h14.262V54.43H2.233V14.5zm33.04 0c-.06 1.606-3.642 3.379-8.772 3.379-5.13 0-8.713-1.773-8.771-3.379h17.543zM50.767 2.232v11.034H2.233V2.232h48.535zM2.233 60.769v-5.107h48.534v5.107H2.233z" ></path>
    <path d="M4.873 10.282h15.93c.34 0 .616-.276.616-.616V5.832a.616.616 0 00-.616-.615H4.873a.616.616 0 00-.616.615v3.834c0 .341.275.616.616.616zm.617-3.834h14.697V9.05H5.49V6.448zm36.39 4.142c.003.005.008.006.012.01a4.011 4.011 0 002.83 1.167 4.025 4.025 0 004.023-4.018c0-1.1-.445-2.095-1.165-2.822-.005-.006-.007-.015-.013-.02-.008-.007-.016-.01-.024-.016a4.009 4.009 0 00-2.82-1.16A4.024 4.024 0 0040.7 7.749a4 4 0 001.171 2.83c.004.006.004.01.008.012zm2.841-.055a2.756 2.756 0 01-1.48-.434l3.834-3.834c.272.43.436.936.436 1.482a2.79 2.79 0 01-2.79 2.786zm0-5.571c.545 0 1.052.163 1.481.435L42.369 9.23a2.756 2.756 0 01-.436-1.48 2.792 2.792 0 012.788-2.787zM36.243 10.8a3.056 3.056 0 003.054-3.051 3.057 3.057 0 00-3.054-3.052 3.057 3.057 0 00-3.055 3.052 3.057 3.057 0 003.055 3.051zm0-4.87c1.004 0 1.821.816 1.821 1.82a1.822 1.822 0 01-3.643 0 1.825 1.825 0 011.822-1.82zm-7.509 4.87a3.055 3.055 0 003.053-3.051 3.056 3.056 0 00-3.053-3.052 3.057 3.057 0 00-3.055 3.052 3.056 3.056 0 003.055 3.051zm0-4.87c1.002 0 1.82.816 1.82 1.82a1.822 1.822 0 01-3.642 0c0-1.004.817-1.82 1.822-1.82z" ></path>
    <path d="M51.385 1H1.616A.616.616 0 001 1.616v59.768c0 .34.276.616.616.616h49.768c.34 0 .616-.276.616-.616V1.616A.615.615 0 0051.385 1zM2.233 14.498h14.262c.045 2.59 4.42 4.61 10.004 4.61s9.96-2.022 10.005-4.61h14.262V54.43H2.233V14.5zm33.04 0c-.06 1.606-3.642 3.379-8.772 3.379-5.13 0-8.713-1.773-8.771-3.379h17.543zM50.767 2.232v11.034H2.233V2.232h48.535zM2.233 60.769v-5.107h48.534v5.107H2.233z"  stroke-width=".5"></path>
    <path d="M4.873 10.282h15.93c.34 0 .616-.276.616-.616V5.832a.616.616 0 00-.616-.615H4.873a.616.616 0 00-.616.615v3.834c0 .341.275.616.616.616zm.617-3.834h14.697V9.05H5.49V6.448zm36.39 4.142c.003.005.008.006.012.01a4.011 4.011 0 002.83 1.167 4.025 4.025 0 004.023-4.018c0-1.1-.445-2.095-1.165-2.822-.005-.006-.007-.015-.013-.02-.008-.007-.016-.01-.024-.016a4.009 4.009 0 00-2.82-1.16A4.024 4.024 0 0040.7 7.749a4 4 0 001.171 2.83c.004.006.004.01.008.012zm2.841-.055a2.756 2.756 0 01-1.48-.434l3.834-3.834c.272.43.436.936.436 1.482a2.79 2.79 0 01-2.79 2.786zm0-5.571c.545 0 1.052.163 1.481.435L42.369 9.23a2.756 2.756 0 01-.436-1.48 2.792 2.792 0 012.788-2.787zM36.243 10.8a3.056 3.056 0 003.054-3.051 3.057 3.057 0 00-3.054-3.052 3.057 3.057 0 00-3.055 3.052 3.057 3.057 0 003.055 3.051zm0-4.87c1.004 0 1.821.816 1.821 1.82a1.822 1.822 0 01-3.643 0 1.825 1.825 0 011.822-1.82zm-7.509 4.87a3.055 3.055 0 003.053-3.051 3.056 3.056 0 00-3.053-3.052 3.057 3.057 0 00-3.055 3.052 3.056 3.056 0 003.055 3.051zm0-4.87c1.002 0 1.82.816 1.82 1.82a1.822 1.822 0 01-3.642 0c0-1.004.817-1.82 1.822-1.82z"  stroke-width=".5"></path>
  </symbol>
  <symbol xmlns="http://www.w3.org/2000/svg" viewBox="0 0 60 60" id="lead_17">
    <path d="M50 0H10C8.346 0 7 1.346 7 3v52a1 1 0 001 1v2c0 1.103.897 2 2 2h4c1.103 0 2-.897 2-2v-2h28v2c0 1.103.897 2 2 2h4c1.103 0 2-.897 2-2v-2a1 1 0 001-1V3c0-1.654-1.346-3-3-3zm1 54H9v-2h42v2zM9 50V6h23.586l3.121 3.121c.566.567 1.32.88 2.121.88H51V50H9zM35.414 6H51v2H37.828a1.01 1.01 0 01-.707-.293L35.414 6zM10 2h40a1 1 0 011 1v1H9V3c0-.551.449-1 1-1zm4 56h-4v-2h4v2zm36 0h-4v-2h4v2z"></path>
    <path d="M12 8a1 1 0 00-1 1v1a1 1 0 002 0V9a1 1 0 00-1-1zm4 0a1 1 0 00-1 1v1a1 1 0 002 0V9a1 1 0 00-1-1z"></path>
  </symbol>
  <symbol xmlns="http://www.w3.org/2000/svg" viewBox="0 0 67 62" id="lead_18">
    <path d="M65.337 1H1.663A.665.665 0 001 1.667v56c0 .368.297.666.663.666h63.674a.665.665 0 00.663-.666v-56A.665.665 0 0065.337 1zm-.663 56H2.327V2.333h62.347V57zm-49.745 2.667H9.622a.665.665 0 00-.663.666c0 .368.297.667.663.667h5.307a.665.665 0 00.663-.667.665.665 0 00-.663-.666zm42.448 0h-5.306a.665.665 0 00-.663.666c0 .368.297.667.663.667h5.306a.665.665 0 00.664-.667.665.665 0 00-.663-.666z" ></path>
    <path d="M6.97 53h53.06a.665.665 0 00.664-.667V17.667A.665.665 0 0060.03 17H6.969a.665.665 0 00-.663.667v34.666c0 .368.297.667.663.667zm.663-34.667h51.734v33.334H7.633V18.333z" ></path>
    <path d="M49.418 22.333H17.582a.665.665 0 00-.664.667c0 .368.297.667.664.667h31.836a.665.665 0 00.664-.667.665.665 0 00-.664-.667zM9.622 13c1.828 0 3.317-1.496 3.317-3.333 0-1.838-1.489-3.334-3.317-3.334S6.306 7.83 6.306 9.667 7.794 13 9.622 13zm0-5.333c1.098 0 1.99.897 1.99 2 0 1.102-.893 2-1.99 2a1.997 1.997 0 01-1.99-2c0-1.103.893-2 1.99-2zM57.377 13c1.83 0 3.317-1.496 3.317-3.333 0-1.838-1.487-3.334-3.317-3.334-1.829 0-3.316 1.496-3.316 3.334 0 1.837 1.487 3.333 3.316 3.333zm0-5.333c1.098 0 1.99.897 1.99 2 0 1.102-.892 2-1.99 2a1.997 1.997 0 01-1.99-2c0-1.103.894-2 1.99-2zM46.765 13c1.83 0 3.317-1.496 3.317-3.333 0-1.838-1.487-3.334-3.317-3.334-1.829 0-3.316 1.496-3.316 3.334 0 1.837 1.487 3.333 3.316 3.333zm0-5.333c1.097 0 1.99.897 1.99 2 0 1.102-.893 2-1.99 2a1.997 1.997 0 01-1.99-2c0-1.103.893-2 1.99-2zM36.153 13c1.83 0 3.316-1.496 3.316-3.333 0-1.838-1.487-3.334-3.316-3.334-1.828 0-3.316 1.496-3.316 3.334 0 1.837 1.488 3.333 3.316 3.333zm0-5.333c1.097 0 1.99.897 1.99 2 0 1.102-.893 2-1.99 2a1.997 1.997 0 01-1.99-2c0-1.103.893-2 1.99-2zM25.54 13c1.829 0 3.317-1.496 3.317-3.333 0-1.838-1.488-3.334-3.316-3.334-1.828 0-3.317 1.496-3.317 3.334 0 1.837 1.489 3.333 3.317 3.333zm0-5.333c1.098 0 1.99.897 1.99 2 0 1.102-.892 2-1.99 2a1.997 1.997 0 01-1.989-2c0-1.103.893-2 1.99-2z" ></path>
    <path d="M65.337 1H1.663A.665.665 0 001 1.667v56c0 .368.297.666.663.666h63.674a.665.665 0 00.663-.666v-56A.665.665 0 0065.337 1zm-.663 56H2.327V2.333h62.347V57zm-49.745 2.667H9.622a.665.665 0 00-.663.666c0 .368.297.667.663.667h5.307a.665.665 0 00.663-.667.665.665 0 00-.663-.666zm42.448 0h-5.306a.665.665 0 00-.663.666c0 .368.297.667.663.667h5.306a.665.665 0 00.664-.667.665.665 0 00-.663-.666z"  stroke-width=".6"></path>
    <path d="M6.97 53h53.06a.665.665 0 00.664-.667V17.667A.665.665 0 0060.03 17H6.969a.665.665 0 00-.663.667v34.666c0 .368.297.667.663.667zm.663-34.667h51.734v33.334H7.633V18.333z"  stroke-width=".6"></path>
    <path d="M49.418 22.333H17.582a.665.665 0 00-.664.667c0 .368.297.667.664.667h31.836a.665.665 0 00.664-.667.665.665 0 00-.664-.667zM9.622 13c1.828 0 3.317-1.496 3.317-3.333 0-1.838-1.489-3.334-3.317-3.334S6.306 7.83 6.306 9.667 7.794 13 9.622 13zm0-5.333c1.098 0 1.99.897 1.99 2 0 1.102-.893 2-1.99 2a1.997 1.997 0 01-1.99-2c0-1.103.893-2 1.99-2zM57.377 13c1.83 0 3.317-1.496 3.317-3.333 0-1.838-1.487-3.334-3.317-3.334-1.829 0-3.316 1.496-3.316 3.334 0 1.837 1.487 3.333 3.316 3.333zm0-5.333c1.098 0 1.99.897 1.99 2 0 1.102-.892 2-1.99 2a1.997 1.997 0 01-1.99-2c0-1.103.894-2 1.99-2zM46.765 13c1.83 0 3.317-1.496 3.317-3.333 0-1.838-1.487-3.334-3.317-3.334-1.829 0-3.316 1.496-3.316 3.334 0 1.837 1.487 3.333 3.316 3.333zm0-5.333c1.097 0 1.99.897 1.99 2 0 1.102-.893 2-1.99 2a1.997 1.997 0 01-1.99-2c0-1.103.893-2 1.99-2zM36.153 13c1.83 0 3.316-1.496 3.316-3.333 0-1.838-1.487-3.334-3.316-3.334-1.828 0-3.316 1.496-3.316 3.334 0 1.837 1.488 3.333 3.316 3.333zm0-5.333c1.097 0 1.99.897 1.99 2 0 1.102-.893 2-1.99 2a1.997 1.997 0 01-1.99-2c0-1.103.893-2 1.99-2zM25.54 13c1.829 0 3.317-1.496 3.317-3.333 0-1.838-1.488-3.334-3.316-3.334-1.828 0-3.317 1.496-3.317 3.334 0 1.837 1.489 3.333 3.317 3.333zm0-5.333c1.098 0 1.99.897 1.99 2 0 1.102-.892 2-1.99 2a1.997 1.997 0 01-1.989-2c0-1.103.893-2 1.99-2z"  stroke-width=".6"></path>
  </symbol>
  <symbol xmlns="http://www.w3.org/2000/svg" viewBox="0 0 65 61" id="lead_19">
    <path d="M23.602 29.274h-7.195a.576.576 0 00-.574.577c0 .319.257.577.574.577h7.195a.576.576 0 000-1.154zm0 3.237h-7.195a.576.576 0 00-.574.577c0 .32.257.578.574.578h7.195a.576.576 0 000-1.155zm0 3.237h-7.195a.576.576 0 00-.574.578c0 .318.257.577.574.577h7.195a.576.576 0 000-1.155zm0 3.235h-7.195a.576.576 0 00-.574.578c0 .318.257.577.574.577h7.195a.576.576 0 000-1.155zm0 3.237h-7.195a.576.576 0 00-.574.578c0 .319.257.577.574.577h7.195a.576.576 0 000-1.155z" ></path>
    <path d="M22.54 22.816h-5.07c-2.453 0-4.45 2.004-4.45 4.47v18.08c0 2.463 1.995 4.47 4.45 4.47h5.07c2.453 0 4.45-2.004 4.45-4.47v-18.08c-.002-2.466-1.997-4.47-4.45-4.47zm2.611 22.55a2.619 2.619 0 01-2.61 2.62h-5.072a2.619 2.619 0 01-2.61-2.62v-18.08a2.619 2.619 0 012.61-2.62h5.072a2.619 2.619 0 012.61 2.62v18.08z" ></path>
    <path d="M62.108 14.034C59.26 9.784 53.91 8.47 48.03 10.458a40.113 40.113 0 00-1.703-2.395.913.913 0 00-.07-.448C44.343 3.133 37.902 0 30.592 0c-7.321 0-13.767 3.131-15.677 7.615a.898.898 0 00-.071.444c-.474.618-.936 1.26-1.381 1.93H.099l-.088.829c-.007.076-.627 7.278 8.464 9.157-2.77 7.49-4.314 16.358-4.314 25.59 0 2.996.159 5.943.47 8.767a3.847 3.847 0 00-1.34 2.944C3.29 59.33 4.953 61 6.996 61h47.178c2.045 0 3.707-1.672 3.707-3.838a3.702 3.702 0 00-1.342-2.844 81 81 0 00.47-8.754c0-2.136-.07-3.995-.213-5.67-.043-.661-.112-1.308-.17-1.963 4.093-2.358 6.828-5.828 7.892-10.093 1.142-4.588.218-9.878-2.411-13.804zM30.593 1.85c5.812 0 10.964 2.073 13.22 5.181H17.356c2.26-3.108 7.414-5.181 13.237-5.181zM1.856 11.838h10.445a48.313 48.313 0 00-3.141 6.378c-6.021-1.136-7.136-4.729-7.304-6.378zm52.32 47.313H6.996c-1.03 0-1.868-.841-1.868-1.989 0-1.027.827-1.858 1.845-1.872h47.224c1.018.014 1.846.845 1.846 1.983a1.876 1.876 0 01-1.869 1.877zm0-5.713H6.996c-.016 0-.03.005-.046.005h-.57A80.015 80.015 0 016 45.564c0-14.623 3.92-28.276 10.504-36.66h28.185a39.74 39.74 0 013.833 6.07c3.608 7.038 5.837 15.697 6.444 25.06.14 1.64.206 3.45.206 5.532 0 2.665-.128 5.313-.386 7.879h-.565c-.016-.002-.03-.007-.046-.007zm8.111-26.161c-.83 3.331-2.865 6.116-5.922 8.13-.965-7.874-3.075-15.166-6.209-21.283-.292-.565-.625-1.083-.935-1.628 4.713-1.457 8.776-.457 10.98 2.829 2.277 3.399 3.077 7.98 2.086 11.952z" ></path>
  </symbol>
  <symbol xmlns="http://www.w3.org/2000/svg" viewBox="0 0 47 62" id="lead_20">
    <path d="M44.202 34.66h-2.756c-.36 0-.659-.3-.659-.66 0-.36.3-.66.66-.66h2.755c.24 0 .42-.18.42-.42v-3.78a.41.41 0 00-.42-.42h-2.756c-.36 0-.659-.3-.659-.66 0-.36.3-.66.66-.66h2.755c1.019 0 1.798.84 1.798 1.8v3.78c0 .84-.839 1.68-1.798 1.68zm-29.121 1.5c-.3 0-.54-.18-.659-.42l-1.618-4.14h-2.037c-.36 0-.66-.3-.66-.66 0-.36.3-.66.66-.66h2.517c.3 0 .539.18.659.42l1.018 2.64 1.978-7.14c.06-.3.3-.48.599-.48.3 0 .54.18.66.42l1.617 4.08h2.217c.3 0 .54.18.66.42l1.018 2.64 1.977-7.08c.06-.3.3-.48.6-.48.299 0 .539.18.658.42l1.618 4.08h3.655c.36 0 .66.3.66.66 0 .36-.3.66-.66.66h-4.134c-.3 0-.54-.18-.66-.42l-.958-2.58-1.977 7.08c-.06.3-.3.48-.6.48s-.539-.18-.659-.42l-1.677-4.08h-2.217c-.3 0-.54-.18-.66-.42l-1.018-2.64-1.978 7.08c-.06.3-.3.54-.599.54z" ></path>
    <path d="M21.553 45.82c-8.21 0-14.86-6.66-14.86-14.88s6.65-14.88 14.86-14.88c8.209 0 14.86 6.66 14.86 14.88 0 .36-.3.66-.66.66a.666.666 0 01-.659-.66c0-7.44-6.051-13.5-13.482-13.5-7.43 0-13.482 6.06-13.482 13.5s6.052 13.5 13.482 13.5c.36 0 .66.3.66.66-.06.42-.36.72-.72.72zM35.454 34a.68.68 0 01-.48-.18.682.682 0 01-.18-.48c0-.18.06-.36.18-.48.24-.24.72-.24.96 0 .12.12.18.3.18.48s-.06.36-.18.48a.68.68 0 01-.48.18zm-7.25 10.14c-.3 0-.6-.18-.66-.48-.12-.3.06-.66.36-.78.3-.18.66-.06.899.24.18.3.12.72-.18.96-.06.06-.12.06-.18.12-.06-.12-.18-.06-.24-.06zm3.415-2.58c-.18 0-.42-.06-.54-.24-.239-.3-.179-.66.06-.9.24-.24.66-.3.96-.06.3.24.3.66.06.96 0 .06-.06.06-.12.12-.12.06-.24.12-.42.12zm2.517-3.48c-.12 0-.18 0-.3-.06-.36-.18-.48-.6-.3-.9.18-.36.6-.48.9-.3.359.18.479.6.299.9-.12.18-.36.36-.6.36zm-9.946 7.44a.68.68 0 01-.48-.18.682.682 0 01-.18-.48c0-.18.06-.36.18-.48.24-.24.719-.24.958 0 .12.12.18.3.18.48s-.06.36-.18.48a.68.68 0 01-.479.18z" ></path>
    <path d="M21.553 51.52C10.228 51.52 1 42.28 1 30.94c0-11.34 9.228-20.58 20.553-20.58 11.324 0 20.552 9.24 20.552 20.58 0 11.34-9.227 20.58-20.552 20.58zm0-39.78c-10.606 0-19.175 8.64-19.175 19.2 0 10.62 8.629 19.2 19.175 19.2 10.605 0 19.174-8.64 19.174-19.2 0-10.62-8.628-19.2-19.174-19.2z" ></path>
    <path d="M30.96 14.14c-.36 0-.66-.3-.66-.66V3.46c0-.6-.478-1.08-1.078-1.08h-15.34c-.598 0-1.078.48-1.078 1.08v9.96c0 .36-.3.66-.659.66-.36 0-.659-.3-.659-.66V3.46C11.426 2.08 12.505 1 13.883 1h15.34a2.432 2.432 0 012.456 2.46v9.96c-.06.36-.36.72-.719.72zM29.163 61h-15.28a2.432 2.432 0 01-2.457-2.46v-9.96c0-.36.3-.66.66-.66.359 0 .658.3.658.66v9.96c0 .6.48 1.08 1.079 1.08h15.34c.599 0 1.078-.48 1.078-1.08v-9.96c0-.36.3-.66.66-.66.359 0 .658.3.658.66v9.96c.06 1.38-1.018 2.46-2.396 2.46z" ></path>
    <path d="M44.202 34.66h-2.756c-.36 0-.659-.3-.659-.66 0-.36.3-.66.66-.66h2.755c.24 0 .42-.18.42-.42v-3.78a.41.41 0 00-.42-.42h-2.756c-.36 0-.659-.3-.659-.66 0-.36.3-.66.66-.66h2.755c1.019 0 1.798.84 1.798 1.8v3.78c0 .84-.839 1.68-1.798 1.68zm-29.121 1.5c-.3 0-.54-.18-.659-.42l-1.618-4.14h-2.037c-.36 0-.66-.3-.66-.66 0-.36.3-.66.66-.66h2.517c.3 0 .539.18.659.42l1.018 2.64 1.978-7.14c.06-.3.3-.48.599-.48.3 0 .54.18.66.42l1.617 4.08h2.217c.3 0 .54.18.66.42l1.018 2.64 1.977-7.08c.06-.3.3-.48.6-.48.299 0 .539.18.658.42l1.618 4.08h3.655c.36 0 .66.3.66.66 0 .36-.3.66-.66.66h-4.134c-.3 0-.54-.18-.66-.42l-.958-2.58-1.977 7.08c-.06.3-.3.48-.6.48s-.539-.18-.659-.42l-1.677-4.08h-2.217c-.3 0-.54-.18-.66-.42l-1.018-2.64-1.978 7.08c-.06.3-.3.54-.599.54z"  stroke-width=".5"></path>
    <path d="M21.553 45.82c-8.21 0-14.86-6.66-14.86-14.88s6.65-14.88 14.86-14.88c8.209 0 14.86 6.66 14.86 14.88 0 .36-.3.66-.66.66a.666.666 0 01-.659-.66c0-7.44-6.051-13.5-13.482-13.5-7.43 0-13.482 6.06-13.482 13.5s6.052 13.5 13.482 13.5c.36 0 .66.3.66.66-.06.42-.36.72-.72.72zM35.454 34a.68.68 0 01-.48-.18.682.682 0 01-.18-.48c0-.18.06-.36.18-.48.24-.24.72-.24.96 0 .12.12.18.3.18.48s-.06.36-.18.48a.68.68 0 01-.48.18zm-7.25 10.14c-.3 0-.6-.18-.66-.48-.12-.3.06-.66.36-.78.3-.18.66-.06.899.24.18.3.12.72-.18.96-.06.06-.12.06-.18.12-.06-.12-.18-.06-.24-.06zm3.415-2.58c-.18 0-.42-.06-.54-.24-.239-.3-.179-.66.06-.9.24-.24.66-.3.96-.06.3.24.3.66.06.96 0 .06-.06.06-.12.12-.12.06-.24.12-.42.12zm2.517-3.48c-.12 0-.18 0-.3-.06-.36-.18-.48-.6-.3-.9.18-.36.6-.48.9-.3.359.18.479.6.299.9-.12.18-.36.36-.6.36zm-9.946 7.44a.68.68 0 01-.48-.18.682.682 0 01-.18-.48c0-.18.06-.36.18-.48.24-.24.719-.24.958 0 .12.12.18.3.18.48s-.06.36-.18.48a.68.68 0 01-.479.18z"  stroke-width=".5"></path>
    <path d="M21.553 51.52C10.228 51.52 1 42.28 1 30.94c0-11.34 9.228-20.58 20.553-20.58 11.324 0 20.552 9.24 20.552 20.58 0 11.34-9.227 20.58-20.552 20.58zm0-39.78c-10.606 0-19.175 8.64-19.175 19.2 0 10.62 8.629 19.2 19.175 19.2 10.605 0 19.174-8.64 19.174-19.2 0-10.62-8.628-19.2-19.174-19.2z"  stroke-width=".5"></path>
    <path d="M30.96 14.14c-.36 0-.66-.3-.66-.66V3.46c0-.6-.478-1.08-1.078-1.08h-15.34c-.598 0-1.078.48-1.078 1.08v9.96c0 .36-.3.66-.659.66-.36 0-.659-.3-.659-.66V3.46C11.426 2.08 12.505 1 13.883 1h15.34a2.432 2.432 0 012.456 2.46v9.96c-.06.36-.36.72-.719.72zM29.163 61h-15.28a2.432 2.432 0 01-2.457-2.46v-9.96c0-.36.3-.66.66-.66.359 0 .658.3.658.66v9.96c0 .6.48 1.08 1.079 1.08h15.34c.599 0 1.078-.48 1.078-1.08v-9.96c0-.36.3-.66.66-.66.359 0 .658.3.658.66v9.96c.06 1.38-1.018 2.46-2.396 2.46z"  stroke-width=".5"></path>
  </symbol>
  <symbol xmlns="http://www.w3.org/2000/svg" viewBox="0 0 78 63" id="lead_21">
    <path fill-rule="evenodd" clip-rule="evenodd" d="M75.311 2.694H56.733v57.612h18.578V2.694zM55.89 1h20.267c.466 0 .844.38.844.847v59.306a.845.845 0 01-.844.847H55.889a.846.846 0 01-.845-.847V1.847c0-.467.379-.847.845-.847zM1.844 14.556h48.978c.466 0 .845.38.845.847V52.68a.846.846 0 01-.845.847H27.178v6.778H39c.466 0 .844.378.844.847A.846.846 0 0139 62H13.667a.846.846 0 01-.845-.847c0-.469.378-.847.845-.847h11.822v-6.778H1.844A.846.846 0 011 52.68V15.403c0-.468.377-.847.844-.847zm48.134 1.694H2.688v35.583h47.29V16.25z" ></path>
    <path fill-rule="evenodd" clip-rule="evenodd" d="M60.111 11.167a.846.846 0 01-.844-.848c0-.468.377-.847.844-.847h11.822a.846.846 0 010 1.694H60.111zm10.133 5.083a.846.846 0 01-.844-.847c0-.469.377-.847.844-.847h1.69c.466 0 .844.378.844.847a.846.846 0 01-.845.847h-1.689z" ></path>
    <path clip-rule="evenodd" d="M75.311 2.694H56.733v57.612h18.578V2.694zM55.89 1h20.267c.466 0 .844.38.844.847v59.306a.845.845 0 01-.844.847H55.889a.846.846 0 01-.845-.847V1.847c0-.467.379-.847.845-.847zM1.844 14.556h48.978c.466 0 .845.38.845.847V52.68a.846.846 0 01-.845.847H27.178v6.778H39c.466 0 .844.378.844.847A.846.846 0 0139 62H13.667a.846.846 0 01-.845-.847c0-.469.378-.847.845-.847h11.822v-6.778H1.844A.846.846 0 011 52.68V15.403c0-.468.377-.847.844-.847zm48.134 1.694H2.688v35.583h47.29V16.25z"  stroke-width=".5"></path>
    <path clip-rule="evenodd" d="M60.111 11.167a.846.846 0 01-.844-.848c0-.468.377-.847.844-.847h11.822a.846.846 0 010 1.694H60.111zm10.133 5.083a.846.846 0 01-.844-.847c0-.469.377-.847.844-.847h1.69c.466 0 .844.378.844.847a.846.846 0 01-.845.847h-1.689z"  stroke-width=".5"></path>
  </symbol>
  <symbol xmlns="http://www.w3.org/2000/svg" viewBox="0 0 64 50" id="lead_22">
    <path d="M57.821 27.554v-7.602a3.99 3.99 0 00-3.991-3.99 135.78 135.78 0 00-18.722 1.217 35.312 35.312 0 01-3.992-7.263C28.182 3.152 23.671 0 16.906 0A12.976 12.976 0 005.708 6.414a12.965 12.965 0 00-.12 12.9L3.593 20.67l3.991 6.325A17.5 17.5 0 000 40.961v2.933a3.99 3.99 0 003.992 3.99h4.111a2.973 2.973 0 004.545 1.458 2.98 2.98 0 001.084-1.457h31.495a11.978 11.978 0 0018.64-8.074 11.967 11.967 0 00-6.046-12.257zM5.928 12.969A10.992 10.992 0 0116.905 1.995c5.988 0 9.76 2.694 12.355 8.7a40.102 40.102 0 003.632 6.823l-2.175.439a40.66 40.66 0 01-3.194-6.165l-.1-.24C25.169 6.225 22.056 3.99 17.006 3.99a8.964 8.964 0 00-8.977 8.638 8.956 8.956 0 00.993 4.43l-1.716 1.138a10.93 10.93 0 01-1.377-5.227zm11.337 8.659l-4.451-7.123-2.176 1.456a7 7 0 013-9.126 7.008 7.008 0 013.387-.85c4.271 0 6.607 1.696 8.582 6.285v.24a44.199 44.199 0 002.934 5.806 70.254 70.254 0 00-11.276 3.312zm-10.978-.38l5.988-3.99 3.193 5.108a39.761 39.761 0 00-6.247 3.412l-2.934-4.53zm47.543-3.291a1.996 1.996 0 011.995 1.995c-17.344.28-29.499 7.462-39.299 13.288-5.748 3.452-10.399 6.185-14.59 6.664C3.034 26.716 23.592 17.957 53.83 17.957zM1.936 43.894V41.9c4.65-.379 9.54-3.272 15.608-6.883 9.58-5.727 21.476-12.77 38.281-13.069v4.669a11.98 11.98 0 00-13.919 4.641 11.968 11.968 0 001.026 14.632h-39a1.996 1.996 0 01-1.996-1.995zm49.898 3.99a9.982 9.982 0 01-9.22-6.158 9.974 9.974 0 017.273-13.602 9.983 9.983 0 0110.244 4.242 9.973 9.973 0 01-1.24 12.597 9.981 9.981 0 01-7.057 2.922z" ></path>
  </symbol>
  <symbol xmlns="http://www.w3.org/2000/svg" viewBox="0 0 56 62" id="lead_23">
    <path d="M54.372 1H1.628A.624.624 0 001 1.619v13.83c0 .341.281.618.628.618h3.836l.803 2.425c.003.01.01.017.014.026.01.025.023.046.035.068a.631.631 0 00.138.174c.039.034.08.06.125.083.022.011.04.023.063.032a.64.64 0 00.222.044h16.058a.627.627 0 00.222-.044c.023-.009.041-.02.063-.031a.63.63 0 00.18-.137.641.641 0 00.083-.12c.013-.023.026-.044.036-.069.003-.009.01-.016.014-.026l.801-2.425h12.937c1.73 0 2.928.407 3.468 1.175.562.799.292 1.84.081 2.388-.002.004 0 .009-.002.013l-.007.011L32.44 44.49H19.836c1.508-1.693 3.75-5.541 3.714-13.463v-.003c0-.05-.017-.092-.029-.138-.008-.034-.007-.07-.02-.101-.02-.045-.053-.08-.083-.119-.018-.025-.03-.055-.052-.077-.037-.036-.084-.06-.13-.086-.024-.015-.043-.036-.07-.047a.63.63 0 00-.244-.049H7.088a.63.63 0 00-.245.05c-.026.01-.046.031-.07.046-.045.026-.092.05-.129.086-.023.022-.035.052-.053.077-.029.039-.062.074-.081.119-.014.03-.014.067-.022.1-.011.046-.028.09-.029.14v.002c-.002.413.004.813.014 1.205-1.3.084-2.338.424-3.09 1.018-.818.647-1.25 1.554-1.25 2.623 0 2.644 2.72 5.692 6.294 5.919.585 1.227 1.212 2.097 1.746 2.697H1.628a.623.623 0 00-.628.619v12.961c0 .342.281.619.628.619h2.15c.043 1.97.378 2.312 2.54 2.312h1.536c2.163 0 2.498-.342 2.54-2.312h35.18c.042 1.97.377 2.312 2.54 2.312h1.536c2.163 0 2.499-.342 2.54-2.312h2.182a.623.623 0 00.628-.619V1.62a.624.624 0 00-.628-.62zM22.467 17.683H7.32l-.535-1.615H23l-.535 1.615zm14.792-2.853H2.257V2.237h51.486v55.215H2.257V45.728h30.637a.65.65 0 00.222-.044.663.663 0 00.065-.033.576.576 0 00.262-.256c.013-.023.026-.042.036-.067.004-.009.01-.015.013-.024l8.5-25.26.002-.002c.502-1.33.42-2.572-.232-3.502-.549-.78-1.774-1.71-4.503-1.71zM9.406 40.926c-.877-1.98-1.637-4.942-1.685-9.28h14.568c-.106 9.357-3.594 12.347-4.282 12.844H12c-.374-.263-1.544-1.224-2.567-3.504a.733.733 0 00-.026-.06zM3.39 35.874c0-.691.263-1.25.78-1.66.534-.422 1.344-.674 2.358-.744.18 2.977.703 5.268 1.35 7.013-2.557-.47-4.488-2.712-4.488-4.61zM9.06 59.69c-.12.073-.672.073-1.205.073H6.32c-.534 0-1.085 0-1.19-.06-.072-.105-.093-.51-.098-1.016h4.111c-.005.504-.022.908-.083 1.003zm41.796 0c-.12.073-.673.073-1.206.073h-1.536c-.533 0-1.085 0-1.19-.06-.072-.105-.093-.51-.098-1.016h4.114c-.006.504-.023.908-.084 1.002z" ></path>
    <path d="M42.526 9.703a.623.623 0 00.628-.618V6.76a.623.623 0 00-.628-.619.623.623 0 00-.629.619v2.325c0 .341.281.618.629.618zm5.808 0a.623.623 0 00.628-.618V6.76a.623.623 0 00-.628-.619.623.623 0 00-.629.619v2.325c0 .341.282.618.629.618zm-2.904 0a.623.623 0 00.628-.618V6.76a.623.623 0 00-.628-.619.623.623 0 00-.629.619v2.325c0 .341.281.618.629.618z" ></path>
    <path d="M54.372 1H1.628A.624.624 0 001 1.619v13.83c0 .341.281.618.628.618h3.836l.803 2.425c.003.01.01.017.014.026.01.025.023.046.035.068a.631.631 0 00.138.174c.039.034.08.06.125.083.022.011.04.023.063.032a.64.64 0 00.222.044h16.058a.627.627 0 00.222-.044c.023-.009.041-.02.063-.031a.63.63 0 00.18-.137.641.641 0 00.083-.12c.013-.023.026-.044.036-.069.003-.009.01-.016.014-.026l.801-2.425h12.937c1.73 0 2.928.407 3.468 1.175.562.799.292 1.84.081 2.388-.002.004 0 .009-.002.013l-.007.011L32.44 44.49H19.836c1.508-1.693 3.75-5.541 3.714-13.463v-.003c0-.05-.017-.092-.029-.138-.008-.034-.007-.07-.02-.101-.02-.045-.053-.08-.083-.119-.018-.025-.03-.055-.052-.077-.037-.036-.084-.06-.13-.086-.024-.015-.043-.036-.07-.047a.63.63 0 00-.244-.049H7.088a.63.63 0 00-.245.05c-.026.01-.046.031-.07.046-.045.026-.092.05-.129.086-.023.022-.035.052-.053.077-.029.039-.062.074-.081.119-.014.03-.014.067-.022.1-.011.046-.028.09-.029.14v.002c-.002.413.004.813.014 1.205-1.3.084-2.338.424-3.09 1.018-.818.647-1.25 1.554-1.25 2.623 0 2.644 2.72 5.692 6.294 5.919.585 1.227 1.212 2.097 1.746 2.697H1.628a.623.623 0 00-.628.619v12.961c0 .342.281.619.628.619h2.15c.043 1.97.378 2.312 2.54 2.312h1.536c2.163 0 2.498-.342 2.54-2.312h35.18c.042 1.97.377 2.312 2.54 2.312h1.536c2.163 0 2.499-.342 2.54-2.312h2.182a.623.623 0 00.628-.619V1.62a.624.624 0 00-.628-.62zM22.467 17.683H7.32l-.535-1.615H23l-.535 1.615zm14.792-2.853H2.257V2.237h51.486v55.215H2.257V45.728h30.637a.65.65 0 00.222-.044.663.663 0 00.065-.033.576.576 0 00.262-.256c.013-.023.026-.042.036-.067.004-.009.01-.015.013-.024l8.5-25.26.002-.002c.502-1.33.42-2.572-.232-3.502-.549-.78-1.774-1.71-4.503-1.71zM9.406 40.926c-.877-1.98-1.637-4.942-1.685-9.28h14.568c-.106 9.357-3.594 12.347-4.282 12.844H12c-.374-.263-1.544-1.224-2.567-3.504a.733.733 0 00-.026-.06zM3.39 35.874c0-.691.263-1.25.78-1.66.534-.422 1.344-.674 2.358-.744.18 2.977.703 5.268 1.35 7.013-2.557-.47-4.488-2.712-4.488-4.61zM9.06 59.69c-.12.073-.672.073-1.205.073H6.32c-.534 0-1.085 0-1.19-.06-.072-.105-.093-.51-.098-1.016h4.111c-.005.504-.022.908-.083 1.003zm41.796 0c-.12.073-.673.073-1.206.073h-1.536c-.533 0-1.085 0-1.19-.06-.072-.105-.093-.51-.098-1.016h4.114c-.006.504-.023.908-.084 1.002z"  stroke-width=".6"></path>
    <path d="M42.526 9.703a.623.623 0 00.628-.618V6.76a.623.623 0 00-.628-.619.623.623 0 00-.629.619v2.325c0 .341.281.618.629.618zm5.808 0a.623.623 0 00.628-.618V6.76a.623.623 0 00-.628-.619.623.623 0 00-.629.619v2.325c0 .341.282.618.629.618zm-2.904 0a.623.623 0 00.628-.618V6.76a.623.623 0 00-.628-.619.623.623 0 00-.629.619v2.325c0 .341.281.618.629.618z"  stroke-width=".6"></path>
  </symbol>
</svg>