<svg width="60" height="60" viewBox="0 0 60 60" fill="none" xmlns="http://www.w3.org/2000/svg">
<path d="M59.909 36.5826L50.058 15.0886L52.447 13.8996L51.553 12.1096L49.224 13.2696L48.909 12.5826C48.8292 12.4085 48.7011 12.2611 48.54 12.1577C48.3789 12.0543 48.1915 11.9994 48 11.9994C47.8086 11.9994 47.6211 12.0543 47.46 12.1577C47.2989 12.2611 47.1708 12.4085 47.091 12.5826L46.81 13.1966C45.115 12.4093 43.2689 12.0008 41.4 11.9996H33V9.99956H35V7.99956H33.281L34 5.12256C34.1519 4.51473 34.1633 3.88027 34.0333 3.26738C33.9032 2.6545 33.6353 2.0793 33.2497 1.58549C32.8641 1.09168 32.371 0.692237 31.8079 0.417512C31.2448 0.142786 30.6265 0 30 0C29.3735 0 28.7552 0.142786 28.1921 0.417512C27.629 0.692237 27.136 1.09168 26.7504 1.58549C26.3648 2.0793 26.0968 2.6545 25.9668 3.26738C25.8368 3.88027 25.8481 4.51473 26 5.12256L26.719 7.99956H25V9.99956H27V11.9996H18.605C16.7342 12.0011 14.8863 12.4106 13.19 13.1996L12.909 12.5856C12.8292 12.4115 12.7011 12.2641 12.54 12.1607C12.3789 12.0573 12.1915 12.0024 12 12.0024C11.8086 12.0024 11.6211 12.0573 11.46 12.1607C11.2989 12.2641 11.1708 12.4115 11.091 12.5856L10.776 13.2726L8.44701 12.1076L7.55302 13.8996L9.94202 15.0936L0.0910153 36.5826C0.0302882 36.7132 -0.000788184 36.8556 1.51882e-05 36.9996C0.00213255 38.8554 0.740311 40.6347 2.05261 41.947C3.3649 43.2593 5.14415 43.9974 7.00002 43.9996H17C18.8559 43.9974 20.6351 43.2593 21.9474 41.947C23.2597 40.6347 23.9979 38.8554 24 36.9996C23.9976 36.8559 23.9634 36.7145 23.9 36.5856L14.022 15.0106C15.4579 14.3441 17.022 13.9991 18.605 13.9996H27V50.5856L23.586 53.9996H20C18.6744 54.0012 17.4036 54.5284 16.4662 55.4658C15.5289 56.4031 15.0016 57.674 15 58.9996C15 59.2648 15.1054 59.5191 15.2929 59.7067C15.4804 59.8942 15.7348 59.9996 16 59.9996H44C44.2652 59.9996 44.5196 59.8942 44.7071 59.7067C44.8947 59.5191 45 59.2648 45 58.9996C44.9984 57.674 44.4711 56.4031 43.5338 55.4658C42.5965 54.5284 41.3256 54.0012 40 53.9996H36.414L33 50.5856V13.9996H41.4C42.983 13.9991 44.5471 14.3441 45.983 15.0106L36.091 36.5826C36.0303 36.7132 35.9992 36.8556 36 36.9996C36.0021 38.8554 36.7403 40.6347 38.0526 41.947C39.3649 43.2593 41.1441 43.9974 43 43.9996H53C54.8559 43.9974 56.6351 43.2593 57.9474 41.947C59.2597 40.6347 59.9979 38.8554 60 36.9996C59.9976 36.8559 59.9634 36.7145 59.9 36.5856L59.909 36.5826ZM17 41.9996H7.00002C5.84776 41.9983 4.73119 41.5997 3.83858 40.8711C2.94597 40.1424 2.33194 39.1282 2.10002 37.9996H21.9C21.6681 39.1282 21.0541 40.1424 20.1614 40.8711C19.2688 41.5997 18.1523 41.9983 17 41.9996ZM21.442 35.9996H2.55802L11.744 15.9586C11.9117 16.0036 12.0883 16.0036 12.256 15.9586L21.442 35.9996ZM28.327 2.81556C28.5324 2.57189 28.7885 2.37602 29.0775 2.24166C29.3665 2.10729 29.6813 2.03768 30 2.03768C30.3187 2.03768 30.6335 2.10729 30.9225 2.24166C31.2115 2.37602 31.4676 2.57189 31.673 2.81556C31.8726 3.06943 32.0112 3.3657 32.0783 3.68157C32.1454 3.99744 32.1392 4.3245 32.06 4.63756L31.219 7.99956H28.781L27.94 4.63756C27.8609 4.3245 27.8546 3.99744 27.9217 3.68157C27.9888 3.3657 28.1275 3.06943 28.327 2.81556ZM29 11.9996V9.99956H31V11.9996H29ZM31 13.9996V49.9996H29V13.9996H31ZM40 55.9996C40.6203 56.0003 41.2251 56.1929 41.7316 56.551C42.2381 56.9091 42.6214 57.4151 42.829 57.9996H17.171C17.3786 57.4151 17.7619 56.9091 18.2684 56.551C18.7749 56.1929 19.3797 56.0003 20 55.9996H40ZM33.586 53.9996H26.414L28.414 51.9996H31.586L33.586 53.9996ZM47.742 15.9616C47.9071 16.0197 48.0883 16.0121 48.248 15.9406L57.442 35.9996H38.558L47.742 15.9616ZM53 41.9996H43C41.8478 41.9983 40.7312 41.5997 39.8386 40.8711C38.946 40.1424 38.3319 39.1282 38.1 37.9996H57.9C57.6681 39.1282 57.0541 40.1424 56.1614 40.8711C55.2688 41.5997 54.1523 41.9983 53 41.9996Z" fill="#FF6D2A"/>
</svg>
