<svg width="57" height="60" viewBox="0 0 57 60" fill="none" xmlns="http://www.w3.org/2000/svg">
<path d="M29.5733 51.5461H26.8615V46.1327C26.8615 45.8603 26.7533 45.599 26.5606 45.4064C26.368 45.2137 26.1067 45.1055 25.8343 45.1055H4.75597C4.48354 45.1055 4.22226 45.2137 4.02963 45.4064C3.83699 45.599 3.72876 45.8603 3.72876 46.1327V51.5461H1.02721C0.754775 51.5461 0.493501 51.6543 0.300862 51.8469C0.108224 52.0396 0 52.3009 0 52.5733V58.9728C0 59.2452 0.108224 59.5065 0.300862 59.6991C0.493501 59.8918 0.754775 60 1.02721 60H29.5733C29.8457 60 30.107 59.8918 30.2997 59.6991C30.4923 59.5065 30.6005 59.2452 30.6005 58.9728V52.5733C30.6005 52.3009 30.4923 52.0396 30.2997 51.8469C30.107 51.6543 29.8457 51.5461 29.5733 51.5461ZM5.78318 47.1599H24.8071V51.5461H5.78318V47.1599ZM28.5461 57.9045H2.05441V53.6005H28.5461V57.9045ZM55.6438 48.2796L30.6724 23.4109L35.5722 18.5111L36.0755 19.0247C36.268 19.216 36.5283 19.3234 36.7997 19.3234C37.0711 19.3234 37.3314 19.216 37.5239 19.0247L41.7354 14.7926C41.8325 14.6975 41.9097 14.584 41.9626 14.4588C42.0155 14.3336 42.043 14.1992 42.0436 14.0633C42.0397 13.7923 41.929 13.5339 41.7354 13.3442L28.7105 0.298704C28.518 0.107386 28.2576 0 27.9863 0C27.7149 0 27.4545 0.107386 27.2621 0.298704L23.03 4.52053C22.9337 4.61602 22.8573 4.72963 22.8051 4.8548C22.753 4.97998 22.7261 5.11424 22.7261 5.24984C22.7261 5.38545 22.753 5.51971 22.8051 5.64488C22.8573 5.77006 22.9337 5.88367 23.03 5.97916L23.5333 6.48249L8.33065 21.6954L7.81705 21.1818C7.62459 20.9905 7.36424 20.8831 7.09287 20.8831C6.82149 20.8831 6.56115 20.9905 6.36869 21.1818L2.13659 25.4139C2.04031 25.5094 1.96389 25.623 1.91174 25.7482C1.85959 25.8734 1.83275 26.0076 1.83275 26.1432C1.83275 26.2788 1.85959 26.4131 1.91174 26.5383C1.96389 26.6635 2.04031 26.7771 2.13659 26.8726L15.1821 39.9181C15.2781 40.0133 15.3919 40.0886 15.5171 40.1397C15.6422 40.1909 15.7763 40.2168 15.9114 40.216C16.0466 40.2168 16.1806 40.1909 16.3058 40.1397C16.4309 40.0886 16.5448 40.0133 16.6408 39.9181L20.8626 35.686C20.9596 35.5909 21.0369 35.4774 21.0898 35.3522C21.1427 35.227 21.1702 35.0926 21.1707 34.9567C21.1702 34.8208 21.1427 34.6863 21.0898 34.5611C21.0369 34.436 20.9596 34.3225 20.8626 34.2274L20.3593 33.724L25.3001 28.8243L50.2613 53.6929C50.6164 54.0504 51.0386 54.3343 51.5036 54.5284C51.9686 54.7225 52.4674 54.823 52.9713 54.824C53.4752 54.8251 53.9744 54.7267 54.4402 54.5346C54.9061 54.3425 55.3294 54.0604 55.6861 53.7044C56.0427 53.3484 56.3257 52.9256 56.5187 52.4601C56.7117 51.9946 56.811 51.4956 56.8109 50.9917C56.8108 50.4878 56.7113 49.9889 56.518 49.5235C56.3248 49.0581 56.0417 48.6354 55.6849 48.2796H55.6438ZM15.9114 37.7404L4.31427 26.1432L7.098 23.3595L18.6849 34.9567L15.9114 37.7404ZM27.9914 2.47638L39.5783 14.0633L36.8048 16.847L25.711 5.76345L25.2077 5.24984L27.9914 2.47638ZM24.992 7.94113L34.1136 17.0627L18.9109 32.2654L9.77902 23.1335L24.992 7.94113ZM54.1852 52.2446C53.8467 52.5692 53.3958 52.7504 52.9269 52.7504C52.4579 52.7504 52.007 52.5692 51.6685 52.2446L26.7074 27.3759L29.2241 24.8387L54.1852 49.7074C54.3507 49.8725 54.4821 50.0686 54.5717 50.2845C54.6613 50.5004 54.7074 50.7319 54.7074 50.9657C54.7074 51.1995 54.6613 51.431 54.5717 51.6469C54.4821 51.8628 54.3507 52.059 54.1852 52.224V52.2446Z" fill="#FF6D2A"/>
</svg>
