<svg style="display: none;">
  <symbol viewBox="0 0 57 60" xmlns="http://www.w3.org/2000/svg" id="law_1">
    <path d="M29.573 51.546h-2.712v-5.413a1.027 1.027 0 0 0-1.027-1.028H4.756a1.027 1.027 0 0 0-1.027 1.028v5.413H1.027A1.027 1.027 0 0 0 0 52.573v6.4A1.027 1.027 0 0 0 1.027 60h28.546a1.027 1.027 0 0 0 1.027-1.027v-6.4a1.028 1.028 0 0 0-1.027-1.027zM5.783 47.16h19.024v4.386H5.783V47.16zm22.763 10.745H2.054V53.6h26.492v4.304zm27.098-9.625L30.672 23.41l4.9-4.899.503.514a1.027 1.027 0 0 0 1.449 0l4.211-4.232a1.026 1.026 0 0 0 .309-.73 1.027 1.027 0 0 0-.309-.719L28.711.3a1.027 1.027 0 0 0-1.449 0L23.03 4.52a1.028 1.028 0 0 0 0 1.458l.503.503L8.331 21.695l-.514-.513a1.027 1.027 0 0 0-1.448 0l-4.232 4.232a1.027 1.027 0 0 0 0 1.459l13.045 13.045a1.027 1.027 0 0 0 .73.298 1.026 1.026 0 0 0 .729-.298l4.222-4.232a1.028 1.028 0 0 0 .308-.73 1.026 1.026 0 0 0-.308-.729l-.504-.503 4.941-4.9 24.961 24.869a3.831 3.831 0 1 0 5.424-5.413h-.041zM15.91 37.74L4.314 26.143l2.784-2.784 11.587 11.598-2.774 2.783zM27.99 2.476l11.587 11.587-2.773 2.784L25.71 5.763l-.503-.513 2.783-2.774zm-2.999 5.465l9.122 9.122L18.91 32.265l-9.132-9.131L24.992 7.94zm29.193 44.304a1.818 1.818 0 0 1-2.517 0l-24.96-24.87 2.516-2.536 24.961 24.868a1.778 1.778 0 0 1 0 2.517v.02z"></path>
  </symbol>
  <symbol viewBox="0 0 60 60" xmlns="http://www.w3.org/2000/svg" id="law_2">
    <path d="M59.909 36.583l-9.851-21.494 2.389-1.19-.894-1.79-2.329 1.16-.315-.686a1 1 0 0 0-1.818 0l-.281.614A12.862 12.862 0 0 0 41.4 12H33v-2h2V8h-1.719L34 5.123a4.123 4.123 0 1 0-8 0L26.719 8H25v2h2v2h-8.395c-1.87.001-3.719.41-5.415 1.2l-.281-.614a1 1 0 0 0-1.818 0l-.315.687-2.329-1.165-.894 1.792 2.389 1.194L.091 36.583A.976.976 0 0 0 0 37a7.008 7.008 0 0 0 7 7h10a7.008 7.008 0 0 0 7-7 .975.975 0 0 0-.1-.414L14.022 15.01c1.436-.667 3-1.012 4.583-1.011H27v36.586L23.586 54H20a5.006 5.006 0 0 0-5 5 1 1 0 0 0 1 1h28a1 1 0 0 0 1-1 5.006 5.006 0 0 0-5-5h-3.586L33 50.586V14h8.4c1.583 0 3.147.344 4.583 1.01l-9.892 21.573A.977.977 0 0 0 36 37a7.008 7.008 0 0 0 7 7h10a7.008 7.008 0 0 0 7-7 .975.975 0 0 0-.1-.414l.009-.003zM17 42H7a5.009 5.009 0 0 1-4.9-4h19.8a5.008 5.008 0 0 1-4.9 4zm4.442-6H2.558l9.186-20.041a.988.988 0 0 0 .512 0l9.186 20.04zm6.885-33.184a2.188 2.188 0 0 1 3.346 0 2.11 2.11 0 0 1 .387 1.822L31.219 8h-2.438l-.841-3.362a2.112 2.112 0 0 1 .387-1.822zM29 12v-2h2v2h-2zm2 2v36h-2V14h2zm9 42a3.005 3.005 0 0 1 2.829 2H17.171A3.006 3.006 0 0 1 20 56h20zm-6.414-2h-7.172l2-2h3.172l2 2zm14.156-38.038c.165.058.346.05.506-.021L57.442 36H38.558l9.184-20.038zM53 42H43a5.009 5.009 0 0 1-4.9-4h19.8a5.008 5.008 0 0 1-4.9 4z"></path>
  </symbol>
</svg>