<svg width="40" height="40" viewBox="0 0 40 40" fill="none" xmlns="http://www.w3.org/2000/svg">
<path fill-rule="evenodd" clip-rule="evenodd" d="M20 40C31.0457 40 40 31.0457 40 20C40 8.95431 31.0457 0 20 0C8.95431 0 0 8.95431 0 20C0 31.0457 8.95431 40 20 40Z" fill="#37AEE2"/>
<path fill-rule="evenodd" clip-rule="evenodd" d="M16.3332 29.1666C15.6852 29.1666 15.7953 28.922 15.5719 28.3051L13.6665 22.0343L28.3332 13.3333" fill="#C8DAEA"/>
<path fill-rule="evenodd" clip-rule="evenodd" d="M16.3335 29.1666C16.8335 29.1666 17.0544 28.938 17.3335 28.6666L20.0002 26.0736L16.6738 24.0678" fill="#A9C9DD"/>
<path fill-rule="evenodd" clip-rule="evenodd" d="M16.673 24.0683L24.733 30.0232C25.6528 30.5306 26.3166 30.2679 26.5457 29.1692L29.8265 13.7087C30.1624 12.362 29.3132 11.7512 28.4333 12.1507L9.1683 19.5792C7.85329 20.1067 7.86095 20.8403 8.9286 21.1672L13.8724 22.7103L25.3179 15.4894C25.8583 15.1618 26.3542 15.3379 25.9471 15.6992" fill="url(#paint0_linear)"/>
<defs>
<linearGradient id="paint0_linear" x1="17.496" y1="21.2285" x2="19.633" y2="28.141" gradientUnits="userSpaceOnUse">
<stop stop-color="#EFF7FC"/>
<stop offset="1" stop-color="white"/>
</linearGradient>
</defs>
</svg>
