<svg width="15" height="15" viewBox="0 0 15 15" fill="none" xmlns="http://www.w3.org/2000/svg">
<path d="M3.58696 3.21688V0.903614C3.58696 0.39759 3.94565 0 4.40217 0C4.8587 0 5.21739 0.39759 5.21739 0.903614V3.21688C5.21739 3.7229 4.8587 4.12049 4.40217 4.12049C3.94565 4.12049 3.58696 3.7229 3.58696 3.21688ZM10.5978 4.12049C11.0543 4.12049 11.413 3.7229 11.413 3.21688V0.903614C11.413 0.39759 11.0543 0 10.5978 0C10.1413 0 9.78261 0.39759 9.78261 0.903614V3.21688C9.78261 3.7229 10.1413 4.12049 10.5978 4.12049ZM15 2.06022V14.2771C15 14.6747 14.7065 15 14.3478 15H0.652174C0.293478 15 0 14.6747 0 14.2771V2.06022C0 1.66263 0.293478 1.26506 0.652174 1.26506H2.16849C2.52718 1.26506 2.82066 1.59036 2.82066 1.98795C2.82066 2.38554 2.52718 2.71084 2.16849 2.71084H1.28805V5.78313H13.6794V2.71084H12.8152C12.4565 2.71084 12.163 2.38554 12.163 1.98795C12.163 1.59036 12.4565 1.26506 12.8152 1.26506H14.3315C14.7065 1.26506 15 1.66263 15 2.06022ZM13.6957 13.5542V7.04819H1.30435V13.5542H13.6957ZM6.47282 2.71084H8.52718C8.88588 2.71084 9.17936 2.38554 9.17936 1.98795C9.17936 1.59036 8.88588 1.26506 8.52718 1.26506H6.47282C6.11412 1.26506 5.82064 1.59036 5.82064 1.98795C5.82064 2.38554 6.11412 2.71084 6.47282 2.71084Z" fill="#FF6D2A"/>
</svg>
