<svg width="66" height="60" viewBox="0 0 66 60" fill="none" xmlns="http://www.w3.org/2000/svg">
<path d="M22.967 26.7033C23.2967 26.8132 23.6264 27.033 23.8462 27.3627L25.3846 28.9011C26.7033 30.2198 26.7033 32.3077 25.3846 33.5165L17.5824 41.3187C16.2637 42.6374 14.1758 42.6374 12.967 41.3187L11.4286 39.7803C10.1099 38.4616 10.1099 36.3737 11.4286 35.1649L15.8242 30.7693C15.4945 29.8902 15.3846 29.011 15.3846 28.1319L9.89012 33.6264C7.69232 35.7143 7.69232 39.2308 9.89012 41.3187L11.4286 42.8572C13.5165 44.9451 17.033 44.9451 19.2308 42.8572L27.033 35.055C29.1209 32.9671 29.1209 29.4506 27.033 27.2528L25.4945 25.7143C25.2747 25.4946 24.9451 25.1649 24.6154 25.055L22.967 26.7033Z" fill="#FF6D2A"/>
<path d="M26.9231 16.4835L19.1209 24.2857C17.033 26.3736 17.033 29.8901 19.1209 32.0879L20.6594 33.6264C20.8791 33.8461 21.2088 34.1758 21.5385 34.2857L23.1868 32.6373C22.8572 32.5275 22.5275 32.3077 22.3077 31.978L20.7692 30.4395C19.4506 29.1209 19.4506 27.0329 20.7692 25.8242L28.5714 18.022C29.8901 16.7033 31.978 16.7033 33.1868 18.022L34.7253 19.5604C36.044 20.8791 36.044 22.967 34.7253 24.1758L30.3297 28.5714C30.6594 29.4505 30.7692 30.3296 30.7692 31.2088L36.2638 25.7143C38.3517 23.6264 38.3517 20.1099 36.2638 17.9121L34.7253 16.4835C32.6374 14.2857 29.1209 14.2857 26.9231 16.4835Z" fill="#FF6D2A"/>
<path d="M60.4396 0H20.8791C17.8022 0 15.3846 2.41758 15.3846 5.49451V10.989H5.49451C2.41758 10.989 0 13.4066 0 16.4835V42.8571C0 45.9341 2.41758 48.3517 5.49451 48.3517H19.7802V60L30.4396 48.3517H45.0549C48.1319 48.3517 50.5495 45.9341 50.5495 42.8571V37.3626H60.4396C63.5165 37.3626 65.9341 34.9451 65.9341 31.8681V5.49451C65.9341 2.41758 63.5165 0 60.4396 0ZM48.3517 42.8571C48.3517 44.7253 46.9231 46.1538 45.0549 46.1538H29.5604L21.978 54.2857V46.1538H5.49451C3.62637 46.1538 2.1978 44.7253 2.1978 42.8571V16.4835C2.1978 14.6154 3.62637 13.1868 5.49451 13.1868H45.0549C46.9231 13.1868 48.3517 14.6154 48.3517 16.4835V42.8571ZM63.7363 31.8681C63.7363 33.7363 62.3077 35.1648 60.4396 35.1648H50.5495V16.4835C50.5495 13.4066 48.1319 10.989 45.0549 10.989H17.5824V5.49451C17.5824 3.62637 19.011 2.1978 20.8791 2.1978H60.4396C62.3077 2.1978 63.7363 3.62637 63.7363 5.49451V31.8681Z" fill="#FF6D2A"/>
</svg>
