<svg width="80" height="71" viewBox="0 0 80 71" fill="none" xmlns="http://www.w3.org/2000/svg">
<path d="M69.675 70.1998H9.69626C4.34953 70.1998 0 65.8556 0 60.517V9.7319C0 4.38652 4.34953 0.0369873 9.69626 0.0369873H69.675C75.0203 0.0369873 79.3699 4.38652 79.3699 9.7319V60.5157C79.3699 65.8556 75.0203 70.1998 69.675 70.1998ZM9.69626 3.08936C6.03314 3.08936 3.05373 6.06877 3.05373 9.7319V60.5157C3.05373 64.172 6.03314 67.146 9.69626 67.146H69.675C73.3367 67.146 76.3175 64.172 76.3175 60.5157V9.7319C76.3175 6.06877 73.3381 3.08936 69.675 3.08936H9.69626Z" fill="#213CC4"/>
<path d="M32.0921 7.24298C31.2827 7.24839 30.4787 7.6024 29.8855 8.2118C29.2978 8.81714 28.9694 9.62246 28.987 10.4237C29.0248 12.06 30.4341 13.4423 32.0678 13.4423C32.8798 13.4423 33.6865 13.0924 34.281 12.4803C34.8674 11.8763 35.1904 11.0737 35.1674 10.2805C35.1309 8.6631 33.6946 7.24298 32.0921 7.24298Z" fill="#FF6D2A"/>
<path d="M23.2055 7.2511C21.5908 7.2511 20.2072 8.63203 20.1828 10.2589C20.1599 11.121 20.4693 11.9249 21.0517 12.5249C21.6219 13.1099 22.3894 13.4329 23.2163 13.4329H23.2379C24.9458 13.4207 26.243 12.1019 26.2538 10.367C26.2673 8.66716 24.9648 7.30109 23.2055 7.2511Z" fill="#FF6D2A"/>
<path d="M14.3429 7.25244C13.5538 7.25244 12.7647 7.597 12.1769 8.19694C11.585 8.80228 11.2554 9.60624 11.2716 10.3994C11.2959 12.0154 12.7309 13.4315 14.3375 13.4315H14.3577C15.1698 13.4315 15.9778 13.0815 16.5764 12.4695C17.1615 11.8722 17.4871 11.0818 17.4709 10.3048C17.4466 8.69148 16.0102 7.2646 14.3429 7.25244Z" fill="#FF6D2A"/>
<path d="M74.5841 18.2066H69.9819C69.3414 18.2066 68.8212 17.6864 68.8212 17.046V12.0397L55.5726 12.0276L55.6212 17.0946C55.6212 17.7175 55.1334 18.2066 54.5105 18.2066H4.78613V16.9852H54.3997V11.9789C54.3997 11.3331 54.9254 10.8061 55.5726 10.8061H68.809C69.4887 10.8061 70.0427 11.3587 70.0427 12.0397V17.046L74.5841 16.9852V18.2066Z" fill="#213CC4"/>
<path d="M59.3628 49.0155C59.3533 48.871 59.3385 48.7291 59.3087 48.5926C58.7696 45.9942 56.7063 44.3147 54.0498 44.3093L48.9977 44.3066L40.458 44.3079V40.5016H39.142V44.3079L30.6848 44.3066C28.9498 44.3066 27.2149 44.3066 25.4799 44.3106C23.2342 44.3174 21.2506 45.7213 20.544 47.8049C20.4169 48.1737 20.3507 48.5642 20.2751 49.0128L20.248 49.2277H21.5425L21.5695 49.0696C21.9357 46.9414 23.5018 45.62 25.6569 45.62L29.6362 45.6213L39.1744 45.62V49.2209H40.4756V45.6943L40.8418 45.6416C40.9161 45.6294 40.962 45.624 41.008 45.624L48.9571 45.6173C50.7529 45.6173 52.5513 45.62 54.3457 45.6267C56.1104 45.6348 57.7684 47.0928 58.044 48.8777L58.098 49.2196H59.3763L59.3628 49.0155Z" fill="#213CC4"/>
<path d="M45.2818 50.1181C41.6457 50.1073 38.0123 50.1073 34.3938 50.1235C32.3534 50.1235 31.2198 51.2612 31.1995 53.3232C31.1819 54.8676 31.1873 56.4175 31.1927 57.9646C31.2022 60.6684 32.1197 61.5858 34.8234 61.6034L43.1779 61.6196C43.863 61.6196 44.5413 61.6169 45.221 61.6101C47.2991 61.5885 48.4085 60.4994 48.4287 58.4564C48.4571 56.5174 48.4571 54.8122 48.4287 53.2475C48.4071 51.2694 47.2613 50.1289 45.2818 50.1181ZM45.2723 53.2083C45.2953 53.2083 45.3183 53.2083 45.3399 53.2097C45.3412 53.234 45.3412 53.2624 45.3412 53.2921C45.3683 54.8338 45.3683 56.5093 45.3412 58.4186C45.3412 58.4497 45.3412 58.4835 45.3399 58.5172C45.2966 58.5199 45.2453 58.5213 45.1885 58.5213C44.5197 58.5294 43.8522 58.5307 43.182 58.5307L39.1905 58.5145L36.2665 58.5213L34.8464 58.5145C34.6045 58.5132 34.4262 58.5064 34.2965 58.4983C34.2884 58.37 34.283 58.1943 34.283 57.9538C34.2762 56.4229 34.2708 54.8865 34.2897 53.3556C34.2897 53.3029 34.2911 53.2556 34.2938 53.2137C34.3262 53.2124 34.3613 53.2124 34.4019 53.2124C38.0231 53.1948 41.6443 53.1935 45.2723 53.2083Z" fill="#FF6D2A"/>
<path d="M25.8743 50.1181C22.2314 50.1073 18.6048 50.1087 14.9836 50.1235C12.9446 50.1235 11.8109 51.2612 11.7893 53.3232C11.7731 54.7879 11.7785 56.258 11.7826 57.7295V57.9646C11.792 60.6683 12.7095 61.5858 15.4132 61.6034L23.7691 61.6196C24.4542 61.6196 25.1325 61.6169 25.8121 61.6101C27.8889 61.5885 28.9983 60.4994 29.0199 58.4564C29.0469 56.5174 29.0469 54.8122 29.0199 53.2475C28.9983 51.2693 27.8525 50.1289 25.8743 50.1181ZM25.931 58.4172C25.931 58.4483 25.931 58.4821 25.9283 58.5159C25.8864 58.5186 25.8365 58.5199 25.7797 58.5199C25.1095 58.528 24.4407 58.5294 23.7718 58.5294L19.779 58.5132L16.8563 58.5199L15.4362 58.5132C15.1943 58.5118 15.016 58.5051 14.8849 58.4969C14.8768 58.3686 14.8714 58.1929 14.8714 57.9511C14.8647 56.4188 14.8606 54.8852 14.8782 53.357C14.8782 53.3029 14.8809 53.2556 14.8836 53.2137C14.9146 53.2124 14.9511 53.2124 14.9917 53.2124C18.6156 53.1948 22.2355 53.1935 25.8635 53.207C25.8864 53.207 25.9108 53.207 25.931 53.2083C25.9324 53.2326 25.9324 53.261 25.9324 53.2907C25.9594 54.8325 25.9594 56.508 25.931 58.4172Z" fill="#FF6D2A"/>
<path d="M67.2616 53.2475C67.2386 51.2694 66.0928 50.1289 64.1146 50.1181C60.4799 50.1073 56.8451 50.1073 53.2253 50.1235C51.1849 50.1235 50.0513 51.2612 50.031 53.3232C50.0148 54.7406 50.0202 56.1648 50.0242 57.5876L50.0256 57.9646C50.0337 60.6684 50.9498 61.5858 53.6563 61.6034L62.0108 61.6196C62.6959 61.6196 63.3742 61.6169 64.0538 61.6101C66.132 61.5885 67.2413 60.4994 67.2616 58.4564C67.2886 56.5174 67.2886 54.8109 67.2616 53.2475ZM64.1727 58.4172C64.1727 58.4524 64.1727 58.4848 64.1714 58.5159C64.1281 58.5186 64.0768 58.5199 64.02 58.5199C63.3512 58.528 62.6837 58.5294 62.0135 58.5294L58.022 58.5132L55.098 58.5199L53.6779 58.5132C53.436 58.5118 53.2577 58.5051 53.1266 58.497C53.1185 58.3686 53.1131 58.1943 53.1131 57.9551L53.1118 57.5822C53.1064 56.1729 53.1023 54.7636 53.1199 53.3543C53.1199 53.3016 53.1212 53.2543 53.1239 53.2124C53.1563 53.211 53.1915 53.211 53.2334 53.211C56.856 53.1935 60.4785 53.1921 64.1052 53.2056C64.1281 53.2056 64.1511 53.2056 64.1727 53.207C64.1741 53.2313 64.1741 53.2597 64.1741 53.2894C64.1998 54.8325 64.1998 56.508 64.1727 58.4172Z" fill="#FF6D2A"/>
<path d="M31.4779 39.5233C34.9667 39.553 38.4542 39.5665 41.9416 39.5665C44.0455 39.5665 46.1466 39.5611 48.2504 39.5503C50.8826 39.5355 52.2865 38.1005 52.3162 35.3967C52.3297 33.5456 52.3284 31.6931 52.327 29.8365L52.3243 27.9299C52.3121 24.8559 50.9339 23.4791 47.8586 23.4669C47.0668 23.4602 46.275 23.4588 45.4845 23.4588L39.0041 23.4764L34.0641 23.4642C33.2547 23.4642 32.4454 23.4683 31.6346 23.4764C28.8403 23.5169 27.3972 24.9059 27.3446 27.6057C27.2973 30.2054 27.2973 32.8402 27.3446 35.4427C27.3986 38.0991 28.8282 39.5098 31.4779 39.5233ZM30.4334 35.3873C30.3875 32.824 30.3875 30.2243 30.4334 27.6651C30.451 26.7287 30.4537 26.5855 31.6752 26.5679C32.4764 26.5598 33.2763 26.5558 34.0803 26.5558L39.0109 26.5679L45.4858 26.5504C46.2668 26.5504 47.0492 26.5531 47.8397 26.5585C49.2044 26.5639 49.23 26.5895 49.2355 27.9394L49.2368 29.8433C49.2382 31.6877 49.2395 33.532 49.226 35.3724C49.2165 36.4588 49.1233 36.4601 48.2356 36.4655C42.6578 36.4939 37.0854 36.4844 31.5009 36.4371C30.4929 36.429 30.4537 36.3912 30.4334 35.3873Z" fill="#FF6D2A"/>
</svg>
