<svg width="81" height="70" viewBox="0 0 81 70" fill="none" xmlns="http://www.w3.org/2000/svg">
<path d="M40.1865 57.0498C38.5826 56.9908 37.3405 55.6616 37.3606 54.0282C37.3807 52.4149 38.6804 51.0843 40.2643 51.075C41.8977 51.075 43.188 52.4538 43.1492 54.1743C43.1117 55.7782 41.7315 57.1087 40.1865 57.0498Z" fill="#213CC4"/>
<path d="M73.2805 0H73.0916H71.6177H7.71945C3.46243 0 0 3.46377 0 7.71945V54.3899C0 58.6469 3.46377 62.1094 7.71945 62.1094H73.2805C77.5376 62.1094 81 58.6456 81 54.3899V7.71945C81 3.46243 77.5376 0 73.2805 0ZM77.8525 54.3899C77.8525 56.909 75.7997 58.9618 73.2805 58.9618H7.71945C5.20035 58.9618 3.14754 56.909 3.14754 54.3899V48.2824H77.8511V54.3899H77.8525ZM77.8525 45.1335H3.14754V7.71945C3.14754 5.20035 5.20035 3.14754 7.71945 3.14754H71.6177H73.0916H73.2805C75.7997 3.14754 77.8525 5.20035 77.8525 7.71945V45.1335Z" fill="#213CC4"/>
<path d="M54.0402 66.5728H26.9612V69.7216H54.0402V66.5728Z" fill="#213CC4"/>
<path d="M71.6741 17.3992C69.7044 15.6814 66.8758 15.4041 64.6166 16.7065C64.0378 17.0442 63.5152 17.4689 63.0636 17.9821C61.9006 19.3114 61.4208 20.9957 61.5924 22.625L53.5714 26.6395C51.9219 24.0534 48.5493 23.0471 45.7448 24.4568C44.6956 24.9767 43.8541 25.7793 43.2779 26.728L37.1168 21.3588C38.8762 18.8464 38.5265 15.333 36.1534 13.2762C34.1984 11.5624 31.3684 11.2837 29.1093 12.5861C28.517 12.9211 28.0052 13.362 27.5563 13.8618C26.1547 15.467 25.7433 17.5976 26.2713 19.5123L19.1387 24.1044C17.2119 21.6965 13.7601 21.0613 11.1298 22.7765C8.92293 24.1794 7.86839 26.8124 8.48744 29.3422C8.65896 30.0042 8.92695 30.6272 9.28203 31.1954C11.1164 34.0307 14.8857 34.8521 17.7184 33.0324C19.9105 31.6255 20.9543 28.9764 20.3487 26.4493C20.2348 26.0084 20.0606 25.5689 19.8489 25.1656L26.7563 20.7196C27.0793 21.3695 27.5482 21.9618 28.1378 22.475C30.0928 24.1888 32.9402 24.4568 35.1819 23.165C35.5879 22.9399 35.9484 22.6438 36.2847 22.3289L42.7218 27.9366C42.4016 28.8062 42.3024 29.7522 42.4244 30.717C42.5034 31.3897 42.7058 32.0436 43.0086 32.6439C44.5241 35.648 48.1915 36.8808 51.1957 35.3653C53.5272 34.2116 54.8578 31.6831 54.5134 29.1225C54.4477 28.6615 54.3204 28.218 54.161 27.7812L61.8657 23.9221C62.2007 24.9324 62.7903 25.8624 63.6452 26.5967C65.6002 28.3105 68.4475 28.5784 70.6893 27.2867C71.0953 27.0603 71.4557 26.7655 71.8055 26.4533L71.8537 26.5082C72.0413 26.117 72.3749 25.8155 72.7488 25.5984L72.6242 25.4818C74.3849 22.9533 74.0472 19.4561 71.6741 17.3992ZM15.9858 30.3378C15.3319 30.7492 14.5534 30.91 13.8017 30.7331C13.0326 30.5683 12.3854 30.1167 11.9713 29.4776C11.7918 29.2015 11.6792 28.8933 11.5948 28.5932C11.3027 27.3846 11.7944 26.1344 12.8476 25.4523C13.4868 25.0383 14.2774 24.8949 15.0465 25.0597C15.7862 25.2179 16.4347 25.6694 16.8595 26.326C17.7076 27.6539 17.2963 29.5017 15.9858 30.3378ZM34.3418 19.7817C33.298 20.9729 31.4113 21.0895 30.2322 20.0631C29.8932 19.7669 29.6185 19.381 29.4671 18.9764C29.3478 18.6977 29.2781 18.4002 29.2567 18.0826C29.2473 17.9165 29.2553 17.7396 29.2754 17.5801C29.329 16.9812 29.5541 16.4184 29.9481 15.9668C30.1652 15.7163 30.4171 15.5166 30.7052 15.3545C31.7758 14.7354 33.1157 14.8734 34.0591 15.6854C34.6379 16.1812 34.9903 16.8968 35.0453 17.6833C35.1056 18.4417 34.8563 19.1921 34.3418 19.7817ZM49.766 32.5099C49.0678 32.8516 48.2786 32.9212 47.5591 32.6626C46.8087 32.412 46.2191 31.8988 45.86 31.2115C45.7461 30.9783 45.663 30.7371 45.6416 30.4946L45.6309 30.4772C45.6148 30.4142 45.5947 30.3659 45.5933 30.3056C45.5197 29.8139 45.5813 29.3208 45.7461 28.8947C45.9953 28.218 46.4884 27.6539 47.1557 27.3202C47.8579 26.9638 48.6431 26.9089 49.3935 27.1594C50.1157 27.4033 50.7053 27.9165 51.0617 28.6186C51.7705 30.0363 51.1528 31.8091 49.766 32.5099ZM69.8491 23.902C68.8053 25.0932 66.9213 25.1964 65.7395 24.1834C65.2397 23.7345 64.894 23.1235 64.8002 22.4482C64.7761 22.353 64.7774 22.2793 64.7667 22.1882C64.7493 21.9913 64.7667 21.7715 64.7948 21.5692C64.8685 21.0184 65.0977 20.5026 65.4715 20.0765C65.6859 19.8393 65.9378 19.6396 66.2112 19.4748C67.2818 18.8558 68.6258 18.979 69.5651 19.8058C70.1573 20.3056 70.5111 21.0211 70.5513 21.8037C70.6129 22.5621 70.3623 23.3124 69.8491 23.902Z" fill="#FF6D2A"/>
</svg>
