<svg width="72" height="71" viewBox="0 0 72 71" fill="none" xmlns="http://www.w3.org/2000/svg">
<path d="M35.8091 0C35.005 0 34.3511 0.653889 34.3511 1.45806V23.7878C34.3511 24.592 35.005 25.2447 35.8091 25.2447C36.6133 25.2447 37.2672 24.5908 37.2672 23.7878V1.45806C37.2683 0.655036 36.6133 0 35.8091 0Z" fill="#FF6D2A"/>
<path d="M69.6667 33.9323H47.337C46.5328 33.9323 45.8789 34.5861 45.8789 35.3903C45.8789 36.1945 46.5328 36.8484 47.337 36.8484H69.6656C70.4697 36.8484 71.1236 36.1945 71.1236 35.3903C71.1236 34.5861 70.4697 33.9323 69.6667 33.9323Z" fill="#FF6D2A"/>
<path d="M35.8104 44.9061C35.0062 44.9061 34.3523 45.56 34.3523 46.3642V68.6939C34.3523 69.4981 35.0062 70.152 35.8104 70.152C36.6145 70.152 37.2684 69.4981 37.2684 68.6939V46.3642C37.2684 45.56 36.6134 44.9061 35.8104 44.9061Z" fill="#FF6D2A"/>
<path d="M23.7878 33.9323H1.45806C0.655036 33.9323 0 34.5861 0 35.3903C0 36.1945 0.653889 36.8484 1.45806 36.8484H23.7878C24.592 36.8484 25.2459 36.1945 25.2459 35.3903C25.2459 34.5861 24.592 33.9323 23.7878 33.9323Z" fill="#FF6D2A"/>
<path d="M57.2038 13.8819C52.4018 8.9686 46.1933 5.89762 39.5052 5.02691V7.97515C45.4235 8.82406 50.8726 11.5819 55.1275 15.9147C59.3823 20.2591 62.0289 25.7632 62.7539 31.7045H65.6792C64.953 25.0038 62.0048 18.762 57.2038 13.8819ZM8.45008 39.0842H5.51331C7.33273 52.7861 18.3433 63.6292 32.1232 65.1928V62.256C19.9402 60.7257 10.2248 51.1777 8.45008 39.0842ZM14.3684 13.4346C9.32078 18.3812 6.20506 24.7904 5.44678 31.7033H8.38354C9.1315 25.5728 11.9237 19.9 16.4011 15.5121C20.734 11.2802 26.2164 8.63363 32.1232 7.89599V4.95923C25.4455 5.70833 19.237 8.65542 14.3684 13.4346ZM62.6747 39.0842C60.9104 51.0102 51.4416 60.4687 39.5041 62.1883V65.1365C53.0488 63.3722 63.8139 52.6301 65.6115 39.0854H62.6747V39.0842Z" fill="#213CC4"/>
<path d="M39.5041 17.4543V18.6049C45.8801 20.1238 50.8599 25.2597 52.1666 31.7033H53.2942C51.9658 24.6344 46.4949 19.0064 39.5041 17.4543ZM19.1027 39.0831H17.9636C19.5272 46.0178 25.1105 51.4451 32.1231 52.7953V51.6561C25.7242 50.3392 20.6434 45.404 19.1027 39.0831ZM17.8293 31.7022H18.957C20.2969 25.091 25.512 19.8542 32.122 18.4925V17.3533C24.8982 18.738 19.1922 24.467 17.8293 31.7022ZM52.022 39.0831C50.5261 45.2354 45.6678 50.0822 39.5041 51.5449V52.6955C46.2827 51.1881 51.6308 45.8503 53.1612 39.0831H52.022Z" fill="#213CC4"/>
</svg>
