<svg width="62" height="71" viewBox="0 0 62 71" fill="none" xmlns="http://www.w3.org/2000/svg">
<path d="M31.5441 50.9453H31.4007C30.0161 50.9373 29.166 50.5748 28.8024 49.8372C28.6727 49.5722 28.4353 48.8724 29.0387 48.0774L30.9637 45.5065C31.192 45.2128 31.3227 45.0304 31.3744 44.8916C28.2047 41.59 26.4633 37.2778 26.4633 32.7097C26.4633 23.0194 34.3467 15.1348 44.0382 15.1348C53.7227 15.1348 61.6004 23.0182 61.6004 32.7097C61.6004 42.3931 53.7227 50.2719 44.0382 50.2719C42.1361 50.2719 40.2685 49.9679 38.4869 49.3691C38.4055 49.3875 38.3538 49.4093 38.3275 49.4253C37.6242 49.7546 36.999 50.0023 36.3371 50.2238C36.1054 50.296 35.892 50.3522 35.6775 50.4073L35.3803 50.4865C34.2618 50.7916 32.9724 50.9453 31.5441 50.9453ZM44.0393 17.6161C35.7165 17.6161 28.9446 24.388 28.9446 32.7108C28.9446 36.7271 30.514 40.5151 33.3624 43.3773L33.5127 43.5276L33.6045 43.7192C33.8901 44.3203 33.9372 44.9846 33.7399 45.6407C33.546 46.2017 33.2546 46.5998 32.9472 46.9956L31.8585 48.4617C32.938 48.4422 33.9016 48.3183 34.7241 48.0934L35.058 48.0051C35.2289 47.9615 35.401 47.9179 35.5731 47.864C36.1272 47.6793 36.6663 47.4648 37.2032 47.2158C37.5095 47.0426 37.9466 46.9176 38.4628 46.8728L38.8494 46.8682L39.0502 46.9394C40.6459 47.5049 42.3254 47.7917 44.0404 47.7917C52.3564 47.7917 59.1225 41.0268 59.1225 32.7097C59.1214 24.388 52.3553 17.6161 44.0393 17.6161Z" fill="#FF6D2A"/>
<path d="M44.0943 24.2688C44.0943 23.3602 44.0943 22.4757 44.0943 21.5695C44.661 21.5695 45.2071 21.5695 45.7887 21.5695C45.7887 22.431 45.7887 23.2925 45.7887 24.1403C46.4587 24.2539 47.1045 24.3181 47.724 24.4822C48.2311 24.6175 48.7095 24.8665 49.1936 25.0821C49.2555 25.1097 49.3255 25.2565 49.3037 25.315C49.0983 25.8657 48.8724 26.4094 48.6429 26.9796C47.9764 26.5827 47.2778 26.3245 46.5332 26.2018C45.6453 26.0561 44.754 25.985 43.8809 26.2855C43.0022 26.5884 42.4148 27.1826 42.2657 28.1119C42.1189 29.0308 42.3999 29.8407 43.203 30.3477C43.8729 30.771 44.5956 31.1232 45.3253 31.4376C46.2705 31.846 47.2089 32.2544 48.0521 32.8555C49.5687 33.9373 50.2077 35.4206 49.9553 37.2446C49.7132 38.9964 48.6693 40.1734 47.0644 40.8548C46.6124 41.0464 46.1271 41.1577 45.6224 41.316C45.6224 42.2131 45.6224 43.1434 45.6224 44.091C45.0098 44.091 44.4247 44.091 43.8133 44.091C43.8133 43.1824 43.8133 42.2911 43.8133 41.4123C43.1858 41.3217 42.5823 41.2598 41.9892 41.1427C41.2206 40.9913 40.4945 40.7137 39.8153 40.3145C39.6524 40.2181 39.6191 40.1275 39.6868 39.9497C39.8784 39.4449 40.0493 38.9321 40.2386 38.3918C40.3901 38.4744 40.5208 38.5455 40.6528 38.6166C41.824 39.2419 43.0699 39.6009 44.4006 39.5482C44.8951 39.5287 45.4124 39.43 45.869 39.2453C47.8766 38.4342 48.1772 35.9655 46.4564 34.5946C45.7635 34.0428 44.9582 33.6998 44.1448 33.3706C43.1284 32.9587 42.1544 32.4758 41.2952 31.7725C39.2773 30.1217 39.4895 26.9566 41.5005 25.393C42.1659 24.8768 42.915 24.543 43.7318 24.3548C43.8419 24.3307 43.9521 24.3032 44.0943 24.2688Z" fill="#FF6D2A"/>
<path d="M22.4733 58.519C20.4486 58.519 18.8 60.1664 18.8 62.1923C18.8 64.216 20.4451 65.8863 22.4733 65.9172C24.4775 65.9172 26.1719 64.1999 26.1719 62.1659C26.173 60.1549 24.513 58.519 22.4733 58.519Z" fill="#213CC4"/>
<path d="M44.9445 8.48115C44.9445 7.93623 44.9559 7.47277 44.9674 7.03225C45.0018 5.18987 44.3422 3.42894 43.0677 2.13147C41.7473 0.775498 39.8578 0 37.8881 0C34.4695 0.0114719 31.0406 0.0114719 27.6105 0.0114719L6.99784 0C2.83814 0 0.0344158 2.79225 0.0344158 6.94048V54.122C0.0344158 57.0301 0.0344156 60.0311 0 63.0207V63.0907C0 65.0604 0.683723 66.7869 1.96972 68.0729C3.26719 69.3933 5.14513 70.147 7.10223 70.147H7.18368C16.6732 70.0656 26.3256 70.0896 35.6523 70.1126H37.9696C39.8693 70.1126 41.7002 69.3589 43.0103 68.0499C44.2734 66.7754 44.9686 65.0489 44.9686 63.195V63.1377C44.9456 60.1952 44.9341 56.9853 44.9341 53.1503C44.6324 53.1618 44.3433 53.1732 44.0416 53.1732C43.4852 53.1732 42.9415 53.1503 42.3966 53.1033C42.3966 53.8443 42.3966 54.5751 42.408 55.2703H2.57084V11.5981H42.4298V12.3047C42.9633 12.2588 43.4956 12.2347 44.0405 12.2347C44.3537 12.2347 44.6542 12.2462 44.9674 12.2577V11.4122L44.9559 9.80156C44.9445 9.36219 44.9445 8.92167 44.9445 8.48115ZM42.4069 56.4278C42.4069 58.8839 42.4184 61.0854 42.4298 63.1595V63.2054C42.4298 64.3985 42.0123 65.4527 41.2012 66.2638C40.3672 67.1093 39.1971 67.5727 37.9225 67.5727H35.1991C26.0113 67.5498 16.5092 67.5268 7.15959 67.6071H7.10108C5.81509 67.6071 4.59792 67.1322 3.76392 66.2867C2.96433 65.4757 2.53528 64.3744 2.53528 63.0884V63.0425C2.55823 60.8296 2.55823 58.6166 2.55823 56.4266H42.4069V56.4278ZM42.4298 6.95195C42.4184 7.41541 42.4069 7.89035 42.4069 8.4582C42.4069 8.92167 42.4184 9.37366 42.4184 9.82565L42.4298 10.4394H2.57084V6.94048C2.57084 4.22968 4.26294 2.53758 6.99669 2.53758L27.6093 2.54905C31.0394 2.54905 34.4684 2.54905 37.9443 2.53758C39.2074 2.53758 40.4119 3.03545 41.2586 3.90502C41.792 4.44994 42.4287 5.41128 42.4287 6.83608V6.95195H42.4298Z" fill="#213CC4"/>
</svg>
