<svg width="46" height="60" viewBox="0 0 46 60" fill="none" xmlns="http://www.w3.org/2000/svg">
<g opacity="0.5">
<path d="M42.3886 60.0002H3.1791C1.41291 60.0002 0 58.5872 0 56.821V25.4333C0 23.6671 1.41291 22.2542 3.1791 22.2542H10.698V23.213C10.698 29.874 16.148 35.324 22.8091 35.324C29.4701 35.324 34.9201 29.874 34.9201 23.213V22.2542H42.439C44.2052 22.2542 45.6182 23.6671 45.6182 25.4333V56.821C45.5677 58.5872 44.1547 60.0002 42.3886 60.0002ZM3.1791 24.2727C2.52309 24.2727 1.96805 24.8278 1.96805 25.4838V56.8715C1.96805 57.5275 2.52309 58.0826 3.1791 58.0826H42.3886C43.0446 58.0826 43.5997 57.5275 43.5997 56.8715V25.4333C43.5997 24.7773 43.0446 24.2222 42.3886 24.2222H36.7872C36.2826 31.5393 30.1766 37.292 22.7586 37.292C15.3406 37.292 9.23461 31.4888 8.72999 24.2222H3.1791V24.2727Z" fill="#09AEEB"/>
<path d="M34.4152 28.4104L30.2269 24.2724H15.3404L11.2025 28.4104L9.78955 27.0479L14.533 22.3044H31.0343L35.7778 27.0479L34.4152 28.4104Z" fill="#09AEEB"/>
<path d="M36.8377 23.2632H34.8696V7.21617L29.6719 1.96805H10.698V23.2632H8.72998V0H30.4794L36.8377 6.40878V23.2632Z" fill="#09AEEB"/>
<path d="M35.8789 7.77127H29.0664V1.00928H31.0345V5.85367H35.8789V7.77127Z" fill="#09AEEB"/>
<path d="M9.73916 24.2725H4.39014V13.5745H9.73916V15.5425H6.35819V22.3045H9.73916V24.2725Z" fill="#09AEEB"/>
<path d="M41.2279 24.2725H35.8789V22.3045H39.2599V15.5425H35.8789V13.5745H41.2279V24.2725Z" fill="#09AEEB"/>
<path d="M32.6996 31.6402L24.7266 23.6671V18.9236H26.6946V22.8597L34.0621 30.2777L32.6996 31.6402Z" fill="#09AEEB"/>
<path d="M12.9183 31.6402L11.5054 30.2777L18.9234 22.8597V18.9236H20.8409V23.6671L12.9183 31.6402Z" fill="#09AEEB"/>
<path d="M45.5676 16.5012H43.5996V21.2952H45.5676V16.5012Z" fill="#09AEEB"/>
<path d="M2.01883 16.5017H0.0507812V21.2957H2.01883V16.5017Z" fill="#09AEEB"/>
<path d="M44.5585 17.9141H40.2188V19.8821H44.5585V17.9141Z" fill="#09AEEB"/>
<path d="M5.34953 17.9141H1.00977V19.8821H5.34953V17.9141Z" fill="#09AEEB"/>
<path d="M44.6089 40.1682H1.00928V42.1363H44.6089V40.1682Z" fill="#09AEEB"/>
<path d="M20.1345 15.5425H18.1664V8.73008C18.1664 8.47776 18.0655 8.22543 17.8637 8.07404C17.6618 7.87219 17.4599 7.77128 17.2076 7.77128H15.8956C15.6433 7.77128 15.391 7.87219 15.2396 8.07404C15.0377 8.27589 14.9368 8.47776 14.9368 8.73008V15.5425H12.9688V8.73008C12.9688 7.97314 13.2716 7.21621 13.8267 6.66112C14.3817 6.10604 15.0882 5.80322 15.8956 5.80322H17.2076C17.9646 5.80322 18.7215 6.10604 19.2766 6.66112C19.8317 7.21621 20.1345 7.92268 20.1345 8.73008V15.5425Z" fill="#09AEEB"/>
<path d="M20.1343 9.68896H13.019V11.657H20.1343V9.68896Z" fill="#09AEEB"/>
<path d="M27.4517 9.33545H22.2036V11.3035H27.4517V9.33545Z" fill="#09AEEB"/>
<path d="M32.6489 13.5742H22.2031V15.5423H32.6489V13.5742Z" fill="#09AEEB"/>
<path d="M12.01 45.4163H10.042V47.3843H12.01V45.4163Z" fill="#09AEEB"/>
<path d="M15.9456 45.4165H13.9775V47.3846H15.9456V45.4165Z" fill="#09AEEB"/>
<path d="M19.8821 45.4165H17.9141V47.3846H19.8821V45.4165Z" fill="#09AEEB"/>
<path d="M23.7674 45.4165H21.7993V47.3846H23.7674V45.4165Z" fill="#09AEEB"/>
<path d="M27.7039 45.4165H25.7358V47.3846H27.7039V45.4165Z" fill="#09AEEB"/>
<path d="M31.6399 45.4165H29.6719V47.3846H31.6399V45.4165Z" fill="#09AEEB"/>
<path d="M35.576 45.4165H33.6079V47.3846H35.576V45.4165Z" fill="#09AEEB"/>
<path d="M12.01 53.2383H10.042V55.2063H12.01V53.2383Z" fill="#09AEEB"/>
<path d="M35.576 53.238H33.6079V55.2061H35.576V53.238Z" fill="#09AEEB"/>
<path d="M31.6394 53.238H13.9775V55.2061H31.6394V53.238Z" fill="#09AEEB"/>
<path d="M10.0423 49.3022H8.07422V51.2702H10.0423V49.3022Z" fill="#09AEEB"/>
<path d="M13.9783 49.302H12.0103V51.27H13.9783V49.302Z" fill="#09AEEB"/>
<path d="M17.9143 49.302H15.9463V51.27H17.9143V49.302Z" fill="#09AEEB"/>
<path d="M21.8001 49.302H19.832V51.27H21.8001V49.302Z" fill="#09AEEB"/>
<path d="M25.7361 49.302H23.7681V51.27H25.7361V49.302Z" fill="#09AEEB"/>
<path d="M29.6721 49.302H27.7041V51.27H29.6721V49.302Z" fill="#09AEEB"/>
<path d="M33.6082 49.302H31.6401V51.27H33.6082V49.302Z" fill="#09AEEB"/>
<path d="M37.4939 49.302H35.5259V51.27H37.4939V49.302Z" fill="#09AEEB"/>
</g>
</svg>
