<svg style="display: none;">
  <symbol viewBox="0 0 60 60" xmlns="http://www.w3.org/2000/svg" id="member_1">
    <path d="M25.313 54.375h9.375a.938.938 0 0 0 0-1.875h-9.376a.938.938 0 0 0 0 1.875z"></path>
    <path d="M55.313 0H4.687A4.687 4.687 0 0 0 0 4.688v37.5a4.688 4.688 0 0 0 4.688 4.687H21.15L19.04 52.5h-.29a3.75 3.75 0 1 0 0 7.5h22.5a3.75 3.75 0 1 0 0-7.5h-.29l-2.11-5.625h16.462A4.688 4.688 0 0 0 60 42.187v-37.5A4.687 4.687 0 0 0 55.312 0zM4.687 1.875h50.626a2.812 2.812 0 0 1 2.812 2.813v34.687H1.875V4.687a2.813 2.813 0 0 1 2.813-2.812zm34.744 51.89a.937.937 0 0 0 .882.61h.937a1.875 1.875 0 1 1 0 3.75h-22.5a1.875 1.875 0 1 1 0-3.75h.938a.937.937 0 0 0 .88-.61l2.579-6.89h13.706l2.578 6.89zM55.313 45H4.687a2.812 2.812 0 0 1-2.812-2.813v-.937h56.25v.938A2.812 2.812 0 0 1 55.312 45z"></path>
    <path d="M28.125 23.438h2.269c.223.772.538 1.514.937 2.212l-1.603 1.603a1.877 1.877 0 0 0 0 2.653l1.322 1.322a1.873 1.873 0 0 0 2.653 0l1.603-1.603c.698.4 1.44.714 2.213.938v2.25a1.875 1.875 0 0 0 1.875 1.874h1.875a1.875 1.875 0 0 0 1.875-1.874v-2.27a10.13 10.13 0 0 0 2.212-.937l1.603 1.603a1.876 1.876 0 0 0 2.653 0l1.322-1.322a1.875 1.875 0 0 0 0-2.653l-1.621-1.584c.399-.698.713-1.44.937-2.212h2.25a1.875 1.875 0 0 0 1.875-1.875v-1.875a1.875 1.875 0 0 0-1.875-1.875h-2.269a10.128 10.128 0 0 0-.937-2.213l1.603-1.603a1.877 1.877 0 0 0 0-2.653l-1.303-1.322a1.876 1.876 0 0 0-2.653 0l-1.604 1.603c-.697-.4-1.44-.714-2.212-.938v-2.25a1.875 1.875 0 0 0-1.875-1.874h-1.875A1.875 1.875 0 0 0 37.5 8.438v2.268c-.772.224-1.515.539-2.212.938l-1.604-1.603a1.876 1.876 0 0 0-2.653 0l-1.322 1.303a1.873 1.873 0 0 0 0 2.653l1.604 1.603c-.4.698-.714 1.44-.938 2.213h-2.25a1.875 1.875 0 0 0-1.875 1.875v1.875a1.875 1.875 0 0 0 1.875 1.875zm0-3.75h3a.938.938 0 0 0 .938-.75 8.438 8.438 0 0 1 1.209-3 .938.938 0 0 0-.113-1.182l-2.128-2.09 1.322-1.322 2.128 2.128a.938.938 0 0 0 1.181.112 8.437 8.437 0 0 1 2.963-1.228.938.938 0 0 0 .75-.937V8.437h1.875v3a.938.938 0 0 0 .75.938 8.436 8.436 0 0 1 3 1.21.938.938 0 0 0 1.181-.113l2.128-2.128 1.322 1.322-2.128 2.128a.937.937 0 0 0-.15 1.143 8.437 8.437 0 0 1 1.228 2.963.938.938 0 0 0 .938.75H52.5v1.875h-3a.938.938 0 0 0-.938.75 8.437 8.437 0 0 1-1.209 3.038.938.938 0 0 0 .113 1.18l2.128 2.129-1.322 1.284-2.128-2.128A.937.937 0 0 0 45 27.666a8.437 8.437 0 0 1-2.962 1.228.938.938 0 0 0-.75.937v2.982h-1.913v-3a.938.938 0 0 0-.75-.938 8.436 8.436 0 0 1-3-1.21.938.938 0 0 0-1.181.113l-2.09 2.128-1.323-1.322 2.128-2.128a.937.937 0 0 0 .113-1.143 8.437 8.437 0 0 1-1.228-2.963.938.938 0 0 0-.938-.75h-2.981v-1.913z"></path>
    <path d="M40.313 25.313a4.687 4.687 0 1 0 0-9.375 4.687 4.687 0 0 0 0 9.374zm0-7.5a2.813 2.813 0 1 1 0 5.625 2.813 2.813 0 0 1 0-5.625zM17.146 25.04a.938.938 0 0 0 1.332 0l3.75-3.75a.938.938 0 0 0 0-1.33l-3.75-3.75a.943.943 0 0 0-1.536.305.941.941 0 0 0 .204 1.026l3.094 3.084-3.093 3.084a.937.937 0 0 0 0 1.332zm-7.5 0a.939.939 0 0 0 1.537-.305.938.938 0 0 0-.205-1.026l-3.094-3.084 3.094-3.084a.942.942 0 0 0-1.332-1.332l-3.75 3.75a.938.938 0 0 0 0 1.332l3.75 3.75z"></path>
  </symbol>
  <symbol viewBox="0 0 62 60" xmlns="http://www.w3.org/2000/svg" id="member_2">
    <path d="M61.206 9.68L15.503 9.6V1.004A.796.796 0 0 0 14.71.21h-8.4C2.884.209.08 3.066 0 6.625v46.8C0 57.05 2.83 60 6.31 60h54.896a.796.796 0 0 0 .794-.794V10.474a.796.796 0 0 0-.794-.794zM1.574 7.881V6.797c0-2.752 2.117-4.987 4.723-4.987h7.606v44.539H6.31c-1.879 0-3.572.86-4.723 2.222V7.88h-.013zm58.839 50.532H6.31c-2.606 0-4.723-2.236-4.723-4.987v-.503c0-2.752 2.117-5 4.723-5h8.4a.796.796 0 0 0 .793-.794v-35.94l44.91.079v47.145z"></path>
    <path d="M20.212 27.366c.013.08.04.16.066.238 0 0 0 .014.013.014.013.026.04.066.053.092 0 .014.013.014.013.027.027.026.04.053.067.08l.013.012c.026.027.053.04.08.066l.012.014c.027.026.066.04.093.053 0 0 .013 0 .013.013.027.013.066.026.093.04h.013c.04.013.066.013.106.026h.026c.04 0 .066.013.106.013h32.647c.04 0 .066 0 .106-.013h.026c.04 0 .066-.013.106-.026h.013a.635.635 0 0 0 .093-.04s.013 0 .013-.013c.027-.014.066-.04.093-.053l.013-.014c.026-.026.053-.04.08-.066l.013-.013a.363.363 0 0 0 .066-.08c0-.012.013-.012.013-.026.026-.026.04-.066.053-.092 0 0 0-.014.013-.014.013-.04.026-.066.04-.105.013-.027.013-.053.026-.08v-.026c.013-.04.013-.093.013-.133V16.916c0-.04 0-.092-.013-.132v-.027a.189.189 0 0 0-.026-.079c-.014-.026-.014-.053-.027-.066 0-.013-.013-.013-.013-.026-.013-.014-.013-.027-.026-.04-.014-.014-.014-.027-.027-.04 0-.013-.013-.013-.013-.026-.013-.014-.027-.027-.027-.04l-.013-.013-.04-.04-.013-.013-.04-.04-.013-.013c-.013-.013-.026-.013-.04-.027-.013 0-.013-.013-.026-.013-.013-.013-.026-.013-.04-.026-.013 0-.026-.014-.026-.014-.013 0-.026-.013-.04-.013-.013 0-.026-.013-.04-.013-.012 0-.026-.013-.039-.013-.013 0-.026-.013-.04-.013-.013 0-.026-.014-.04-.014-.013 0-.012 0-.026-.013-.026 0-.04-.013-.066-.013H20.886c-.013 0-.04 0-.052.013-.014 0-.027 0-.04.013-.013 0-.027 0-.027.014-.013 0-.026.013-.052.013-.014 0-.014 0-.027.013-.013 0-.026.013-.04.026-.013 0-.013.014-.026.014-.013.013-.027.013-.04.026-.013 0-.013.013-.026.013-.014.014-.027.014-.027.027-.013.013-.026.013-.026.026l-.027.027c-.013.013-.026.013-.026.026-.013 0-.013.014-.013.027-.014.013-.027.026-.027.04 0 .013-.013.013-.013.026-.013.013-.013.026-.026.04-.014.013-.014.026-.014.026-.013.013-.013.026-.026.04-.013.013-.013.026-.027.053 0 .013-.013.013-.013.026-.026.066-.04.132-.053.198 0 .04-.013.08-.013.12V27.34c-.026-.053-.026-.013-.013.026zm32.607-1.203l-12.897-4.088 12.897-4.087v8.175zm-4.326.29H26.125l11.178-3.544 11.19 3.545zm-11.19-5.211l-11.178-3.545h22.368l-11.19 3.545zm-2.62.833l-12.897 4.088v-8.175l12.897 4.087zm19.725 10.318c0-.053-.013-.093-.013-.146v-.013c-.014-.053-.027-.093-.04-.145-.027-.04-.04-.093-.066-.133v-.013a.717.717 0 0 0-.093-.106h-.013c-.04-.026-.08-.066-.12-.092 0 0-.012 0-.012-.014-.04-.026-.08-.04-.12-.066 0 0-.013 0-.013-.013a1.712 1.712 0 0 0-.132-.04h-.013c-.04 0-.08-.013-.12-.013h-17.54c-.04 0-.079 0-.119.013h-.013c-.04.014-.093.027-.132.04h-.013a.538.538 0 0 0-.12.066s-.013 0-.013.013c-.04.027-.08.053-.119.093h-.013c-.04.04-.066.066-.093.106v.013c-.026.04-.053.08-.066.132-.013.04-.04.093-.04.146v.013c-.013.04-.013.093-.013.146v18.347c0 .053.014.093.014.145v.014c.013.053.026.092.04.145.026.04.039.093.065.133v.013c.027.04.067.079.093.105h.013c.04.027.066.067.106.093 0 0 .013 0 .013.013.04.027.08.04.12.067h.013c.04.013.079.026.132.04h.013c.04.012.093.012.132.012h17.501c.053 0 .093 0 .146-.013h.013c.04-.013.092-.026.132-.04h.013c.04-.013.08-.04.12-.066 0 0 .013 0 .013-.013a.336.336 0 0 0 .105-.093h.014a.664.664 0 0 0 .092-.105v-.014a.413.413 0 0 0 .066-.132c.014-.04.04-.092.04-.145v-.014c.013-.04.013-.092.013-.145V32.406l.027-.013zM43.772 41.56l-6.865 7.17V34.39l6.865 7.17zm-5.807-8.347h13.797l-6.892 7.21-6.905-7.21zm6.905 9.498l6.892 7.209H37.965l6.905-7.21zm1.098-1.151l6.866-7.17v14.34l-6.866-7.17zm-14.632-9.193V32.3c0-.013 0-.026-.013-.039a.602.602 0 0 0-.106-.251.699.699 0 0 0-.159-.186l-.013-.013c-.014-.013-.027-.013-.027-.026-.013-.014-.026-.014-.04-.027-.013 0-.013-.013-.026-.013-.013-.013-.026-.013-.053-.026 0 0-.013 0-.013-.014-.013-.013-.04-.013-.053-.026-.013 0-.013-.013-.026-.013-.014 0-.027-.014-.04-.014-.013 0-.026 0-.04-.013-.013 0-.026 0-.04-.013-.013 0-.026 0-.052-.013h-9.749c-.014 0-.04 0-.053.013-.014 0-.027 0-.04.013-.013 0-.026 0-.04.014-.013 0-.026.013-.04.013-.013 0-.026.013-.026.013-.013.013-.04.013-.053.026 0 0-.013 0-.013.014-.013.013-.026.013-.053.026-.013 0-.013.013-.026.013-.014.014-.027.014-.027.027-.013.013-.026.013-.026.026l-.014.013c-.066.067-.132.133-.172.212-.04.066-.066.146-.092.225v18.638c.013.08.053.146.093.225a.84.84 0 0 0 .172.212l.013.013c.013.013.026.013.026.027.013.013.027.013.027.026.013 0 .013.013.026.013.013.014.027.014.053.027h.013c.027.013.04.026.066.026.014 0 .014 0 .027.013.013.014.04.014.053.014.013 0 .026 0 .026.013.013 0 .04.013.053.013h9.762c.014 0 .04 0 .053-.013.014 0 .027 0 .027-.013.026 0 .04-.014.053-.014.013 0 .013 0 .026-.013.027-.013.04-.013.066-.026h.014c.013-.014.026-.014.053-.027.013 0 .013-.013.026-.013.013-.013.026-.013.04-.026.013-.014.026-.014.026-.027l.013-.013a.845.845 0 0 0 .265-.437c0-.013 0-.026.013-.04V32.42c.04-.027.04-.04.04-.053zm-6.469 9.193l-3.082 5.913V35.647l3.082 5.913zm-2.566-8.347h6.932l-3.466 6.64-3.466-6.64zm3.466 10.067l3.466 6.64H22.3l3.466-6.64zm.9-1.72l3.081-5.913v11.826l-3.082-5.913z"></path>
  </symbol>
  <symbol viewBox="0 0 73 62" xmlns="http://www.w3.org/2000/svg" id="member_3">
    <path d="M63.95 6.417a.773.773 0 0 0-.771.77c0 .424.347.77.77.77h6.396v2.312H63.95a.773.773 0 0 0-.771.77c0 .424.347.771.77.771h6.396v33.509H2.54V11.81h6.187c.424 0 .77-.347.77-.77a.773.773 0 0 0-.77-.771H2.541V7.957h6.187c.424 0 .77-.346.77-.77a.773.773 0 0 0-.77-.77H1v44.294h30.435v9.177h-5.949a.773.773 0 0 0-.77.77c0 .424.347.77.77.77h21.921c.424 0 .77-.346.77-.77a.773.773 0 0 0-.77-.77h-5.956v-9.177h30.435V6.417H63.95zm-24.04 53.48h-6.934v-9.185h6.934v9.185zM70.345 49.17H2.54v-2.31h67.804v2.311z" stroke-width=".3"></path>
    <path d="M12.118 41.043c.424 0 .77-.347.77-.77V7.641h47.109v32.63c0 .424.346.77.77.77.424 0 .77-.346.77-.77V1h-50.19v39.272c0 .424.347.77.771.77zm.77-38.502h47.109v3.56H12.889V2.54z" stroke-width=".3"></path>
    <path d="M20.817 3.334h-.3a.773.773 0 0 0-.77.771c0 .424.346.77.77.77h.3c.424 0 .77-.346.77-.77a.768.768 0 0 0-.77-.77zm-2.697 0h-.3a.773.773 0 0 0-.771.771c0 .424.347.77.77.77h.3a.772.772 0 0 0 .771-.77.773.773 0 0 0-.77-.77zm-2.703 0h-.3a.773.773 0 0 0-.771.771c0 .424.346.77.77.77h.3a.772.772 0 0 0 .771-.77.773.773 0 0 0-.77-.77zm24.747 30.312a.767.767 0 0 0 1.086-.039l8.969-9.577-8.969-9.577a.775.775 0 0 0-1.086-.039.775.775 0 0 0-.038 1.087l7.982 8.529-7.982 8.53a.76.76 0 0 0 .038 1.086zm-7.443-19.231a.76.76 0 0 0-1.086.038l-8.969 9.577 8.969 9.578a.772.772 0 0 0 .562.246c.193 0 .378-.07.524-.208a.775.775 0 0 0 .039-1.086l-7.983-8.53 7.983-8.53a.761.761 0 0 0-.039-1.085z" stroke-width=".3"></path>
  </symbol>
  <symbol viewBox="0 0 48 60" xmlns="http://www.w3.org/2000/svg" id="member_4">
    <path d="M35.886 14.608H11.248a.853.853 0 0 1-.853-.853V6.252c0-.471.382-.853.853-.853h6.56A5.779 5.779 0 0 1 23.568 0a5.779 5.779 0 0 1 5.758 5.4h6.56c.472 0 .854.381.854.852v7.503a.853.853 0 0 1-.854.853zm-23.785-1.706h22.932V7.105h-6.597a.852.852 0 0 1-.849-.937l.024-.192c.009-.068.02-.135.02-.205a4.069 4.069 0 0 0-4.064-4.065 4.069 4.069 0 0 0-4.064 4.065c0 .07.011.137.02.205l.024.192a.85.85 0 0 1-.85.937h-6.596v5.797z"></path>
    <path d="M23.566 7.773a1.217 1.217 0 1 0 0-2.434 1.217 1.217 0 0 0 0 2.434zM42.4 55.133H4.733V11.652H8.03v1.706H6.44v40.069h34.255V13.358h-1.437v-1.706H42.4v43.481z"></path>
    <path d="M43.372 60H3.76A3.764 3.764 0 0 1 0 56.24V10.68a3.764 3.764 0 0 1 3.76-3.76h4.37v1.706H3.76a2.056 2.056 0 0 0-2.054 2.054v45.56c0 1.132.922 2.054 2.054 2.054h39.612a2.056 2.056 0 0 0 2.053-2.054V10.68a2.056 2.056 0 0 0-2.053-2.054h-4.919V6.92h4.919a3.764 3.764 0 0 1 3.76 3.76v45.56a3.764 3.764 0 0 1-3.76 3.76z"></path>
    <path d="M14.63 28.602l-2.767-2.56 1.16-1.252 1.542 1.428 4.735-4.877 1.224 1.188-5.895 6.073zm0 10.325l-2.767-2.56 1.16-1.252 1.542 1.428 4.735-4.877 1.224 1.188-5.895 6.073zm0 10.325l-2.767-2.56 1.16-1.252 1.542 1.428 4.735-4.877 1.224 1.188-5.895 6.073zM36.575 23.82H24.783v1.706h11.792v-1.707zm0 10.324H24.783v1.706h11.792v-1.706zm0 10.326H24.783v1.706h11.792v-1.707z"></path>
  </symbol>
  <symbol viewBox="0 0 61 60" xmlns="http://www.w3.org/2000/svg" id="member_5">
    <path d="M59.709 24.764l-5.645-.545a23.64 23.64 0 0 0-2.871-6.782l3.58-4.322a.98.98 0 0 0-.06-1.314L48.76 5.789a.98.98 0 0 0-1.322-.065l-4.329 3.59a24.401 24.401 0 0 0-6.788-2.86L35.779.86a.959.959 0 0 0-.975-.86H26.27a.959.959 0 0 0-.975.86l-.545 5.604c-2.4.589-4.692 1.55-6.793 2.85l-4.323-3.589a.98.98 0 0 0-1.317.06l-6.025 6.011a.98.98 0 0 0-.062 1.319l3.588 4.326a24.505 24.505 0 0 0-2.865 6.777l-5.662.545a1.004 1.004 0 0 0-.913.975v8.522a1.004 1.004 0 0 0 .913.975l5.645.545a23.64 23.64 0 0 0 2.87 6.782l-3.58 4.322a.98.98 0 0 0 .064 1.319l6.026 6.012a.98.98 0 0 0 1.317.06l4.33-3.589a24.398 24.398 0 0 0 6.787 2.86l.545 5.593a.959.959 0 0 0 .975.86h8.534a.959.959 0 0 0 .975-.86l.544-5.605c2.4-.588 4.693-1.55 6.794-2.85l4.323 3.589a.979.979 0 0 0 1.317-.06l6.024-6.01a.98.98 0 0 0 .062-1.32l-3.587-4.325a24.505 24.505 0 0 0 2.865-6.778l5.589-.545a1.004 1.004 0 0 0 .912-.975v-8.52a1.004 1.004 0 0 0-.913-.975zm-1.047 8.609l-5.4.526a.996.996 0 0 0-.874.762 22.592 22.592 0 0 1-3.154 7.441.98.98 0 0 0 .063 1.16l3.469 4.186-4.762 4.752-4.188-3.472a.98.98 0 0 0-1.166-.063 21.696 21.696 0 0 1-7.44 3.129.953.953 0 0 0-.77.838l-.526 5.409h-6.756l-.527-5.41a.967.967 0 0 0-.771-.85 22.437 22.437 0 0 1-7.45-3.13.98.98 0 0 0-1.155.074l-4.188 3.473-4.76-4.751 3.47-4.185a.98.98 0 0 0 .061-1.168 21.697 21.697 0 0 1-3.139-7.429 1.012 1.012 0 0 0-.89-.766l-5.473-.527v-6.744l5.473-.526a.996.996 0 0 0 .876-.763 22.59 22.59 0 0 1 3.153-7.44.98.98 0 0 0-.064-1.16l-3.468-4.187 4.762-4.75 4.187 3.471a.98.98 0 0 0 1.166.063 21.697 21.697 0 0 1 7.441-3.13.952.952 0 0 0 .77-.838l.526-5.409h6.756l.526 5.41a.966.966 0 0 0 .772.85 22.436 22.436 0 0 1 7.45 3.13.98.98 0 0 0 1.155-.074L48 7.805l4.695 4.744-3.474 4.19a.98.98 0 0 0-.062 1.167 21.698 21.698 0 0 1 3.14 7.429 1.012 1.012 0 0 0 .89.766l5.473.527v6.745z"></path>
    <path d="M30.507 11.482c-10.225 0-18.544 8.293-18.544 18.504 0 10.21 8.319 18.504 18.544 18.504s18.544-8.294 18.544-18.504-8.319-18.504-18.544-18.504zm-6.724 26.38a9.853 9.853 0 0 1-3.093-7.572c.18-4.954 4.225-9.091 9.197-9.418a9.844 9.844 0 0 1 7.351 16.99c-1.676 1.587-2.56 3.873-2.425 6.275l.053 1.84a15.89 15.89 0 0 1-3.386.552V36.122h1.205a.98.98 0 1 0 0-1.959H28.33a.98.98 0 1 0 0 1.96h1.191v10.406a17.237 17.237 0 0 1-3.386-.554l.07-1.144a8.122 8.122 0 0 0-2.422-6.97zm13.026 7.454l-.038-1.252c0-.008 0-.017-.002-.026-.105-1.83.556-3.561 1.814-4.75a11.826 11.826 0 0 0 3.708-8.594 11.802 11.802 0 0 0-12.524-11.777c-5.97.392-10.818 5.356-11.035 11.298a11.807 11.807 0 0 0 3.704 9.07 6.157 6.157 0 0 1 1.825 5.314.913.913 0 0 0-.008.077l-.038.644C18.18 42.84 13.922 36.908 13.922 30c0-9.13 7.44-16.559 16.585-16.559S47.093 20.87 47.093 30c0 6.904-4.256 12.834-10.284 15.316z"></path>
  </symbol>
  <symbol viewBox="0 0 66 60" xmlns="http://www.w3.org/2000/svg" id="member_6">
    <path d="M4.451 51.703h2.331v7.31a.987.987 0 0 0 1.482.854l14.13-8.164h28.233a4.455 4.455 0 0 0 4.45-4.45V20.62l7.706-10.48 1.965-2.671c.86-1.172.42-2.91-1.004-3.959L59.957.726c-1.425-1.048-3.215-.95-4.079.221L53.913 3.62v.002l-7.263 9.876H4.45A4.45 4.45 0 0 0 0 17.937v29.316a4.455 4.455 0 0 0 4.451 4.45zm39.435-19.198l-1.194-2.668L58.558 8.262l2.048 1.506-16.72 22.737zM57.469 2.118c.144-.198.745-.22 1.316.2l3.789 2.785c.57.42.728.998.582 1.197l-1.38 1.876-2.842-2.09v-.001L56.09 3.993l1.379-1.875zm-2.55 3.467l2.048 1.507-15.866 21.575-2.902-.344 16.72-22.738zm-12.571 28.32l-5.367 2.032.34-5.728 3.563.421 1.464 3.274zM1.975 17.935a2.473 2.473 0 0 1 2.476-2.464h40.746L35.602 28.52c-.017.024-.02.052-.036.077a.962.962 0 0 0-.078.17.949.949 0 0 0-.055.201c-.004.027-.019.05-.02.078l-.493 8.296a.987.987 0 0 0 1.335.982l7.772-2.943c.017-.007.028-.021.044-.029.048-.02.087-.054.131-.083a.96.96 0 0 0 .214-.18c.017-.019.041-.026.056-.047l8.63-11.735v23.946a2.477 2.477 0 0 1-2.475 2.474H22.129a.984.984 0 0 0-.494.133L8.757 57.3v-6.585a.987.987 0 0 0-.987-.988H4.45a2.478 2.478 0 0 1-2.476-2.474V17.936z"></path>
    <path d="M10.253 24.185h24.66a.987.987 0 1 0 0-1.976h-24.66a.987.987 0 1 0 0 1.976zm0 9.402h19.59a.987.987 0 1 0 0-1.975h-19.59a.987.987 0 1 0 0 1.975zm0 9.403h34.572a.987.987 0 1 0 0-1.975H10.252a.987.987 0 1 0 0 1.975z"></path>
  </symbol>
</svg>