<svg style="display: none;">
  <symbol viewBox="0 0 60 60" xmlns="http://www.w3.org/2000/svg" id="member_1">
    <path d="M25.313 54.375h9.375a.938.938 0 0 0 0-1.875h-9.376a.938.938 0 0 0 0 1.875z"></path>
    <path d="M55.313 0H4.687A4.687 4.687 0 0 0 0 4.688v37.5a4.688 4.688 0 0 0 4.688 4.687H21.15L19.04 52.5h-.29a3.75 3.75 0 1 0 0 7.5h22.5a3.75 3.75 0 1 0 0-7.5h-.29l-2.11-5.625h16.462A4.688 4.688 0 0 0 60 42.187v-37.5A4.687 4.687 0 0 0 55.312 0zM4.687 1.875h50.626a2.812 2.812 0 0 1 2.812 2.813v34.687H1.875V4.687a2.813 2.813 0 0 1 2.813-2.812zm34.744 51.89a.937.937 0 0 0 .882.61h.937a1.875 1.875 0 1 1 0 3.75h-22.5a1.875 1.875 0 1 1 0-3.75h.938a.937.937 0 0 0 .88-.61l2.579-6.89h13.706l2.578 6.89zM55.313 45H4.687a2.812 2.812 0 0 1-2.812-2.813v-.937h56.25v.938A2.812 2.812 0 0 1 55.312 45z"></path>
    <path d="M28.125 23.438h2.269c.223.772.538 1.514.937 2.212l-1.603 1.603a1.877 1.877 0 0 0 0 2.653l1.322 1.322a1.873 1.873 0 0 0 2.653 0l1.603-1.603c.698.4 1.44.714 2.213.938v2.25a1.875 1.875 0 0 0 1.875 1.874h1.875a1.875 1.875 0 0 0 1.875-1.874v-2.27a10.13 10.13 0 0 0 2.212-.937l1.603 1.603a1.876 1.876 0 0 0 2.653 0l1.322-1.322a1.875 1.875 0 0 0 0-2.653l-1.621-1.584c.399-.698.713-1.44.937-2.212h2.25a1.875 1.875 0 0 0 1.875-1.875v-1.875a1.875 1.875 0 0 0-1.875-1.875h-2.269a10.128 10.128 0 0 0-.937-2.213l1.603-1.603a1.877 1.877 0 0 0 0-2.653l-1.303-1.322a1.876 1.876 0 0 0-2.653 0l-1.604 1.603c-.697-.4-1.44-.714-2.212-.938v-2.25a1.875 1.875 0 0 0-1.875-1.874h-1.875A1.875 1.875 0 0 0 37.5 8.438v2.268c-.772.224-1.515.539-2.212.938l-1.604-1.603a1.876 1.876 0 0 0-2.653 0l-1.322 1.303a1.873 1.873 0 0 0 0 2.653l1.604 1.603c-.4.698-.714 1.44-.938 2.213h-2.25a1.875 1.875 0 0 0-1.875 1.875v1.875a1.875 1.875 0 0 0 1.875 1.875zm0-3.75h3a.938.938 0 0 0 .938-.75 8.438 8.438 0 0 1 1.209-3 .938.938 0 0 0-.113-1.182l-2.128-2.09 1.322-1.322 2.128 2.128a.938.938 0 0 0 1.181.112 8.437 8.437 0 0 1 2.963-1.228.938.938 0 0 0 .75-.937V8.437h1.875v3a.938.938 0 0 0 .75.938 8.436 8.436 0 0 1 3 1.21.938.938 0 0 0 1.181-.113l2.128-2.128 1.322 1.322-2.128 2.128a.937.937 0 0 0-.15 1.143 8.437 8.437 0 0 1 1.228 2.963.938.938 0 0 0 .938.75H52.5v1.875h-3a.938.938 0 0 0-.938.75 8.437 8.437 0 0 1-1.209 3.038.938.938 0 0 0 .113 1.18l2.128 2.129-1.322 1.284-2.128-2.128A.937.937 0 0 0 45 27.666a8.437 8.437 0 0 1-2.962 1.228.938.938 0 0 0-.75.937v2.982h-1.913v-3a.938.938 0 0 0-.75-.938 8.436 8.436 0 0 1-3-1.21.938.938 0 0 0-1.181.113l-2.09 2.128-1.323-1.322 2.128-2.128a.937.937 0 0 0 .113-1.143 8.437 8.437 0 0 1-1.228-2.963.938.938 0 0 0-.938-.75h-2.981v-1.913z"></path>
    <path d="M40.313 25.313a4.687 4.687 0 1 0 0-9.375 4.687 4.687 0 0 0 0 9.374zm0-7.5a2.813 2.813 0 1 1 0 5.625 2.813 2.813 0 0 1 0-5.625zM17.146 25.04a.938.938 0 0 0 1.332 0l3.75-3.75a.938.938 0 0 0 0-1.33l-3.75-3.75a.943.943 0 0 0-1.536.305.941.941 0 0 0 .204 1.026l3.094 3.084-3.093 3.084a.937.937 0 0 0 0 1.332zm-7.5 0a.939.939 0 0 0 1.537-.305.938.938 0 0 0-.205-1.026l-3.094-3.084 3.094-3.084a.942.942 0 0 0-1.332-1.332l-3.75 3.75a.938.938 0 0 0 0 1.332l3.75 3.75z"></path>
  </symbol>
  <symbol viewBox="0 0 62 60" xmlns="http://www.w3.org/2000/svg" id="member_2">
    <path d="M61.206 9.68L15.503 9.6V1.004A.796.796 0 0 0 14.71.21h-8.4C2.884.209.08 3.066 0 6.625v46.8C0 57.05 2.83 60 6.31 60h54.896a.796.796 0 0 0 .794-.794V10.474a.796.796 0 0 0-.794-.794zM1.574 7.881V6.797c0-2.752 2.117-4.987 4.723-4.987h7.606v44.539H6.31c-1.879 0-3.572.86-4.723 2.222V7.88h-.013zm58.839 50.532H6.31c-2.606 0-4.723-2.236-4.723-4.987v-.503c0-2.752 2.117-5 4.723-5h8.4a.796.796 0 0 0 .793-.794v-35.94l44.91.079v47.145z"></path>
    <path d="M20.212 27.366c.013.08.04.16.066.238 0 0 0 .014.013.014.013.026.04.066.053.092 0 .014.013.014.013.027.027.026.04.053.067.08l.013.012c.026.027.053.04.08.066l.012.014c.027.026.066.04.093.053 0 0 .013 0 .013.013.027.013.066.026.093.04h.013c.04.013.066.013.106.026h.026c.04 0 .066.013.106.013h32.647c.04 0 .066 0 .106-.013h.026c.04 0 .066-.013.106-.026h.013a.635.635 0 0 0 .093-.04s.013 0 .013-.013c.027-.014.066-.04.093-.053l.013-.014c.026-.026.053-.04.08-.066l.013-.013a.363.363 0 0 0 .066-.08c0-.012.013-.012.013-.026.026-.026.04-.066.053-.092 0 0 0-.014.013-.014.013-.04.026-.066.04-.105.013-.027.013-.053.026-.08v-.026c.013-.04.013-.093.013-.133V16.916c0-.04 0-.092-.013-.132v-.027a.189.189 0 0 0-.026-.079c-.014-.026-.014-.053-.027-.066 0-.013-.013-.013-.013-.026-.013-.014-.013-.027-.026-.04-.014-.014-.014-.027-.027-.04 0-.013-.013-.013-.013-.026-.013-.014-.027-.027-.027-.04l-.013-.013-.04-.04-.013-.013-.04-.04-.013-.013c-.013-.013-.026-.013-.04-.027-.013 0-.013-.013-.026-.013-.013-.013-.026-.013-.04-.026-.013 0-.026-.014-.026-.014-.013 0-.026-.013-.04-.013-.013 0-.026-.013-.04-.013-.012 0-.026-.013-.039-.013-.013 0-.026-.013-.04-.013-.013 0-.026-.014-.04-.014-.013 0-.012 0-.026-.013-.026 0-.04-.013-.066-.013H20.886c-.013 0-.04 0-.052.013-.014 0-.027 0-.04.013-.013 0-.027 0-.027.014-.013 0-.026.013-.052.013-.014 0-.014 0-.027.013-.013 0-.026.013-.04.026-.013 0-.013.014-.026.014-.013.013-.027.013-.04.026-.013 0-.013.013-.026.013-.014.014-.027.014-.027.027-.013.013-.026.013-.026.026l-.027.027c-.013.013-.026.013-.026.026-.013 0-.013.014-.013.027-.014.013-.027.026-.027.04 0 .013-.013.013-.013.026-.013.013-.013.026-.026.04-.014.013-.014.026-.014.026-.013.013-.013.026-.026.04-.013.013-.013.026-.027.053 0 .013-.013.013-.013.026-.026.066-.04.132-.053.198 0 .04-.013.08-.013.12V27.34c-.026-.053-.026-.013-.013.026zm32.607-1.203l-12.897-4.088 12.897-4.087v8.175zm-4.326.29H26.125l11.178-3.544 11.19 3.545zm-11.19-5.211l-11.178-3.545h22.368l-11.19 3.545zm-2.62.833l-12.897 4.088v-8.175l12.897 4.087zm19.725 10.318c0-.053-.013-.093-.013-.146v-.013c-.014-.053-.027-.093-.04-.145-.027-.04-.04-.093-.066-.133v-.013a.717.717 0 0 0-.093-.106h-.013c-.04-.026-.08-.066-.12-.092 0 0-.012 0-.012-.014-.04-.026-.08-.04-.12-.066 0 0-.013 0-.013-.013a1.712 1.712 0 0 0-.132-.04h-.013c-.04 0-.08-.013-.12-.013h-17.54c-.04 0-.079 0-.119.013h-.013c-.04.014-.093.027-.132.04h-.013a.538.538 0 0 0-.12.066s-.013 0-.013.013c-.04.027-.08.053-.119.093h-.013c-.04.04-.066.066-.093.106v.013c-.026.04-.053.08-.066.132-.013.04-.04.093-.04.146v.013c-.013.04-.013.093-.013.146v18.347c0 .053.014.093.014.145v.014c.013.053.026.092.04.145.026.04.039.093.065.133v.013c.027.04.067.079.093.105h.013c.04.027.066.067.106.093 0 0 .013 0 .013.013.04.027.08.04.12.067h.013c.04.013.079.026.132.04h.013c.04.012.093.012.132.012h17.501c.053 0 .093 0 .146-.013h.013c.04-.013.092-.026.132-.04h.013c.04-.013.08-.04.12-.066 0 0 .013 0 .013-.013a.336.336 0 0 0 .105-.093h.014a.664.664 0 0 0 .092-.105v-.014a.413.413 0 0 0 .066-.132c.014-.04.04-.092.04-.145v-.014c.013-.04.013-.092.013-.145V32.406l.027-.013zM43.772 41.56l-6.865 7.17V34.39l6.865 7.17zm-5.807-8.347h13.797l-6.892 7.21-6.905-7.21zm6.905 9.498l6.892 7.209H37.965l6.905-7.21zm1.098-1.151l6.866-7.17v14.34l-6.866-7.17zm-14.632-9.193V32.3c0-.013 0-.026-.013-.039a.602.602 0 0 0-.106-.251.699.699 0 0 0-.159-.186l-.013-.013c-.014-.013-.027-.013-.027-.026-.013-.014-.026-.014-.04-.027-.013 0-.013-.013-.026-.013-.013-.013-.026-.013-.053-.026 0 0-.013 0-.013-.014-.013-.013-.04-.013-.053-.026-.013 0-.013-.013-.026-.013-.014 0-.027-.014-.04-.014-.013 0-.026 0-.04-.013-.013 0-.026 0-.04-.013-.013 0-.026 0-.052-.013h-9.749c-.014 0-.04 0-.053.013-.014 0-.027 0-.04.013-.013 0-.026 0-.04.014-.013 0-.026.013-.04.013-.013 0-.026.013-.026.013-.013.013-.04.013-.053.026 0 0-.013 0-.013.014-.013.013-.026.013-.053.026-.013 0-.013.013-.026.013-.014.014-.027.014-.027.027-.013.013-.026.013-.026.026l-.014.013c-.066.067-.132.133-.172.212-.04.066-.066.146-.092.225v18.638c.013.08.053.146.093.225a.84.84 0 0 0 .172.212l.013.013c.013.013.026.013.026.027.013.013.027.013.027.026.013 0 .013.013.026.013.013.014.027.014.053.027h.013c.027.013.04.026.066.026.014 0 .014 0 .027.013.013.014.04.014.053.014.013 0 .026 0 .026.013.013 0 .04.013.053.013h9.762c.014 0 .04 0 .053-.013.014 0 .027 0 .027-.013.026 0 .04-.014.053-.014.013 0 .013 0 .026-.013.027-.013.04-.013.066-.026h.014c.013-.014.026-.014.053-.027.013 0 .013-.013.026-.013.013-.013.026-.013.04-.026.013-.014.026-.014.026-.027l.013-.013a.845.845 0 0 0 .265-.437c0-.013 0-.026.013-.04V32.42c.04-.027.04-.04.04-.053zm-6.469 9.193l-3.082 5.913V35.647l3.082 5.913zm-2.566-8.347h6.932l-3.466 6.64-3.466-6.64zm3.466 10.067l3.466 6.64H22.3l3.466-6.64zm.9-1.72l3.081-5.913v11.826l-3.082-5.913z"></path>
  </symbol>
  <symbol viewBox="0 0 73 62" xmlns="http://www.w3.org/2000/svg" id="member_3">
    <path d="M63.95 6.417a.773.773 0 0 0-.771.77c0 .424.347.77.77.77h6.396v2.312H63.95a.773.773 0 0 0-.771.77c0 .424.347.771.77.771h6.396v33.509H2.54V11.81h6.187c.424 0 .77-.347.77-.77a.773.773 0 0 0-.77-.771H2.541V7.957h6.187c.424 0 .77-.346.77-.77a.773.773 0 0 0-.77-.77H1v44.294h30.435v9.177h-5.949a.773.773 0 0 0-.77.77c0 .424.347.77.77.77h21.921c.424 0 .77-.346.77-.77a.773.773 0 0 0-.77-.77h-5.956v-9.177h30.435V6.417H63.95zm-24.04 53.48h-6.934v-9.185h6.934v9.185zM70.345 49.17H2.54v-2.31h67.804v2.311z" stroke-width=".3"></path>
    <path d="M12.118 41.043c.424 0 .77-.347.77-.77V7.641h47.109v32.63c0 .424.346.77.77.77.424 0 .77-.346.77-.77V1h-50.19v39.272c0 .424.347.77.771.77zm.77-38.502h47.109v3.56H12.889V2.54z" stroke-width=".3"></path>
    <path d="M20.817 3.334h-.3a.773.773 0 0 0-.77.771c0 .424.346.77.77.77h.3c.424 0 .77-.346.77-.77a.768.768 0 0 0-.77-.77zm-2.697 0h-.3a.773.773 0 0 0-.771.771c0 .424.347.77.77.77h.3a.772.772 0 0 0 .771-.77.773.773 0 0 0-.77-.77zm-2.703 0h-.3a.773.773 0 0 0-.771.771c0 .424.346.77.77.77h.3a.772.772 0 0 0 .771-.77.773.773 0 0 0-.77-.77zm24.747 30.312a.767.767 0 0 0 1.086-.039l8.969-9.577-8.969-9.577a.775.775 0 0 0-1.086-.039.775.775 0 0 0-.038 1.087l7.982 8.529-7.982 8.53a.76.76 0 0 0 .038 1.086zm-7.443-19.231a.76.76 0 0 0-1.086.038l-8.969 9.577 8.969 9.578a.772.772 0 0 0 .562.246c.193 0 .378-.07.524-.208a.775.775 0 0 0 .039-1.086l-7.983-8.53 7.983-8.53a.761.761 0 0 0-.039-1.085z" stroke-width=".3"></path>
  </symbol>
  <symbol viewBox="0 0 48 60" xmlns="http://www.w3.org/2000/svg" id="member_4">
    <path d="M35.886 14.608H11.248a.853.853 0 0 1-.853-.853V6.252c0-.471.382-.853.853-.853h6.56A5.779 5.779 0 0 1 23.568 0a5.779 5.779 0 0 1 5.758 5.4h6.56c.472 0 .854.381.854.852v7.503a.853.853 0 0 1-.854.853zm-23.785-1.706h22.932V7.105h-6.597a.852.852 0 0 1-.849-.937l.024-.192c.009-.068.02-.135.02-.205a4.069 4.069 0 0 0-4.064-4.065 4.069 4.069 0 0 0-4.064 4.065c0 .07.011.137.02.205l.024.192a.85.85 0 0 1-.85.937h-6.596v5.797z"></path>
    <path d="M23.566 7.773a1.217 1.217 0 1 0 0-2.434 1.217 1.217 0 0 0 0 2.434zM42.4 55.133H4.733V11.652H8.03v1.706H6.44v40.069h34.255V13.358h-1.437v-1.706H42.4v43.481z"></path>
    <path d="M43.372 60H3.76A3.764 3.764 0 0 1 0 56.24V10.68a3.764 3.764 0 0 1 3.76-3.76h4.37v1.706H3.76a2.056 2.056 0 0 0-2.054 2.054v45.56c0 1.132.922 2.054 2.054 2.054h39.612a2.056 2.056 0 0 0 2.053-2.054V10.68a2.056 2.056 0 0 0-2.053-2.054h-4.919V6.92h4.919a3.764 3.764 0 0 1 3.76 3.76v45.56a3.764 3.764 0 0 1-3.76 3.76z"></path>
    <path d="M14.63 28.602l-2.767-2.56 1.16-1.252 1.542 1.428 4.735-4.877 1.224 1.188-5.895 6.073zm0 10.325l-2.767-2.56 1.16-1.252 1.542 1.428 4.735-4.877 1.224 1.188-5.895 6.073zm0 10.325l-2.767-2.56 1.16-1.252 1.542 1.428 4.735-4.877 1.224 1.188-5.895 6.073zM36.575 23.82H24.783v1.706h11.792v-1.707zm0 10.324H24.783v1.706h11.792v-1.706zm0 10.326H24.783v1.706h11.792v-1.707z"></path>
  </symbol>
  <symbol viewBox="0 0 61 60" xmlns="http://www.w3.org/2000/svg" id="member_5">
    <path d="M59.709 24.764l-5.645-.545a23.64 23.64 0 0 0-2.871-6.782l3.58-4.322a.98.98 0 0 0-.06-1.314L48.76 5.789a.98.98 0 0 0-1.322-.065l-4.329 3.59a24.401 24.401 0 0 0-6.788-2.86L35.779.86a.959.959 0 0 0-.975-.86H26.27a.959.959 0 0 0-.975.86l-.545 5.604c-2.4.589-4.692 1.55-6.793 2.85l-4.323-3.589a.98.98 0 0 0-1.317.06l-6.025 6.011a.98.98 0 0 0-.062 1.319l3.588 4.326a24.505 24.505 0 0 0-2.865 6.777l-5.662.545a1.004 1.004 0 0 0-.913.975v8.522a1.004 1.004 0 0 0 .913.975l5.645.545a23.64 23.64 0 0 0 2.87 6.782l-3.58 4.322a.98.98 0 0 0 .064 1.319l6.026 6.012a.98.98 0 0 0 1.317.06l4.33-3.589a24.398 24.398 0 0 0 6.787 2.86l.545 5.593a.959.959 0 0 0 .975.86h8.534a.959.959 0 0 0 .975-.86l.544-5.605c2.4-.588 4.693-1.55 6.794-2.85l4.323 3.589a.979.979 0 0 0 1.317-.06l6.024-6.01a.98.98 0 0 0 .062-1.32l-3.587-4.325a24.505 24.505 0 0 0 2.865-6.778l5.589-.545a1.004 1.004 0 0 0 .912-.975v-8.52a1.004 1.004 0 0 0-.913-.975zm-1.047 8.609l-5.4.526a.996.996 0 0 0-.874.762 22.592 22.592 0 0 1-3.154 7.441.98.98 0 0 0 .063 1.16l3.469 4.186-4.762 4.752-4.188-3.472a.98.98 0 0 0-1.166-.063 21.696 21.696 0 0 1-7.44 3.129.953.953 0 0 0-.77.838l-.526 5.409h-6.756l-.527-5.41a.967.967 0 0 0-.771-.85 22.437 22.437 0 0 1-7.45-3.13.98.98 0 0 0-1.155.074l-4.188 3.473-4.76-4.751 3.47-4.185a.98.98 0 0 0 .061-1.168 21.697 21.697 0 0 1-3.139-7.429 1.012 1.012 0 0 0-.89-.766l-5.473-.527v-6.744l5.473-.526a.996.996 0 0 0 .876-.763 22.59 22.59 0 0 1 3.153-7.44.98.98 0 0 0-.064-1.16l-3.468-4.187 4.762-4.75 4.187 3.471a.98.98 0 0 0 1.166.063 21.697 21.697 0 0 1 7.441-3.13.952.952 0 0 0 .77-.838l.526-5.409h6.756l.526 5.41a.966.966 0 0 0 .772.85 22.436 22.436 0 0 1 7.45 3.13.98.98 0 0 0 1.155-.074L48 7.805l4.695 4.744-3.474 4.19a.98.98 0 0 0-.062 1.167 21.698 21.698 0 0 1 3.14 7.429 1.012 1.012 0 0 0 .89.766l5.473.527v6.745z"></path>
    <path d="M30.507 11.482c-10.225 0-18.544 8.293-18.544 18.504 0 10.21 8.319 18.504 18.544 18.504s18.544-8.294 18.544-18.504-8.319-18.504-18.544-18.504zm-6.724 26.38a9.853 9.853 0 0 1-3.093-7.572c.18-4.954 4.225-9.091 9.197-9.418a9.844 9.844 0 0 1 7.351 16.99c-1.676 1.587-2.56 3.873-2.425 6.275l.053 1.84a15.89 15.89 0 0 1-3.386.552V36.122h1.205a.98.98 0 1 0 0-1.959H28.33a.98.98 0 1 0 0 1.96h1.191v10.406a17.237 17.237 0 0 1-3.386-.554l.07-1.144a8.122 8.122 0 0 0-2.422-6.97zm13.026 7.454l-.038-1.252c0-.008 0-.017-.002-.026-.105-1.83.556-3.561 1.814-4.75a11.826 11.826 0 0 0 3.708-8.594 11.802 11.802 0 0 0-12.524-11.777c-5.97.392-10.818 5.356-11.035 11.298a11.807 11.807 0 0 0 3.704 9.07 6.157 6.157 0 0 1 1.825 5.314.913.913 0 0 0-.008.077l-.038.644C18.18 42.84 13.922 36.908 13.922 30c0-9.13 7.44-16.559 16.585-16.559S47.093 20.87 47.093 30c0 6.904-4.256 12.834-10.284 15.316z"></path>
  </symbol>
  <symbol viewBox="0 0 66 60" xmlns="http://www.w3.org/2000/svg" id="member_6">
    <path d="M4.451 51.703h2.331v7.31a.987.987 0 0 0 1.482.854l14.13-8.164h28.233a4.455 4.455 0 0 0 4.45-4.45V20.62l7.706-10.48 1.965-2.671c.86-1.172.42-2.91-1.004-3.959L59.957.726c-1.425-1.048-3.215-.95-4.079.221L53.913 3.62v.002l-7.263 9.876H4.45A4.45 4.45 0 0 0 0 17.937v29.316a4.455 4.455 0 0 0 4.451 4.45zm39.435-19.198l-1.194-2.668L58.558 8.262l2.048 1.506-16.72 22.737zM57.469 2.118c.144-.198.745-.22 1.316.2l3.789 2.785c.57.42.728.998.582 1.197l-1.38 1.876-2.842-2.09v-.001L56.09 3.993l1.379-1.875zm-2.55 3.467l2.048 1.507-15.866 21.575-2.902-.344 16.72-22.738zm-12.571 28.32l-5.367 2.032.34-5.728 3.563.421 1.464 3.274zM1.975 17.935a2.473 2.473 0 0 1 2.476-2.464h40.746L35.602 28.52c-.017.024-.02.052-.036.077a.962.962 0 0 0-.078.17.949.949 0 0 0-.055.201c-.004.027-.019.05-.02.078l-.493 8.296a.987.987 0 0 0 1.335.982l7.772-2.943c.017-.007.028-.021.044-.029.048-.02.087-.054.131-.083a.96.96 0 0 0 .214-.18c.017-.019.041-.026.056-.047l8.63-11.735v23.946a2.477 2.477 0 0 1-2.475 2.474H22.129a.984.984 0 0 0-.494.133L8.757 57.3v-6.585a.987.987 0 0 0-.987-.988H4.45a2.478 2.478 0 0 1-2.476-2.474V17.936z"></path>
    <path d="M10.253 24.185h24.66a.987.987 0 1 0 0-1.976h-24.66a.987.987 0 1 0 0 1.976zm0 9.402h19.59a.987.987 0 1 0 0-1.975h-19.59a.987.987 0 1 0 0 1.975zm0 9.403h34.572a.987.987 0 1 0 0-1.975H10.252a.987.987 0 1 0 0 1.975z"></path>
  </symbol>


<symbol viewBox="0 0 49 60"  xmlns="http://www.w3.org/2000/svg" id="member_8">
    <g>
      <path d="M34.336 46.744l-3.439-3.887c-.997.349-2.043.598-3.09.797l-.348-1.893c1.146-.2 2.292-.548 3.388-.947l.648-.25 3.29 3.738 1.693-.947-1.594-4.684.548-.399a19.132 19.132 0 0 0 2.84-2.84l.4-.548 4.684 1.594.946-1.694-3.687-3.289.249-.648a17.549 17.549 0 0 0 1.046-3.837l.1-.698 4.834-.947v-1.993l-4.834-.997-.1-.697a17.549 17.549 0 0 0-1.046-3.838l-.25-.647 3.688-3.29-.947-1.694-4.684 1.595-.399-.548a19.132 19.132 0 0 0-2.84-2.84l-.548-.4 1.594-4.684-1.694-.996-3.289 3.737-.648-.25a17.542 17.542 0 0 0-3.837-1.046l-.698-.1-.996-4.883h-1.944l-.997 4.834-.647.1a17.54 17.54 0 0 0-3.838 1.046l-.648.25-3.289-3.738-1.694.996 1.595 4.685-.548.398a19.138 19.138 0 0 0-2.84 2.841l-.4.548-4.684-1.595-.947 1.695 3.688 3.289-.25.648a17.54 17.54 0 0 0-1.046 3.837l-.1.698-4.833.996v1.994l4.834.996.1.698a17.48 17.48 0 0 0 1.046 3.837l.249.648-3.688 3.289.997 1.694 4.684-1.594.449.548a16.706 16.706 0 0 0 2.84 2.79l.549.4-1.595 4.684 1.694.996 3.24-3.737.647.249c1.047.399 2.193.747 3.339.947l-.349 1.893c-1.046-.199-2.093-.448-3.09-.797l-3.438 3.887-4.435-2.541 1.644-4.934a21.745 21.745 0 0 1-2.143-2.143l-4.933 1.645-2.542-4.435 3.887-3.439c-.348-.947-.598-1.944-.797-2.94L0 26.96v-5.133l5.083-1.046c.2-.997.449-1.994.797-2.94l-3.887-3.439 2.542-4.435 4.933 1.644a21.75 21.75 0 0 1 2.143-2.143L9.967 4.535l4.435-2.542 3.439 3.887c.946-.348 1.943-.598 2.94-.797L21.827 0h5.133l1.047 5.083c.996.2 1.993.449 2.94.797l3.438-3.887 4.436 2.542-1.645 4.933c.797.648 1.495 1.396 2.193 2.143l4.933-1.644 2.542 4.435-3.887 3.438c.349.947.598 1.944.797 2.94l5.083.997v5.133l-5.083.997c-.2.997-.448 1.993-.797 2.94l3.887 3.439-2.542 4.435-4.933-1.645c-.648.798-1.396 1.495-2.193 2.143l1.645 4.934-4.485 2.591z"></path>
      <path d="M24.369 39.369c-8.273 0-15-6.728-15-15 0-8.273 6.727-15 15-15 8.272 0 15 6.727 15 15 .05 8.272-6.728 15-15 15zm0-28.106c-7.176 0-13.057 5.88-13.057 13.056 0 7.226 5.831 13.057 13.057 13.057s13.106-5.88 13.106-13.057c0-7.176-5.88-13.056-13.106-13.056z"></path>
      <path d="M24.419 60a4.182 4.182 0 0 1-2.99-1.246 4.182 4.182 0 0 1-1.246-2.99v-17.79h1.943v17.79c0 .598.25 1.196.698 1.645.449.448.997.697 1.645.697.598 0 1.196-.249 1.644-.697.449-.449.698-.997.698-1.645v-17.79h1.943v17.79a4.182 4.182 0 0 1-1.246 2.99A4.458 4.458 0 0 1 24.418 60zm-.05-24.17c-6.33 0-11.462-5.182-11.462-11.511 0-6.329 5.133-11.512 11.462-11.512S35.88 17.99 35.88 24.32a11.485 11.485 0 0 1-11.51 11.511zm0-21.03c-5.283 0-9.568 4.286-9.568 9.569 0 5.282 4.285 9.568 9.568 9.568 5.282 0 9.568-4.286 9.568-9.568 0-5.283-4.286-9.568-9.568-9.568z"></path>
      <path d="M18.439 24.319h-1.944a7.912 7.912 0 0 1 7.924-7.924v1.944a5.966 5.966 0 0 0-5.98 5.98z"></path>
    </g>
  </symbol>
  <symbol viewBox="0 0 46 60"  xmlns="http://www.w3.org/2000/svg" id="member_9">
    <g>
      <path d="M42.389 60H3.179A3.166 3.166 0 0 1 0 56.821V25.433a3.166 3.166 0 0 1 3.18-3.179h7.518v.959c0 6.661 5.45 12.111 12.111 12.111 6.661 0 12.111-5.45 12.111-12.111v-.959h7.519a3.166 3.166 0 0 1 3.18 3.18V56.82c-.051 1.766-1.464 3.18-3.23 3.18zM3.179 24.273c-.656 0-1.21.555-1.21 1.21v31.388a1.226 1.226 0 0 0 1.21 1.212h39.21c.656 0 1.21-.555 1.21-1.212V25.433c0-.656-.554-1.21-1.21-1.21h-5.602c-.504 7.316-6.61 13.069-14.028 13.069S9.235 31.489 8.73 24.222H3.18v.05z"></path>
      <path d="M34.415 28.41l-4.188-4.138H15.34l-4.137 4.138-1.413-1.362 4.743-4.744h16.501l4.744 4.744-1.363 1.362z"></path>
      <path d="M36.838 23.263H34.87V7.216l-5.198-5.248H10.698v21.295H8.73V0h21.75l6.358 6.409v16.854z"></path>
      <path d="M35.879 7.771h-6.813V1.01h1.969v4.845h4.844V7.77zM9.74 24.273H4.39V13.575h5.35v1.968H6.357v6.762H9.74v1.968zm31.488 0h-5.35v-1.968h3.382v-6.762h-3.381v-1.968h5.349v10.698zM32.7 31.64l-7.973-7.973v-4.743h1.968v3.936l7.367 7.418L32.7 31.64zm-19.782 0l-1.413-1.362 7.418-7.418v-3.936h1.918v4.743l-7.923 7.973zm32.65-15.139H43.6v4.794h1.968v-4.794zm-43.549.001H.05v4.794h1.968v-4.794z"></path>
      <path d="M44.559 17.914h-4.34v1.968h4.34v-1.968zm-39.209 0H1.01v1.968h4.34v-1.968zm39.259 22.254h-43.6v1.968h43.6v-1.968zM20.134 15.543h-1.968V8.73c0-.252-.1-.505-.302-.656-.202-.202-.404-.303-.656-.303h-1.312c-.253 0-.505.101-.656.303-.202.202-.303.404-.303.656v6.813h-1.968V8.73c0-.757.303-1.514.858-2.069a2.858 2.858 0 0 1 2.069-.858h1.312c.757 0 1.514.303 2.069.858.555.555.857 1.262.857 2.07v6.812z"></path>
      <path d="M20.134 9.689H13.02v1.968h7.115V9.689zm7.318-.354h-5.248v1.968h5.248V9.335zm5.197 4.239H22.203v1.968H32.65v-1.968zM12.01 45.416h-1.968v1.968h1.968v-1.968zm3.936 0h-1.969v1.969h1.969v-1.968zm3.936 0h-1.968v1.969h1.968v-1.968zm3.885 0H21.8v1.969h1.968v-1.968zm3.937 0h-1.968v1.969h1.968v-1.968zm3.936 0h-1.968v1.969h1.968v-1.968zm3.936 0h-1.968v1.969h1.968v-1.968zM12.01 53.238h-1.968v1.968h1.968v-1.968zm23.566 0h-1.968v1.968h1.968v-1.968zm-3.936 0H13.976v1.968H31.64v-1.968zm-21.598-3.936H8.074v1.968h1.968v-1.968zm3.936 0H12.01v1.968h1.968v-1.968zm3.936 0h-1.968v1.968h1.968v-1.968zm3.886 0h-1.968v1.968H21.8v-1.968zm3.936 0h-1.968v1.968h1.968v-1.968zm3.936 0h-1.968v1.968h1.968v-1.968zm3.936 0H31.64v1.968h1.968v-1.968zm3.886 0h-1.968v1.968h1.968v-1.968z"></path>
    </g>
  </symbol>
  <symbol viewBox="0 0 62 60"  xmlns="http://www.w3.org/2000/svg" id="member_10">
    <g>
      <path d="M2.233 41.966H0v2.232h2.233v-2.232zm0-2.348H0v-2.29h2.233v2.29zm0-4.637H0v-2.348h2.233v2.348zm0-4.695H0V27.94h2.233v2.347zm0-4.695H0v-2.347h2.233v2.347zm0-4.637H0v-2.347h2.233v2.347zm0-4.695H0v-2.347h2.233v2.347zm0-4.694H0V9.217h2.233v2.348zm0-4.695H0V4.523h2.233V6.87zm0-6.87H0v2.233h2.233V0zm54.79 2.233h-2.29V0h2.29v2.233zm-4.58 0h-2.29V0h2.29v2.233zm-4.58 0h-2.29V0h2.29v2.233zm-4.58 0h-2.29V0h2.29v2.233zm-4.524 0h-2.29V0h2.29v2.233zm-4.58 0h-2.29V0h2.29v2.233zm-4.58 0h-2.29V0h2.29v2.233zm-4.523 0h-2.29V0h2.29v2.233zm-4.58 0h-2.29V0h2.29v2.233zm-4.58 0h-2.29V0h2.29v2.233zm-4.58 0h-2.29V0h2.29v2.233zm-4.523 0h-2.29V0h2.29v2.233zM61.546 0h-2.233v2.233h2.233V0zm-.057 39.618h-2.233v-2.29h2.233v2.29zm0-4.637h-2.233v-2.348h2.233v2.348zm0-4.695h-2.233V27.94h2.233v2.347zm0-4.695h-2.233v-2.347h2.233v2.347zm0-4.637h-2.233v-2.347h2.233v2.347zm0-4.695h-2.233v-2.347h2.233v2.347zm0-4.694h-2.233V9.217h2.233v2.348zm0-4.695h-2.233V4.523h2.233V6.87zm.057 35.096h-2.233v2.232h2.233v-2.232zm-4.523 2.232h-2.29v-2.232h2.29v2.232zm-4.58 0h-2.29v-2.232h2.29v2.232zm-4.58 0h-2.29v-2.232h2.29v2.232zm-4.58 0h-2.29v-2.232h2.29v2.232zm-4.524 0h-2.29v-2.232h2.29v2.232zm-4.58 0h-2.29v-2.232h2.29v2.232zm-4.58 0h-2.29v-2.232h2.29v2.232zm-4.523 0h-2.29v-2.232h2.29v2.232zm-4.58 0h-2.29v-2.232h2.29v2.232zm-4.58 0h-2.29v-2.232h2.29v2.232zm-4.58 0h-2.29v-2.232h2.29v2.232zm-4.523 0h-2.29v-2.232h2.29v2.232zm49.752-4.923H4.924V4.924h51.64v34.35zM7.156 37.042h47.176V7.156H7.156v29.886z"></path>
      <path d="M6.87 38.931l-1.603-1.545L25.65 17.004l12.194 12.195 5.096-5.096 13.28 13.283-1.545 1.545-11.737-11.679-5.096 5.095L25.65 20.153 6.87 38.93zm29.313-19.465a4.594 4.594 0 0 1-4.58-4.58c0-2.52 2.061-4.58 4.58-4.58 2.52 0 4.58 2.06 4.58 4.58 0 2.519-2.06 4.58-4.58 4.58zm0-6.928a2.322 2.322 0 0 0-2.347 2.348 2.322 2.322 0 0 0 2.347 2.347 2.322 2.322 0 0 0 2.348-2.347 2.322 2.322 0 0 0-2.348-2.348zM61.489 60H0V46.89h61.489V60zM2.233 57.767h57.08v-8.645H2.233v8.645z"></path>
      <path d="M56.966 48.034h-2.233v3.435h2.233v-3.435zm-4.581 0h-2.233v3.435h2.233v-3.435zm-4.523 0H45.63v3.435h2.232v-3.435zm-4.58 0H41.05v3.435h2.232v-3.435zm-4.58 0H36.47v3.435h2.233v-3.435zm-4.522 0h-2.233v3.435h2.232v-3.435zm-4.581 0h-2.233v3.435H29.6v-3.435zm-4.58 0h-2.233v3.435h2.233v-3.435zm-4.523 0h-2.233v3.435h2.233v-3.435zm-4.58 0h-2.233v3.435h2.233v-3.435zm-4.58 0H9.103v3.435h2.233v-3.435zm-4.523.001H4.58v3.435h2.233v-3.435z"></path>
    </g>
  </symbol>
  <symbol viewBox="0 0 58 60"  xmlns="http://www.w3.org/2000/svg" id="member_11">
    <g>
      <path d="M54.657 60H32.271V49.261h22.386c.748 0 1.443.267 1.977.801.534.535.801 1.23.801 1.977v5.183c0 .748-.267 1.442-.801 1.977-.534.48-1.229.801-1.977.801zm-20.303-2.084h20.303c.16 0 .374-.053.48-.213.108-.16.215-.321.215-.481v-5.183c0-.16-.054-.374-.214-.48-.107-.107-.32-.214-.481-.214H34.354v6.571z"></path>
      <path d="M52.627 53.589H37.026v2.083h15.6V53.59zm-23.722 4.648V50.97h5.45v7.266h-5.45zm2.084-5.183v3.1h1.282v-3.1h-1.282zM6.732 57.756L0 56.046v-2.885l6.732-1.71 3.633 3.153-3.633 3.152zm-4.007-3.152l3.473.908 1.015-.908-1.015-.908-3.473.908z"></path>
      <path d="M29.973 53.589H8.763v2.083h21.21V53.59zm23.188-7.213H4.274A4.287 4.287 0 0 1 0 42.102v-31.79a4.287 4.287 0 0 1 4.274-4.275h48.887a4.287 4.287 0 0 1 4.274 4.275v31.79a4.287 4.287 0 0 1-4.274 4.274zM4.274 8.068c-1.229 0-2.19.961-2.19 2.19v31.79c0 1.229.961 2.19 2.19 2.19h48.887c1.229 0 2.19-.961 2.19-2.19v-31.79c0-1.229-.961-2.19-2.19-2.19H4.274z"></path>
      <path d="M53.268 42.208h-49.1V10.151h49.1v32.057zM6.251 40.125h44.933v-27.89H6.251v27.89zM38.522 1.069h-2.084v5.984h2.084V1.069zm-17.525 0h-2.083v5.984h2.083V1.069z"></path>
      <path d="M40.712 0H16.723v2.084h23.99V0zM28.691 34.622c-4.648 0-8.442-3.794-8.442-8.442s3.794-8.442 8.442-8.442 8.442 3.794 8.442 8.442a8.425 8.425 0 0 1-8.442 8.442zm0-14.8a6.339 6.339 0 0 0-6.358 6.358 6.34 6.34 0 0 0 6.358 6.358 6.339 6.339 0 0 0 6.358-6.358c.053-3.526-2.832-6.358-6.358-6.358z"></path>
      <path d="M28.69 29.973a3.808 3.808 0 0 1-3.793-3.793 3.808 3.808 0 0 1 3.794-3.793 3.808 3.808 0 0 1 3.793 3.793 3.808 3.808 0 0 1-3.793 3.793zm0-5.503c-.96 0-1.709.748-1.709 1.71s.748 1.71 1.71 1.71 1.71-.748 1.71-1.71c0-.908-.748-1.71-1.71-1.71zm1.07-8.655h-2.084v2.992h2.083v-2.992zm-3.792 3.41l-1.496-2.59-1.804 1.041 1.496 2.591 1.804-1.042zm-3.202 2.432l-2.59-1.496-1.042 1.804 2.59 1.496 1.042-1.804zm-1.448 3.508h-2.992v2.083h2.992v-2.083zm1.504 5.599l-1.043-1.804-2.59 1.498 1.043 1.804 2.59-1.498zm3.086 2.264l-1.805-1.042-1.496 2.591 1.805 1.042 1.496-2.59zm3.852.578h-2.084v2.992h2.083v-2.992zm5.096 1.029l-1.497-2.59-1.804 1.043 1.497 2.59 1.804-1.043zm3.424-4.05l-2.59-1.496-1.043 1.805 2.592 1.496 1.042-1.805zm.83-5.42h-2.993v2.083h2.992v-2.083zm-.925-3.29l-1.042-1.805-2.59 1.496 1.04 1.805 2.592-1.496zm-3.425-4.183l-1.803-1.043-1.498 2.59 1.804 1.043 1.498-2.59z"></path>
    </g>
  </symbol>
  <symbol viewBox="0 0 80 57"  xmlns="http://www.w3.org/2000/svg" id="member_12">
    <g>
      <path d="M17.091 24.06h-2.364v-7.757c0-.788.304-1.576.91-2.121.606-.607 1.333-.91 2.12-.91h20.667v2.364H17.758a.688.688 0 0 0-.485.182.688.688 0 0 0-.182.485v7.757zM73.03 51.333H14.728V44.97h2.364v4h53.576V29.211h2.364v22.121z"></path>
      <path d="M68.546 51.333H19.212V44.97h2.364v4h44.606V29.211h2.364v22.121zM21.576 24.06h-2.364v-6.303h19.213v2.364H21.576v3.94z"></path>
      <path d="M75.03 56.303H12.667c-.97 0-1.88-.364-2.606-1.091a3.772 3.772 0 0 1-1.091-2.606v-3.697h69.697v3.697c0 .97-.364 1.879-1.091 2.606-.606.727-1.576 1.09-2.546 1.09zm-63.636-4.97v1.334c0 .363.121.666.364.909.242.242.606.363.909.363H75.03a1.237 1.237 0 0 0 1.273-1.273v-1.333H11.394zm22-5.151H0V22.909h33.394v23.273zm-31.03-2.364H31.09V25.273H2.364v18.545z"></path>
      <path d="M11.395 32.667H9.03v5.212h2.364v-5.212zM7.03 36.303H4.668v1.515h2.364v-1.515zm8.668-1.697h-2.364v3.212h2.364v-3.212zm4.363-4.485h-2.364v7.758h2.364V30.12zm4.364 1.819H22.06v5.878h2.364v-5.879zm4.363-4h-2.363v9.939h2.363v-9.94zm0 11.636H4.667v2.363h24.121v-2.363zM80 30.364H37.273V1.515H80v28.849zM39.636 28h38.061V3.88h-38.06V28z"></path>
      <path d="M45.515 21.455l-1.636-1.697 7.03-7.03 4.606 4.666 6.243-6.182 4.606 4.667 5.394-5.394 1.636 1.697-7.03 6.97-4.606-4.607-6.243 6.182-4.606-4.666-5.394 5.394z"></path>
      <path d="M73.758 16.06h-2.364v-3.575h-3.576v-2.364h5.94v5.94zM53.152 44.727c-2.97 0-5.334-2.424-5.334-5.333 0-2.97 2.425-5.333 5.334-5.333 2.97 0 5.333 2.424 5.333 5.333 0 2.91-2.364 5.333-5.333 5.333zm0-8.363a3.038 3.038 0 0 0-3.03 3.03c0 1.636 1.333 3.03 3.03 3.03a3 3 0 0 0 3.03-3.03c-.06-1.697-1.394-3.03-3.03-3.03zM25.03 8.606a4.32 4.32 0 0 1-4.303-4.303A4.32 4.32 0 0 1 25.032 0a4.32 4.32 0 0 1 4.303 4.303c.06 2.364-1.88 4.303-4.303 4.303zm0-6.303c-1.09 0-1.939.91-1.939 1.94 0 1.09.91 1.939 1.94 1.939 1.09 0 1.939-.91 1.939-1.94.06-1.09-.848-1.939-1.94-1.939z"></path>
    </g>
  </symbol>
  <symbol viewBox="0 0 58 60"  xmlns="http://www.w3.org/2000/svg" id="member_7">
    <g>
      <path d="M5.704 44.26v-9.19H0V7.024h19.225v2.06H2.06V33.01h5.704v6.338l6.285-6.338h30.212v-8.24h2.06v10.3H14.893l-9.19 9.19zM47.746 7.447H27.94v2.06h19.806v-2.06z"></path>
      <path d="M47.746 11.884H27.94v2.06h19.806v-2.06zm-9.929 4.384H27.94v2.06h9.877v-2.06z"></path>
      <path d="M57.412 25.775H18.169V0h39.243v25.775zm-37.183-2.06h35.123V2.06H20.229v21.655zM53.61 60H16.425V41.092H53.61V60zm-35.124-2.06H51.55V43.1H18.486v14.84z"></path>
      <path d="M25.774 45.37h-2.06v2.06h2.06v-2.06zm4.12 0h-2.06v2.06h2.06v-2.06zm4.12 0h-2.06v2.06h2.06v-2.06zm4.066 0h-2.06v2.06h2.06v-2.06zm4.12 0h-2.06v2.06h2.06v-2.06zm4.12 0h-2.06v2.06h2.06v-2.06zm-20.546 8.24h-2.06v2.059h2.06v-2.06zm20.546-.001h-2.06v2.06h2.06v-2.06zm-4.12 0H27.835v2.06h14.367v-2.06zM23.715 49.49h-2.06v2.06h2.06v-2.06zm4.119 0h-2.06v2.06h2.06v-2.06zm4.12 0h-2.06v2.06h2.06v-2.06zm4.12 0h-2.06v2.06h2.06v-2.06zm4.066 0h-2.059v2.06h2.06v-2.06zm4.12 0H42.2v2.06h2.06v-2.06zm4.12 0h-2.06v2.06h2.06v-2.06z"></path>
    </g>
  </symbol>


</svg>