<svg style="display: none;">
  <symbol viewBox="0 0 63 62" xmlns="http://www.w3.org/2000/svg" id="h_2">
    <path d="M33.787 1a.69.69 0 0 0-.544.667l-.041 6.007c0 .349.319.666.67.667H48.6c.35 0 .67-.318.67-.667l.041-6.007a.694.694 0 0 0-.67-.667H33.788zm.795 1.333h13.39l-.041 4.674H34.54l.041-4.674zM21.695 5.008a.69.69 0 0 0-.544.666v5.333c0 .349.319.666.669.666h1.34v4H2.278a.69.69 0 0 0-.544.666v4c0 .348.319.666.67.666h1.338v38.66H1.61a.697.697 0 0 0-.606.728.698.698 0 0 0 .732.605H61.32a.693.693 0 0 0 .68-.668.695.695 0 0 0-.679-.667h-2.009v-47.99h1.34c.35 0 .669-.318.669-.667V5.674a.694.694 0 0 0-.67-.666H49.94V6.34h10.043v4H22.49v-4h10.042V5.008H21.695zm2.803 6.665h33.475v47.991h-4.017v-15.33a.694.694 0 0 0-.67-.667h-9.498a.69.69 0 0 0-.544.667v15.33H24.498v-47.99zm4.561 4a.69.69 0 0 0-.544.666v4c0 .348.32.666.67.666h9.373c.35 0 .67-.318.67-.667V16.34a.694.694 0 0 0-.67-.667h-9.499zm14.73 0a.69.69 0 0 0-.545.666v4c0 .348.32.666.67.666h9.373c.35 0 .67-.318.67-.667V16.34a.694.694 0 0 0-.67-.667h-9.499zM3.073 17.005h20.085v2.666H3.074v-2.666zm26.78 0h8.034v2.666h-8.034v-2.666zm14.73 0h8.033v2.666h-8.034v-2.666zm-39.502 4H23.16v38.66H5.082v-38.66zm3.892 4a.69.69 0 0 0-.544.666v3.999c0 .349.319.666.67.666h9.373c.35 0 .669-.317.669-.666v-4a.694.694 0 0 0-.67-.666H8.975zm20.085 0a.69.69 0 0 0-.544.666v3.999c0 .349.32.666.67.666h9.373c.35 0 .67-.317.67-.666v-4a.694.694 0 0 0-.67-.666h-9.499zm14.73 0a.689.689 0 0 0-.545.666v3.999c0 .349.32.666.67.666h9.373c.35 0 .67-.317.67-.666v-4a.694.694 0 0 0-.67-.666h-9.499zm-34.02 1.332h8.034v2.666H9.769v-2.666zm20.085 0h8.034v2.666h-8.034v-2.666zm14.73 0h8.033v2.666h-8.034v-2.666zm-35.61 7.999a.69.69 0 0 0-.544.666v4c0 .348.319.666.67.666h9.373c.35 0 .669-.318.669-.666v-4a.694.694 0 0 0-.67-.666H8.975zm20.085 0a.69.69 0 0 0-.544.666v4c0 .348.32.666.67.666h9.373c.35 0 .67-.318.67-.666v-4a.694.694 0 0 0-.67-.666h-9.499zm14.73 0a.69.69 0 0 0-.545.666v4c0 .348.32.666.67.666h9.373c.35 0 .67-.318.67-.666v-4a.694.694 0 0 0-.67-.666h-9.499zm-34.02 1.333h8.034v2.666H9.769v-2.666zm20.085 0h8.034v2.666h-8.034v-2.666zm14.73 0h8.033v2.666h-8.034v-2.666zm-35.61 7.998a.69.69 0 0 0-.544.667v4c0 .348.319.666.67.666h9.373c.35 0 .669-.318.669-.667v-4a.694.694 0 0 0-.67-.666H8.975zm20.085 0a.69.69 0 0 0-.544.667v4c0 .348.32.666.67.666h9.373c.35 0 .67-.318.67-.667v-4a.694.694 0 0 0-.67-.666h-9.499zM9.77 45h8.034v2.667H9.769V45zm20.085 0h8.034v2.667h-8.034V45zm14.73 0h8.033v14.664h-8.034V45z" stroke-width=".3"></path>
  </symbol>
  <symbol viewBox="0 0 62 62" xmlns="http://www.w3.org/2000/svg" id="h_3">
    <path d="M56.08 13.105h-8.877V7.76a4.608 4.608 0 0 0-4.601-4.604h-1.26v-.1A2.058 2.058 0 0 0 39.288 1h-17.95a2.058 2.058 0 0 0-2.056 2.057v.1h-1.025a4.609 4.609 0 0 0-4.602 4.604v5.344H5.919A4.926 4.926 0 0 0 1 18.026v38.053A4.926 4.926 0 0 0 5.92 61h50.16A4.926 4.926 0 0 0 61 56.079V18.026a4.927 4.927 0 0 0-4.92-4.921zm-45.33 1.5h8.062v5.575H10.75v-5.575zm6.05 7.076v37.818h-4.07V21.68h4.07zm1.5 0h1.262a.75.75 0 0 0 .75-.75v-6.326h20.281v6.325c0 .415.336.75.75.75h1.214V59.5H18.301V21.68zm25.757 0h4.07v37.818h-4.07V21.68zm-1.964-1.5v-5.576h8.063v5.575h-8.063zM20.781 3.056c0-.307.249-.556.556-.556h17.95c.307 0 .556.249.556.556v1.701a.556.556 0 0 1-.555.556H21.337a.556.556 0 0 1-.556-.556v-1.7zM15.154 7.76a3.106 3.106 0 0 1 3.102-3.103h1.025v.1c0 1.135.922 2.057 2.056 2.057h17.95a2.058 2.058 0 0 0 2.056-2.057v-.1h1.26a3.106 3.106 0 0 1 3.1 3.103v5.344h-30.55V7.76zM2.5 56.078V18.026a3.424 3.424 0 0 1 3.42-3.42h3.33v6.324c0 .415.335.75.75.75h1.231V59.5H5.92a3.424 3.424 0 0 1-3.42-3.422zm57 0a3.424 3.424 0 0 1-3.42 3.42h-6.453V21.682h1.279a.75.75 0 0 0 .75-.75v-6.326h4.424a3.424 3.424 0 0 1 3.42 3.421v38.052z" stroke-width=".5"></path>
  </symbol>
  <symbol viewBox="0 0 66 62" xmlns="http://www.w3.org/2000/svg" id="h_1">
    <path d="M31.929 15.917c-5.613 0-10.179 4.666-10.179 10.402 0 5.736 4.566 10.402 10.179 10.402 5.612 0 10.178-4.666 10.178-10.402 0-5.736-4.566-10.402-10.178-10.402zm0 19.243c-4.752 0-8.618-3.966-8.618-8.841 0-4.875 3.866-8.841 8.618-8.841 4.752 0 8.617 3.966 8.617 8.84 0 4.876-3.866 8.841-8.617 8.841v.001z"></path>
    <path d="M31.929 10.472c-8.574 0-15.549 7.108-15.549 15.846s6.975 15.847 15.549 15.847c8.573 0 15.548-7.109 15.548-15.847S40.502 10.471 31.93 10.471zm0 30.132c-7.713 0-13.988-6.408-13.988-14.286 0-7.877 6.275-14.286 13.988-14.286 7.713 0 13.987 6.408 13.987 14.286 0 7.878-6.274 14.286-13.987 14.286zM7.122 22.598v8.793H4.229a.78.78 0 0 0-.78.78v24.487a4.454 4.454 0 0 0 8.906 0V32.172a.78.78 0 0 0-.78-.78H8.682v-8.794c3.44-.375 6.122-3.192 6.122-6.603V3.19a.78.78 0 1 0-1.561 0v12.804c0 2.552-1.984 4.67-4.56 5.03V3.249a.78.78 0 1 0-1.561 0v17.778c-2.577-.361-4.561-2.48-4.561-5.031V3.19A.78.78 0 1 0 1 3.19v12.804c0 3.41 2.682 6.228 6.122 6.603zm3.672 34.06a2.892 2.892 0 0 1-5.785 0V32.952h5.785v23.706zM64.22 35.065h-2.893V1.89a.78.78 0 0 0-.78-.78h-1.148a7.293 7.293 0 0 0-7.285 7.284v21.042a.78.78 0 0 0 .78.78h6.872v4.849h-2.892a.78.78 0 0 0-.78.78v20.813a4.454 4.454 0 0 0 8.906 0V35.845a.78.78 0 0 0-.78-.78zM53.674 8.394A5.73 5.73 0 0 1 59.4 2.67h.367v25.986h-6.09V8.394zm9.764 48.264a2.892 2.892 0 0 1-5.785 0V36.626h5.785v20.032z"></path>
    <path d="M31.929 15.917c-5.613 0-10.179 4.666-10.179 10.402 0 5.736 4.566 10.402 10.179 10.402 5.612 0 10.178-4.666 10.178-10.402 0-5.736-4.566-10.402-10.178-10.402zm0 19.243c-4.752 0-8.618-3.966-8.618-8.841 0-4.875 3.866-8.841 8.618-8.841 4.752 0 8.617 3.966 8.617 8.84 0 4.876-3.866 8.841-8.617 8.841v.001z" stroke-width=".5"></path>
    <path d="M31.929 10.472c-8.574 0-15.549 7.108-15.549 15.846s6.975 15.847 15.549 15.847c8.573 0 15.548-7.109 15.548-15.847S40.502 10.471 31.93 10.471zm0 30.132c-7.713 0-13.988-6.408-13.988-14.286 0-7.877 6.275-14.286 13.988-14.286 7.713 0 13.987 6.408 13.987 14.286 0 7.878-6.274 14.286-13.987 14.286zM7.122 22.598v8.793H4.229a.78.78 0 0 0-.78.78v24.487a4.454 4.454 0 0 0 8.906 0V32.172a.78.78 0 0 0-.78-.78H8.682v-8.794c3.44-.375 6.122-3.192 6.122-6.603V3.19a.78.78 0 1 0-1.561 0v12.804c0 2.552-1.984 4.67-4.56 5.03V3.249a.78.78 0 1 0-1.561 0v17.778c-2.577-.361-4.561-2.48-4.561-5.031V3.19A.78.78 0 1 0 1 3.19v12.804c0 3.41 2.682 6.228 6.122 6.603zm3.672 34.06a2.892 2.892 0 0 1-5.785 0V32.952h5.785v23.706zM64.22 35.065h-2.893V1.89a.78.78 0 0 0-.78-.78h-1.148a7.293 7.293 0 0 0-7.285 7.284v21.042a.78.78 0 0 0 .78.78h6.872v4.849h-2.892a.78.78 0 0 0-.78.78v20.813a4.454 4.454 0 0 0 8.906 0V35.845a.78.78 0 0 0-.78-.78zM53.674 8.394A5.73 5.73 0 0 1 59.4 2.67h.367v25.986h-6.09V8.394zm9.764 48.264a2.892 2.892 0 0 1-5.785 0V36.626h5.785v20.032z" stroke-width=".5"></path>
  </symbol>
</svg>