<svg width="64" height="60" viewBox="0 0 64 60" fill="none" xmlns="http://www.w3.org/2000/svg">
<path d="M28.6894 45.8237C29.1027 45.5182 29.6867 45.59 29.9922 46.0033C30.6122 43.829 32.9932 42.2566 35.2395 42.616C35.0148 39.9295 37.4767 37.5844 40.1183 37.6832C38.8514 33.3075 45.0062 29.5787 48.1959 33.7837L50.3882 36.6769C53.524 30.8097 53.9733 28.824 60.9097 25.8499L61.1882 3.37837C57.3067 7.22396 52.8142 10.5664 48.2049 13.4865C45.1679 15.4093 38.8155 12.2466 35.1227 13.7201C36.4884 14.412 37.5396 15.3734 38.0518 16.7122C39.148 19.5694 41.9333 24.6819 40.6844 27.4942C39.6152 29.8932 36.8118 30.9714 34.4128 29.9022C31.7712 28.7251 30.8817 24.601 29.8844 22.0043C26.3533 23.0646 11.6358 35.1944 7.61948 38.2493C5.03179 40.208 7.96091 44.2153 10.6205 42.1937L25.1133 31.205C26.0747 30.4503 27.2248 31.9418 26.2454 32.6875L13.0914 42.7328C12.5433 43.1461 12.2108 43.7571 12.13 44.395C11.8245 46.6233 14.3583 48.0609 16.1193 46.7222L27.6831 37.9528C28.6534 37.207 29.7856 38.6985 28.8062 39.4353L18.3835 47.3511C15.9666 49.4087 18.9855 53.1824 21.5553 51.2326C23.9363 49.4356 26.3083 47.6296 28.6894 45.8237ZM27.6291 54.5661L29.516 57.0549C31.6365 59.8493 35.8415 56.7045 33.8648 53.9012L31.8701 51.2776C31.2052 50.433 30.2438 50.0286 29.1925 50.3162C28.4558 50.5138 27.7819 51.026 27.3865 51.6819C26.9103 52.4905 26.8564 53.5508 27.6291 54.5661ZM28.0335 58.1781L27.5752 57.5851C24.5832 59.2203 20.9443 56.9291 21.124 53.5148C18.2757 54.3235 15.5443 51.7987 15.6341 48.9774C12.7679 49.6603 10.0365 47.387 10.2431 44.431C5.6877 45.6799 2.73163 39.7588 6.4065 36.8296C7.33196 36.1288 4.17822 28.1321 0.781875 27.602C0.323639 27.5301 -0.0088072 27.1348 0.00017783 26.6766L0.197848 0.925458C0.197848 0.413311 0.620145 0 1.14128 0C1.7882 0.00898503 18.734 11.0336 20.7915 12.3454C24.6192 12.031 29.1656 11.8692 32.9123 12.8935C36.8658 9.44327 44.7456 13.4686 47.2075 11.9052C52.2931 8.68852 57.3696 4.84293 61.4578 0.404326C61.8082 0.0269551 62.4012 0 62.7786 0.350416C62.9942 0.548087 63.0931 0.817638 63.0751 1.09617L62.7696 26.4879C62.7606 26.8742 62.518 27.2067 62.1766 27.3414C54.6112 30.4413 55.0425 32.4 51.6192 38.3032L52.5716 39.5521C55.339 43.191 51.6731 47.7554 47.8005 46.7671C47.7287 49.5974 44.7726 51.8436 42.0321 51.1428C41.9693 53.9821 39.0042 56.2103 36.2638 55.5185C36.1829 59.5079 30.7919 61.826 28.0335 58.1781ZM26.4251 56.0666L26.1466 55.6982C24.8348 53.9731 24.9426 52.1401 25.7872 50.7295C25.9669 50.415 26.1915 50.1365 26.4341 49.8759C25.338 50.7115 23.2265 51.8256 23.0019 53.407C22.7413 55.3208 24.6461 56.7854 26.4251 56.0666ZM27.701 48.9145C28.4108 48.5371 29.2105 48.3305 30.0281 48.3574C29.9203 47.989 29.8574 47.6386 29.8484 47.2792L27.701 48.9145ZM39.5613 49.4266L36.6052 45.5271C34.4218 42.7058 30.1719 45.9494 32.3193 48.7797L35.2844 52.6792C37.4138 55.5005 41.7267 52.2749 39.5613 49.4266ZM42.104 40.81C39.8488 37.8539 35.3024 40.7381 38.0248 44.3232L41.0438 48.3035C43.1912 51.1338 47.4681 47.8902 45.3207 45.0509L42.104 40.81ZM43.4608 39.5162L46.8122 43.9278C48.9057 46.7491 53.2365 43.4965 51.0891 40.6752C49.6335 38.7524 48.1689 36.8296 46.7133 34.9068C44.5659 32.0766 40.2891 35.3291 42.4275 38.1594L43.4608 39.5162ZM8.29336 35.392C13.1543 31.6992 25.0774 21.3934 30.1629 19.9827C30.6301 19.83 31.1513 20.0636 31.322 20.5398C32.0677 22.4626 33.3706 27.3954 35.1676 28.195C36.6232 28.8419 38.3393 28.186 38.9862 26.7305C39.8128 24.8795 37.0814 19.4077 36.2997 17.377C34.7183 13.2529 24.2777 13.9268 20.6388 14.2323C19.8212 14.2862 4.08837 3.92646 2.04876 2.62363L1.86906 25.9488C5.57988 27.1078 7.3679 32.0047 8.29336 35.392Z" fill="#FF6D2A"/>
</svg>
