<svg width="52" height="60" viewBox="0 0 52 60" fill="none" xmlns="http://www.w3.org/2000/svg">
<path d="M25.9401 48.9004C22.1787 48.9004 18.5017 47.785 15.3742 45.6953C12.2466 43.6055 9.80901 40.6353 8.36956 37.1602C6.93012 33.685 6.55349 29.8611 7.28731 26.1719C8.02114 22.4827 9.83245 19.094 12.4922 16.4343C15.1519 13.7745 18.5407 11.9632 22.2298 11.2294C25.919 10.4956 29.743 10.8722 33.2181 12.3116C36.6932 13.7511 39.6634 16.1887 41.7532 19.3162C43.8429 22.4438 44.9583 26.1207 44.9583 29.8822C44.9534 34.9246 42.9481 39.7591 39.3826 43.3246C35.817 46.8902 30.9825 48.8955 25.9401 48.9004ZM25.9401 12.741C22.5488 12.741 19.2336 13.7467 16.4139 15.6309C13.5941 17.5151 11.3965 20.1932 10.0989 23.3265C8.80133 26.4598 8.46206 29.9075 9.12401 33.2336C9.78597 36.5597 11.4194 39.6148 13.8178 42.0125C16.2162 44.4102 19.2717 46.0428 22.598 46.7039C25.9243 47.3649 29.3719 47.0247 32.5048 45.7263C35.6377 44.4278 38.3152 42.2295 40.1987 39.4092C42.0821 36.589 43.0869 33.2735 43.086 29.8822C43.0798 25.3372 41.2712 20.9801 38.057 17.7667C34.8427 14.5533 30.4852 12.7459 25.9401 12.741Z" fill="#FF6D2A"/>
<path d="M25.9367 55.8093C19.7733 55.8105 13.811 53.6163 9.11858 49.6202C4.42619 45.624 1.31055 40.0872 0.330198 34.0022C-0.650157 27.9173 0.568875 21.6821 3.76876 16.4144C6.96865 11.1467 11.9402 7.19098 17.7921 5.25633C17.9089 5.2176 18.0321 5.20226 18.1549 5.21117C18.2776 5.22009 18.3974 5.25309 18.5073 5.30829C18.6173 5.36349 18.7153 5.43981 18.7958 5.5329C18.8763 5.62598 18.9376 5.734 18.9763 5.85079C19.0151 5.96758 19.0304 6.09086 19.0215 6.21358C19.0126 6.3363 18.9796 6.45607 18.9244 6.56603C18.8692 6.676 18.7928 6.77402 18.6998 6.85449C18.6067 6.93497 18.4987 6.99632 18.3819 7.03504C12.9534 8.83052 8.34173 12.5006 5.37349 17.3875C2.40525 22.2744 1.27443 28.0587 2.18371 33.7036C3.09299 39.3486 5.98292 44.4852 10.3356 48.1929C14.6882 51.9006 20.219 53.9369 25.9367 53.937C26.185 53.937 26.4231 54.0356 26.5987 54.2112C26.7743 54.3868 26.8729 54.6249 26.8729 54.8732C26.8729 55.1215 26.7743 55.3596 26.5987 55.5351C26.4231 55.7107 26.185 55.8093 25.9367 55.8093Z" fill="#FF6D2A"/>
<path d="M33.8234 54.5409C33.6005 54.5415 33.3848 54.4626 33.2149 54.3183C33.045 54.1741 32.9321 53.974 32.8966 53.754C32.8611 53.534 32.9052 53.3085 33.021 53.1181C33.1368 52.9277 33.3168 52.7849 33.5285 52.7153C38.9496 50.9111 43.5517 47.2366 46.5112 42.3494C49.4707 37.4621 50.5944 31.6812 49.6811 26.0412C48.7679 20.4012 45.8773 15.2702 41.5268 11.5667C37.1762 7.8631 31.6496 5.82864 25.9362 5.82742C25.6879 5.82742 25.4498 5.72878 25.2742 5.55322C25.0986 5.37765 25 5.13954 25 4.89125C25 4.64296 25.0986 4.40484 25.2742 4.22928C25.4498 4.05371 25.6879 3.95508 25.9362 3.95508C32.1028 3.945 38.0712 6.13283 42.7704 10.126C47.4696 14.1191 50.592 19.6562 51.5773 25.7437C52.5625 31.8311 51.3462 38.0704 48.1465 43.342C44.9468 48.6136 39.9733 52.5724 34.1183 54.5081C34.0223 54.5346 33.9228 54.5457 33.8234 54.5409Z" fill="#FF6D2A"/>
<path d="M29.9648 9.8576C29.7169 9.85655 29.4795 9.75723 29.3048 9.58143L25.2746 5.54187C25.1875 5.45492 25.1185 5.35167 25.0714 5.23803C25.0242 5.12438 25 5.00256 25 4.87953C25 4.7565 25.0242 4.63468 25.0714 4.52103C25.1185 4.40738 25.1875 4.30414 25.2746 4.21719L29.3048 0.201036C29.4852 0.058737 29.7117 -0.0122055 29.9411 0.00172161C30.1705 0.0156487 30.3868 0.113472 30.5487 0.276558C30.7107 0.439644 30.8069 0.656596 30.8192 0.886089C30.8315 1.11558 30.759 1.34158 30.6154 1.52103L27.2499 4.89123L30.6154 8.25675C30.7455 8.38766 30.8341 8.55412 30.8699 8.7352C30.9057 8.91628 30.8871 9.1039 30.8166 9.27448C30.7461 9.44506 30.6267 9.59098 30.4735 9.6939C30.3202 9.79682 30.14 9.85214 29.9554 9.85292L29.9648 9.8576Z" fill="#FF6D2A"/>
<path d="M21.9055 59.8395C21.7217 59.8369 21.5427 59.7803 21.3909 59.6767C21.2391 59.5731 21.1211 59.427 21.0518 59.2568C20.9824 59.0866 20.9646 58.8998 21.0007 58.7195C21.0369 58.5393 21.1252 58.3737 21.2548 58.2434L24.6203 54.8732L21.2548 51.5077C21.0792 51.332 20.9805 51.0937 20.9805 50.8453C20.9805 50.5969 21.0792 50.3586 21.2548 50.183C21.4305 50.0073 21.6687 49.9086 21.9172 49.9086C22.1656 49.9086 22.4038 50.0073 22.5795 50.183L26.5957 54.2225C26.6827 54.3095 26.7517 54.4127 26.7989 54.5264C26.846 54.64 26.8702 54.7619 26.8702 54.8849C26.8702 55.0079 26.846 55.1297 26.7989 55.2434C26.7517 55.357 26.6827 55.4603 26.5957 55.5472L22.5655 59.5774C22.3884 59.7481 22.1513 59.8422 21.9055 59.8395Z" fill="#FF6D2A"/>
<path d="M22.4432 40.1801C22.1949 40.1801 21.9568 40.0814 21.7812 39.9059C21.6057 39.7303 21.507 39.4922 21.507 39.2439V31.8201H19.7096C19.4613 31.8201 19.2232 31.7215 19.0476 31.5459C18.8721 31.3703 18.7734 31.1322 18.7734 30.8839C18.7734 30.6356 18.8721 30.3975 19.0476 30.2219C19.2232 30.0464 19.4613 29.9478 19.7096 29.9478H21.5024V20.5206C21.5024 20.2723 21.601 20.0341 21.7766 19.8586C21.9521 19.683 22.1902 19.5844 22.4385 19.5844H26.8713C28.5093 19.5769 30.0837 20.2182 31.2503 21.3681C32.4168 22.518 33.0807 24.083 33.0968 25.721C33.0968 29.1988 30.5879 31.806 27.2598 31.806H23.3794V39.2439C23.3794 39.4922 23.2807 39.7303 23.1052 39.9059C22.9296 40.0814 22.6915 40.1801 22.4432 40.1801ZM23.3794 29.9478H27.2598C29.5581 29.9478 31.2245 28.169 31.2245 25.735C31.1989 24.5954 30.7297 23.5108 29.9167 22.7118C29.1038 21.9128 28.0111 21.4625 26.8713 21.4567H23.3794V29.9478Z" fill="#FF6D2A"/>
<path d="M30.8406 35.2839H19.7096C19.4613 35.2839 19.2232 35.1853 19.0476 35.0097C18.8721 34.8341 18.7734 34.596 18.7734 34.3477C18.7734 34.0994 18.8721 33.8613 19.0476 33.6858C19.2232 33.5102 19.4613 33.4116 19.7096 33.4116H30.8406C31.0889 33.4116 31.327 33.5102 31.5026 33.6858C31.6782 33.8613 31.7768 34.0994 31.7768 34.3477C31.7768 34.596 31.6782 34.8341 31.5026 35.0097C31.327 35.1853 31.0889 35.2839 30.8406 35.2839Z" fill="#FF6D2A"/>
</svg>
