<svg style="display: none;">
  <symbol viewBox="0 0 64 60" xmlns="http://www.w3.org/2000/svg" id="ps_1">
    <path d="M28.69 45.824a.93.93 0 0 1 1.302.18c.62-2.175 3.001-3.747 5.247-3.388-.224-2.687 2.238-5.032 4.88-4.933-1.268-4.376 4.887-8.104 8.077-3.9l2.192 2.894c3.136-5.867 3.585-7.853 10.522-10.827l.278-22.472c-3.881 3.846-8.374 7.188-12.983 10.108-3.037 1.923-9.39-1.24-13.082.234 1.365.692 2.417 1.653 2.929 2.992 1.096 2.857 3.881 7.97 2.632 10.782a4.747 4.747 0 0 1-6.271 2.408c-2.642-1.177-3.531-5.301-4.529-7.898-3.53 1.06-18.248 13.19-22.265 16.245-2.587 1.959.342 5.966 3.002 3.945l14.492-10.989c.962-.755 2.112.737 1.132 1.483L13.091 42.733a2.474 2.474 0 0 0-.961 1.662c-.306 2.228 2.228 3.666 3.99 2.327l11.563-8.77c.97-.745 2.103.747 1.123 1.483l-10.422 7.916c-2.417 2.058.601 5.831 3.171 3.882 2.381-1.797 4.753-3.603 7.134-5.41zm-1.06 8.742l1.886 2.489c2.12 2.794 6.326-.35 4.349-3.154l-1.995-2.623c-.665-.845-1.626-1.25-2.678-.962-.736.198-1.41.71-1.805 1.366-.477.808-.53 1.869.242 2.884zm.404 3.612l-.459-.593c-2.992 1.635-6.63-.656-6.451-4.07-2.848.809-5.58-1.716-5.49-4.538-2.866.683-5.598-1.59-5.39-4.546-4.556 1.249-7.512-4.672-3.837-7.601.925-.701-2.229-8.698-5.625-9.228A.92.92 0 0 1 0 26.677L.198.925C.198.413.62 0 1.14 0c.647.009 17.593 11.034 19.65 12.345 3.828-.314 8.375-.476 12.121.548 3.954-3.45 11.834.576 14.296-.988C52.293 8.69 57.37 4.843 61.458.405a.936.936 0 0 1 1.32-.055.916.916 0 0 1 .297.746l-.305 25.392a.942.942 0 0 1-.593.853c-7.566 3.1-7.135 5.059-10.558 10.962l.953 1.25c2.767 3.638-.899 8.202-4.772 7.214-.071 2.83-3.027 5.077-5.768 4.376-.063 2.84-3.028 5.067-5.768 4.376-.081 3.989-5.472 6.307-8.23 2.66zm-1.609-2.111l-.278-.369c-1.312-1.725-1.204-3.558-.36-4.968a4.64 4.64 0 0 1 .647-.854c-1.096.836-3.207 1.95-3.432 3.531-.26 1.914 1.644 3.378 3.423 2.66zm1.276-7.153a4.641 4.641 0 0 1 2.327-.557 4.166 4.166 0 0 1-.18-1.078l-2.147 1.635zm11.86.513l-2.956-3.9c-2.183-2.821-6.433.422-4.286 3.253l2.965 3.9c2.13 2.82 6.443-.405 4.277-3.253zm2.543-8.617c-2.255-2.956-6.802-.072-4.08 3.513l3.02 3.98c2.147 2.83 6.424-.413 4.277-3.252l-3.217-4.241zm1.357-1.294l3.351 4.412c2.094 2.821 6.425-.431 4.277-3.253-1.456-1.923-2.92-3.845-4.376-5.768-2.147-2.83-6.424.422-4.285 3.252l1.033 1.357zM8.293 35.392c4.861-3.693 16.784-13.999 21.87-15.41a.923.923 0 0 1 1.159.558c.746 1.923 2.049 6.855 3.846 7.655a2.898 2.898 0 0 0 3.818-1.465c.827-1.85-1.905-7.322-2.686-9.353-1.582-4.124-12.022-3.45-15.661-3.145-.818.054-16.55-10.306-18.59-11.608l-.18 23.325c3.71 1.159 5.499 6.056 6.424 9.443z" ></path>
  </symbol>
  <symbol viewBox="0 0 61 62" xmlns="http://www.w3.org/2000/svg" id="ps_2">
    <path d="M52.626 33.579a.669.669 0 0 0-.669.668v19.911a5.354 5.354 0 0 1-3.179 5.046 5.35 5.35 0 0 1-2.044.458h-1.117l-.248-.073c-.087 0-.167-.047-.247-.08l-.275-.108-.234-.1-.26-.14-.228-.12-.247-.168-.214-.14-.241-.194a2.258 2.258 0 0 1-.194-.16 3.555 3.555 0 0 1-.227-.215c-.074-.073-.128-.114-.188-.18-.06-.067-.14-.154-.207-.234-.067-.08-.14-.094-.14-.194s-.128-.174-.194-.261a2.376 2.376 0 0 1-.154-.208c-.067-.087-.12-.187-.18-.28l-.141-.215-.194-.274-.12-.234-.141-.307-.107-.241c-.04-.107-.074-.22-.114-.335l-.087-.24c-.04-.114-.067-.234-.1-.348a1.639 1.639 0 0 1-.06-.248 3.36 3.36 0 0 1-.074-.374c0-.074-.033-.154-.047-.234a8.591 8.591 0 0 1-.053-.435v-1.766a.669.669 0 0 0-.669-.668h-29V2.332h29.662V13.46a.669.669 0 0 0 .669.668h10.594v1.539a.668.668 0 1 0 1.338 0V13.42a.47.47 0 0 0-.034-.168.217.217 0 0 0 0-.06.53.53 0 0 0-.12-.194l-.074-.073L41.844 1.2a.668.668 0 0 0-.508-.2H10.363a.669.669 0 0 0-.668.668v49.225H1.669a.669.669 0 0 0-.669.669C1 56.76 4.705 61 9.267 61H46.72a6.689 6.689 0 0 0 6.561-6.842v-19.91a.669.669 0 0 0-.655-.67zM42.032 3.375l9.029 9.417h-9.03V3.375zM9.267 59.662c-3.632 0-6.615-3.277-6.93-7.437h36.98v.254c0 .32.018.64.053.957 0 .08 0 .167.033.254 0 .267.08.528.134.79 0 .046 0 .1.034.153.067.299.152.594.254.883l.08.214c.087.24.18.468.28.669 0 .06.061.127.088.187.133.274.28.542.434.796 0 .047.06.093.094.14.134.214.281.415.428.616l.14.18c.188.227.382.455.59.669h.033c.2.194.4.374.615.548l.08.074-33.42.053z"  stroke-width=".5"></path>
    <path d="M30.481 44.393h11.711a.67.67 0 0 0 0-1.337h-11.71a.669.669 0 0 0 0 1.337zm-2.727-.615a.669.669 0 1 0 1.337 0 .669.669 0 0 0-1.337 0zM14.376 9.789h8.086a.669.669 0 1 0 0-1.338h-8.086a.669.669 0 0 0 0 1.338zm0 2.675h10.848a.669.669 0 0 0 0-1.338H14.376a.669.669 0 0 0 0 1.338zm13.758-.669a.669.669 0 1 0-1.337 0 .669.669 0 0 0 1.337 0zm32.392 6.281a2.755 2.755 0 0 0-4.909-1.338l-.976 1.224-.308.401a.669.669 0 0 0-.214-.334.671.671 0 0 0-.943.12l-3.832 4.936a.669.669 0 0 0 .114.936c.106.08.234.127.367.134l-9.57 12.32a.914.914 0 0 0-.107.214v.053a.16.16 0 0 0 0 .054l-.522 3.671a.668.668 0 0 0-.455.422.415.415 0 0 1-.187.113c-.234.06-1.17.134-3.431-1.759-1.498-1.244-2.675-1.631-3.665-1.177-1.458.656-1.458 2.79-1.458 3.03a.669.669 0 0 0 1.337 0c0-.495.174-1.592.67-1.826.494-.234 1.236.167 2.233.997 1.685 1.404 3.03 2.093 4.08 2.093.194.002.388-.026.575-.08a1.63 1.63 0 0 0 .87-.575.667.667 0 0 0 .254-.054l3.885-1.598a.709.709 0 0 0 .221-.174l14.433-18.533.956-1.23a2.75 2.75 0 0 0 .582-2.04zM41.305 38.14l1.464 1.137-1.732.716.268-1.853zm2.675.381l-2.234-1.739 13.57-17.456 2.234 1.74L43.98 38.52zm14.908-19.235l-.549.709-2.233-1.739.548-.729a1.412 1.412 0 0 1 2.519.689 1.414 1.414 0 0 1-.285 1.043v.027zm-9.734 1.732a.669.669 0 0 0-.669-.669h-34.11a.669.669 0 0 0 0 1.338h34.11a.669.669 0 0 0 .67-.669zm-8.026 4.02H14.376a.669.669 0 0 0 0 1.337h26.752a.669.669 0 0 0 0-1.337z"  stroke-width=".5"></path>
    <path d="M41.797 31.057a.668.668 0 0 0-.669-.669H14.376a.669.669 0 1 0 0 1.338h26.752a.669.669 0 0 0 .67-.669z"  stroke-width=".5"></path>
  </symbol>
  <symbol viewBox="0 0 52 60" xmlns="http://www.w3.org/2000/svg" id="ps_3">
    <path d="M25.94 48.9a19.018 19.018 0 1 1 19.018-19.018A19.037 19.037 0 0 1 25.94 48.9zm0-36.159a17.146 17.146 0 1 0 17.146 17.141A17.165 17.165 0 0 0 25.94 12.741z" ></path>
    <path d="M25.937 55.81a25.932 25.932 0 0 1-8.145-50.554.937.937 0 1 1 .59 1.779 24.06 24.06 0 0 0 7.555 46.902.936.936 0 1 1 0 1.872zm7.886-1.27a.936.936 0 0 1-.294-1.825 24.06 24.06 0 0 0-7.593-46.888.936.936 0 0 1 0-1.872 25.932 25.932 0 0 1 8.182 50.553.938.938 0 0 1-.295.033z" ></path>
    <path d="M29.965 9.858a.936.936 0 0 1-.66-.277l-4.03-4.04a.935.935 0 0 1 0-1.324l4.03-4.016a.936.936 0 0 1 1.31 1.32l-3.365 3.37 3.365 3.366a.937.937 0 0 1-.66 1.596l.01.005zm-8.06 49.982a.936.936 0 0 1-.65-1.597l3.365-3.37-3.365-3.365a.937.937 0 0 1 1.325-1.325l4.016 4.04a.939.939 0 0 1 0 1.324l-4.03 4.03a.936.936 0 0 1-.66.263zm.538-19.66a.937.937 0 0 1-.936-.936V31.82H19.71a.936.936 0 1 1 0-1.872h1.792V20.52a.936.936 0 0 1 .937-.937h4.432a6.198 6.198 0 0 1 6.226 6.137c0 3.478-2.51 6.085-5.837 6.085h-3.88v7.438a.937.937 0 0 1-.937.936zm.936-10.232h3.88c2.3 0 3.965-1.779 3.965-4.213a4.377 4.377 0 0 0-4.353-4.278H23.38v8.49z" ></path>
    <path d="M30.84 35.284H19.71a.936.936 0 1 1 0-1.872h11.13a.936.936 0 1 1 0 1.872z" ></path>
  </symbol>
</svg>