<svg width="42" height="56" viewBox="0 0 42 56" fill="none" xmlns="http://www.w3.org/2000/svg">
<path d="M1.60606 1C1.22358 1 1.00461 1.32309 1 1.60606V54.9394C1.00006 55.2567 1.28873 55.5454 1.60606 55.5455H31.9091C32.0718 55.5455 32.2328 55.4742 32.3447 55.3561L40.8296 46.8712C40.9364 46.7607 40.9988 46.6083 41 46.4545V1.60606C40.9999 1.28873 40.7113 1.00006 40.3939 1H1.60606ZM2.21212 2.21212H39.7879V45.8485H31.9091C31.5202 45.8545 31.3072 46.1631 31.303 46.4545V54.3333H2.21212V2.21212ZM6.45455 7.06061C6.0697 7.06667 5.846 7.41685 5.84848 7.66667V16.1515C5.84855 16.4688 6.13721 16.7575 6.45455 16.7576H17.3636C17.681 16.7575 17.9696 16.4688 17.9697 16.1515V7.66667C17.9696 7.34933 17.681 7.06067 17.3636 7.06061H6.45455ZM7.06061 8.27273H16.7576V15.5455H7.06061V8.27273ZM22.2121 11.303C21.8774 11.303 21.6061 11.5744 21.6061 11.9091C21.6061 12.2438 21.8774 12.5152 22.2121 12.5152H35.5455C35.8802 12.5152 36.1515 12.2438 36.1515 11.9091C36.1515 11.5744 35.8802 11.303 35.5455 11.303H22.2121ZM19.731 20.375C19.5567 20.3947 19.393 20.4943 19.2955 20.6401L14.1818 28.0266L11.0379 25.9431C10.7751 25.7646 10.3736 25.8414 10.1951 26.1042C10.0166 26.367 10.0933 26.7685 10.3561 26.947L13.9924 29.3712C14.2515 29.5461 14.6448 29.4746 14.8258 29.2197L20.2803 21.3409C20.561 20.9658 20.1969 20.3256 19.731 20.375ZM6.45455 21.6061C6.08861 21.6061 5.85073 21.9221 5.84848 22.2121V33.1212C5.84855 33.4385 6.13721 33.7272 6.45455 33.7273H17.3636C17.681 33.7272 17.9696 33.4385 17.9697 33.1212V31.9091C17.9758 31.5889 17.6839 31.303 17.3636 31.303C17.0434 31.303 16.753 31.5889 16.7576 31.9091V32.5152H7.06061V22.8182H13.7273C14.0475 22.8242 14.3333 22.5324 14.3333 22.2121C14.3333 21.8919 14.0475 21.6015 13.7273 21.6061H6.45455ZM22.2121 27.0606C21.8774 27.0606 21.6061 27.332 21.6061 27.6667C21.6061 28.0014 21.8774 28.2727 22.2121 28.2727H35.5455C35.8802 28.2727 36.1515 28.0014 36.1515 27.6667C36.1515 27.332 35.8802 27.0606 35.5455 27.0606H22.2121ZM6.45455 38.5758C6.0697 38.5818 5.846 38.932 5.84848 39.1818V47.6667C5.84855 47.984 6.13721 48.2727 6.45455 48.2727H17.3636C17.681 48.2727 17.9696 47.984 17.9697 47.6667V39.1818C17.9696 38.8645 17.681 38.5758 17.3636 38.5758H6.45455ZM7.06061 39.7879H16.7576V47.0606H7.06061V39.7879ZM22.2121 42.8182C21.8774 42.8182 21.6061 43.0895 21.6061 43.4242C21.6061 43.759 21.8774 44.0303 22.2121 44.0303H35.5455C35.8802 44.0303 36.1515 43.759 36.1515 43.4242C36.1515 43.0895 35.8802 42.8182 35.5455 42.8182H22.2121ZM32.5152 47.0606H38.9167L32.5152 53.4621V47.0606Z" fill="#FF6D2A" stroke="#FF6D2A" stroke-width="0.3"/>
</svg>
