<svg width="49" height="46" viewBox="0 0 49 46" fill="none" xmlns="http://www.w3.org/2000/svg">
<path d="M42.9322 1H6.06779C3.27336 1 1 3.27336 1 6.06738V40.3841C1 43.1785 3.27377 45.4515 6.06779 45.4515H42.9322C45.727 45.4515 48 43.1781 48 40.3841V6.06779C48.0004 3.27336 45.727 1 42.9322 1ZM46.783 40.3841C46.783 42.5069 45.0558 44.2341 42.9326 44.2341H6.06779C3.94498 44.2341 2.21744 42.5069 2.21744 40.3841V13.9548H46.783V40.3841ZM46.783 12.7373H2.21744V6.06779C2.21744 3.94498 3.94498 2.21784 6.06779 2.21784H42.9322C45.0554 2.21784 46.7826 3.94498 46.7826 6.06779V12.7373H46.783Z" fill="#FF6D2A" stroke="#FF6D2A" stroke-width="0.3"/>
<path d="M9.78694 39.2876H39.0107C39.3467 39.2876 39.6194 39.0149 39.6194 38.6789V19.4705C39.6194 19.1345 39.3467 18.8618 39.0107 18.8618H9.78694C9.45093 18.8618 9.17822 19.1345 9.17822 19.4705V38.6789C9.17822 39.0149 9.45093 39.2876 9.78694 39.2876ZM33.462 20.0793H38.4024V24.0018H33.462V20.0793ZM10.3957 20.0793H32.2442V24.0018H10.3957V20.0793ZM10.3957 25.2193H38.402V38.0701H10.3957V25.2193Z" fill="#FF6D2A" stroke="#FF6D2A" stroke-width="0.3"/>
<path d="M32.8529 28.2198H15.9443V29.4373H32.8529V28.2198Z" fill="#FF6D2A" stroke="#FF6D2A" stroke-width="0.3"/>
<path d="M32.8529 30.563H15.9443V31.7804H32.8529V30.563Z" fill="#FF6D2A" stroke="#FF6D2A" stroke-width="0.3"/>
<path d="M27.4093 34.0125H21.3887V35.2299H27.4093V34.0125Z" fill="#FF6D2A" stroke="#FF6D2A" stroke-width="0.3"/>
<path d="M5.93652 10.2067H10.6983V5.44446H5.93652V10.2067ZM7.15396 6.6619H9.48089V8.98883H7.15396V6.6619Z" fill="#FF6D2A" stroke="#FF6D2A" stroke-width="0.3"/>
<path d="M11.6694 10.2067H16.4312V5.44446H11.6694V10.2067ZM12.8869 6.6619H15.2138V8.98883H12.8869V6.6619Z" fill="#FF6D2A" stroke="#FF6D2A" stroke-width="0.3"/>
<path d="M17.4033 10.2067H22.1651V5.44446H17.4033V10.2067ZM18.6208 6.6619H20.9477V8.98883H18.6208V6.6619Z" fill="#FF6D2A" stroke="#FF6D2A" stroke-width="0.3"/>
</svg>
