<svg width="30" height="24" viewBox="0 0 30 24" fill="none" xmlns="http://www.w3.org/2000/svg">
<path opacity="0.5" d="M14.7429 0C9.36837 0 5.03571 4.33266 5.03571 9.70714C5.03507 9.75258 5.04347 9.79768 5.06041 9.83984C5.07735 9.882 5.1025 9.92038 5.1344 9.95273C5.1663 9.98509 5.20432 10.0108 5.24623 10.0283C5.28815 10.0459 5.33313 10.0549 5.37857 10.0549C5.42401 10.0549 5.46899 10.0459 5.51091 10.0283C5.55283 10.0108 5.59084 9.98509 5.62274 9.95273C5.65464 9.92038 5.67979 9.882 5.69674 9.83984C5.71368 9.79768 5.72207 9.75258 5.72143 9.70714C5.72143 4.70068 9.7364 0.685714 14.7429 0.685714C19.7493 0.685714 23.7643 4.70068 23.7643 9.70714C23.7636 9.75258 23.772 9.79768 23.789 9.83984C23.8059 9.882 23.8311 9.92038 23.863 9.95273C23.8949 9.98509 23.9329 10.0108 23.9748 10.0283C24.0167 10.0459 24.0617 10.0549 24.1071 10.0549C24.1526 10.0549 24.1976 10.0459 24.2395 10.0283C24.2814 10.0108 24.3194 9.98509 24.3513 9.95273C24.3832 9.92038 24.4084 9.882 24.4253 9.83984C24.4422 9.79768 24.4506 9.75258 24.45 9.70714C24.45 4.33266 20.1173 0 14.7429 0ZM2.64643 11.3036C1.17506 11.3036 0 12.5367 0 14.0464V16.2321C0 17.742 1.17509 18.9857 2.64643 18.9857H5.35714C5.44807 18.9857 5.53527 18.9496 5.59957 18.8853C5.66387 18.821 5.69999 18.7338 5.7 18.6429V11.6464C5.69999 11.5555 5.66387 11.4683 5.59957 11.404C5.53527 11.3397 5.44807 11.3036 5.35714 11.3036H2.64643ZM24.0536 11.3036C23.9762 11.3209 23.9071 11.3646 23.8583 11.4271C23.8095 11.4896 23.7838 11.5671 23.7857 11.6464V20.9357C23.7857 22.2248 22.7224 23.3143 21.4393 23.3143H17.8393C18.1119 22.9864 18.2786 22.562 18.2786 22.1036C18.2786 21.0635 17.4329 20.2179 16.3929 20.2179H13.0929C12.0528 20.2179 11.2071 21.0635 11.2071 22.1036C11.2071 23.1436 12.0528 24 13.0929 24H21.4393C23.1072 24 24.4714 22.5992 24.4714 20.9357V18.9857H26.8393C28.3106 18.9857 29.4857 17.742 29.4857 16.2321V14.0464C29.4857 12.5404 28.3108 11.2904 26.8393 11.3036H24.1286C24.1036 11.3008 24.0785 11.3008 24.0536 11.3036ZM2.64643 11.9893H5.01429V18.3H2.64643C1.55751 18.3 0.685714 17.3897 0.685714 16.2321V14.0464C0.685714 12.8891 1.55755 11.9893 2.64643 11.9893ZM24.4714 11.9893H26.8393C27.9226 11.9749 28.8 12.8891 28.8 14.0464V16.2321C28.8 17.3897 27.9282 18.3 26.8393 18.3H24.4714V11.9893ZM13.0929 20.9036H16.3929C17.0649 20.9036 17.5929 21.4315 17.5929 22.1036C17.5929 22.6674 17.2179 23.1356 16.7036 23.2714C16.6694 23.2807 16.6369 23.2951 16.6071 23.3143H13.0929C12.4208 23.3143 11.8929 22.7756 11.8929 22.1036C11.8929 21.4315 12.4208 20.9036 13.0929 20.9036Z" fill="white" stroke="white" stroke-width="0.8"/>
</svg>
