<svg width="24" height="24" viewBox="0 0 24 24" fill="none" xmlns="http://www.w3.org/2000/svg">
<path d="M23.7631 22.374L17.4579 16.0688C19.0502 14.1114 19.8308 11.6176 19.6386 9.10167C19.4465 6.58572 18.2963 4.2394 16.4253 2.54647C14.5542 0.853538 12.1049 -0.0569393 9.5823 0.00276074C7.05973 0.0624608 4.65622 1.08779 2.86734 2.86734C1.08779 4.65622 0.0624608 7.05973 0.00276074 9.5823C-0.0569393 12.1049 0.853538 14.5542 2.54647 16.4253C4.2394 18.2963 6.58572 19.4465 9.10167 19.6386C11.6176 19.8308 14.1114 19.0502 16.0688 17.4579L22.374 23.7631C22.5625 23.9245 22.8049 24.0088 23.0528 23.9993C23.3008 23.9897 23.536 23.8869 23.7114 23.7114C23.8869 23.536 23.9897 23.3008 23.9993 23.0528C24.0088 22.8049 23.9245 22.5625 23.7631 22.374V22.374ZM4.25645 15.4087C3.15369 14.3067 2.40253 12.9024 2.09801 11.3734C1.79348 9.84437 1.94926 8.2594 2.54564 6.81895C3.14202 5.3785 4.1522 4.14727 5.44842 3.28102C6.74463 2.41476 8.26864 1.95239 9.82767 1.95239C11.3867 1.95239 12.9107 2.41476 14.2069 3.28102C15.5031 4.14727 16.5133 5.3785 17.1097 6.81895C17.7061 8.2594 17.8619 9.84437 17.5573 11.3734C17.2528 12.9024 16.5016 14.3067 15.3989 15.4087C14.6704 16.146 13.8029 16.7313 12.8465 17.1308C11.8902 17.5302 10.8641 17.7359 9.82767 17.7359C8.79125 17.7359 7.76513 17.5302 6.80879 17.1308C5.85246 16.7313 4.98491 16.146 4.25645 15.4087V15.4087Z" fill="white" fill-opacity="0.5"/>
</svg>
