<svg width="62" height="60" viewBox="0 0 62 60" fill="none" xmlns="http://www.w3.org/2000/svg">
<path d="M61.2063 9.68029L15.5033 9.60092V1.00267C15.5033 0.566142 15.1461 0.208984 14.7096 0.208984H6.30979C2.88372 0.208984 0.0793685 3.06625 0 6.6246V6.79657V7.88127V52.9229V53.4255C0 57.05 2.83081 59.9999 6.30979 59.9999H61.2063C61.6428 59.9999 62 59.6427 62 59.2062V10.474C62 10.0374 61.6428 9.68029 61.2063 9.68029ZM1.57414 7.88127V6.79657C1.57414 4.04513 3.69063 1.80958 6.29657 1.80958H13.9027V46.3485H6.30979C4.43141 46.3485 2.73821 47.2083 1.58737 48.5708V7.88127H1.57414ZM60.4126 58.4125H6.30979C3.70386 58.4125 1.58737 56.177 1.58737 53.4255V52.9229C1.58737 50.1714 3.70386 47.9227 6.30979 47.9227H14.7096C15.1461 47.9227 15.5033 47.5655 15.5033 47.129V11.1883L60.4126 11.2677V58.4125Z" fill="#09AEEB"/>
<path d="M20.2118 27.3663C20.225 27.4457 20.2515 27.5251 20.278 27.6044C20.278 27.6044 20.278 27.6177 20.2912 27.6177C20.3044 27.6441 20.3309 27.6838 20.3441 27.7103C20.3441 27.7235 20.3573 27.7235 20.3573 27.7367C20.3838 27.7632 20.397 27.7896 20.4235 27.8161C20.4235 27.8161 20.4235 27.8161 20.4367 27.8293C20.4631 27.8558 20.4896 27.869 20.5161 27.8955L20.5293 27.9087C20.5557 27.9351 20.5954 27.9484 20.6219 27.9616C20.6219 27.9616 20.6351 27.9616 20.6351 27.9748C20.6616 27.9881 20.7013 28.0013 20.7277 28.0145C20.7277 28.0145 20.7277 28.0145 20.7409 28.0145C20.7806 28.0277 20.8071 28.0277 20.8468 28.041C20.86 28.041 20.86 28.041 20.8732 28.041C20.9129 28.041 20.9394 28.0542 20.979 28.0542C20.979 28.0542 20.979 28.0542 20.9923 28.0542H53.6127C53.6127 28.0542 53.6127 28.0542 53.6259 28.0542C53.6656 28.0542 53.6921 28.0542 53.7318 28.041C53.745 28.041 53.745 28.041 53.7582 28.041C53.7979 28.041 53.8244 28.0277 53.864 28.0145C53.864 28.0145 53.864 28.0145 53.8773 28.0145C53.917 28.0013 53.9434 27.9881 53.9699 27.9748C53.9699 27.9748 53.9831 27.9748 53.9831 27.9616C54.0096 27.9484 54.0492 27.9219 54.0757 27.9087L54.0889 27.8955C54.1154 27.869 54.1418 27.8558 54.1683 27.8293C54.1683 27.8293 54.1683 27.8293 54.1815 27.8161C54.208 27.7896 54.2344 27.7632 54.2477 27.7367C54.2477 27.7235 54.2609 27.7235 54.2609 27.7103C54.2873 27.6838 54.3006 27.6441 54.3138 27.6177C54.3138 27.6177 54.3138 27.6044 54.327 27.6044C54.3403 27.5648 54.3535 27.5383 54.3667 27.4986C54.3799 27.4722 54.3799 27.4457 54.3932 27.4192C54.3932 27.406 54.3932 27.3928 54.3932 27.3928C54.4064 27.3531 54.4064 27.3002 54.4064 27.2605V16.9162C54.4064 16.8765 54.4064 16.8236 54.3932 16.7839C54.3932 16.7706 54.3932 16.7574 54.3932 16.7574C54.3932 16.731 54.3799 16.7045 54.3667 16.678C54.3535 16.6516 54.3535 16.6251 54.3403 16.6119C54.3403 16.5987 54.327 16.5987 54.327 16.5855C54.3138 16.5722 54.3138 16.559 54.3006 16.5458C54.2873 16.5325 54.2873 16.5193 54.2741 16.5061C54.2741 16.4929 54.2609 16.4929 54.2609 16.4796C54.2477 16.4664 54.2344 16.4532 54.2344 16.4399L54.2212 16.4267C54.208 16.4135 54.1947 16.4003 54.1815 16.387L54.1683 16.3738C54.1551 16.3606 54.1418 16.3473 54.1286 16.3341L54.1154 16.3209C54.1021 16.3077 54.0889 16.3077 54.0757 16.2944C54.0625 16.2944 54.0625 16.2812 54.0492 16.2812C54.036 16.268 54.0228 16.268 54.0096 16.2548C53.9963 16.2548 53.9831 16.2415 53.9831 16.2415C53.9699 16.2415 53.9566 16.2283 53.9434 16.2283C53.9302 16.2283 53.917 16.2151 53.9037 16.2151C53.8905 16.2151 53.8773 16.2018 53.864 16.2018C53.8508 16.2018 53.8376 16.1886 53.8244 16.1886C53.8111 16.1886 53.7979 16.1754 53.7847 16.1754C53.7714 16.1754 53.7715 16.1754 53.7582 16.1622C53.7318 16.1622 53.7185 16.1489 53.6921 16.1489C53.6921 16.1489 53.6921 16.1489 53.6789 16.1489C53.6524 16.1489 53.6259 16.1489 53.5863 16.1489H21.0055C21.0055 16.1489 21.0055 16.1489 20.9923 16.1489C20.9658 16.1489 20.9394 16.1489 20.9129 16.1489C20.8997 16.1489 20.8997 16.1489 20.8864 16.1489C20.8732 16.1489 20.8468 16.1489 20.8335 16.1622C20.8203 16.1622 20.8071 16.1622 20.7938 16.1754C20.7806 16.1754 20.7674 16.1754 20.7674 16.1886C20.7542 16.1886 20.7409 16.2018 20.7145 16.2018C20.7013 16.2018 20.7013 16.2018 20.688 16.2151C20.6748 16.2151 20.6616 16.2283 20.6483 16.2415C20.6351 16.2415 20.6351 16.2548 20.6219 16.2548C20.6087 16.268 20.5954 16.268 20.5822 16.2812C20.569 16.2812 20.569 16.2944 20.5557 16.2944C20.5425 16.3077 20.5293 16.3077 20.5293 16.3209C20.5161 16.3341 20.5028 16.3341 20.5028 16.3473C20.4896 16.3606 20.4896 16.3606 20.4764 16.3738C20.4631 16.387 20.4499 16.387 20.4499 16.4003C20.4367 16.4003 20.4367 16.4135 20.4367 16.4267C20.4235 16.4399 20.4102 16.4532 20.4102 16.4664C20.4102 16.4796 20.397 16.4796 20.397 16.4929C20.3838 16.5061 20.3838 16.5193 20.3706 16.5325C20.3573 16.5458 20.3573 16.559 20.3573 16.559C20.3441 16.5722 20.3441 16.5855 20.3309 16.5987C20.3176 16.6119 20.3176 16.6251 20.3044 16.6516C20.3044 16.6648 20.2912 16.6648 20.2912 16.678C20.2647 16.7442 20.2515 16.8103 20.2383 16.8765C20.2383 16.9162 20.225 16.9558 20.225 16.9955V27.3399C20.1986 27.287 20.1986 27.3267 20.2118 27.3663ZM52.819 26.1626L39.9217 22.0751L52.819 17.9876V26.1626ZM48.4934 26.4536H26.1248L37.3025 22.9085L48.4934 26.4536ZM37.3025 21.2417L26.1248 17.6966H48.4934L37.3025 21.2417ZM34.6833 22.0751L21.786 26.1626V17.9876L34.6833 22.0751Z" fill="#09AEEB"/>
<path d="M54.4078 32.3928C54.4078 32.3399 54.3946 32.3002 54.3946 32.2473C54.3946 32.2473 54.3946 32.2473 54.3946 32.2341C54.3814 32.1812 54.3681 32.1415 54.3549 32.0886C54.3284 32.0489 54.3152 31.996 54.2888 31.9563C54.2888 31.9563 54.2888 31.9563 54.2888 31.9431C54.2623 31.9034 54.2226 31.8637 54.1962 31.8372C54.1962 31.8372 54.1962 31.8372 54.1829 31.8372C54.1432 31.8108 54.1036 31.7711 54.0639 31.7446C54.0639 31.7446 54.0506 31.7446 54.0506 31.7314C54.011 31.7049 53.9713 31.6917 53.9316 31.6653C53.9316 31.6653 53.9184 31.6653 53.9184 31.652C53.8787 31.6388 53.839 31.6256 53.7861 31.6123H53.7729C53.7332 31.6123 53.6935 31.5991 53.6538 31.5991H36.1134C36.0737 31.5991 36.034 31.5991 35.9943 31.6123H35.9811C35.9414 31.6256 35.8885 31.6388 35.8488 31.652H35.8356C35.7959 31.6653 35.7562 31.6917 35.7165 31.7182C35.7165 31.7182 35.7033 31.7182 35.7033 31.7314C35.6636 31.7579 35.6239 31.7843 35.5843 31.824C35.5843 31.824 35.5843 31.824 35.571 31.824C35.5313 31.8637 35.5049 31.8901 35.4784 31.9298C35.4784 31.9298 35.4784 31.9298 35.4784 31.9431C35.452 31.9827 35.4255 32.0224 35.4123 32.0753C35.3991 32.115 35.3726 32.1679 35.3726 32.2208C35.3726 32.2208 35.3726 32.2208 35.3726 32.2341C35.3594 32.2738 35.3594 32.3267 35.3594 32.3796V32.3928V32.406V50.7005V50.7137V50.7269C35.3594 50.7798 35.3726 50.8195 35.3726 50.8724C35.3726 50.8724 35.3726 50.8724 35.3726 50.8857C35.3858 50.9386 35.3991 50.9783 35.4123 51.0312C35.4387 51.0709 35.452 51.1238 35.4784 51.1635C35.4784 51.1635 35.4784 51.1634 35.4784 51.1767C35.5049 51.2164 35.5446 51.256 35.571 51.2825C35.571 51.2825 35.571 51.2825 35.5843 51.2825C35.6239 51.309 35.6504 51.3486 35.6901 51.3751C35.6901 51.3751 35.7033 51.3751 35.7033 51.3883C35.743 51.4148 35.7827 51.428 35.8224 51.4545H35.8356C35.8753 51.4677 35.915 51.4809 35.9679 51.4942H35.9811C36.0208 51.5074 36.0737 51.5074 36.1134 51.5074H53.6141C53.667 51.5074 53.7067 51.5074 53.7596 51.4942H53.7729C53.8125 51.4809 53.8655 51.4677 53.9051 51.4545H53.9184C53.9581 51.4412 53.9977 51.4148 54.0374 51.3883C54.0374 51.3883 54.0506 51.3883 54.0506 51.3751C54.0903 51.3486 54.13 51.3222 54.1565 51.2825C54.1565 51.2825 54.1565 51.2825 54.1697 51.2825C54.2094 51.2428 54.2358 51.2164 54.2623 51.1767C54.2623 51.1767 54.2623 51.1767 54.2623 51.1635C54.2888 51.1238 54.3152 51.0841 54.3284 51.0312C54.3417 50.9915 54.3681 50.9386 54.3681 50.8857C54.3681 50.8857 54.3681 50.8857 54.3681 50.8724C54.3814 50.8327 54.3813 50.7798 54.3813 50.7269V50.7137V50.7005V32.4193V32.406C54.4078 32.3928 54.4078 32.3928 54.4078 32.3928ZM43.7724 41.5599L36.9071 48.7295V34.3902L43.7724 41.5599ZM37.9653 33.2129H51.7622L44.8704 40.4222L37.9653 33.2129ZM44.8704 42.7107L51.7622 49.92H37.9653L44.8704 42.7107ZM45.9683 41.5599L52.8337 34.3902V48.7295L45.9683 41.5599Z" fill="#09AEEB"/>
<path d="M31.3358 32.3668C31.3358 32.3536 31.3358 32.3403 31.3358 32.3403C31.3358 32.3271 31.3358 32.3139 31.3358 32.3007C31.3358 32.2874 31.3358 32.2742 31.3225 32.261C31.3093 32.1684 31.2696 32.089 31.2167 32.0096C31.177 31.9435 31.1241 31.8774 31.058 31.8244L31.0447 31.8112C31.0315 31.798 31.0183 31.798 31.0183 31.7848C31.0051 31.7715 30.9918 31.7715 30.9786 31.7583C30.9654 31.7583 30.9654 31.7451 30.9521 31.7451C30.9389 31.7318 30.9257 31.7318 30.8992 31.7186C30.8992 31.7186 30.886 31.7186 30.886 31.7054C30.8728 31.6922 30.8463 31.6922 30.8331 31.6789C30.8199 31.6789 30.8199 31.6657 30.8066 31.6657C30.7934 31.6657 30.7802 31.6525 30.7669 31.6525C30.7537 31.6525 30.7405 31.6525 30.7273 31.6393C30.714 31.6393 30.7008 31.6392 30.6876 31.626C30.6743 31.626 30.6611 31.626 30.6347 31.6128C30.6214 31.6128 30.6214 31.6128 30.6082 31.6128C30.595 31.6128 30.5685 31.6128 30.5553 31.6128H30.5421H30.5288H21.0046H20.9914H20.9782C20.9517 31.6128 20.9385 31.6128 20.912 31.6128C20.8988 31.6128 20.8988 31.6128 20.8856 31.6128C20.8723 31.6128 20.8459 31.6128 20.8327 31.626C20.8194 31.626 20.8062 31.626 20.793 31.6393C20.7797 31.6393 20.7665 31.6393 20.7533 31.6525C20.7401 31.6525 20.7268 31.6657 20.7136 31.6657C20.7004 31.6657 20.6871 31.6789 20.6871 31.6789C20.6739 31.6922 20.6475 31.6922 20.6342 31.7054C20.6342 31.7054 20.621 31.7054 20.621 31.7186C20.6078 31.7318 20.5946 31.7318 20.5681 31.7451C20.5549 31.7451 20.5549 31.7583 20.5416 31.7583C20.5284 31.7715 20.5152 31.7715 20.5152 31.7848C20.502 31.798 20.4887 31.798 20.4887 31.8112C20.4887 31.8112 20.4887 31.8112 20.4755 31.8244C20.4094 31.8906 20.3432 31.9567 20.3035 32.0361C20.2638 32.1022 20.2374 32.1816 20.2109 32.261V32.2742C20.2109 32.2874 20.2109 32.3007 20.2109 32.3139C20.2109 32.3271 20.2109 32.3403 20.2109 32.3536C20.2109 32.3668 20.2109 32.3668 20.2109 32.38C20.2109 32.3933 20.2109 32.4197 20.2109 32.4329V50.7274C20.2109 50.7406 20.2109 50.767 20.2109 50.7803C20.2109 50.7935 20.2109 50.7935 20.2109 50.8067C20.2109 50.82 20.2109 50.8332 20.2109 50.8464C20.2109 50.8596 20.2109 50.8729 20.2109 50.8861V50.8993C20.2242 50.9787 20.2638 51.0448 20.3035 51.1242C20.3432 51.2036 20.4094 51.2697 20.4755 51.3359C20.4755 51.3359 20.4755 51.3359 20.4887 51.3491C20.502 51.3623 20.5152 51.3623 20.5152 51.3755C20.5284 51.3888 20.5416 51.3888 20.5416 51.402C20.5549 51.402 20.5549 51.4152 20.5681 51.4152C20.5813 51.4285 20.5946 51.4285 20.621 51.4417H20.6342C20.6607 51.4549 20.6739 51.4681 20.7004 51.4681C20.7136 51.4681 20.7136 51.4681 20.7268 51.4814C20.7401 51.4946 20.7665 51.4946 20.7797 51.4946C20.793 51.4946 20.8062 51.4946 20.8062 51.5078C20.8194 51.5078 20.8459 51.521 20.8591 51.521C20.8723 51.521 20.8856 51.521 20.8856 51.521C20.912 51.521 20.9253 51.521 20.9517 51.521H20.9649H30.5156H30.5288C30.5553 51.521 30.5685 51.521 30.595 51.521C30.6082 51.521 30.6214 51.521 30.6214 51.521C30.6347 51.521 30.6611 51.521 30.6743 51.5078C30.6876 51.5078 30.7008 51.5078 30.7008 51.4946C30.7273 51.4946 30.7405 51.4814 30.7537 51.4814C30.7669 51.4814 30.7669 51.4814 30.7802 51.4681C30.8066 51.4549 30.8199 51.4549 30.8463 51.4417H30.8595C30.8728 51.4285 30.886 51.4285 30.9125 51.4152C30.9257 51.4152 30.9257 51.402 30.9389 51.402C30.9521 51.3888 30.9654 51.3888 30.9786 51.3755C30.9918 51.3623 31.005 51.3623 31.005 51.3491L31.0183 51.3359C31.0844 51.2829 31.1373 51.2168 31.177 51.1507C31.2299 51.0713 31.2564 50.9919 31.2828 50.8993C31.2828 50.8861 31.2828 50.8729 31.2961 50.8596C31.2961 50.8464 31.2961 50.8332 31.2961 50.82C31.2961 50.8067 31.2961 50.7935 31.2961 50.7935C31.2961 50.7803 31.2961 50.7538 31.2961 50.7406V32.4197C31.3357 32.3933 31.3358 32.38 31.3358 32.3668ZM24.8672 41.5603L21.7851 47.4733V35.6474L24.8672 41.5603ZM22.301 33.2134H29.2325L25.7667 39.8539L22.301 33.2134ZM25.7667 43.28L29.2325 49.9205H22.301L25.7667 43.28ZM26.6662 41.5603L29.7484 35.6474V47.4733L26.6662 41.5603Z" fill="#09AEEB"/>
</svg>
