<svg width="58" height="60" viewBox="0 0 58 60" fill="none" xmlns="http://www.w3.org/2000/svg">
<g opacity="0.5">
<path d="M54.657 60.0001H32.2705V49.261H54.657C55.405 49.261 56.0996 49.5281 56.6339 50.0624C57.1681 50.5967 57.4353 51.2912 57.4353 52.0392V57.2217C57.4353 57.9697 57.1681 58.6644 56.6339 59.1986C56.0996 59.6795 55.405 60.0001 54.657 60.0001ZM34.3543 57.9163H54.657C54.8173 57.9163 55.031 57.8629 55.1378 57.7026C55.2447 57.5423 55.3515 57.382 55.3515 57.2217V52.0392C55.3515 51.8789 55.2981 51.6652 55.1378 51.5584C55.031 51.4515 54.8173 51.3446 54.657 51.3446H34.3543V57.9163Z" fill="#09AEEB"/>
<path d="M52.6269 53.5886H37.0259V55.6723H52.6269V53.5886Z" fill="#09AEEB"/>
<path d="M28.9048 58.2369V50.9707H34.3546V58.2369H28.9048ZM30.9886 53.0544V56.1532H32.2708V53.0544H30.9886Z" fill="#09AEEB"/>
<path d="M6.73189 57.7562L0 56.0465V53.1613L6.73189 51.4517L10.365 54.6039L6.73189 57.7562ZM2.72476 54.6039L6.1976 55.5122L7.21282 54.6039L6.1976 53.6956L2.72476 54.6039Z" fill="#09AEEB"/>
<path d="M29.9732 53.5886H8.76221V55.6723H29.9732V53.5886Z" fill="#09AEEB"/>
<path d="M53.1612 46.3757H4.27426C1.92342 46.3757 0 44.4523 0 42.1015V10.3116C0 7.96077 1.92342 6.03735 4.27426 6.03735H53.1612C55.512 6.03735 57.4354 7.96077 57.4354 10.3116V42.1015C57.4354 44.4523 55.512 46.3757 53.1612 46.3757ZM4.27426 8.06762C3.04541 8.06762 2.08365 9.02932 2.08365 10.2582V42.048C2.08365 43.2769 3.04541 44.2386 4.27426 44.2386H53.1612C54.39 44.2386 55.3516 43.2769 55.3516 42.048V10.2582C55.3516 9.02932 54.39 8.06762 53.1612 8.06762H4.27426Z" fill="#09AEEB"/>
<path d="M53.268 42.2083H4.16748V10.1514H53.268V42.2083ZM6.25113 40.1247H51.1844V12.2351H6.25113V40.1247Z" fill="#09AEEB"/>
<path d="M38.5216 1.0686H36.438V7.05258H38.5216V1.0686Z" fill="#09AEEB"/>
<path d="M20.9974 1.0686H18.9136V7.05258H20.9974V1.0686Z" fill="#09AEEB"/>
<path d="M40.7124 0H16.7231V2.08372H40.7124V0Z" fill="#09AEEB"/>
<path d="M28.691 34.6216C24.0427 34.6216 20.2493 30.8282 20.2493 26.1799C20.2493 21.5317 24.0427 17.7383 28.691 17.7383C33.3392 17.7383 37.1327 21.5317 37.1327 26.1799C37.1327 30.8282 33.3927 34.6216 28.691 34.6216ZM28.691 19.822C25.1647 19.822 22.333 22.6537 22.333 26.1799C22.333 29.7062 25.1647 32.5379 28.691 32.5379C32.2172 32.5379 35.0489 29.7062 35.0489 26.1799C35.1023 22.6537 32.2172 19.822 28.691 19.822Z" fill="#09AEEB"/>
<path d="M28.6909 29.9733C26.6072 29.9733 24.8975 28.2636 24.8975 26.1799C24.8975 24.0962 26.6072 22.3865 28.6909 22.3865C30.7746 22.3865 32.4844 24.0962 32.4844 26.1799C32.4844 28.2636 30.7746 29.9733 28.6909 29.9733ZM28.6909 24.4702C27.7292 24.4702 26.9812 25.2182 26.9812 26.1799C26.9812 27.1416 27.7292 27.8896 28.6909 27.8896C29.6526 27.8896 30.4006 27.1416 30.4006 26.1799C30.4006 25.2716 29.6526 24.4702 28.6909 24.4702Z" fill="#09AEEB"/>
<path d="M29.7594 15.8147H27.6758V18.8067H29.7594V15.8147Z" fill="#09AEEB"/>
<path d="M25.9684 19.2254L24.4724 16.6343L22.6679 17.6762L24.1639 20.2673L25.9684 19.2254Z" fill="#09AEEB"/>
<path d="M22.7664 21.6569L20.1753 20.1609L19.1335 21.9654L21.7246 23.4614L22.7664 21.6569Z" fill="#09AEEB"/>
<path d="M21.3178 25.1646H18.3259V27.2482H21.3178V25.1646Z" fill="#09AEEB"/>
<path d="M22.8217 30.7642L21.7788 28.9602L19.1887 30.4577L20.2316 32.2617L22.8217 30.7642Z" fill="#09AEEB"/>
<path d="M25.9077 33.0284L24.1035 31.9863L22.6072 34.5771L24.4115 35.6191L25.9077 33.0284Z" fill="#09AEEB"/>
<path d="M29.7594 33.6064H27.6758V36.5984H29.7594V33.6064Z" fill="#09AEEB"/>
<path d="M34.8563 34.6353L33.3589 32.0452L31.555 33.0881L33.0524 35.6782L34.8563 34.6353Z" fill="#09AEEB"/>
<path d="M38.2806 30.5852L35.6892 29.0891L34.6474 30.8938L37.2388 32.3899L38.2806 30.5852Z" fill="#09AEEB"/>
<path d="M39.1095 25.1646H36.1174V27.2482H39.1095V25.1646Z" fill="#09AEEB"/>
<path d="M38.1848 21.8745L37.1431 20.0701L34.5521 21.5661L35.5938 23.3706L38.1848 21.8745Z" fill="#09AEEB"/>
<path d="M34.7605 17.6919L32.9565 16.6489L31.4591 19.2391L33.263 20.282L34.7605 17.6919Z" fill="#09AEEB"/>
</g>
</svg>
