<svg width="48" height="60" viewBox="0 0 48 60" fill="none" xmlns="http://www.w3.org/2000/svg">
<path d="M35.8865 14.6084H11.2477C10.7765 14.6084 10.3945 14.2264 10.3945 13.7553V6.25219C10.3945 5.78105 10.7765 5.39907 11.2477 5.39907H17.8081C18.0005 2.38982 20.5099 0 23.5671 0C26.6242 0 29.1336 2.38982 29.326 5.39907H35.8865C36.3576 5.39907 36.7396 5.78105 36.7396 6.25219V13.7553C36.7396 14.2264 36.3576 14.6084 35.8865 14.6084ZM12.1008 12.9022H35.0334V7.10531H28.4363C28.1955 7.10531 27.966 7.00367 27.8043 6.82496C27.6423 6.64667 27.5636 6.4084 27.5873 6.16846L27.6106 5.97559C27.6198 5.90769 27.6315 5.84062 27.6315 5.77064C27.6315 3.52953 25.8082 1.70624 23.5671 1.70624C21.326 1.70624 19.5027 3.52953 19.5027 5.77064C19.5027 5.84062 19.5143 5.90769 19.5235 5.97559L19.5468 6.16846C19.5706 6.4084 19.4918 6.64667 19.3298 6.82496C19.1682 7.00367 18.9386 7.10531 18.6979 7.10531H12.1008V12.9022Z" fill="#09AEEB"/>
<path d="M23.5664 7.77285C24.2384 7.77285 24.7831 7.2281 24.7831 6.5561C24.7831 5.88411 24.2384 5.33936 23.5664 5.33936C22.8944 5.33936 22.3496 5.88411 22.3496 6.5561C22.3496 7.2281 22.8944 7.77285 23.5664 7.77285Z" fill="#09AEEB"/>
<path d="M42.4005 55.1331H4.73242V11.6519H8.0291V13.3581H6.43866V53.4268H40.6943V13.3581H39.2567V11.6519H42.4005V55.1331Z" fill="#09AEEB"/>
<path d="M43.3717 60H3.75989C1.68666 60 0 58.3133 0 56.2401V10.6798C0 8.60658 1.68666 6.91992 3.75989 6.91992H8.1313V8.62616H3.75989C2.62768 8.62616 1.70624 9.5476 1.70624 10.6798V56.2401C1.70624 57.3723 2.62768 58.2937 3.75989 58.2937H43.3717C44.5039 58.2937 45.4253 57.3723 45.4253 56.2401V10.6798C45.4253 9.5476 44.5039 8.62616 43.3717 8.62616H38.4533V6.91992H43.3717C45.4449 6.91992 47.1315 8.60658 47.1315 10.6798V56.2401C47.1315 58.3133 45.4449 60 43.3717 60Z" fill="#09AEEB"/>
<path d="M14.6293 28.6019L11.8633 26.0421L13.0222 24.79L14.5651 26.2184L19.2998 21.3408L20.5244 22.5289L14.6293 28.6019Z" fill="#09AEEB"/>
<path d="M14.6293 38.9266L11.8633 36.3669L13.0222 35.1147L14.5651 36.5431L19.2998 31.6655L20.5244 32.8536L14.6293 38.9266Z" fill="#09AEEB"/>
<path d="M14.6293 49.2518L11.8633 46.692L13.0222 45.4399L14.5651 46.8683L19.2998 41.9907L20.5244 43.1788L14.6293 49.2518Z" fill="#09AEEB"/>
<path d="M36.5748 23.8193H24.7832V25.5256H36.5748V23.8193Z" fill="#09AEEB"/>
<path d="M36.5748 34.144H24.7832V35.8503H36.5748V34.144Z" fill="#09AEEB"/>
<path d="M36.5748 44.4692H24.7832V46.1755H36.5748V44.4692Z" fill="#09AEEB"/>
</svg>
